<svg xmlns="http://www.w3.org/2000/svg" height="20" width="20"><path d="M10.979 8.854ZM8.75 11.25ZM10 16.5q1.083 0 2.083-.344 1-.344 1.875-1.01-.896-.563-1.896-.854Q11.062 14 10 14q-1.062 0-2.073.281-1.01.281-1.885.865.875.666 1.875 1.01T10 16.5Zm2.396-6.208-1.084-1.084q.105-.166.146-.343.042-.177.042-.365 0-.625-.438-1.062Q10.625 7 10 7q-.188 0-.365.042-.177.041-.343.146L8.208 6.104q.396-.292.854-.448Q9.521 5.5 10 5.5q1.25 0 2.125.875T13 8.5q0 .479-.156.938-.156.458-.448.854Zm4.208 4.208-1.083-1.083q.479-.771.729-1.636.25-.864.25-1.781 0-2.708-1.896-4.604T10 3.5q-.917 0-1.781.25-.865.25-1.636.729L5.5 3.396q1-.688 2.146-1.042Q8.792 2 10 2q1.667 0 3.115.625 1.447.625 2.541 1.719 1.094 1.094 1.719 2.541Q18 8.333 18 10q0 1.208-.354 2.354-.354 1.146-1.042 2.146ZM10 18q-1.646 0-3.104-.625-1.458-.625-2.552-1.719t-1.719-2.552Q2 11.646 2 10q0-1.208.354-2.344.354-1.135 1.021-2.135L1.875 4l1.063-1.062 14.124 14.124L16 18.125 4.458 6.604q-.479.771-.718 1.625Q3.5 9.083 3.5 10q0 1.125.354 2.167.354 1.041 1.084 1.895 1.124-.791 2.406-1.177Q8.625 12.5 10 12.5q.771 0 1.521.135.75.136 1.479.386l2.646 2.646q-1.125 1.125-2.584 1.729Q11.604 18 10 18Z"/></svg>