<svg xmlns="http://www.w3.org/2000/svg" height="20" width="20"><path d="M10 16.5q.917 0 1.76-.271.844-.271 1.636-.708L10.375 12.5H10q-1.375 0-2.656.385-1.282.386-2.406 1.177 1.02 1.167 2.25 1.803Q8.417 16.5 10 16.5Zm6 1.625-1.5-1.5q-1 .667-2.146 1.021Q11.208 18 10 18q-1.646 0-3.104-.625-1.458-.625-2.552-1.719t-1.719-2.552Q2 11.646 2 10q0-1.208.354-2.344.354-1.135 1.021-2.135L1.875 4l1.063-1.062 14.124 14.124Zm.604-3.625-4.208-4.208q.292-.375.448-.844Q13 8.979 13 8.5q0-1.25-.875-2.125T10 5.5q-.479 0-.948.156t-.844.448L5.5 3.396q1-.667 2.146-1.031Q8.792 2 10 2q1.667 0 3.115.625 1.447.625 2.541 1.719 1.094 1.094 1.719 2.541Q18 8.333 18 10q0 1.208-.365 2.354-.364 1.146-1.031 2.146Z"/></svg>