<svg xmlns="http://www.w3.org/2000/svg" height="20" viewBox="0 -960 960 960" width="20"><path d="M666-456Zm246 72H692q-3-20-9.5-37.627Q676-439.254 666-456h172q-6-8-14.5-12t-16.561-7.789Q777-490 743-497q-34-7-71-7h-21q-10 0-21 2-19.104-17.754-41.552-30.877Q566-546 540-554q32-11 65-16.5t67-5.5q49 0 96 11t92 34q24 12 38 33t14 46v68ZM672-624q-50 0-85-35t-35-85q0-50 35-85t85-35q50 0 85 35t35 85q0 50-35 85t-85 35Zm0-72q20.4 0 34.2-13.8Q720-723.6 720-744q0-20.4-13.8-34.2Q692.4-792 672-792q-20.4 0-34.2 13.8Q624-764.4 624-744q0 20.4 13.8 34.2Q651.6-696 672-696Zm0-48ZM294-456ZM48-384v-68q0-25 14-46t38-33q45-23 92-34t96-11q34 0 67 5.5t65 16.5q-26 8-48.448 21.123Q349.104-519.754 330-502q-11-2-21-2h-21q-37 0-71 7t-63.939 21.211Q145-472 136.5-468q-8.5 4-14.5 12h172q-10 16.746-16.5 34.373T268-384H48Zm240-240q-50 0-85-35t-35-85q0-50 35-85t85-35q50 0 85 35t35 85q0 50-35 85t-85 35Zm0-72q20.4 0 34.2-13.8Q336-723.6 336-744q0-20.4-13.8-34.2Q308.4-792 288-792q-20.4 0-34.2 13.8Q240-764.4 240-744q0 20.4 13.8 34.2Q267.6-696 288-696Zm0-48Zm192.496 468Q451-276 429.5-296 408-316 408-345v-90q0-29 21.5-49t50.996-20q29.495 0 50.5 20Q552-464 552-435v90q0 29-21.004 49-21.005 20-50.5 20ZM456-96v-86q-58-8-98.5-51T313-336h48q4 45 38.5 76.5T480-228q46 0 79.5-31.5T598-336h49q-4 60-44.5 103T504-182v86h-48Z"/></svg>