<svg xmlns="http://www.w3.org/2000/svg" height="20" width="20"><path d="M7 11.75q.312 0 .531-.219.219-.219.219-.531 0-.312-.219-.531-.219-.219-.531-.219-.312 0-.531.219-.219.219-.219.531 0 .312.219.531.219.219.531.219Zm3 0q.312 0 .531-.219.219-.219.219-.531 0-.312-.219-.531-.219-.219-.531-.219-.312 0-.531.219-.219.219-.219.531 0 .312.219.531.219.219.531.219Zm3 0q.312 0 .531-.219.219-.219.219-.531 0-.312-.219-.531-.219-.219-.531-.219-.312 0-.531.219-.219.219-.219.531 0 .312.219.531.219.219.531.219ZM10 18q-1.458 0-2.729-.552-1.271-.552-2.219-1.5t-1.5-2.219Q3 12.458 3 11q0-1.458.552-2.729.552-1.271 1.5-2.219t2.219-1.5Q8.542 4 10 4q1.458 0 2.729.552 1.271.552 2.219 1.5t1.5 2.219Q17 9.542 17 11q0 1.458-.552 2.729-.552 1.271-1.5 2.219t-2.219 1.5Q11.458 18 10 18ZM4.938 2.396 6 3.458 2.458 7 1.396 5.938Zm10.124 0 3.542 3.542L17.542 7 14 3.458Z"/></svg>