<svg xmlns="http://www.w3.org/2000/svg" height="20" width="20"><path d="M7.125 13.5 9.917 10 7.125 6.5 9.917 10l-.438.542q-.437.541-.958 1.198l-.959 1.208-.437.552ZM4 15l4-5-4-5h9l3.854 4.812q-.542-.187-1.073-.27-.531-.084-1.093-.042l-2.417-3H7.125L9.917 10l-2.792 3.5h2.583q-.104.354-.156.729-.052.375-.052.771Zm10.417 1.75 2.708-2.812-.729-.688-2 2.062-.813-.812-.708.708ZM15 19q-1.667 0-2.833-1.167Q11 16.667 11 15q0-1.667 1.167-2.833Q13.333 11 15 11q1.667 0 2.833 1.167Q19 13.333 19 15q0 1.667-1.167 2.833Q16.667 19 15 19Z"/></svg>