<svg xmlns="http://www.w3.org/2000/svg" height="20" width="20"><path d="M9.25 3.708V1h1.5v2.708ZM5.958 4.75 3.604 2.396l1.042-1.042L7 3.708ZM3 18v-7l2-5h3V4.5h2.104q-.292.562-.448 1.198Q9.5 6.333 9.5 7v.25q0 .125.021.25h-3.5L5.062 10h5.334q.292.438.656.823.365.385.781.677H4.5V15h11v-2.521q.396-.041.771-.125.375-.083.729-.229V18h-2v-1.5H5V18Zm2.5-4h3v-1.5h-3Zm6 0h3v-1.5h-3Zm-7 1v-3.5V15Zm9.938-6.25 2.687-2.812-.729-.688-1.979 2.062-.834-.812-.708.708ZM15 11q-1.667 0-2.833-1.167Q11 8.667 11 7q0-1.667 1.167-2.833Q13.333 3 15 3q1.667 0 2.833 1.167Q19 5.333 19 7q0 1.667-1.167 2.833Q16.667 11 15 11Z"/></svg>