<svg xmlns="http://www.w3.org/2000/svg" height="20" width="20"><path d="M12.5 4.25q-.417 0-.708-.292-.292-.291-.292-.708t.292-.708q.291-.292.708-.292t.708.292q.292.291.292.708t-.292.708q-.291.292-.708.292Zm0 13.5q-.417 0-.708-.292-.292-.291-.292-.708t.292-.708q.291-.292.708-.292t.708.292q.292.291.292.708t-.292.708q-.291.292-.708.292ZM16 7.25q-.417 0-.708-.292Q15 6.667 15 6.25t.292-.708q.291-.292.708-.292t.708.292q.292.291.292.708t-.292.708q-.291.292-.708.292Zm0 7.5q-.417 0-.708-.292Q15 14.167 15 13.75t.292-.708q.291-.292.708-.292t.708.292q.292.291.292.708t-.292.708q-.291.292-.708.292ZM17 11q-.417 0-.708-.292Q16 10.417 16 10t.292-.708Q16.583 9 17 9t.708.292Q18 9.583 18 10t-.292.708Q17.417 11 17 11Zm-7 7q-1.646 0-3.104-.625-1.458-.625-2.552-1.719t-1.719-2.552Q2 11.646 2 10q0-1.667.625-3.115.625-1.447 1.719-2.541Q5.438 3.25 6.896 2.625T10 2v1.5q-2.708 0-4.604 1.896T3.5 10q0 2.708 1.896 4.604T10 16.5Zm0-6.5q-.625 0-1.062-.438Q8.5 10.625 8.5 10v-.198q0-.094.042-.198L7 8.062 8.062 7l1.542 1.542Q9.729 8.5 10 8.5q.625 0 1.062.438.438.437.438 1.062t-.438 1.062q-.437.438-1.062.438Z"/></svg>