<svg xmlns="http://www.w3.org/2000/svg" height="20" width="20"><path d="M4.5 15.5h1.625v-1.625H4.5Zm3.125 0H9.25v-1.625H7.625Zm3.125 0h1.625v-1.625H10.75Zm3.125 0H15.5v-1.625h-1.625ZM4.5 6.125h1.625V4.5H4.5Zm0 3.125h1.625V7.625H4.5Zm0 3.125h1.625V10.75H4.5Zm3.125-6.25H9.25V4.5H7.625Zm0 3.125H9.25V7.625H7.625Zm0 3.125H9.25V10.75H7.625Zm3.125-6.25h1.625V4.5H10.75Zm0 3.125h1.625V7.625H10.75Zm0 3.125h1.625V10.75H10.75Zm3.125-6.25H15.5V4.5h-1.625Zm0 3.125H15.5V7.625h-1.625Zm0 3.125H15.5V10.75h-1.625ZM3 17V3h14v14Z"/></svg>