<svg xmlns="http://www.w3.org/2000/svg" height="20" width="20"><path d="M2.5 12.25q-.208 0-.354-.146T2 11.75q0-.208.146-.354t.354-.146q.208 0 .354.146T3 11.75q0 .208-.146.354t-.354.146Zm0-3.5q-.208 0-.354-.146T2 8.25q0-.208.146-.354T2.5 7.75q.208 0 .354.146T3 8.25q0 .208-.146.354T2.5 8.75Zm2.5 7q-.312 0-.531-.219-.219-.219-.219-.531 0-.312.219-.531.219-.219.531-.219.312 0 .531.219.219.219.219.531 0 .312-.219.531-.219.219-.531.219Zm0-3.25q-.312 0-.531-.219-.219-.219-.219-.531 0-.312.219-.531Q4.688 11 5 11q.312 0 .531.219.219.219.219.531 0 .312-.219.531-.219.219-.531.219ZM5 9q-.312 0-.531-.219-.219-.219-.219-.531 0-.312.219-.531Q4.688 7.5 5 7.5q.312 0 .531.219.219.219.219.531 0 .312-.219.531Q5.312 9 5 9Zm0-3.25q-.312 0-.531-.219Q4.25 5.312 4.25 5q0-.312.219-.531.219-.219.531-.219.312 0 .531.219.219.219.219.531 0 .312-.219.531-.219.219-.531.219Zm3.25 10q-.312 0-.531-.219Q7.5 15.312 7.5 15q0-.312.219-.531.219-.219.531-.219.312 0 .531.219Q9 14.688 9 15q0 .312-.219.531-.219.219-.531.219Zm0-10q-.312 0-.531-.219Q7.5 5.312 7.5 5q0-.312.219-.531.219-.219.531-.219.312 0 .531.219Q9 4.688 9 5q0 .312-.219.531-.219.219-.531.219Zm0 12.25q-.208 0-.354-.146T7.75 17.5q0-.208.146-.354T8.25 17q.208 0 .354.146t.146.354q0 .208-.146.354T8.25 18Zm0-15q-.208 0-.354-.146T7.75 2.5q0-.208.146-.354T8.25 2q.208 0 .354.146t.146.354q0 .208-.146.354T8.25 3Zm3.5 12.75q-.312 0-.531-.219Q11 15.312 11 15q0-.312.219-.531.219-.219.531-.219.312 0 .531.219.219.219.219.531 0 .312-.219.531-.219.219-.531.219Zm0-10q-.312 0-.531-.219Q11 5.312 11 5q0-.312.219-.531.219-.219.531-.219.312 0 .531.219.219.219.219.531 0 .312-.219.531-.219.219-.531.219Zm0 12.25q-.208 0-.354-.146t-.146-.354q0-.208.146-.354T11.75 17q.208 0 .354.146t.146.354q0 .208-.146.354T11.75 18Zm0-15q-.208 0-.354-.146T11.25 2.5q0-.208.146-.354T11.75 2q.208 0 .354.146t.146.354q0 .208-.146.354T11.75 3ZM15 15.75q-.312 0-.531-.219-.219-.219-.219-.531 0-.312.219-.531.219-.219.531-.219.312 0 .531.219.219.219.219.531 0 .312-.219.531-.219.219-.531.219Zm0-3.25q-.312 0-.531-.219-.219-.219-.219-.531 0-.312.219-.531Q14.688 11 15 11q.312 0 .531.219.219.219.219.531 0 .312-.219.531-.219.219-.531.219ZM15 9q-.312 0-.531-.219-.219-.219-.219-.531 0-.312.219-.531.219-.219.531-.219.312 0 .531.219.219.219.219.531 0 .312-.219.531Q15.312 9 15 9Zm0-3.25q-.312 0-.531-.219-.219-.219-.219-.531 0-.312.219-.531.219-.219.531-.219.312 0 .531.219.219.219.219.531 0 .312-.219.531-.219.219-.531.219Zm2.5 6.5q-.208 0-.354-.146T17 11.75q0-.208.146-.354t.354-.146q.208 0 .354.146t.146.354q0 .208-.146.354t-.354.146Zm0-3.5q-.208 0-.354-.146T17 8.25q0-.208.146-.354t.354-.146q.208 0 .354.146T18 8.25q0 .208-.146.354t-.354.146ZM7 13v-.438q0-.979.938-1.395.937-.417 2.062-.417 1.125 0 2.062.417.938.416.938 1.395V13Zm3-3q-.625 0-1.062-.438Q8.5 9.125 8.5 8.5t.438-1.062Q9.375 7 10 7t1.062.438q.438.437.438 1.062t-.438 1.062Q10.625 10 10 10Z"/></svg>