<svg xmlns="http://www.w3.org/2000/svg" height="20" width="20"><path d="M5 9.625v1.813q-.25.229-.375.427-.125.197-.125.385 0 .083.01.146.011.062.052.146L5.5 13h1.938l.166.458L8.875 13h3l.646.938 1.958-.48L15 12.5h.458q.021-.062.032-.125.01-.063.01-.125 0-.188-.125-.385-.125-.198-.375-.427V9.625q.979.521 1.49 1.208.51.688.51 1.417 0 .062-.01.125-.011.063-.011.125h.271l.75 1-1 2.5h-2.104l.042.25-1.917.75h-5.25l-.209-.583L5 17l-3-2.25V13l1-.667v-.083q0-.729.51-1.406.511-.677 1.49-1.219ZM6.292 11q.083-.292.156-.562.073-.271.073-.584 0-.562-.313-1-.312-.437-.666-.916-.354-.48-.657-1.094-.302-.615-.302-1.552 0-.292.042-.615T4.729 4H6.25q-.083.354-.125.656-.042.302-.042.573 0 .729.302 1.229.303.5.657.98.354.479.666 1.031.313.552.313 1.427 0 .271-.042.542-.041.27-.125.562Zm3 0q.083-.292.146-.562.062-.271.062-.584 0-.562-.302-1-.302-.437-.656-.916-.354-.48-.667-1.094-.313-.615-.313-1.552 0-.292.042-.615T7.708 4h1.521q-.083.354-.125.656-.042.302-.042.573 0 .729.303 1.229.302.5.656.98.354.479.667 1.031.312.552.312 1.427 0 .271-.031.542-.031.27-.115.562Zm2.958 0q.083-.292.156-.562.073-.271.073-.584 0-.562-.312-1-.313-.437-.667-.916-.354-.48-.656-1.094-.302-.615-.302-1.552 0-.292.041-.615.042-.323.105-.677h1.52q-.083.354-.125.656-.041.302-.041.573 0 .729.302 1.229.302.5.656.98.354.479.667 1.031.312.552.312 1.427 0 .271-.041.542-.042.27-.126.562Z"/></svg>