<svg xmlns="http://www.w3.org/2000/svg" height="20" width="20"><path d="M15.5 8q-.625 0-1.062-.438Q14 7.125 14 6.5t.438-1.062Q14.875 5 15.5 5t1.062.438Q17 5.875 17 6.5t-.438 1.062Q16.125 8 15.5 8Zm-11 0q-.625 0-1.062-.438Q3 7.125 3 6.5t.438-1.062Q3.875 5 4.5 5t1.062.438Q6 5.875 6 6.5t-.438 1.062Q5.125 8 4.5 8Zm2.854-1q.208-.792.104-1.24-.104-.448-.583-1.052-.625-.729-.792-1.427-.166-.698.021-1.781h1.021q-.187 1-.083 1.479.104.479.604 1.083.604.73.792 1.438.187.708-.042 1.5Zm2.25 0q.208-.792.104-1.24-.104-.448-.583-1.052-.625-.729-.792-1.427-.166-.698.021-1.781h1.021q-.208.833-.094 1.406.115.573.615 1.156.604.73.792 1.438.187.708-.042 1.5Zm2.25 0q.208-.792.104-1.24-.104-.448-.583-1.052-.625-.729-.792-1.427-.166-.698.021-1.781h1.021q-.167 1.021-.073 1.49.094.468.594 1.072.604.73.792 1.438.187.708-.042 1.5ZM2 18v-7h1v-.438q0-.624.417-1.093Q3.833 9 4.438 9q.312 0 .604.115.291.114.5.343L6.896 11h6.208l1.354-1.542q.209-.229.5-.343Q15.25 9 15.562 9q.605 0 1.021.469.417.469.417 1.093V11h1v7Zm1.5-4h13v-1.5h-13Zm0 2.5h13v-1h-13ZM10 14Zm0 1.5Zm0 0V14Z"/></svg>