<svg xmlns="http://www.w3.org/2000/svg" height="20" width="20"><path d="M14 18q-1.667 0-2.833-1.167Q10 15.667 10 14q0-1.667 1.167-2.833Q12.333 10 14 10q1.667 0 2.833 1.167Q18 12.333 18 14q0 1.667-1.167 2.833Q15.667 18 14 18Zm.208-3.5 1.563-1.562-.709-.709-1.562 1.563ZM2 9.25V4h16v6.208q-.792-.833-1.823-1.27Q15.146 8.5 14 8.5q-.771 0-1.479.208-.709.209-1.313.563L9.896 6.896q-.104-.188-.271-.281-.167-.094-.375-.094t-.385.094q-.177.093-.282.281L6.25 11.188l-.854-1.542q-.104-.188-.271-.292-.167-.104-.375-.104ZM2 16v-5.25h2.292l1.291 2.354q.105.167.271.271.167.104.396.104.208 0 .375-.104t.271-.271L9.25 8.812l.771 1.396q-.709.73-1.115 1.698Q8.5 12.875 8.5 14q0 .521.094 1.021.094.5.281.979Z"/></svg>