<svg xmlns="http://www.w3.org/2000/svg" height="20" width="20"><path d="M2 8V5.5q0-.625.438-1.062Q2.875 4 3.5 4h13q.625 0 1.062.438Q18 4.875 18 5.5V9h-1.5V5.5h-13V8Zm6.875 8H3.5q-.625 0-1.062-.438Q2 15.125 2 14.5V12h1.5v2.5h5.021q.041.396.125.771.083.375.229.729ZM10 10Zm4 8q-1.667 0-2.833-1.167Q10 15.667 10 14q0-1.667 1.167-2.833Q12.333 10 14 10q1.667 0 2.833 1.167Q18 12.333 18 14q0 1.667-1.167 2.833Q15.667 18 14 18Zm.208-3.5 1.563-1.562-.709-.709-1.562 1.563ZM2 10.75v-1.5h3.167l1.083 1.938L8.792 6.5h.937l1.459 2.771q-.334.187-.615.417-.281.229-.552.52L9.25 8.812 6.688 13.5h-.876l-1.52-2.75Z"/></svg>