<svg xmlns="http://www.w3.org/2000/svg" height="20" width="20"><path d="M10 10q-.625 0-1.062-.438Q8.5 9.125 8.5 8.5t.438-1.062Q9.375 7 10 7t1.062.438q.438.437.438 1.062t-.438 1.062Q10.625 10 10 10ZM5.938 7.646q.312 0 .531-.219.219-.219.219-.531 0-.313-.219-.531-.219-.219-.531-.219-.313 0-.532.219-.218.218-.218.531 0 .312.218.531.219.219.532.219ZM4 17v-1.5h2.375l.521-1.542q-2.084-.229-3.49-1.77Q2 10.646 2 8.5q0-2.292 1.604-3.896T7.5 3h5q2.292 0 3.896 1.604T18 8.5q0 2.146-1.406 3.688-1.406 1.541-3.49 1.77l.521 1.542H16V17Zm6-5.5q1.25 0 2.125-.875T13 8.5q0-1.25-.875-2.125T10 5.5q-1.25 0-2.125.875T7 8.5q0 1.25.875 2.125T10 11.5Z"/></svg>