<svg xmlns="http://www.w3.org/2000/svg" height="20" viewBox="0 -960 960 960" width="20"><path d="m384-384 34-34-38-38h76q40.07 0 68.03-27.95 27.97-27.95 27.97-68T524.03-620q-27.96-28-68.03-28H312v48h144q20.07 0 34.04 13.95 13.96 13.95 13.96 34T490.04-518q-13.97 14-34.04 14h-76l38-38-34-34-96 96 96 96ZM282-216q-36 0-67.2-19.35Q183.6-254.7 168-288H48v-288h108l75-192h354l111 174 215 18v288H791q-15.6 33.3-46.8 52.65Q713-216 677-216t-66.64-19.35Q579.73-254.7 564.41-288H395q-16 33-46.26 52.5Q318.49-216 282-216Z"/></svg>