<svg xmlns="http://www.w3.org/2000/svg" height="20" width="20"><path d="M6.083 15q-.916 0-1.521-.604-.604-.604-.604-1.521 0-.917.615-1.521.615-.604 1.51-.604.896 0 1.511.615.614.614.614 1.51t-.604 1.51Q7 15 6.083 15ZM4.146 9.271V5h.896v4.271Zm1.937 4.917q.542 0 .907-.376.364-.374.364-.937 0-.583-.354-.948t-.917-.365q-.541 0-.906.365t-.365.948q0 .563.365.937.365.376.906.376Zm-.208-4.917V5h1L8.5 7.729l-.042-.687V5h.896v4.271h-.937L6.729 6.417l.042.645v2.209Zm4.667 5.75q-.73 0-1.177-.49-.448-.489-.448-1.281v-2.5h.875v2.542q0 .396.218.646.219.25.552.25.334 0 .553-.261.218-.26.218-.635V10.75h.855v2.5q0 .792-.459 1.281-.458.49-1.187.49ZM14.021 15v-3.417h-1.125v-.833h3.125v.833h-1.125V15Z"/></svg>