<svg xmlns="http://www.w3.org/2000/svg" height="20" width="20"><path d="m6.375 4.438-.771-2.376 1.417-.479.791 2.375ZM9.25 3.5V1h1.5v2.5Zm4.354.917-1.416-.459.791-2.375 1.417.459Zm4.292 14.562.208-1.479-4.521-.667-.958-2.937.417-.854.708 2.187 1.438-.458-2-6.229.187-.084L16.542 15H19v-1.5h-1.521L14 6.5l-2.625 1.208 1.021 3.25-1.375 2.813 1.396 4.396Zm-4.146-3.75-1.354-4.271 1.354 4.271Zm1.438-.458ZM2.104 18.979 1.896 17.5l4.521-.667.958-2.937-.417-.854-.708 2.187-1.438-.458 2-6.229-.187-.084L3.458 15H1v-1.5h1.521L6 6.5l2.625 1.208-1.021 3.25 1.375 2.813-1.396 4.396Zm4.146-3.75 1.354-4.271-1.354 4.271Zm-1.438-.458Z"/></svg>