<svg xmlns="http://www.w3.org/2000/svg" height="20" width="20"><path d="M7.5 15.833q-2.375-.521-3.938-2.416Q2 11.521 2 9q0-2.917 2.042-4.958Q6.083 2 9 2q2.917 0 4.958 2.042Q16 6.083 16 9q0 .958-.24 1.844-.239.885-.698 1.656H10.75q-1.354 0-2.302.948T7.5 15.75v.083Zm3.583-4 1.063-1.062L9.75 8.375V5h-1.5v4ZM10.75 17.5h5q.729 0 1.24-.51.51-.511.51-1.24t-.51-1.24q-.511-.51-1.24-.51h-5q-.729 0-1.24.51-.51.511-.51 1.24t.51 1.24q.511.51 1.24.51Zm0-1q-.312 0-.531-.219Q10 16.062 10 15.75q0-.312.219-.531.219-.219.531-.219.312 0 .531.219.219.219.219.531 0 .312-.219.531-.219.219-.531.219Zm2.5 0q-.312 0-.531-.219-.219-.219-.219-.531 0-.312.219-.531.219-.219.531-.219.312 0 .531.219.219.219.219.531 0 .312-.219.531-.219.219-.531.219Zm2.5 0q-.312 0-.531-.219Q15 16.062 15 15.75q0-.312.219-.531.219-.219.531-.219.312 0 .531.219.219.219.219.531 0 .312-.219.531-.219.219-.531.219Z"/></svg>