<svg xmlns="http://www.w3.org/2000/svg" height="20" viewBox="0 -960 960 960" width="20"><path d="M517-368h149.6q8.415-7 17.765-12.5Q693.715-386 704-391v-52h-56v19h-75v-112h74.857v18.667H704V-592H517v224Zm-261 0h187v-74.667h-56.143V-424H312v-112h74.857v19H443v-75H256v224Zm-40 176q-29.7 0-50.85-21.162Q144-234.324 144-264.04v-432.243Q144-726 165.15-747T216-768h528q29.7 0 50.85 21.173Q816-725.653 816-695.921V-404q-45-9-88 4t-75 45q-32.123 32.427-45.062 75.214Q595-237 604-192H216Zm528 72v-72h-72v-72h72v-72h72v72h72v72h-72v72h-72Z"/></svg>