<svg xmlns="http://www.w3.org/2000/svg" height="20" width="20"><path d="M9 5.75q-.729 0-1.24-.51-.51-.511-.51-1.24t.51-1.24q.511-.51 1.24-.51t1.24.51q.51.511.51 1.24t-.51 1.24q-.511.51-1.24.51ZM14 15q.833 0 1.417-.583Q16 13.833 16 13q0-.833-.583-1.417Q14.833 11 14 11q-.833 0-1.417.583Q12 12.167 12 13q0 .833.583 1.417Q13.167 15 14 15Zm3.938 3-2.042-2.042q-.417.271-.906.407-.49.135-.99.135-1.458 0-2.479-1.021Q10.5 14.458 10.5 13q0-1.458 1.021-2.479Q12.542 9.5 14 9.5q1.458 0 2.479 1.021Q17.5 11.542 17.5 13q0 .5-.135.99-.136.489-.407.906L19 16.938ZM10 18v-2q.292.417.677.75.385.333.823.583V18Zm-3.5 0V8.354q-1.146-.083-2.26-.333-1.115-.25-2.24-.542l.375-1.396Q4 6.521 5.656 6.76 7.312 7 9 7t3.344-.24q1.656-.239 3.281-.677L16 7.479q-1.104.354-2.229.552-1.125.198-2.271.323v.313q-1.125.645-1.812 1.791Q9 11.604 9 13H8v5Z"/></svg>