<svg xmlns="http://www.w3.org/2000/svg" height="20" width="20"><path d="M10 15.042Q12.083 15.042 13.562 13.562Q15.042 12.083 15.042 10Q15.042 7.917 13.562 6.438Q12.083 4.958 10 4.958Q7.917 4.958 6.438 6.438Q4.958 7.917 4.958 10Q4.958 12.083 6.438 13.562Q7.917 15.042 10 15.042ZM10 13.292Q8.625 13.292 7.667 12.333Q6.708 11.375 6.708 10Q6.708 8.625 7.667 7.667Q8.625 6.708 10 6.708Q11.375 6.708 12.333 7.667Q13.292 8.625 13.292 10Q13.292 11.375 12.333 12.333Q11.375 13.292 10 13.292ZM9.396 10.604Q9.667 10.875 10 10.875Q10.333 10.875 10.604 10.604L11.771 9.438Q12.042 9.167 12.042 8.833Q12.042 8.5 11.771 8.229Q11.5 7.958 11.167 7.969Q10.833 7.979 10.562 8.229L9.396 9.396Q9.125 9.667 9.125 10Q9.125 10.333 9.396 10.604ZM4.25 17.5Q3.521 17.5 3.01 16.99Q2.5 16.479 2.5 15.75V4.25Q2.5 3.521 3.01 3.01Q3.521 2.5 4.25 2.5H15.75Q16.479 2.5 16.99 3.01Q17.5 3.521 17.5 4.25V15.75Q17.5 16.479 16.99 16.99Q16.479 17.5 15.75 17.5Z"/></svg>