<svg xmlns="http://www.w3.org/2000/svg" height="20" width="20"><path d="m16 18.125-1.5-1.5q-1.021.667-2.156 1.021Q11.208 18 10 18q-1.646 0-3.104-.625-1.458-.625-2.552-1.719t-1.719-2.552Q2 11.646 2 10q0-1.208.354-2.344.354-1.135 1.021-2.156L1.875 4l1.063-1.062 14.124 14.124ZM10 16.5q.917 0 1.771-.271.854-.271 1.646-.708L10 12.104Zm6.625-2-1.104-1.083q.458-.792.719-1.646.26-.854.26-1.771 0-2.708-1.896-4.604T10 3.5v4.375l-4.5-4.5q1-.667 2.146-1.021Q8.792 2 10 2q1.667 0 3.115.625 1.447.625 2.541 1.719 1.094 1.094 1.719 2.541Q18 8.333 18 10q0 1.208-.354 2.354-.354 1.146-1.021 2.146Z"/></svg>