<svg xmlns="http://www.w3.org/2000/svg" height="20" width="20"><path d="M16.729 18.833 1.167 3.271l1.062-1.042 15.542 15.542ZM8.25 15.25q-1.146 0-1.948-.802T5.5 12.5q0-1.146.802-1.948T8.25 9.75h1.5l1.5 1.5h-3q-.521 0-.885.365Q7 11.979 7 12.5t.365.885q.364.365.885.365h5.5l2.938 2.938q-.271.145-.563.229-.292.083-.625.083-.854 0-1.5-.5t-.875-1.25Zm9.479.354-3.333-3.333q.25-.125.531-.198.281-.073.573-.073 1.042 0 1.771.729.729.729.729 1.771 0 .292-.073.573-.073.281-.198.531Zm-5.021-5.021L11.625 9.5q.396-.229.635-.625.24-.396.24-.875 0-.729-.51-1.24-.511-.51-1.24-.51H8.375l-1.5-1.5h3.875q1.354 0 2.302.948T14 8q0 .792-.344 1.458-.344.667-.948 1.125ZM4.5 8q-1.042 0-1.771-.729Q2 6.542 2 5.5q0-.708.365-1.292.364-.583.947-.896l3.376 3.376q-.313.583-.886.947Q5.229 8 4.5 8Z"/></svg>