<svg xmlns="http://www.w3.org/2000/svg" height="20" width="20"><path d="M9.021 16.5q-.188-.583-.5-1.104-.313-.521-.729-.938-.417-.416-.938-.729-.521-.312-1.104-.5.042.667.312 1.24.271.573.709 1.01.437.438 1.01.709.573.27 1.24.312Zm1.958 0q.667-.042 1.24-.312.573-.271 1.01-.709.438-.437.709-1.01.27-.573.312-1.24-.583.188-1.104.5-.521.313-.938.729-.416.417-.729.938-.312.521-.5 1.104ZM10 9.5q1.458 0 2.479-1.021Q13.5 7.458 13.5 6V4.396l-1.688 1.125L10 3.708 8.188 5.521 6.5 4.396V6q0 1.458 1.021 2.479Q8.542 9.5 10 9.5ZM9.25 18q-2.083 0-3.542-1.458Q4.25 15.083 4.25 13v-1.5q1.479 0 2.74.604 1.26.604 2.26 1.771v-2.854q-1.833-.292-3.042-1.709Q5 7.896 5 6V1.583l3 2 2-2 2 2 3-2V6q0 1.896-1.208 3.312-1.209 1.417-3.042 1.709v2.854q1-1.167 2.26-1.771 1.261-.604 2.74-.604V13q0 2.083-1.458 3.542Q12.833 18 10.75 18ZM10 6.604Zm2.625 8.25Zm-5.229 0Z"/></svg>