<svg xmlns="http://www.w3.org/2000/svg" height="20" viewBox="0 96 960 960" width="20"><path d="m672 912 108-108-34-34-50 50V720h-48v100l-50-50-34 34 108 108ZM480 555ZM144 377l335-194 337 194v218q-21.724-13.812-45.862-23.906T720 555.99V493l-119 69q-57 16-101 53.5T432 706V604L240 493v227.049L408 817q0 36 9.5 69t26.5 62L144 775V377Zm139 30 197 113 197-113-197-114-197 114Zm388.774 601Q592 1008 536 951.774t-56-136Q480 736 536.226 680t136-56Q752 624 808 680.226t56 136Q864 896 807.774 952t-136 56Z"/></svg>