<svg xmlns="http://www.w3.org/2000/svg" height="20" viewBox="0 96 960 960" width="20"><path d="M672 912q9.6 0 16.8-7.2 7.2-7.2 7.2-16.8 0-9.6-7.2-16.8-7.2-7.2-16.8-7.2-9.6 0-16.8 7.2-7.2 7.2-7.2 16.8 0 9.6 7.2 16.8 7.2 7.2 16.8 7.2Zm-24-96h48v-96h-48v96Zm-504-41V377l336-194 336 194v218q-31-20-67.321-31.5Q712.357 552 672 552q-18 0-35.5 2t-34.5 7l118-68v-61l-43-25-197 113-197-113-43 25v61l192 111v102q-11 26-17.5 53.5T408 816q0 36 9.409 69.468T444 948L144 775Zm527.774 233Q592 1008 536 951.774t-56-136Q480 736 536.226 680t136-56Q752 624 808 680.226t56 136Q864 896 807.774 952t-136 56Z"/></svg>