<svg xmlns="http://www.w3.org/2000/svg" height="20" width="20"><path d="M5 2.5H16.667V6H18.417V7.75H16.667V9.125H18.417V10.875H16.667V12.25H18.417V14H16.5L14.917 12.438V4.25H6.75ZM9.125 6.625 8.5 6H9.125ZM10.896 8.396 10 7.5V6H13.167V8.396ZM13.167 10.688 11.75 9.271H13.167ZM8.396 10.812ZM10.833 8.333ZM5.167 14V10.812H9.125V14ZM2.688 2.646 4.292 4.25H3.375V15.75H14.875V14.854L16.479 16.458V17.5H1.625V2.646ZM10 9.958 13.167 13.146V14H10ZM6.042 6 9.125 9.083V9.938H5.167V6ZM16.979 19.417 0.562 2.979 1.792 1.75 18.208 18.188Z"/></svg>