<svg xmlns="http://www.w3.org/2000/svg" height="20" width="20"><path d="M10 18q-2.25 0-3.625-.656T5 15.625q0-.667.583-1.187.584-.521 1.667-.834l.417 1.438q-.417.146-.677.27-.261.126-.49.334.167.292 1.292.573Q8.917 16.5 10 16.5q1.167 0 2.271-.281 1.104-.281 1.229-.636-.292-.208-.552-.333-.26-.125-.615-.229l.417-1.438q1.083.313 1.667.844.583.531.583 1.198 0 1.063-1.375 1.719Q12.25 18 10 18Zm0-5.25q.396-.708.802-1.271.406-.562.802-1.104.771-1.021 1.198-1.729.427-.708.427-1.917 0-1.375-.927-2.302T10 3.5q-1.375 0-2.302.927t-.927 2.302q0 1.209.427 1.917t1.198 1.729q.396.542.812 1.104.417.563.792 1.271Zm0 2.75q-.208 0-.396-.125-.187-.125-.25-.354-.479-1.438-1.156-2.386-.677-.947-1.344-1.802-.875-1.125-1.229-2.052-.354-.927-.354-2.052 0-2.021 1.354-3.375T10 2q2.021 0 3.375 1.354t1.354 3.375q0 1.125-.344 2.052-.343.927-1.218 2.052-.646.855-1.334 1.792-.687.937-1.166 2.375-.084.229-.261.365-.177.135-.406.135Zm0-7.083q.708 0 1.198-.49.49-.489.49-1.198 0-.708-.49-1.208T10 5.021q-.708 0-1.198.5t-.49 1.208q0 .709.49 1.198.49.49 1.198.49Zm0-1.584Z"/></svg>