<svg xmlns="http://www.w3.org/2000/svg" height="20" width="20"><path d="M10 15q-2.083 0-3.542-1.458Q5 12.083 5 10l1.521.5q.187 1.292 1.177 2.146.99.854 2.302.854 1.458 0 2.479-1.021Q13.5 11.458 13.5 10q0-1.312-.854-2.302T10.5 6.521L10 5q2.083 0 3.542 1.458Q15 7.917 15 10q0 2.083-1.458 3.542Q12.083 15 10 15Zm0 3q-1.646 0-3.104-.625-1.458-.625-2.552-1.719t-1.719-2.552Q2 11.646 2 10q0-.229.01-.458.011-.23.032-.459l1.458.459V10q0 2.708 1.896 4.604T10 16.5q2.708 0 4.604-1.896T16.5 10q0-2.708-1.896-4.604T10 3.5q-.104 0-.229.01-.125.011-.229.011l-.459-1.459q.229-.041.459-.052Q9.771 2 10 2q1.667 0 3.115.625 1.447.625 2.541 1.719 1.094 1.094 1.719 2.541Q18 8.333 18 10q0 1.646-.625 3.104-.625 1.458-1.719 2.552t-2.541 1.719Q11.667 18 10 18Zm-.917-7.5L5.625 7.021 4.5 10 2 2l8 2.5-2.979 1.104L10.5 9.083Z"/></svg>