<svg xmlns="http://www.w3.org/2000/svg" height="20" width="20"><path d="M8.938 13.479q-.334.333-.844.417-.511.083-1.24-.104-.166-.042-.333-.125-.167-.084-.292.041-.146.146-.052.334.094.187.135.375.167.708.094 1.229-.073.521-.406.875t-.854.427q-.521.073-1.229-.094-.334-.083-.573 0-.24.084-.594.438L1.708 16.25q.667-.688 1.125-.875.459-.187 1.146-.063.188.042.49.157.302.114.427.01.146-.125.073-.312-.073-.188-.115-.396-.166-.709-.094-1.229.073-.521.407-.875.333-.355.854-.438.521-.083 1.229.104.167.042.333.136.167.093.292-.031.146-.146.052-.334-.094-.187-.135-.375-.167-.729-.104-1.26.062-.531.395-.865.334-.354.865-.437.531-.084 1.24.104.166.041.333.135t.291-.031q.146-.146.053-.333-.094-.188-.136-.375-.167-.729-.104-1.261.063-.531.396-.864.333-.334.854-.417.521-.083 1.25.104.167.042.333.125.167.084.292-.042.146-.145.062-.333-.083-.187-.124-.375-.167-.708-.094-1.229.073-.521.406-.875t.854-.427q.521-.073 1.229.094.334.083.573 0 .24-.084.594-.438l1.042 1.042q-.667.687-1.125.875-.459.187-1.146.062-.188-.041-.479-.156-.292-.114-.417-.01-.146.125-.083.312.062.188.104.396.166.708.094 1.229-.073.521-.407.875-.333.354-.864.438-.531.083-1.219-.104-.167-.042-.344-.136-.177-.094-.302.031-.146.146-.052.334.094.187.136.375.166.729.104 1.26-.063.531-.396.865-.334.354-.865.437-.531.084-1.239-.104-.167-.042-.334-.135-.166-.094-.291.031-.146.146-.052.333.093.188.135.375.167.708.094 1.24-.073.531-.406.885ZM5 9Q3.333 9 2.167 7.833 1 6.667 1 5q0-1.667 1.167-2.833Q3.333 1 5 1q1.667 0 2.833 1.167Q9 3.333 9 5q0 1.667-1.167 2.833Q6.667 9 5 9Zm7 10v-7h7v7Z"/></svg>