<svg xmlns="http://www.w3.org/2000/svg" height="20" width="20"><path d="M2 9.229V4h16v6.667q-.271-.084-.531-.115-.261-.031-.552-.031-.479 0-.917.104-.438.104-.833.313-.292-.167-.573-.261-.282-.094-.594-.135V9.229h-2.792L9.917 6.875q-.105-.167-.282-.26-.177-.094-.385-.094-.208 0-.385.094-.177.093-.282.26L6.25 11.167l-.833-1.542q-.105-.187-.282-.292-.177-.104-.385-.104ZM2 16v-5.271h2.292l1.291 2.354q.105.188.282.292.177.104.385.104.208 0 .385-.104.177-.104.282-.292L9.25 8.792l.833 1.541q.105.167.282.282.177.114.385.114h1.438q-1.021.396-1.678 1.302-.656.907-.656 2.073 0 .542.125.99.125.448.438.906Zm11.458-4q.5 0 .959.24.458.239.771.656.291-.417.739-.656.448-.24.969-.24.875 0 1.489.615.615.614.615 1.489 0 .688-.51 1.334-.511.645-2.157 2.062l-1.145 1-1.167-1q-1.688-1.438-2.177-2.073-.49-.635-.49-1.323 0-.875.615-1.489.614-.615 1.489-.615Z"/></svg>