<svg xmlns="http://www.w3.org/2000/svg" height="20" width="20"><path d="M10 10ZM2 8V4h16v6h-1.5V5.5h-13V8Zm0 8v-4h1.5v2.5h5.75V16Zm13.167 2.5-1.146-.979q-1.688-1.459-2.177-2.094-.49-.635-.49-1.323 0-.875.615-1.489.614-.615 1.489-.615.5 0 .948.24.448.239.761.656.312-.417.76-.656.448-.24.969-.24.875 0 1.489.615.615.614.615 1.489 0 .688-.51 1.344-.511.656-2.157 2.073Zm0-2 .541-.458q1.104-.938 1.448-1.302.344-.365.344-.657 0-.229-.167-.406-.166-.177-.416-.177-.146 0-.271.062-.125.063-.292.23l-1.187 1.125L14 13.792q-.167-.167-.302-.23-.136-.062-.281-.062-.229 0-.407.177-.177.177-.177.406 0 .271.334.646.333.375 1.458 1.313ZM2 10.75v-1.5h3.167l1.083 1.938L8.792 6.5h.937l1.459 2.75H14v1.5h-3.708L9.25 8.812 6.688 13.5h-.876l-1.52-2.75ZM15.167 15Z"/></svg>