<svg xmlns="http://www.w3.org/2000/svg" height="20" width="20"><path d="M13.333 3q2 0 3.344 1.49 1.344 1.489 1.344 3.531 0 .312-.042.625-.041.312-.104.604h-4.979L11.625 7.5h-1.313l-1.395 3.146L7.896 9.25H2.125q-.083-.292-.115-.604-.031-.313-.031-.625 0-2.042 1.344-3.531Q4.667 3 6.667 3q.958 0 1.812.396.854.396 1.521 1.083.646-.708 1.51-1.094Q12.375 3 13.333 3Zm-3.312 14.625-6.625-6.146q-.188-.167-.334-.344-.145-.177-.291-.385h4.333l1.271 1.75h1.313l1.395-3.125 1 1.375h5.146q-.125.188-.271.365-.146.177-.312.343Z"/></svg>