<svg xmlns="http://www.w3.org/2000/svg" height="20" width="20"><path d="M3.396 11.479q-.729-.667-1.073-1.562-.344-.896-.344-1.896 0-2.042 1.344-3.531Q4.667 3 6.667 3q.958 0 1.812.396.854.396 1.521 1.083.646-.708 1.51-1.094Q12.375 3 13.333 3q2 0 3.344 1.49 1.344 1.489 1.344 3.531 0 .979-.333 1.875-.334.896-1.042 1.562l-6.625 6.167ZM6.667 4.5q-1.375 0-2.282 1.042-.906 1.041-.906 2.479 0 .312.052.625.052.312.157.604h4.208l1.021 1.396L10.312 7.5h1.313l1.271 1.75h3.437q.105-.292.146-.604.042-.313.042-.646 0-1.396-.906-2.448Q14.708 4.5 13.333 4.5q-.625 0-1.208.271t-1.021.729l-.812.875H9.75L8.896 5.5q-.438-.479-1.011-.74-.573-.26-1.218-.26ZM10 15.583l5.188-4.833h-3.105l-1-1.375L9.688 12.5H8.375l-1.271-1.75H4.792Zm0-5.541Z"/></svg>