<svg xmlns="http://www.w3.org/2000/svg" height="20" width="20"><path d="M8.375 14.5q.354 0 .615-.25.26-.25.26-.625 0-1.104-.406-1.99-.406-.885-1.344-1.51v3.5q0 .375.26.625.261.25.615.25Zm3.25 0q.375 0 .625-.26.25-.261.25-.615v-3.5q-.938.625-1.344 1.521-.406.896-.406 1.979 0 .375.25.625t.625.25Zm-9.208 3.125-.834-1.25q.896-.604 1.407-1.552.51-.948.51-2.031V4.417q-.438-.542-.802-1.125-.365-.584-.636-1.25l1.376-.584q.854 2.021 2.614 3.282Q7.812 6 10 6q2.188 0 3.948-1.26 1.76-1.261 2.614-3.282l1.376.563q-.271.667-.636 1.25-.364.583-.802 1.125v8.396q0 1.083.51 2.031.511.948 1.407 1.552l-.834 1.25q-1.208-.813-1.895-2.094Q15 14.25 15 12.792v-6.98q-1.062.792-2.344 1.24Q11.375 7.5 10 7.5q-1.375 0-2.656-.438Q6.062 6.625 5 5.833v6.959q0 1.458-.677 2.75-.677 1.291-1.906 2.083ZM8.375 16q-.979 0-1.677-.698Q6 14.604 6 13.625V7.917l.979.333Q8 8.583 8.76 9.198q.761.614 1.24 1.469.479-.855 1.24-1.469.76-.615 1.781-.948L14 7.917v5.708q0 .979-.688 1.677-.687.698-1.687.698-.479 0-.896-.177-.417-.177-.729-.469-.312.292-.729.469T8.375 16Zm3.25-2.375Zm-3.25 0Z"/></svg>