<svg xmlns="http://www.w3.org/2000/svg" height="20" width="20"><path d="M16.812 7.979 15.75 6.917l.688-.688-2.667-2.646-.667.688-1.062-1.063 1.708-1.77 4.812 4.791ZM1.479 13.708l1.75-1.687 1.063 1.062-.667.646 2.646 2.667.667-.667L8 16.792l-1.708 1.729Zm13.709-2.791 1.229-1.209-6.084-6.083-1.229 1.208Zm-5.459 5.479 1.209-1.208-6.084-6.084-1.208 1.208Zm-.104-4.667 2.146-2.125-1.354-1.333-2.125 2.125Zm3.458 3.438-3.354 3.354-8.187-8.229 3.312-3.313 2.375 2.354 2.125-2.145-2.396-2.355 3.375-3.312 8.25 8.167L15.208 13l-2.396-2.354-2.124 2.146Z"/></svg>