<svg xmlns="http://www.w3.org/2000/svg" height="20" width="20"><path d="m14.833 18-.271-1.167q-.291-.104-.552-.239-.26-.136-.489-.344l-1.146.354-.667-1.146.854-.833q-.062-.292-.062-.615 0-.322.062-.614l-.854-.813.667-1.145 1.125.333q.229-.229.5-.375t.562-.229L14.833 10h1.334l.271 1.167q.291.104.572.239.282.136.49.365l1.125-.313.667 1.146-.834.792q.063.292.063.614 0 .323-.063.615l.854.813-.666 1.145-1.146-.333q-.229.208-.5.344-.271.135-.562.239L16.167 18Zm.667-2.5q.625 0 1.062-.438Q17 14.625 17 14t-.438-1.062q-.437-.438-1.062-.438t-1.062.438Q14 13.375 14 14t.438 1.062q.437.438 1.062.438Zm-12-1v-.094.094-7 7ZM2 16V4h6l2 2h8v3.125q-.354-.187-.719-.313-.364-.124-.781-.208V7.5h-13v7h6.521q.041.396.125.771.083.375.25.729Z"/></svg>