<svg xmlns="http://www.w3.org/2000/svg" height="20" width="20"><path d="m14.833 18-.271-1.167q-.291-.104-.552-.239-.26-.136-.489-.344l-1.146.354-.667-1.146.854-.833q-.062-.292-.062-.615 0-.322.062-.614l-.854-.813.667-1.145 1.125.333q.229-.229.5-.375t.562-.229L14.833 10h1.334l.271 1.167q.291.104.572.239.282.136.49.365l1.125-.313.667 1.146-.834.792q.063.292.063.614 0 .323-.063.615l.854.813-.666 1.145-1.146-.333q-.229.208-.5.344-.271.135-.562.239L16.167 18Zm.667-2.5q.625 0 1.062-.438Q17 14.625 17 14t-.438-1.062q-.437-.438-1.062-.438t-1.062.438Q14 13.375 14 14t.438 1.062q.437.438 1.062.438ZM2 16V4h6l2 2h8v3.125q-.583-.313-1.229-.469-.646-.156-1.313-.156-2.27 0-3.864 1.594Q10 11.688 10 13.958q0 .542.083 1.052.084.511.313.99Z"/></svg>