<svg xmlns="http://www.w3.org/2000/svg" height="20" viewBox="0 96 960 960" width="20"><path d="M625 768V634l-42-79q-13 5-21.5 15.5T553 595v212l87 153h-83l-76-134V595q0-34 18.5-62t48.5-42l-59-108q-18-33-11-70.5t36-62.5l67-58 260 298 24 470h-72l-23-441-196-225-13 11q-10 8-12.5 20.5T553 349l144 266v153h-72Zm-361 0V615l144-266q7-11 4.5-23.5T400 305l-13-11-196 225-23 441H96l24-470 260-298 67 58q29 25 36 62.5T472 383l-58 108q30 14 48 42t18 62v231l-76 134h-83l87-153V595q0-14-8-24.5T379 555l-43 79v134h-72Z"/></svg>