<svg xmlns="http://www.w3.org/2000/svg" height="20" width="20"><path d="M16.979 19.417 15.896 18.333H1.667V4.083L0.562 2.979L1.792 1.75L18.208 18.188ZM3.417 16.583H14.146L3.417 5.833ZM18.333 15.854 16.583 14.104V3.417H5.917L4.167 1.667H18.333ZM11.292 8.812ZM8.812 11.25ZM13.021 10.521 10.25 7.75 9.979 7.021H9.938L9.833 7.333L8.646 6.146L9.083 5H10.917ZM5.312 14.979 7.979 7.938 9.188 9.146 8.542 10.958H10.979L12.5 12.479H8.042L7.125 14.979ZM12.896 14.979 11.667 11.646 14.521 14.5 14.708 14.979Z"/></svg>