<svg xmlns="http://www.w3.org/2000/svg" height="20" viewBox="0 -960 960 960" width="20"><path d="M489-312Zm-249 72v-69q0-20.696 10.231-38.928Q260.462-366.159 278-377q46-28 97.5-41.5T481-432q-2 10-4.5 19.172Q474-403.655 474-394v17.613Q474-368 476-360q-42 1-84.5 12.5T312-312h177q9 22 24 40t34 32H240Zm240-240q-51 0-85.5-34.5T360-600q0-50 34.5-85t85.5-35q50 0 85 35t35 85q0 51-35 85.5T480-480Zm0-72q20.4 0 34.2-13.8Q528-579.6 528-600q0-20.4-13.8-34.2Q500.4-648 480-648q-20.4 0-34.2 13.8Q432-620.4 432-600q0 20.4 13.8 34.2Q459.6-552 480-552Zm0-48Zm156 360v-56q-41-7-68.5-38.023Q540-365.045 540-408h36q0 32 22.876 55t55 23Q686-330 709-352.913q23-22.912 23-55.087h36q0 43-27.5 74T672-295.8v55.8h-36Zm18.113-120Q634-360 620-373.92T606-408v-72q0-20.16 13.887-34.08 13.888-13.92 34-13.92Q674-528 688-514.08T702-480v72q0 20.16-13.887 34.08-13.888 13.92-34 13.92ZM96-96v-240h72v168h168v72H96Zm0-528v-240h240v72H168v168H96ZM624-96v-72h168v-168h72v240H624Zm168-528v-168H624v-72h240v240h-72Z"/></svg>