<svg xmlns="http://www.w3.org/2000/svg" height="20" viewBox="0 -960 960 960" width="20"><path d="M480-480q-51 0-85.5-34.5T360-600q0-50 34.5-85t85.5-35q50 0 85 35t35 85q0 51-35 85.5T480-480Zm156 240v-56q-41-7-68.5-38.023Q540-365.045 540-408h36q0 32 22.876 55t55 23Q686-330 709-352.913q23-22.912 23-55.087h36q0 43-27.5 74T672-295.8v55.8h-36Zm18.113-120Q634-360 620-373.92T606-408v-72q0-20.16 13.887-34.08 13.888-13.92 34-13.92Q674-528 688-514.08T702-480v72q0 20.16-13.887 34.08-13.888 13.92-34 13.92ZM96-96v-240h72v168h168v72H96Zm0-528v-240h240v72H168v168H96ZM624-96v-72h168v-168h72v240H624Zm168-528v-168H624v-72h240v240h-72ZM240-240v-69q0-20.696 10.231-38.928Q260.462-366.159 278-377q46.055-28.448 97.527-41.724Q427-432 481-432q-2 10-4.5 19.172Q474-403.655 474-394q0 45 18.5 86t54.5 68H240Z"/></svg>