<svg xmlns="http://www.w3.org/2000/svg" height="20" width="20"><path d="M16.729 18.833 15.896 18H13v-1.5h1.396l-1.5-1.5H5v-1.417q0-.416.177-.781.177-.364.531-.594.709-.416 1.646-.75.938-.333 1.604-.396L3.5 5.604V7H2V4.104l-.833-.833 1.062-1.042 15.542 15.542ZM11.396 13.5l-.979-.979V12.5q-1.229 0-2.188.25-.958.25-1.687.708v.042Zm1.104-6q0 .604-.26 1.094-.261.489-.678.844L10.5 8.375q.229-.125.365-.354Q11 7.792 11 7.5q0-.417-.292-.708Q10.417 6.5 10 6.5q-.292 0-.521.135-.229.136-.354.365L8.062 5.938q.355-.417.844-.678Q9.396 5 10 5q1.042 0 1.771.729.729.729.729 1.771ZM18 13v2.875l-1.5-1.5V13ZM2 18v-5h1.5v3.5H7V18ZM16.5 7V3.5H13V2h5v5Zm-6.688.688Zm.605 5.812ZM7 2v1.5H5.625L4.125 2Z"/></svg>