<svg xmlns="http://www.w3.org/2000/svg" height="20" viewBox="0 96 960 960" width="20"><path d="M84 552v-72h72v72H84Zm720 0v-72h72v72h-72ZM84 408v-72h72v72H84Zm720 0v-72h72v72h-72ZM84 264v-72h72v72H84Zm144 288v-72h72v72h-72Zm432 0v-72h72v72h-72Zm144-288v-72h72v72h-72Zm-576 0v-72h72v72h-72Zm144 0v-72h72v72h-72Zm144 0v-72h72v72h-72Zm144 0v-72h72v72h-72Zm-222 744q-21 0-41.5-8.5T361 976L160 775l60-60 116 30V384h72v455l-112-30 116 116q5 5 11.682 8T438 936h174.437q34.47 0 59.016-24.675Q696 886.65 696 852V624h72v228q0 65-45.5 110.5T612 1008H438Zm18-288V528h72v192h-72Zm120 0V576h72v144h-72Zm36 216H412h200Z"/></svg>