<svg xmlns="http://www.w3.org/2000/svg" height="20" width="20"><path d="m7.333 16-.416-1.083 2.416-2.396h1.605V14l1.833.271.541-1.75h2.667q.229-.583.365-1.219.135-.635.135-1.302 0-1.896-.969-3.437-.968-1.542-2.552-2.355v1.771h-2.02V8.5h-2V11H7.562L5.708 8.5h-.812v1L3.479 11q.271 1.688 1.302 3.01Q5.812 15.333 7.333 16Zm6.125-4.5h-2.52V10h2.52Zm-.229-5.167 1.438.438-.771 2.417-1.438-.459ZM9.938 18q-1.646 0-3.105-.625-1.458-.625-2.552-1.719-1.093-1.094-1.719-2.552-.624-1.458-.624-3.104 0-1.667.624-3.115.626-1.447 1.719-2.541Q5.375 3.25 6.833 2.625 8.292 2 9.938 2q1.666 0 3.114.625t2.542 1.719q1.094 1.094 1.718 2.541.626 1.448.626 3.115 0 1.646-.626 3.104-.624 1.458-1.718 2.552-1.094 1.094-2.542 1.719Q11.604 18 9.938 18Z"/></svg>