<svg xmlns="http://www.w3.org/2000/svg" height="20" width="20"><path d="M10 16.5q.396 0 .781-.042.386-.041.761-.146L10.667 15H8v-1l1.5-1.5H11V10h-1L9 9V7H6.854V5.625l1.208-1.833q-2 .604-3.281 2.302Q3.5 7.792 3.5 10h1V8.5h3V10l-1 1v2H4.25q.812 1.562 2.333 2.531Q8.104 16.5 10 16.5Zm6.271-4.854q.104-.396.167-.813.062-.416.062-.833 0-2.188-1.271-3.875Q13.958 4.438 12 3.812V6l1.5 1.5v1.542h.646ZM10 18q-1.646 0-3.104-.625-1.458-.625-2.552-1.719t-1.719-2.552Q2 11.646 2 10q0-1.667.625-3.115.625-1.447 1.719-2.541Q5.438 3.25 6.896 2.625T10 2q1.667 0 3.115.625 1.447.625 2.541 1.719 1.094 1.094 1.719 2.541Q18 8.333 18 10q0 1.646-.625 3.104-.625 1.458-1.719 2.552t-2.541 1.719Q11.667 18 10 18Z"/></svg>