<svg xmlns="http://www.w3.org/2000/svg" height="20" width="20"><path d="M16.167 17H9l-4-4 .958-1.021L9 13V4.25q0-.521.365-.885Q9.729 3 10.25 3t.885.365q.365.364.365.885V9h1.667l4 2Zm-6.542-1.5h5.271l.604-3.667-2.688-1.333H10.5V4.75q0-.104-.073-.177T10.25 4.5q-.104 0-.177.073T10 4.75v9.75H8.646Zm0 0-.979-1H10V4.75q0-.104.073-.177t.177-.073q.104 0 .177.073t.073.177v5.75h2.312l2.688 1.333-.604 3.667Zm-5.875-7q-1.146 0-1.948-.792Q1 6.917 1 5.792q0-.667.26-1.136.261-.468 1.261-1.635L3.75 1.604l1.208 1.417Q6 4.208 6.25 4.667q.25.458.25 1.125 0 1.125-.802 1.916-.802.792-1.948.792Z"/></svg>