<svg xmlns="http://www.w3.org/2000/svg" height="20" width="20"><path d="M5.562 15.5h8.876l-1.834-1.833q-.542.395-1.208.614-.667.219-1.396.219-.729 0-1.396-.219-.666-.219-1.208-.614ZM4.5 14.458l1.833-1.833q-.395-.542-.614-1.219Q5.5 10.729 5.5 10q0-.729.219-1.396.219-.666.614-1.208L4.5 5.562Zm2.917-2.916L8.938 10 7.417 8.479q-.209.333-.313.719Q7 9.583 7 10q0 .417.104.802.104.386.313.74ZM10 13q.417 0 .802-.104.386-.104.719-.313L10 11.062l-1.521 1.521q.333.209.719.313Q9.583 13 10 13Zm0-4.062 1.521-1.521q-.333-.209-.719-.313Q10.417 7 10 7q-.417 0-.802.104-.386.104-.719.313Zm2.583 2.583q.209-.333.313-.719Q13 10.417 13 10q0-.417-.104-.802-.104-.386-.313-.719L11.062 10Zm2.917 2.917V5.562l-1.833 1.834q.395.542.614 1.208.219.667.219 1.396 0 .729-.219 1.396-.219.666-.614 1.208Zm-2.896-8.105L14.438 4.5H5.562l1.834 1.833q.542-.395 1.208-.614Q9.271 5.5 10 5.5q.729 0 1.396.219.666.219 1.208.614ZM3 17V3h14v14Z"/></svg>