<svg xmlns="http://www.w3.org/2000/svg" height="20" width="20"><path d="M7.75 12h3.5q.312 0 .531-.219.219-.219.219-.531v-.875l2 1.125v-4l-2 1.146V7.75q0-.312-.219-.531Q11.562 7 11.25 7h-3.5q-.312 0-.531.219Q7 7.438 7 7.75v3.5q0 .312.219.531.219.219.531.219ZM10 19v-2.5q-1.562 0-2.927-.573t-2.375-1.552q-1.01-.979-1.604-2.302Q2.5 10.75 2.5 9.25t.594-2.823q.594-1.323 1.604-2.302 1.01-.979 2.375-1.552Q8.438 2 10 2t2.917.573q1.354.573 2.375 1.552 1.02.979 1.604 2.302.583 1.323.583 2.823 0 3.062-1.989 5.656Q13.5 17.5 10 19Zm1.5-2.521q2.188-1.458 3.333-3.312 1.146-1.855 1.146-3.917 0-2.396-1.75-4.073Q12.479 3.5 10 3.5T5.76 5.177Q4 6.854 4 9.25q0 2.396 1.76 4.073Q7.521 15 10 15h1.5Zm-1.5-6.5Z"/></svg>