<svg xmlns="http://www.w3.org/2000/svg" height="20" width="20"><path d="M7.75 12h3.5q.312 0 .531-.219.219-.219.219-.531v-.875l2 1.125v-4l-2 1.146V7.75q0-.312-.219-.531Q11.562 7 11.25 7h-3.5q-.312 0-.531.219Q7 7.438 7 7.75v3.5q0 .312.219.531.219.219.531.219ZM10 19v-2.5q-1.562 0-2.927-.573t-2.375-1.552q-1.01-.979-1.604-2.302Q2.5 10.75 2.5 9.25t.594-2.823q.594-1.323 1.604-2.302 1.01-.979 2.375-1.552Q8.438 2 10 2t2.917.573q1.354.573 2.375 1.552 1.02.979 1.604 2.302.583 1.323.583 2.823 0 3.042-2.062 5.74Q13.354 17.688 10 19Z"/></svg>