<svg xmlns="http://www.w3.org/2000/svg" height="20" width="20"><path d="M10.021 18.292Q7.208 15.438 5.552 13.708Q3.896 11.979 3.031 10.833Q2.167 9.688 1.917 8.875Q1.667 8.062 1.667 7.083Q1.667 5.167 3 3.833Q4.333 2.5 6.25 2.5Q7.188 2.5 8.062 2.844Q8.938 3.188 9.625 3.833L8.333 8.333H10.833L9.896 16.312L12.562 7.5H10L11.479 3.083Q12 2.792 12.573 2.646Q13.146 2.5 13.75 2.5Q15.667 2.5 17 3.833Q18.333 5.167 18.333 7.083Q18.333 8.042 18.094 8.844Q17.854 9.646 17 10.792Q16.146 11.938 14.5 13.688Q12.854 15.438 10.021 18.292Z"/></svg>