<svg xmlns="http://www.w3.org/2000/svg" height="20" viewBox="0 -960 960 960" width="20"><path d="M615-217q-25-25-38.5-58T563-343q0-35 13.5-68t38.5-58l74-74q15-15 22.5-35t7.5-41q0-20-8-39t-22-34l-74-75 51-50 74 74q25 25 38.5 57t13.5 67q0 35-13.5 68T740-493l-74 74q-15 16-23.5 35t-8.5 41q0 21 9 40.5t23 34.5l74 74-51 51-74-74Zm-197 0q-25-26-39-58.5T365-343q0-35 14-67.5t39-58.5l74-74q16-15 23-35t7-41q0-20-8-39.5T492-692l-74-74 50-51 74 74q25 25 39 57t14 67q0 35-14 68t-39 58l-74 74q-15 16-23 35.5t-8 40.5q0 21 8.5 40.5T468-268l74 75-50 50-74-74Zm-198 1q-26-26-39-58.5T168-343q0-35 13.5-68t38.5-58l74-74q16-15 23-35t7-42q0-20-8-39t-22-33l-74-74 51-50 74 73q25 25 38.5 57t13.5 67q0 35-13.5 68T345-493l-74 74q-15 16-23 35.5t-8 41.5q0 21 8.5 40t22.5 34l74 75-51 50-74-73Z"/></svg>