<svg xmlns="http://www.w3.org/2000/svg" height="20" viewBox="0 -960 960 960" width="20"><path d="M192-624v-72h576v72H192Zm96-120v-72h384v72H288ZM697-47l-12-56q-14-5-26.5-11.5T635-131l-55 17-32-55 41-40q-3-14-3-29t3-29l-41-39 32-56 54 16q11-11 24-18t27-11l13-56h64l13 56q14 5 27.5 11.5T826-346l54-15 32 55-40 38q3 14 2.5 29.5T871-209l41 39-32 55-55-16q-11 10-23.5 16.5T775-103l-14 56h-64Zm85-141q21-21 21-51t-21-51q-21-21-51-21t-51 21q-21 21-21 51t21 51q21 21 51 21t51-21Zm-300 44H240l-96-432h672l-18 81q-17-4-34-6.5t-37-2.5q-109 0-185.5 77.5T465-239q0 24 4.5 48t12.5 47Z"/></svg>