<svg xmlns="http://www.w3.org/2000/svg" height="20" width="20"><path d="M3 17v-1.5h14V17Zm1.812-7.417q-.541-.541-.822-1.25-.282-.708-.282-1.479 0-1.583 1.094-2.719Q5.896 3 7.458 3q.73 0 1.375.271.646.271 1.167.75.521-.479 1.167-.75Q11.812 3 12.542 3q1.562 0 2.646 1.135 1.083 1.136 1.083 2.719 0 .771-.261 1.469-.26.698-.802 1.239L10 14.583Zm1.042-1.062L9.958 12.5l4.167-4q.333-.312.49-.75.156-.438.156-.896 0-.979-.646-1.666-.646-.688-1.604-.688-.459 0-.854.188-.396.187-.709.5l-.958 1-.979-1q-.313-.334-.709-.511-.395-.177-.854-.177-.937 0-1.593.698-.657.698-.657 1.656 0 .479.157.906.156.428.489.761ZM10 8.5Z"/></svg>