<svg xmlns="http://www.w3.org/2000/svg" height="20" width="20"><path d="M9.25 14H10.75V9H9.25ZM10 7.5Q10.312 7.5 10.531 7.281Q10.75 7.062 10.75 6.75Q10.75 6.438 10.531 6.219Q10.312 6 10 6Q9.688 6 9.469 6.219Q9.25 6.438 9.25 6.75Q9.25 7.062 9.469 7.281Q9.688 7.5 10 7.5ZM10 16.5Q11.354 16.5 12.531 15.99Q13.708 15.479 14.594 14.594Q15.479 13.708 15.99 12.521Q16.5 11.333 16.5 10Q16.5 8.646 15.99 7.469Q15.479 6.292 14.594 5.406Q13.708 4.521 12.531 4.01Q11.354 3.5 10 3.5Q8.667 3.5 7.479 4.01Q6.292 4.521 5.406 5.406Q4.521 6.292 4.01 7.469Q3.5 8.646 3.5 10Q3.5 11.333 4.01 12.521Q4.521 13.708 5.406 14.594Q6.292 15.479 7.479 15.99Q8.667 16.5 10 16.5ZM10 18Q6.667 18 4.333 15.667Q2 13.333 2 10Q2 6.667 4.333 4.333Q6.667 2 10 2Q13.333 2 15.667 4.333Q18 6.667 18 10Q18 13.333 15.667 15.667Q13.333 18 10 18ZM10 10Q10 10 10 10Q10 10 10 10Q10 10 10 10Q10 10 10 10Q10 10 10 10Q10 10 10 10Q10 10 10 10Q10 10 10 10Z"/></svg>