<svg xmlns="http://www.w3.org/2000/svg" height="20" width="20"><path d="M5 19v-1.792q0-.562.292-1.052.291-.489.812-.739.917-.438 1.896-.677.979-.24 2-.24t2 .24q.979.239 1.896.677.521.25.812.739.292.49.292 1.052V19Zm5-5.5q-1.042 0-1.771-.729Q7.5 12.042 7.5 11q0-1.042.729-1.771Q8.958 8.5 10 8.5q1.042 0 1.771.729.729.729.729 1.771 0 1.042-.729 1.771-.729.729-1.771.729ZM2 11V1h16v10h-4.5q0-1.438-1.021-2.469T10 7.5q-1.458 0-2.479 1.031Q6.5 9.562 6.5 11Zm4.5-3.5.625-1.375L8.5 5.5l-1.375-.625L6.5 3.5l-.625 1.375L4.5 5.5l1.375.625Zm7.5-2q.417 0 .708-.292Q15 4.917 15 4.5t-.292-.708Q14.417 3.5 14 3.5t-.708.292Q13 4.083 13 4.5t.292.708q.291.292.708.292Z"/></svg>