<svg xmlns="http://www.w3.org/2000/svg" height="20" width="20"><path d="M10 6Zm-8 5V1h16v10h-4.5q0-.417-.083-.781-.084-.365-.25-.719H16.5v-7h-13v7h3.333q-.166.354-.25.719-.083.364-.083.781Zm4.5-3.5.625-1.375L8.5 5.5l-1.375-.625L6.5 3.5l-.625 1.375L4.5 5.5l1.375.625Zm7.5-2q.417 0 .708-.292Q15 4.917 15 4.5t-.292-.708Q14.417 3.5 14 3.5t-.708.292Q13 4.083 13 4.5t.292.708q.291.292.708.292ZM5 19v-1.792q0-.562.292-1.052.291-.489.812-.739.917-.438 1.896-.677.979-.24 2-.24t2 .24q.979.239 1.896.677.521.25.812.739.292.49.292 1.052V19Zm1.5-1.5h7v-.271q0-.146-.073-.271-.073-.125-.198-.187-.75-.375-1.562-.573Q10.854 16 10 16q-.854 0-1.656.198-.802.198-1.573.552-.125.062-.198.188-.073.124-.073.27Zm3.5-4q-1.042 0-1.771-.729Q7.5 12.042 7.5 11q0-1.042.729-1.771Q8.958 8.5 10 8.5q1.042 0 1.771.729.729.729.729 1.771 0 1.042-.729 1.771-.729.729-1.771.729Zm0-1.5q.417 0 .708-.292Q11 11.417 11 11t-.292-.708Q10.417 10 10 10t-.708.292Q9 10.583 9 11t.292.708Q9.583 12 10 12Zm0-1Zm0 6.5Z"/></svg>