<svg xmlns="http://www.w3.org/2000/svg" height="20" viewBox="0 -960 960 960" width="20"><path d="M480-48q-20 0-34-14t-14-34q0-20 14-34t34-14q20 0 34 14t14 34q0 20-14 34t-34 14ZM312-90q-20 0-34-14t-14-34q0-20 14-34t34-14q20 0 34 14t14 34q0 20-14 34t-34 14Zm336 0q-20 0-34-14t-14-34q0-20 14-34t34-14q20 0 34 14t14 34q0 20-14 34t-34 14ZM204-204q-20 0-34-14t-14-34q0-20 14-34t34-14q20 0 34 14t14 34q0 20-14 34t-34 14Zm276-12q-89 0-152.5-60T264-424q0-95 71.5-184.5T480-768q74 70 145 159.5T696-424q0 88-63.5 148T480-216Zm276 12q-20 0-34-14t-14-34q0-20 14-34t34-14q20 0 34 14t14 34q0 20-14 34t-34 14ZM480-360q29 0 50.5-21t21.5-51q0-29-21.5-50.5T480-504q-30 0-51 21.5T408-432q0 30 21 51t51 21Zm0-456q-20 0-34-14t-14-34q0-20 14-34t34-14q20 0 34 14t14 34q0 20-14 34t-34 14Z"/></svg>