<svg xmlns="http://www.w3.org/2000/svg" height="20" width="20"><path d="M2 18V6.5h16V18Zm1.5-1.5h13V8h-13Zm3.5-1h6V14H7ZM4.5 13H6v-1.5H4.5Zm2.375 0h1.5v-1.5h-1.5Zm2.375 0h1.5v-1.5h-1.5Zm2.375 0h1.5v-1.5h-1.5ZM14 13h1.5v-1.5H14Zm-9.5-2.5H6V9H4.5Zm2.375 0h1.5V9h-1.5Zm2.375 0h1.5V9h-1.5Zm2.375 0h1.5V9h-1.5Zm2.375 0h1.5V9H14Zm-10.5 6V8v8.5ZM5.062 5V1h1.5v1.375q.709-.646 1.605-1.01Q9.062 1 10.062 1q1.792 0 3.157 1.115Q14.583 3.229 14.938 5h-1.542q-.334-1.125-1.25-1.812-.917-.688-2.084-.688-.708 0-1.333.26-.625.261-1.104.74h1.437V5Z"/></svg>