<svg xmlns="http://www.w3.org/2000/svg" height="20" width="20"><path d="M3.5 14.25v-8.5 8.5ZM2 15.75V4.25h16v6.729q-.333-.25-.708-.437-.375-.188-.792-.313V5.75h-13v8.5h6.562q-.041.188-.052.375-.01.187-.01.375t.01.375q.011.187.052.375Zm5-4v1.5h3.312q.167-.417.386-.792.219-.375.51-.708Zm-2.5-2.5v1.5H6v-1.5Zm2.375 0v1.5h1.5v-1.5Zm2.375 0v1.5h1.5v-1.5Zm2.375 0v1.5h.729l.375-.208q.188-.104.396-.188V9.25Zm2.375 0v.854q.25-.042.49-.073Q14.729 10 15 10h.25q.125 0 .25.021V9.25Zm-9.5-2.5v1.5H6v-1.5Zm2.375 0v1.5h1.5v-1.5Zm2.375 0v1.5h1.5v-1.5Zm2.375 0v1.5h1.5v-1.5Zm2.375 0v1.5h1.5v-1.5ZM15 18l-1.062-1.062 1.187-1.188H12v-1.5h3.125l-1.187-1.188L15 12l3 3Z"/></svg>