<svg xmlns="http://www.w3.org/2000/svg" height="20" viewBox="0 -960 960 960" width="20"><path d="M168-276v-408 408Zm48-168h72v-72h-72v72Zm114 0h72v-72h-72v72Zm114 0h72v-72h-72v72Zm114 0h72v-72h-72v72ZM216-564h72v-72h-72v72Zm114 0h72v-72h-72v72Zm114 0h72v-72h-72v72Zm114 0h72v-72h-72v72Zm114 0h72v-72h-72v72Zm0 102q17-5 35.5-5.5T744-466v-50h-72v54ZM336-324h198q5-20.444 14-38.222Q557-380 570-396H336v72ZM96-204v-552h768v353q-15-17-33-30t-39-21v-230H168v408h360v72H96ZM600-84v-192h48v-48q0-29.7 21.212-50.85 21.213-21.15 51-21.15Q750-396 771-374.85q21 21.15 21 50.85v48h48v192H600Zm84-192h72v-48q0-15.3-10.289-25.65-10.29-10.35-25.5-10.35Q705-360 694.5-349.65 684-339.3 684-324v48Z"/></svg>