<svg xmlns="http://www.w3.org/2000/svg" height="20" width="20"><path d="M4.5 9.25v1.5H6v-1.5Zm2.375 0v1.5h1.5v-1.5Zm2.375 0v1.5h1.5v-1.5ZM4.5 6.75v1.5H6v-1.5Zm2.375 0v1.5h1.5v-1.5Zm2.375 0v1.5h1.5v-1.5Zm2.375 0v1.5h1.5v-1.5Zm2.375 0v1.5h1.5v-1.5ZM15 18l-1.062-1.062 1.187-1.188H12v-1.5h3.125l-1.187-1.188L15 12l3 3ZM2 15.75V4.25h16v6.729q-.542-.417-1.188-.656-.645-.24-1.312-.302V9.25H14v.854q-.229.042-.448.104-.219.063-.427.146V9.25h-1.5v1.5h.729q-.333.208-.614.458-.282.25-.532.542H7v1.5h3.312q-.166.417-.239.854Q10 14.542 10 15q0 .188.01.375.011.187.052.375Z"/></svg>