<svg xmlns="http://www.w3.org/2000/svg" height="20" width="20"><path d="M4.729 10.438q.5 0 .875-.23.375-.229.375-.666 0-.459-.375-.677-.375-.219-.875-.219t-.864.219q-.365.218-.365.677 0 .458.365.677.364.219.864.219Zm-2.854-2.98v-.937h2.292V5.417H5.25v1.104h2.292v.937Zm2.854 3.917q-.937 0-1.625-.479-.687-.479-.687-1.354 0-.875.677-1.354.677-.48 1.635-.48.959 0 1.636.48.677.479.677 1.354 0 .875-.677 1.354-.677.479-1.636.479ZM3.25 14.583V11.75h1.083v1.917h5.292v.916ZM8.125 12.5V5.417h1.083v2.979h1.375v.937H9.229V12.5Zm6.292.5q.604 0 1.177-.323.573-.323 1.031-.906V9.729q-.5.063-.937.156-.438.094-.813.219-.917.292-1.375.729-.458.438-.458 1 0 .542.385.855.385.312.99.312ZM14 14.292q-1.125 0-1.802-.646t-.677-1.771q0-1.063.677-1.729.677-.667 2.114-1.063.48-.125 1.063-.239.583-.115 1.25-.198-.063-.917-.49-1.344-.427-.427-1.302-.427-.541 0-1.041.187-.5.188-1.25.667l-.688-1.125q.708-.542 1.584-.844.874-.302 1.729-.302 1.437 0 2.198.896.76.896.76 2.584v5.166h-1.229l-.146-1q-.583.563-1.292.875-.708.313-1.458.313Z"/></svg>