<svg xmlns="http://www.w3.org/2000/svg" height="20" width="20"><path d="M11.5 10H13V8h-1.5Zm-7.125 6L4 14.5h1.5v-2.708q-.312.125-.615.239-.302.115-.593.219L4 10.771q.354-.104.729-.219.375-.114.771-.281V8H4.375V6.5H5.5V4H7v2.5h1.125V8H7v1.562q.292-.166.552-.333.26-.167.49-.333v1.5q-.23.166-.49.344-.26.177-.552.343V16Zm4.146 0-.813-1.25q.792-.521 1.375-1.396.584-.875.813-1.854H8.5V10H10V8H8.875V6.5h6.75V8H14.5v2H16v1.5h-1.5V16H13v-4.5h-1.583q-.229 1.312-1.021 2.552-.792 1.24-1.875 1.948Zm5.437-9.188-1.375-.458q.313-.521.698-1.156.386-.636.615-1.198l1.396.5q-.25.542-.604 1.188-.355.645-.73 1.124Zm-3.666-.124q-.25-.5-.657-1.063-.406-.563-.781-.979L10.229 4q.354.417.729.969l.688 1.01Z"/></svg>