<svg xmlns="http://www.w3.org/2000/svg" height="20" width="20"><path d="M2.646 14.625q-.146-.187-.323-.354-.177-.167-.385-.292.729-.75 1.135-1.708.406-.959.406-2.021V8.5h6.146v2.979H4.354q-.125.938-.552 1.75-.427.813-1.156 1.396Zm1.833-3.937h4.167V9.292H4.479Zm-2.146-1.48Q2.229 9 2.094 8.812q-.136-.187-.302-.354 1.229-.541 2.302-1.312t1.948-1.792h.875Q7.854 6.333 9 7.031q1.146.698 2.354 1.302-.166.188-.323.386-.156.198-.26.427-1.146-.584-2.24-1.24-1.093-.656-2.01-1.573Q5.646 7.292 4.583 8q-1.062.708-2.25 1.208Zm1.917 5.396V11.75h5.667v2.854h-.938v-2.021H5.208v2.021Zm.375-6.437v-.792h3.833v.792Zm-.729 2.166v-.729h5.396v.729Zm.646 3.979v-.791h4.896v.791ZM14.417 13q.604 0 1.177-.323.573-.323 1.031-.906V9.729q-.5.063-.937.156-.438.094-.813.219-.917.292-1.375.729-.458.438-.458 1 0 .542.385.855.385.312.99.312ZM14 14.292q-1.125 0-1.802-.646t-.677-1.771q0-1.063.677-1.729.677-.667 2.114-1.063.48-.125 1.063-.239.583-.115 1.25-.198-.063-.917-.49-1.344-.427-.427-1.302-.427-.541 0-1.041.187-.5.188-1.25.667l-.688-1.125q.708-.542 1.584-.844.874-.302 1.729-.302 1.437 0 2.198.896.76.896.76 2.584v5.166h-1.229l-.146-1q-.583.563-1.292.875-.708.313-1.458.313Z"/></svg>