<svg xmlns="http://www.w3.org/2000/svg" height="20" width="20"><path d="M7.229 10.229h1.063V8.646H7.229Zm-4.875 4.167-.312-.917h.916q.084 0 .125-.062.042-.063.042-.167v-1.979l-1.042.333-.229-.916 1.271-.396V8.521H2v-.875h1.104V5.812h.938v1.834h.896v.875h-.917v1.5l.791-.25.188.854-.979.333v2.5q0 .354-.219.625t-.573.292Zm2.834.146-.646-.667q.729-.458 1.187-1.167.459-.708.5-1.583H4.854v-.917h1.438V8.646H5.208V7.75h5.125v.896H9.188v1.625h1.395l-.041.875H9.188v3.292H8.25v-3.292H7.146q-.084 1.042-.584 1.927-.5.885-1.374 1.469ZM9 8.083l-.771-.333q.271-.458.459-.958l.374-1 .938.354q-.229.5-.469.979-.239.479-.531.958Zm-2.375-.104q-.229-.458-.458-.906t-.5-.885l.833-.334q.292.417.51.854l.448.896ZM14.417 13q.604 0 1.177-.323.573-.323 1.031-.906V9.729q-.5.063-.937.156-.438.094-.813.219-.917.292-1.375.729-.458.438-.458 1 0 .542.385.855.385.312.99.312ZM14 14.292q-1.125 0-1.802-.646t-.677-1.771q0-1.063.677-1.729.677-.667 2.114-1.063.48-.125 1.063-.239.583-.115 1.25-.198-.063-.917-.49-1.344-.427-.427-1.302-.427-.541 0-1.041.187-.5.188-1.25.667l-.688-1.125q.708-.542 1.584-.844.874-.302 1.729-.302 1.437 0 2.198.896.76.896.76 2.584v5.166h-1.229l-.146-1q-.583.563-1.292.875-.708.313-1.458.313Z"/></svg>