<svg xmlns="http://www.w3.org/2000/svg" height="20" width="20"><path d="M14.417 13q.604 0 1.177-.323.573-.323 1.031-.906V9.729q-.5.063-.937.156-.438.094-.813.219-.917.292-1.375.729-.458.438-.458 1 0 .542.385.855.385.312.99.312ZM14 14.292q-1.125 0-1.802-.646t-.677-1.771q0-1.063.677-1.729.677-.667 2.114-1.063.48-.125 1.063-.239.583-.115 1.25-.198-.063-.917-.49-1.344-.427-.427-1.302-.427-.541 0-1.041.187-.5.188-1.25.667l-.688-1.125q.708-.542 1.584-.844.874-.302 1.729-.302 1.437 0 2.198.896.76.896.76 2.584v5.166h-1.229l-.146-1q-.583.563-1.292.875-.708.313-1.458.313Zm-11.5.25q-.188-.25-.375-.448t-.375-.323q1.542-.688 2.448-1.698.906-1.011 1.302-2.823H2.062v-1h3.626q.083-.604.114-1.271.031-.667.031-1.437h1.063q0 .75-.031 1.427-.032.677-.115 1.281h3.938v1H7.104q.563 1.667 1.542 2.802.979 1.136 2.25 1.615-.229.229-.406.437-.178.208-.282.438-1.291-.563-2.26-1.709-.969-1.145-1.573-2.729-.479 1.688-1.437 2.729-.959 1.042-2.438 1.709Z"/></svg>