<svg xmlns="http://www.w3.org/2000/svg" height="20" width="20"><path d="M3.5 14.646v-4.188q-.229.23-.479.459-.25.229-.521.437-.167-.229-.333-.437-.167-.209-.355-.396.896-.604 1.605-1.386.708-.781 1.291-1.697l.938.333q-.25.417-.531.823-.282.406-.615.781v5.271Zm4.729 0q-.25 0-.489-.011-.24-.01-.49-.052-.062-.25-.135-.479-.073-.229-.219-.458h1.646q.104 0 .156-.052.052-.052.052-.156V9.583H5.458v-.937h5.792v.958h-1.5v3.958q0 .23-.042.469-.041.24-.25.365-.27.166-.593.208-.323.042-.636.042ZM2.5 8.396q-.167-.188-.302-.386l-.281-.406q.645-.479 1.271-1.042Q3.812 6 4.312 5.333l.938.375q-.542.813-1.271 1.48-.729.666-1.479 1.208Zm3.375-1.5v-.938H11l-.042.938ZM14.417 13q.604 0 1.177-.323.573-.323 1.031-.906V9.729q-.5.063-.937.156-.438.094-.813.219-.917.292-1.375.729-.458.438-.458 1 0 .542.385.855.385.312.99.312ZM14 14.292q-1.125 0-1.802-.646t-.677-1.771q0-1.063.677-1.729.677-.667 2.114-1.063.48-.125 1.063-.239.583-.115 1.25-.198-.063-.917-.49-1.344-.427-.427-1.302-.427-.541 0-1.041.187-.5.188-1.25.667l-.688-1.125q.708-.542 1.584-.844.874-.302 1.729-.302 1.437 0 2.198.896.76.896.76 2.584v5.166h-1.229l-.146-1q-.583.563-1.292.875-.708.313-1.458.313Z"/></svg>