<svg xmlns="http://www.w3.org/2000/svg" height="20" width="20"><path d="m2.333 14.5-.5-.917q.396-.229.771-.51t.729-.573v-2.271H2v-.937h2.25v3.146q.396.52 1 .739.604.219 1.271.219 1.125 0 2.239-.031 1.115-.032 2.24-.032-.104.229-.188.479-.083.25-.145.5H6.5q-.771 0-1.479-.26-.709-.26-1.229-.802-.354.354-.698.667-.344.312-.761.583Zm4.771-1.208v-2.063q-.437.583-1 1.042-.562.458-1.208.812-.125-.208-.292-.385-.166-.177-.333-.344.667-.333 1.26-.76.594-.427 1.052-1.011H4.938V7.958h2.145v-.541H4.542v-.896h2.541v-.959h.938v.959h2.729v.896H8.021v.521h2.271v2.604H8.5q.479.583 1.083 1.02.605.438 1.313.709-.188.167-.354.354-.167.187-.334.396-.666-.271-1.187-.75t-.979-1.021v2.042ZM7.083 8.75h-1.25v.979h1.25Zm2.292 0H8.042v.958h1.333Zm-5.542-.708q-.395-.48-.833-.917-.438-.437-.979-.75l.729-.625q.521.354.99.76.468.407.843.907Zm12.792 3.729V9.729q-.5.063-.937.156-.438.094-.813.219-.917.292-1.375.729-.458.438-.458 1 0 .542.385.855.385.312.99.312.604 0 1.177-.323.573-.323 1.031-.906Zm.271 2.333-.146-1q-.583.563-1.292.875-.708.313-1.458.313-1.125 0-1.802-.646t-.677-1.771q0-1.063.677-1.729.677-.667 2.114-1.063.48-.125 1.063-.239.583-.115 1.25-.198-.063-.917-.49-1.344-.427-.427-1.302-.427-.541 0-1.041.187-.5.188-1.25.667l-.688-1.125q.708-.542 1.584-.844.874-.302 1.729-.302 1.437 0 2.198.896.76.896.76 2.584v5.166Z"/></svg>