<svg xmlns="http://www.w3.org/2000/svg" height="20" width="20"><path d="M14.417 13q.604 0 1.177-.323.573-.323 1.031-.906V9.729q-.5.063-.937.156-.438.094-.813.219-.917.292-1.375.729-.458.438-.458 1 0 .542.385.855.385.312.99.312ZM14 14.292q-1.125 0-1.802-.646t-.677-1.771q0-1.063.677-1.729.677-.667 2.114-1.063.48-.125 1.063-.239.583-.115 1.25-.198-.063-.917-.49-1.344-.427-.427-1.302-.427-.541 0-1.041.187-.5.188-1.25.667l-.688-1.125q.708-.542 1.584-.844.874-.302 1.729-.302 1.437 0 2.198.896.76.896.76 2.584v5.166h-1.229l-.146-1q-.583.563-1.292.875-.708.313-1.458.313Zm-8.646-.875h3.334V10.25H6.021q-.167.792-.323 1.583-.156.792-.344 1.584Zm-3.479 1v-1H4.25q.188-.792.354-1.584l.334-1.583H2.917V9.208h2.229q.104-.52.187-1.041L5.5 7.125H2.562v-1h8.146v1H6.625q-.104.521-.198 1.042-.094.521-.198 1.041l3.479-.02v4.229h1.75v1Z"/></svg>