<svg xmlns="http://www.w3.org/2000/svg" height="20" width="20"><path d="M12.021 18v-5h1.5v2.938q1.062-1.23 1.531-2.771.469-1.542.469-3.167 0-1.625-.469-3.167-.469-1.541-1.531-2.771V7h-1.5V2h5v1.5h-2.042q1.063 1.396 1.552 3.063.49 1.666.49 3.437t-.49 3.438q-.489 1.666-1.552 3.062h2.042V18Zm-5.792-4.021H4.833v.959h1.396Zm2.354 0H7.188v.959h1.395Zm0-3.396v.605h1.584v.874H8.583v.688h-.875v-.688h-2v.688h-.875v-.688H3.25v-.874h1.583v-.605h.875v.605h2v-.605ZM3.604 18q-.104-.25-.26-.469-.156-.219-.344-.406.833-.125 1.625-.365.792-.239 1.25-.948H3.167v-.874h.791v-1.834h2.271v-.771h.959v.771h2.354v1.834h.708v.874H7.521q.583.584 1.323.928.739.343 1.573.385-.167.187-.292.417-.125.229-.229.458-.938-.104-1.75-.562-.813-.459-1.396-1.188-.5.792-1.365 1.156-.864.365-1.781.594Zm.688-9.271-.959-.458q.563-.813.959-1.708.396-.896.625-1.855H3.333V3.646h1.834q.083-.417.125-.823.041-.406.062-.823l1.042.354q0 .354-.073.698t-.177.698h.604q.604 0 1 .438.396.437.417 1.041.021.729-.084 1.427-.104.698-.354 1.365-.062.187-.187.354-.125.167-.292.271-.167.104-.354.156-.188.052-.396.01l-.958-.166-.188-.958h.958q.188 0 .376-.053.187-.052.25-.218.187-.521.229-1.073.041-.552.021-1.094 0-.292-.198-.5-.198-.208-.49-.208h-.542q-.25 1.125-.677 2.156-.427 1.031-.989 2.031Zm4.833-5.667q.417.667.771 1.396.354.73.625 1.48l-1.042.437q-.167-.792-.5-1.51-.333-.719-.812-1.365Z"/></svg>