<svg xmlns="http://www.w3.org/2000/svg" height="20" viewBox="0 -960 960 960" width="20"><path d="M96-96v-385l261-95H96v-288h768v397l-228 83h228v288H96Zm72-72h624v-144H168v144Zm624-480v-144H168v144h624ZM168-384h257l368-133v-59H569L168-430v46Zm103-319q-7-7-7-17t7-17q7-7 17-7t17 7q7 7 7 17t-7 17q-7 7-17 7t-17-7Zm0 480q-7-7-7-17t7-17q7-7 17-7t17 7q7 7 7 17t-7 17q-7 7-17 7t-17-7Zm48-192q-7-7-7-17t7-17q7-7 17-7t17 7q7 7 7 17t-7 17q-7 7-17 7t-17-7Zm144-288q-7-7-7-17t7-17q7-7 17-7t17 7q7 7 7 17t-7 17q-7 7-17 7t-17-7Zm0 240q-7-7-7-17t7-17q7-7 17-7t17 7q7 7 7 17t-7 17q-7 7-17 7t-17-7Zm0 240q-7-7-7-17t7-17q7-7 17-7t17 7q7 7 7 17t-7 17q-7 7-17 7t-17-7Zm144-288q-7-7-7-17t7-17q7-7 17-7t17 7q7 7 7 17t-7 17q-7 7-17 7t-17-7Zm48-192q-7-7-7-17t7-17q7-7 17-7t17 7q7 7 7 17t-7 17q-7 7-17 7t-17-7Zm0 480q-7-7-7-17t7-17q7-7 17-7t17 7q7 7 7 17t-7 17q-7 7-17 7t-17-7Z"/></svg>