<svg xmlns="http://www.w3.org/2000/svg" height="20" viewBox="0 -960 960 960" width="20"><path d="m96-96 156-390v-90H48l144-288h192l144 288H323v90L479-96h-77l-79-197v197h-72v-197L172-96H96Zm599.93-180q-46.93 0-80.43-30.5Q582-337 577-384h-97q0-52 24-98t66.57-77.78Q575-597 599.5-625t60.5-39v-200h72v200q35 11 59 39t29 65q43.29 31.2 67.65 77.1Q912-437 912-384h-98q-5 47-38.5 77.5T695.93-276ZM571-456h250q-9-13-19.5-24t-22.59-20.97L753-520l-4-32q-3-20-18-34t-35.12-14q-20.13 0-35 14Q646-572 643-552l-3.66 31.87-26.53 19.12Q600-491 589.45-479.78 578.91-468.56 571-456ZM179-657h217l-63-125h-92l-62 125Zm516.88 309q16.12 0 28.62-10t16.5-26h-91q4 16 16.5 26t29.38 10Zm.12-108ZM287-657Z"/></svg>