<svg xmlns="http://www.w3.org/2000/svg" height="20" viewBox="0 -960 960 960" width="20"><path d="M96-96v-216h768v216H96Zm768-552H96v-216h768v216ZM96-384v-97l261-95h507v109l-228 83H96Zm209-355q7-7 7-17t-7-17q-7-7-17-7t-17 7q-7 7-7 17t7 17q7 7 17 7t17-7Zm0 552q7-7 7-17t-7-17q-7-7-17-7t-17 7q-7 7-7 17t7 17q7 7 17 7t17-7Zm48-228q7-7 7-17t-7-17q-7-7-17-7t-17 7q-7 7-7 17t7 17q7 7 17 7t17-7Zm144-324q7-7 7-17t-7-17q-7-7-17-7t-17 7q-7 7-7 17t7 17q7 7 17 7t17-7Zm0 276q7-7 7-17t-7-17q-7-7-17-7t-17 7q-7 7-7 17t7 17q7 7 17 7t17-7Zm0 276q7-7 7-17t-7-17q-7-7-17-7t-17 7q-7 7-7 17t7 17q7 7 17 7t17-7Zm144-324q7-7 7-17t-7-17q-7-7-17-7t-17 7q-7 7-7 17t7 17q7 7 17 7t17-7Zm48-228q7-7 7-17t-7-17q-7-7-17-7t-17 7q-7 7-7 17t7 17q7 7 17 7t17-7Zm0 552q7-7 7-17t-7-17q-7-7-17-7t-17 7q-7 7-7 17t7 17q7 7 17 7t17-7Z"/></svg>