<svg xmlns="http://www.w3.org/2000/svg" height="20" width="20"><path d="M14.25 19v-2.25H12v-1.5h2.25V13h1.5v2.25H18v1.5h-2.25V19Zm-7.5-5q.312 0 .531-.219.219-.219.219-.531 0-.312-.219-.531-.219-.219-.531-.219-.312 0-.531.219Q6 12.938 6 13.25q0 .312.219.531.219.219.531.219Zm0-3.25q.312 0 .531-.219.219-.219.219-.531 0-.312-.219-.531-.219-.219-.531-.219-.312 0-.531.219Q6 9.688 6 10q0 .312.219.531.219.219.531.219Zm0-3.25q.312 0 .531-.219.219-.219.219-.531 0-.312-.219-.531Q7.062 6 6.75 6q-.312 0-.531.219Q6 6.438 6 6.75q0 .312.219.531.219.219.531.219ZM9 10.75h5v-1.5H9ZM9 7.5h5V6H9ZM3 17V3h14v8.438q-.479-.23-.99-.323-.51-.094-1.031-.094-1.041 0-1.958.396-.917.395-1.583 1.083H9V14h1.417q-.167.354-.25.729-.084.375-.125.771-.042.375-.021.75t.104.75Z"/></svg>