<svg xmlns="http://www.w3.org/2000/svg" height="20" width="20"><path d="M10 12q-.833 0-1.417-.583Q8 10.833 8 10v-.042q-.229.146-.49.219-.26.073-.531.073-.833 0-1.406-.583Q5 9.083 5 8.25q0-.542.271-1.021.271-.479.75-.729-.479-.25-.75-.729T5 4.75q0-.833.573-1.417.573-.583 1.406-.583.271 0 .531.073.261.073.49.239V3q0-.833.583-1.417Q9.167 1 10 1q.833 0 1.417.583Q12 2.167 12 3v.062q.333-.208.677-.281.344-.073.719.011L12 6.479q0-.833-.583-1.406Q10.833 4.5 10 4.5q-.833 0-1.417.583Q8 5.667 8 6.5q0 .833.583 1.417Q9.167 8.5 10 8.5q.458 0 .833-.188.375-.187.667-.5-.104.438.208.813.313.375.792.375h2.375q-.229.542-.729.896t-1.125.354q-.271 0-.531-.073-.261-.073-.49-.219V10q0 .833-.583 1.417Q10.833 12 10 12Zm2.5-4 2.625-7h1.25L19 8h-1.208l-.625-1.792h-2.834L13.708 8Zm2.208-2.812h2.084l-1.021-2.896h-.042ZM10 18q0-1.458.552-2.729.552-1.271 1.5-2.219t2.219-1.5Q15.542 11 17 11q0 1.458-.552 2.729-.552 1.271-1.5 2.219t-2.219 1.5Q11.458 18 10 18Zm1.812-1.812q1.188-.438 2.084-1.313.896-.875 1.292-2.063-1.188.459-2.094 1.313-.906.854-1.282 2.063ZM10 18q0-1.458-.552-2.729-.552-1.271-1.5-2.219t-2.219-1.5Q4.458 11 3 11q0 1.458.552 2.729.552 1.271 1.5 2.219t2.219 1.5Q8.542 18 10 18Zm-1.812-1.812Q7 15.75 6.094 14.885q-.906-.864-1.282-2.073Q6 13.25 6.896 14.125q.896.875 1.292 2.063Zm3.624 0Zm-3.624 0Z"/></svg>