<svg xmlns="http://www.w3.org/2000/svg" height="20" width="20"><path d="M10 19q-2.354 0-4.323-1.094-1.969-1.094-3.177-2.927V17.5H1v-5h5V14H3.646q1 1.583 2.666 2.542Q7.979 17.5 10 17.5q1.562 0 2.927-.594t2.375-1.604q1.01-1.01 1.604-2.375.594-1.365.594-2.927H19q0 1.875-.708 3.51-.709 1.636-1.927 2.855-1.219 1.218-2.855 1.927Q11.875 19 10 19Zm-9-9q0-1.875.708-3.51.709-1.636 1.927-2.855Q4.854 2.417 6.49 1.708 8.125 1 10 1q2.354 0 4.323 1.094 1.969 1.094 3.177 2.927V2.5H19v5h-5V6h2.354q-1-1.583-2.666-2.542Q12.021 2.5 10 2.5q-1.562 0-2.927.594T4.698 4.698q-1.01 1.01-1.604 2.375Q2.5 8.438 2.5 10Zm9 3.958-1.25-2.75L6 9.958l2.75-1.25L10 5.958l1.25 2.75L14 9.958l-2.75 1.25Z"/></svg>