<svg xmlns="http://www.w3.org/2000/svg" height="20" width="20"><path d="m4.958 11.958-1.416-1.416q1.291-1.188 2.927-1.865Q8.104 8 10 8q1.896 0 3.531.677 1.636.677 2.927 1.865l-1.416 1.416q-1-.916-2.292-1.437Q11.458 10 10 10t-2.75.521q-1.292.521-2.292 1.437Zm-3.541-3.52L0 7q1.958-1.875 4.521-2.938Q7.083 3 10 3q2.917 0 5.479 1.062Q18.042 5.125 20 7l-1.417 1.438q-1.687-1.605-3.885-2.521Q12.5 5 10 5q-2.5 0-4.698.917-2.198.916-3.885 2.521ZM10 18l-.938-2.062L7 15l2.062-.938L10 12l.938 2.062L13 15l-2.062.938Z"/></svg>