<svg xmlns="http://www.w3.org/2000/svg" height="20" width="20"><path d="M2 15.5V14H10V15.5ZM2 11.75V10.25H6V11.75ZM2 8V6.5H6V8ZM16.938 15.5 13.75 12.312Q13.271 12.646 12.698 12.823Q12.125 13 11.5 13Q9.833 13 8.667 11.833Q7.5 10.667 7.5 9Q7.5 7.333 8.667 6.167Q9.833 5 11.5 5Q13.167 5 14.333 6.167Q15.5 7.333 15.5 9Q15.5 9.625 15.323 10.198Q15.146 10.771 14.812 11.25L18 14.438ZM11.5 11.5Q12.542 11.5 13.271 10.771Q14 10.042 14 9Q14 7.958 13.271 7.229Q12.542 6.5 11.5 6.5Q10.458 6.5 9.729 7.229Q9 7.958 9 9Q9 10.042 9.729 10.771Q10.458 11.5 11.5 11.5Z"/></svg>