<svg xmlns="http://www.w3.org/2000/svg" height="20" width="20"><path d="M10 15.062q-1.5 0-3-.124-1.5-.126-3-.376v-1.604q-1.083-.187-1.792-1.02Q1.5 11.104 1.5 10t.708-1.927Q2.917 7.25 4 7.062V4.833q1.5.25 3 .375t3 .125q1.5 0 3-.125t3-.375v2.229q1.083.188 1.792 1.011.708.823.708 1.927t-.708 1.938q-.709.833-1.792 1.02v1.604q-1.5.25-3 .376-1.5.124-3 .124Zm0-2.562q.771 0 1.51-.073.74-.073 1.49-.239v-1.563q-.729.208-1.479.292Q10.771 11 10 11q-.771 0-1.51-.083-.74-.084-1.49-.271v1.562q.75.146 1.49.219.739.073 1.51.073Zm-6-1.083V8.604q-.458.167-.729.542Q3 9.521 3 10t.271.865q.271.385.729.552Zm12 0q.458-.167.729-.552Q17 10.479 17 10t-.271-.854q-.271-.375-.729-.542ZM10 9.75q.771 0 1.51-.073.74-.073 1.49-.239V7.875q-.729.208-1.479.292-.75.083-1.521.083-.771 0-1.51-.083-.74-.084-1.49-.271v1.562q.75.146 1.49.219.739.073 1.51.073Z"/></svg>