<svg xmlns="http://www.w3.org/2000/svg" height="20" width="20"><path d="M9.979 1.958q.938 1.125 1.729 2.136.792 1.01 1.459 1.989L18 2.458V10q0 1.646-.625 3.104-.625 1.458-1.719 2.552t-2.541 1.719Q11.667 18 10 18q-1.646 0-3.104-.625-1.458-.625-2.552-1.719t-1.719-2.552Q2 11.646 2 10V2.458l4.833 3.604q.667-.979 1.448-1.989.781-1.011 1.698-2.115ZM3.5 5.458V10q0 .979.271 1.854.271.875.75 1.646-.042-.271-.073-.531-.031-.261-.031-.552 0-1.25.416-2.49.417-1.239 1.188-2.573ZM10 4.292Q8.146 6.521 7.031 8.698q-1.114 2.177-1.114 3.719 0 1.687 1.198 2.885Q8.312 16.5 10 16.5q1.688 0 2.885-1.198 1.198-1.198 1.198-2.885 0-1.542-1.114-3.729Q11.854 6.5 10 4.292Zm6.5 1.187-2.521 1.896q.771 1.313 1.188 2.552.416 1.24.416 2.49 0 .291-.031.552-.031.26-.073.531.479-.771.75-1.646.271-.875.271-1.854Z"/></svg>