<svg xmlns="http://www.w3.org/2000/svg" height="20" width="20"><path d="M8 14.5V12H7V9.5q0-.417.573-.708Q8.146 8.5 9 8.5q.854 0 1.427.292.573.291.573.708V12h-1v2.5Zm1-7q-.417 0-.708-.292Q8 6.917 8 6.5t.292-.708Q8.583 5.5 9 5.5t.708.292Q10 6.083 10 6.5t-.292.708Q9.417 7.5 9 7.5ZM9 17q-2.917 0-4.958-2.042Q2 12.917 2 10q0-1.458.552-2.729.552-1.271 1.5-2.219t2.219-1.5Q7.542 3 9 3q1.438 0 2.719.552t2.239 1.511q.959.958 1.521 2.27.563 1.313.521 2.813l1.188-1.208L18.25 10l-3 3-3-3 1.062-1.062 1.188 1.187q.042-2.354-1.583-3.99Q11.292 4.5 9 4.5q-2.271 0-3.885 1.615Q3.5 7.729 3.5 10t1.615 3.885Q6.729 15.5 9 15.5q1.375 0 2.521-.604t1.896-1.625l1.062 1.083q-.958 1.208-2.375 1.927Q10.688 17 9 17Z"/></svg>