<svg xmlns="http://www.w3.org/2000/svg" height="20" width="20"><path d="m5.646 15.667-1.063-1.063q.938-.937 1.427-2.125.49-1.187.49-2.5 0-1.312-.49-2.489-.489-1.178-1.427-2.115l.396-.396 2.688 2.688q.166.562.25 1.135Q8 9.375 8 9.979q0 1.604-.604 3.083-.604 1.48-1.75 2.605Zm-2.125-2.125L2.458 12.5q.5-.5.771-1.146Q3.5 10.708 3.5 10q0-.708-.271-1.354Q2.958 8 2.458 7.5l1.063-1.062q.729.708 1.114 1.624.386.917.386 1.917t-.386 1.927q-.385.927-1.114 1.636Zm9.354-2.792-.375-.375V9.25H14v1.5Zm2.625 0v-1.5H17v1.5Zm-4.75-2.125-1.5-1.5V2h1.5Zm5.25 9.5-5.25-5.25V18h-1.5v-6.625L1.875 4l1.063-1.062 14.124 14.124Z"/></svg>