<svg xmlns="http://www.w3.org/2000/svg" height="20" width="20"><path d="M8.562 17.042 7.5 16l1.333-1.354q-.083-.104-.135-.229-.052-.125-.115-.229L8 13.042l-1.521 1.541-1.062-1.062 1.521-1.542-1.126-.541q-.083-.042-.145-.084l-.125-.083-1.354 1.354-1.063-1.063 1.292-1.291q-.355-.438-.573-.948-.219-.511-.302-1.073H2v-1.5h1.604q.104-.396.261-.76.156-.365.385-.698L2.938 4 4 2.938l1.312 1.291Q5.646 4 6 3.854q.354-.146.75-.25V2h1.5v1.542q.542.083 1.031.281.49.198.907.51l1.208-1.208 1.062 1.063-1.25 1.25.115.187q.052.083.094.187l.541 1.084 1.459-1.458L14.479 6.5 13 7.979l1.188.583q.145.063.27.136.125.073.25.177L16 7.583l1.062 1.063-1.291 1.292q.291.416.458.874.167.459.229.938h1.521v1.5h-1.583q-.104.396-.261.76-.156.365-.385.698L17.042 16l-1.063 1.062-1.291-1.291q-.334.229-.688.375-.354.146-.75.25L13.229 18h-1.5l.021-1.542q-.521-.083-.99-.27-.468-.188-.885-.48ZM12.333 15q1.25 0 2.042-.948.792-.948.583-2.177-.104-.646-.479-1.156-.375-.511-.958-.802l-1.354-.688q-.459-.229-.823-.583-.365-.354-.594-.813l-.667-1.354q-.354-.687-1-1.083Q8.438 5 7.667 5q-1.25 0-2.042.938-.792.937-.583 2.166.104.646.479 1.167t.979.812l1.333.667q.459.229.823.594.365.364.594.823l.667 1.354q.354.687 1 1.083.645.396 1.416.396ZM7.75 9q.521 0 .885-.365Q9 8.271 9 7.75t-.365-.885Q8.271 6.5 7.75 6.5t-.885.365q-.365.364-.365.885t.365.885Q7.229 9 7.75 9ZM12 13.5q.417 0 .708-.292.292-.291.292-.708t-.292-.708Q12.417 11.5 12 11.5t-.708.292Q11 12.083 11 12.5t.292.708q.291.292.708.292ZM10 10Z"/></svg>