<svg xmlns="http://www.w3.org/2000/svg" height="20" viewBox="0 -960 960 960" width="20"><path d="M576-96v-192h48v-48q0-29.7 21.212-50.85 21.213-21.15 51-21.15Q726-408 747-386.85q21 21.15 21 50.85v48h48v192H576Zm84-192h72v-48q0-15.3-10.289-25.65-10.29-10.35-25.5-10.35Q681-372 670.5-361.65 660-351.3 660-336v48ZM192-600q0-103 73.5-175.5T444-861v261H192Zm324 0v-261q105 14 178.5 86T768-600H516ZM480-96q-120.343 0-204.171-83.829Q192-263.657 192-384v-144h576v62q-17-7-35-10.5t-37-3.5q-79.68 0-135.84 56.16T504-288v191q-6.207.667-12.103.833Q486-96 480-96Z"/></svg>