<svg xmlns="http://www.w3.org/2000/svg" height="20" width="20"><path d="M16.562 17 15.5 15.938l1.167-1.188H13.5v-1.5h3.167L15.5 12.062 16.562 11l2.938 3Zm-9.395-4.458q1.187 0 2.145-.594.959-.594 1.5-1.531-.77-.605-1.697-.948-.927-.344-1.948-.344t-1.948.344q-.927.343-1.698.948.541.937 1.5 1.531.958.594 2.146.594Zm0-4.167q.708 0 1.208-.5t.5-1.208q0-.709-.5-1.209-.5-.5-1.208-.5-.709 0-1.209.5-.5.5-.5 1.209 0 .708.5 1.208t1.209.5Zm0 9.958q-3.355-2.895-5.011-5.312Q.5 10.604.5 8.5q0-3.146 2-4.99 2-1.843 4.667-1.843 2.666 0 4.666 1.843 2 1.844 2 4.99 0 2.104-1.656 4.521t-5.01 5.312Z"/></svg>