<svg xmlns="http://www.w3.org/2000/svg" height="20" width="20"><path d="M3.167 17.5 3.833 9.833Q3.979 8.062 4.979 6.708Q5.979 5.354 7.521 4.688Q7.646 3.75 8.344 3.125Q9.042 2.5 10 2.5Q10.958 2.5 11.656 3.115Q12.354 3.729 12.479 4.667Q14.021 5.333 15.031 6.698Q16.042 8.062 16.167 9.833L16.812 17.5ZM10 9.083Q10.312 9.083 10.531 8.865Q10.75 8.646 10.75 8.333V5Q10.75 4.688 10.531 4.469Q10.312 4.25 10 4.25Q9.688 4.25 9.469 4.469Q9.25 4.688 9.25 5V8.333Q9.25 8.646 9.469 8.865Q9.688 9.083 10 9.083Z"/></svg>