<svg xmlns="http://www.w3.org/2000/svg" height="20" width="20"><path d="M7.083 14.083q.625-.521 1.375-.812.75-.292 1.542-.292.146 0 .281.011.136.01.261.031-.292.562-.438 1.187-.146.625-.146 1.292 0 .354.042.698t.125.677L10 17Zm-2.125-2.125-1.416-1.416q1.312-1.25 2.979-1.896Q8.188 8 10 8q1.562 0 3.021.5 1.458.5 2.708 1.438-.729-.042-1.448.124-.719.167-1.385.521-.688-.291-1.417-.437Q10.75 10 10 10q-1.417 0-2.708.5Q6 11 4.958 11.958Zm-3.541-3.52L0 7q2.021-1.979 4.604-2.99Q7.188 3 10 3t5.396 1.021Q17.979 5.042 20 7l-1.417 1.438q-1.771-1.626-3.979-2.532Q12.396 5 10 5t-4.604.896q-2.208.896-3.979 2.542ZM16.188 11.5l.27 1.167q.292.104.573.239.281.136.49.365l1.125-.313.666 1.146-.833.792q.063.292.052.614-.01.323-.073.615l.854.813-.666 1.145-1.146-.333q-.229.208-.49.344-.26.135-.552.239l-.291 1.167h-1.334l-.25-1.167q-.291-.104-.552-.239-.26-.136-.489-.344l-1.146.354-.667-1.146.854-.833q-.062-.292-.062-.604 0-.313.062-.604l-.854-.813.667-1.166 1.125.333q.229-.229.5-.375t.562-.229l.271-1.167Zm-.667 2.5q-.625 0-1.063.438-.437.437-.437 1.062t.437 1.062q.438.438 1.063.438t1.062-.438q.438-.437.438-1.062t-.438-1.062Q16.146 14 15.521 14Z"/></svg>