<svg xmlns="http://www.w3.org/2000/svg" height="20" width="20"><path d="M14.25 9V6.75H12v-1.5h2.25V3h1.5v2.25H18v1.5h-2.25V9Zm-5 6.5q1.042 0 2-.375T12.917 14q-2.521-.167-4.219-2.01Q7 10.146 7 7.625q0-.271.01-.542.011-.271.052-.541-1.187.625-1.874 1.75Q4.5 9.417 4.5 10.75q0 1.979 1.385 3.365Q7.271 15.5 9.25 15.5Zm0 1.5q-2.604 0-4.427-1.823Q3 13.354 3 10.75q0-2.604 1.844-4.427Q6.688 4.5 9.292 4.5h.166q.084 0 .167.021-.542.667-.833 1.448Q8.5 6.75 8.5 7.625q0 2.021 1.375 3.448T13.25 12.5q.604 0 1.167-.115.562-.114 1.104-.385-.375 2.229-2.177 3.615Q11.542 17 9.25 17Zm-.542-5Z"/></svg>