<svg xmlns="http://www.w3.org/2000/svg" height="20" viewBox="0 -960 960 960" width="20"><path d="M336-288v-72h264l72 72H336ZM768-90l-72-72q-48.109 32-103.091 49Q537.927-96 480-96q-79.376 0-149.188-30Q261-156 208.5-208.5T126-330.812Q96-400.624 96-480q0-57.927 17-112.909Q130-647.891 162-696l-72-73 51-51 678 679-51 51Zm30-175-53-52q22-38 34.5-78.5T792-480q0-130-91-221t-221-91q-43.344 0-84.672 12Q354-768 317-746l-53-52q48.109-32 103.091-49Q422.073-864 480-864q80 0 149.5 30t122 82.5Q804-699 834-629.5T864-480q0 57.659-17 112.386Q830-312.886 798-265Zm-155 50L215-643q-23.5 37-35.25 78T168-480q0 130 91 221t221 91q44 0 85-11.75T643-215Zm-88-340ZM406-406Zm92-158 108-108 51 51-108 108-51-51Z"/></svg>