<svg xmlns="http://www.w3.org/2000/svg" height="20" width="20"><path d="M2.5 17.5V15.75H4.167V10.875H2.5V9.125H4.167V4.25H2.5V2.5H17.5V4.25H15.833V9.125H17.5V10.875H15.833V15.75H17.5V17.5ZM5.917 15.75H14.083V10.875H13.208V9.125H14.083V4.25H5.917V9.125H6.792V10.875H5.917ZM10 13.333Q11.042 13.333 11.771 12.615Q12.5 11.896 12.5 10.875Q12.5 10.062 12.031 9.479Q11.562 8.896 10 7.083Q8.438 8.875 7.969 9.469Q7.5 10.062 7.5 10.875Q7.5 11.896 8.229 12.615Q8.958 13.333 10 13.333ZM5.917 15.75V4.25V15.75Z"/></svg>