<svg xmlns="http://www.w3.org/2000/svg" height="20" width="20"><path d="M6.292 11q.083-.292.156-.562.073-.271.073-.584 0-.562-.313-1-.312-.437-.666-.916-.354-.48-.657-1.094-.302-.615-.302-1.552 0-.292.042-.615T4.729 4H6.25q-.083.354-.125.656-.042.302-.042.573 0 .729.302 1.229.303.5.657.98.354.479.666 1.031.313.552.313 1.427 0 .271-.042.542-.041.27-.125.562Zm3 0q.083-.292.146-.562.062-.271.062-.584 0-.562-.302-1-.302-.437-.656-.916-.354-.48-.667-1.094-.313-.615-.313-1.552 0-.292.042-.615T7.708 4h1.521q-.083.354-.125.656-.042.302-.042.573 0 .729.303 1.229.302.5.656.98.354.479.667 1.031.312.552.312 1.427 0 .271-.031.542-.031.27-.115.562Zm2.958 0q.083-.292.156-.562.073-.271.073-.584 0-.562-.312-1-.313-.437-.667-.916-.354-.48-.656-1.094-.302-.615-.302-1.552 0-.292.041-.615.042-.323.105-.677h1.52q-.083.354-.125.656-.041.302-.041.573 0 .729.302 1.229.302.5.656.98.354.479.667 1.031.312.552.312 1.427 0 .271-.041.542-.042.27-.126.562ZM10 16q-2.917 0-4.958-1.094Q3 13.812 3 12.25q0-.729.51-1.406.511-.677 1.49-1.219v1.813q-.25.229-.375.427-.125.197-.125.385 0 .833 1.708 1.542Q7.917 14.5 10 14.5q2.083 0 3.792-.708 1.708-.709 1.708-1.542 0-.188-.125-.385-.125-.198-.375-.427V9.625q.979.521 1.49 1.208.51.688.51 1.417 0 1.562-2.042 2.656Q12.917 16 10 16Z"/></svg>