<svg xmlns="http://www.w3.org/2000/svg" height="20" width="20"><path d="M3 9.5V8h1.333q.479-1.396 1.552-2.396t2.511-1.396l-.813-.791 1.084-1.084 1.125 1.146q.229.25.323.573.093.323-.011.656-.104.354-.364.584-.261.229-.615.291-1.292.25-2.24 1.157-.947.906-1.26 2.198L5.5 9.5Zm9.5.5q0-.75.271-1.458.271-.709.875-1.146-.417-.604-1-1.021-.584-.417-1.271-.646l.458-1.437q1.084.354 1.969 1.062.886.708 1.427 1.708.917.25 1.344 1.094Q17 9 17 10q0 .979-.427 1.833-.427.855-1.344 1.105-.541 1-1.427 1.718-.885.719-1.969 1.073l-.458-1.437q.687-.23 1.271-.646.583-.417 1-1.021-.604-.458-.875-1.156T12.5 10Zm2.25 1.5q.292 0 .521-.469.229-.469.229-1.031 0-.562-.229-1.031-.229-.469-.521-.469-.292 0-.521.469Q14 9.438 14 10q0 .562.229 1.031.229.469.521.469Zm-6.104 6.167-1.063-1.063.813-.812q-1.438-.396-2.511-1.396-1.073-1-1.552-2.396H3v-1.5h2.5l.125.562q.313 1.271 1.26 2.188.948.917 2.24 1.167.354.083.604.302.25.219.354.573.105.333.021.656-.083.323-.333.573ZM14.75 10Z"/></svg>