<svg xmlns="http://www.w3.org/2000/svg" height="20" width="20"><path d="m10 18-4-4 1.062-1.062 2.188 2.187V7h1.5v8.125l2.188-2.187L14 14Zm-6.604-3.5q-.688-1-1.042-2.146Q2 11.208 2 10q0-1.667.625-3.115.625-1.447 1.719-2.541Q5.438 3.25 6.896 2.625T10 2q1.667 0 3.115.625 1.447.625 2.541 1.719 1.094 1.094 1.719 2.541Q18 8.333 18 10q0 1.208-.365 2.354-.364 1.146-1.031 2.146l-1.062-1.083q.479-.792.718-1.646.24-.854.24-1.771 0-2.708-1.896-4.604T10 3.5q-2.708 0-4.604 1.896T3.5 10q0 .917.24 1.781.239.865.718 1.636Z"/></svg>