<svg xmlns="http://www.w3.org/2000/svg" height="20" width="20"><path d="M1 12h1.5v3q0 .312.208.531.209.219.521.219h1.979V15H7.5v-1.25H9V15h2v-1.25h1.5V15h2.292v.75h1.979q.312 0 .521-.219.208-.219.208-.531v-3H19v3q0 .938-.646 1.594-.646.656-1.583.656h-1.979V18H5.208v-.75H3.229q-.937 0-1.583-.656Q1 15.938 1 15Zm5-1.5q-1.25 0-2.125-.875T3 7.5q0-1.25.875-2.125T6 4.5h1V1h6v3.5h1q1.25 0 2.125.875T17 7.5q0 1.25-.875 2.125T14 10.5h-1.771q.167-.188.292-.406.125-.219.229-.448l.188-.479q.041-.084.104-.125.062-.042.146-.042H14V7.5h-.812q-.542 0-.99.302-.448.302-.636.802l-.187.479q-.167.417-.542.667-.375.25-.833.25-.458 0-.823-.25-.365-.25-.531-.667l-.188-.479q-.208-.5-.646-.802-.437-.302-.979-.302H6V9h.812q.084 0 .146.042.063.041.104.125l.188.479q.104.229.229.448.125.218.292.406Z"/></svg>