<svg xmlns="http://www.w3.org/2000/svg" height="20" width="20"><path d="M1 12h1.5v3q0 .312.208.531.209.219.521.219h1.979V15H7.5v-2H9v2h2v-2h1.5v2h2.292v.75h1.979q.312 0 .521-.219.208-.219.208-.531v-3H19v3q0 .938-.646 1.594-.646.656-1.583.656h-1.979V18H5.208v-.75H3.229q-.937 0-1.583-.656Q1 15.938 1 15ZM7 1h1.5v5H6q-.625 0-1.062.438Q4.5 6.875 4.5 7.5t.438 1.062Q5.375 9 6 9v1.5q-1.25 0-2.125-.875T3 7.5q0-1.25.875-2.125T6 4.5h1Zm4.5 0H13v3.5h1q1.25 0 2.125.875T17 7.5q0 1.25-.875 2.125T14 10.5V9q.625 0 1.062-.438.438-.437.438-1.062t-.438-1.062Q14.625 6 14 6h-2.5ZM10 10.5Zm0 1q-.917 0-1.656-.5-.74-.5-1.094-1.354l-.188-.479q-.041-.084-.104-.125Q6.896 9 6.812 9H6V7.5h.833q.542 0 .979.302.438.302.646.802l.188.479q.166.417.531.667.365.25.823.25.458 0 .833-.25.375-.25.542-.667l.187-.479q.188-.5.636-.802.448-.302.99-.302H14V9h-.812q-.084 0-.146.042-.063.041-.104.125l-.188.479q-.354.854-1.094 1.354-.739.5-1.656.5Z"/></svg>