<svg xmlns="http://www.w3.org/2000/svg" height="20" width="20"><path d="M10 18q-1.646 0-3.104-.625-1.458-.625-2.552-1.719t-1.719-2.552Q2 11.646 2 10q0-1.667.625-3.115.625-1.447 1.719-2.541Q5.438 3.25 6.896 2.625T10 2q1.667 0 3.115.625 1.447.625 2.541 1.719 1.094 1.094 1.719 2.541Q18 8.333 18 10q0 .562-.073 1.104t-.219 1.063q-.291-.271-.646-.438-.354-.167-.75-.208.105-.375.146-.75.042-.375.042-.771 0-2.708-1.896-4.604T10 3.5q-2.708 0-4.604 1.896T3.5 10q0 2.708 1.896 4.604T10 16.5q1.083 0 2.052-.323.969-.323 1.781-.927.188.354.479.604.292.25.646.417-1.02.812-2.281 1.271Q11.417 18 10 18Zm6-3q-.417 0-.708-.292Q15 14.417 15 14t.292-.708Q15.583 13 16 13t.708.292Q17 13.583 17 14t-.292.708Q16.417 15 16 15Zm-3.208-1.458L9.25 10V5h1.5v4.375l3.104 3.104Z"/></svg>