<svg xmlns="http://www.w3.org/2000/svg" height="20" width="20"><path d="m11 11-.625-1.375L9 9l1.375-.625L11 7l.625 1.375L13 9l-1.375.625ZM8.5 7l-.771-1.729L6 4.5l1.729-.771L8.5 2l.771 1.729L11 4.5l-1.729.771ZM1 16v-3.5q0-.625.438-1.062Q1.875 11 2.5 11h2.771q.375 0 .687.177.313.177.542.469.604.875 1.521 1.364.917.49 1.979.49t1.979-.49q.917-.489 1.521-1.364.229-.292.542-.469.312-.177.687-.177H17.5q.625 0 1.062.438.438.437.438 1.062V16h-6v-1.875q-.646.479-1.427.677Q10.792 15 10 15q-.792 0-1.562-.198-.771-.198-1.438-.677V16Zm2.5-6q-1.042 0-1.771-.729Q1 8.542 1 7.5q0-1.042.729-1.771Q2.458 5 3.5 5q1.042 0 1.771.729Q6 6.458 6 7.5q0 1.042-.729 1.771Q4.542 10 3.5 10Zm13 0q-1.042 0-1.771-.729Q14 8.542 14 7.5q0-1.042.729-1.771Q15.458 5 16.5 5q1.042 0 1.771.729Q19 6.458 19 7.5q0 1.042-.729 1.771Q17.542 10 16.5 10Z"/></svg>