<svg xmlns="http://www.w3.org/2000/svg" height="20" width="20"><path d="M13 12q-1.042 0-1.771-.729-.729-.729-.729-1.771 0-1.042.729-1.771Q11.958 7 13 7q1.042 0 1.771.729.729.729.729 1.771 0 1.042-.729 1.771Q14.042 12 13 12Zm-5 5v-1.312q0-.584.302-1.063t.802-.729q.896-.438 1.875-.667Q11.958 13 13 13q1.042 0 2.021.229.979.229 1.875.667.5.25.802.729.302.479.302 1.063V17Zm1.521-1.5h6.958q-.625-.479-1.5-.74-.875-.26-1.979-.26t-1.979.26q-.875.261-1.5.74Zm3.479-5q.417 0 .708-.292Q14 9.917 14 9.5t-.292-.708Q13.417 8.5 13 8.5t-.708.292Q12 9.083 12 9.5t.292.708q.291.292.708.292Zm0-1Zm0 6ZM3 11.75v-1.5h6v1.5ZM3 5.5V4h9v1.5Zm6.104 3.125H3v-1.5h6.792q-.25.333-.417.708-.167.375-.271.792Z"/></svg>