<svg xmlns="http://www.w3.org/2000/svg" height="20" width="20"><path d="M4.5 10.312 1.438 7.25 4.5 4.188 7.562 7.25ZM7.5 18v-4.104q-1.208-.084-2.375-.313-1.167-.229-2.333-.541l.437-1.438q1.667.458 3.354.656 1.688.198 3.417.198 1.729 0 3.427-.198t3.365-.656l.437 1.438q-1.167.312-2.344.541-1.177.229-2.385.313V18ZM10 6q-1.042 0-1.771-.729Q7.5 4.542 7.5 3.5q0-1.042.729-1.771Q8.958 1 10 1q1.042 0 1.771.729.729.729.729 1.771 0 1.042-.729 1.771Q11.042 6 10 6Zm0 5.5q-.625 0-1.062-.438Q8.5 10.625 8.5 10t.438-1.062Q9.375 8.5 10 8.5t1.062.438q.438.437.438 1.062t-.438 1.062q-.437.438-1.062.438Zm4.208-2-1.312-2.25L14.208 5h2.604l1.313 2.25-1.313 2.25Z"/></svg>