<svg xmlns="http://www.w3.org/2000/svg" height="20" width="20"><path d="M16.729 18.833 1.167 3.271l1.062-1.042 15.542 15.542ZM3 4.125l1.5 1.5V15h9.438L15 16.062V19H3ZM7.125 5 3.5 1.396V1H15v5h-1.5V5Zm7 7.125-1.063-1.063q.209-.208.323-.479.115-.271.115-.583 0-.312-.115-.583-.114-.271-.323-.479l1.063-1.063q.417.417.646.958Q15 9.375 15 10t-.229 1.167q-.229.541-.646.958Zm2.125 2.125-1.062-1.062q.604-.605.958-1.428.354-.822.354-1.76 0-.938-.354-1.76-.354-.823-.958-1.428L16.25 5.75q.812.812 1.281 1.906Q18 8.75 18 10q0 1.25-.469 2.344-.469 1.094-1.281 1.906Z"/></svg>