<svg xmlns="http://www.w3.org/2000/svg" height="20" width="20"><path d="M16.729 18.833 1.167 3.271l1.062-1.042 15.542 15.542ZM3 4.125l1.5 1.5V15h9.438L15 16.062V19H3ZM4.5 16.5v1h9v-1Zm1.125-13H13.5v-1H4.625L3.5 1.396V1H15v5h-1.5V5H7.125ZM4.5 16.5v1-1Zm9.667-4.458L13.104 11q.208-.208.302-.448.094-.24.094-.552 0-.312-.115-.583-.114-.271-.323-.479l1.063-1.063q.417.417.646.958Q15 9.375 15 10t-.208 1.125q-.209.5-.625.917Zm2.125 2.125-1.063-1.063q.604-.604.938-1.385.333-.781.333-1.719 0-.938-.354-1.76-.354-.823-.958-1.428L16.25 5.75q.812.812 1.281 1.906Q18 8.75 18 10q0 1.25-.448 2.302t-1.26 1.865ZM13.5 2.5v1Z"/></svg>