<svg xmlns="http://www.w3.org/2000/svg" height="20" width="20"><path d="M10.021 13.938ZM3 16v-3q0-1.667 1.167-2.833Q5.333 9 7 9h8.271Q16 9 16.5 9.5q.5.5.5 1.229 0 .563-.344 1.021-.344.458-.885.625L14 12.938V16.5q0 .396-.177.719-.177.323-.469.531-.292.208-.656.25-.365.042-.74-.104L7.146 16Zm9.5-2H7.812q-.145 0-.229.073-.083.073-.104.177-.021.104.031.208.052.104.157.146L12.5 16.5Zm-8 .5H6v-.188q0-.75.531-1.281.531-.531 1.281-.531h2.48l5.041-1.562q.105-.042.146-.105.042-.062.021-.145-.021-.084-.073-.136-.052-.052-.156-.052H7q-1.042 0-1.771.729Q4.5 11.958 4.5 13ZM10 8q-1.25 0-2.125-.875T7 5q0-1.25.875-2.125T10 2q1.25 0 2.125.875T13 5q0 1.25-.875 2.125T10 8Zm0-1.5q.625 0 1.062-.438Q11.5 5.625 11.5 5t-.438-1.062Q10.625 3.5 10 3.5t-1.062.438Q8.5 4.375 8.5 5t.438 1.062Q9.375 6.5 10 6.5Zm.021 7.438ZM10 5Z"/></svg>