<svg xmlns="http://www.w3.org/2000/svg" height="20" width="20"><path d="M7.375 17q-1.833 0-3.104-1.271Q3 14.458 3 12.625q0-.875.333-1.687.334-.813.938-1.417l5.25-5.25q.604-.604 1.417-.938Q11.75 3 12.625 3q1.833 0 3.104 1.271Q17 5.542 17 7.375q0 .875-.333 1.687-.334.813-.938 1.417l-5.25 5.25q-.604.604-1.417.938Q8.25 17 7.375 17Zm5.187-5.5 2.105-2.083q.416-.417.625-.938.208-.521.208-1.104 0-1.187-.844-2.031-.844-.844-2.031-.844-.583 0-1.104.208-.521.209-.938.625L8.5 7.438Zm-5.187 4q.583 0 1.104-.208.521-.209.938-.625l2.083-2.105L7.438 8.5l-2.084 2.083q-.416.417-.635.938-.219.521-.219 1.104 0 1.187.844 2.031.844.844 2.031.844Z"/></svg>