<svg xmlns="http://www.w3.org/2000/svg" height="20" viewBox="0 -960 960 960" width="20"><path d="M312-144v-144h72v144h-72Zm0-264v-144h72v144h-72Zm0-264v-144h72v144h-72ZM96-144l96-672h72l-96 672H96Zm581.5-3.5Q673-151 670-156l-4-7q-23-42-60.5-71.5T542-303q-15-23-22.5-48.5T512-404q0-72 52-122t124-50q73 0 124.5 51T864-401q0 26-8 51t-22 47q-26 39-63.5 68.5T710-163l-4 7q-2 5-7 8.5t-11 3.5q-6 0-10.5-3.5ZM739-349q21-21 21-51t-21-51q-21-21-51-21t-51 21q-21 21-21 51t21 51q21 21 51 21t51-21ZM473-527l-41-289h72l31 218q-19 15-34.5 32.5T473-527Z"/></svg>