<svg xmlns="http://www.w3.org/2000/svg" height="20" width="20"><path d="m13.812 11.708 3.376-3.354 1.062 1.063-3.375 3.354ZM1.75 16v-3.146q.667-.083 1.24-.396.572-.312 1.135-.666l1.354 1.437.542-.541-1.292-1.355q.167-.125.313-.271.146-.145.291-.312l1.271 1.354.521-.521-1.313-1.395q.105-.167.24-.334.136-.166.24-.354l1.479 1.438.521-.521-1.604-1.605 1.291-2.958L11.333 2.5l5.313 5.312L8.854 16Zm6.479-1.5 6.333-6.646L8.229 14.5Zm-4.979 0h4.979l6.333-6.646-3.229-3.229-2.104 2.104-.958 2.25 1.375 1.625-4.188 4.188L4.25 13.5q-.25.125-.49.26-.239.136-.489.24Z"/></svg>