<svg xmlns="http://www.w3.org/2000/svg" height="20" width="20"><path d="M10 13.75q-1.542 0-2.75-.844T5.5 10.75q.354-.896 1.042-1.573.687-.677 1.583-1.052l.771.771q-.729.229-1.323.708t-.969 1.146q.5.938 1.396 1.469.896.531 2 .531.604 0 1.135-.167.532-.166.99-.458l.708.729q-.604.417-1.323.656-.718.24-1.51.24Zm3.917-1.958-.709-.709q.042-.083.094-.166.052-.084.094-.167-.375-.708-1-1.188-.625-.479-1.396-.687L9.875 7.75q1.542 0 2.813.844 1.27.844 1.812 2.156-.104.292-.26.552-.157.26-.323.49Zm2.104 6.333L14.875 17H3V5.125L1.875 4l1.063-1.062 14.124 14.145ZM4.5 15.5h8.875L4.5 6.625Zm12.5-.625-1.5-1.5V7H9.125l-4-4H17Z"/></svg>