<svg xmlns="http://www.w3.org/2000/svg" height="20" viewBox="0 96 960 960" width="20"><path d="M648 912V720h48v-48q0-29.7 21.212-50.85 21.213-21.15 51-21.15Q798 600 819 621.15q21 21.15 21 50.85v48h48v192H648Zm84-192h72v-48q0-15.3-10.289-25.65-10.29-10.35-25.5-10.35Q753 636 742.5 646.35 732 656.7 732 672v48ZM168 504h623-623Zm72 408V768H96V432h768v117q-17-8-35.065-12.529Q810.871 531.941 791 530v-26H168v192h72v-72h335q-12 16-21.559 33.778Q543.882 675.556 538 696H312v144h227q6.482 19.871 15.741 37.935Q564 896 576 912H240Zm408-480V312H312v120h-72V240h480v192h-72Z"/></svg>