<svg xmlns="http://www.w3.org/2000/svg" height="20" width="20"><path d="M9.25 17v-6.188h-.188q-1.187 0-2.281-.447-1.093-.448-1.948-1.282-.895-.854-1.364-1.979Q3 5.979 3 4.75V3h1.75q1.188 0 2.271.448t1.937 1.281q.604.583 1.011 1.302.406.719.614 1.511.792-1.104 2.042-1.698 1.25-.594 2.625-.594H17V7q0 1.229-.469 2.354t-1.364 1.979q-.834.729-1.855 1.125-1.02.396-2.124.396h-.438V17Zm0-7.75q0-.958-.323-1.865-.323-.906-.989-1.573-.667-.666-1.573-.989Q5.458 4.5 4.5 4.5q0 .958.323 1.865.323.906.989 1.573.667.666 1.573.989.907.323 1.865.323Zm1.5 2.25q.958 0 1.865-.323.906-.323 1.573-.989.666-.667.989-1.573.323-.907.323-1.865-.958 0-1.865.323-.906.323-1.573.989-.666.667-.989 1.573-.323.907-.323 1.865Zm0 0Zm-1.5-2.25Z"/></svg>