<svg xmlns="http://www.w3.org/2000/svg" height="20" width="20"><path d="M13.5 16h1v-2h-1Zm.5-3q.208 0 .354-.135.146-.136.146-.365 0-.208-.146-.354T14 12q-.229 0-.365.146-.135.146-.135.354 0 .229.135.365.136.135.365.135Zm0 5q-1.667 0-2.833-1.167Q10 15.667 10 14q0-1.667 1.167-2.833Q12.333 10 14 10q1.667 0 2.833 1.167Q18 12.333 18 14q0 1.667-1.167 2.833Q15.667 18 14 18ZM10 7h3.5L10 3.5 13.5 7 10 3.5ZM3 18V2h8l4 4v2.583q-.25-.041-.49-.062-.239-.021-.489-.021-1.292 0-2.396.531-1.104.531-1.875 1.469H6V12h2.875q-.146.354-.229.729-.084.375-.125.771H6V15h2.583q.167.875.584 1.635.416.761 1.062 1.365Z"/></svg>