<svg xmlns="http://www.w3.org/2000/svg" height="20" width="20"><path d="M13.5 16h1v-2h-1Zm.5-3q.208 0 .354-.135.146-.136.146-.365 0-.208-.146-.354T14 12q-.229 0-.365.146-.135.146-.135.354 0 .229.135.365.136.135.365.135ZM4.5 3.5v13-13V7ZM6 12h2.875q.167-.417.375-.792.208-.375.5-.708H6Zm0 3h2.583q-.062-.375-.083-.75-.021-.375.021-.75H6Zm-3 3V2h8l4 4v2.583q-.375-.062-.75-.083-.375-.021-.75.021V7H10V3.5H4.5v13h4.604q.229.417.5.792.271.375.625.708Zm11-8q1.667 0 2.833 1.167Q18 12.333 18 14q0 1.667-1.167 2.833Q15.667 18 14 18q-1.667 0-2.833-1.167Q10 15.667 10 14q0-1.667 1.167-2.833Q12.333 10 14 10Z"/></svg>