<svg xmlns="http://www.w3.org/2000/svg" height="20" viewBox="0 96 960 960" width="20"><path d="m859 828-47-94 65-32 47 94-65 32Zm-588 1-80-161 65-32 80 160-65 33Zm213.211-13Q469 816 458.5 805.711q-10.5-10.29-10.5-25.5Q448 765 458.289 754.5q10.29-10.5 25.5-10.5Q499 744 509.5 754.289q10.5 10.29 10.5 25.5Q520 795 509.711 805.5q-10.29 10.5-25.5 10.5ZM664 828 475 451l65-32 188 377-64 32Zm-244-97L232 356l64-32 188 376-64 31Zm396.211-35Q801 696 790.5 685.711q-10.5-10.29-10.5-25.5Q780 645 790.289 634.5q10.29-10.5 25.5-10.5Q831 624 841.5 634.289q10.5 10.29 10.5 25.5Q852 675 841.711 685.5q-10.29 10.5-25.5 10.5Zm-630-84Q171 612 160.5 601.711q-10.5-10.29-10.5-25.5Q150 561 160.289 550.5q10.29-10.5 25.5-10.5Q201 540 211.5 550.289q10.5 10.29 10.5 25.5Q222 591 211.711 601.5q-10.29 10.5-25.5 10.5ZM746 601 623 356l65-32 122 244-64 33Zm-630-85L36 355l64-31 80 160-64 32Zm360.211-108Q461 408 450.5 397.711q-10.5-10.29-10.5-25.5Q440 357 450.289 346.5q10.29-10.5 25.5-10.5Q491 336 501.5 346.289q10.5 10.29 10.5 25.5Q512 387 501.711 397.5q-10.29 10.5-25.5 10.5Z"/></svg>