<svg xmlns="http://www.w3.org/2000/svg" height="20" width="20"><path d="M6.333 17q-.729 0-1.343-.312-.615-.313-1.198-.959-.854-.937-1.334-2.25-.479-1.312-.479-2.687 0-1.604.636-3.021.635-1.417 1.729-2.479 1.094-1.063 2.552-1.677Q8.354 3 10 3q1.667 0 3.115.625 1.447.625 2.541 1.708 1.094 1.084 1.719 2.532Q18 9.312 18 10.958q0 1.48-.51 2.771-.511 1.292-1.448 2.188-.563.541-1.167.812-.604.271-1.229.271-.354 0-.729-.094t-.729-.26L11 16.062q-.229-.104-.448-.156-.219-.052-.49-.052-.312 0-.624.073-.313.073-.605.219l-1.021.5q-.354.166-.729.26t-.75.094Zm6.813-7h1.521q-.292-1.75-1.605-2.875Q11.75 6 10 6 8.229 6 6.917 7.135 5.604 8.271 5.333 10h1.521q.25-1.104 1.136-1.802Q8.875 7.5 10 7.5q.333 0 .646.062.312.063.604.188l-2.396 3.104 1.208.917 2.396-3.125q.25.292.417.625.167.333.271.729Z"/></svg>