<svg xmlns="http://www.w3.org/2000/svg" height="20" width="20"><path d="m10.021 17.625-6.625-6.146q-.354-.312-.604-.677-.25-.364-.417-.781h7.687q.313 0 .532.219.218.218.218.531 0 .312-.218.531-.219.219-.532.219-.25 0-.458-.146-.208-.146-.271-.396l-1.458.396q.187.729.802 1.187.615.459 1.385.459.938 0 1.594-.656.656-.657.656-1.594 0-.209-.031-.396-.031-.187-.093-.354h1.062q.938 0 1.562-.656.626-.657.626-1.594 0-.938-.657-1.594-.656-.656-1.593-.656-.771 0-1.386.458-.614.459-.802 1.188l1.458.395q.063-.25.271-.395.209-.146.459-.146.312 0 .531.219.219.218.219.531 0 .312-.219.531-.219.219-.531.219H2q-.021-.125-.021-.25v-.25q0-2.042 1.344-3.531Q4.667 3 6.667 3q.958 0 1.812.396.854.396 1.521 1.083.646-.708 1.51-1.094Q12.375 3 13.333 3q2 0 3.344 1.49 1.344 1.489 1.344 3.531 0 .979-.333 1.875-.334.896-1.042 1.562Z"/></svg>