<svg xmlns="http://www.w3.org/2000/svg" height="20" width="20"><path d="m11.5 14.458 1.75-1.75V11.5v1.208l-1.75 1.75Zm5 0-1.75-1.75V11.5v1.208ZM10 10ZM2 8V4h16v5h-1.5V5.5h-13V8Zm0 8v-4h1.5v2.5h4.521V16Zm8.479 3q-.625 0-1.062-.438-.438-.437-.438-1.062l.042-2.708 1.083-3.709q.146-.479.552-.781.406-.302.906-.302h1.688V8.5h1.5V10h1.688q.5 0 .895.312.396.313.542.792L19 15v2.5q0 .625-.448 1.062Q18.104 19 17.5 19H16q-.625 0-1.062-.438-.438-.437-.438-1.062v-1H16v1h1.5v-2.375L16.417 11.5H14.75v1.208l1.75 1.75-1.062 1.042L14 14.062 12.542 15.5 11.5 14.458l1.75-1.75V11.5h-1.688L10.5 15.125V17.5H12v-1h1.5v1q0 .625-.448 1.062Q12.604 19 12 19ZM14 14.5ZM2 10.75v-1.5h3.167l1.083 1.938L8.792 6.5h.937l1.354 2.562q-.375.063-.708.24-.333.177-.604.469l-.521-.959L6.688 13.5h-.876l-1.52-2.75Z"/></svg>