<svg xmlns="http://www.w3.org/2000/svg" height="20" width="20"><path d="M10.479 19q-.625 0-1.062-.438-.438-.437-.438-1.062l.042-2.708 1.083-3.709q.146-.479.552-.781.406-.302.906-.302h.688v2.271l-1.479 1.479.729.708 1.75-1.75V8.5h1.5v4.188l1.75 1.75.708-.709-1.458-1.458V10h.688q.5 0 .895.312.396.313.542.792L19 15v2.5q0 .625-.448 1.062Q18.104 19 17.5 19H16q-.625 0-1.062-.438-.438-.437-.438-1.062v-2.938l-.5-.5-.5.5V17.5q0 .625-.448 1.062Q12.604 19 12 19ZM6.25 11.188l-.854-1.542q-.104-.188-.271-.292-.167-.104-.375-.104H2V4h16v5h-2.25V7.5h-3.5V9l-1.167.042-1.187-2.146q-.104-.188-.271-.281-.167-.094-.375-.094t-.385.094q-.177.093-.282.281ZM2 16v-5.25h2.292l1.291 2.354q.105.167.271.271.167.104.396.104.208 0 .375-.104t.271-.271L9.25 8.812l.521.938q-.229.229-.375.5t-.25.562L8.021 14.5V16Z"/></svg>