<svg xmlns="http://www.w3.org/2000/svg" height="20" width="20"><path d="M9.167 18.333Q6.021 18.333 3.844 16.156Q1.667 13.979 1.667 10.833Q1.667 9.271 2.26 7.906Q2.854 6.542 3.865 5.521Q4.875 4.5 6.25 3.917Q7.625 3.333 9.188 3.333H9.229L7.938 2.042L9.167 0.812L12.562 4.208L9.167 7.604L7.938 6.375L9.229 5.083H9.188Q6.792 5.083 5.104 6.76Q3.417 8.438 3.417 10.833Q3.417 13.229 5.094 14.906Q6.771 16.583 9.167 16.583Q9.854 16.583 10.5 16.438Q11.146 16.292 11.729 15.979L13.021 17.271Q12.146 17.812 11.177 18.073Q10.208 18.333 9.167 18.333ZM14.125 15.896 9.062 10.833 14.125 5.771 19.188 10.833Z"/></svg>