<svg xmlns="http://www.w3.org/2000/svg" height="20" width="20"><path d="M2 18V2h16v16Zm1.5-4.5v3H5V15h-.75v-1.5Zm0-1.5h.75v-1H5V8.5q0-.417.292-.708Q5.583 7.5 6 7.5h2q.417 0 .708.292Q9 8.083 9 8.5V11h.75v1h6.75V3.5h-13ZM7 7q-.521 0-.885-.365-.365-.364-.365-.885t.365-.885Q6.479 4.5 7 4.5t.885.365q.365.364.365.885t-.365.885Q7.521 7 7 7Zm-.5 9.5h1V15h-1Zm2.5 0h7.5v-3H9.75V15H9Zm1.438-7.75q.083-.229.124-.458.042-.23.042-.396 0-.229-.094-.458-.093-.23-.322-.5-.355-.417-.521-.844-.167-.427-.167-.886 0-.166.01-.343.011-.177.052-.365h1.042l-.073.406q-.031.177-.031.302 0 .292.115.552.114.261.364.552.313.376.469.771.156.396.156.813 0 .166-.031.375-.031.208-.094.479Zm1.895 0q.084-.229.125-.458.042-.23.042-.396 0-.229-.094-.458-.094-.23-.323-.5-.354-.417-.521-.844-.166-.427-.166-.886 0-.166.01-.343.011-.177.052-.365H12.5l-.073.406q-.031.177-.031.302 0 .292.114.552.115.261.365.552.313.376.469.771.156.396.156.813 0 .166-.031.375-.031.208-.094.479Zm1.959 0q.083-.229.125-.458.041-.23.041-.396 0-.229-.093-.458-.094-.23-.323-.5-.354-.417-.521-.844-.167-.427-.167-.886 0-.166.011-.343.01-.177.052-.365h1.041l-.073.406q-.031.177-.031.302 0 .292.115.552.114.261.364.552.313.376.469.771.156.396.156.813 0 .166-.031.375-.031.208-.094.479Z"/></svg>