<svg xmlns="http://www.w3.org/2000/svg" height="20" viewBox="0 96 960 960" width="20"><path d="M184 821q-42-50-65-112.5T96 576.098q0-69.901 23-132.5Q142 381 184 331l52 51q-32 40-50 89.272-18 49.272-18 104.5T186 680.5q18 49.5 50 89.5l-52 51Zm295.902 139Q410 960 347.5 937 285 914 235 872l51-52q40 32 89.272 50 49.272 18 104.5 18T584.5 870q49.5-18 89.5-50l51 52q-50 42-112.598 65-62.599 23-132.5 23ZM776 821l-52-51q32-40 50-89.557 18-49.556 18-104.5Q792 521 774 471.5T724 382l52-51q42 50 65 112.598 23 62.599 23 132.5Q864 646 841 708.5 818 771 776 821ZM286 332l-51-52q50-42 112.627-65 62.627-23 131.982-23Q550 192 612.5 215 675 238 725 280l-51 52q-40-32-89.557-50-49.556-18-104.5-18Q425 264 375.5 282T286 332Zm193.774 436Q400 768 344 711.774t-56-136Q288 496 344.226 440t136-56Q560 384 616 440.226t56 136Q672 656 615.774 712t-136 56Z"/></svg>