<svg xmlns="http://www.w3.org/2000/svg" height="20" viewBox="0 -960 960 960" width="20"><path d="M456-480ZM192-96h160q-12-16-21-33.78T317-168h-53v-425l192-199 192 199v91q19 2 37 7.5t35 13.5v-141L455-895 192-622v526Zm263-479q-25 0-42.5-17.5T395-635q0-24 17.5-41.5T455-694q25 0 42.5 17.5T515-635q0 25-17.5 42.5T455-575Zm49 479q-51 0-85.5-34.5T384-216q0-45 29.5-78.5T488-334q13-45 50.5-71.5T624-432q54 0 93.5 35t47.5 86q42 4 70.5 34.43T864-204q0 45-32.5 76.5T756-96H504Zm0-72h252q14.4 0 25.2-10.5Q792-189 792-204.08q0-13.92-9.5-23.42Q773-237 759-239l-56-5-9-55q-5-26-24.5-43.5T624-360q-28 0-47.5 20T549-294l-8 26-44 5q-18 3-29.5 16.5T456-216q0 20.4 13.8 34.2Q483.6-168 504-168Zm120 0Z"/></svg>