<svg xmlns="http://www.w3.org/2000/svg" height="20" width="20"><path d="M6.458 10.604 9.25 8.5 6.458 6.396l-.916 1.208L6.75 8.5l-1.208.896Zm7.084 0 .916-1.208L13.25 8.5l1.208-.896-.916-1.208L10.75 8.5Zm-4.75 3.729L10 13.083l1.208 1.25 1.209-1.25.666.688 1.084-1.042-1.75-1.812-1.209 1.25L10 10.917l-1.208 1.25-1.209-1.25-1.75 1.812 1.084 1.042.666-.688ZM10 18q-1.646 0-3.104-.625-1.458-.625-2.552-1.719t-1.719-2.552Q2 11.646 2 10q0-1.667.625-3.115.625-1.447 1.719-2.541Q5.438 3.25 6.896 2.625T10 2q1.667 0 3.115.625 1.447.625 2.541 1.719 1.094 1.094 1.719 2.541Q18 8.333 18 10q0 1.646-.625 3.104-.625 1.458-1.719 2.552t-2.541 1.719Q11.667 18 10 18Zm0-8Zm0 6.5q2.708 0 4.604-1.896T16.5 10q0-2.708-1.896-4.604T10 3.5q-2.708 0-4.604 1.896T3.5 10q0 2.708 1.896 4.604T10 16.5Z"/></svg>