<svg xmlns="http://www.w3.org/2000/svg" height="20" viewBox="0 -960 960 960" width="20"><path d="M144-96v-696H96v-72h768v72h-48v696h-88q-12-32-39.96-52T624-168q-36 0-64.5 20t-39.87 52H440q-11-32-39.26-52-28.27-20-64.74-20-36 0-64.5 20T231-96h-87Zm72-97q17-14 36-25t41-15.94V-792h-77v599Zm149-43q22 4 41.65 12.44Q426.3-215.13 443-202v-590h-78v556Zm151 34q17-13 36-21.5t41-12.5v-556h-77v590Zm228 10v-600h-78v558.06Q689-229 708-218t36 26ZM293-792h-77 77Zm150 0h-78 78Zm150 0h-77 77Zm151 0h-78 78Zm-228 0h-73 73Z"/></svg>