<svg xmlns="http://www.w3.org/2000/svg" height="20" width="20"><path d="M10 14q.312 0 .531-.219.219-.219.219-.531 0-.312-.219-.531-.219-.219-.531-.219-.312 0-.531.219-.219.219-.219.531 0 .312.219.531Q9.688 14 10 14Zm-3.25 0q.312 0 .531-.219.219-.219.219-.531 0-.312-.219-.531-.219-.219-.531-.219-.312 0-.531.219Q6 12.938 6 13.25q0 .312.219.531.219.219.531.219Zm6.5 0q.312 0 .531-.219.219-.219.219-.531 0-.312-.219-.531-.219-.219-.531-.219-.312 0-.531.219-.219.219-.219.531 0 .312.219.531.219.219.531.219ZM3 17V3h14v14Zm1.5-1.5h11v-11h-11Zm0-11v11Z"/></svg>