<svg xmlns="http://www.w3.org/2000/svg" height="20" width="20"><path d="M10 8 14.583 11.562Q14.729 11.083 14.802 10.594Q14.875 10.104 14.917 9.604L10 5.771L5.083 9.604Q5.104 10.104 5.188 10.594Q5.271 11.083 5.417 11.562ZM10 16.479Q10.479 16.333 10.885 16.115Q11.292 15.896 11.708 15.604V12.458H8.292V15.625Q8.708 15.917 9.115 16.125Q9.521 16.333 10 16.479ZM10 18.333Q7.104 17.625 5.219 15.031Q3.333 12.438 3.333 9.271V4.146L10 1.667L16.667 4.146V9.271Q16.667 12.438 14.781 15.031Q12.896 17.625 10 18.333Z"/></svg>