<svg xmlns="http://www.w3.org/2000/svg" height="20" viewBox="0 -960 960 960" width="20"><path d="M672-48q-100 0-170-70t-70-170q0-100 70-170t170-70q100 0 170 70t70 170q0 27-5 52t-16 48l-57-57q3-11 4.5-21.5T840-288q0-70-49-119t-119-49q-70 0-119 49t-49 119q0 70 49 119t119 49q11 0 21.5-1.5T715-126l57 56q-23 11-48 16.5T672-48Zm-51-291q21-21 51-21t51 21q21 21 21 51 0-1-2 19l122 122-51 51-122-122q-6 2-19 2-30 0-51-21t-21-51q0-30 21-51ZM168-515v-229l312-120 312 120v167q-29-12-59-17.5t-61-5.5q-130 0-221 91t-91 221q0 45 12.5 86.5T408-122q-106-52-173-159.5T168-515Z"/></svg>