<svg xmlns="http://www.w3.org/2000/svg" height="20" width="20"><path d="M11.667 10.688q1.521-1.146 2.427-2.563Q15 6.708 15 5.292q0-.646-.219-.969Q14.562 4 14.125 4q-1.063 0-1.802 1.562-.74 1.563-.74 3.792 0 .375.021.708.021.334.063.626ZM3 17v-1.5h1.5V17Zm3.125 0v-1.5h1.5V17Zm3.125 0v-1.5h1.5V17Zm3.125 0v-1.5h1.5V17Zm3.125 0v-1.5H17V17ZM3.062 14 2 12.938 3.438 11.5 2 10.062 3.062 9 4.5 10.438 5.938 9 7 10.062 5.562 11.5 7 12.938 5.938 14 4.5 12.562Zm9.75 0q-.604 0-1.083-.271t-.833-.771q-.5.271-1.031.511-.532.239-1.115.469l-.521-1.396q.542-.188 1.073-.427.531-.24 1.01-.532-.124-.479-.187-1.031-.063-.552-.063-1.198.021-3.062 1.136-4.958Q12.312 2.5 14.125 2.5q1.125 0 1.75.74.625.739.625 2.052 0 1.896-1.125 3.677-1.125 1.781-3.167 3.198.146.166.302.25.157.083.365.083.604 0 1.333-.688.73-.687 1.354-1.833l1.355.625q-.188.479-.24 1.021-.052.542.052.854.229-.104.563-.396.333-.291.604-.645l1.187.916q-.604.771-1.26 1.208-.656.438-1.198.438-.458 0-.823-.302-.364-.302-.531-.823-.604.604-1.219.865-.614.26-1.24.26Z"/></svg>