<svg xmlns="http://www.w3.org/2000/svg" height="20" width="20"><path d="M12 2q2.5 0 4.25 1.75T18 8h-1.5q0-.896-.333-1.687-.334-.792-.896-1.396l-.833 1.604q-.146.291-.323.625-.177.333-.407.562-.27.292-.698.292-.427 0-.718-.292Q12 7.417 12 7t.292-.708q.229-.23.562-.417.334-.187.625-.333l1.604-.834q-.604-.562-1.395-.885Q12.896 3.5 12 3.5Zm-1.938 16q-1.666 0-3.135-.635-1.469-.636-2.562-1.73-1.094-1.093-1.73-2.562Q2 11.604 2 9.938q0-2.917 1.833-5.157Q5.667 2.542 8.583 2q-.354 2.062.24 3.917.594 1.854 2.031 3.291 1.396 1.396 3.292 1.98 1.896.583 3.854.229-.5 2.875-2.76 4.729Q12.979 18 10.062 18Z"/></svg>