<svg xmlns="http://www.w3.org/2000/svg" height="20" width="20"><path d="M3.833 15.083q-.875-1.041-1.354-2.333Q2 11.458 2 10q0-3.146 2.083-5.406 2.084-2.261 5.146-2.552v1.5q-2.437.291-4.083 2.125Q3.5 7.5 3.5 10q0 1.146.365 2.167.364 1.021 1.031 1.854ZM10 18q-1.458 0-2.75-.49-1.292-.489-2.354-1.364l1.062-1.063q.834.667 1.865 1.042Q8.854 16.5 10 16.5q1.146 0 2.177-.375 1.031-.375 1.865-1.042l1.062 1.063q-1.062.875-2.354 1.364Q11.458 18 10 18Zm6.167-2.917-1.063-1.062q.667-.833 1.031-1.854.365-1.021.365-2.167 0-2.5-1.646-4.333-1.646-1.834-4.083-2.125v-1.5q3.062.291 5.146 2.552Q18 6.854 18 10q0 1.458-.479 2.75t-1.354 2.333ZM8 13.5v-7l5.5 3.5Z"/></svg>