<svg xmlns="http://www.w3.org/2000/svg" height="20" viewBox="0 -960 960 960" width="20"><path d="M288-276h384v-516H288v516Zm192-180q60 0 102-42t42-102q0-60-42-102t-102-42q-60 0-102 42t-42 102q0 60 42 102t102 42Zm-.21-72Q450-528 429-549.21t-21-51Q408-630 429.21-651t51-21Q510-672 531-650.79t21 51Q552-570 530.79-549t-51 21Zm0 204q15.21 0 25.71-10.29t10.5-25.5q0-15.21-10.29-25.71t-25.5-10.5q-15.21 0-25.71 10.29t-10.5 25.5q0 15.21 10.29 25.71t25.5 10.5ZM624-96H336v-72h35.56q20.44 0 36.94-9.5Q425-187 434-204H216v-660h528v660H526q9 17 25.5 26.5t36.94 9.5H624v72ZM480-600Z"/></svg>