<svg xmlns="http://www.w3.org/2000/svg" height="20" viewBox="0 -960 960 960" width="20"><path d="M151-192q-25-45-40-94T96-386q0-80 30.41-149.55 30.4-69.54 82.53-120.99 52.13-51.44 122.59-81.45Q402-768 481-768q19.75 0 39.5 2.18T560-760l-48 66q-7.95-1.33-15.5-1.67-7.55-.33-15.5-.33-131.07 0-222.03 91Q168-514 168-384q0 31.07 6 61.04Q180-293 191-264h577q11-29 17.5-59.09Q792-353.18 792-384q0-69-29-130.5T681-621l20-78q77 54 120 136.5T864-386q0 51-15 100t-41 94H151Zm299-150q30 14 59.47 2.15Q538.93-351.71 548-383q25.13-87.7 45.07-175.85Q613-647 633-737q-57 72-109.5 145.5T419.18-443.39Q401-417 410.5-386.5T450-342Zm31-65Z"/></svg>