<svg xmlns="http://www.w3.org/2000/svg" height="20" width="20"><path d="M10 16q-2.979 0-5.427-1.625Q2.125 12.75 1 10q1.125-2.75 3.573-4.375T10 4q2.979 0 5.427 1.625Q17.875 7.25 19 10q-1.125 2.75-3.573 4.375T10 16ZM2.833 9.625q1.396-1.5 3.261-2.313Q7.958 6.5 10 6.5t3.906.812q1.865.813 3.261 2.313-1.063-1.937-2.98-3.031Q12.271 5.5 10 5.5q-2.271 0-4.188 1.094-1.916 1.094-2.979 3.031ZM10 14.5q2 0 3.719-.854 1.719-.854 2.864-2.375-.666-.875-1.51-1.542t-1.844-1.083q.125.312.198.656.073.344.073.698 0 1.458-1.021 2.479Q11.458 13.5 10 13.5q-1.458 0-2.479-1.021Q6.5 11.458 6.5 10q0-.354.073-.698t.198-.656q-1 .416-1.844 1.083-.844.667-1.51 1.542 1.145 1.521 2.864 2.375Q8 14.5 10 14.5Zm0-2.5q.833 0 1.417-.583Q12 10.833 12 10q0-.833-.583-1.417Q10.833 8 10 8q-.833 0-1.417.583Q8 9.167 8 10q0 .833.583 1.417Q9.167 12 10 12Z"/></svg>