<svg xmlns="http://www.w3.org/2000/svg" height="20" width="20"><path d="M10 13.292q1.167 0 2.677-.438 1.511-.437 3.74-1.437.041-.229.052-.459.01-.229.01-.458 0-.25-.208-.396-.209-.146-.438-.083-.271.083-.593.198-.323.114-.886.343-1.396.563-2.375.803-.979.239-1.979.239-1.042 0-2.063-.239-1.02-.24-2.437-.823-.479-.209-.792-.323-.312-.115-.583-.198-.229-.083-.427.073-.198.156-.198.406 0 .229.01.458.011.23.052.459 2.042.958 3.636 1.416 1.594.459 2.802.459Zm0 3.208q1.958 0 3.469-.865 1.51-.864 2.302-2.302-1.875.792-3.209 1.125-1.333.334-2.562.334-1.208 0-2.615-.344-1.406-.344-3.177-1.094Q5 14.792 6.51 15.646q1.511.854 3.49.854ZM10 8q-1.25 0-2.125-.875T7 5q0-1.25.875-2.125T10 2q1.25 0 2.125.875T13 5q0 1.25-.875 2.125T10 8Zm0-1.5q.625 0 1.062-.438Q11.5 5.625 11.5 5t-.438-1.062Q10.625 3.5 10 3.5t-1.062.438Q8.5 4.375 8.5 5t.438 1.062Q9.375 6.5 10 6.5ZM10 18q-3.542 0-5.771-2.104T2 10.5q0-1.021.812-1.615.813-.593 1.771-.281.292.104.594.208.302.105.906.355 1.313.541 2.157.739.843.198 1.76.198.854 0 1.677-.198.823-.198 2.115-.718.562-.23.937-.365.375-.135.709-.24.958-.291 1.75.313.791.604.812 1.604 0 1.583-.615 2.948-.614 1.364-1.697 2.375-1.084 1.01-2.542 1.594Q11.688 18 10 18Z"/></svg>