<svg xmlns="http://www.w3.org/2000/svg" height="20" width="20"><path d="M9.938 18q-1.646 0-3.105-.625-1.458-.625-2.552-1.719-1.093-1.094-1.719-2.552-.624-1.458-.624-3.104 0-1.667.624-3.115.626-1.447 1.719-2.541Q5.375 3.25 6.833 2.625 8.292 2 9.938 2q1.666 0 3.114.625t2.542 1.719q1.094 1.094 1.718 2.541.626 1.448.626 3.115 0 1.646-.626 3.104-.624 1.458-1.718 2.552-1.094 1.094-2.542 1.719Q11.604 18 9.938 18Zm2.229-1.896q1.354-.479 2.364-1.5 1.011-1.021 1.511-2.354ZM3.542 8.812l5.25-5.208q-2 .354-3.438 1.781-1.437 1.427-1.812 3.427Zm.229 3.209 8.187-8.188q-.25-.083-.51-.156t-.531-.115L3.5 10.979q.042.271.115.531.073.261.156.511ZM5 14.208l9.167-9.146q-.167-.166-.365-.291-.198-.125-.385-.25l-8.959 8.958q.125.188.261.375.135.188.281.354Zm1.938 1.542L15.708 7q-.104-.229-.229-.427-.125-.198-.271-.385L6.125 15.25q.187.146.385.271.198.125.428.229Zm2.708.75 6.792-6.792q-.021-.291-.063-.573-.042-.281-.104-.573L8.5 16.333q.292.063.573.105.281.041.573.062Z"/></svg>