<svg xmlns="http://www.w3.org/2000/svg" height="20" width="20"><path d="M9.979 18q-1.646 0-3.104-.625-1.458-.625-2.552-1.719t-1.719-2.552Q1.979 11.646 1.979 10q0-1.667.625-3.115.625-1.447 1.719-2.541Q5.417 3.25 6.875 2.625T9.979 2q1.667 0 3.115.625 1.448.625 2.541 1.719 1.094 1.094 1.719 2.541.625 1.448.625 3.115 0 1.646-.625 3.104-.625 1.458-1.719 2.552-1.093 1.094-2.541 1.719T9.979 18Zm5.583-4.667H7.708l-.916.917h8.104q.187-.229.354-.448.167-.219.312-.469Zm.855-2.416h-6.292l-.917.916h7q.063-.229.115-.458.052-.229.094-.458ZM16.312 8.5h-3.77l-.917.917h4.833q-.02-.229-.062-.459l-.084-.458Zm-1.229-2.542L14.042 7h1.708q-.146-.292-.312-.552-.167-.26-.355-.49ZM4.875 14.042l9.146-9.146q-.833-.667-1.865-1.031Q11.125 3.5 9.979 3.5q-2.708 0-4.604 1.896T3.479 10q0 1.146.365 2.177.364 1.031 1.031 1.865ZM9.979 16.5q.813 0 1.583-.198.771-.198 1.438-.552H6.958q.667.354 1.438.552.771.198 1.583.198Z"/></svg>