<svg xmlns="http://www.w3.org/2000/svg" height="20" width="20"><path d="M7.5 18q-1.042 0-1.771-.729Q5 16.542 5 15.5q0-1.042.729-1.771Q6.458 13 7.5 13q1.042 0 1.771.729.729.729.729 1.771 0 1.042-.729 1.771Q8.542 18 7.5 18Zm3.917-3.333q-.229-1.084-.969-1.886-.74-.802-1.781-1.114L10.333 10h-4.75q-.666 0-1.125-.458Q4 9.083 4 8.417q0-.417.219-.782.219-.364.573-.593L14.5 1.167q.354-.229.771-.115.417.115.625.469.208.375.104.76-.104.386-.458.615L8 7.5h6.229q.729 0 1.25.51.521.511.521 1.24 0 .354-.135.677-.136.323-.386.573Z"/></svg>