<svg xmlns="http://www.w3.org/2000/svg" height="20" viewBox="0 -960 960 960" width="20"><path d="M240-96v-72h192v72H240Zm288 0v-72h192v72H528ZM129-216l122-648h458l122 648H129Zm87-72h528l-95-504H311l-95 504Zm264-48q60 0 102-42t42-102q0-60-42-102t-102-42q-60 0-102 42t-42 102q0 60 42 102t102 42Zm-.21-72Q450-408 429-429.21t-21-51Q408-510 429.21-531t51-21Q510-552 531-530.79t21 51Q552-450 530.79-429t-51 21Zm0-264q15.21 0 25.71-10.29t10.5-25.5q0-15.21-10.29-25.71t-25.5-10.5q-15.21 0-25.71 10.29t-10.5 25.5q0 15.21 10.29 25.71t25.5 10.5Zm.21 192Z"/></svg>