<svg xmlns="http://www.w3.org/2000/svg" height="20" width="20"><path d="M10 16.667Q8.25 16.667 7.042 15.458Q5.833 14.25 5.833 12.5Q5.833 10.979 6.771 9.854Q7.708 8.729 9.125 8.417V5L7.896 6.229L6.667 5L10 1.667L13.333 5L12.104 6.229L10.875 5V8.417Q12.292 8.729 13.229 9.854Q14.167 10.979 14.167 12.5Q14.167 14.25 12.958 15.458Q11.75 16.667 10 16.667ZM10 14.917Q11.021 14.917 11.719 14.219Q12.417 13.521 12.417 12.5Q12.417 11.479 11.719 10.781Q11.021 10.083 10 10.083Q8.979 10.083 8.281 10.781Q7.583 11.479 7.583 12.5Q7.583 13.521 8.281 14.219Q8.979 14.917 10 14.917ZM10 12.5Q10 12.5 10 12.5Q10 12.5 10 12.5Q10 12.5 10 12.5Q10 12.5 10 12.5Q10 12.5 10 12.5Q10 12.5 10 12.5Q10 12.5 10 12.5Q10 12.5 10 12.5Z"/></svg>