<svg xmlns="http://www.w3.org/2000/svg" height="20" width="20"><path d="M7.5 14.167Q5.75 14.167 4.542 12.958Q3.333 11.75 3.333 10Q3.333 8.25 4.542 7.042Q5.75 5.833 7.5 5.833Q9.021 5.833 10.146 6.771Q11.271 7.708 11.583 9.125H15L13.771 7.896L15 6.667L18.333 10L15 13.333L13.771 12.104L15 10.875H11.583Q11.271 12.292 10.146 13.229Q9.021 14.167 7.5 14.167ZM7.5 12.417Q8.521 12.417 9.219 11.719Q9.917 11.021 9.917 10Q9.917 8.979 9.219 8.281Q8.521 7.583 7.5 7.583Q6.479 7.583 5.781 8.281Q5.083 8.979 5.083 10Q5.083 11.021 5.781 11.719Q6.479 12.417 7.5 12.417ZM7.5 10Q7.5 10 7.5 10Q7.5 10 7.5 10Q7.5 10 7.5 10Q7.5 10 7.5 10Q7.5 10 7.5 10Q7.5 10 7.5 10Q7.5 10 7.5 10Q7.5 10 7.5 10Z"/></svg>