<svg xmlns="http://www.w3.org/2000/svg" height="20" width="20"><path d="M15.75 18q-1.375 0-2.312-.969-.938-.969-.938-2.343 0-.73.344-1.365t.906-1.115l2-1.708 1.979 1.708q.563.48.917 1.115.354.635.354 1.365 0 1.374-.948 2.343-.948.969-2.302.969ZM10 12q-.833 0-1.417-.583Q8 10.833 8 10q0-.833.583-1.417Q9.167 8 10 8q.833 0 1.417.583Q12 9.167 12 10q0 .833-.583 1.417Q10.833 12 10 12Zm0 4q-2.979 0-5.417-1.635Q2.146 12.729 1 10q1.146-2.729 3.583-4.365Q7.021 4 10 4q2.979 0 5.417 1.635Q17.854 7.271 19 10q-.104.25-.219.469-.114.219-.239.448l-2.813-2.375-2.25 1.916q.021-.104.021-.218V10q0-1.458-1.021-2.479Q11.458 6.5 10 6.5q-1.458 0-2.479 1.021Q6.5 8.542 6.5 10q0 1.458 1.021 2.479Q8.542 13.5 10 13.5q.333 0 .635-.062.303-.063.594-.167-.229.625-.239 1.302-.011.677.156 1.365-.292.041-.573.052-.281.01-.573.01Z"/></svg>