<svg xmlns="http://www.w3.org/2000/svg" height="20" viewBox="0 96 960 960" width="20"><path d="M648.242 888Q708 888 750 845.829 792 803.657 792 744v-48H504v48q0 59.657 42.242 101.829Q588.485 888 648.242 888ZM506 624h106V508q-42 11-70.5 42T506 624Zm178 0h106q-7-43-35.5-74T684 508v116Zm-36 336q-91 0-153.5-62.5T432 744v-96q0-91 62.5-153.5T648 432q91 0 153.5 62.5T864 648v96q0 91-62.5 153.5T648 960ZM168 792V360v432Zm-72 72V288h768v169q-16-17-34-32t-38-27v-38H168v432h196q3 19 8.37 36.966Q377.739 846.932 386 864H96Z"/></svg>