<svg xmlns="http://www.w3.org/2000/svg" height="20" viewBox="0 -960 960 960" width="20"><path d="m134-135-40-41 146-144q-27-30-48.5-63.5T154-452h58.38Q226-426 242-402t36.21 47q30.79-35 54.29-74t37.5-81H48v-57h202.22v-57H308v57.5h201v57.5h-84q-16 51-42.5 98.5T318-321q14 17 34.5 38t37.5 35l-22.42 59Q351-205 325.5-230.5T278-279L134-135Zm226 87 129.6-346H552L682-48h-59.67l-31.77-88H451l-30.65 88H360Zm109-139h104l-52-148-52 148Zm131-353h167v-72h-56v16h-55v-104h55v17h56v-73H600v216Zm264 108H576v-192H440v-76h57v17h56v-73H384v132h-24v-48h-72v-192h576v432Z"/></svg>