<svg xmlns="http://www.w3.org/2000/svg" height="20" width="20"><path d="M14 16q.167 0 .292-.125.125-.125.125-.292 0-.166-.125-.291-.125-.125-.292-.125-.167 0-.292.125-.125.125-.125.291 0 .167.125.292.125.125.292.125Zm-.292-1.271h.604v-.125q0-.229.073-.354.073-.125.24-.271.271-.25.396-.469.125-.218.125-.448 0-.437-.292-.75Q14.562 12 14 12q-.396 0-.708.229-.313.229-.459.604l.563.229q.042-.208.208-.354.167-.146.396-.146t.385.126q.157.124.157.395 0 .125-.084.25-.083.125-.25.271-.146.125-.25.24-.104.114-.166.218-.042.105-.063.198-.021.094-.021.365ZM14 18q-1.667 0-2.833-1.167Q10 15.667 10 14q0-1.667 1.167-2.833Q12.333 10 14 10q1.667 0 2.833 1.167Q18 12.333 18 14q0 1.667-1.167 2.833Q15.667 18 14 18ZM10 7h3.5L10 3.5 13.5 7 10 3.5ZM3 18V2h8l4 4v2.583q-.25-.041-.49-.062-.239-.021-.489-.021-1.292 0-2.396.531-1.104.531-1.875 1.469H6V12h2.875q-.146.354-.229.729-.084.375-.125.771H6V15h2.583q.167.875.584 1.635.416.761 1.062 1.365Z"/></svg>