<svg xmlns="http://www.w3.org/2000/svg" height="20" viewBox="0 -960 960 960" width="20"><path d="M480.21-480q-15.21 0-25.71-10.29t-10.5-25.5q0-15.21 10.29-25.71t25.5-10.5q15.21 0 25.71 10.29t10.5 25.5q0 15.21-10.29 25.71t-25.5 10.5ZM411-288l-46 46q26 13 55 19.5t60 6.5q31 0 60-6.5t55-19.5l-46-46H411Zm69-456q-54 0-102.13 20.9-48.14 20.9-84 57Q258-630 237-582.2q-21 47.8-21 102.16 0 59.04 23.62 110.08T304-283l51-51q-31-26-49-63.98t-18-82.21Q288-560 344.23-616q56.22-56 136-56Q560-672 616-615.88q56 56.12 56 135.75Q672-436 654-398q-18 38-49 64l51 51q40.76-35.82 64.38-86.72Q744-420.62 744-480q0-54.38-21-102.19-21-47.81-56.87-83.91-35.86-36.1-84-57Q534-744 480-744Zm0 144q-50 0-85 35t-35 85q0 50 35 85t85 35q50 0 85-35t35-85q0-50-35-85t-85-35Zm0 456q-70 0-131.13-26.6-61.14-26.6-106.4-71.87-45.27-45.26-71.87-106.4Q144-410 144-480t26.6-131.13q26.6-61.14 71.87-106.4 45.26-45.27 106.4-71.87Q410-816 480-816t131.13 26.6q61.14 26.6 106.4 71.87 45.27 45.26 71.87 106.4Q816-550 816-480t-26.6 131.13q-26.6 61.14-71.87 106.4-45.26 45.27-106.4 71.87Q550-144 480-144Z"/></svg>