<svg xmlns="http://www.w3.org/2000/svg" height="20" width="20"><path d="M10.5 5.5H14V4h-3.5Zm-6.5 9q.417 0 .708-.292Q5 13.917 5 13.5t-.292-.708Q4.417 12.5 4 12.5t-.708.292Q3 13.083 3 13.5t.292.708q.291.292.708.292Zm6 2.5q-1.312 0-2.49-.354-1.177-.354-2.218-1-.292.166-.615.26T4 16q-1.042 0-1.771-.729Q1.5 14.542 1.5 13.5q0-.438.146-.833.146-.396.396-.709-.313-.666-.511-1.385t-.26-1.49l1.5-.145q.062.562.198 1.104.135.541.364 1.041.167-.041.334-.062Q3.833 11 4 11q1.042 0 1.771.729.729.729.729 1.771 0 .271-.052.51-.052.24-.156.469.666.396 1.416.646.75.25 1.542.333V11q0-.208-.146-.354T8.75 10.5q-1.354 0-2.302-.948T5.5 7.25q0-1.354.948-2.302T8.75 4H9V2.5h6.5V4H17v1.5h-1.5V7H9V5.5h-.25q-.729 0-1.24.51Q7 6.521 7 7.25t.51 1.24Q8.021 9 8.75 9q.833 0 1.417.583.583.584.583 1.417v4.458q1.708-.166 3.125-1.073 1.417-.906 2.292-2.323l-.75-.374.666-1.355.729.375q.167-.416.261-.854.094-.437.135-.916l1.5.145q-.041.605-.166 1.188t-.334 1.125l.854.437-.645 1.355-.855-.438q-1.145 1.938-3.156 3.094Q12.396 17 10 17Zm.5-11.5V4v1.5Zm-6.5 8Z"/></svg>