<svg xmlns="http://www.w3.org/2000/svg" height="20" viewBox="0 96 960 960" width="20"><path d="M544 538Zm-64 38Zm288-164v350L335 329l145-83 288 166ZM192 740.339V412l79-45 209 209 209 209-209 119-288-163.661ZM518 512Zm-74 84Zm126-32Zm-54 48ZM389 383l129 129 136-82-174-100-91 53Zm55 419V596L264 488v211l180 103Zm252-112V489l-126 75 126 126ZM516 802l121-69-121-121v190Zm287 198-40-40h-91v-72h27v8L154 351h14v33H96v-91l-40-40 51-50 746 746-50 51Zm61-232v90l-72-72v-18h72ZM288 192v72h-18l-72-72h90Zm0 768H96V768h72v120h120v72Zm504-576V264H672v-72h192v192h-72Z"/></svg>