<svg xmlns="http://www.w3.org/2000/svg" height="20" viewBox="0 96 960 960" width="20"><path d="M480 672q-40 0-68-28t-28-68q0-40 28-68t68-28q40 0 68 28t28 68q0 40-28 68t-68 28Zm0 192q-142.596 0-259.798-78.5T48 576q55-131 172.202-209.5T480 288q135.345 0 247.172 70.5Q839 429 899 548h-82q-54-88-143.5-138T480 360q-112 0-207 58T127 576q51 100 146 158t207 58q25 0 49-3t47-9v74q-23 5-47 7.5t-49 2.5Zm0-120q26.54 0 51.27-8Q556 728 576 714q2-44 21-77t51-55.154V576q0-70-49-119t-119-49q-70 0-119 49t-49 119q0 70 49 119t119 49Zm-8-168Zm176 336V720h48v-48q0-29.7 21.212-50.85 21.213-21.15 51-21.15Q798 600 819 621.15q21 21.15 21 50.85v48h48v192H648Zm84-192h72v-48q0-15.3-10.289-25.65-10.29-10.35-25.5-10.35Q753 636 742.5 646.35 732 656.7 732 672v48Z"/></svg>