<svg xmlns="http://www.w3.org/2000/svg" height="20" width="20"><path d="M14.5 14v-1.5H16V14Zm0-3V9.5H17V11Zm0-3V6.5H18V8ZM6 18l-1-4q-.917-.688-1.458-1.719Q3 11.25 3 10q0-1.25.552-2.281Q4.104 6.688 5.042 6L6 2h4l.958 4q.938.688 1.49 1.719Q13 8.75 13 10q0 1.25-.542 2.281Q11.917 13.312 11 14l-1 4Zm2-4.5q1.458 0 2.479-1.021Q11.5 11.458 11.5 10q0-1.458-1.021-2.479Q9.458 6.5 8 6.5q-1.458 0-2.479 1.021Q4.5 8.542 4.5 10q0 1.458 1.021 2.479Q6.542 13.5 8 13.5ZM6.771 5.167q.291-.084.604-.125Q7.688 5 8 5t.615.042q.302.041.593.125L8.812 3.5H7.188ZM7.188 16.5h1.624l.438-1.667q-.292.084-.604.125Q8.333 15 8 15t-.635-.042q-.303-.041-.594-.125Zm-.417-13h2.437-2.437Zm.417 13h-.417H9.25h-.438Z"/></svg>