<svg xmlns="http://www.w3.org/2000/svg" height="20" width="20"><path d="M8 11V8.5h1V11Zm1.5 0V9h1v2Zm1.5 0V9.5h1V11Zm-3 7-1-4q-.917-.688-1.458-1.719Q5 11.25 5 10q0-1.25.552-2.281Q6.104 6.688 7.042 6L8 2h4l.958 4q.938.688 1.49 1.719Q15 8.75 15 10q0 1.25-.542 2.281Q13.917 13.312 13 14l-1 4Zm2-4.5q1.458 0 2.479-1.021Q13.5 11.458 13.5 10q0-1.458-1.021-2.479Q11.458 6.5 10 6.5q-1.458 0-2.479 1.021Q6.5 8.542 6.5 10q0 1.458 1.021 2.479Q8.542 13.5 10 13.5ZM8.771 5.167q.291-.084.604-.125Q9.688 5 10 5t.615.042q.302.041.593.125L10.812 3.5H9.188ZM9.188 16.5h1.624l.438-1.667q-.292.084-.604.125Q10.333 15 10 15t-.635-.042q-.303-.041-.594-.125Zm-.417-13h2.437-2.437Zm.417 13h-.417 2.479-.438Z"/></svg>