<svg xmlns="http://www.w3.org/2000/svg" height="20" width="20"><path d="M12.125 16.5H5.5v-8h9v3.292q-1.104.437-1.802 1.437T12 15.5q0 .271.031.51.031.24.094.49ZM7.5 7h5V5q0-1.042-.729-1.771Q11.042 2.5 10 2.5q-1.042 0-1.771.729Q7.5 3.958 7.5 5Zm-2 11q-.625 0-1.062-.438Q4 17.125 4 16.5v-8q0-.625.438-1.062Q4.875 7 5.5 7H6V5q0-1.667 1.167-2.833Q8.333 1 10 1q1.667 0 2.833 1.167Q14 3.333 14 5v2h.5q.625 0 1.062.438Q16 7.875 16 8.5v3q-.396 0-.771.073t-.729.219V8.5h-9v8h6.625q.104.417.292.792.187.375.458.708ZM16 18q-.833 0-1.417-.583Q14 16.833 14 16q0-.375.135-.719.136-.343.365-.614L16 13l1.5 1.667q.229.271.365.614.135.344.135.719 0 .833-.583 1.417Q16.833 18 16 18Zm-6-4q.625 0 1.062-.438.438-.437.438-1.062t-.438-1.062Q10.625 11 10 11t-1.062.438Q8.5 11.875 8.5 12.5t.438 1.062Q9.375 14 10 14Z"/></svg>