<svg xmlns="http://www.w3.org/2000/svg" height="20" width="20"><path d="M7.833 16.5h4.334l.75-6.25q-.292-.167-.511-.427-.218-.261-.344-.573H7.938q-.105.312-.323.573-.219.26-.511.427ZM7.583 6l-.312.896q.229.166.375.385t.25.469h4.187q.105-.25.261-.469.156-.219.385-.385L12.417 6ZM6.521 18 5.5 9.5l.875-.583q.104-.063.167-.177.062-.115.062-.24 0-.125-.062-.24-.063-.114-.167-.177L5.5 7.5l1-3h2.75v-1H8V2h4v1.5h-1.25v1h2.75l.979 2.979-.875.583q-.104.063-.166.178-.063.114-.063.239 0 .125.063.24.062.114.166.177l.875.583L13.5 18Zm3.5-8.75ZM10 7.75Z"/></svg>