<svg xmlns="http://www.w3.org/2000/svg" height="20" viewBox="0 96 960 960" width="20"><path d="M492 1008q-25 0-42.5-17T432 949q0-12 5-23t13-19l42-43 42 43q8 8 13 19t5 23q0 25-17.5 42t-42.5 17Zm-138-60-42-42 114-114 42 42-114 114Zm258-60-60-60 60-60 60 60-60 60Zm-348 0-60-60 60-60 60 60-60 60Zm31-168q-85 0-142-61.275T96 511q0-77 52.408-132.57Q200.817 322.859 278 313q30-56 84.5-88.5T479.574 192q85.329 0 148.378 54.5Q691 301 705 384q67 2 113 52t46 116.191q0 69.921-49 118.865Q766 720 696 720H295Z"/></svg>