<svg xmlns="http://www.w3.org/2000/svg" height="20" viewBox="0 96 960 960" width="20"><path d="M720 912q9.6 0 16.8-7.2 7.2-7.2 7.2-16.8 0-9.6-7.2-16.8-7.2-7.2-16.8-7.2-9.6 0-16.8 7.2-7.2 7.2-7.2 16.8 0 9.6 7.2 16.8 7.2 7.2 16.8 7.2Zm-24-96h48v-96h-48v96Zm-528 24V408v432Zm240-504h144v-72H408v72ZM96 912V336h240V192h288v144h240v259q-17-11-34.5-19.5T792 562V408H168v432h289q2 18.934 6 36.967Q467 895 474 912H96Zm623.774 96Q640 1008 584 951.774t-56-136Q528 736 584.226 680t136-56Q800 624 856 680.226t56 136Q912 896 855.774 952t-136 56Z"/></svg>