<svg xmlns="http://www.w3.org/2000/svg" height="20" width="20"><path d="M11 9.5h2q.208 0 .354-.146T13.5 9V6q0-.208-.146-.354T13 5.5h-2q-.208 0-.354.146T10.5 6v3q0 .208.146.354T11 9.5Zm.5-1v-2h1v2Zm-4.5 3h.667V13q0 .208.145.354.146.146.355.146.208 0 .354-.146T8.667 13v-1.5h.666V14q0 .208.146.354t.354.146q.209 0 .355-.146.145-.146.145-.354v-3q0-.208-.145-.354-.146-.146-.355-.146H6.5q-.208 0-.354.146T6 11v3q0 .208.146.354t.354.146q.208 0 .354-.146T7 14Zm5 2h1.5q.208 0 .354-.146T14 13v-2q0-.208-.146-.354T13.5 10.5h-1.75q-.312 0-.531.219-.219.219-.219.531V14q0 .208.146.354t.354.146q.208 0 .354-.146T12 14Zm0-1v-1h1v1ZM4.5 17q-.625 0-1.062-.438Q3 16.125 3 15.5v-11q0-.625.438-1.062Q3.875 3 4.5 3h11q.625 0 1.062.438Q17 3.875 17 4.5v11q0 .625-.438 1.062Q16.125 17 15.5 17Zm4-9v.5H7q-.208 0-.354.146T6.5 9q0 .208.146.354T7 9.5h2q.208 0 .354-.146T9.5 9V7.5q0-.208-.146-.354T9 7H7.5v-.5H9q.208 0 .354-.146T9.5 6q0-.208-.146-.354T9 5.5H7.25q-.312 0-.531.219-.219.219-.219.531v1q0 .312.219.531Q6.938 8 7.25 8Z"/></svg>