<svg xmlns="http://www.w3.org/2000/svg" height="20" viewBox="0 -960 960 960" width="20"><path d="M480.496-276Q451-276 429.5-296 408-316 408-345v-90q0-29 21.5-49t50.996-20q29.495 0 50.5 20Q552-464 552-435v90q0 29-21.004 49-21.005 20-50.5 20Zm.004 48q41.5 0 73-24t42.5-66q1.667-8.25 8.333-13.125Q611-336 619-336q12 0 19 9t4.091 20.2Q629-258 592-224t-88 42v62q0 10.4-6.8 17.2Q490.4-96 480-96q-10.4 0-17.2-6.8-6.8-6.8-6.8-17.2v-62q-51-8-87.5-42t-50.409-82.8Q315-318 322-327t19-9q8 0 14.667 4.875Q362.333-326.25 364-318q11 42 43 66t73.5 24ZM84-384q-15.3 0-25.65-10.35Q48-404.7 48-420v-32q0-25 14-46t38-33q45-23 92-34t96-11q25.967 0 50.311 3 24.345 3 48.689 9 8 2 8.5 10t-7.198 11.75Q345-522 313.5-484.5 282-447 271-400.322q-2 7.322-7 11.822-5 4.5-12 4.5H84Zm624 0q-7 0-12-4.5t-7-11.822Q678-447 646.5-484.5t-74.802-57.75Q564-546 564.5-554t8.5-10q24.344-6 48.688-9 24.345-3 50.312-3 49 0 96 11t92 34q24 12 38 33t14 46v32q0 15.3-10.35 25.65Q891.3-384 876-384H708ZM288-624q-50 0-85-35t-35-85q0-50 35-85t85-35q50 0 85 35t35 85q0 50-35 85t-85 35Zm384 0q-50 0-85-35t-35-85q0-50 35-85t85-35q50 0 85 35t35 85q0 50-35 85t-85 35Z"/></svg>