<svg xmlns="http://www.w3.org/2000/svg" height="20" viewBox="0 -960 960 960" width="20"><path d="M143-144q-31.957 0-47.478-27.5Q80-199 97-226l337-561q7.784-13 19.892-19.5T480-813q14 0 26.108 6.5T526-787l337 561q17 27.333 1.5 54.667Q849-144 817-144H143Zm32-72h610L480-724 175-216Zm269-132v48q0 15.3 10.289 25.65 10.29 10.35 25.5 10.35Q495-264 505.5-274.35 516-284.7 516-300v-48h48q15.3 0 25.65-10.289 10.35-10.29 10.35-25.5Q600-399 589.65-409.5 579.3-420 564-420h-48v-48q0-15.3-10.289-25.65-10.29-10.35-25.5-10.35Q465-504 454.5-493.65 444-483.3 444-468v48h-48q-15.3 0-25.65 10.289-10.35 10.29-10.35 25.5Q360-369 370.35-358.5 380.7-348 396-348h48Zm36-36Z"/></svg>