<svg xmlns="http://www.w3.org/2000/svg" height="20" viewBox="0 -960 960 960" width="20"><path d="M444.252-444v72q0 15.3 10.374 25.65Q465-336 480.234-336t25.539-10.35q10.305-10.35 10.305-25.65v-72h71.688Q603-444 613.5-454.289q10.5-10.29 10.5-25.5 0-15.211-10.35-25.585T588-515.748h-72v-72.168q0-15.336-10.35-25.71T480-624q-15.3 0-25.65 10.374Q444-603.252 444-587.916v72.168h-72q-15.3 0-25.65 10.374Q336-495 336-480q0 15.3 10.374 25.65Q356.748-444 372.084-444h72.168ZM480-96q-16 0-28-5t-23-16L117-429q-11-11-16-23t-5-28q0-16 5-28t15.767-22.734L429-843q11-11 23-16t28-5q16 0 28 5t23 16l312 312q11 11 16 23t5 28q0 16-5 28t-16 23L530.799-116.734Q520-106 508-101t-28 5Zm0-72 312-312-312-312-312 312 312 312Zm0-312Z"/></svg>