<svg xmlns="http://www.w3.org/2000/svg" height="20" width="20"><path d="M7 11.75q.312 0 .531-.219.219-.219.219-.531 0-.312-.219-.531-.219-.219-.531-.219-.312 0-.531.219-.219.219-.219.531 0 .312.219.531.219.219.531.219Zm3 0q.312 0 .531-.219.219-.219.219-.531 0-.312-.219-.531-.219-.219-.531-.219-.312 0-.531.219-.219.219-.219.531 0 .312.219.531.219.219.531.219Zm3 0q.312 0 .531-.219.219-.219.219-.531 0-.312-.219-.531-.219-.219-.531-.219-.312 0-.531.219-.219.219-.219.531 0 .312.219.531.219.219.531.219ZM10 18q-1.458 0-2.729-.552-1.271-.552-2.219-1.5t-1.5-2.219Q3 12.458 3 11q0-1.458.552-2.729.552-1.271 1.5-2.219t2.219-1.5Q8.542 4 10 4q1.458 0 2.729.552 1.271.552 2.219 1.5t1.5 2.219Q17 9.542 17 11q0 1.458-.552 2.729-.552 1.271-1.5 2.219t-2.219 1.5Q11.458 18 10 18ZM1.938 6.458q-.23-.229-.23-.531 0-.302.23-.531l2.479-2.479q.229-.229.531-.229.302 0 .531.229.229.229.229.531 0 .302-.229.531l-2.5 2.5q-.229.229-.521.219-.291-.01-.52-.24Zm16.145 0q-.229.23-.531.23-.302 0-.531-.23l-2.479-2.479q-.23-.229-.23-.531 0-.302.23-.531.229-.229.531-.229.302 0 .531.229l2.479 2.5q.229.229.229.521 0 .291-.229.52Z"/></svg>