<svg xmlns="http://www.w3.org/2000/svg" height="20" width="20"><path d="m14.396 15.312-.458-.458q-.146-.146-.355-.146-.208 0-.354.146t-.146.354q0 .209.146.354l.792.792q.167.167.396.156.229-.01.395-.177l1.959-2.041q.146-.167.146-.365 0-.198-.167-.344-.167-.145-.354-.135-.188.01-.334.156ZM15 19q-1.667 0-2.833-1.167Q11 16.667 11 15q0-1.667 1.167-2.833Q13.333 11 15 11q1.667 0 2.833 1.167Q19 13.333 19 15q0 1.667-1.167 2.833Q16.667 19 15 19Zm-7-9L4.979 6.208q-.291-.375-.094-.791Q5.083 5 5.562 5h6.959q.229 0 .427.104.198.104.344.271l3.562 4.437q-.479-.166-1.073-.26-.593-.094-1.093-.052-2.209.125-3.698 1.719Q9.5 12.812 9.5 15H5.562q-.479 0-.677-.417-.197-.416.094-.791Z"/></svg>