<svg xmlns="http://www.w3.org/2000/svg" height="20" width="20"><path d="M15.75 18.75q-.312 0-.583-.146-.271-.146-.438-.416-2.229-.292-4.333-2.209t-3.042-4.521q-1.625.917-2.635 2.448-1.011 1.532-1.177 3.365-.042.312-.261.521Q3.062 18 2.75 18q-.312 0-.531-.24-.219-.239-.177-.572.208-2.313 1.5-4.23 1.291-1.916 3.396-2.979-.5-2.208-.094-4.166.406-1.959 1.677-3.417-.063-.292-.042-.229.021.062.021.083 0-.521.365-.885Q9.229 1 9.75 1t.885.365q.365.364.365.885t-.365.885q-.364.365-.885.365-.042 0-.083-.01-.042-.011-.084-.011-.666.792-1.041 1.865-.375 1.073-.375 2.26.375-.708.989-1.177.615-.469 1.448-.739.667-.209 1.406-.282.74-.073 1.594-.01.167-.188.406-.292Q14.25 5 14.5 5q.521 0 .885.365.365.364.365.885t-.365.885q-.364.365-.885.365-.333 0-.604-.167-.271-.166-.438-.458-.708-.042-1.354.031-.646.073-1.146.24-.77.271-1.208.771-.438.5-.583 1.271.583-.126 1.062-.157Q10.708 9 11.771 9q.167-.229.427-.365.26-.135.552-.135.521 0 .885.365.365.364.365.885t-.365.885q-.364.365-.885.365-.292 0-.552-.135-.26-.136-.427-.365-1.104 0-1.552.052-.448.052-1.031.198.229.875 1.031 1.333.802.459 2.198.542.604.042 1.302-.01.698-.053 1.427-.157.166-.333.458-.52.292-.188.646-.188.521 0 .885.365.365.364.365.885t-.365.885q-.364.365-.885.365-.229 0-.427-.073-.198-.073-.385-.239-.667.104-1.292.156-.625.052-1.167.052-.75 0-1.458-.104-.709-.104-1.313-.334.938 1.292 2.094 2.042 1.156.75 2.51.938.188-.23.428-.334.239-.104.51-.104.521 0 .885.365.365.364.365.885t-.365.885q-.364.365-.885.365Z"/></svg>