<svg xmlns="http://www.w3.org/2000/svg" height="20" width="20"><path d="m15.062 15.938-1.312-.605q-.229-.104-.229-.333 0-.229.229-.333l1.312-.605.605-1.312q.104-.229.333-.229.229 0 .333.229l.605 1.312 1.312.605q.229.104.229.333 0 .229-.229.333l-1.312.605-.605 1.312q-.104.229-.333.229-.229 0-.333-.229Zm-6.083-4.917.688 1.479q.104.229.333.229.229 0 .333-.229l.688-1.479 1.479-.688q.229-.104.229-.333 0-.229-.229-.333l-1.479-.688-.688-1.479q-.104-.229-.333-.229-.229 0-.333.229l-.688 1.479-1.479.688q-.229.104-.229.333 0 .229.229.333ZM3.5 16q-.625 0-1.062-.438Q2 15.125 2 14.5v-9q0-.625.438-1.062Q2.875 4 3.5 4h13q.625 0 1.062.438Q18 4.875 18 5.5v6.042q-.458-.271-.958-.407Q16.542 11 16 11q-1.667 0-2.833 1.167Q12 13.333 12 15q0 .25.031.5t.094.5Z"/></svg>