<svg xmlns="http://www.w3.org/2000/svg" height="20" width="20"><path d="M3.5 16q-.625 0-1.062-.438Q2 15.125 2 14.5v-9q0-.625.438-1.062Q2.875 4 3.5 4h13q.625 0 1.062.438Q18 4.875 18 5.5v4.271q0 .312-.219.531-.219.219-.531.219-.312 0-.531-.219-.219-.219-.219-.531V5.5h-13v9h7.25q.312 0 .531.219.219.219.219.531 0 .312-.219.531-.219.219-.531.219Zm11.562-.062-1.312-.605q-.229-.104-.229-.333 0-.229.229-.333l1.312-.605.605-1.312q.104-.229.333-.229.229 0 .333.229l.605 1.312 1.312.605q.229.104.229.333 0 .229-.229.333l-1.312.605-.605 1.312q-.104.229-.333.229-.229 0-.333-.229ZM3.5 14.5v-9 9-4 4Zm5.479-3.479.688 1.479q.104.229.333.229.229 0 .333-.229l.688-1.479 1.479-.688q.229-.104.229-.333 0-.229-.229-.333l-1.479-.688-.688-1.479q-.104-.229-.333-.229-.229 0-.333.229l-.688 1.479-1.479.688q-.229.104-.229.333 0 .229.229.333Z"/></svg>