<svg xmlns="http://www.w3.org/2000/svg" height="20" width="20"><path d="M9.25 2.958V1.75q0-.312.219-.531Q9.688 1 10 1q.312 0 .531.219.219.219.219.531v1.208q0 .313-.219.532-.219.218-.531.218-.312 0-.531-.218-.219-.219-.219-.532ZM5.438 4.229 4.125 2.917q-.229-.229-.229-.521 0-.292.229-.521.229-.229.521-.229.292 0 .521.229l1.312 1.313q.229.229.229.52 0 .292-.229.521-.229.229-.521.229-.291 0-.52-.229ZM3.5 18q-.208 0-.354-.146T3 17.5v-6.208q0-.146.031-.282.031-.135.073-.281l1.521-3.791q.167-.417.542-.678.375-.26.854-.26H8v-.75q0-.312.219-.531.219-.219.531-.219h1.354q-.292.562-.448 1.198Q9.5 6.333 9.5 7v.25q0 .125.021.25h-3.5L5.062 10h5.334q.292.438.656.823.365.385.781.677H4.5V15h11v-2.521q.396-.041.771-.125.375-.083.729-.229V17.5q0 .208-.146.354T16.5 18h-1q-.208 0-.354-.146T15 17.5v-1H5v1q0 .208-.146.354T4.5 18Zm4.25-4q.312 0 .531-.219.219-.219.219-.531 0-.312-.219-.531-.219-.219-.531-.219H5.875q-.167 0-.271.104-.104.104-.104.271v.75q0 .167.104.271.104.104.271.104Zm4.5 0h1.875q.167 0 .271-.104.104-.104.104-.271v-.75q0-.167-.104-.271-.104-.104-.271-.104H12.25q-.312 0-.531.219-.219.219-.219.531 0 .312.219.531.219.219.531.219ZM4.5 11.5V15v-3.5Zm9.917-4.188-.479-.458q-.146-.146-.355-.146-.208 0-.354.146t-.146.354q0 .209.146.354l.667.646q.229.23.531.23.302 0 .531-.23l1.813-1.916q.146-.167.146-.365 0-.198-.167-.344-.167-.145-.365-.145-.197 0-.343.166ZM15 3q1.667 0 2.833 1.167Q19 5.333 19 7q0 1.667-1.167 2.833Q16.667 11 15 11q-1.667 0-2.833-1.167Q11 8.667 11 7q0-1.667 1.167-2.833Q13.333 3 15 3Z"/></svg>