<svg xmlns="http://www.w3.org/2000/svg" height="20" viewBox="0 -960 960 960" width="20"><path d="m536-456 138-90q17-10.889 17-29.944Q691-595 674-606l-138-90q-18-12-37-2t-19 32v180q0 22 19 32t37-2ZM235-96q-29 4-53-14.5T154-158L96-587q-4-30.25 14.5-53.625T159-668l18-2q17-2 28 8.5t11 27.191q0 13.909-8.5 24.109Q199-600 185-598l-17 2 57 428 462-62q15.489-2 27.333 6.971Q726.178-214.057 728-199q2 15-6.919 27.037Q712.162-159.926 697-158L235-96Zm123.674-192Q326-288 306.5-307.5T287-360v-432q0-33 19.5-52.5t52.174-19.5h435.652Q827-864 846.5-844.5T866-792v432q0 33-19.5 52.5T794.326-288H358.674ZM360-360h432v-432H360v432ZM225-168Zm351-408Z"/></svg>