<svg xmlns="http://www.w3.org/2000/svg" height="20" width="20"><path d="M8.5 9.5q-.208 0-.354-.146T8 9q0-.208.146-.354T8.5 8.5h3q.208 0 .354.146T12 9q0 .208-.146.354T11.5 9.5Zm.5 2q-.208 0-.354-.146T8.5 11q0-.208.146-.354T9 10.5h2q.208 0 .354.146T11.5 11q0 .208-.146.354T11 11.5Zm.167 6.5q-.521 0-.927-.323-.407-.323-.532-.823L7 14q-.917-.688-1.458-1.719Q5 11.25 5 10q0-1.25.552-2.281Q6.104 6.688 7.042 6l.687-2.854q.125-.5.531-.823Q8.667 2 9.188 2h1.624q.521 0 .928.323.406.323.531.823L12.958 6q.938.688 1.49 1.719Q15 8.75 15 10q0 1.25-.542 2.281Q13.917 13.312 13 14l-.708 2.854q-.125.5-.532.823-.406.323-.927.323ZM10 13.5q1.458 0 2.479-1.021Q13.5 11.458 13.5 10q0-1.458-1.021-2.479Q11.458 6.5 10 6.5q-1.458 0-2.479 1.021Q6.5 8.542 6.5 10q0 1.458 1.021 2.479Q8.542 13.5 10 13.5Z"/></svg>