<svg xmlns="http://www.w3.org/2000/svg" height="20" width="20"><path d="M10 16.5q-2.708 0-4.604-1.896T3.5 10q0-2.708 1.896-4.604T10 3.5q.312 0 .635.031t.615.094q-.125.333-.188.677Q11 4.646 11 5q0 1.667 1.167 2.833Q13.333 9 15 9q.354 0 .698-.062.344-.063.677-.188.063.292.094.615T16.5 10q0 2.708-1.896 4.604T10 16.5ZM2 10q0-1.667.625-3.115.625-1.447 1.719-2.541Q5.438 3.25 6.896 2.625T10 2q.542 0 1.062.062.521.063 1.021.209-.271.291-.479.635-.208.344-.354.719-.292-.063-.615-.094T10 3.5q-2.708 0-4.604 1.896T3.5 10q0 2.708 1.896 4.604T10 16.5q2.708 0 4.604-1.896T16.5 10q0-.312-.031-.635t-.094-.615q.375-.146.719-.354t.635-.479q.146.5.209 1.021Q18 9.458 18 10q0 1.646-.625 3.104-.625 1.458-1.719 2.552t-2.541 1.719Q11.667 18 10 18q-1.646 0-3.104-.625-1.458-.625-2.552-1.719t-1.719-2.552Q2 11.646 2 10Zm13-2.5q-1.042 0-1.771-.729Q12.5 6.042 12.5 5q0-1.042.729-1.771Q13.958 2.5 15 2.5q1.042 0 1.771.729.729.729.729 1.771 0 1.042-.729 1.771Q16.042 7.5 15 7.5Z"/></svg>