<svg xmlns="http://www.w3.org/2000/svg" height="20" width="20"><path d="m4.875 10.75 1.667 1.667q.229.229.229.521 0 .291-.229.52-.23.23-.532.23-.302 0-.531-.23l-2.958-2.937q-.229-.229-.229-.521 0-.292.229-.521l2.958-2.958q.229-.229.531-.229.302 0 .532.229.229.229.229.531 0 .302-.229.531L4.875 9.25H8.25q.312 0 .531.219Q9 9.688 9 10q0 .312-.219.531-.219.219-.531.219Zm10.25 0H11.75q-.312 0-.531-.219Q11 10.312 11 10q0-.312.219-.531.219-.219.531-.219h3.375l-1.667-1.667q-.229-.229-.218-.531.01-.302.239-.531.229-.229.531-.229.302 0 .532.229l2.937 2.958q.229.229.229.521 0 .292-.229.521l-2.958 2.958q-.229.229-.521.219-.292-.01-.521-.24-.229-.229-.229-.531 0-.302.229-.531Z"/></svg>