<svg xmlns="http://www.w3.org/2000/svg" height="20" viewBox="0 -960 960 960" width="20"><path d="M480.211-432Q465-432 454.5-442.35 444-452.7 444-468v-258L291.737-573.801Q281-563 266.5-563.5 252-564 241-575t-11-25q0-14 11-25l214-214q5.4-5 11.7-7.5 6.3-2.5 13.5-2.5t13.5 2.5Q500-844 505-839l214 214q11 11 11 25t-10.522 25Q708-564 693.333-564q-14.666 0-25.333-11L516-726v258q0 15.3-10.289 25.65-10.29 10.35-25.5 10.35Zm0 192Q465-240 454.5-250.35 444-260.7 444-276v-48q0-15.3 10.289-25.65 10.29-10.35 25.5-10.35Q495-360 505.5-349.65 516-339.3 516-324v48q0 15.3-10.289 25.65-10.29 10.35-25.5 10.35Zm0 144Q465-96 454.5-106.289q-10.5-10.29-10.5-25.5Q444-147 454.289-157.5q10.29-10.5 25.5-10.5Q495-168 505.5-157.711q10.5 10.29 10.5 25.5Q516-117 505.711-106.5q-10.29 10.5-25.5 10.5Z"/></svg>