<svg xmlns="http://www.w3.org/2000/svg" height="20" viewBox="0 -960 960 960" width="20"><path d="M480.111-100q-7.111 0-13.411-2.5T455-110L241-323q-11-11-11-25.5t10.522-25.5q11.478-11 26.145-11 14.666 0 25.333 11l152 152v-259q0-15.3 10.289-25.65 10.29-10.35 25.5-10.35Q495-517 505.5-506.65 516-496.3 516-481v259l152.263-152.263Q679-385 693.667-385q14.666 0 25.333 11 11 11 11 25.5T719-323L505-110q-5.333 5-11.556 7.5-6.222 2.5-13.333 2.5Zm.1-489Q465-589 454.5-599.35 444-609.7 444-625v-48q0-15.3 10.289-25.65 10.29-10.35 25.5-10.35Q495-709 505.5-698.65 516-688.3 516-673v48q0 15.3-10.289 25.65-10.29 10.35-25.5 10.35Zm0-192Q465-781 454.5-791.289q-10.5-10.29-10.5-25.5Q444-832 454.289-842.5q10.29-10.5 25.5-10.5Q495-853 505.5-842.711q10.5 10.29 10.5 25.5Q516-802 505.711-791.5q-10.29 10.5-25.5 10.5Z"/></svg>