<svg xmlns="http://www.w3.org/2000/svg" height="20" width="20"><path d="m4.854 10.75 1.667 1.688q.229.229.229.52 0 .292-.229.521-.229.229-.521.229-.292 0-.521-.229l-2.958-2.958q-.229-.229-.229-.521 0-.292.229-.521l2.958-2.958q.229-.229.521-.219.292.01.521.24.229.229.229.521 0 .291-.229.52L4.854 9.25h10.271l-1.667-1.667q-.229-.229-.229-.531 0-.302.229-.531.23-.229.532-.229.302 0 .531.229l2.958 2.958q.229.229.229.521 0 .292-.229.521l-2.958 2.958q-.229.229-.521.229-.292 0-.521-.229-.229-.229-.239-.531-.011-.302.218-.531l1.667-1.667Z"/></svg>