<svg xmlns="http://www.w3.org/2000/svg" height="20" width="20"><path d="M8.75 9.75q.312 0 .531-.219Q9.5 9.312 9.5 9q0-.312-.219-.531-.219-.219-.531-.219-.312 0-.531.219Q8 8.688 8 9q0 .312.219.531.219.219.531.219Zm-2.5 0q.312 0 .531-.219Q7 9.312 7 9q0-.312-.219-.531-.219-.219-.531-.219-.312 0-.531.219Q5.5 8.688 5.5 9q0 .312.219.531.219.219.531.219Zm5 0q.312 0 .531-.219Q12 9.312 12 9q0-.312-.219-.531-.219-.219-.531-.219-.312 0-.531.219-.219.219-.219.531 0 .312.219.531.219.219.531.219Zm2.5 0q.312 0 .531-.219.219-.219.219-.531 0-.312-.219-.531-.219-.219-.531-.219-.312 0-.531.219Q13 8.688 13 9q0 .312.219.531.219.219.531.219ZM3.5 12.5h13v-7h-13v7Zm6.521 3.5q-2.146 0-3.583-.26Q5 15.479 5 15v-1H3.5q-.625 0-1.062-.438Q2 13.125 2 12.5v-7q0-.625.438-1.062Q2.875 4 3.5 4h13q.625 0 1.062.438Q18 4.875 18 5.5v7q0 .625-.438 1.062Q17.125 14 16.5 14H15v1q0 .479-1.427.74-1.427.26-3.552.26ZM3.5 12.5v-7 7Z"/></svg>