<svg xmlns="http://www.w3.org/2000/svg" height="20" width="20"><path d="M4.5 15.5q-.625 0-1.062-.438Q3 14.625 3 14V6q0-.625.438-1.062Q3.875 4.5 4.5 4.5h7.75q.354 0 .667.177.312.177.541.448l2.896 4q.292.396.292.875t-.292.875l-2.896 4q-.229.271-.541.448-.313.177-.667.177Zm0-1.5h7.75l2.896-4-2.896-4H4.5v8Zm0-4v4-8Zm3.562.938.605 1.312q.104.229.333.229.229 0 .333-.229l.605-1.312 1.312-.605q.229-.104.229-.333 0-.229-.229-.333l-1.312-.605-.605-1.312Q9.229 7.521 9 7.521q-.229 0-.333.229l-.605 1.312-1.312.605q-.229.104-.229.333 0 .229.229.333Z"/></svg>