<svg xmlns="http://www.w3.org/2000/svg" height="20" width="20"><path d="M4.5 15.5v-11q0-.625.438-1.062Q5.375 3 6 3h5q.417 0 .708.292Q12 3.583 12 4h2q.625 0 1.062.438.438.437.438 1.062v4.25q0 .312-.219.531-.219.219-.531.219-.312 0-.531-.219Q14 10.062 14 9.75V5.5h-2v10.75q0 .312-.219.531-.219.219-.531.219h-7.5q-.312 0-.531-.219Q3 16.562 3 16.25q0-.312.219-.531.219-.219.531-.219ZM9 10.75q.312 0 .531-.219.219-.219.219-.531 0-.312-.219-.531Q9.312 9.25 9 9.25q-.312 0-.531.219-.219.219-.219.531 0 .312.219.531.219.219.531.219ZM6 15.5h4.5v-11H6Zm9.062.438.605 1.312q.104.229.333.229.229 0 .333-.229l.605-1.312 1.312-.605q.229-.104.229-.333 0-.229-.229-.333l-1.312-.605-.605-1.312q-.104-.229-.333-.229-.229 0-.333.229l-.605 1.312-1.312.605q-.229.104-.229.333 0 .229.229.333ZM6 15.5v-11 11Z"/></svg>