<svg xmlns="http://www.w3.org/2000/svg" height="20" width="20"><path d="M8.5 12.5q-.312 0-.531-.219-.219-.219-.219-.531v-3.5q0-.312.219-.531.219-.219.531-.219.312 0 .531.219.219.219.219.531v3.5q0 .312-.219.531-.219.219-.531.219Zm3 0q-.312 0-.531-.219-.219-.219-.219-.531v-3.5q0-.312.219-.531.219-.219.531-.219.312 0 .531.219.219.219.219.531v3.5q0 .312-.219.531-.219.219-.531.219ZM10 18.958q-2.271 0-4.24-1.083-1.968-1.083-3.26-2.958v1.541q0 .313-.219.532-.219.218-.531.218-.312 0-.531-.218Q1 16.771 1 16.458v-3.25q0-.312.219-.531.219-.219.531-.219H5q.312 0 .531.219.219.219.219.531 0 .313-.219.532-.219.218-.531.218H3.688q1.062 1.625 2.718 2.563 1.656.937 3.594.937 2.208 0 4.021-1.166 1.812-1.167 2.75-3.125.167-.334.437-.521.271-.188.625-.104.334.083.438.385.104.302-.042.656-1.062 2.459-3.281 3.917-2.219 1.458-4.948 1.458Zm-8.208-9.75q-.334 0-.521-.229-.188-.229-.125-.562.187-1.021.531-1.875.344-.854.948-1.709.208-.291.521-.333.312-.042.542.188.25.25.26.572.01.323-.198.615-.417.604-.677 1.219-.261.614-.406 1.344-.063.354-.292.562-.229.208-.583.208Zm4.104-5.5q-.292.188-.615.167-.323-.021-.552-.25-.229-.229-.187-.531.041-.302.312-.49.834-.604 1.688-.958t1.875-.542q.354-.062.593.125.24.188.24.521 0 .354-.208.573-.209.219-.563.302-.729.167-1.344.427-.614.26-1.239.656Zm8.166-.02q-.604-.396-1.208-.646t-1.333-.417q-.354-.083-.563-.302-.208-.219-.208-.573 0-.333.24-.51.239-.178.572-.136 1.021.167 1.876.511.854.343 1.708.947.292.209.333.511.042.302-.187.552-.25.25-.584.26-.333.011-.646-.197Zm4.167 5.52q-.354 0-.594-.229-.239-.229-.323-.583-.166-.708-.406-1.302-.239-.594-.635-1.198-.209-.292-.198-.625.01-.333.26-.583.229-.23.542-.198.313.031.521.322.604.855.948 1.698.344.844.531 1.865.063.354-.125.594-.188.239-.521.239Z"/></svg>