<svg xmlns="http://www.w3.org/2000/svg" height="20" width="20"><path d="M4.5 16q-.604 0-1.052-.448Q3 15.104 3 14.5v-9q0-.625.448-1.062Q3.896 4 4.5 4h9q.625 0 1.062.438Q15 4.875 15 5.5V9l2.354-2.354q.167-.167.406-.083.24.083.24.333v6.208q0 .25-.24.334-.239.083-.406-.084L15 11v3.5q0 .604-.438 1.052Q14.125 16 13.5 16Zm3.562-5.062.605 1.312q.104.229.333.229.229 0 .333-.229l.605-1.312 1.312-.605q.229-.104.229-.333 0-.229-.229-.333l-1.312-.605-.605-1.312Q9.229 7.521 9 7.521q-.229 0-.333.229l-.605 1.312-1.312.605q-.229.104-.229.333 0 .229.229.333Z"/></svg>