<svg xmlns="http://www.w3.org/2000/svg" height="20" width="20"><path d="M4.458 15.417q-.625 0-1.062-.438-.438-.437-.438-1.062V6.083q0-.625.438-1.062.437-.438 1.062-.438h7.813q.354 0 .656.146.302.146.531.417l2.896 3.979q.292.396.292.875t-.292.875l-2.896 3.979q-.229.271-.531.417-.302.146-.656.146Zm3.604-4.479.605 1.312q.104.229.333.229.229 0 .333-.229l.605-1.312 1.312-.605q.229-.104.229-.333 0-.229-.229-.333l-1.312-.605-.605-1.312Q9.229 7.521 9 7.521q-.229 0-.333.229l-.605 1.312-1.312.605q-.229.104-.229.333 0 .229.229.333Z"/></svg>