<svg xmlns="http://www.w3.org/2000/svg" height="20" width="20"><path d="m16.625 5.917-.792-1.75-1.75-.792 1.75-.792.792-1.75.792 1.75 1.75.792-1.75.792Zm-9.479 0-.792-1.75-1.75-.792 1.75-.792.792-1.75.792 1.75 1.75.792-1.75.792Zm9.479 9.479-.792-1.75-1.75-.813 1.75-.791.792-1.75.792 1.75 1.75.791-1.75.813ZM4.354 18.062l-2.416-2.416q-.271-.271-.271-.615 0-.343.271-.614l9.25-9.25q.25-.25.614-.25.365 0 .615.25l2.395 2.395q.271.271.282.626.01.354-.261.624l-9.25 9.25q-.271.271-.614.271-.344 0-.615-.271Zm.584-1.854 5.874-5.875-1.124-1.125-5.876 5.875Z"/></svg>