<svg xmlns="http://www.w3.org/2000/svg" height="20" viewBox="0 -960 960 960" width="20"><path d="M144-192q-29.7 0-50.85-21.162Q72-234.324 72-264.04v-432.243Q72-726 93.15-747T144-768h672q29.7 0 50.85 21.162Q888-725.676 888-695.96v432.243Q888-234 866.85-213T816-192H144Zm144-240h48v24q0 10.4 6.8 17.2 6.8 6.8 17.2 6.8 10.4 0 17.2-6.8 6.8-6.8 6.8-17.2v-144q0-10.2-6.9-17.1-6.9-6.9-17.1-6.9h-96q-10.2 0-17.1 6.9-6.9 6.9-6.9 17.1v144q0 10.4 6.8 17.2 6.8 6.8 17.2 6.8 10.4 0 17.2-6.8 6.8-6.8 6.8-17.2v-24Zm0-48v-48h48v48h-48Zm216 19-31-99q-2-8-7.962-12-5.961-4-13.91-4-11.128 0-18.628 9.324Q425-557.351 429-546l46 146q2 8 8 12t14 4h13.538Q519-384 525-388t8-12l46-146q4-11.351-3-20.676Q569-576 557.333-576 549-576 543-572t-8 12l-31 99Zm168-67.062v119.689Q672-398 678.8-391q6.8 7 17.2 7 10.4 0 17.2-6.785 6.8-6.785 6.8-17.161v-143.677Q720-562 713.233-569q-6.767-7-17.116-7h-47.768Q638-576 631-569.2t-7 17.2q0 10.373 6.8 17.155 6.8 6.783 17.2 6.783h24Z"/></svg>