<svg xmlns="http://www.w3.org/2000/svg" height="20" viewBox="0 -960 960 960" width="20"><path d="M632.102-384h80.255Q726-384 735-393.137t9-22.644v-15.89Q744-442 737.2-449t-17.2-7q-9.6 0-16.8 7.2-7.2 7.2-7.2 16.8h-48v-96h48q0 10.4 6.8 17.2 6.8 6.8 17.2 6.8 10.4 0 17.2-6.851 6.8-6.85 6.8-17.328v-16.12Q744-558 734.771-567q-9.23-9-22.873-9h-80.255Q618-576 609-566.779t-9 22.853v128.295Q600-402 609.229-393q9.23 9 22.873 9ZM144-192q-29.7 0-50.85-21.162Q72-234.324 72-264.04v-432.243Q72-726 93.15-747T144-768h672q29.7 0 50.85 21.162Q888-725.676 888-695.96v432.243Q888-234 866.85-213T816-192H144Zm0-72h672v-432H144v432Zm0 0v-432 432Zm120-168h48v24q0 10.4 6.8 17.2 6.8 6.8 17.2 6.8 10.4 0 17.2-6.8 6.8-6.8 6.8-17.2v-144q0-10.2-6.9-17.1-6.9-6.9-17.1-6.9h-96q-10.2 0-17.1 6.9-6.9 6.9-6.9 17.1v144q0 10.4 6.8 17.2 6.8 6.8 17.2 6.8 10.4 0 17.2-6.8 6.8-6.8 6.8-17.2v-24Zm0-48v-48h48v48h-48Zm216 19-31-99q-2-8-7.962-12-5.961-4-13.91-4-11.128 0-18.628 9.324Q401-557.351 405-546l46 146q2 8 8 12t14 4h13.538Q495-384 501-388t8-12l46-146q4-11.351-3-20.676Q545-576 533.333-576 525-576 519-572t-8 12l-31 99Z"/></svg>