<svg xmlns="http://www.w3.org/2000/svg" height="20" width="20"><path d="M12.5 4.25q-.417 0-.708-.292-.292-.291-.292-.708t.292-.708q.291-.292.708-.292t.708.292q.292.291.292.708t-.292.708q-.291.292-.708.292Zm0 13.5q-.417 0-.708-.292-.292-.291-.292-.708t.292-.708q.291-.292.708-.292t.708.292q.292.291.292.708t-.292.708q-.291.292-.708.292ZM16 7.25q-.417 0-.708-.292Q15 6.667 15 6.25t.292-.708q.291-.292.708-.292t.708.292q.292.291.292.708t-.292.708q-.291.292-.708.292Zm0 7.5q-.417 0-.708-.292Q15 14.167 15 13.75t.292-.708q.291-.292.708-.292t.708.292q.292.291.292.708t-.292.708q-.291.292-.708.292ZM17 11q-.417 0-.708-.292Q16 10.417 16 10t.292-.708Q16.583 9 17 9t.708.292Q18 9.583 18 10t-.292.708Q17.417 11 17 11ZM2 10q0-3.125 2.083-5.396 2.084-2.271 5.125-2.562.313-.042.552.177.24.219.24.531 0 .292-.177.51-.177.219-.469.261-2.479.229-4.166 2.083Q3.5 7.458 3.5 10t1.688 4.396q1.687 1.854 4.166 2.083.292.042.469.261.177.218.177.51 0 .312-.24.531-.239.219-.552.177-3.041-.291-5.125-2.562Q2 13.125 2 10Zm8 1.5q-.625 0-1.062-.438Q8.5 10.625 8.5 10v-.198q0-.094.042-.198L7.521 8.583q-.229-.229-.219-.531.01-.302.24-.531.229-.229.531-.229.302 0 .531.229l1 1.021Q9.729 8.5 10 8.5q.625 0 1.062.438.438.437.438 1.062t-.438 1.062q-.437.438-1.062.438Z"/></svg>