<svg xmlns="http://www.w3.org/2000/svg" height="20" viewBox="0 96 960 960" width="20"><path d="m600 864-69 69q-20.933 21-50.966 21Q450 954 429 933l-69-69h-95.742q-29.806 0-51.032-21.226Q192 821.548 192 791.742V696l-69-69q-21-20.933-21-50.966Q102 546 123 525l69-69v-95.742q0-29.806 21.226-51.032Q234.452 288 264.258 288H360l69-69q20.933-21 50.966-21Q510 198 531 219l69 69h95.742q29.806 0 51.032 21.226Q768 330.452 768 360.258V456l69 69q21 20.933 21 50.966Q858 606 837 627l-69 69v95.742q0 29.806-21.226 51.032Q725.548 864 695.742 864H600ZM480 575Zm0 307 90-90h126V666l90-90-90-90V360H570l-90-90-90 90H264v126l-90 90 90 90v126h126l90 90Zm0-216 73 44q11 6 20.5-1.5T580 690l-20-81.948 63.862-55.575Q633 544 629.545 532.462 626.091 520.923 614 520l-83.832-6.653-32.968-77.941Q492.49 424 480.245 424q-12.245 0-16.974 11.406l-33.1 77.941L346 520q-12.091.923-15.545 12.462Q327 544 336.138 552.477L400 608.052 380 690q-3 11 6.5 18.5T407 710l73-44Z"/></svg>