<svg xmlns="http://www.w3.org/2000/svg" height="20" viewBox="0 96 960 960" width="20"><path d="m600 864-69 69q-20.933 21-50.966 21Q450 954 429 933l-69-69h-95.742q-29.806 0-51.032-21.226Q192 821.548 192 791.742V696l-69-69q-21-20.933-21-50.966Q102 546 123 525l69-69v-95.742q0-29.806 21.226-51.032Q234.452 288 264.258 288H360l69-69q20.933-21 50.966-21Q510 198 531 219l69 69h95.742q29.806 0 51.032 21.226Q768 330.452 768 360.258V456l69 69q21 20.933 21 50.966Q858 606 837 627l-69 69v95.742q0 29.806-21.226 51.032Q725.548 864 695.742 864H600ZM480.135 666l72.135 44q10.73 6 20.23-1t6.5-19l-19-81.948 64.862-55.575Q634 544 630.545 532.462 627.091 520.923 615 520l-84.389-6.575-33.186-78.019Q492.684 424 480.358 424q-12.327 0-17.087 11.406l-33.358 78.279-84.825 6.597q-12.179.915-15.633 12.353-3.455 11.438 5.683 19.842L400 608.052 381 690q-3 12 6.333 19 9.334 7 20.667 1l72.135-44Z"/></svg>