<svg xmlns="http://www.w3.org/2000/svg" height="20" width="20"><path d="M12.75 8v5.354q0 .25.24.334.239.083.406-.084l2.166-2.166q.23-.23.334-.5.104-.271.104-.563V5.5q0-.625-.438-1.062Q15.125 4 14.5 4H9.625q-.292 0-.563.104-.27.104-.5.334L6.396 6.604q-.167.167-.084.406.084.24.334.24H12q.312 0 .531.219.219.219.219.531ZM8 12.75v5.354q0 .25.24.334.239.083.406-.084l2.166-2.166q.23-.23.334-.5.104-.271.104-.563V10.25q0-.625-.438-1.062-.437-.438-1.062-.438H4.875q-.292 0-.563.104-.27.104-.5.334l-2.166 2.166q-.167.167-.084.406.084.24.334.24H7.25q.312 0 .531.219.219.219.219.531Z"/></svg>