<svg xmlns="http://www.w3.org/2000/svg" height="20" width="20"><path d="M7 14q.417 0 .708-.292Q8 13.417 8 13t-.292-.708Q7.417 12 7 12t-.708.292Q6 12.583 6 13t.292.708Q6.583 14 7 14Zm0-6q.417 0 .708-.292Q8 7.417 8 7t-.292-.708Q7.417 6 7 6t-.708.292Q6 6.583 6 7t.292.708Q6.583 8 7 8Zm6 6q.417 0 .708-.292Q14 13.417 14 13t-.292-.708Q13.417 12 13 12t-.708.292Q12 12.583 12 13t.292.708Q12.583 14 13 14Zm0-6q.417 0 .708-.292Q14 7.417 14 7t-.292-.708Q13.417 6 13 6t-.708.292Q12 6.583 12 7t.292.708Q12.583 8 13 8Zm-8.5 9q-.625 0-1.062-.438Q3 16.125 3 15.5v-11q0-.625.438-1.062Q3.875 3 4.5 3h11q.625 0 1.062.438Q17 3.875 17 4.5v11q0 .625-.438 1.062Q16.125 17 15.5 17Z"/></svg>