<svg xmlns="http://www.w3.org/2000/svg" height="20" width="20"><path d="M3.5 6.562V9.25q0 .312-.219.531Q3.062 10 2.75 10q-.312 0-.531-.219Q2 9.562 2 9.25v-4.5q0-.312.219-.531Q2.438 4 2.75 4h4.5q.312 0 .531.219Q8 4.438 8 4.75q0 .312-.219.531-.219.219-.531.219H4.562L8 8.958q.229.23.229.521 0 .292-.229.521-.229.229-.521.229-.291 0-.521-.229ZM3.5 16q-.625 0-1.062-.438Q2 15.125 2 14.5v-2.25q0-.312.219-.531.219-.219.531-.219.312 0 .531.219.219.219.219.531v2.25h6.25q.312 0 .531.219.219.219.219.531 0 .312-.219.531-.219.219-.531.219Zm13.75-5.5q-.312 0-.531-.219-.219-.219-.219-.531V5.5h-6.25q-.312 0-.531-.219Q9.5 5.062 9.5 4.75q0-.312.219-.531Q9.938 4 10.25 4h6.25q.625 0 1.062.438Q18 4.875 18 5.5v4.25q0 .312-.219.531-.219.219-.531.219Zm-4.5 5.5q-.312 0-.531-.219Q12 15.562 12 15.25v-2.5q0-.312.219-.531.219-.219.531-.219h4.5q.312 0 .531.219.219.219.219.531v2.5q0 .312-.219.531-.219.219-.531.219Z"/></svg>