<svg xmlns="http://www.w3.org/2000/svg" height="20" width="20"><path d="M2.25 12.5q-.312 0-.531-.219-.219-.219-.219-.531 0-.312.219-.531Q1.938 11 2.25 11h1.5q.312 0 .531.219.219.219.219.531 0 .312-.219.531-.219.219-.531.219Zm4.042-4.479q-.23.229-.532.229-.302 0-.531-.229L3.812 6.604q-.229-.229-.229-.521 0-.291.229-.521.23-.229.532-.229.302 0 .531.229l1.417 1.417q.229.229.229.521 0 .292-.229.521ZM7.25 15q-.521 0-.885-.365Q6 14.271 6 13.75t.365-.885q.364-.365.885-.365h5.5q.521 0 .885.365.365.364.365.885t-.365.885q-.364.365-.885.365ZM10 6.5q-.312 0-.531-.219-.219-.219-.219-.531V3.083q0-.312.219-.531.219-.219.531-.219.312 0 .531.219.219.219.219.531V5.75q0 .312-.219.531-.219.219-.531.219Zm3.729 1.521q-.229-.229-.229-.531 0-.302.229-.532l1.417-1.416q.229-.23.531-.23.302 0 .531.23.23.229.23.531 0 .302-.23.531l-1.437 1.438q-.229.229-.521.218-.292-.01-.521-.239ZM16.25 12.5q-.312 0-.531-.219-.219-.219-.219-.531 0-.312.219-.531.219-.219.531-.219h1.5q.312 0 .531.219.219.219.219.531 0 .312-.219.531-.219.219-.531.219Z"/></svg>