<svg xmlns="http://www.w3.org/2000/svg" height="20" width="20"><path d="M2.75 12.5q-.312 0-.531-.219Q2 12.062 2 11.75q0-.312.219-.531Q2.438 11 2.75 11h1q.312 0 .531.219.219.219.219.531 0 .312-.219.531-.219.219-.531.219Zm3.542-4.458q-.23.229-.532.229-.302 0-.531-.229L4.5 7.333q-.229-.229-.219-.531.011-.302.24-.531.229-.229.531-.229.302 0 .531.229L6.292 7q.229.229.229.521 0 .291-.229.521ZM7.25 15q-.521 0-.885-.365Q6 14.271 6 13.75t.365-.885q.364-.365.885-.365h5.5q.521 0 .885.365.365.364.365.885t-.365.885q-.364.365-.885.365ZM10 6.5q-.312 0-.531-.219-.219-.219-.219-.531v-1q0-.312.219-.531Q9.688 4 10 4q.312 0 .531.219.219.219.219.531v1q0 .312-.219.531-.219.219-.531.219Zm3.729 1.521q-.229-.229-.229-.531 0-.302.229-.532l.709-.708q.229-.229.531-.229.302 0 .531.229.229.229.229.531 0 .302-.229.531l-.729.73q-.229.229-.521.218-.292-.01-.521-.239ZM16.25 12.5q-.312 0-.531-.219-.219-.219-.219-.531 0-.312.219-.531.219-.219.531-.219h1q.312 0 .531.219.219.219.219.531 0 .312-.219.531-.219.219-.531.219Z"/></svg>