<svg xmlns="http://www.w3.org/2000/svg" height="20" viewBox="0 96 960 960" width="20"><path d="M132 912q-15.3 0-25.65-10.289Q96 891.421 96 876.211 96 861 106.35 850.5 116.7 840 132 840h696q15.3 0 25.65 10.289 10.35 10.29 10.35 25.5Q864 891 853.65 901.5 843.3 912 828 912H132Zm60-120q-20 0-34-14t-14-34V576q0-20 14-34t34-14q20 0 34 14t14 34v168q0 20-14 34t-34 14Zm192 0q-20 0-34-14t-14-34V384q0-20 14-34t34-14q20 0 34 14t14 34v360q0 20-14 34t-34 14Zm192 0q-20 0-34-14t-14-34V504q0-20 14-34t34-14q20 0 34 14t14 34v240q0 20-14 34t-34 14Zm192 0q-20 0-34-14t-14-34V288q0-20 14-34t34-14q20 0 34 14t14 34v456q0 20-14 34t-34 14Z"/></svg>