<svg xmlns="http://www.w3.org/2000/svg" height="20" width="20"><path d="M15.5 8q-.625 0-1.062-.438Q14 7.125 14 6.5t.438-1.062Q14.875 5 15.5 5t1.062.438Q17 5.875 17 6.5t-.438 1.062Q16.125 8 15.5 8Zm-11 0q-.625 0-1.062-.438Q3 7.125 3 6.5t.438-1.062Q3.875 5 4.5 5t1.062.438Q6 5.875 6 6.5t-.438 1.062Q5.125 8 4.5 8Zm3.375-1q-.208 0-.333-.167-.125-.166-.084-.375.084-.52-.052-.896-.135-.374-.531-.854-.542-.646-.74-1.239-.197-.594-.114-1.407.021-.229.187-.395.167-.167.396-.167.208 0 .344.167.135.166.094.375-.104.687.041 1.093.146.407.563.927.5.605.708 1.178.208.572.146 1.198-.042.229-.219.395Q8.104 7 7.875 7Zm2.25 0q-.208 0-.333-.167-.125-.166-.084-.375.084-.52-.052-.896-.135-.374-.531-.854-.542-.646-.74-1.239-.197-.594-.114-1.407.021-.229.187-.395.167-.167.396-.167.208 0 .334.156.124.156.083.365-.083.604.062 1.083.146.479.563.958.5.605.708 1.178.208.572.146 1.198-.042.229-.219.395-.177.167-.406.167Zm2.25 0q-.208 0-.333-.167-.125-.166-.084-.375.084-.52-.052-.896-.135-.374-.531-.854-.542-.646-.74-1.239-.197-.594-.114-1.407.021-.229.187-.395.167-.167.396-.167.208 0 .334.167.124.166.104.395-.084.709.052 1.094.135.386.552.906.5.605.708 1.178.208.572.146 1.198-.042.229-.219.395-.177.167-.406.167ZM3.479 18q-.625 0-1.052-.427Q2 17.146 2 16.521V11.75q0-.312.219-.531Q2.438 11 2.75 11H3v-.438q0-.666.417-1.114Q3.833 9 4.438 9q.312 0 .604.115.291.114.5.343l.791.896q.167.167.313.323T7 11h6q.208-.167.354-.323t.313-.323l.791-.896q.209-.229.5-.343Q15.25 9 15.562 9q.605 0 1.021.448.417.448.417 1.114V11h.25q.312 0 .531.219.219.219.219.531v4.771q0 .625-.427 1.052-.427.427-1.052.427Zm.021-4h13v-1.5h-13Zm0 2.5h13v-1h-13v1ZM10 14Zm0 1.5Zm0 0V14Z"/></svg>