<svg xmlns="http://www.w3.org/2000/svg" height="20" width="20"><path d="M5 9.625v1.813q-.25.229-.375.427-.125.197-.125.385 0 .083.01.146.011.062.052.146L5.5 13h1.667q.125 0 .218.073.094.073.136.177l.083.208 1.146-.416L9 13h2.688q.104 0 .177.042.073.041.114.125l.542.771 1.958-.48.417-.77q.042-.105.135-.146.094-.042.198-.042h.229q.021-.062.032-.125.01-.063.01-.125 0-.188-.125-.385-.125-.198-.375-.427V9.625q.979.521 1.49 1.208.51.688.51 1.417 0 .062-.01.125-.011.063-.011.125h.271l.625.833q.063.084.073.167.01.083-.031.188l-.813 2.083q-.042.104-.146.167-.104.062-.208.062h-1.854q.021.104-.031.198-.053.094-.157.135l-1.562.625q-.084.042-.271.042H8.042q-.125 0-.219-.073t-.135-.177l-.126-.333-2.395.541q-.084.021-.167 0-.083-.02-.146-.062l-2.708-2.042q-.084-.042-.115-.114Q2 14.667 2 14.562v-1.354q0-.104.042-.187.041-.083.125-.125L3 12.333v-.083q0-.729.51-1.406.511-.677 1.49-1.219Zm-1.146 5.271.938-1.042-1.23-.687-.562.375v.708Zm1.375 1.021 2.021-.438L6.729 14H6l-1.333 1.5Zm3.25.083h2.771l.604-1.292-.5-.708H9.042l-1.125.396Zm3.896 0h.458l.979-.396-.124-.896-.75.167Zm2.396-1h1.541l.542-1.333-.104-.167h-1.167ZM5.542 7.938q-.438-.584-.698-1.25-.261-.667-.261-1.396 0-.146.011-.271.01-.125.031-.271.042-.312.25-.531.208-.219.5-.219.333 0 .563.219.229.219.187.531-.021.125-.031.24-.011.114-.011.239 0 .625.292 1.167t.667 1.042q.416.541.698 1.166.281.625.281 1.292v.166q0 .084-.021.167-.042.313-.25.542-.208.229-.5.229-.354 0-.583-.219-.229-.219-.188-.531.021-.104.031-.198.011-.094.011-.198 0-.562-.323-1.021-.323-.458-.656-.895Zm2.979 0q-.438-.584-.698-1.25-.261-.667-.261-1.396 0-.146.011-.271.01-.125.031-.271.042-.312.25-.531.208-.219.5-.219.334 0 .563.219.229.219.187.531-.021.125-.031.24-.011.114-.011.239 0 .625.292 1.167t.667 1.042q.417.541.698 1.166.281.625.281 1.292v.166q0 .084-.021.167-.041.313-.25.542-.208.229-.5.229-.354 0-.583-.219-.229-.219-.188-.531.021-.104.032-.198.01-.094.01-.198 0-.562-.323-1.021-.323-.458-.656-.895Zm2.979 0q-.438-.584-.698-1.25-.26-.667-.26-1.396 0-.146.01-.271.01-.125.031-.271.042-.312.25-.531.209-.219.5-.219.334 0 .563.219.229.219.187.531-.021.125-.031.24-.01.114-.01.239 0 .625.291 1.167.292.542.667 1.042.417.541.698 1.166.281.625.281 1.292v.166q0 .084-.021.167-.041.313-.25.542-.208.229-.5.229-.354 0-.583-.219-.229-.219-.187-.531.02-.104.031-.198.01-.094.01-.198 0-.562-.323-1.021-.323-.458-.656-.895Z"/></svg>