<svg xmlns="http://www.w3.org/2000/svg" height="20" viewBox="0 -960 960 960" width="20"><path d="M132.19-288q-17.19 0-26.69-9.5T96-323.62v-312.76q0-16.62 9.5-26.12t26.79-9.5H598q15.3 0 25.65 10.29Q634-651.42 634-636.21t-10.35 25.71Q613.3-600 598-600H264v240h306q15.3 0 25.65 10.29Q606-339.42 606-324.21t-10.35 25.71Q585.3-288 570-288H132.19ZM698-432h-87q-11.37 0-16.19-10-4.81-10 2.19-19l131.44-181.97Q733-649 739-650q6-1 11 .83 5 1.84 8.5 7.34T760-629l-18 101h87q11.38 0 16.19 10 4.81 10-2.19 19L711.56-317.03Q707-311 701-310q-6 1-11-.83-5-1.84-8.5-7.34T680-331l18-101Z"/></svg>