<svg xmlns="http://www.w3.org/2000/svg" height="20" viewBox="0 96 960 960" width="20"><path d="m638 825 94-94q10.636-11 24.818-11Q771 720 782 731q11 11 11 25.667 0 14.666-11 25.333L663 901q-10.667 11-25.333 11Q623 912 612.2 901.168l-50.4-51.451Q551 838.885 551 824.443 551 810 562 799q11-11 25-11t25 11l26 26ZM336 960q-20.4 0-34.2-13.8Q288 932.4 288 912V312q0-20.4 13.8-34.2Q315.6 264 336 264h71.889v-36q0-15.3 10.335-25.65Q428.558 192 443.834 192h71.89q15.276 0 25.659 10.35 10.384 10.35 10.384 25.65v36H624q20.4 0 34.2 13.8Q672 291.6 672 312v288q-19 0-36.966 3T600 612V336H360v552h108q7 20 18 38t25 34H336Zm24-72h108-12 12-108Z"/></svg>