<svg xmlns="http://www.w3.org/2000/svg" height="20" viewBox="0 -960 960 960" width="20"><path d="M132.19-288q-17.19 0-26.69-9.5T96-323.62v-312.76q0-16.62 9.5-26.12t26.79-9.5H598q15.3 0 25.65 10.35Q634-651.3 634-636L514-469q-25 35-5.5 72t61.82 37q14.68 0 25.18 10.29t10.5 25.5q0 15.21-10.35 25.71T570-288H132.19ZM698-432h-87q-11.37 0-16.19-10-4.81-10 2.19-19l131.44-181.97Q733-649 739-650q6-1 11 .83 5 1.84 8.5 7.34T760-629l-18 101h87q11.38 0 16.19 10 4.81 10-2.19 19L711.56-317.03Q707-311 701-310q-6 1-11-.83-5-1.84-8.5-7.34T680-331l18-101Z"/></svg>