<svg xmlns="http://www.w3.org/2000/svg" height="20" viewBox="0 96 960 960" width="20"><path d="M336 960q-20.4 0-34.2-13.8Q288 932.4 288 912V312q0-20.4 13.8-34.2Q315.6 264 336 264h72v-36q0-14 10.35-25T444 192h72q14 0 25 11t11 25v36h72q20.4 0 34.2 13.8Q672 291.6 672 312v85q0 14-11 24.5T635.5 432q-14.5 0-25-10.35T600 396v-60H360v552h240v-36q0-14 10.35-25T636 816q14 0 25 11t11 25v60q0 20.4-13.8 34.2Q644.4 960 624 960H336Zm107.5-192q-14.5 0-25-10.35T408 732v-72q0-29 20.756-50.5t51.439-21.5H630l-32-31q-11-10.667-11-25.333Q587 517 598 506q10.667-11 25.333-11 14.667 0 25.533 10.866l93.268 93.268Q753 610 753 624.667q0 14.666-11 25.333l-93.148 93.148Q638 754 623.333 754q-14.666 0-25.333-11-11-11-11-25.5t11-25.5l32-32H480v73q0 14-11 24.5T443.5 768Z"/></svg>