<svg xmlns="http://www.w3.org/2000/svg" height="20" width="20"><path d="M6 8h2.708q-.104-.229-.156-.469Q8.5 7.292 8.5 7v-.25q0-.125.042-.25H6Zm7.25.5q1.167 0 2.208-.25Q16.5 8 16.5 7t-1.042-1.25q-1.041-.25-2.208-.25-1.167 0-2.208.25Q10 6 10 7t1.042 1.25q1.041.25 2.208.25ZM3.5 16q-.625 0-1.062-.438Q2 15.125 2 14.5v-5q0-.625.438-1.062Q2.875 8 3.5 8h1V6.5q0-.625.438-1.062Q5.375 5 6 5h3.562q.688-.521 1.667-.76Q12.208 4 13.25 4q1.771 0 3.26.719Q18 5.438 18 7v7.5q0 .625-.438 1.062Q17.125 16 16.5 16h-3.333v-3.229q0-.313-.219-.531-.219-.219-.531-.219-.313 0-.532.219-.218.218-.218.531V16H9.938v-3.229q0-.313-.219-.531-.219-.219-.531-.219-.313 0-.532.219-.218.218-.218.531V16H6.729v-3.229q0-.313-.219-.531-.218-.219-.531-.219-.312 0-.531.219-.219.218-.219.531V16Z"/></svg>