<svg xmlns="http://www.w3.org/2000/svg" height="20" viewBox="0 -960 960 960" width="20"><path d="M263.72-96Q234-96 213-117.15T192-168v-480h-60q-15.3 0-25.65-10.35Q96-668.7 96-684v-60q0-50 35-85t85-35h528q50 0 85 35t35 85v60q0 15.3-10.35 25.65Q843.3-648 828-648h-60v480q0 29.7-21.16 50.85Q725.68-96 695.96-96H263.72Zm.28-72h432v-108H264v108Zm0-180h432v-120h-72v36q0 15.3-10.35 25.65Q603.3-396 588-396q-15.3 0-25.65-10.35Q552-416.7 552-432v-36H264v120Zm0-192h288v-108H264v108Zm360 0h72v-108h-72v108ZM168-720h624v-24q0-20.4-13.8-34.2Q764.4-792 744-792H216q-20.4 0-34.2 13.8Q168-764.4 168-744v24Zm624 0H168h624Z"/></svg>