<svg xmlns="http://www.w3.org/2000/svg" height="20" viewBox="0 -960 960 960" width="20"><path d="M246-168h468l-54-72h-38q-2 13-11.2 21.5T588-210q-14.03 0-23.51-8.5Q555-227 553-240H300l-54 72Zm378-409h90l-54-72-36 1v71Zm0 205h90l-54-72h-36v72Zm-378 0h306v-72H300l-54 72Zm0-204h306v-72H300l-54 72Zm17.72 480Q234-96 213-117.15T192-168v-480h-60q-15.3 0-25.65-10.35Q96-668.7 96-684v-60q0-50 35-85t85-35h528q50 0 85 35t35 85v60q0 15.3-10.35 25.65Q843.3-648 828-648h-60v480q0 29.7-21.16 50.85Q725.68-96 695.96-96H263.72Z"/></svg>