<svg xmlns="http://www.w3.org/2000/svg" height="20" width="20"><path d="M2 8V5.5q0-.625.438-1.062Q2.875 4 3.5 4h13q.625 0 1.062.438Q18 4.875 18 5.5v2.75q0 .312-.219.531Q17.562 9 17.25 9q-.312 0-.531-.219-.219-.219-.219-.531V5.5h-13V8Zm4.25 5.479q-.229 0-.396-.104-.166-.104-.271-.271L4.292 10.75H2.75q-.312 0-.531-.219Q2 10.312 2 10q0-.312.219-.531.219-.219.531-.219h2q.208 0 .375.104t.271.292l.854 1.542 2.333-4.292q.105-.188.282-.281.177-.094.385-.094.208 0 .375.094.167.093.271.281l1.292 2.375q-.334.187-.615.417-.281.229-.552.52L9.25 8.812l-2.354 4.292q-.104.167-.271.271-.167.104-.375.104ZM8.875 16H3.5q-.625 0-1.062-.438Q2 15.125 2 14.5V12h1.5v2.5h5.021q.041.396.125.771.083.375.229.729ZM10 10Zm4 8q-1.667 0-2.833-1.167Q10 15.667 10 14q0-1.667 1.167-2.833Q12.333 10 14 10q1.667 0 2.833 1.167Q18 12.333 18 14q0 1.667-1.167 2.833Q15.667 18 14 18Zm1.417-4.708q.145-.146.145-.354 0-.209-.145-.355-.146-.145-.355-.145-.208 0-.354.145l-.854.855q-.146.145-.146.354 0 .208.146.354t.354.146q.209 0 .354-.146Z"/></svg>