<svg xmlns="http://www.w3.org/2000/svg" height="20" width="20"><path d="m8.917 11-.792 3.417q-.021.104-.292.208-.271.104-.51.187-.24.084-.281.136Q7 15 7.417 15q-.355 0-.584-.281-.229-.281-.145-.636l1.458-6-1.646.709v.958q0 .312-.219.531-.219.219-.531.219-.312 0-.531-.219Q5 10.062 5 9.75V7.792l3.854-1.625q.208-.084.406-.125Q9.458 6 9.646 6q.542 0 .937.188.396.187.667.624l.542.876q.416.666.906 1.083.49.417 1.114.583.292.084.49.323.198.24.198.552 0 .292-.208.479-.209.188-.48.125-.937-.229-1.614-.698-.677-.468-1.177-1.135l-.479 1.5L12 11.958v2.292q0 .312-.219.531-.219.219-.531.219-.312 0-.531-.219-.219-.219-.219-.531v-1.688ZM11 5.5q-.729 0-1.24-.51-.51-.511-.51-1.24t.51-1.24Q10.271 2 11 2t1.24.51q.51.511.51 1.24t-.51 1.24q-.511.51-1.24.51ZM10 18q-1.646 0-3.104-.625-1.458-.625-2.552-1.719t-1.719-2.552Q2 11.646 2 10q0-2.167 1.083-4.021 1.084-1.854 2.938-2.917.271-.166.562-.062.292.104.417.396.125.292.021.583-.104.292-.375.459-1.458.874-2.302 2.354Q3.5 8.271 3.5 10q0 2.708 1.896 4.604T10 16.5q2.542 0 4.396-1.688 1.854-1.687 2.083-4.166.042-.292.261-.469.218-.177.51-.177.312 0 .531.24.219.239.177.552-.291 3.041-2.562 5.125Q13.125 18 10 18Z"/></svg>