<svg xmlns="http://www.w3.org/2000/svg" height="20" width="20"><path d="M3 17V15.5H4.5V17ZM3 14V12.5H4.5V14ZM3 10.833V9.333H4.5V10.833ZM3 7.667V6.167H4.5V7.667ZM3 4.5V3H4.5V4.5ZM6.125 17V15.5H7.625V17ZM6.125 10.833V9.333H7.625V10.833ZM6.125 4.5V3H7.625V4.5ZM9.25 17V15.5H10.75V17ZM9.25 14V12.5H10.75V14ZM9.25 10.833V9.333H10.75V10.833ZM9.25 7.667V6.167H10.75V7.667ZM9.25 4.5V3H10.75V4.5ZM12.375 17V15.5H13.875V17ZM12.375 10.833V9.333H13.875V10.833ZM12.375 4.5V3H13.875V4.5ZM15.5 17V15.5H17V17ZM15.5 14V12.5H17V14ZM15.5 10.833V9.333H17V10.833ZM15.5 7.667V6.167H17V7.667ZM15.5 4.5V3H17V4.5Z"/></svg>