<svg xmlns="http://www.w3.org/2000/svg" height="20" viewBox="0 96 960 960" width="20"><path d="M180 912q-15.3 0-25.65-10.289-10.35-10.29-10.35-25.5Q144 861 154.35 850.5 164.7 840 180 840h564V276q0-15.3 10.289-25.65 10.29-10.35 25.5-10.35Q795 240 805.5 250.35 816 260.7 816 276v564q0 29.7-21.15 50.85Q773.7 912 744 912H180Zm419.788-144Q570 768 549 746.788q-21-21.213-21-51Q528 666 549.212 645q21.213-21 51-21Q630 624 651 645.212q21 21.213 21 51Q672 726 650.788 747q-21.213 21-51 21ZM276 576q-15.3 0-25.65-10.289-10.35-10.29-10.35-25.5Q240 525 250.35 514.5 260.7 504 276 504h81L169 316q-11-10.667-11-25.333Q158 276 169 265q11-11 25.667-11 14.666 0 25.333 11l188 188v-81q0-15.3 10.289-25.65 10.29-10.35 25.5-10.35Q459 336 469.5 346.35 480 356.7 480 372v168q0 15.3-10.35 25.65Q459.3 576 444 576H276Z"/></svg>