<svg xmlns="http://www.w3.org/2000/svg" height="20" width="20"><path d="M9.479 17.979 7.5 16H4.75q-.312 0-.531-.219Q4 15.562 4 15.25V12.5l-1.979-1.979q-.229-.229-.229-.521 0-.292.229-.521L4 7.5V4.75q0-.312.219-.531Q4.438 4 4.75 4H7.5l1.979-1.979q.229-.229.521-.229.292 0 .521.229L12.5 4h2.75q.312 0 .531.219.219.219.219.531V7.5l1.979 1.979q.229.229.229.521 0 .292-.229.521L16 12.5v2.75q0 .312-.219.531-.219.219-.531.219H12.5l-1.979 1.979q-.229.229-.521.229-.292 0-.521-.229Zm.521-8Zm0 6.396 1.875-1.875H14.5v-2.625L16.375 10 14.5 8.125V5.5h-2.625L10 3.625 8.125 5.5H5.5v2.625L3.625 10 5.5 11.875V14.5h2.625Z"/></svg>