<svg xmlns="http://www.w3.org/2000/svg" height="20" viewBox="0 96 960 960" width="20"><path d="M453.29 576 372 495q-11-11-11-25t11-25q11-11 25-11t25 11l82 81v-44.596q0-15.471 10.289-25.938Q524.579 445 539.789 445 555 445 565.5 455.31q10.5 10.311 10.5 25.552v130.897Q576 627 565.65 637.5T540 648H408.129q-15.355 0-25.742-10.35T372 612q0-15.3 10.387-25.65Q392.774 576 408.129 576h45.161ZM756 864q-45 0-76.5-31.5T648 756q0-45 31.5-76.5T756 648q45 0 76.5 31.5T864 756q0 45-31.5 76.5T756 864Zm-588 0q-29.7 0-50.85-21.162Q96 821.676 96 791.96V359.717Q96 330 117.15 309T168 288h624q29.7 0 50.85 21.126Q864 330.253 864 359.919v179.798Q864 555 853.711 565.5q-10.29 10.5-25.5 10.5Q813 576 802.5 565.65 792 555.3 792 540V360H168v432h372q15.3 0 25.65 10.289 10.35 10.29 10.35 25.5Q576 843 565.65 853.5 555.3 864 540 864H168Z"/></svg>