<svg xmlns="http://www.w3.org/2000/svg" height="20" viewBox="0 -960 960 960" width="20"><path d="M479.789-672Q495-672 505.5-661.65 516-651.3 516-636v456q0 15.3-10.289 25.65-10.29 10.35-25.5 10.35Q465-144 454.5-154.35 444-164.7 444-180v-456q0-15.3 10.289-25.65 10.29-10.35 25.5-10.35Zm-156 96Q339-576 349.5-565.65 360-555.3 360-540v264q0 15.3-10.289 25.65-10.29 10.35-25.5 10.35Q309-240 298.5-250.35 288-260.7 288-276v-264q0-15.3 10.289-25.65 10.29-10.35 25.5-10.35Zm312 0Q651-576 661.5-565.65 672-555.3 672-540v264q0 15.3-10.289 25.65-10.29 10.35-25.5 10.35Q621-240 610.5-250.35 600-260.7 600-276v-264q0-15.3 10.289-25.65 10.29-10.35 25.5-10.35ZM480-744q-48 0-88.5 22T325-660q-26 40-66.509 62-40.508 22-86.491 22h-40q-15.3 0-25.65-10.289Q96-596.579 96-611.789 96-627 106.35-637.5 116.7-648 132-648h40q28.122 0 52.561-13.5T265-698q35-55 91.807-86.5t123-31.5Q546-816 603-784.5t92 86.5q16 23 40.439 36.5T788-648h40q15.3 0 25.65 10.289 10.35 10.29 10.35 25.5Q864-597 853.65-586.5 843.3-576 828-576h-40q-45.983 0-86.491-22Q661-620 635-660t-66.5-62Q528-744 480-744ZM180.211-372Q165-372 154.5-382.289q-10.5-10.29-10.5-25.5Q144-423 154.289-433.5q10.29-10.5 25.5-10.5Q195-444 205.5-433.711q10.5 10.29 10.5 25.5Q216-393 205.711-382.5q-10.29 10.5-25.5 10.5Zm600 0Q765-372 754.5-382.289q-10.5-10.29-10.5-25.5Q744-423 754.289-433.5q10.29-10.5 25.5-10.5Q795-444 805.5-433.711q10.5 10.29 10.5 25.5Q816-393 805.711-382.5q-10.29 10.5-25.5 10.5Z"/></svg>