<svg xmlns="http://www.w3.org/2000/svg" height="20" viewBox="0 96 960 960" width="20"><path d="M540.286 264Q525 264 514.5 253.711q-10.5-10.29-10.5-25.5Q504 213 514.341 202.5q10.341-10.5 25.627-10.5h287.746Q843 192 853.5 202.289q10.5 10.29 10.5 25.5Q864 243 853.659 253.5 843.318 264 828.032 264H540.286Zm0 144Q525 408 514.5 397.711q-10.5-10.29-10.5-25.5Q504 357 514.341 346.5q10.341-10.5 25.627-10.5h287.746Q843 336 853.5 346.289q10.5 10.29 10.5 25.5Q864 387 853.659 397.5 843.318 408 828.032 408H540.286Zm0 144Q525 552 514.5 541.711q-10.5-10.29-10.5-25.5Q504 501 514.341 490.5q10.341-10.5 25.627-10.5h287.746Q843 480 853.5 490.289q10.5 10.29 10.5 25.5Q864 531 853.659 541.5 843.318 552 828.032 552H540.286ZM715 960q-123-10-232-61.5T291.5 764Q209 681 157 572T96 340q-2-21 12.286-36.5Q122.571 288 144 288h136q17 0 29.5 10t16.5 27l24 107q2 12-1 24t-12.086 21L240 575q42 76 103 137t137 103l99-96q10-10 21.802-12.5Q612.605 704 624 706l107 23q17 4 27 16.9 10 12.9 10 30.1v136q0 27-19 38t-34 10Z"/></svg>