<svg xmlns="http://www.w3.org/2000/svg" height="20" viewBox="0 96 960 960" width="20"><path d="M715 960q-123-10-232-61.5T291.5 764Q209 681 157 572T96 340q-2-21 12.286-36.5Q122.571 288 144 288h136q17 0 29.5 10t16.5 27l24 107q2 12-1 24t-12.086 21L240 575q42 76 103 137t137 103l99-96q10-10 21.802-12.5Q612.605 704 624 706l107 23q17 4 27 16.9 10 12.9 10 30.1v136q0 27-19 38t-34 10Zm-43.226-384Q592 576 536 519.774t-56-136Q480 304 536.226 248t136-56Q752 192 808 248.226t56 136Q864 464 807.774 520t-136 56Zm.226-96q9.6 0 16.8-7.2 7.2-7.2 7.2-16.8v-48q0-9.6-7.2-16.8-7.2-7.2-16.8-7.2-9.6 0-16.8 7.2-7.2 7.2-7.2 16.8v48q0 9.6 7.2 16.8 7.2 7.2 16.8 7.2Zm0-144q9.6 0 16.8-7.2 7.2-7.2 7.2-16.8 0-9.6-7.2-16.8-7.2-7.2-16.8-7.2-9.6 0-16.8 7.2-7.2 7.2-7.2 16.8 0 9.6 7.2 16.8 7.2 7.2 16.8 7.2Z"/></svg>