<svg xmlns="http://www.w3.org/2000/svg" height="20" viewBox="0 -960 960 960" width="20"><path d="M552-551.95Q552-592 524.17-620t-67.71-28H336q-10.4 0-17.2 6.8-6.8 6.8-6.8 17.2 0 10.4 6.8 17.2 6.8 6.8 17.2 6.8h120q20.07 0 34.04 13.95 13.96 13.95 13.96 34T490.04-518q-13.97 14-34.04 14h-76l21-21q7-7.36 7-17.18T401-559q-7-7-17.5-7t-17.5 7l-53 54q-11 11-11 25t11 25l54 54q7.36 7 17.18 7t16.82-7q7-7 7-16.82T401-435l-21-21h76q40.07 0 68.03-27.95 27.97-27.95 27.97-68ZM282-216q-36 0-67.2-19.35Q183.6-254.7 168-288H83.82q-15.22 0-25.52-10.35Q48-308.7 48-324v-180q0-33 19.5-52.5T120-576h36l56-142q8.01-22.64 26.27-36.32Q256.52-768 279.67-768H545q19.55 0 36.78 10.5Q599-747 609-730l87 136 150 13q33 3 49 21t16 51v185.07q0 15.27-10.3 25.6Q890.4-288 875.18-288H791q-15.6 33.3-46.8 52.65Q713-216 677-216t-66.64-19.35Q579.73-254.7 564.41-288H395q-16 33-46.26 52.5Q318.49-216 282-216Z"/></svg>