<svg xmlns="http://www.w3.org/2000/svg" height="20" width="20"><path d="m8.854 10.729-.75-1.146q-.104-.166-.271-.25-.166-.083-.354-.083H2.354q-.187-.479-.271-.927Q2 7.875 2 7.396q0-1.854 1.271-3.125T6.396 3q1.021 0 1.979.438.958.437 1.625 1.229.667-.792 1.625-1.229Q12.583 3 13.604 3q1.854 0 3.125 1.271T18 7.396q0 .479-.083.937-.084.459-.271.938h-4.792l-1.25-1.938q-.104-.166-.281-.25Q11.146 7 10.958 7q-.229 0-.385.125t-.261.333ZM9 16.604q-2.229-2-3.635-3.396-1.407-1.396-2.177-2.458h3.937l1.25 1.938q.104.166.281.239.177.073.365.073.229 0 .396-.115.166-.114.25-.323l1.458-3.25.729 1.126q.104.166.271.25.167.083.354.083h4.313q-.771 1.062-2.146 2.469-1.375 1.406-3.646 3.364-.229.188-.469.344-.239.156-.531.156-.292 0-.531-.146-.24-.146-.469-.354Z"/></svg>