<svg xmlns="http://www.w3.org/2000/svg" height="20" width="20"><path d="M6.396 3q1.021 0 1.979.438.958.437 1.625 1.229.667-.792 1.625-1.229Q12.583 3 13.604 3q1.854 0 3.125 1.271T18 7.396v.208q0 .104-.021.208h-1.5q.021-.104.021-.208v-.208q0-1.229-.833-2.063-.834-.833-2.063-.833-.729 0-1.364.302-.636.302-1.094.844l-.729.854h-.834l-.729-.854q-.479-.521-1.125-.834Q7.083 4.5 6.396 4.5q-1.229 0-2.063.833-.833.834-.833 2.063v.177q0 .073.021.177h-1.5q0-.104-.011-.177Q2 7.5 2 7.396q0-1.854 1.271-3.125T6.396 3ZM10 17.104q-.292 0-.531-.146-.24-.146-.469-.354-.75-.687-1.417-1.292-.666-.604-1.239-1.145-.573-.542-1.052-1.021-.48-.479-.875-.917h2.104q.667.667 1.521 1.459.854.791 1.958 1.791 1.083-.979 1.948-1.771.864-.791 1.531-1.458h2.083q-.374.417-.864.896-.49.479-1.063 1.021-.573.541-1.229 1.156-.656.615-1.406 1.281-.229.188-.469.344-.239.156-.531.156ZM9.021 13q.229 0 .396-.115.166-.114.25-.323l1.458-3.25.729 1.126q.104.166.271.25.167.083.354.083h5.771q.312 0 .531-.219.219-.219.219-.531 0-.313-.219-.531-.219-.219-.531-.219h-5.396l-1.25-1.938q-.104-.166-.281-.25Q11.146 7 10.958 7q-.229 0-.385.125t-.261.333l-1.458 3.271-.75-1.146q-.104-.166-.271-.25-.166-.083-.354-.083H1.75q-.312 0-.531.219Q1 9.688 1 10q0 .312.219.531.219.219.531.219h5.375l1.25 1.938q.104.166.281.239.177.073.365.073ZM10 9.979Z"/></svg>