<svg xmlns="http://www.w3.org/2000/svg" height="20" viewBox="0 96 960 960" width="20"><path d="M744 276q-9.6 0-16.8 7.2-7.2 7.2-7.2 16.8v120q0 9.6 7.2 16.8 7.2 7.2 16.8 7.2 9.6 0 16.8-7.2 7.2-7.2 7.2-16.8V300q0-9.6-7.2-16.8-7.2-7.2-16.8-7.2Zm-96 0q-9.6 0-16.8 7.2-7.2 7.2-7.2 16.8v120q0 9.6 7.2 16.8 7.2 7.2 16.8 7.2 9.6 0 16.8-7.2 7.2-7.2 7.2-16.8V300q0-9.6-7.2-16.8-7.2-7.2-16.8-7.2ZM480 576Zm312 288H552q0-18-1.5-36t-4.5-36h246V606q19.871-7.538 37.935-17.769Q848 578 864 564v228.021Q864 822 842.85 843T792 864ZM96 408v-48q0-29.7 21.15-50.85Q138.3 288 168 288h274q-5 17.1-7.5 35.1T432 360H168v54q-18-3-36-4.5T96 408Zm599.774 144Q616 552 560 495.774t-56-136Q504 280 560.226 224t136-56Q776 168 832 224.226t56 136Q888 440 831.774 496t-136 56ZM144 864q-20 0-34-14t-14-34q0-20 14-34t34-14q20 0 34 14t14 34q0 20-14 34t-34 14Zm156.061 0Q286 864 274.5 855.5T261 833q-10-51-46.932-87.889Q177.136 708.222 126 699q-14.062-1.852-22.031-13.426Q96 674 96 660.424 96 646 104.5 635t22.5-9q81 11 138.5 68t68.767 138.182Q336 846 325.5 855q-10.5 9-25.439 9ZM444 864q-14 0-25-10t-13-24q-12-110-90-188t-189.111-89.267Q113 551 104.5 540.474 96 529.947 96 515.912 96 501 107.5 490.5 119 480 134 482q138 14 234.589 111.305T478 829q2 14-8.35 24.5T444 864Z"/></svg>