<svg xmlns="http://www.w3.org/2000/svg" height="20" viewBox="0 96 960 960" width="20"><path d="M696 456q9.6 0 16.8-7.2 7.2-7.2 7.2-16.8 0-9.6-7.2-16.8-7.2-7.2-16.8-7.2-9.6 0-16.8 7.2-7.2 7.2-7.2 16.8 0 9.6 7.2 16.8 7.2 7.2 16.8 7.2Zm0-96q9.6 0 16.8-7.2 7.2-7.2 7.2-16.8v-48q0-9.6-7.2-16.8-7.2-7.2-16.8-7.2-9.6 0-16.8 7.2-7.2 7.2-7.2 16.8v48q0 9.6 7.2 16.8 7.2 7.2 16.8 7.2ZM552 864q0-95-36.036-177.759-36.036-82.759-98-144.5T273 444q-83-36-177-36v-48q0-29.7 21.15-50.85Q138.3 288 168 288h274q-5 17.1-7.5 35.1T432 360q0 110 77 187t187 77q45.752 0 89.376-15.5T864 564v228.021Q864 822 842.85 843T792 864H552Zm143.774-312Q616 552 560 495.774t-56-136Q504 280 560.226 224t136-56Q776 168 832 224.226t56 136Q888 440 831.774 496t-136 56ZM144 864q-20 0-34-14t-14-34q0-20 14-34t34-14q20 0 34 14t14 34q0 20-14 34t-34 14Zm156.061 0Q286 864 274.5 855.5T261 833q-10-51-46.932-87.889Q177.136 708.222 126 699q-14.062-1.852-22.031-13.426Q96 674 96 660.424 96 646 104.5 635t22.5-9q81 11 138.5 68t68.767 138.182Q336 846 325.5 855q-10.5 9-25.439 9ZM444 864q-14 0-25-10t-13-24q-12-110-90-188t-189.111-89.267Q113 551 104.5 540.474 96 529.947 96 515.912 96 501 107.5 490.5 119 480 134 482q138 14 234.589 111.305T478 829q2 14-8.35 24.5T444 864Z"/></svg>