<svg xmlns="http://www.w3.org/2000/svg" height="20" width="20"><path d="M15.167 14.75H12.75q-.312 0-.531-.219Q12 14.312 12 14q0-.312.219-.531.219-.219.531-.219h2.417l-.646-.667q-.229-.229-.229-.521 0-.291.229-.52.229-.23.531-.23.302 0 .531.23l1.896 1.937q.229.229.229.521 0 .292-.229.521l-1.896 1.937q-.229.23-.531.23-.302 0-.531-.23-.229-.229-.229-.52 0-.292.229-.521ZM5.5 14.5l-1.854 1.854q-.167.167-.406.084-.24-.084-.24-.334V5.5q0-.625.438-1.062Q3.875 4 4.5 4h9q.625 0 1.062.438Q15 4.875 15 5.5V9v-.031.01q-.375.042-.76.094-.386.052-.74.177V5.5h-9V13h5.604q-.042.208-.073.396-.031.187-.031.396v.354q0 .187.042.354Zm1.25-6h4.5q.312 0 .531-.219Q12 8.062 12 7.75q0-.312-.219-.531Q11.562 7 11.25 7h-4.5q-.312 0-.531.219Q6 7.438 6 7.75q0 .312.219.531.219.219.531.219Zm0 3h2.5q.312 0 .531-.219.219-.219.219-.531 0-.312-.219-.531Q9.562 10 9.25 10h-2.5q-.312 0-.531.219Q6 10.438 6 10.75q0 .312.219.531.219.219.531.219ZM4.5 13V5.5 13Z"/></svg>