<svg xmlns="http://www.w3.org/2000/svg" height="20" width="20"><path d="m5 15-1.729 1.729q-.354.354-.813.156Q2 16.688 2 16.188V3.5q0-.625.438-1.062Q2.875 2 3.5 2h13q.625 0 1.062.438Q18 2.875 18 3.5v10q0 .625-.438 1.062Q17.125 15 16.5 15Zm5-5.438 1.417 1.417q.229.229.531.219.302-.01.531-.24.229-.229.229-.531 0-.302-.229-.531L11.062 8.5l1.417-1.417q.229-.229.229-.531 0-.302-.229-.531-.229-.229-.531-.229-.302 0-.531.229L10 7.438 8.583 6.021q-.229-.229-.521-.229-.291 0-.52.229-.23.229-.23.531 0 .302.23.531L8.938 8.5 7.521 9.917q-.229.229-.219.521.01.291.24.52.229.23.531.23.302 0 .531-.23Z"/></svg>