<svg xmlns="http://www.w3.org/2000/svg" height="20" width="20"><path d="M6.083 15q-.916 0-1.521-.604-.604-.604-.604-1.521 0-.917.615-1.521.615-.604 1.51-.604.896 0 1.511.615.614.614.614 1.51t-.604 1.51Q7 15 6.083 15ZM4.604 9.271q-.187 0-.323-.125-.135-.125-.135-.313V5.438q0-.188.135-.313Q4.417 5 4.604 5q.188 0 .313.125t.125.313v3.395q0 .188-.125.313t-.313.125Zm1.479 4.917q.542 0 .907-.376.364-.374.364-.937 0-.583-.354-.948t-.917-.365q-.541 0-.906.365t-.365.948q0 .563.365.937.365.376.906.376Zm.25-4.917q-.187 0-.323-.125-.135-.125-.135-.313V5.438q0-.167.135-.303Q6.146 5 6.312 5h.313q.104 0 .208.052.105.052.167.156l1.5 2.521-.042-.687V5.438q0-.188.136-.313Q8.729 5 8.917 5q.187 0 .312.135.125.136.125.323v3.417q0 .167-.114.281-.115.115-.282.115h-.312q-.104 0-.208-.052-.105-.052-.146-.157L6.729 6.417l.042.645v1.771q0 .188-.125.313t-.313.125Zm4.209 5.75q-.73 0-1.177-.49-.448-.489-.448-1.281v-2.062q0-.188.125-.313t.312-.125q.188 0 .313.125t.125.313v2.104q0 .396.218.646.219.25.552.25.334 0 .553-.261.218-.26.218-.635v-2.125q0-.167.136-.292.135-.125.302-.125.167 0 .291.125.126.125.126.292v2.083q0 .792-.459 1.281-.458.49-1.187.49ZM14.458 15q-.187 0-.312-.125t-.125-.313v-2.979h-.709q-.166 0-.291-.125-.125-.125-.125-.291 0-.167.125-.292.125-.125.291-.125h2.292q.167 0 .292.125.125.125.125.292 0 .166-.125.291-.125.125-.292.125h-.708v2.979q0 .188-.125.313t-.313.125Z"/></svg>