<svg xmlns="http://www.w3.org/2000/svg" height="20" width="20"><path d="m6.146 3.708-.313-.937q-.104-.292.042-.563.146-.27.437-.375.292-.104.563.032.271.135.375.427l.333.958q.105.292-.041.563-.146.27-.438.375-.292.104-.573-.042Q6.25 4 6.146 3.708ZM9.25 2.75v-1q0-.312.219-.531Q9.688 1 10 1q.312 0 .531.219.219.219.219.531v1q0 .312-.219.531-.219.219-.531.219-.312 0-.531-.219-.219-.219-.219-.531Zm3.188.5.312-.958q.104-.292.375-.438.271-.146.563-.042.291.105.437.376.146.27.042.562l-.334.979q-.104.292-.375.427-.27.136-.562.032-.292-.105-.427-.375-.136-.271-.031-.563ZM2.854 18.875q-.312.042-.562-.146-.25-.187-.292-.5-.042-.291.146-.541.187-.25.479-.292l3.354-.5q.209-.042.365-.177.156-.136.218-.344l.792-2.437q.084-.271-.042-.521-.124-.25-.374-.396l-.459 1.5q-.104.291-.385.437-.282.146-.573.042-.292-.104-.438-.375-.145-.271-.041-.563L6.729 8.75q.042-.125.042-.24 0-.114-.042-.239l-2.646 5.458q-.291.583-.843.927Q2.688 15 1.917 15H1.75q-.312 0-.531-.219Q1 14.562 1 14.25q0-.312.219-.531.219-.219.531-.219h.312q.23 0 .396-.115.167-.114.271-.302l3.083-6.416q.167-.334.511-.407.344-.072.635.157l.459.354q.541.437.739 1.104.198.667-.01 1.333l-.75 2.375q.937.479 1.281 1.25.344.771.094 1.563L8 16.833q-.188.605-.677 1.021-.49.417-1.135.521Zm10.958-.5q-.645-.104-1.135-.521-.489-.416-.677-1.021l-.771-2.437q-.25-.792.094-1.563.344-.771 1.281-1.25l-.75-2.375q-.208-.666-.01-1.333.198-.667.739-1.104l.459-.354q.291-.229.635-.157.344.073.511.407l3.083 6.416q.104.188.271.302.166.115.396.115h.312q.312 0 .531.219.219.219.219.531 0 .312-.219.531-.219.219-.531.219h-.146q-.75 0-1.323-.344t-.864-.927l-2.646-5.458q-.042.125-.042.239 0 .115.042.24l1.687 5.312q.104.292-.041.563-.146.271-.438.375-.291.104-.573-.052-.281-.156-.385-.448l-.459-1.479q-.25.146-.374.396-.126.25-.042.521l.792 2.437q.062.208.218.344.156.135.365.177l3.354.5q.292.042.479.292.188.25.146.541-.042.313-.292.5-.25.188-.562.146Zm-.75-5.354Zm-6.124 0ZM5.521 15Zm8.958 0Z"/></svg>