<svg xmlns="http://www.w3.org/2000/svg" height="20" width="20"><path d="m6.146 3.708-.313-.937q-.104-.292.042-.563.146-.27.437-.375.292-.104.563.032.271.135.375.427l.333.958q.105.292-.041.563-.146.27-.438.375-.292.104-.573-.042Q6.25 4 6.146 3.708ZM9.25 2.75v-1q0-.312.219-.531Q9.688 1 10 1q.312 0 .531.219.219.219.219.531v1q0 .312-.219.531-.219.219-.531.219-.312 0-.531-.219-.219-.219-.219-.531Zm3.188.5.312-.958q.104-.292.375-.438.271-.146.563-.042.291.105.437.376.146.27.042.562l-.334.979q-.104.292-.375.427-.27.136-.562.032-.292-.105-.427-.375-.136-.271-.031-.563Zm1.374 15.125q-.645-.104-1.135-.521-.489-.416-.677-1.021l-.771-2.437q-.187-.563-.052-1.125.135-.563.594-1l.896 2.791q.062.209.239.292.177.084.386.021.187-.063.281-.24.094-.177.031-.364l-1.75-5.563q-.208-.666-.01-1.333.198-.667.739-1.104l.459-.354q.291-.229.635-.157.344.073.511.407l3.083 6.416q.104.188.271.302.166.115.396.115.291 0 .479.219.187.219.145.51l-.562 4q-.042.313-.292.5-.25.188-.562.146Zm-7.624 0-3.334.5q-.312.042-.562-.146-.25-.187-.292-.5l-.562-4q-.042-.291.145-.51.188-.219.479-.219.23 0 .396-.115.167-.114.271-.302l3.083-6.416q.167-.334.511-.407.344-.072.635.157l.459.354q.541.437.739 1.104.198.667-.01 1.333l-1.75 5.542q-.063.208.031.385.094.177.302.24.209.063.386-.021.177-.083.239-.292l.875-2.791q.459.417.594.989.135.573-.052 1.136L8 16.833q-.188.605-.677 1.021-.49.417-1.135.521Z"/></svg>