<svg xmlns="http://www.w3.org/2000/svg" height="20" width="20"><path d="M9.75 8.375V5.75q0-.312-.219-.531Q9.312 5 9 5q-.312 0-.531.219-.219.219-.219.531v2.938q0 .166.062.302.063.135.167.239l2.063 2.063q.229.229.531.229.302 0 .531-.229.229-.23.229-.521 0-.292-.229-.521ZM7.5 15.833q-2.375-.521-3.938-2.416Q2 11.521 2 9q0-2.917 2.042-4.958Q6.083 2 9 2q2.917 0 4.958 2.042Q16 6.083 16 9q0 .958-.24 1.844-.239.885-.698 1.656H10.75q-1.354 0-2.302.948T7.5 15.75v.083Zm3.25 1.667h5q.729 0 1.24-.51.51-.511.51-1.24t-.51-1.24q-.511-.51-1.24-.51h-5q-.729 0-1.24.51-.51.511-.51 1.24t.51 1.24q.511.51 1.24.51Zm0-1q-.312 0-.531-.219Q10 16.062 10 15.75q0-.312.219-.531.219-.219.531-.219.312 0 .531.219.219.219.219.531 0 .312-.219.531-.219.219-.531.219Zm2.5 0q-.312 0-.531-.219-.219-.219-.219-.531 0-.312.219-.531.219-.219.531-.219.312 0 .531.219.219.219.219.531 0 .312-.219.531-.219.219-.531.219Zm2.5 0q-.312 0-.531-.219Q15 16.062 15 15.75q0-.312.219-.531.219-.219.531-.219.312 0 .531.219.219.219.219.531 0 .312-.219.531-.219.219-.531.219Z"/></svg>