<svg xmlns="http://www.w3.org/2000/svg" height="20" width="20"><path d="m11.25 8.125-.667-.667q-.229-.229-.521-.229-.291 0-.52.229-.23.23-.23.532 0 .302.23.531l1.937 1.958q.229.229.521.229.292 0 .521-.229l1.958-1.958q.229-.229.229-.531 0-.302-.229-.532-.229-.229-.531-.229-.302 0-.531.229l-.667.667V5.75q0-.312-.219-.531Q12.312 5 12 5q-.312 0-.531.219-.219.219-.219.531ZM7.479 14q-.625 0-1.062-.438-.438-.437-.438-1.062v-9q0-.625.438-1.062Q6.854 2 7.479 2h9.063q.625 0 1.062.438.438.437.438 1.062v9q0 .625-.438 1.062-.437.438-1.062.438Zm-2.583 4q-.604.083-1.104-.302-.5-.386-.584-.99L2 7.771q-.083-.625.302-1.115.386-.489 1.01-.573L4.5 5.938v6.583q0 1.25.854 2.114.854.865 2.104.865H15q0 .5-.344.865-.344.364-.844.427Z"/></svg>