<svg xmlns="http://www.w3.org/2000/svg" height="20" viewBox="0 -960 960 960" width="20"><path d="M554.25-368H666q5-5 9.5-8t9.5-5q5-2 8.059-4.143 3.059-2.143 6.117-3.857 1.53-4.286 2.677-8.143Q703-401 703-405.815L704-427q0-11-8.5-19.5T676-455q-11 0-19.5 8.5t-8.5 19.767V-425l-75 1v-112h75v1.733q0 11.267 8.5 19.767T676-506q11 0 19.5-8.5T704-534v-20.581q0-15.903-10.781-26.661Q682.438-592 666.5-592H554q-15.725 0-26.362 10.705Q517-570.59 517-554.765v148.94Q517-390 527.709-379q10.71 11 26.541 11ZM216-192q-29.7 0-50.85-21.162Q144-234.324 144-264.04v-432.243Q144-726 165.15-747T216-768h528q29.7 0 50.85 21.175Q816-725.65 816-695.914V-431q0 11-8 18t-19 6q-37.525-2-73.262 11.5Q680-382 653-355q-27.793 27.957-41.397 63.129Q598-256.699 600-218.822 601-208 594.5-200t-17.129 8H216Zm528.233 0h-36.116q-15.35 0-25.734-10.35Q672-212.7 672-228q0-15.3 10.383-25.65Q692.767-264 708.117-264h36.116v-36q0-15.3 10.384-25.65Q765-336 780.211-336q15.21 0 25.5 10.35Q816-315.3 816-300v36h35.789Q867-264 877.5-253.711q10.5 10.29 10.5 25.5 0 15.211-10.35 25.594-10.35 10.384-25.65 10.384h-36v36.116q0 15.35-10.35 25.734Q795.3-120 780-120q-15 0-25.383-10.35-10.384-10.35-10.384-25.65v-36ZM293-368h112.5q15.938 0 26.719-10.758T443-405.419V-426q0-11-8.5-19.5T415-454q-11 0-19.5 8.5t-8.5 19.767V-424h-75v-112h75v1.733q0 11.267 8.5 19.767T415-506q11 0 19.5-8.5T443-534v-20.581q0-15.903-10.781-26.661Q421.438-592 405.5-592H293q-15.725 0-26.362 10.705Q256-570.59 256-554.765v148.94Q256-390 266.638-379q10.637 11 26.362 11Z"/></svg>