<svg xmlns="http://www.w3.org/2000/svg" height="20" viewBox="0 -960 960 960" width="20"><path d="M480-480ZM216-192q-29.7 0-50.85-21.162Q144-234.324 144-264.04v-432.243Q144-726 165.15-747T216-768h528q29.7 0 50.85 21.131Q816-725.737 816-696.064v251.778Q816-429 805.711-418.5q-10.29 10.5-25.5 10.5Q765-408 754.5-418.35 744-428.7 744-444v-252H216v432h348q15.3 0 25.65 10.289 10.35 10.29 10.35 25.5Q600-213 589.65-202.5 579.3-192 564-192H216Zm528.233 0h-36.116q-15.35 0-25.734-10.35Q672-212.7 672-228q0-15.3 10.383-25.65Q692.767-264 708.117-264h36.116v-36q0-15.3 10.384-25.65Q765-336 780.211-336q15.21 0 25.5 10.35Q816-315.3 816-300v36h35.789Q867-264 877.5-253.711q10.5 10.29 10.5 25.5 0 15.211-10.35 25.594-10.35 10.384-25.65 10.384h-36v36.116q0 15.35-10.35 25.734Q795.3-120 780-120q-15 0-25.383-10.35-10.384-10.35-10.384-25.65v-36ZM554.288-368h111.865Q682-368 693-378.925 704-389.85 704-406v-20q0-11-8.5-19.5T676-454q-11 0-19.5 8.5t-8.5 19.767V-424h-75v-112h75v1.733q0 11.267 8.5 19.767T676-506q11 0 19.5-8.5T704-534v-20.581q0-15.903-10.781-26.661Q682.438-592 666.5-592H554q-15.725 0-26.362 10.705Q517-570.59 517-554.765v148.94Q517-390 527.72-379q10.721 11 26.568 11Zm-261 0h111.865Q421-368 432-378.925 443-389.85 443-406v-20q0-11-8.5-19.5T415-454q-11 0-19.5 8.5t-8.5 19.767V-424h-75v-112h75v1.733q0 11.267 8.5 19.767T415-506q11 0 19.5-8.5T443-534v-20.581q0-15.903-10.781-26.661Q421.438-592 405.5-592H293q-15.725 0-26.362 10.705Q256-570.59 256-554.765v148.94Q256-390 266.72-379q10.721 11 26.568 11Z"/></svg>