<svg xmlns="http://www.w3.org/2000/svg" height="20" width="20"><path d="M10.25 12.979q1.438 0 2.469-.937 1.031-.938 1.031-2.25 0-1.167-.76-1.99-.761-.823-1.823-.823-.959 0-1.625.625-.667.625-.667 1.5 0 .417.146.771.146.354.437.646.271.229.552.177.282-.052.469-.24.188-.187.229-.458.042-.271-.187-.542-.063-.083-.104-.166-.042-.084-.042-.188 0-.25.229-.437.229-.188.563-.188.437 0 .76.386.323.385.323.927 0 .687-.594 1.187t-1.406.5q-1.021 0-1.76-.864-.74-.865-.74-2.053 0-.458.125-.885t.354-.802q.167-.271.167-.573 0-.302-.229-.531-.229-.229-.542-.219-.313.01-.479.26-.438.605-.667 1.303-.229.697-.229 1.447 0 1.834 1.167 3.126 1.166 1.291 2.833 1.291ZM5.5 14.354q-1.188-1-1.844-2.406Q3 10.542 3 8.979q0-2.917 2.052-4.948Q7.104 2 10.021 2q2.271 0 4.083 1.219 1.813 1.219 2.396 3.177l1.375 4.646q.104.354-.115.656-.218.302-.593.302H16v2.5q0 .625-.438 1.062Q15.125 16 14.5 16h-2v1.25q0 .312-.219.531-.219.219-.531.219-.312 0-.531-.219Q11 17.562 11 17.25v-2q0-.312.219-.531.219-.219.531-.219h2.75v-3.25q0-.312.219-.531.219-.219.531-.219h.917l-1.084-3.604q-.458-1.5-1.864-2.448-1.407-.948-3.198-.948-2.313 0-3.917 1.594Q4.5 6.688 4.5 8.979q0 1.229.521 2.333.521 1.105 1.458 1.896l.521.459v3.583q0 .312-.219.531Q6.562 18 6.25 18q-.312 0-.531-.219-.219-.219-.219-.531Zm4.833-3.604Z"/></svg>