<svg xmlns="http://www.w3.org/2000/svg" height="20" width="20"><path d="M9 5.75q-.729 0-1.24-.51-.51-.511-.51-1.24t.51-1.24q.511-.51 1.24-.51t1.24.51q.51.511.51 1.24t-.51 1.24q-.511.51-1.24.51ZM14 15q.833 0 1.417-.583Q16 13.833 16 13q0-.833-.583-1.417Q14.833 11 14 11q-.833 0-1.417.583Q12 12.167 12 13q0 .833.583 1.417Q13.167 15 14 15Zm1.896.958q-.417.271-.906.407-.49.135-.99.135-1.458 0-2.479-1.021Q10.5 14.458 10.5 13q0-1.458 1.021-2.479Q12.542 9.5 14 9.5q1.458 0 2.479 1.021Q17.5 11.542 17.5 13q0 .5-.135.99-.136.489-.407.906l1.521 1.521q.229.229.229.521 0 .291-.229.52-.229.23-.531.23-.302 0-.531-.23ZM10 16q.292.417.677.75.385.333.823.583 0 .25-.219.459-.219.208-.531.208-.312 0-.531-.219Q10 17.562 10 17.25Zm-2-3v4.25q0 .312-.219.531Q7.562 18 7.25 18q-.312 0-.531-.219-.219-.219-.219-.531V8.354q-.958-.062-1.885-.25-.927-.187-1.865-.416-.312-.084-.479-.355-.167-.271-.083-.562.083-.292.374-.427.292-.136.605-.052 1.437.354 2.895.531Q7.521 7 9 7t2.938-.177q1.458-.177 2.895-.531.313-.084.605.052.291.135.374.427.084.291-.083.573-.167.281-.479.364-.938.25-1.865.396-.927.146-1.885.25v.313q-1.125.645-1.812 1.791Q9 11.604 9 13Z"/></svg>