<svg xmlns="http://www.w3.org/2000/svg" height="20" width="20"><path d="M7.958 15.5q-1.75 0-3.26-.833-1.51-.834-2.448-2.313l-1.042-1.625q-.229-.354-.198-.781.032-.427.323-.74l4.334-4.666q.166-.188.395-.302.23-.115.48-.157.25-.041.5.011.25.052.479.177l2.5 1.458 2.104-1.333q.292-.167.615-.146.322.021.572.25.25.229.313.552.063.323-.083.615l-2.688 5.562q-.187.375-.562.563-.375.187-.792.125l-6.396-1 .417.625q.729 1.146 1.906 1.802Q6.604 14 7.958 14h4.417q1.042 0 1.99-.385.947-.386 1.677-1.115h-1.084q-.583 0-.958-.448t-.271-1.031l.792-4.209q.062-.312.26-.51t.469-.26q.271-.063.542.01.27.073.479.302l2.458 2.938q.229.27.292.614.062.344-.083.677l-.334.792q-.792 1.896-2.489 3.01-1.698 1.115-3.74 1.115Z"/></svg>