<svg xmlns="http://www.w3.org/2000/svg" height="20" width="20"><path d="M18 9.938q.021 1.25-.344 2.406-.364 1.156-1.031 2.156L5.458 3.333q1.188-.854 2.594-1.218Q9.458 1.75 10.938 2q.291.042.468.302.177.26.198.615.042 1.375 1.031 2.229.99.854 2.427.771.292-.021.448.146.157.166.115.479-.104.833.354 1.52.459.688 1.25.98.354.125.563.375.208.25.208.521ZM6.75 12.5q.521 0 .885-.365Q8 11.771 8 11.25t-.365-.885Q7.271 10 6.75 10t-.885.365q-.365.364-.365.885t.365.885q.364.365.885.365Zm8.729 5.083-.979-.958q-1.021.667-2.156 1.021Q11.208 18 10 18q-1.646 0-3.104-.625-1.458-.625-2.552-1.719t-1.719-2.552Q2 11.646 2 10q0-1.208.354-2.344.354-1.135 1.021-2.156l-.979-.979q-.229-.229-.219-.531.011-.302.24-.532.229-.229.531-.229.302 0 .531.229l13.063 13.084q.229.229.229.52 0 .292-.229.521-.23.229-.532.229-.302 0-.531-.229Z"/></svg>