<svg xmlns="http://www.w3.org/2000/svg" height="20" width="20"><path d="M18 9.938q.021 1.25-.344 2.406-.364 1.156-1.031 2.156l-1.104-1.104q.417-.667.667-1.427.25-.761.312-1.594-.938-.375-1.562-1.156-.626-.781-.792-1.781-1.584-.23-2.688-1.313T10.146 3.5q-.979-.062-1.886.188-.906.25-1.698.75L5.458 3.333q1.188-.854 2.594-1.218Q9.458 1.75 10.938 2q.291.042.468.302.177.26.198.615.042 1.375 1.031 2.229.99.854 2.427.771.292-.021.448.146.157.166.115.479-.104.833.354 1.52.459.688 1.25.98.354.125.563.375.208.25.208.521ZM6.75 12.5q-.521 0-.885-.365-.365-.364-.365-.885t.365-.885Q6.229 10 6.75 10t.885.365q.365.364.365.885t-.365.885q-.364.365-.885.365Zm8.729 5.083-.979-.958q-1.021.667-2.156 1.021Q11.208 18 10 18q-1.646 0-3.104-.625-1.458-.625-2.552-1.719t-1.719-2.552Q2 11.646 2 10q0-1.208.354-2.344.354-1.135 1.021-2.156l-.979-.979q-.229-.229-.219-.531.011-.302.24-.532.229-.229.531-.229.302 0 .531.229l13.063 13.084q.229.229.229.52 0 .292-.229.521-.23.229-.532.229-.302 0-.531-.229ZM10 16.5q.917 0 1.771-.271.854-.271 1.646-.708L4.479 6.583q-.437.792-.708 1.646Q3.5 9.083 3.5 10q0 2.708 1.896 4.604T10 16.5Zm-1.25-5.25Zm2.292-2.333Z"/></svg>