<svg xmlns="http://www.w3.org/2000/svg" height="20" width="20"><path d="M10 18q-1.646 0-3.104-.625-1.458-.625-2.552-1.719t-1.719-2.552Q2 11.646 2 10q0-1.667.625-3.115.625-1.447 1.719-2.541Q5.438 3.25 6.896 2.625T10 2q1.667 0 3.115.625 1.447.625 2.541 1.719 1.094 1.094 1.719 2.541Q18 8.333 18 10q0 1.646-.625 3.104-.625 1.458-1.719 2.552t-2.541 1.719Q11.667 18 10 18Zm0-1.5q2.708 0 4.604-1.896T16.5 10q0-2.708-1.896-4.604T10 3.5q-2.708 0-4.604 1.896T3.5 10q0 2.708 1.896 4.604T10 16.5Zm0-6.5Zm-1 4h2q.625 0 1.062-.438.438-.437.438-1.062v-1.75q0-.625-.438-1.062Q11.625 9.25 11 9.25H9V7.5h2.25q.312 0 .531-.219Q12 7.062 12 6.75q0-.312-.219-.531Q11.562 6 11.25 6H9q-.625 0-1.062.438Q7.5 6.875 7.5 7.5v5q0 .625.438 1.062Q8.375 14 9 14Zm0-3.25h2v1.75H9Z"/></svg>