<svg xmlns="http://www.w3.org/2000/svg" height="20" width="20"><path d="M10 18q-1.646 0-3.104-.625-1.458-.625-2.552-1.719t-1.719-2.552Q2 11.646 2 10q0-1.667.625-3.115.625-1.447 1.719-2.541Q5.438 3.25 6.896 2.625T10 2q1.667 0 3.115.625 1.447.625 2.541 1.719 1.094 1.094 1.719 2.541Q18 8.333 18 10q0 1.646-.625 3.104-.625 1.458-1.719 2.552t-2.541 1.719Q11.667 18 10 18Zm1-7v2.25q0 .312.219.531.219.219.531.219.312 0 .531-.219.219-.219.219-.531v-6.5q0-.312-.219-.531Q12.062 6 11.75 6q-.312 0-.531.219Q11 6.438 11 6.75V9.5H9V6.75q0-.312-.219-.531Q8.562 6 8.25 6q-.312 0-.531.219-.219.219-.219.531v3.5q0 .312.219.531.219.219.531.219Z"/></svg>