<svg xmlns="http://www.w3.org/2000/svg" height="20" width="20"><path d="M3.729 16q-.312 0-.531-.219-.219-.219-.219-.531 0-.312.219-.531.219-.219.531-.219h7.5q.313 0 .531.219.219.219.219.531 0 .312-.219.531-.218.219-.531.219ZM13 11q-1.667 0-2.833-1.167Q9 8.667 9 7q0-1.667 1.167-2.833Q11.333 3 13 3q1.667 0 2.833 1.167Q17 5.333 17 7q0 1.667-1.167 2.833Q14.667 11 13 11ZM3.729 9.75q-.312 0-.531-.219-.219-.219-.219-.531 0-.312.219-.531.219-.219.531-.219h3.917q.104.417.25.781.146.365.354.719Zm0 3.125q-.312 0-.531-.219-.219-.218-.219-.531 0-.313.219-.531.219-.219.531-.219h5.959q.5.375 1.072.635.573.261 1.219.386 0 .25-.229.364-.229.115-.521.115ZM13 9q.208 0 .354-.146T13.5 8.5v-1q0-.208-.146-.354T13 7q-.208 0-.354.146T12.5 7.5v1q0 .208.146.354T13 9Zm0-3q.208 0 .354-.146T13.5 5.5q0-.208-.146-.354T13 5q-.208 0-.354.146T12.5 5.5q0 .208.146.354T13 6Z"/></svg>