<svg xmlns="http://www.w3.org/2000/svg" height="20" viewBox="0 96 960 960" width="20"><path d="m648 820-33-33q-7.364-7-17.182-7Q588 780 581 787q-7 7-7 16.818 0 9.818 7 17.182l77.918 77.918Q664 904 672 904t13.082-5.082L763 821q7-7.364 7-17.182Q770 794 763 787q-7-7-16.818-7-9.818 0-17.182 7l-33 33v-76q0-9.6-7.2-16.8-7.2-7.2-16.8-7.2-9.6 0-16.8 7.2-7.2 7.2-7.2 16.8v76ZM444 203q17.131-10 36.066-10Q499 193 516 203l264 153q17.1 9.884 26.55 26.058T816 418v177q-31-20-67.321-31.5Q712.357 552 672 552q-18 0-35.5 2t-34.5 7l79-45q17-10 22-28.5t-3-35.5q-9-19-29-25t-38 5l-153 88-153-88q-18-11-38-4.5T260 453q-8 17-3 35t22 28l153 88v102q-11 26-17.5 53.5T408 816q0 36 9.409 69.468T444 948L180 796q-17.1-10.043-26.55-26.478Q144 753.087 144 733V418q0-19.768 9.45-35.942T180 356l264-153Zm227.774 805Q592 1008 536 951.774t-56-136Q480 736 536.226 680t136-56Q752 624 808 680.226t56 136Q864 896 807.774 952t-136 56Z"/></svg>