<svg xmlns="http://www.w3.org/2000/svg" height="20" viewBox="0 96 960 960" width="20"><path d="M480 555Zm-36-352q17.131-10 36.066-10Q499 193 516 203l264 153q17.1 9.884 26.55 26.058T816 418v177q-21.724-13.812-45.862-23.906T720 555.99V493l-119 69q-57 16-101 53.5T432 706V604L240 493v227.049L408 817q0 36 9.5 69t26.5 62L180 796q-17.1-10.043-26.55-26.478Q144 753.087 144 733V418q0-19.768 9.45-35.942T180 356l264-153Zm36 90L283 407l197 113 197-113-197-114Zm191.774 715Q592 1008 536 951.774t-56-136Q480 736 536.226 680t136-56Q752 624 808 680.226t56 136Q864 896 807.774 952t-136 56Zm.226-96q9.6 0 16.8-7.2 7.2-7.2 7.2-16.8 0-9.6-7.2-16.8-7.2-7.2-16.8-7.2-9.6 0-16.8 7.2-7.2 7.2-7.2 16.8 0 9.6 7.2 16.8 7.2 7.2 16.8 7.2Zm0-96q9.6 0 16.8-7.2 7.2-7.2 7.2-16.8v-48q0-9.6-7.2-16.8-7.2-7.2-16.8-7.2-9.6 0-16.8 7.2-7.2 7.2-7.2 16.8v48q0 9.6 7.2 16.8 7.2 7.2 16.8 7.2Z"/></svg>