<svg xmlns="http://www.w3.org/2000/svg" height="20" width="20"><path d="M2.75 17q-.312 0-.531-.219Q2 16.562 2 16.25V9.5q0-.625.438-1.062Q2.875 8 3.5 8h3.75q.167 0 .302.062.136.063.229.157.094.093.157.229Q8 8.583 8 8.75V10q0 .833.583 1.417Q9.167 12 10 12q.833 0 1.417-.583Q12 10.833 12 10V8.75q0-.167.062-.302.063-.136.157-.229.093-.094.239-.157Q12.604 8 12.75 8h3.75q.625 0 1.062.438Q18 8.875 18 9.5v6.75q0 .312-.219.531-.219.219-.531.219ZM10 10.562q-.312 0-.531-.208-.219-.208-.219-.521-.104-2.145.385-4.208.49-2.063 2.115-3.437.229-.209.542-.178.312.032.52.261.209.229.178.541-.032.313-.261.521-1.375 1.125-1.677 2.896Q10.75 8 10.75 9.792q0 .312-.219.531-.219.219-.531.239ZM5 12.5q.208 0 .354-.146T5.5 12q0-.208-.146-.354T5 11.5q-.208 0-.354.146T4.5 12q0 .208.146.354T5 12.5Zm1.5 2q.208 0 .354-.146T7 14q0-.208-.146-.354T6.5 13.5q-.208 0-.354.146T6 14q0 .208.146.354t.354.146Zm8.5-2q.208 0 .354-.146T15.5 12q0-.208-.146-.354T15 11.5q-.208 0-.354.146T14.5 12q0 .208.146.354T15 12.5Z"/></svg>