<svg xmlns="http://www.w3.org/2000/svg" height="20" width="20"><path d="M7.625 5.5 6.125 4H16.25q.312 0 .531.219.219.219.219.531 0 .312-.219.531-.219.219-.531.219ZM18 15.854l-1.5-1.479V8.5h-3v2.875l-1.5-1.5V8q0-.417.292-.708Q12.583 7 13 7h4q.417 0 .708.292Q18 7.583 18 8Zm-2.521 1.729L13.875 16H13q-.417.042-.729-.26-.313-.302-.271-.74v-.875l-6.5-6.5V14H10v2H3q-.417 0-.708-.292Q2 15.417 2 15t.292-.708Q2.583 14 3 14h1V6.125L2.396 4.521q-.229-.229-.229-.531 0-.302.229-.532.229-.229.531-.229.302 0 .531.229l13.084 13.084q.229.229.229.52 0 .292-.229.521-.23.229-.532.229-.302 0-.531-.229Z"/></svg>