<svg xmlns="http://www.w3.org/2000/svg" height="20" width="20"><path d="M15.167 15.75H12.75q-.312 0-.531-.219Q12 15.312 12 15q0-.312.219-.531.219-.219.531-.219l2.438-.021-.688-.687q-.229-.209-.229-.5 0-.292.208-.521.229-.229.521-.229.292 0 .521.229L17.5 14.5q.229.229.229.531 0 .302-.229.531l-1.917 1.917q-.229.229-.541.229-.313 0-.542-.229-.229-.229-.219-.541.011-.313.24-.542ZM4.5 17q-.625 0-1.062-.438Q3 16.125 3 15.5v-2.75q0-.312.219-.531Q3.438 12 3.75 12q.312 0 .531.219.219.219.219.531v2.75h2.75q.312 0 .531.219.219.219.219.531 0 .312-.219.531Q7.562 17 7.25 17Zm-.75-9q-.312 0-.531-.219Q3 7.562 3 7.25V4.5q0-.625.438-1.062Q3.875 3 4.5 3h2.75q.312 0 .531.219Q8 3.438 8 3.75q0 .312-.219.531-.219.219-.531.219H4.5v2.75q0 .312-.219.531Q4.062 8 3.75 8Zm12.5 0q-.312 0-.531-.219-.219-.219-.219-.531V4.5h-2.75q-.312 0-.531-.219Q12 4.062 12 3.75q0-.312.219-.531Q12.438 3 12.75 3h2.75q.625 0 1.062.438Q17 3.875 17 4.5v2.75q0 .312-.219.531Q16.562 8 16.25 8Z"/></svg>