<svg xmlns="http://www.w3.org/2000/svg" height="20" width="20"><path d="M9.167 10.75H3.875l1.667 1.667q.229.229.229.521 0 .291-.229.52-.23.23-.532.23-.302 0-.531-.23l-2.958-2.937q-.229-.229-.229-.521 0-.292.229-.521l2.958-2.958q.229-.229.531-.229.302 0 .532.229.229.229.229.531 0 .302-.229.531L3.875 9.25H9.25V3.875L7.583 5.542q-.229.229-.531.229-.302 0-.531-.229-.229-.23-.229-.532 0-.302.229-.531l2.958-2.958q.229-.229.521-.229.292 0 .521.229l2.958 2.958q.229.229.229.521 0 .292-.229.521-.229.229-.531.229-.302 0-.531-.229L10.75 3.875l-.083 5.375h5.458l-1.667-1.667q-.229-.229-.218-.531.01-.302.239-.531.229-.229.531-.229.302 0 .532.229l2.937 2.958q.229.229.229.521 0 .292-.229.521l-2.958 2.958q-.229.229-.521.219-.292-.01-.521-.24-.229-.229-.229-.531 0-.302.229-.531l1.646-1.646H10.75v5.375l1.667-1.667q.229-.229.531-.229.302 0 .531.229.229.23.229.532 0 .302-.229.531l-2.958 2.958q-.229.229-.521.229-.292 0-.521-.229l-2.958-2.958q-.229-.229-.219-.531.01-.302.24-.532.229-.229.531-.229.302 0 .531.229l1.646 1.667Z"/></svg>