<svg xmlns="http://www.w3.org/2000/svg" height="20" width="20"><path d="M9.25 10.75H4.875l1.167 1.167q.229.229.229.521 0 .291-.229.52-.23.23-.532.23-.302 0-.531-.23l-2.458-2.437q-.229-.229-.229-.521 0-.292.229-.521l2.458-2.458q.229-.229.531-.229.302 0 .532.229.229.229.229.531 0 .302-.229.531L4.875 9.25H9.25V4.875L8.083 6.042q-.229.229-.531.229-.302 0-.531-.229-.229-.23-.229-.532 0-.302.229-.531l2.458-2.458q.229-.229.521-.229.292 0 .521.229l2.458 2.458q.229.229.229.521 0 .292-.229.521-.229.229-.531.229-.302 0-.531-.229L10.75 4.875V9.25h4.375l-1.167-1.167q-.229-.229-.218-.531.01-.302.239-.531.229-.229.531-.229.302 0 .532.229l2.437 2.458q.229.229.229.521 0 .292-.229.521l-2.458 2.458q-.229.229-.521.219-.292-.01-.521-.24-.229-.229-.229-.531 0-.302.229-.531l1.146-1.146H10.75v4.375l1.167-1.167q.229-.229.531-.229.302 0 .531.229.229.23.229.532 0 .302-.229.531l-2.458 2.458q-.229.229-.521.229-.292 0-.521-.229l-2.458-2.458q-.229-.229-.219-.531.01-.302.24-.532.229-.229.531-.229.302 0 .531.229l1.146 1.167Z"/></svg>