<svg xmlns="http://www.w3.org/2000/svg" height="20" width="20"><path d="M12.667 16.5h1.208v-1.729l2.521-.604q.396-.105.625-.177.229-.073.229-.344 0-.229-.219-.386-.219-.156-.698-.281-.604-.167-.968-.541-.365-.376-.365-.855t.375-.854q.375-.375 1.042-.604.541-.187.812-.458t.271-.605q0-.333-.229-.562-.229-.229-.583-.229-.188 0-.376.073-.187.073-.374.073-.542 0-.907-.386-.364-.385-.364-.927 0-.5.281-.948.281-.448.281-.948 0-.333-.333-.52Q14.562 4.5 14 4.5q-.479 0-.698.198-.219.198-.219.677 0 .375.042.958.042.584.042.959 0 .75-.344 1.031-.344.281-.865.281-.27 0-.52-.062-.25-.063-.521-.063-.105 0-.188.042-.083.041-.083.146 0 .229.166.385.167.156.334.323.416.417.812.854.396.438.396 1.021 0 .521-.364.875-.365.354-.907.354-.291 0-.573-.052-.281-.052-.572-.052-.396 0-.657.167-.26.166-.26.437 0 .292.281.5.281.209.781.292l2.584.375Zm-9.979.188q-.292-.126-.396-.417-.104-.292.02-.583L5.688 8.25q.124-.292.416-.396.292-.104.584.021.291.125.395.417.105.291-.021.583l-3.374 7.437q-.126.292-.417.396-.292.104-.583-.02ZM11.896 18q-.313 0-.531-.219-.219-.219-.219-.531v-1.854l-1.313-.167q-1.021-.125-1.666-.708-.646-.583-.646-1.375 0-.938.708-1.604.709-.667 1.75-.667.167 0 .323.01.156.011.323.053-.104-.105-.229-.219-.125-.115-.229-.219-.375-.375-.667-.792-.292-.416-.292-.958 0-.708.407-1.208.406-.5 1.281-.5.208 0 .396.031.187.031.396.052l-.042-.885q-.021-.448-.021-.886 0-1.083.656-1.719Q12.938 3 14.062 3q1.146 0 1.917.604.771.604.771 1.479 0 .479-.198.896-.198.417-.323.854.125-.041.25-.052.125-.01.25-.01.938 0 1.604.698.667.698.667 1.698 0 .937-.635 1.573-.636.635-1.511.822.146.042.271.084l.25.083q.625.292 1 .813.375.52.375 1.146 0 .708-.604 1.25-.604.541-1.708.812l-1.063.25v1.25q0 .312-.219.531-.218.219-.531.219ZM3.708 8.229q-.229.229-.552.209-.323-.021-.489-.292-.334-.479-.5-1.042Q2 6.542 2 5.958q0-1.646 1.156-2.791 1.156-1.146 2.802-1.146.584 0 1.136.167.552.166 1.031.479.271.166.302.479.031.312-.198.542-.229.229-.541.239-.313.011-.605-.135-.271-.125-.552-.198-.281-.073-.573-.073-1.02 0-1.739.708-.719.709-.719 1.729 0 .292.062.573.063.281.209.552.146.292.156.605.011.312-.219.541Zm9.563 3.354Z"/></svg>