<svg xmlns="http://www.w3.org/2000/svg" height="20" width="20"><path d="M4.854 17q-.229 0-.458-.052t-.458-.115q-.167-.041-.334-.125-.166-.083-.292.042-.229.229-.531.24-.302.01-.531-.219-.229-.229-.24-.531-.01-.302.219-.532.396-.416.959-.437.562-.021 1.124.125.167.042.334.125.166.083.292-.042.145-.146.052-.333-.094-.188-.136-.375-.146-.563-.114-1.125.031-.563.427-.979.395-.417.958-.448.563-.031 1.125.114.167.042.333.136.167.093.292-.031.146-.146.052-.334-.094-.187-.135-.375-.146-.562-.125-1.135.021-.573.416-.99.396-.416.969-.448.573-.031 1.136.115.166.041.333.135t.291-.031q.146-.146.053-.333-.094-.188-.136-.375-.146-.563-.125-1.136.021-.573.417-.989.396-.417.969-.438.572-.021 1.135.125.167.042.333.125.167.084.292-.042.146-.145.062-.333-.083-.187-.124-.375-.146-.562-.115-1.125.031-.562.427-.979.396-.417.958-.448.563-.031 1.125.115.167.041.344.125.177.083.302-.042.229-.229.521-.229.292 0 .521.229.229.229.239.521.011.291-.218.521-.396.416-.969.448-.573.031-1.115-.115-.166-.042-.343-.135-.177-.094-.303.031-.145.146-.052.333.094.188.136.396.146.562.114 1.125-.031.563-.427.979-.395.417-.968.448-.573.031-1.115-.114-.167-.042-.344-.136-.177-.094-.302.031-.146.146-.052.334.094.187.136.375.145.562.124 1.135-.02.573-.416.99-.396.416-.969.448-.573.031-1.135-.115-.167-.042-.334-.135-.166-.094-.291.031-.146.146-.052.333.093.188.135.375.146.563.115 1.136-.032.572-.427.989-.396.417-.959.438-.562.021-1.125-.125-.166-.042-.333-.125-.167-.084-.292.041-.146.146-.052.334.094.187.135.375.146.562.115 1.125-.031.562-.427.979-.229.229-.521.354-.291.125-.625.125ZM5 9Q3.333 9 2.167 7.833 1 6.667 1 5q0-1.667 1.167-2.833Q3.333 1 5 1q1.667 0 2.833 1.167Q9 3.333 9 5q0 1.667-1.167 2.833Q6.667 9 5 9Zm0-1.5q1.042 0 1.771-.729Q7.5 6.042 7.5 5q0-1.042-.729-1.771Q6.042 2.5 5 2.5q-1.042 0-1.771.729Q2.5 3.958 2.5 5q0 1.042.729 1.771Q3.958 7.5 5 7.5ZM13.5 19q-.625 0-1.062-.438Q12 18.125 12 17.5v-4q0-.625.438-1.062Q12.875 12 13.5 12h4q.625 0 1.062.438.438.437.438 1.062v4q0 .625-.438 1.062Q18.125 19 17.5 19Zm0-1.5h4v-4h-4v4Zm2-2ZM5 5Z"/></svg>