<svg xmlns="http://www.w3.org/2000/svg" height="20" width="20"><path d="M2 9.229V5.5q0-.625.438-1.062Q2.875 4 3.5 4h13q.625 0 1.062.438Q18 4.875 18 5.5v5.167q-.271-.084-.531-.115-.261-.031-.552-.031-.479 0-.917.104-.438.104-.833.313-.292-.167-.573-.261-.282-.094-.594-.135v-.563q0-.312-.219-.531-.219-.219-.531-.219h-2.042L9.917 6.875q-.105-.167-.282-.26-.177-.094-.385-.094-.208 0-.385.094-.177.093-.282.26L6.25 11.167l-.833-1.542q-.105-.187-.282-.292-.177-.104-.385-.104ZM3.5 16q-.625 0-1.062-.438Q2 15.125 2 14.5v-3.771h2.292l1.291 2.354q.105.188.282.292.177.104.385.104.208 0 .385-.104.177-.104.282-.292L9.25 8.792l.833 1.541q.105.167.282.282.177.114.385.114h1.438q-1.021.396-1.678 1.302-.656.907-.656 2.073 0 .542.125.99.125.448.438.906Zm9.958-4q.5 0 .959.24.458.239.771.656.291-.417.739-.656.448-.24.969-.24.875 0 1.489.615.615.614.615 1.489 0 .688-.51 1.334-.511.645-2.157 2.062l-.666.583q-.229.188-.5.188t-.479-.188l-.667-.583q-1.688-1.438-2.177-2.073-.49-.635-.49-1.323 0-.875.615-1.489.614-.615 1.489-.615Z"/></svg>