<svg xmlns="http://www.w3.org/2000/svg" height="20" width="20"><path d="M10 9.979ZM10 17q-.354 0-.677-.135-.323-.136-.552-.386l-5.375-5q-.729-.667-1.073-1.562-.344-.896-.344-1.896 0-2.042 1.344-3.531Q4.667 3 6.667 3q.958 0 1.812.396.854.396 1.521 1.083.646-.708 1.51-1.094Q12.375 3 13.333 3q2 0 3.344 1.49 1.344 1.489 1.344 3.531 0 .979-.333 1.875-.334.896-1.042 1.562L11.229 16.5q-.25.25-.562.375Q10.354 17 10 17Zm1-10q.188 0 .354.083.167.084.271.25l1.271 1.917h3.437q.105-.292.146-.604.042-.313.042-.646 0-1.396-.906-2.448Q14.708 4.5 13.333 4.5q-.625 0-1.208.271t-1.021.729l-.542.583q-.104.105-.25.167-.145.062-.312.062t-.302-.062q-.136-.062-.24-.167L8.896 5.5q-.438-.479-1.011-.74-.573-.26-1.218-.26-1.375 0-2.282 1.042-.906 1.041-.906 2.479 0 .312.052.625.052.312.157.604H7.5q.188 0 .354.083.167.084.271.25l.75 1.125 1.437-3.27q.105-.209.282-.323Q10.771 7 11 7Zm.125 2.312-1.437 3.25q-.105.209-.282.323Q9.229 13 9 13q-.188 0-.354-.083-.167-.084-.271-.25L7.104 10.75H4.792l4.958 4.604q.042.042.115.073.073.031.135.031.062 0 .135-.031.073-.031.115-.073l4.938-4.604H12.5q-.188 0-.354-.073-.167-.073-.271-.239Z"/></svg>