<svg xmlns="http://www.w3.org/2000/svg" height="20" width="20"><path d="M15.5 17h-12q-.458 0-.667-.406-.208-.406.063-.782l3.771-5.187q.229-.292.541-.458.313-.167.667-.167h3.271l4.521-5.479q.333-.417.833-.24.5.177.5.719v10.5q0 .625-.438 1.062Q16.125 17 15.5 17ZM6.375 8.5l-2.313 3.208q-.187.25-.5.302-.312.052-.562-.135-.25-.187-.302-.5-.052-.313.135-.563l2.334-3.187q.229-.292.541-.458Q6.021 7 6.375 7h3.271l3.021-3.646q.208-.229.521-.271.312-.041.541.167.229.208.261.521.031.312-.178.541l-3.02 3.646q-.23.271-.521.407-.292.135-.625.135Zm-1.396 7H15.5V7.083l-3.208 3.875q-.23.271-.521.407-.292.135-.625.135H7.875Zm10.521 0Z"/></svg>