<svg xmlns="http://www.w3.org/2000/svg" height="20" viewBox="0 -960 960 960" width="20"><path d="M624-48q-85.938 0-159.969-48Q390-144 360-220q-8-14-7-30.5t10-30.5q9-14 24.5-22.5T420-312h253.98q1.02-8 1.02-16.531V-346q0-9-.5-18.5T673-384h-69q-15.3 0-25.65-10.289-10.35-10.29-10.35-25.5Q568-435 578.35-445.5 588.7-456 604-456h200q-20-29-46.5-50T699-539q-17-6-25.5-19t-4.5-27.5q4-14.5 15.5-22.5t23.5-4q91 28 147.5 104T912-336q0 120-84 204T624-48Zm-88-92q-9-25-15.6-49.569Q513.8-214.138 509-240h-77q17 33 43.5 58.5T536-140Zm88 16q16-27 25.5-56.5T665-240h-83q6 30 16.5 59.5T624-124Zm87-14q35-15 62.5-41.5T818-240h-80q-5 26-11.5 51.5T711-138Zm35-174h93q1-6.207 1.5-12.103Q841-330 841-336q0-13-1.5-25t-4.5-23h-89q1 10 1 19v36q0 9-1 17Zm-410-24q-120 0-204-84T48-624q0-120 84-204t204-84q120 0 204 84t84 204q0 120-84 204t-204 84Zm0-72q90 0 153-63t63-153q0-90-63-153t-153-63q-90 0-153 63t-63 153q0 90 63 153t153 63Zm-96.211-240Q255-648 265.5-658.289q10.5-10.29 10.5-25.5Q276-699 265.711-709.5q-10.29-10.5-25.5-10.5Q225-720 214.5-709.711q-10.5 10.29-10.5 25.5Q204-669 214.289-658.5q10.29 10.5 25.5 10.5Zm96.018 162Q381-486 416.5-511t51.5-65H204q16 40 51.307 65t80.5 25Zm95.982-162Q447-648 457.5-658.289q10.5-10.29 10.5-25.5Q468-699 457.711-709.5q-10.29-10.5-25.5-10.5Q417-720 406.5-709.711q-10.5 10.29-10.5 25.5Q396-669 406.289-658.5q10.29 10.5 25.5 10.5ZM336-624Z"/></svg>