<svg xmlns="http://www.w3.org/2000/svg" height="20" width="20"><path d="M3.5 12.792V4.417Q3.146 4 2.854 3.573q-.292-.427-.521-.906-.125-.271 0-.532.125-.26.417-.385t.573 0q.281.125.448.417.937 1.729 2.594 2.781Q8.021 6 10 6q1.958 0 3.604-1.042 1.646-1.041 2.584-2.729.166-.291.468-.458.302-.167.594-.042t.406.406q.115.282-.031.573-.229.459-.51.875-.282.417-.615.813v8.396q0 .896.354 1.708.354.812 1 1.417.229.229.271.531.042.302-.125.552-.167.271-.469.323-.302.052-.531-.156-.938-.834-1.469-1.969Q15 14.062 15 12.792v-6.98q-1.062.792-2.344 1.24Q11.375 7.5 10 7.5q-1.375 0-2.656-.438Q6.062 6.625 5 5.833v6.959q0 1.27-.521 2.416t-1.458 1.959q-.229.208-.542.156Q2.167 17.271 2 17q-.167-.25-.125-.552.042-.302.271-.531.646-.605 1-1.417t.354-1.708ZM8.375 16q-1 0-1.687-.688Q6 14.625 6 13.625V8.708q0-.291.229-.468.229-.178.521-.073l.229.083Q8 8.583 8.76 9.198q.761.614 1.24 1.469.479-.855 1.24-1.469.76-.615 1.781-.948l.229-.083q.292-.105.521.073.229.177.229.468v4.917q0 1-.688 1.687-.687.688-1.687.688-.479 0-.896-.177-.417-.177-.729-.469-.312.292-.729.469T8.375 16Z"/></svg>