<svg xmlns="http://www.w3.org/2000/svg" height="20" width="20"><path d="M9.896 13h1.854q.312 0 .531-.219.219-.219.219-.531 0-.312-.219-.531-.219-.219-.531-.219h-1.729l.083-.812q.042-.292.25-.49t.5-.198h2.396q.312 0 .531-.219Q14 9.562 14 9.25q0-.312-.219-.531-.219-.219-.531-.219h-2.396q-.875 0-1.51.583-.636.584-.719 1.459L8 17.167q0 .104.312.25l.584.271q.271.124.333.218.063.094-.479.094.292 0 .5-.198.208-.198.25-.49ZM5.5 14.354q-1.188-1-1.844-2.406Q3 10.542 3 8.979q0-2.917 2.052-4.948Q7.104 2 10.021 2q2.271 0 4.083 1.219 1.813 1.219 2.396 3.177l1.375 4.646q.104.354-.115.656-.218.302-.593.302H16v2.5q0 .625-.438 1.062Q15.125 16 14.5 16h-2v1.25q0 .312-.219.531-.219.219-.531.219-.312 0-.531-.219Q11 17.562 11 17.25v-2q0-.312.219-.531.219-.219.531-.219h2.75v-3.25q0-.312.219-.531.219-.219.531-.219h.917l-1.084-3.604q-.458-1.5-1.864-2.448-1.407-.948-3.198-.948-2.313 0-3.917 1.594Q4.5 6.688 4.5 8.979q0 1.229.521 2.333.521 1.105 1.458 1.896l.521.459v3.583q0 .312-.219.531Q6.562 18 6.25 18q-.312 0-.531-.219-.219-.219-.219-.531Zm4.833-3.604Z"/></svg>