<svg xmlns="http://www.w3.org/2000/svg" height="20" viewBox="0 96 960 960" width="20"><path d="M647.736 912Q618 912 597 890.824q-21-21.176-21-50.912V695.736Q576 666 597.176 645q21.176-21 50.912-21h144.176Q822 624 843 645.176q21 21.176 21 50.912v144.176Q864 870 842.824 891q-21.176 21-50.912 21H647.736Zm.264-72h144V696H648v144Zm-516-36q-15.3 0-25.65-10.289Q96 783.421 96 768.211 96 753 106.35 742.5 116.7 732 132 732h312q15.3 0 25.65 10.289 10.35 10.29 10.35 25.5Q480 783 469.65 793.5 459.3 804 444 804H132Zm515.736-276Q618 528 597 506.824q-21-21.176-21-50.912V311.736Q576 282 597.176 261q21.176-21 50.912-21h144.176Q822 240 843 261.176q21 21.176 21 50.912v144.176Q864 486 842.824 507q-21.176 21-50.912 21H647.736Zm.264-72h144V312H648v144Zm-516-36q-15.3 0-25.65-10.289Q96 399.421 96 384.211 96 369 106.35 358.5 116.7 348 132 348h312q15.3 0 25.65 10.289 10.35 10.29 10.35 25.5Q480 399 469.65 409.5 459.3 420 444 420H132Zm588 348Zm0-384Z"/></svg>