<svg xmlns="http://www.w3.org/2000/svg" height="20" width="20"><path d="M16.812 7.979 15.75 6.917l.688-.688-2.667-2.646-.667.688-1.062-1.063.666-.687q.438-.438 1.063-.438t1.062.438L17.5 5.188q.438.437.438 1.052 0 .614-.438 1.052Zm-9.624 9.625q-.292.292-.823.375-.532.083-.969-.354l-2.834-2.833q-.437-.438-.437-1.063t.437-1.062l.667-.646 1.063 1.062-.667.646 2.646 2.667.667-.667L8 16.792Zm8-6.687 1.229-1.209-6.084-6.083-1.229 1.208 6.084 6.084Zm-5.459 5.479 1.209-1.208-6.084-6.084-1.208 1.208 6.083 6.084Zm-.104-4.667 2.146-2.125-1.354-1.333-2.125 2.125Zm1.167 5.729q-.438.438-1.063.438t-1.062-.438l-6.084-6.104q-.437-.437-.437-1.052 0-.614.437-1.052l1.209-1.208q.437-.438 1.062-.438t1.063.438l1.312 1.291 2.125-2.145-1.312-1.292q-.438-.438-.438-1.063t.438-1.062l1.229-1.209q.437-.437 1.062-.437t1.063.437L17.5 8.625q.438.437.438 1.063 0 .624-.438 1.062l-1.229 1.208q-.438.438-1.063.438t-1.062-.438l-1.334-1.312-2.124 2.146L12 14.104q.438.438.448 1.063.01.625-.427 1.062Z"/></svg>