<svg xmlns="http://www.w3.org/2000/svg" height="20" viewBox="0 96 960 960" width="20"><path d="M360 864h-95.742q-29.806 0-51.032-21.226Q192 821.548 192 791.742V696l-69-69q-11-11-16-24.182-5-13.182-5-26.818 0-13.636 5-26.818Q112 536 123 525l69-69v-95.742q0-29.806 21.226-51.032Q234.452 288 264.258 288H360l69-69q11-11 24.182-16 13.182-5 26.818-5 13.636 0 26.818 5Q520 208 531 219l69 69h95.742q29.806 0 51.032 21.226Q768 330.452 768 360.258V456l69 69q11 11 16 24.182 5 13.182 5 26.818 0 13.636-5 26.818Q848 616 837 627l-69 69v95.742q0 29.806-21.226 51.032Q725.548 864 695.742 864H600l-69 69q-11 11-24.182 16-13.182 5-26.818 5-13.636 0-26.818-5Q440 944 429 933l-69-69Zm30-72 90 90 90-90h126V666l90-90-90-90V360H570l-90-90-90 90H264v126l-90 90 90 90v126h126Zm39.597-96L455 721q10.636 11 24.818 11Q494 732 505 721l25.403-25H564q15.3 0 25.65-10.35Q600 675.3 600 660v-33.597L625 601q11-10.636 11-24.818Q636 562 625 551l-25-25.403V492q0-15.3-10.35-25.65Q579.3 456 564 456h-33.734L499 425q-8.182-8-19.091-8T461 425l-31.266 31H396q-15.3 0-25.65 10.35Q360 476.7 360 492v33.597L335 551q-11 10.636-11 24.818Q324 590 335 601l25 25.403V660q0 15.3 10.35 25.65Q380.7 696 396 696h33.597ZM480 576Z"/></svg>