<svg xmlns="http://www.w3.org/2000/svg" height="20" viewBox="0 -960 960 960" width="20"><path d="M120-48q-33 0-52.5-19.5T48-120v-84q0-15.3 10.29-25.65Q68.578-240 83.79-240q15.21 0 25.71 10.35T120-204v84h84q15.3 0 25.65 10.289Q240-99.421 240-84.211 240-69 229.65-58.5 219.3-48 204-48h-84Zm720 0h-84q-15.3 0-25.65-10.29Q720-68.578 720-83.79q0-15.21 10.35-25.71T756-120h84v-84q0-15.3 10.289-25.65 10.29-10.35 25.5-10.35Q891-240 901.5-229.65 912-219.3 912-204v84q0 33-19.5 52.5T840-48ZM479.969-240Q381-240 297-292T164.684-432.991Q159-444 156.5-455.513 154-467.026 154-479q0-12 3-24.5t8-23.5q48-89 132.031-141 84.03-52 183-52Q579-720 663-668t132.316 140.991Q801-516 803.5-504q2.5 12 2.5 24t-3 24q-3 12-8 23-48 89-132.031 141-84.03 52-183 52Zm-.094-72q83.125 0 152.179-44.8T738-480q-36.839-78.4-105.795-123.2T480.125-648Q397-648 327.946-603.2T222-480q36.839 78.4 105.795 123.2t152.08 44.8Zm.347-36Q535-348 573.5-386.722q38.5-38.722 38.5-93.5T573.278-573.5q-38.722-38.5-93.5-38.5T386.5-573.278q-38.5 38.722-38.5 93.5t38.722 93.278q38.722 38.5 93.5 38.5ZM480-420q-25 0-42.5-17.5T420-480q0-25 17.5-42.5T480-540q25 0 42.5 17.5T540-480q0 25-17.5 42.5T480-420ZM204-840h-84v120H48v-120q0-33 19.5-52.5T120-912h84q15.3 0 25.65 10.289 10.35 10.29 10.35 25.5Q240-861 229.65-850.5 219.3-840 204-840Zm708 0v84q0 15.3-10.289 25.65-10.29 10.35-25.5 10.35Q861-720 850.5-730.35 840-740.7 840-756v-84h-84q-15.3 0-25.65-10.289-10.35-10.29-10.35-25.5Q720-891 730.35-901.5 740.7-912 756-912h84q33 0 52.5 19.5T912-840ZM480-480Z"/></svg>