<svg xmlns="http://www.w3.org/2000/svg" height="20" width="20"><path d="M10.979 3.125q.583.729 1.146 1.458t1.063 1.5l3.604-2.729q.166-.125.385-.146.219-.02.406.084.188.104.302.271.115.166.115.395V10q0 1.646-.625 3.104-.625 1.458-1.719 2.552t-2.541 1.719Q11.667 18 10 18q-1.646 0-3.104-.625-1.458-.625-2.552-1.719t-1.719-2.552Q2 11.646 2 10V3.958q0-.229.115-.395.114-.167.302-.271.187-.104.406-.084.219.021.385.146l3.604 2.708q.5-.77 1.053-1.499.552-.73 1.135-1.438.188-.229.448-.354.26-.125.552-.125.292 0 .542.125.25.125.437.354Z"/></svg>