<svg xmlns="http://www.w3.org/2000/svg" height="20" width="20"><path d="M3.75 17q-.312 0-.531-.219Q3 16.562 3 16.25V3.75q0-.312.219-.531Q3.438 3 3.75 3q.312 0 .531.219.219.219.219.531v12.5q0 .312-.219.531Q4.062 17 3.75 17Zm5.5 0v-1.5h1.5V17Zm0-3.167v-1.5h1.5v1.5ZM6 10.75v-1.5h1.5v1.5Zm3.167 0v-1.5h1.5v1.5Zm3.166 0v-1.5h1.5v1.5ZM9.25 7.5V6h1.5v1.5Zm0-3V3h1.5v1.5Zm7 12.5q-.312 0-.531-.219-.219-.219-.219-.531V3.75q0-.312.219-.531Q15.938 3 16.25 3q.312 0 .531.219.219.219.219.531v12.5q0 .312-.219.531-.219.219-.531.219Z"/></svg>