<svg xmlns="http://www.w3.org/2000/svg" height="20" viewBox="0 96 960 960" width="20"><path d="M804 625q-15.3-.957-25.65-11.478Q768 603 768 587.789q0-15.21 10.35-25.5Q788.7 552 804 552h30q-10-54-33-102t-57-88l-47 47q-10.636 11-24.818 11Q658 420 647 409q-11-11-11-25.182 0-14.182 11-24.818l47-47q-48-41-107-65.5T461 217q-14-1-22-12t-8-25q0-16 11.5-26t27.5-8q89 7 166 43.5T771 285q58 59 94.543 136.138Q902.086 498.275 909 586q2 16-9 27.5T873.462 625H804Zm-597-74q38 0 69 13t55 35l321 289h15q11 0 20-8t9-21.333Q696 852 694.5 845t-6.5-12L533 678l-59.063-177L411 516q-33 8-60.5-15T323 445v-67l-15-8-127.059 169.061Q180 540 178.5 543t-3.5 8h32Zm-1 72h-18l274 249q10 9 19.697 12.5T504 888h41L282.229 652.255Q268 639 247 630.5q-21-8.5-41-7.5Zm298.485 337q-26.152 0-49.501-8.833-23.35-8.834-42.03-26.5L140.228 677.333Q101 642 96 590t26.838-94.065L253 323q15-20 38.5-25.5T337 303l19.905 11.87Q375 324 385 339.485q10 15.484 10 35.192V446l66-16q26-7 49 6t31 38l54.826 164.766L738 782q17 17 23.5 36.219T768 859q0 42-29.5 71.5T667 960H504.485Z"/></svg>