<svg xmlns="http://www.w3.org/2000/svg" height="20" width="20"><path d="M3.5 16q-.625 0-1.062-.438Q2 15.125 2 14.5v-9q0-.625.438-1.062Q2.875 4 3.5 4h13q.625 0 1.062.438Q18 4.875 18 5.5v2.25q0 .312-.219.531-.219.219-.531.219-.312 0-.531-.219-.219-.219-.219-.531V5.5h-13v9h8.25q.312 0 .531.219.219.219.219.531 0 .312-.219.531-.219.219-.531.219Zm11.25 0q-.312 0-.531-.219Q14 15.562 14 15.25v-4.5q0-.312.219-.531.219-.219.531-.219h2.5q.312 0 .531.219.219.219.219.531v4.5q0 .312-.219.531-.219.219-.531.219ZM10 10Z"/></svg>