<svg xmlns="http://www.w3.org/2000/svg" height="20" width="20"><path d="M6 16.5v-2.75q0-.312.219-.531Q6.438 13 6.75 13H9.5v-2.75q0-.312.219-.531.219-.219.531-.219H13V6.75q0-.312.219-.531Q13.438 6 13.75 6h2.75V3.75q0-.312.219-.531Q16.938 3 17.25 3q.312 0 .531.219.219.219.219.531v3q0 .312-.219.531-.219.219-.531.219H14.5v2.75q0 .312-.219.531-.219.219-.531.219H11v2.75q0 .312-.219.531-.219.219-.531.219H7.5v2.75q0 .312-.219.531Q7.062 18 6.75 18h-3q-.312 0-.531-.219Q3 17.562 3 17.25q0-.312.219-.531.219-.219.531-.219Z"/></svg>