<svg xmlns="http://www.w3.org/2000/svg" height="20" width="20"><path d="M18.333 15.854 13.021 10.521 11.229 5.854Q11.104 5.542 10.76 5.271Q10.417 5 10 5Q9.583 5 9.24 5.26Q8.896 5.521 8.771 5.854L8.646 6.146L4.167 1.667H16.583Q17.312 1.667 17.823 2.177Q18.333 2.688 18.333 3.417ZM6.542 14.979Q6.792 14.979 7.01 14.823Q7.229 14.667 7.312 14.438L8.042 12.479H10.042L8.583 11.021L7.292 9.729L5.75 13.833Q5.583 14.312 5.812 14.646Q6.042 14.979 6.542 14.979ZM10.375 7.875 10.042 6.958H9.958L9.833 7.333ZM13.5 14.979Q13.812 14.979 14.031 14.76Q14.25 14.542 14.25 14.229L11.667 11.646L12.688 14.417Q12.792 14.667 13.01 14.823Q13.229 14.979 13.5 14.979ZM16.375 18.792 10.042 12.479 11.667 11.646 17.438 17.417Q17.208 17.833 16.802 18.083Q16.396 18.333 15.896 18.333H3.417Q2.688 18.333 2.177 17.823Q1.667 17.312 1.667 16.583V4.083Q1.667 4.083 1.667 4.083Q1.667 4.083 1.667 4.083L1.167 3.583Q1.042 3.458 0.979 3.302Q0.917 3.146 0.917 2.979Q0.917 2.812 0.979 2.656Q1.042 2.5 1.167 2.375Q1.417 2.125 1.781 2.125Q2.146 2.125 2.396 2.375L17.604 17.583Q17.854 17.833 17.854 18.188Q17.854 18.542 17.604 18.792Q17.354 19.042 16.99 19.042Q16.625 19.042 16.375 18.792Z"/></svg>