<svg xmlns="http://www.w3.org/2000/svg" height="20" viewBox="0 96 960 960" width="20"><path d="M228.211 864Q213 864 202.5 853.656 192 843.311 192 828.019V324.292Q192 309 202.289 298.5q10.29-10.5 25.5-10.5Q243 288 253.5 298.344q10.5 10.345 10.5 25.637v503.727Q264 843 253.711 853.5q-10.29 10.5-25.5 10.5Zm504 0Q717 864 706.5 853.656 696 843.311 696 828.019V324.292Q696 309 706.289 298.5q10.29-10.5 25.5-10.5Q747 288 757.5 298.344q10.5 10.345 10.5 25.637v503.727Q768 843 757.711 853.5q-10.29 10.5-25.5 10.5ZM347 768q-17 0-26.5-13t-3.5-29l121.154-321.378Q442 395 450 389.5t18.083-5.5h23.834Q502 384 510 389.727q8 5.728 12 15.273l121 322q5 15-3.692 28-8.691 13-24.244 13-10.064 0-18.564-5.5T585 747l-26.821-77H403l-27 78q-3 9-11 14.5t-18 5.5Zm76-154h115l-56-159h-3l-56 159Z"/></svg>