<svg xmlns="http://www.w3.org/2000/svg" height="20" viewBox="0 96 960 960" width="20"><path d="M265 935q-11 11-25 11t-25-11l-94.138-94.138Q110 830 110 815.818T121 791l94-94q11-11 25-11t25 10.522q11 11.478 11 26.145 0 14.666-11 25.333l-31 32h492l-32-32q-11-11-10.5-25.5T695 697q11-11 25-11t25 11l94.138 94.138Q850 802 850 816.182T839 841l-94 94q-11 11-25 11t-25-10.522Q684 924 684 909.333q0-14.666 11-25.333l31-32H234l32 32q11 11 10.5 25.5T265 935Zm32-358.213L433.037 214.82Q437 204 446.5 198t20.577-6h25.846q11.077 0 20.577 6.229Q523 204.458 527 215l136 362q7 17-3.263 32T631 624q-10.676 0-19.897-6.5Q601.882 611 598 600l-31-86H393.395l-31.21 87.411q-3.901 10.803-12.679 16.696Q340.728 624 330 624q-19 0-29.5-15.246t-3.5-31.967ZM416 451h129l-63.059-179H478l-62 179Z"/></svg>