<svg xmlns="http://www.w3.org/2000/svg" height="20" viewBox="0 96 960 960" width="20"><path d="M132.211 864Q117 864 106.5 853.656 96 843.311 96 828.019V324.292Q96 309 106.289 298.5q10.29-10.5 25.5-10.5Q147 288 157.5 298.344q10.5 10.345 10.5 25.637v503.727Q168 843 157.711 853.5q-10.29 10.5-25.5 10.5Zm696 0Q813 864 802.5 853.656 792 843.311 792 828.019V324.292Q792 309 802.289 298.5q10.29-10.5 25.5-10.5Q843 288 853.5 298.344q10.5 10.345 10.5 25.637v503.727Q864 843 853.711 853.5q-10.29 10.5-25.5 10.5ZM347 768q-17 0-26.5-13t-3.5-29l121.154-321.378Q442 395 450 389.5t18.083-5.5h23.834Q502 384 510 389.727q8 5.728 12 15.273l121 322q5 15-3.692 28-8.691 13-24.244 13-10.064 0-18.564-5.5T585 747l-26.821-77H403l-27 78q-3 9-11 14.5t-18 5.5Zm76-154h115l-56-159h-3l-56 159Z"/></svg>