<svg xmlns="http://www.w3.org/2000/svg" height="20" viewBox="0 -960 960 960" width="20"><path d="M324.211-240Q309-240 298.5-250.35 288-260.7 288-276v-156q-60 0-102-42t-42-102q0-60 42-102t101.503-42h252.435q15.326 0 25.694 10.289Q576-699.421 576-684.211q0 15.211-10.35 25.895-10.35 10.685-25.65 10.685h-36V-276q0 15.3-10.289 25.65-10.29 10.35-25.5 10.35Q453-240 442.5-250.35 432-260.7 432-276v-372h-72v372q0 15.3-10.289 25.65-10.29 10.35-25.5 10.35Zm395.669 33q-7.229 0-13.555-2.5Q700-212 695-217l-94-94q-11-11-10.5-25.5T602-362q11-11 25.5-11t25.5 11l31 32v-354.205Q684-699 694.289-709.5q10.29-10.5 25.5-10.5Q735-720 745.5-709.65 756-699.3 756-684v354l32.25-32.25Q799-373 813.5-373t25.978 11Q850-351 850-336.5t-10.843 25.32l-93.976 93.77q-5.422 5.41-11.747 7.91-6.326 2.5-13.554 2.5Z"/></svg>