<svg xmlns="http://www.w3.org/2000/svg" height="20" width="20"><path d="M10 18q-1.458 0-2.729-.552-1.271-.552-2.219-1.5t-1.5-2.219Q3 12.458 3 11q0-1.458.552-2.729.552-1.271 1.5-2.219t2.219-1.5Q8.542 4 10 4h.146l-.542-.542q-.229-.229-.229-.531 0-.302.229-.531.229-.229.531-.229.303 0 .532.229l1.812 1.833q.229.229.229.521 0 .292-.229.521l-1.833 1.833q-.229.229-.521.219-.292-.011-.521-.24-.229-.229-.229-.531 0-.302.229-.531l.521-.521H10q-2.292 0-3.896 1.604T4.5 11q0 2.292 1.604 3.896T10 16.5q2.104 0 3.667-1.396 1.562-1.396 1.791-3.479.042-.292.271-.458.229-.167.521-.167.312 0 .531.198.219.198.177.49-.27 2.708-2.25 4.51Q12.729 18 10 18Z"/></svg>