<svg xmlns="http://www.w3.org/2000/svg" height="20" width="20"><path d="M10 14q1.562 0 2.688-1.021 1.124-1.021 1.291-2.521.021-.187-.125-.323Q13.708 10 13.5 10t-.354.125q-.146.125-.188.313-.166 1.104-.989 1.833Q11.146 13 10 13q-1.25 0-2.125-.875T7 10q0-1.25.896-2.125T10.062 7l-.541.562q-.146.146-.156.344-.011.198.156.365.146.146.354.146t.354-.146l1.5-1.5q.104-.104.104-.271 0-.167-.104-.271l-1.5-1.5q-.146-.146-.344-.156-.197-.011-.364.156-.146.146-.146.354 0 .209.146.355l.541.562Q8.375 6 7.188 7.156 6 8.312 6 10q0 1.667 1.167 2.833Q8.333 14 10 14Zm0 4q-1.646 0-3.104-.625-1.458-.625-2.552-1.719t-1.719-2.552Q2 11.646 2 10q0-1.667.625-3.115.625-1.447 1.719-2.541Q5.438 3.25 6.896 2.625T10 2q1.667 0 3.115.625 1.447.625 2.541 1.719 1.094 1.094 1.719 2.541Q18 8.333 18 10q0 1.646-.625 3.104-.625 1.458-1.719 2.552t-2.541 1.719Q11.667 18 10 18Zm0-1.5q2.708 0 4.604-1.896T16.5 10q0-2.708-1.896-4.604T10 3.5q-2.708 0-4.604 1.896T3.5 10q0 2.708 1.896 4.604T10 16.5Zm0-6.5Z"/></svg>