<svg xmlns="http://www.w3.org/2000/svg" height="20" viewBox="0 -960 960 960" width="20"><path d="M489-312Zm-204.032 72Q266-240 253-253.164q-13-13.165-13-32.231V-309q0-20.696 10.231-38.928Q260.462-366.159 278-377q37-23 78-35.5t85-17.5q14-2 24.5 8.714Q476-410.571 476-396q0 15.179-10 26.09Q456-359 440.855-357 407-353 374-342q-33 11-62 30h170q15.3 0 25.65 10.289 10.35 10.29 10.35 25.5Q518-261 507.613-250.5 497.226-240 481.871-240H284.968ZM480-480q-51 0-85.5-34.5T360-600q0-50 34.5-85t85.5-35q50 0 85 35t35 85q0 51-35 85.5T480-480Zm0-72q20.4 0 34.2-13.8Q528-579.6 528-600q0-20.4-13.8-34.2Q500.4-648 480-648q-20.4 0-34.2 13.8Q432-620.4 432-600q0 20.4 13.8 34.2Q459.6-552 480-552Zm0-48Zm174 270q28 0 49-17t27.222-43Q732-398 737-403t13-5q8 0 13.5 5t3.722 12.652Q761-354 734.5-328T672-296.5v38.5q0 8-5 13t-13 5q-8 0-13-5t-5-13v-38.5q-36-5.5-62.5-31.5t-32.722-62.348Q539-398 544.7-403q5.7-5 13.3-5 8 0 13 5t6.778 13Q584-364 605-347t49 17Zm.113-30Q634-360 620-373.92T606-408v-72q0-20.16 13.887-34.08 13.888-13.92 34-13.92Q674-528 688-514.08T702-480v72q0 20.16-13.887 34.08-13.888 13.92-34 13.92ZM168-96q-29.7 0-50.85-21.15Q96-138.3 96-168v-132q0-15.3 10.289-25.65 10.29-10.35 25.5-10.35Q147-336 157.5-325.65 168-315.3 168-300v132h132q15.3 0 25.65 10.289 10.35 10.29 10.35 25.5Q336-117 325.65-106.5 315.3-96 300-96H168ZM96-660v-132q0-29.7 21.15-50.85Q138.3-864 168-864h132q15.3 0 25.65 10.289 10.35 10.29 10.35 25.5Q336-813 325.65-802.5 315.3-792 300-792H168v132q0 15.3-10.289 25.65-10.29 10.35-25.5 10.35Q117-624 106.5-634.35 96-644.7 96-660ZM792-96H660q-15.3 0-25.65-10.289-10.35-10.29-10.35-25.5Q624-147 634.35-157.5 644.7-168 660-168h132v-132q0-15.3 10.289-25.65 10.29-10.35 25.5-10.35Q843-336 853.5-325.65 864-315.3 864-300v132q0 29.7-21.15 50.85Q821.7-96 792-96Zm0-564v-132H660q-15.3 0-25.65-10.289-10.35-10.29-10.35-25.5Q624-843 634.35-853.5 644.7-864 660-864h132q29.7 0 50.85 21.15Q864-821.7 864-792v132q0 15.3-10.289 25.65-10.29 10.35-25.5 10.35Q813-624 802.5-634.35 792-644.7 792-660Z"/></svg>