<svg xmlns="http://www.w3.org/2000/svg" height="20" width="20"><path d="M9.25 11q.729 0 1.24-.51.51-.511.51-1.24t-.51-1.24q-.511-.51-1.24-.51t-1.24.51q-.51.511-.51 1.24t.51 1.24q.511.51 1.24.51Zm0 1.5q-1.354 0-2.302-.948T6 9.25q0-1.354.948-2.302T9.25 6q1.354 0 2.302.948T12.5 9.25q0 .458-.135.885-.136.427-.365.823l1.479 1.459q.229.229.229.521 0 .291-.229.52-.229.23-.531.23-.302 0-.531-.23L10.958 12q-.396.229-.823.365-.427.135-.885.135ZM4.5 17q-.625 0-1.062-.438Q3 16.125 3 15.5v-2.75q0-.312.219-.531Q3.438 12 3.75 12q.312 0 .531.219.219.219.219.531v2.75h2.75q.312 0 .531.219.219.219.219.531 0 .312-.219.531Q7.562 17 7.25 17Zm8.25 0q-.312 0-.531-.219Q12 16.562 12 16.25q0-.312.219-.531.219-.219.531-.219h2.75v-2.75q0-.312.219-.531.219-.219.531-.219.312 0 .531.219.219.219.219.531v2.75q0 .625-.438 1.062Q16.125 17 15.5 17Zm-9-9q-.312 0-.531-.219Q3 7.562 3 7.25V4.5q0-.625.438-1.062Q3.875 3 4.5 3h2.75q.312 0 .531.219Q8 3.438 8 3.75q0 .312-.219.531-.219.219-.531.219H4.5v2.75q0 .312-.219.531Q4.062 8 3.75 8Zm12.5 0q-.312 0-.531-.219-.219-.219-.219-.531V4.5h-2.75q-.312 0-.531-.219Q12 4.062 12 3.75q0-.312.219-.531Q12.438 3 12.75 3h2.75q.625 0 1.062.438Q17 3.875 17 4.5v2.75q0 .312-.219.531Q16.562 8 16.25 8Z"/></svg>