<svg xmlns="http://www.w3.org/2000/svg" height="20" width="20"><path d="M10 14q-1.312 0-2.344-.75-1.031-.75-1.448-1.938-.083-.208.032-.406.114-.198.322-.26.188-.063.365.031t.261.281q.354.896 1.093 1.469Q9.021 13 10 13q1.25 0 2.125-.875T13 10q0-1.25-.875-2.125T10 7q-.646 0-1.219.271-.573.271-1.031.729h.75q.208 0 .354.146T9 8.5q0 .208-.146.354T8.5 9H6.75q-.312 0-.531-.219Q6 8.562 6 8.25V6.5q0-.208.146-.354T6.5 6q.208 0 .354.146T7 6.5v.854q.583-.646 1.354-1Q9.125 6 10 6q1.667 0 2.833 1.167Q14 8.333 14 10q0 1.667-1.167 2.833Q11.667 14 10 14Zm-5.5 3q-.625 0-1.062-.438Q3 16.125 3 15.5v-2.75q0-.312.219-.531Q3.438 12 3.75 12q.312 0 .531.219.219.219.219.531v2.75h2.75q.312 0 .531.219.219.219.219.531 0 .312-.219.531Q7.562 17 7.25 17Zm8.25 0q-.312 0-.531-.219Q12 16.562 12 16.25q0-.312.219-.531.219-.219.531-.219h2.75v-2.75q0-.312.219-.531.219-.219.531-.219.312 0 .531.219.219.219.219.531v2.75q0 .625-.438 1.062Q16.125 17 15.5 17Zm-9-9q-.312 0-.531-.219Q3 7.562 3 7.25V4.5q0-.625.438-1.062Q3.875 3 4.5 3h2.75q.312 0 .531.219Q8 3.438 8 3.75q0 .312-.219.531-.219.219-.531.219H4.5v2.75q0 .312-.219.531Q4.062 8 3.75 8Zm12.5 0q-.312 0-.531-.219-.219-.219-.219-.531V4.5h-2.75q-.312 0-.531-.219Q12 4.062 12 3.75q0-.312.219-.531Q12.438 3 12.75 3h2.75q.625 0 1.062.438Q17 3.875 17 4.5v2.75q0 .312-.219.531Q16.562 8 16.25 8Z"/></svg>