<svg xmlns="http://www.w3.org/2000/svg" height="20" width="20"><path d="M4.5 17q-.625 0-1.062-.438Q3 16.125 3 15.5v-2.75q0-.312.219-.531Q3.438 12 3.75 12q.312 0 .531.219.219.219.219.531v2.75h2.75q.312 0 .531.219.219.219.219.531 0 .312-.219.531Q7.562 17 7.25 17Zm8.25 0q-.312 0-.531-.219Q12 16.562 12 16.25q0-.312.219-.531.219-.219.531-.219h2.75v-2.75q0-.312.219-.531.219-.219.531-.219.312 0 .531.219.219.219.219.531v2.75q0 .625-.438 1.062Q16.125 17 15.5 17Zm-6.125-7 1.167 1.167q.229.229.229.531 0 .302-.229.531-.23.229-.532.229-.302 0-.531-.229l-1.708-1.708q-.229-.229-.229-.521 0-.292.229-.521l1.708-1.708q.229-.229.531-.229.302 0 .532.229.229.229.229.531 0 .302-.229.531Zm6.75 0-1.167-1.167q-.229-.229-.229-.531 0-.302.229-.531.23-.229.532-.229.302 0 .531.229l1.708 1.708q.229.229.229.521 0 .292-.229.521l-1.708 1.708q-.229.229-.521.219-.292-.01-.521-.24-.229-.229-.229-.531 0-.302.229-.531ZM3.75 8q-.312 0-.531-.219Q3 7.562 3 7.25V4.5q0-.625.438-1.062Q3.875 3 4.5 3h2.75q.312 0 .531.219Q8 3.438 8 3.75q0 .312-.219.531-.219.219-.531.219H4.5v2.75q0 .312-.219.531Q4.062 8 3.75 8Zm12.5 0q-.312 0-.531-.219-.219-.219-.219-.531V4.5h-2.75q-.312 0-.531-.219Q12 4.062 12 3.75q0-.312.219-.531Q12.438 3 12.75 3h2.75q.625 0 1.062.438Q17 3.875 17 4.5v2.75q0 .312-.219.531Q16.562 8 16.25 8Z"/></svg>