<svg xmlns="http://www.w3.org/2000/svg" height="20" width="20"><path d="M9.375 8.292 7.688 6.583q-.126-.125-.188-.281-.062-.156-.062-.323V2.542q0-.354.26-.615.26-.26.614-.26h3.396q.354 0 .615.26.26.261.26.615v3.437q0 .167-.062.323-.063.156-.188.281l-1.708 1.709q-.25.25-.625.26-.375.01-.625-.26Zm4.646 4.27q-.167 0-.323-.062t-.281-.188l-1.709-1.687q-.27-.25-.26-.625.01-.375.26-.625l1.709-1.708q.125-.125.281-.188.156-.062.323-.062h3.437q.354 0 .615.26.26.261.26.615v3.396q0 .354-.26.614-.261.26-.615.26Zm-11.479 0q-.354 0-.615-.26-.26-.26-.26-.614V8.292q0-.354.26-.615.261-.26.615-.26H6q.167 0 .323.062.156.063.281.188l1.708 1.708q.25.25.24.625-.01.375-.26.625l-1.688 1.687q-.125.126-.281.188-.156.062-.323.062Zm5.77 5.771q-.354 0-.614-.26-.26-.261-.26-.615V14q0-.167.062-.323t.188-.281l1.687-1.688q.25-.25.625-.26.375-.01.625.24l1.708 1.708q.125.125.188.281.062.156.062.323v3.458q0 .354-.26.615-.261.26-.615.26Z"/></svg>