<svg xmlns="http://www.w3.org/2000/svg" height="20" viewBox="0 -960 960 960" width="20"><path d="M336-480h288v-48H336v48Zm144-144q14 0 25-10.35T516-660q0-14-11-25t-25.5-11q-14.5 0-25 11T444-659.5q0 14.5 10.35 25T480-624ZM263.79-192Q234-192 213-213.15T192-264v-312h-85q-14 0-17.5-12.5T97-609l343-228q17.84-12 39.92-12Q502-849 520-837l343 228q11 8 7.5 20.5T853-576h-85v312q0 29.7-21.1 50.85Q725.8-192 696.18-192h-35.92q-15.26 0-25.76-10.35Q624-212.7 624-228v-192H336v192q0 15.3-10.38 25.65Q315.24-192 299.89-192h-36.1Z"/></svg>