<svg xmlns="http://www.w3.org/2000/svg" height="20" viewBox="0 -960 960 960" width="20"><path d="M312-264v-312h336v312-312H312v312Zm-48-370v370h48v-276.32q0-14.68 10.35-25.18T348-576h264q15.3 0 25.65 10.35Q648-555.3 648-540v276h48v-369L480-777 264-634Zm96 162h240v-56H360v56Zm120-152q14 0 25-10.35T516-660q0-14-11-25t-25.5-11q-14.5 0-25 11T444-659.5q0 14.5 10.35 25T480-624ZM264-192q-29.7 0-50.85-21.15Q192-234.3 192-264v-312h-85q-14 0-17.5-12.5T97-609l343-228q17.84-12 39.92-12Q502-849 520-837l343 228q11 8 7.5 20.5T853-576h-85v312q0 29.7-21.15 50.85Q725.7-192 696-192h-60q-15.3 0-25.65-10.26Q600-212.52 600-227.69V-424H360v195.86q0 15.14-10.35 25.64T324-192h-60Z"/></svg>