<svg xmlns="http://www.w3.org/2000/svg" height="20" viewBox="0 96 960 960" width="20"><path d="M156 480v72q-29.7 0-50.85-21.15Q84 509.7 84 480h72Zm648 72v-72h72q0 30-21.15 51T804 552ZM84 408v-72h72v72H84Zm720 0v-72h72v72h-72ZM156 264H84q0-29.7 21.15-50.85Q126.3 192 156 192v72Zm72 288v-72h72v72h-72Zm432 0v-72h72v72h-72Zm144-288v-72q29.7 0 50.85 21.15Q876 234.3 876 264h-72Zm-576 0v-72h72v72h-72Zm144 0v-72h72v72h-72Zm144 0v-72h72v72h-72Zm144 0v-72h72v72h-72Zm-222 744q-21.882 0-41.941-8.5T361 976L160 775l38-38q11-11 24.5-14.5t27.5.5l86 22V420q0-15.3 10.289-25.65 10.29-10.35 25.5-10.35Q387 384 397.5 394.35 408 404.7 408 420v419l-112-30 116 116q5 5 11.5 8t14.82 3H612q34.65 0 59.325-24.675Q696 886.65 696 852V660q0-15.3 10.289-25.65 10.29-10.35 25.5-10.35Q747 624 757.5 634.35 768 644.7 768 660v192q0 65-45.5 110.5T612 1008H438Zm18-288V564q0-15.3 10.289-25.65 10.29-10.35 25.5-10.35Q507 528 517.5 538.35 528 548.7 528 564v156h-72Zm120 0V612.263Q576 597 586.289 586.5q10.29-10.5 25.5-10.5Q627 576 637.5 586.35 648 596.7 648 612v108h-72Zm36 216H412h200Z"/></svg>