<svg xmlns="http://www.w3.org/2000/svg" height="20" width="20"><path d="M9.625 17q-.292 0-.563-.104-.27-.104-.5-.334l-3.041-3.041q-.209-.209-.229-.479-.021-.271.146-.5l.124-.146q.167-.188.407-.261.239-.073.489.011L9 13V4.25q0-.521.365-.885Q9.729 3 10.25 3t.885.365q.365.364.365.885V9h1.667l3 1.5q.458.229.677.677.218.448.135.927l-.604 3.646q-.104.542-.521.896-.416.354-.958.354ZM3.75 8.5q-1.146 0-1.948-.792Q1 6.917 1 5.792q0-.667.26-1.136.261-.468 1.261-1.635l.667-.75Q3.417 2 3.75 2q.333 0 .562.271l.646.75Q6 4.208 6.25 4.667q.25.458.25 1.125 0 1.125-.802 1.916-.802.792-1.948.792Z"/></svg>