<svg xmlns="http://www.w3.org/2000/svg" height="20" viewBox="0 96 960 960" width="20"><path d="m726 720-72-72h78.094q15.26 0 25.583 10.289Q768 668.579 768 683.789 768 699 757.723 709.5 747.447 720 732.255 720H726ZM624 618 438 432h113.886V324q0-15.3 10.312-25.65Q572.511 288 587.755 288q15.245 0 25.614 10.35 10.369 10.35 10.369 25.65v108h108.196q15.328 0 25.697 10.35T768 468q0 15.269-10.35 25.599-10.35 10.329-25.65 10.329H624V618ZM408 402l-72-71.538v-6.26Q336 309 346.289 298.5q10.29-10.5 25.5-10.5Q387 288 397.5 298.323q10.5 10.323 10.5 25.583V402Zm144 347.7L522.3 720H408v108q0 15.3-10.35 25.65Q387.3 864 372 864q-15.3 0-25.65-10.35Q336 843.3 336 828V720H228q-15.3 0-25.65-10.35Q192 699.3 192 684q0-15.3 10.35-25.65Q212.7 648 228 648h108V533.7L306.3 504H228q-15.3 0-25.65-10.35Q192 483.3 192 468q0-15.3 10.277-25.65Q212.553 432 227.745 432H234L115 313q-11-10.909-11-25.455Q104 273 115 262q11-11 25.667-11 14.666 0 25.333 11l627.887 627.903Q805 901 805 915.571q0 14.572-10.929 25.5Q783.143 952 768.571 952 754 952 743 941L624 822v6.255q0 15.192-10.35 25.468Q603.3 864 588 864q-15.3 0-25.65-10.35Q552 843.3 552 828v-78.3Z"/></svg>