<svg xmlns="http://www.w3.org/2000/svg" height="20" viewBox="0 -960 960 960" width="20"><path d="M480-48q-182.618 0-307.309-67Q48-182 48-282.454q0-28.843 12-56.195Q72-366 97-392q24-25 58-45.5t77-36.5q14-5 27 1.5t18 21.468Q282-437 274.5-424T253-405q-30 11-55 25.5T156-348q-18 16-27 32.5t-9 33.5q0 64.8 107.5 113.4Q335-120 480-120t252.5-48.6Q840-217.2 840-282q0-17-9-33.5T804-348q-17-17-42-31.5T707-405q-14-6-21.5-19.182Q678-437.364 683-451q4.592-14.72 17.908-21.86Q714.224-480 728-474q38 14 69 32.5t55 39.5q29 27 44.5 57.343 15.5 30.343 15.5 62.178Q912-182 787.309-115 662.618-48 480-48Zm-84.5-144q-14.5 0-25-10.35T360-228v-372H228.023Q214-600 203-610.35T192-636q0-14 10.35-25T228-672h504q14 0 25 11t11 25.5q0 14.5-11 25T731.977-600H600v372q0 14-11 25t-25.5 11q-14.5 0-25-10.35T528-228v-156h-96v156q0 14-11 25t-25.5 11Zm84.252-540Q445-732 420.5-756.748t-24.5-59.5Q396-851 420.748-875.5t59.5-24.5Q515-900 539.5-875.252t24.5 59.5Q564-781 539.252-756.5t-59.5 24.5Z"/></svg>