<svg xmlns="http://www.w3.org/2000/svg" height="20" width="20"><path d="M7 15.25q0-.438.125-.844.125-.406.375-.76.167-.25.292-.531.125-.282.125-.594 0-.292-.125-.542l-.25-.5q-.23-.396-.386-.823Q7 10.229 7 9.771V6.875q0-.583-.406-.979t-.99-.396q-.375 0-.698.188-.323.187-.51.479.708.271 1.156.906Q6 7.708 6 8.5q0 1.042-.729 1.771Q4.542 11 3.5 11q-1.042 0-1.771-.729Q1 9.542 1 8.5q0-.875.531-1.542.531-.666 1.344-.875.25-.916 1-1.5Q4.625 4 5.625 4h.063q.979-.542 2.083-.771Q8.875 3 10 3t2.219.229q1.093.229 2.073.771h.083q1 0 1.75.583.75.584 1 1.5.813.209 1.344.875Q19 7.625 19 8.5q0 1.042-.729 1.771Q17.542 11 16.5 11q-1.042 0-1.771-.729Q14 9.542 14 8.5q0-.792.438-1.427.437-.635 1.145-.906-.187-.292-.5-.479-.312-.188-.687-.188-.563 0-.969.396t-.406.979v2.896q0 .458-.167.875-.166.416-.375.833-.146.25-.26.5-.115.25-.115.542 0 .312.115.594.114.281.302.531.229.354.364.771.136.416.136.833 0 .25-.042.51-.041.261-.146.49l-.333.833q-.104.417-.531.49l-.427.073q-.271-.208-.417-.511-.146-.302-.021-.614l.334-.813q.041-.104.062-.229.021-.125.021-.229 0-.229-.083-.438-.084-.208-.209-.395-.291-.417-.458-.917-.167-.5-.167-1.021 0-.417.146-.781.146-.365.354-.719.146-.291.281-.583.136-.292.136-.625V6.875q0-.604.219-1.125.218-.521.614-.917-.583-.166-1.166-.25Q10.604 4.5 10 4.5t-1.188.083q-.583.084-1.166.25.396.396.625.917.229.521.229 1.125v2.896q0 .333.125.625t.292.583q.187.354.343.719.157.364.157.781 0 .521-.167 1.011-.167.489-.458.927-.125.187-.209.395-.083.209-.083.438 0 .125.021.24.021.114.062.218l.334.813q.104.291-.021.583t-.417.396q-.291.104-.573-.01-.281-.115-.385-.407l-.333-.833q-.105-.229-.146-.49Q7 15.5 7 15.25Z"/></svg>