<svg xmlns="http://www.w3.org/2000/svg" height="20" viewBox="0 -960 960 960" width="20"><path d="M444-264q-61 0-105.5-41.5T289-408q-100 0-170.5-70.207Q48-548.415 48-648q0-29.7 21.15-50.85Q90.3-720 120-720h156v-48h-48q-15.3 0-25.65-10.289-10.35-10.29-10.35-25.5Q192-819 202.35-829.5 212.7-840 228-840h168q15.3 0 25.65 10.289 10.35 10.29 10.35 25.5Q432-789 421.65-778.5 411.3-768 396-768h-48v48h150q14.286 0 27.232 5.217Q538.179-709.565 548-700l322 310q42 42 42 102t-42 102q-42 42-102 42t-102-42l-82-78H444Zm-12-144h-70q5 31 28 51.5t54 20.5h64l-76-72Zm66-240H120q0 70 49 119t119 49h173l254 241q22 22 52 23t52-21q21-21.13 21-51.065T819-339L498-648Zm0 0Z"/></svg>