<svg xmlns="http://www.w3.org/2000/svg" height="20" viewBox="0 -960 960 960" width="20"><path d="M300-252q-65 0-110.5-45.5T144-408v-146q0-45 27-81t72-47q58-14 117.314-20 59.313-6 119.686-6 60.018 0 119.509 6T717-682q45 11 72 47t27 81v146q0 65-45.5 110.5T660-252h-37q-14.667 0-29.333-3Q579-258 565-263l-54-22q-14.842-6-30.921-6T449-285l-54 22q-14 5-28.667 8-14.666 3-29.333 3h-37Zm0-72h37q8.05 0 15.525-1.5T368-330q28-11 55.5-21.5T480-362q29 0 57 10.5t55 21.5q8 3 15.475 4.5T623-324h37q34.65 0 59.325-24.675Q744-373.35 744-408v-146.259Q744-574 731.5-590.5T699-612q-54-14-108.472-19-54.472-5-110.5-5T369.5-630.5Q315-625 261-612q-20 5-32.5 21.5T216-554.259V-408q0 34.65 24.675 59.325Q265.35-324 300-324ZM72-396q-10.4 0-17.2-6.8Q48-409.6 48-420v-120q0-10.4 6.8-17.2Q61.6-564 72-564q10.4 0 17.2 6.8Q96-550.4 96-540v120q0 10.4-6.8 17.2Q82.4-396 72-396Zm816 0q-10.4 0-17.2-6.8-6.8-6.8-6.8-17.2v-120q0-10.4 6.8-17.2 6.8-6.8 17.2-6.8 10.4 0 17.2 6.8 6.8 6.8 6.8 17.2v120q0 10.4-6.8 17.2-6.8 6.8-17.2 6.8Zm-588 72q-34.65 0-59.325-24.675Q216-373.35 216-408v-146.259Q216-574 228.5-590.5T261-612q54-13 108.304-18.5T480-636q56.038 0 110.519 5Q645-626 699-612q20 5 32.5 21.5t12.5 36.241V-408q0 34.65-24.675 59.325Q694.65-324 660-324h-37q-8.05 0-15.525-1.5T592-330q-27-11-55-21.5T480-362q-29 0-56.5 10.5T368-330q-8 3-15.475 4.5T337-324h-37Z"/></svg>