<svg xmlns="http://www.w3.org/2000/svg" height="20" width="20"><path d="M7.5 18q-.625 0-1.062-.438Q6 17.125 6 16.5V14H3.5q-.625 0-1.062-.438Q2 13.125 2 12.5v-1.75h5.104l1.271 1.917q.104.166.271.25Q8.812 13 9 13q.229 0 .406-.115.177-.114.282-.323l1.437-3.25.75 1.126q.104.166.271.239.166.073.354.073H18v1.75q0 .625-.438 1.062Q17.125 14 16.5 14H14v2.5q0 .625-.438 1.062Q13.125 18 12.5 18Zm1.375-7.292-.75-1.125q-.104-.166-.271-.25-.166-.083-.354-.083H2V7.5q0-.625.438-1.062Q2.875 6 3.5 6H6V3.5q0-.625.438-1.062Q6.875 2 7.5 2h5q.625 0 1.062.438Q14 2.875 14 3.5V6h2.5q.625 0 1.062.438Q18 6.875 18 7.5v1.75h-5.104l-1.271-1.917q-.104-.166-.271-.25Q11.188 7 11 7q-.229 0-.406.115-.177.114-.282.323Z"/></svg>