<svg xmlns="http://www.w3.org/2000/svg" height="20" width="20"><path d="M7.5 18q-.625 0-1.062-.438Q6 17.125 6 16.5V14H3.5q-.625 0-1.062-.438Q2 13.125 2 12.5v-5q0-.625.438-1.062Q2.875 6 3.5 6H6V3.5q0-.625.438-1.062Q6.875 2 7.5 2h5q.625 0 1.062.438Q14 2.875 14 3.5V6h2.5q.625 0 1.062.438Q18 6.875 18 7.5v5q0 .625-.438 1.062Q17.125 14 16.5 14H14v2.5q0 .625-.438 1.062Q13.125 18 12.5 18Zm-4-8.75h4q.188 0 .354.083.167.084.271.25l.75 1.125 1.437-3.27q.105-.209.282-.323Q10.771 7 11 7q.188 0 .354.083.167.084.271.25l1.271 1.917H16.5V7.5h-3.25q-.312 0-.531-.219-.219-.219-.219-.531V3.5h-5v3.25q0 .312-.219.531-.219.219-.531.219H3.5Zm0 1.5v1.75h3.25q.312 0 .531.219.219.219.219.531v3.25h5v-3.25q0-.312.219-.531.219-.219.531-.219h3.25v-1.75h-4q-.188 0-.354-.073-.167-.073-.271-.239l-.75-1.126-1.437 3.25q-.105.209-.282.323Q9.229 13 9 13q-.188 0-.354-.083-.167-.084-.271-.25L7.104 10.75Zm-1.5 0h1.5v1.75h3.25q.312 0 .531.219.219.219.219.531v3.25h5v-3.25q0-.312.219-.531.219-.219.531-.219h3.25v-1.75H18v-1.5h-1.5V7.5h-3.25q-.312 0-.531-.219-.219-.219-.219-.531V3.5h-5v3.25q0 .312-.219.531-.219.219-.531.219H3.5v1.75H2Z"/></svg>