<svg xmlns="http://www.w3.org/2000/svg" height="20" viewBox="0 -960 960 960" width="20"><path d="M480-644q-8 0-15-3t-12-9q-32-37-62.5-62.5T305-744q-57 0-97 40t-40 99q0 29 10 58.5t38 68q28 38.5 77 88.5t127 120l60 53 57-51q50-45 101-93.5t89-94.5h-31q-15 0-25.5-10.5T660-492q0-15 10.5-25.5T696-528h132q15 0 25.5 10.5T864-492v132q0 15-10.5 25.5T828-324q-15 0-25.5-10.5T792-360l1-63q-38 50-91.5 101.5T601-228l-73 65q-11 9-23 13.5t-25 4.5q-13 0-25-4.5T432-163l-73-65q-74-66-124.5-117t-81-95q-30.5-44-44-83.5T96-605q0-89 60.5-150T305-816q50 0 96.5 21t78.5 59q32-38 77-59t94-21q41 0 77 14t65 40q31 28 51 64t20 76q0 14-11 22.5t-25 8.5q-14 0-24.5-10T791-626q-7-52-46.5-85T651-744q-54 0-83.5 26T507-656q-5 6-12 9t-15 3Z"/></svg>