<svg xmlns="http://www.w3.org/2000/svg" height="20" viewBox="0 96 960 960" width="20"><path d="m734 641 110-110q10.909-11 25.455-11Q884 520 895 531q11 11 11 25.667 0 14.666-11 25.333L759 717q-10.667 11-25.333 11Q719 728 708 717l-67-68q-11-10.636-11-24.818Q630 610 641 599q11-11 25.5-11t25.5 11l42 42Zm-302-65ZM324 840q-79-70-132-124t-85-99q-32-45-45.5-84.5T48 451q0-89 60.5-150T257 240q50 0 96.5 21t78.5 59q32.3-38.095 76.95-59.048Q553.6 240 603 240q78 0 136.5 47.5T812 408h-75q-14-42-50-69t-84-27q-57 0-87.5 28.5T452 408h-40q-34-40-65.5-68T257 312q-57 0-97 40t-40 99q0 31.366 12.5 63.683t47 75.817q34.5 43.5 95 103T432 839q25-22 73.5-65t68.5-62l8.053 8.053L599.5 737.5l17.447 17.447L625 763q-21 20-46 42t-41 36l-82 74q-11 9-24 9t-24-9l-84-75Z"/></svg>