<svg xmlns="http://www.w3.org/2000/svg" height="20" width="20"><path d="M10 10ZM9.333 14.167V11.604L7.521 13.417Q7.917 13.729 8.385 13.906Q8.854 14.083 9.333 14.167ZM10.667 14.146Q11.167 14.104 11.625 13.906Q12.083 13.708 12.479 13.417L10.667 11.604ZM13.417 12.479Q13.708 12.062 13.906 11.615Q14.104 11.167 14.146 10.667H11.604ZM11.604 9.333H14.125Q14.083 8.833 13.906 8.375Q13.729 7.917 13.417 7.521ZM10.667 8.396 12.479 6.583Q12.062 6.292 11.604 6.104Q11.146 5.917 10.667 5.833ZM10 10.792Q10.333 10.792 10.562 10.562Q10.792 10.333 10.792 10Q10.792 9.667 10.562 9.438Q10.333 9.208 10 9.208Q9.667 9.208 9.438 9.438Q9.208 9.667 9.208 10Q9.208 10.333 9.438 10.562Q9.667 10.792 10 10.792ZM9.333 8.396V5.833Q8.833 5.896 8.385 6.094Q7.938 6.292 7.521 6.583ZM5.854 9.333H8.396L6.583 7.521Q6.292 7.938 6.104 8.385Q5.917 8.833 5.854 9.333ZM6.604 12.458 8.396 10.667H5.854Q5.896 11.167 6.104 11.615Q6.312 12.062 6.604 12.458ZM4.25 17.5Q3.521 17.5 3.01 16.99Q2.5 16.479 2.5 15.75V4.25Q2.5 3.521 3.01 3.01Q3.521 2.5 4.25 2.5H15.75Q16.479 2.5 16.99 3.01Q17.5 3.521 17.5 4.25V15.75Q17.5 16.479 16.99 16.99Q16.479 17.5 15.75 17.5Z"/></svg>