<svg xmlns="http://www.w3.org/2000/svg" height="20" viewBox="0 96 960 960" width="20"><path d="M206 453q-32 29-54 66t-32 81h240V385q-45 4-83.5 21.5T206 453Zm-86 315h384V384l-72 1v215.25q0 29.597-21.15 50.673Q389.7 672 360 672H120v96Zm456-129 264-31v-56H576v87ZM156 960q-15.3 0-25.65-10.289-10.35-10.29-10.35-25.5Q120 909 130.35 898.5 140.7 888 156 888h312q15.3 0 25.65 10.289 10.35 10.29 10.35 25.5Q504 939 493.65 949.5 483.3 960 468 960H156Zm-36-120q-29.7 0-50.85-21.15Q48 797.7 48 768V648q0-140 98-238t238-98h120q29.7 0 50.85 21.15Q576 354.3 576 384v96h240l16-47q4-11 13.677-18 9.678-7 20.323-7h10q15.3 0 25.65 10.35Q912 428.7 912 444v164q0 27.737-18.5 47.868Q875 676 848 679l-272 32v57q0 29.7-21.15 50.85Q533.7 840 504 840H120Zm60.292-576Q165 264 154.5 253.711q-10.5-10.29-10.5-25.5Q144 213 154.344 202.5q10.345-10.5 25.637-10.5h503.727Q699 192 709.5 202.289q10.5 10.29 10.5 25.5Q720 243 709.656 253.5 699.311 264 684.019 264H180.292ZM576 639v-87 87Zm-72 129Zm72-129v-87 87Z"/></svg>