<svg xmlns="http://www.w3.org/2000/svg" height="20" width="20"><path d="M10.75 19q-1.458 0-2.354-1.219Q7.5 16.562 7.5 15t.896-2.781Q9.292 11 10.75 11q1.458 0 2.354 1.219Q14 13.438 14 15t-.896 2.781Q12.208 19 10.75 19ZM5.5 10q0 1.938-.302 3.812-.302 1.876-.948 3.688-.104.312-.406.469-.302.156-.594.031-.312-.125-.396-.448-.083-.323.021-.656.583-1.667.854-3.396Q4 11.771 4 10t-.271-3.5q-.271-1.729-.854-3.396-.104-.333-.01-.656.093-.323.385-.448.292-.125.594.042.302.166.406.479.667 1.812.958 3.687Q5.5 8.083 5.5 10ZM16 10q0 1.771.271 3.5t.875 3.396q.104.333 0 .656T16.75 18q-.292.125-.594-.042-.302-.166-.406-.479-.667-1.812-.958-3.687Q14.5 11.917 14.5 10q0-1.938.302-3.812.302-1.876.948-3.688.104-.312.406-.469.302-.156.594-.031.312.125.396.448.083.323-.021.656-.583 1.667-.854 3.396Q16 8.229 16 10Zm-5.25 7.5q.854 0 1.302-.771.448-.771.448-1.729 0-.958-.448-1.729-.448-.771-1.302-.771-.854 0-1.302.771Q9 14.042 9 15q0 .958.448 1.729.448.771 1.302.771Zm.062-1.125q.334-.25.511-.604T11.5 15q0-.417-.188-.781-.187-.365-.5-.615-.166-.125-.354-.104-.187.021-.333.188-.146.166-.125.354.021.187.188.333.145.125.229.281.083.156.083.344 0 .188-.083.344-.084.156-.229.26-.167.125-.188.334-.021.208.104.374.125.167.334.178.208.01.374-.115ZM9.25 9Q7.792 9 6.896 7.781 6 6.562 6 5t.896-2.781Q7.792 1 9.25 1q1.458 0 2.354 1.219Q12.5 3.438 12.5 5t-.896 2.781Q10.708 9 9.25 9Zm0-1.5q.854 0 1.302-.771Q11 5.958 11 5q0-.958-.448-1.729Q10.104 2.5 9.25 2.5q-.854 0-1.302.771Q7.5 4.042 7.5 5q0 .958.448 1.729.448.771 1.302.771Zm-.062-1.104q.166.125.364.104.198-.021.323-.188.146-.166.125-.354-.021-.187-.188-.333-.145-.125-.229-.281Q9.5 5.188 9.5 5q0-.188.083-.344.084-.156.229-.26.167-.125.188-.333.021-.209-.104-.375-.146-.167-.344-.198-.198-.032-.364.114-.313.271-.5.625Q8.5 4.583 8.5 5q0 .417.188.781.187.365.5.615ZM9.25 5Zm1.5 10Z"/></svg>