<svg xmlns="http://www.w3.org/2000/svg" height="20" viewBox="0 -960 960 960" width="20"><path d="M228-696h504q15 0 25.5 10.5T768-660q0 15-10.5 25.5T732-624H228q-15 0-25.5-10.5T192-660q0-15 10.5-25.5T228-696Zm96-120h312q15 0 25.5 10.5T672-780q0 15-10.5 25.5T636-744H324q-15 0-25.5-10.5T288-780q0-15 10.5-25.5T324-816Zm-90 312 18 80.5Q270-343 298-216l-64-288Zm248 360H269q-13 0-22.5-8T234-172l-80-360q-4-17 7-30.5t28-13.5h582q17 0 28 13.5t7 30.5l-6 28H234l64 288h168q2 20 6 37.5t10 34.5Zm203 41q-14-5-26.5-11.5T635-131l-32 10q-11 3-20.5-1T568-135l-8-13q-5-9-4-19.5t9-18.5l24-23q-3-14-3-29t3-29l-23-22q-8-8-9.5-18t3.5-20l8-13q5-10 15-14t21-1l30 9q11-11 24-18t27-11l7-32q2-11 11-17.5t20-6.5h14q11 0 20 6.5t11 17.5l7 32q14 5 27.5 11.5T826-346l31-9q11-3 20.5 1.5T892-340l8 13q5 9 3.5 19.5T894-289l-22 21q3 14 2.5 29.5T871-209l23 22q8 8 9.5 18.5T900-149l-8 13q-5 9-14.5 13t-20.5 1l-32-9q-11 10-23.5 16.5T775-103l-8 32q-2 11-10.5 17.5T737-47h-15q-11 0-19.5-7T692-72l-7-31Zm97-85q21-21 21-51t-21-51q-21-21-51-21t-51 21q-21 21-21 51t21 51q21 21 51 21t51-21Z"/></svg>