<svg xmlns="http://www.w3.org/2000/svg" height="20" viewBox="0 -960 960 960" width="20"><path d="M708-432q15.3 0 25.65-10.289 10.35-10.29 10.35-25.5Q744-483 733.65-493.5 723.3-504 708-504H564q-15.3 0-25.65 10.289-10.35 10.29-10.35 25.5Q528-453 538.35-442.5 548.7-432 564-432h144Zm0-120q15.3 0 25.65-10.289 10.35-10.29 10.35-25.5Q744-603 733.65-613.5 723.3-624 708-624H564q-15.3 0-25.65 10.289-10.35 10.29-10.35 25.5Q528-573 538.35-562.5 548.7-552 564-552h144Zm-372.5 96q-28.5 0-53 5.5T236-434q-20 11-32 28.135-12 17.134-12 36.865 0 14.143 8.5 23.571Q209-336 220-336h232q11 0 19.5-9.35T480-369q0-20-12-36.5T436-433q-23-11-47.5-17t-53-6Zm.712-24Q366-480 387-501.212q21-21.213 21-51Q408-582 386.788-603q-21.213-21-51-21Q306-624 285-602.788q-21 21.213-21 51Q264-522 285.212-501q21.213 21 51 21ZM168-192q-29.7 0-50.85-21.162Q96-234.324 96-264.04v-432.243Q96-726 117.15-747T168-768h624q29.7 0 50.85 21.162Q864-725.676 864-695.96v432.243Q864-234 842.85-213T792-192H168Zm0-72h624v-432H168v432Zm0 0v-432 432Z"/></svg>