<svg xmlns="http://www.w3.org/2000/svg" height="20" width="20"><path d="M3.5 16q-.625 0-1.062-.438Q2 15.125 2 14.5v-9q0-.625.458-1.062Q2.917 4 3.562 4h.23v1.896L1.688 3.792q-.23-.23-.219-.521.01-.292.239-.521.23-.229.521-.229.292 0 .521.229l14.5 14.5q.229.229.229.521 0 .291-.229.521-.229.229-.531.239-.302.011-.531-.219L13.875 16Zm0-1.5h8.875L4.875 7H3.5v7.5Zm14.125 1L16.5 14.375V7H9.125l-3-3H16.5q.625 0 1.062.438Q18 4.875 18 5.5v9q0 .292-.104.562-.104.271-.271.438ZM15 12.875 10.625 8.5h3.625q.312 0 .531.219.219.219.219.531Z"/></svg>