<svg xmlns="http://www.w3.org/2000/svg" height="20" viewBox="0 -960 960 960" width="20"><path d="M752.81-795.19 843-705q20 21.82 20 50.91Q863-625 843-603L675-435q-11 11-26 10.5T623.5-436Q613-447 613-461.18T624-486l168-168-90-91-167 168q-10.67 11-25.33 11Q495-566 484-576.93q-11-10.93-11-25.5T484-628l167-167q21-21 51-21t50.81 20.81ZM794-116q-10.67 11-25.33 11-14.67 0-25.65-10.98L549-309 407-167q-22 20-50.5 21.5T308-164q-10 10-22 15t-25.9 5H139q-12 0-16-11.5t4-19.5l85-85q-21-20-20-49.5t23-49.5l142-142-242-242q-11-10.67-11-25.33Q104-783 115-794q11-11 25.67-11 14.66 0 25.33 11l627.92 627.92Q805-155 805-140.82q0 14.18-11 24.82ZM265-308l91 91 142-143-90-91-143 143Zm290-199ZM453-405Z"/></svg>