<svg xmlns="http://www.w3.org/2000/svg" height="20" width="20"><path d="M9.25 9.875v7.375q0 .312.219.531Q9.688 18 10 18q.312 0 .531-.219.219-.219.219-.531V9.875l1.667 1.667q.229.229.531.218.302-.01.531-.239.229-.229.229-.531 0-.302-.229-.532l-2.958-2.937q-.229-.229-.521-.229-.292 0-.521.229l-2.958 2.958q-.229.229-.219.521.01.292.24.521.229.229.531.229.302 0 .531-.229ZM10 3.5q-2.708 0-4.604 1.896T3.5 10q0 .729.156 1.427.156.698.469 1.365.146.291.094.614-.052.323-.281.552-.23.23-.553.125-.323-.104-.489-.416-.438-.855-.667-1.782Q2 10.958 2 10q0-1.667.625-3.115.625-1.447 1.719-2.541Q5.438 3.25 6.896 2.625T10 2q1.667 0 3.115.625 1.447.625 2.541 1.719 1.094 1.094 1.719 2.541Q18 8.333 18 10q0 .979-.24 1.906-.239.927-.698 1.802-.166.292-.458.386-.292.094-.521-.136-.229-.229-.291-.562-.063-.334.083-.625.292-.667.458-1.354.167-.688.167-1.417 0-2.708-1.896-4.604T10 3.5Z"/></svg>