<svg xmlns="http://www.w3.org/2000/svg" height="20" width="20"><path d="M6.333 7.125q.042.104.167.104t.167-.104l.458-1 1-.458q.104-.042.104-.167t-.104-.167l-1-.458-.458-1q-.042-.104-.167-.104t-.167.104l-.458 1-1 .458q-.104.042-.104.167t.104.167l1 .458ZM14 5.5q.417 0 .708-.292Q15 4.917 15 4.5t-.292-.708Q14.417 3.5 14 3.5t-.708.292Q13 4.083 13 4.5t.292.708q.291.292.708.292ZM5.75 19q-.312 0-.531-.219Q5 18.562 5 18.25v-1.042q0-.562.292-1.052.291-.489.812-.739.917-.438 1.896-.677.979-.24 2-.24t2 .24q.979.239 1.896.677.521.25.812.739.292.49.292 1.052v1.042q0 .312-.219.531-.219.219-.531.219ZM10 13.5q-1.042 0-1.771-.729Q7.5 12.042 7.5 11q0-1.042.729-1.771Q8.958 8.5 10 8.5q1.042 0 1.771.729.729.729.729 1.771 0 1.042-.729 1.771-.729.729-1.771.729ZM3.5 11q-.625 0-1.062-.438Q2 10.125 2 9.5v-7q0-.625.438-1.062Q2.875 1 3.5 1h13q.625 0 1.062.438Q18 1.875 18 2.5v7q0 .625-.438 1.062Q17.125 11 16.5 11h-3q0-1.438-1.021-2.469T10 7.5q-1.458 0-2.479 1.031Q6.5 9.562 6.5 11Z"/></svg>