<svg xmlns="http://www.w3.org/2000/svg" height="20" width="20"><path d="M10 6Zm-6.5 5q-.625 0-1.062-.438Q2 10.125 2 9.5v-7q0-.625.438-1.062Q2.875 1 3.5 1h13q.625 0 1.062.438Q18 1.875 18 2.5v7q0 .625-.438 1.062Q17.125 11 16.5 11h-3q0-.417-.083-.781-.084-.365-.25-.719H16.5v-7h-13v7h3.333q-.166.354-.25.719-.083.364-.083.781Zm2.375-4.875.458 1q.042.104.167.104t.167-.104l.458-1 1-.458q.104-.042.104-.167t-.104-.167l-1-.458-.458-1q-.042-.104-.167-.104t-.167.104l-.458 1-1 .458q-.104.042-.104.167t.104.167ZM14 5.5q.417 0 .708-.292Q15 4.917 15 4.5t-.292-.708Q14.417 3.5 14 3.5t-.708.292Q13 4.083 13 4.5t.292.708q.291.292.708.292ZM5.75 19q-.312 0-.531-.219Q5 18.562 5 18.25v-1.042q0-.562.292-1.052.291-.489.812-.739.917-.438 1.896-.677.979-.24 2-.24t2 .24q.979.239 1.896.677.521.25.812.739.292.49.292 1.052v1.042q0 .312-.219.531-.219.219-.531.219Zm.75-1.5h7v-.271q0-.146-.073-.271-.073-.125-.198-.187-.75-.375-1.562-.573Q10.854 16 10 16q-.854 0-1.656.198-.802.198-1.573.552-.125.062-.198.188-.073.124-.073.27Zm3.5-4q-1.042 0-1.771-.729Q7.5 12.042 7.5 11q0-1.042.729-1.771Q8.958 8.5 10 8.5q1.042 0 1.771.729.729.729.729 1.771 0 1.042-.729 1.771-.729.729-1.771.729Zm0-1.5q.417 0 .708-.292Q11 11.417 11 11t-.292-.708Q10.417 10 10 10t-.708.292Q9 10.583 9 11t.292.708Q9.583 12 10 12Zm0-1Zm0 6.5Z"/></svg>