<svg xmlns="http://www.w3.org/2000/svg" height="20" viewBox="0 -960 960 960" width="20"><path d="M480-48q-20 0-34-14t-14-34q0-20 14-34t34-14q20 0 34 14t14 34q0 20-14 34t-34 14ZM312-90q-20 0-34-14t-14-34q0-20 14-34t34-14q20 0 34 14t14 34q0 20-14 34t-34 14Zm336 0q-20 0-34-14t-14-34q0-20 14-34t34-14q20 0 34 14t14 34q0 20-14 34t-34 14ZM204-204q-20 0-34-14t-14-34q0-20 14-34t34-14q20 0 34 14t14 34q0 20-14 34t-34 14Zm276-12q-89 0-152.5-60T264-424q0-82 54.5-159.5T439-727q17-17 41.5-17.5T522-728q66 66 120 144t54 160q0 88-63.5 148T480-216Zm276 12q-20 0-34-14t-14-34q0-20 14-34t34-14q20 0 34 14t14 34q0 20-14 34t-34 14ZM581.5-327q42.5-39 42.5-96 0-65-48-128t-96-117q-48 54-96 117t-48 128q0 57 42.5 96T480-288q59 0 101.5-39ZM480-360q29 0 50.5-21t21.5-51q0-29-21.5-50.5T480-504q-30 0-51 21.5T408-432q0 30 21 51t51 21Zm0-72Zm0-384q-20 0-34-14t-14-34q0-20 14-34t34-14q20 0 34 14t14 34q0 20-14 34t-34 14Z"/></svg>