<svg xmlns="http://www.w3.org/2000/svg" height="20" viewBox="0 96 960 960" width="20"><path d="M444 417v-14q-42.24-12.323-69.12-46.922Q348 321.479 348 275.979 348 221 386.722 182.5t93.5-38.5Q535 144 573.5 182.601q38.5 38.601 38.5 93.208 0 45.191-26.88 79.993Q558.24 390.605 516 403v14l264 153q17.1 9.625 26.55 25.812Q816 612 816 632v104q0 20-9.45 36.188Q797.1 788.375 780 798L516 951q-17.131 10-36.066 10Q461 961 444 951L180 798q-17.1-9.625-26.55-25.812Q144 756 144 736V632q0-20 9.45-36.188Q162.9 579.625 180 570l264-153Zm0 231V501L251 612l229 132 230-132-194-111v147h-72Z"/></svg>