<svg xmlns="http://www.w3.org/2000/svg" height="20" width="20"><path d="M10.5 9.5h.75q.312 0 .531.219.219.219.219.531 0 .312-.219.531-.219.219-.531.219h-1.5q-.312 0-.531-.219Q9 10.562 9 10.25v-1.5q0-.312.219-.531Q9.438 8 9.75 8q.312 0 .531.219.219.219.219.531Zm6 0v-.75q0-.312.219-.531Q16.938 8 17.25 8q.312 0 .531.219.219.219.219.531v1.5q0 .312-.219.531-.219.219-.531.219h-1.5q-.312 0-.531-.219Q15 10.562 15 10.25q0-.312.219-.531.219-.219.531-.219Zm-6-6v.75q0 .312-.219.531Q10.062 5 9.75 5q-.312 0-.531-.219Q9 4.562 9 4.25v-1.5q0-.312.219-.531Q9.438 2 9.75 2h1.5q.312 0 .531.219.219.219.219.531 0 .312-.219.531-.219.219-.531.219Zm6 0h-.75q-.312 0-.531-.219Q15 3.062 15 2.75q0-.312.219-.531Q15.438 2 15.75 2h1.5q.312 0 .531.219.219.219.219.531v1.5q0 .312-.219.531Q17.562 5 17.25 5q-.312 0-.531-.219-.219-.219-.219-.531Zm-9 10.062-3.917 3.917q-.229.229-.521.219-.291-.01-.52-.24-.23-.229-.23-.531 0-.302.23-.531L6.438 12.5H3.75q-.312 0-.531-.219Q3 12.062 3 11.75q0-.312.219-.531Q3.438 11 3.75 11h4.5q.312 0 .531.219.219.219.219.531v4.5q0 .312-.219.531Q8.562 17 8.25 17q-.312 0-.531-.219-.219-.219-.219-.531Z"/></svg>