<svg xmlns="http://www.w3.org/2000/svg" height="20" viewBox="0 -960 960 960" width="20"><path d="M552-744H408v91L300-761q-6-5.882-9-12.941-3-7.059-3-12.743 0-12.316 8.455-20.816Q304.909-816 319-816h317q15.3 0 25.65 10.473Q672-795.054 672-779.571 672-765 661.5-754.5 651-744 636-744h-12v228q0 15.3-10.289 25.65-10.29 10.35-25.5 10.35Q573-480 562.5-490.35 552-500.7 552-516v-228ZM444-84v-228H291q-23.182 0-37.091-15Q240-342 240-362q0-10 4.5-20.5T258-402l78-78v-42L115-743q-11-11-11-25t11-25q11-11 25.5-11t25.5 11l627.903 627.903Q805-154 805-140q0 14-11 25.478Q783-104 768.5-104T743-115L546-312h-30v228q0 15.3-10.289 25.65Q495.421-48 480.211-48 465-48 454.5-58.35 444-68.7 444-84ZM342-384h132l-66-66-66 66Zm137-192Zm-71 126Z"/></svg>