<svg xmlns="http://www.w3.org/2000/svg" height="20" viewBox="0 96 960 960" width="20"><path d="m748.905 934.889-627.81-627.778Q110 296 110 282t11-25q11-11 25.667-11 14.666 0 25.333 11l627.887 627.903Q811 896 810.5 910q-.5 14-11.5 25t-25 11q-14 0-25.095-11.111ZM636 720l-72-72H372q-15.3 0-25.65 10.289-10.35 10.29-10.35 25.5Q336 699 346.35 709.5 356.7 720 372 720h264ZM240 600h72v-72h-72v72Zm102 0h72v-72h-72v72Zm306 0h72v-72h-72v72Zm-408-96h72v-72h-72v72Zm306 0h72v-72h-72v72Zm102 0h72v-72h-72v72ZM168 816q-29.7 0-50.85-21.15Q96 773.7 96 744V408q0-29.7 21.15-50.85Q138.3 336 168 336h84l480 480H168Zm658-8L618 599v-71h-72l-30-31v-65h-66l-95-96h436.9q30.1 0 51.1 21.15T864 408v336q0 20.778-10.5 37.889Q843 799 826 808Z"/></svg>