<svg xmlns="http://www.w3.org/2000/svg" height="20" viewBox="0 -960 960 960" width="20"><path d="M594-516q-10 0-18.114 4.533Q567.773-506.933 563-499l50 50q7.933-4.773 12.467-12.886Q630-470 630-480q0-15.3-10.35-25.65Q609.3-516 594-516Zm-243 36Zm183 156H372q-15.3 0-25.65-10.289-10.35-10.29-10.35-25.5Q336-375 346.35-385.5 356.7-396 372-396h162v72ZM776.648-81.352 81.352-776.648Q70-788 70-802.667 70-817.333 81-828q10.91-11 25.455-11 14.545 0 25.897 11.337l695.296 695.326Q839-121 839-106.429q0 14.572-10.929 25.5Q817.143-70 802.571-70 788-70 776.648-81.352ZM792-756q29.7 0 50.85 21.15Q864-713.7 864-684v212q0 18-11.25 27T828-436q-13.5 0-24.75-9T792-472v-212H393q-17 0-26.5-11.25T357-720q0-13.5 9-24.75T393-756h399ZM167.723-204Q138-204 117-225.15T96-276v-408q0-29.7 21.15-50.85Q138.3-756 168-756h36l72 72H168v408h324q15.3 0 25.65 10.289 10.35 10.29 10.35 25.5Q528-225 517.642-214.5q-10.358 10.5-25.67 10.5H167.723ZM624-84q-9.882 0-16.941-7.059Q600-98.118 600-108v-144q0-9.882 7.059-16.941Q614.118-276 624-276h60l108 108v84H624Zm216-138-84-84v-18q0-15.3-10.35-25.65Q735.3-360 720-360q-3.808 0-7.404.5T705-357l-26-26q9-6 19.333-9.5Q708.667-396 720-396q29.7 0 50.85 21.15Q792-353.7 792-324v48h24q9.882 0 16.941 7.059Q840-261.882 840-252v30ZM252.211-564Q237-564 226.5-574.289q-10.5-10.29-10.5-25.5Q216-615 226.289-625.5q10.29-10.5 25.5-10.5Q267-636 277.5-625.711q10.5 10.29 10.5 25.5Q288-585 277.711-574.5q-10.29 10.5-25.5 10.5Zm0 120Q237-444 226.5-454.289q-10.5-10.29-10.5-25.5Q216-495 226.289-505.5q10.29-10.5 25.5-10.5Q267-516 277.5-505.711q10.5 10.29 10.5 25.5Q288-465 277.711-454.5q-10.29 10.5-25.5 10.5Zm114 0Q351-444 340.5-454.289q-10.5-10.29-10.5-25.5Q330-495 340.289-505.5q10.29-10.5 25.5-10.5Q381-516 391.5-505.711q10.5 10.29 10.5 25.5Q402-465 391.711-454.5q-10.29 10.5-25.5 10.5Zm227.578-120Q609-564 619.5-574.289q10.5-10.29 10.5-25.5Q630-615 619.711-625.5q-10.29-10.5-25.5-10.5Q579-636 568.5-625.711q-10.5 10.29-10.5 25.5Q558-585 568.289-574.5q10.29 10.5 25.5 10.5Zm114 0Q723-564 733.5-574.289q10.5-10.29 10.5-25.5Q744-615 733.711-625.5q-10.29-10.5-25.5-10.5Q693-636 682.5-625.711q-10.5 10.29-10.5 25.5Q672-585 682.289-574.5q10.29 10.5 25.5 10.5Zm.422 57Q693-507 682.5-496.711q-10.5 10.29-10.5 25.5Q672-456 682.289-445.5q10.29 10.5 25.5 10.5Q723-435 733.5-445.289q10.5-10.29 10.5-25.5Q744-486 733.711-496.5q-10.29-10.5-25.5-10.5ZM480-636q-11 0-19.5 6T447-615l48 48q9-5 15-13.5t6-19.5q0-15.3-10.35-25.65Q495.3-636 480-636Zm20 74Z"/></svg>