<svg xmlns="http://www.w3.org/2000/svg" height="20" viewBox="0 96 960 960" width="20"><path d="M324 756q-15.3 0-25.65-10.289-10.35-10.29-10.35-25.5Q288 705 298.35 694.5 308.7 684 324 684h312q15.3 0 25.65 10.289 10.35 10.29 10.35 25.5Q672 735 661.65 745.5 651.3 756 636 756H324ZM192.211 468Q177 468 166.5 457.711q-10.5-10.29-10.5-25.5Q156 417 166.289 406.5q10.29-10.5 25.5-10.5Q207 396 217.5 406.289q10.5 10.29 10.5 25.5Q228 447 217.711 457.5q-10.29 10.5-25.5 10.5Zm144 0Q321 468 310.5 457.711q-10.5-10.29-10.5-25.5Q300 417 310.289 406.5q10.29-10.5 25.5-10.5Q351 396 361.5 406.289q10.5 10.29 10.5 25.5Q372 447 361.711 457.5q-10.29 10.5-25.5 10.5Zm144 0Q465 468 454.5 457.711q-10.5-10.29-10.5-25.5Q444 417 454.289 406.5q10.29-10.5 25.5-10.5Q495 396 505.5 406.289q10.5 10.29 10.5 25.5Q516 447 505.711 457.5q-10.29 10.5-25.5 10.5Zm144 0Q609 468 598.5 457.711q-10.5-10.29-10.5-25.5Q588 417 598.289 406.5q10.29-10.5 25.5-10.5Q639 396 649.5 406.289q10.5 10.29 10.5 25.5Q660 447 649.711 457.5q-10.29 10.5-25.5 10.5Zm144 0Q753 468 742.5 457.711q-10.5-10.29-10.5-25.5Q732 417 742.289 406.5q10.29-10.5 25.5-10.5Q783 396 793.5 406.289q10.5 10.29 10.5 25.5Q804 447 793.711 457.5q-10.29 10.5-25.5 10.5Zm0 144Q753 612 742.5 601.711q-10.5-10.29-10.5-25.5Q732 561 742.289 550.5q10.29-10.5 25.5-10.5Q783 540 793.5 550.289q10.5 10.29 10.5 25.5Q804 591 793.711 601.5q-10.29 10.5-25.5 10.5Zm-144 0Q609 612 598.5 601.711q-10.5-10.29-10.5-25.5Q588 561 598.289 550.5q10.29-10.5 25.5-10.5Q639 540 649.5 550.289q10.5 10.29 10.5 25.5Q660 591 649.711 601.5q-10.29 10.5-25.5 10.5Zm-144 0Q465 612 454.5 601.711q-10.5-10.29-10.5-25.5Q444 561 454.289 550.5q10.29-10.5 25.5-10.5Q495 540 505.5 550.289q10.5 10.29 10.5 25.5Q516 591 505.711 601.5q-10.29 10.5-25.5 10.5Zm-144 0Q321 612 310.5 601.711q-10.5-10.29-10.5-25.5Q300 561 310.289 550.5q10.29-10.5 25.5-10.5Q351 540 361.5 550.289q10.5 10.29 10.5 25.5Q372 591 361.711 601.5q-10.29 10.5-25.5 10.5Zm-144 0Q177 612 166.5 601.711q-10.5-10.29-10.5-25.5Q156 561 166.289 550.5q10.29-10.5 25.5-10.5Q207 540 217.5 550.289q10.5 10.29 10.5 25.5Q228 591 217.711 601.5q-10.29 10.5-25.5 10.5Z"/></svg>