<svg xmlns="http://www.w3.org/2000/svg" height="20" viewBox="0 -960 960 960" width="20"><path d="M372-324h140q18 0 27-11.25t9-24.75q0-16-10-26t-26-10H372q-15.3 0-25.65 10.289-10.35 10.29-10.35 25.5Q336-345 346.35-334.5 356.7-324 372-324ZM167.723-204Q138-204 117-225.15T96-276v-408q0-29.7 21.15-50.85Q138.3-756 168-756h624q29.7 0 50.85 21.15Q864-713.7 864-684v212q0 18-11.25 27T828-436q-13.5 0-24.75-9T792-472v-212H168v408h323.714Q507-276 517.5-265.711q10.5 10.29 10.5 25.5Q528-225 517.642-214.5q-10.358 10.5-25.67 10.5H167.723ZM624-84q-9.882 0-16.941-7.059Q600-98.118 600-108v-144q0-9.882 7.059-16.941Q614.118-276 624-276h24v-48q0-29.7 21.212-50.85 21.213-21.15 51-21.15Q750-396 771-374.85q21 21.15 21 50.85v48h24q9.882 0 16.941 7.059Q840-261.882 840-252v144q0 9.882-7.059 16.941Q825.882-84 816-84H624Zm60-192h72v-48q0-15.3-10.289-25.65-10.29-10.35-25.5-10.35Q705-360 694.5-349.65 684-339.3 684-324v48ZM251.789-564Q267-564 277.5-574.289q10.5-10.29 10.5-25.5Q288-615 277.711-625.5q-10.29-10.5-25.5-10.5Q237-636 226.5-625.711q-10.5 10.29-10.5 25.5Q216-585 226.289-574.5q10.29 10.5 25.5 10.5Zm0 120Q267-444 277.5-454.289q10.5-10.29 10.5-25.5Q288-495 277.711-505.5q-10.29-10.5-25.5-10.5Q237-516 226.5-505.711q-10.5 10.29-10.5 25.5Q216-465 226.289-454.5q10.29 10.5 25.5 10.5Zm114-120Q381-564 391.5-574.289q10.5-10.29 10.5-25.5Q402-615 391.711-625.5q-10.29-10.5-25.5-10.5Q351-636 340.5-625.711q-10.5 10.29-10.5 25.5Q330-585 340.289-574.5q10.29 10.5 25.5 10.5Zm0 120Q381-444 391.5-454.289q10.5-10.29 10.5-25.5Q402-495 391.711-505.5q-10.29-10.5-25.5-10.5Q351-516 340.5-505.711q-10.5 10.29-10.5 25.5Q330-465 340.289-454.5q10.29 10.5 25.5 10.5Zm114-120Q495-564 505.5-574.289q10.5-10.29 10.5-25.5Q516-615 505.711-625.5q-10.29-10.5-25.5-10.5Q465-636 454.5-625.711q-10.5 10.29-10.5 25.5Q444-585 454.289-574.5q10.29 10.5 25.5 10.5Zm0 120Q495-444 505.5-454.289q10.5-10.29 10.5-25.5Q516-495 505.711-505.5q-10.29-10.5-25.5-10.5Q465-516 454.5-505.711q-10.5 10.29-10.5 25.5Q444-465 454.289-454.5q10.29 10.5 25.5 10.5Zm114-120Q609-564 619.5-574.289q10.5-10.29 10.5-25.5Q630-615 619.711-625.5q-10.29-10.5-25.5-10.5Q579-636 568.5-625.711q-10.5 10.29-10.5 25.5Q558-585 568.289-574.5q10.29 10.5 25.5 10.5Zm0 120Q609-444 619.5-454.289q10.5-10.29 10.5-25.5Q630-495 619.711-505.5q-10.29-10.5-25.5-10.5Q579-516 568.5-505.711q-10.5 10.29-10.5 25.5Q558-465 568.289-454.5q10.29 10.5 25.5 10.5Zm114-120Q723-564 733.5-574.289q10.5-10.29 10.5-25.5Q744-615 733.711-625.5q-10.29-10.5-25.5-10.5Q693-636 682.5-625.711q-10.5 10.29-10.5 25.5Q672-585 682.289-574.5q10.29 10.5 25.5 10.5Zm.422 57Q693-507 682.5-496.711q-10.5 10.29-10.5 25.5Q672-456 682.289-445.5q10.29 10.5 25.5 10.5Q723-435 733.5-445.289q10.5-10.29 10.5-25.5Q744-486 733.711-496.5q-10.29-10.5-25.5-10.5ZM480-480Z"/></svg>