<svg xmlns="http://www.w3.org/2000/svg" height="20" viewBox="0 -960 960 960" width="20"><path d="M393-756h399q29.7 0 50.85 21.15Q864-713.7 864-684v212q0 20-18.5 28.5T809-446q-16-8-33-13.5t-35-7.5q2-3 2.5-6t.5-7q0-15.3-10.289-25.65-10.29-10.35-25.5-10.35Q693-516 682.5-505.65 672-495.3 672-480q0 4.727 1 8.864 1 4.136 3 7.692Q661-459 647.5-454q-13.5 5-26.5 13l-8-8q3-2 12-13.25 2-3.75 3.5-8.058 1.5-4.307 1.5-9.692 0-15.3-10.478-25.65Q609.044-516 593.556-516q-4.556 0-9.056 1.5-4.5 1.5-8.5 3.5-1 1-13 12l-68-68q3-1 15-13 3-5 4.5-10t1.5-9.556q0-15.488-10.478-25.966Q495.044-636 479.556-636 475-636 470-634.5q-5 1.5-10 4.5-4 2-13 15l-80-80q-17-17-7.5-39t33.5-22ZM167.723-204Q138-204 117-225.15T96-276v-408q0-29.7 21.15-50.85Q138.3-756 168-756h36l360 360H372q-15.3 0-25.65 10.289-10.35 10.29-10.35 25.5Q336-345 346.35-334.5 356.7-324 372-324h162q-3 11-4.5 23t-1.5 25v36q0 15.3-10.358 25.65Q507.284-204 491.972-204H167.723ZM776.648-81.352 81.352-776.648Q70-788 70-802.667 70-817.333 81-828q10.91-11 25.455-11 14.545 0 25.897 11.337l695.296 695.326Q839-121 839-106.429q0 14.572-10.929 25.5Q817.143-70 802.571-70 788-70 776.648-81.352ZM840-222l-84-84v-18q0-15.3-10.35-25.65Q735.3-360 720-360q-3.808 0-7.404.5T705-357l-26-26q9-6 19.333-9.5Q708.667-396 720-396q29.7 0 50.85 21.15Q792-353.7 792-324v48h24q9.882 0 16.941 7.059Q840-261.882 840-252v30ZM624-84q-9.882 0-16.941-7.059Q600-98.118 600-108v-144q0-9.882 7.059-16.941Q614.118-276 624-276h60l108 108v84H624ZM251.789-564Q267-564 277.5-574.289q10.5-10.29 10.5-25.5Q288-615 277.711-625.5q-10.29-10.5-25.5-10.5Q237-636 226.5-625.711q-10.5 10.29-10.5 25.5Q216-585 226.289-574.5q10.29 10.5 25.5 10.5Zm0 120Q267-444 277.5-454.289q10.5-10.29 10.5-25.5Q288-495 277.711-505.5q-10.29-10.5-25.5-10.5Q237-516 226.5-505.711q-10.5 10.29-10.5 25.5Q216-465 226.289-454.5q10.29 10.5 25.5 10.5Zm114 0Q381-444 391.5-454.289q10.5-10.29 10.5-25.5Q402-495 391.711-505.5q-10.29-10.5-25.5-10.5Q351-516 340.5-505.711q-10.5 10.29-10.5 25.5Q330-465 340.289-454.5q10.29 10.5 25.5 10.5Zm228-120Q609-564 619.5-574.289q10.5-10.29 10.5-25.5Q630-615 619.711-625.5q-10.29-10.5-25.5-10.5Q579-636 568.5-625.711q-10.5 10.29-10.5 25.5Q558-585 568.289-574.5q10.29 10.5 25.5 10.5Zm114 0Q723-564 733.5-574.289q10.5-10.29 10.5-25.5Q744-615 733.711-625.5q-10.29-10.5-25.5-10.5Q693-636 682.5-625.711q-10.5 10.29-10.5 25.5Q672-585 682.289-574.5q10.29 10.5 25.5 10.5Z"/></svg>