<svg xmlns="http://www.w3.org/2000/svg" height="20" viewBox="0 96 960 960" width="20"><path d="M774 960 121.082 307.082Q110 296 110 282t11-25q11-11 25.667-11 14.666 0 25.333 11l653 653-51 50ZM372 720q-15.3 0-25.65-10.289-10.35-10.29-10.35-25.5Q336 669 346.35 658.5 356.7 648 372 648h192l72 72H372ZM240 600v-72h72v72h-72Zm102 0v-72h72v72h-72Zm306 0v-72h72v72h-72Zm-408-96v-72h72v72h-72Zm306 0v-72h72v72h-72Zm102 0v-72h72v72h-72Zm178 304-34-35V408H427l-72-72h436.9q30.1 0 51.1 21.15T864 408v336q0 20.778-10.5 37.889Q843 799 826 808Zm-658 8q-29.7 0-50.85-21.15Q96 773.7 96 744V408q0-29.7 21.15-50.85Q138.3 336 168 336h84l72 72H168v336h492l72 72H168Zm283-384h65v65l-65-65Zm96 96h71l-1 71-70-71Zm-157 48Zm219 14Z"/></svg>