<svg xmlns="http://www.w3.org/2000/svg" height="20" viewBox="0 -960 960 960" width="20"><path d="M777-81 81.327-776.658Q70-788 70-802.667 70-817.333 81-828q10.667-11 25.333-11 14.667 0 25.989 11.322l695.356 695.356Q839-121 839-106.429q0 14.572-11 25.5Q817-70 802.333-70 787.667-70 777-81ZM252-552q-45 0-76.5-31.5T144-660q0-32 16.5-57.5T203-757l145 146q-14 26-39 42.5T252-552Zm118 300Zm197-243Zm134-169 109 315q6 17-2.171 29t-20.882 17q-12.71 5-26.329-.5Q747-309 741-326L633-640q-4.773-14-16.705-23-11.931-9-27.613-9t-27.822 9.092Q548.721-653.816 544-639l-11 37q-4.559 14-17.779 21Q502-574 488-579t-21-17.889q-7-12.889-2-27.111l11-36q11.068-38.038 42.296-61.019T589.052-744Q627-744 658.5-722q31.5 22 42.5 58ZM212-420q8-16 24-26t34.106-10Q289-456 304-445.5t24 27.5l44 95 63-202 56 56-53 168q-8 23-26 36t-41.684 13Q349-252 332-263.5 315-275 306-294l-37-80-91 186q-5 9-13 14.5t-19 5.5q-20.5 0-30.75-17t-1.258-35.319L212-420Z"/></svg>