<svg xmlns="http://www.w3.org/2000/svg" height="20" viewBox="0 -960 960 960" width="20"><path d="M212-420q8.286-16.364 23.614-26.182Q250.943-456 270-456q19 0 34 10.5t24 27.5l44 95 104-337q11.063-38.038 42.276-61.019Q549.49-744 589-744q38 0 69.5 22t42.5 58l155 448q6 17-4.5 32.5T821.909-168Q811-168 801.4-174.944 791.8-181.889 787-193L633-640q-5-14-17.5-23t-26.5-9q-15.862 0-27.931 9.5T544-639L438-301q-8 23-26 36t-41.684 13Q349-252 332-263.5 315-275 306-294l-37-80-91 186q-5 9-13.704 14.5-8.703 5.5-18.277 5.5Q126-168 115-185t-1.924-35.319L212-420Zm40-132q-45 0-76.5-31.5T144-659.545Q144-705 175.5-736.5T252-768q45 0 76.5 31.5T360-660q0 45-31.5 76.5T252-552Zm0-72q14 0 25-10.35T288-660q0-14-11-25t-25.5-11q-14.5 0-25 11T216-659.5q0 14.5 10.35 25T252-624Zm118 372ZM252-660Z"/></svg>