<svg xmlns="http://www.w3.org/2000/svg" height="20" viewBox="0 96 960 960" width="20"><path d="M264 696h132q15.3 0 25.65 10.289 10.35 10.29 10.35 25.5Q432 747 421.65 757.5 411.3 768 396 768H228q-15.3 0-25.65-10.35Q192 747.3 192 732V420q0-15.3 10.35-25.65Q212.7 384 228 384h168q15.3 0 25.65 10.289 10.35 10.29 10.35 25.5Q432 435 421.65 445.5 411.3 456 396 456H264v84h84q15.3 0 25.65 10.289 10.35 10.29 10.35 25.5Q384 591 373.65 601.5 363.3 612 348 612h-84v84Zm336 72q-29.7 0-50.85-21.15Q528 725.7 528 696q0-10.2 6.9-17.1 6.9-6.9 17.1-6.9h24q10.2 0 17.1 6.9 6.9 6.9 6.9 17.1h96v-84h-96q-29.7 0-50.85-21.15Q528 569.7 528 540v-84q0-29.7 21.15-50.85Q570.3 384 600 384h96q29.7 0 50.85 21.15Q768 426.3 768 456q0 10.2-6.9 17.1-6.9 6.9-17.1 6.9h-24q-10.2 0-17.1-6.9-6.9-6.9-6.9-17.1h-96v84h96q29.7 0 50.85 21.15Q768 582.3 768 612v84q0 29.7-21.15 50.85Q725.7 768 696 768h-96Z"/></svg>