<svg xmlns="http://www.w3.org/2000/svg" height="20" width="20"><path d="M2 9.5q0-2.292 1.604-3.896T7.5 4h5q2.292 0 3.896 1.604T18 9.5q0 2.021-1.292 3.562-1.291 1.542-3.312 1.876-.354.062-.625-.146-.271-.209-.271-.542 0-.333.25-.542.25-.208.583-.291 1.396-.292 2.282-1.386.885-1.093.885-2.531 0-1.667-1.167-2.833Q14.167 5.5 12.5 5.5h-5q-1.667 0-2.833 1.167Q3.5 7.833 3.5 9.5q0 1.667 1.167 2.833Q5.833 13.5 7.5 13.5h.625l-.667-.667q-.229-.229-.218-.531.01-.302.239-.531.229-.229.531-.229.302 0 .532.229l1.937 1.958q.229.229.229.521 0 .292-.229.521l-1.958 1.958q-.229.229-.521.219-.292-.01-.521-.24-.229-.229-.229-.531 0-.302.229-.531L8.125 15H7.5q-2.292 0-3.896-1.604T2 9.5Z"/></svg>