<svg xmlns="http://www.w3.org/2000/svg" height="20" width="20"><path d="M10 15q-2.083 0-3.542-1.458Q5 12.083 5 10q0-2.083 1.458-3.542Q7.917 5 10 5q2.083 0 3.542 1.458Q15 7.917 15 10l-1.521-.5q-.187-1.292-1.177-2.146Q11.312 6.5 10 6.5q-1.458 0-2.479 1.021Q6.5 8.542 6.5 10q0 1.312.854 2.302T9.5 13.479Zm3.625.021-.75 1.958q-.104.25-.365.24-.26-.011-.343-.261l-1.959-6.27q-.062-.23.094-.386t.386-.094l6.27 1.959q.25.083.261.343.01.261-.24.365l-1.958.729 2.771 2.771q.291.292.291.708 0 .417-.291.709-.292.291-.709.291-.416 0-.708-.291Z"/></svg>