<svg xmlns="http://www.w3.org/2000/svg" height="20" viewBox="0 -960 960 960" width="20"><path d="M204-96q-45 0-76.5-31.5T96-204v-114q9 3 18 4.5t18 1.5h732v216H204Zm660-545q-9-3-18-5t-18-2H96v-216h661q45 0 76 31.5t31 76.5v115ZM142-384q-20 0-33-11.5T96-426q0-29 17.5-48.5T159-504l198-72h461q20 0 33 13t13 33q0 33-19.5 55.5T793-441l-157 57H142Zm163-355q7-7 7-17t-7-17q-7-7-17-7t-17 7q-7 7-7 17t7 17q7 7 17 7t17-7Zm0 552q7-7 7-17t-7-17q-7-7-17-7t-17 7q-7 7-7 17t7 17q7 7 17 7t17-7Zm48-228q7-7 7-17t-7-17q-7-7-17-7t-17 7q-7 7-7 17t7 17q7 7 17 7t17-7Zm144-324q7-7 7-17t-7-17q-7-7-17-7t-17 7q-7 7-7 17t7 17q7 7 17 7t17-7Zm0 276q7-7 7-17t-7-17q-7-7-17-7t-17 7q-7 7-7 17t7 17q7 7 17 7t17-7Zm0 276q7-7 7-17t-7-17q-7-7-17-7t-17 7q-7 7-7 17t7 17q7 7 17 7t17-7Zm144-324q7-7 7-17t-7-17q-7-7-17-7t-17 7q-7 7-7 17t7 17q7 7 17 7t17-7Zm48-228q7-7 7-17t-7-17q-7-7-17-7t-17 7q-7 7-7 17t7 17q7 7 17 7t17-7Zm0 552q7-7 7-17t-7-17q-7-7-17-7t-17 7q-7 7-7 17t7 17q7 7 17 7t17-7Z"/></svg>