<svg xmlns="http://www.w3.org/2000/svg" height="20" viewBox="0 -960 960 960" width="20"><path d="M226.6-209.5q-6.31-2.5-11.73-7.9L121-311q-11-11-11-25t11-25q11-11 25-11t25 11l33 32v-355.13q0-14.87 10.29-25.37 10.29-10.5 25.5-10.5t25.71 10.35Q276-699.3 276-684v355l32-32q11-11 25-11t25 11q11 11 11 25.5T358-310l-92.65 92.65Q260-212 253.68-209.5t-13.54 2.5q-7.22 0-13.54-2.5ZM516-240q-15.3 0-25.65-10.29Q480-260.58 480-275.79t10.35-25.71Q500.7-312 516-312h312q15.3 0 25.65 10.29Q864-291.42 864-276.21t-10.35 25.71Q843.3-240 828-240H516Zm0-204q-15.3 0-25.65-10.29Q480-464.58 480-479.79t10.35-25.71Q500.7-516 516-516h312q15.3 0 25.65 10.29Q864-495.42 864-480.21t-10.35 25.71Q843.3-444 828-444H516Zm0-204q-15.3 0-25.65-10.29Q480-668.58 480-683.79t10.35-25.71Q500.7-720 516-720h312q15.3 0 25.65 10.29Q864-699.42 864-684.21t-10.35 25.71Q843.3-648 828-648H516Z"/></svg>