<svg xmlns="http://www.w3.org/2000/svg" height="20" width="20"><path d="M13.25 10.75q.312 0 .531-.219Q14 10.312 14 10q0-.312-.219-.531-.219-.219-.531-.219h-3.5q-.312 0-.531.219Q9 9.688 9 10q0 .312.219.531.219.219.531.219Zm0-3.25q.312 0 .531-.219Q14 7.062 14 6.75q0-.312-.219-.531Q13.562 6 13.25 6h-3.5q-.312 0-.531.219Q9 6.438 9 6.75q0 .312.219.531.219.219.531.219Zm1 9.25h-1.5q-.312 0-.531-.219Q12 16.312 12 16q0-.312.219-.531.219-.219.531-.219h1.5v-1.5q0-.312.219-.531Q14.688 13 15 13q.312 0 .531.219.219.219.219.531v1.5h1.5q.312 0 .531.219.219.219.219.531 0 .312-.219.531-.219.219-.531.219h-1.5v1.5q0 .312-.219.531Q15.312 19 15 19q-.312 0-.531-.219-.219-.219-.219-.531ZM6.75 14q.312 0 .531-.219.219-.219.219-.531 0-.312-.219-.531-.219-.219-.531-.219-.312 0-.531.219Q6 12.938 6 13.25q0 .312.219.531.219.219.531.219Zm0-3.25q.312 0 .531-.219.219-.219.219-.531 0-.312-.219-.531-.219-.219-.531-.219-.312 0-.531.219Q6 9.688 6 10q0 .312.219.531.219.219.531.219Zm0-3.25q.312 0 .531-.219.219-.219.219-.531 0-.312-.219-.531Q7.062 6 6.75 6q-.312 0-.531.219Q6 6.438 6 6.75q0 .312.219.531.219.219.531.219ZM4.5 17q-.625 0-1.062-.438Q3 16.125 3 15.5v-11q0-.625.438-1.062Q3.875 3 4.5 3h11q.625 0 1.062.438Q17 3.875 17 4.5v6.938q-.479-.23-.99-.323-.51-.094-1.031-.094-1.041 0-1.958.396-.917.395-1.583 1.083H9.75q-.312 0-.531.219Q9 12.938 9 13.25q0 .312.219.531.219.219.531.219h.667q-.167.354-.25.729-.084.375-.125.771-.042.375-.021.75t.104.75Z"/></svg>