<svg xmlns="http://www.w3.org/2000/svg" height="20" viewBox="0 96 960 960" width="20"><path d="M264 888h432V504H264v384Zm216.212-120Q510 768 531 746.788q21-21.213 21-51Q552 666 530.788 645q-21.213-21-51-21Q450 624 429 645.212q-21 21.213-21 51Q408 726 429.212 747q21.213 21 51 21ZM264 888V504v384Zm-.283 72Q234 960 213 938.85T192 888V504q0-29.7 21.15-50.85Q234.3 432 264 432h264v-96q0-79.68 56.16-135.84T720 144q72 0 123 43t65 108q3 14-7.268 27.5T876.179 336Q861 336 851 328.5q-10-7.5-14-21.5-10-39-42.1-65T720 216q-50 0-85 35t-35 85v96h96q29.7 0 50.85 21.15Q768 474.3 768 504v384q0 29.7-21.162 50.85Q725.676 960 695.96 960H263.717Z"/></svg>