<svg xmlns="http://www.w3.org/2000/svg" height="20" width="20"><path d="M3 7.625v-1.5h1.5v1.5ZM5.875 10.5V9h1.5v1.5Zm.25-6V3h1.5v1.5ZM9 7.375v-1.5h1.5v1.5ZM4.5 17q-.625 0-1.062-.438Q3 16.125 3 15.5V10q0-.312.219-.531.219-.219.531-.219.312 0 .531.219.219.219.219.531v5.5h11v-11H10q-.312 0-.531-.219-.219-.219-.219-.531 0-.312.219-.531Q9.688 3 10 3h5.5q.625 0 1.062.438Q17 3.875 17 4.5v11q0 .625-.438 1.062Q16.125 17 15.5 17ZM3 4.5q0-.625.438-1.062Q3.875 3 4.5 3v1.5Zm6 6V9h1.5q0 .625-.438 1.062Q9.625 10.5 9 10.5Z"/></svg>