<svg xmlns="http://www.w3.org/2000/svg" height="20" viewBox="0 -960 960 960" width="20"><path d="M322-263q-51 0-79.5-26.5T214-363q0-44 33-70.5t87-26.5q20 0 41 4t40 11v-9q0-29.892-20.044-48.446Q374.911-521 341.667-521 327-521 312.5-516.25 298-511.5 286-502q-12.278 9-23.139 6Q252-499 245-507t-6.5-19.5q.5-11.5 11.5-19.167Q270-561 294-568q24-7 50-7 64 0 98.5 31.5T477-455v150.675Q477-291 467.797-282T446-273q-13 0-22-9.243t-9-21.892V-309h-3q-17 24-39 35t-51 11Zm10.556-53q34.351 0 58.398-23.5Q415-363 415-395.8q-14-8.2-31.5-12.2t-37.245-4Q313-412 296-399.5t-17 36.57Q279-342 294-329t38.556 13ZM660-401v-210q0-15.3 10.289-25.65 10.29-10.35 25.5-10.35Q711-647 721.5-636.65 732-626.3 732-611v210l32-32q11-11 25.5-11t25.5 11q11 11 11 25.5T815-382l-94.138 94.138Q710-277 695.818-277T671-288l-94-94q-11-11-10.5-25.5T578-433q11-11 25.5-11t25.5 11l31 32Z"/></svg>