<svg xmlns="http://www.w3.org/2000/svg" height="20" width="20"><path d="M10 12q-.833 0-1.417-.583Q8 10.833 8 10v-.042q-.229.146-.49.219-.26.073-.531.073-.833 0-1.406-.583Q5 9.083 5 8.25q0-.542.271-1.021.271-.479.75-.729-.479-.25-.75-.729T5 4.75q0-.833.573-1.417.573-.583 1.406-.583.271 0 .531.073.261.073.49.239V3q0-.833.583-1.417Q9.167 1 10 1q.833 0 1.417.583Q12 2.167 12 3v.062q.333-.208.677-.281.344-.073.719.011L12 6.479q0-.833-.583-1.406Q10.833 4.5 10 4.5q-.833 0-1.417.583Q8 5.667 8 6.5q0 .833.583 1.417Q9.167 8.5 10 8.5q.458 0 .833-.188.375-.187.667-.5-.104.438.208.813.313.375.792.375h2.375q-.229.542-.729.896t-1.125.354q-.271 0-.531-.073-.261-.073-.49-.219V10q0 .833-.583 1.417Q10.833 12 10 12Zm4.333-5.792-.5 1.417q-.062.167-.208.271-.146.104-.313.104-.291 0-.458-.24-.166-.239-.062-.531l2.187-5.833q.063-.167.209-.281.145-.115.333-.115h.437q.188 0 .334.115.146.114.208.281l2.208 5.854q.104.271-.062.51-.167.24-.458.24-.188 0-.323-.104-.136-.104-.198-.271l-.5-1.417Zm.375-1.02h2.084l-1.021-2.896h-.042Zm-2.896 11q1.188-.438 2.084-1.313.896-.875 1.292-2.063-1.188.459-2.094 1.313-.906.854-1.282 2.063ZM10 18q-2.667 0-4.625-1.719Q3.417 14.562 3.062 12q-.062-.417.23-.708.291-.292.708-.23 2.562.355 4.281 2.313Q10 15.333 10 18Zm-1.812-1.812Q7.792 15 6.896 14.125 6 13.25 4.812 12.812q.376 1.209 1.282 2.073.906.865 2.094 1.303Zm3.624 0Zm-3.624 0ZM10 18q0-2.667 1.719-4.625 1.719-1.958 4.281-2.313.417-.062.708.23.292.291.23.708-.355 2.562-2.313 4.281Q12.667 18 10 18Z"/></svg>