<svg xmlns="http://www.w3.org/2000/svg" height="20" width="20"><path d="m8.75 11.208-2.375-1.083q-.104-.042-.104-.167t.104-.166L8.75 8.708l1.083-2.375q.042-.104.167-.104t.167.104l1.083 2.375 2.375 1.084q.104.041.104.166t-.104.167l-2.375 1.083-1.083 2.375q-.042.105-.167.105t-.167-.105ZM10 19q-2.354 0-4.323-1.094-1.969-1.094-3.177-2.927v1.771q0 .312-.219.531-.219.219-.531.219-.312 0-.531-.219Q1 17.062 1 16.75v-3.5q0-.312.219-.531.219-.219.531-.219h3.5q.312 0 .531.219.219.219.219.531 0 .312-.219.531Q5.562 14 5.25 14H3.646q1 1.583 2.666 2.542Q7.979 17.5 10 17.5q2.938 0 5.052-1.958 2.115-1.959 2.406-4.813.042-.312.261-.521.219-.208.531-.208.312 0 .542.219.229.219.187.51-.146 1.729-.896 3.24-.75 1.51-1.958 2.625-1.208 1.114-2.781 1.76Q11.771 19 10 19Zm0-16.5q-2.938 0-5.052 1.958-2.115 1.959-2.406 4.813-.042.312-.261.521Q2.062 10 1.75 10q-.312 0-.542-.219-.229-.219-.187-.51.146-1.729.896-3.24.75-1.51 1.958-2.625 1.208-1.114 2.781-1.76Q8.229 1 10 1q2.354 0 4.323 1.094 1.969 1.094 3.177 2.927V3.25q0-.312.219-.531.219-.219.531-.219.312 0 .531.219.219.219.219.531v3.5q0 .312-.219.531-.219.219-.531.219h-3.5q-.312 0-.531-.219Q14 7.062 14 6.75q0-.312.219-.531Q14.438 6 14.75 6h1.604q-1-1.583-2.666-2.542Q12.021 2.5 10 2.5Z"/></svg>