<svg xmlns="http://www.w3.org/2000/svg" height="20" width="20"><path d="M3.5 16q-.625 0-1.062-.438Q2 15.125 2 14.5v-9q0-.625.438-1.062Q2.875 4 3.5 4h13q.625 0 1.062.438Q18 4.875 18 5.5v9q0 .625-.438 1.062Q17.125 16 16.5 16Zm8.25-5.75v1q0 .312.219.531.219.219.531.219.312 0 .531-.219.219-.219.219-.531v-1h1q.312 0 .531-.219Q15 9.812 15 9.5q0-.312-.219-.531-.219-.219-.531-.219h-1v-1q0-.312-.219-.531Q12.812 7 12.5 7q-.312 0-.531.219-.219.219-.219.531v1h-1q-.312 0-.531.219Q10 9.188 10 9.5q0 .312.219.531.219.219.531.219Z"/></svg>