<svg xmlns="http://www.w3.org/2000/svg" height="20" viewBox="0 -960 960 960" width="20"><path d="M381-477Zm198-6Zm164 368-77-77H168q-29.7 0-50.85-21.162Q96-234.324 96-264.04v-432.243Q96-726 116.856-747T167-768h25l78 78H168v426h426L114.991-743.987Q104-755 104.5-769q.5-14 11.5-25t25-11q14 0 25.08 11.08l627.84 627.84Q805-155 805-140.818T794-116q-11 11-25.5 11.5T743-115Zm121-581v411q0 18-11.25 27T828-249q-13.5 0-24.75-9.22Q792-267.439 792-285v-326L600-501q-16 9-29.788 4.05T549-514q-7-12-4.5-27t18.5-24l229-131H381q-18 0-27-11.25T345-732q0-13.5 9-24.75T381-768h411q29.7 0 50.85 21.15Q864-725.7 864-696Z"/></svg>