<svg xmlns="http://www.w3.org/2000/svg" height="20" width="20"><path d="m5.688 11.958-.584 1.625q-.062.188-.229.302Q4.708 14 4.5 14q-.354 0-.542-.271-.187-.271-.062-.604l2.5-6.687q.083-.209.25-.323Q6.812 6 7.021 6h.521q.208 0 .375.115.166.114.25.323l2.521 6.708q.104.312-.084.583-.187.271-.521.271-.208 0-.375-.115-.166-.114-.229-.323l-.562-1.604Zm.395-1.166h2.396L7.312 7.479H7.25Zm7.459 3.416q-.98 0-1.532-.51t-.552-1.406q0-.854.636-1.375.635-.521 1.677-.521.437 0 .875.083.437.083.666.209v-.292q0-.5-.395-.834-.396-.333-1-.333-.313 0-.573.094-.261.094-.49.26-.166.146-.396.157-.229.01-.396-.136-.187-.146-.208-.364-.021-.219.146-.365.375-.333.875-.51t1.083-.177q1.209 0 1.875.593.667.594.667 1.698v3.063q0 .25-.167.416-.166.167-.416.167-.25 0-.427-.177-.178-.177-.178-.427v-.167h-.062q-.333.438-.74.646-.406.208-.968.208Zm.208-1.041q.667 0 1.104-.448.438-.448.438-1.094-.292-.167-.615-.25-.323-.083-.677-.083-.604 0-.958.27-.354.271-.354.709 0 .417.291.656.292.24.771.24Z"/></svg>