<svg xmlns="http://www.w3.org/2000/svg" height="20" width="20"><path d="M3 15q-.625 0-1.062-.438Q1.5 14.125 1.5 13.5v-1.75q0-.312.219-.531Q1.938 11 2.25 11q.312 0 .531.219.219.219.219.531v1.75h14v-1.75q0-.312.219-.531.219-.219.531-.219.312 0 .531.219.219.219.219.531v1.75q0 .625-.438 1.062Q17.625 15 17 15Zm3.042-2.792q-.98 0-1.532-.51t-.552-1.406q0-.854.636-1.375.635-.521 1.677-.521.437 0 .875.083.437.083.666.209v-.292q0-.5-.395-.833-.396-.334-1-.334-.313 0-.573.094-.261.094-.49.26-.166.146-.396.157-.229.01-.396-.136-.187-.146-.208-.364-.021-.219.146-.365.375-.333.875-.51t1.083-.177q1.209 0 1.875.593Q9 7.375 9 8.479v2.938q0 .229-.177.406-.177.177-.406.177-.25 0-.427-.177-.178-.177-.178-.427v-.042H7.75q-.333.438-.74.646-.406.208-.968.208ZM6.5 9.292q-.604 0-.958.27-.354.271-.354.709 0 .417.291.656.292.24.771.24.667 0 1.104-.448.438-.448.438-1.094-.292-.167-.615-.25-.323-.083-.677-.083Zm7.062 2.896q-.812 0-1.26-.376-.448-.374-.573-.562h-.062v.167q0 .229-.167.406-.167.177-.417.177-.229 0-.406-.177-.177-.177-.177-.406V4.542q0-.25.188-.427.187-.177.437-.177t.427.177q.177.177.177.427v1.666l-.062.813h.062q.063-.104.49-.521.427-.417 1.343-.417 1.313 0 2.042.927.729.928.729 2.115 0 1.187-.729 2.125t-2.042.938Zm-.187-4.959q-.792 0-1.25.584-.458.583-.458 1.312 0 .729.458 1.323t1.25.594q.792 0 1.26-.594.469-.594.469-1.323t-.469-1.312q-.468-.584-1.26-.584Z"/></svg>