<svg xmlns="http://www.w3.org/2000/svg" height="20" width="20"><path d="M11.5 16h-5q-.625 0-1.062-.438Q5 15.125 5 14.5v-5q0-2.708 1.896-4.604T11.5 3q2.708 0 4.604 1.896T18 9.5q0 2.708-1.896 4.604T11.5 16Zm0-3.75q1.146 0 1.948-.802T14.25 9.5q0-1.146-.802-1.948T11.5 6.75q-1.146 0-1.948.802T8.75 9.5q0 1.146.802 1.948t1.948.802Zm0-1.5q-.521 0-.885-.365-.365-.364-.365-.885t.365-.885q.364-.365.885-.365t.885.365q.365.364.365.885t-.365.885q-.364.365-.885.365ZM3.25 16q-.312 0-.531-.219-.219-.219-.219-.531v-2.5q0-.312.219-.531Q2.938 12 3.25 12q.312 0 .531.219.219.219.219.531v2.5q0 .312-.219.531Q3.562 16 3.25 16Z"/></svg>