<svg xmlns="http://www.w3.org/2000/svg" height="20" width="20"><path d="M8 14.5V12H7V9.5q0-.417.573-.708Q8.146 8.5 9 8.5q.854 0 1.427.292.573.291.573.708V12h-1v2.5Zm1-7q-.417 0-.708-.292Q8 6.917 8 6.5t.292-.708Q8.583 5.5 9 5.5t.708.292Q10 6.083 10 6.5t-.292.708Q9.417 7.5 9 7.5ZM9 17q-2.917 0-4.958-2.042Q2 12.917 2 10q0-1.458.552-2.729.552-1.271 1.5-2.219t2.219-1.5Q7.542 3 9 3q1.438 0 2.719.552t2.239 1.511q.959.958 1.521 2.27.563 1.313.521 2.813l.667-.667q.104-.104.25-.167.145-.062.281-.062.135 0 .281.052.146.052.25.156.229.23.229.532 0 .302-.229.531l-1.958 1.958q-.229.229-.521.229-.292 0-.521-.229l-1.958-1.958q-.229-.229-.219-.531.01-.302.24-.532.229-.229.531-.229.302 0 .531.229l.646.667q.042-2.354-1.583-3.99Q11.292 4.5 9 4.5q-2.271 0-3.885 1.615Q3.5 7.729 3.5 10t1.615 3.885Q6.729 15.5 9 15.5q1.146 0 2.146-.438 1-.437 1.75-1.187.229-.229.542-.25.312-.021.541.208.229.229.219.563-.01.333-.24.562-.937.959-2.218 1.5Q10.458 17 9 17Z"/></svg>