<svg xmlns="http://www.w3.org/2000/svg" height="20" width="20"><path d="M5.5 18v-3.646q-1.188-1-1.844-2.406Q3 10.542 3 8.979q0-2.917 2.052-4.948Q7.104 2 10.021 2q2.271 0 4.083 1.219 1.813 1.219 2.396 3.177l1.375 4.646q.104.354-.115.656-.218.302-.593.302H16v2.5q0 .625-.438 1.062Q15.125 16 14.5 16h-2v2ZM10 6q-.312 0-.531.219-.219.219-.219.531v4q0 .312.219.531.219.219.531.219.312 0 .531-.219.219-.219.219-.531v-4q0-.312-.219-.531Q10.312 6 10 6ZM7.5 7q-.312 0-.531.219-.219.219-.219.531v1.5q0 .312.219.531.219.219.531.219.312 0 .531-.219.219-.219.219-.531v-1.5q0-.312-.219-.531Q7.812 7 7.5 7Zm5-.5q-.312 0-.531.219-.219.219-.219.531v2q0 .312.219.531.219.219.531.219.312 0 .531-.219.219-.219.219-.531v-2q0-.312-.219-.531-.219-.219-.531-.219Z"/></svg>