<svg xmlns="http://www.w3.org/2000/svg" height="20" viewBox="0 -960 960 960" width="20"><path d="M600-96q-9.882 0-16.941-7.059Q576-110.118 576-120v-132q0-15.3 10.35-25.65Q596.7-288 612-288h60l144 144v24q0 9.882-7.059 16.941Q801.882-96 792-96H600Zm176.648 14.648L81.352-776.648Q70-788 70-802.667 70-817.333 81-828q10.91-11 25.455-11 14.545 0 25.897 11.337l695.296 695.326Q839-121 839-106.429q0 14.572-10.929 25.5Q817.143-70 802.571-70 788-70 776.648-81.352ZM768-294l-36-36v-6q0-15.3-10.405-25.65Q711.19-372 695.81-372H690l-28-28q7.759-3.636 16.379-5.818Q687-408 696-408q29.7 0 50.85 21.15Q768-365.7 768-336v42ZM516-600v-261q105 14 178.5 86T768-600H516Zm89 143-71-71h234v62q-17-7-35-10.5t-37-3.5q-25.165 0-48.082 6Q625-468 605-457ZM480-96q-120.343 0-204.171-83.829Q192-263.657 192-384v-144h240l117 117q-21 25-33 56.463T504-288v191q-6.207.667-12.103.833Q486-96 480-96Zm-36-522L276-786q34-30 77-49.5t91-25.5v243Zm-252 18q0-36 9.806-68.5Q211.613-701 230-730l130 130H192Z"/></svg>