<svg xmlns="http://www.w3.org/2000/svg" height="20" width="20"><path d="M6.5 15q-.625 0-1.062-.438Q5 14.125 5 13.5v-1.25q0-.312.219-.531.219-.219.531-.219.312 0 .531.219.219.219.219.531v1.25h10V5h-10v1.25q0 .312-.219.531Q6.062 7 5.75 7q-.312 0-.531-.219Q5 6.562 5 6.25V3.5q0-.625.438-1.062Q5.875 2 6.5 2h10q.625 0 1.062.438Q18 2.875 18 3.5v10q0 .625-.438 1.062Q17.125 15 16.5 15Zm-3 3q-.625 0-1.062-.438Q2 17.125 2 16.5V5.75q0-.312.219-.531Q2.438 5 2.75 5q.312 0 .531.219.219.219.219.531V16.5h10.75q.312 0 .531.219.219.219.219.531 0 .312-.219.531-.219.219-.531.219Zm7.625-8H5.75q-.312 0-.531-.219Q5 9.562 5 9.25q0-.312.219-.531.219-.219.531-.219h5.375l-.917-.917q-.229-.229-.218-.531.01-.302.239-.531.229-.229.531-.229.302 0 .532.229l2.187 2.208q.229.229.229.521 0 .292-.229.521l-2.208 2.208q-.229.229-.521.219-.292-.01-.521-.24-.229-.229-.229-.531 0-.302.229-.531Z"/></svg>