<svg xmlns="http://www.w3.org/2000/svg" height="20" width="20"><path d="M9 14q-.125 0-.229-.083-.104-.084-.146-.209-.271-.833-.677-1.396l-.781-1.083q-.375-.521-.646-1.083-.271-.563-.271-1.354 0-1.167.802-1.98Q7.854 6 9 6t1.948.812q.802.813.802 1.98 0 .791-.271 1.354-.271.562-.646 1.083l-.781 1.083q-.406.563-.677 1.396-.042.125-.146.209Q9.125 14 9 14Zm0-1.875q.208-.354.417-.646.208-.291.416-.562.417-.563.667-1.011.25-.448.25-1.114 0-.75-.51-1.271Q9.729 7 9 7t-1.24.521q-.51.521-.51 1.271 0 .666.25 1.114.25.448.667 1.011.208.271.416.562.209.292.417.646ZM9 10q.417 0 .708-.292Q10 9.417 10 9t-.292-.708Q9.417 8 9 8t-.708.292Q8 8.583 8 9t.292.708Q8.583 10 9 10Zm0-1Zm0 8q-2.917 0-4.958-2.042Q2 12.917 2 10q0-1.458.552-2.729.552-1.271 1.5-2.219t2.219-1.5Q7.542 3 9 3q1.438 0 2.719.552t2.239 1.511q.959.958 1.521 2.27.563 1.313.521 2.813l.438-.438q.229-.229.52-.229.292 0 .521.229.229.23.229.532 0 .302-.229.531l-1.708 1.708q-.229.229-.521.229-.292 0-.521-.229L13 10.75q-.229-.229-.219-.521.011-.291.24-.521.229-.229.531-.229.302 0 .531.229l.417.417q.042-2.354-1.583-3.99Q11.292 4.5 9 4.5q-2.271 0-3.885 1.615Q3.5 7.729 3.5 10t1.615 3.885Q6.729 15.5 9 15.5q1.146 0 2.146-.438 1-.437 1.75-1.187.229-.229.542-.25.312-.021.541.208.229.229.219.563-.01.333-.24.562-.937.959-2.218 1.5Q10.458 17 9 17Z"/></svg>