<svg xmlns="http://www.w3.org/2000/svg" height="20" width="20"><path d="M16.667 14.75H14.25q-.312 0-.531-.219-.219-.219-.219-.531 0-.312.219-.531.219-.219.531-.219h2.417l-.646-.667q-.104-.104-.156-.239-.053-.136-.053-.282 0-.145.053-.281.052-.135.156-.239.229-.23.531-.23.302 0 .531.23l1.896 1.937q.229.229.229.521 0 .292-.229.521l-1.896 1.937q-.229.23-.531.23-.302 0-.531-.23-.104-.104-.156-.239-.053-.136-.053-.281 0-.146.053-.282.052-.135.156-.239Zm-9.5-2.208q1.187 0 2.145-.594.959-.594 1.5-1.531-.77-.605-1.697-.948-.927-.344-1.948-.344t-1.948.344q-.927.343-1.698.948.541.937 1.5 1.531.958.594 2.146.594Zm0-4.167q.708 0 1.208-.5t.5-1.208q0-.709-.5-1.209-.5-.5-1.208-.5-.709 0-1.209.5-.5.5-.5 1.209 0 .708.5 1.208t1.209.5Zm0 7.625q2.521-2.312 3.718-4.177 1.198-1.865 1.198-3.323 0-2.271-1.416-3.677-1.417-1.406-3.5-1.406-2.084 0-3.5 1.406Q2.25 6.229 2.25 8.5q0 1.458 1.198 3.323T7.167 16Zm0-6.292Zm0 8.271q-.188 0-.355-.062-.166-.063-.312-.167-3.042-2.708-4.521-4.979T.5 8.5q0-3.146 2-4.99 2-1.843 4.667-1.843 2.666 0 4.666 1.843 2 1.844 2 4.99 0 2-1.479 4.271T7.833 17.75q-.125.104-.302.167-.177.062-.364.062Z"/></svg>