<svg xmlns="http://www.w3.org/2000/svg" height="20" viewBox="0 -960 960 960" width="20"><path d="m819-341 45-46-45-45-45 46 45 45Zm-15 82L691-372l95-94q7-7 16-10.5t18-3.5q9 0 18 3.5t16 10.5l44 45q7 7 10.5 16t3.5 18q0 9-3.5 18T898-353l-94 94Zm-2 189q-14 0-25-11l-76-75-1 1q-5 5-11.5 8t-14.5 3h-62q-15 0-25.5-10.5T576-180v-62q0-8 3-14.5t8-11.5l1-1L81-778q-11-11-11-25t11-25q11-11 25.5-11t25.5 11l696 696q11 11 10.5 25.5T827-81q-11 11-25 11ZM168-192q-29 0-50.5-21.5T96-264v-432q0-30 21-51t51-21h24l396 397-63 63q-11 11-16 24t-5 27v29q0 15-10.5 25.5T468-192H168Zm472-231L295-768h65l60 120q5 11 16 17.5t23 6.5q24 0 36.5-20t1.5-42l-41-82h96l60 120q5 11 16 17.5t23 6.5q24 0 36.5-20t1.5-42l-41-82h144q30 0 51 21.5t21 50.5v113q0 14-12 23.5t-27 7.5q-8-1-15-.5t-15 2.5q-17 4-32 12t-28 21l-95 94Z"/></svg>