<svg xmlns="http://www.w3.org/2000/svg" height="20" viewBox="0 -960 960 960" width="20"><path d="M449-408Zm127-79ZM168-192q-29 0-50.5-21.5T96-264v-432q0-29.7 21.15-50.85Q138.3-768 168-768h24l216 216H168v288h300q15.3 0 25.65 10.29Q504-243.42 504-228.21t-10.35 25.71Q483.3-192 468-192H168Zm696-504v108q0 15.3-10.35 25.65Q843.3-552 828-552H511L295-768h65l60 120q5 11 15.78 17.5T459-624q24 0 36.5-20t1.5-42l-41-82h96l60 120q5 11 15.78 17.5T651-624q23.71 0 36.35-20Q700-664 689-686l-41-82h144q29.7 0 50.85 21.5Q864-725 864-696Zm0 309-45-45 45 45Zm-60 128L691-372l95-94q7.26-7.41 16.13-10.71Q811-480 819.76-480q9.55 0 18.31 3.5Q846.83-473 854-466l44 45q7.41 7.26 10.71 16.13Q912-396 912-387.24t-3.29 17.92q-3.3 9.15-10.71 16.32l-94 94Zm-180 67h41l-41-41v41ZM802-70q-14 0-25-11l-76-75-1 1q-5 5-11.5 8t-14.07 3H612q-15.3 0-25.65-10.35Q576-164.7 576-180v-62.43q0-7.57 3-14.07t8-11.5l1-1L81-778q-11-11-11-25t11-25q11-11 25.67-11 14.66 0 25.33 11l695.72 695.72Q839-121 838.5-106.5 838-92 827-81t-25 11Z"/></svg>