<svg xmlns="http://www.w3.org/2000/svg" height="20" viewBox="0 -960 960 960" width="20"><path d="M168-192q-29 0-50.5-21.5T96-264v-432q0-29.7 21.15-50.85Q138.3-768 168-768h24l216 216H168v288h527.2l71.8 72H168Zm678-25-54-54v-281H511L295-768h65l60 120q5 11 15.78 17.5Q446.561-624 459-624q24.098 0 36.549-20T497-686l-41-82h96l60 120q5 11 15.781 17.5Q638.561-624 651-624q23.71 0 36.355-20Q700-664 689-686l-41-82h144q29.7 0 50.85 21.5Q864-725 864-696v432q0 14-5 25.5T846-217ZM742.92-115.095l-627.84-627.81Q104-754 104-768q0-14 11-25t25.667-11q14.666 0 25.333 11l627.919 627.919Q805-154 805-139.818q0 14.182-11 24.818-10.667 11-25.333 11-14.667 0-25.747-11.095ZM449-408Zm203-4Z"/></svg>