<svg xmlns="http://www.w3.org/2000/svg" height="20" viewBox="0 96 960 960" width="20"><path d="M744 806v-62q0-9.6-7.2-16.8-7.2-7.2-16.8-7.2-9.6 0-16.8 7.2-7.2 7.2-7.2 16.8v67q0 8 3 14.5t8.091 11.591L758 888q7.364 7 17.182 7Q785 895 792 888q7-7 7-16.818 0-9.818-7-17.182l-48-48ZM489 688V504h87l-36-24h-51V336q0-20.4 13.8-34.2Q516.6 288 537 288h77q13.2 0 24.6 6.286Q650 300.571 656 312l67 120h-56l-36-72h-79v24h65l36 72h83l62 108q-19-6-38.435-9-19.436-3-39.565-3-75 0-136 37.5T489 688Zm-72 176h-71q-13.2 0-24.6-6.286Q310 851.429 304 840l-67-120h52.673L326 792h80v-24h-65l-36-72h-81l-55-96q-3-5-4.5-11.333Q163 582.333 163 576q0-3 6-24l55-96h83l36-72h65v-24h-79l-36 72h-56l67-120q6-11.429 17.4-17.714Q332.8 288 346 288h71q20.4 0 34.2 13.8Q465 315.6 465 336v144h-45l-36 24h81v120h-86l-36-72h-79l-26 24h91l35.789 72H465v99q-5 17-7 33.9t-2 35.1v13q0 6 1 13-6 10-16.5 16t-23.5 6Zm302.774 144Q640 1008 584 951.774t-56-136Q528 736 584.226 680t136-56Q800 624 856 680.226t56 136Q912 896 855.774 952t-136 56Z"/></svg>