<svg xmlns="http://www.w3.org/2000/svg" height="20" width="20"><path d="M8.229 17q-.979 0-1.667-.646-.687-.646-.791-1.604-1.188-.125-1.979-1Q3 12.875 3 11.667q0-.417.094-.865T3.417 10q-.209-.354-.313-.75Q3 8.854 3 8.438q0-1.188.771-2.042.771-.854 1.958-1.021.042-1 .771-1.687Q7.229 3 8.229 3q.5 0 .959.188.458.187.812.541.354-.354.802-.541Q11.25 3 11.75 3q1 0 1.729.688.729.687.771 1.687 1.188.146 1.969 1.01Q17 7.25 17 8.438q0 .437-.115.833-.114.396-.323.75.25.417.344.833.094.417.094.813 0 1.208-.802 2.093-.802.886-1.99.99-.104.958-.791 1.604-.688.646-1.667.646-.479 0-.938-.177-.458-.177-.812-.531-.354.333-.812.52-.459.188-.959.188ZM10.75 5.521V14.5q0 .417.292.719.291.302.708.302t.688-.292q.27-.291.291-.708-.396-.167-.729-.427-.333-.261-.604-.615-.188-.25-.136-.552.052-.302.323-.489.25-.188.552-.146.303.041.49.312.229.313.563.479.333.167.729.167.666 0 1.125-.458.458-.459.458-1.125 0-.146-.021-.271-.021-.125-.062-.25-.334.187-.709.281-.375.094-.791.094-.313 0-.532-.219-.218-.219-.218-.531 0-.313.218-.531.219-.219.532-.219.666 0 1.125-.459.458-.458.458-1.124 0-.646-.458-1.105-.459-.458-1.167-.479-.229.354-.552.625-.323.271-.74.417-.291.104-.573-.031-.281-.136-.385-.427-.104-.292.031-.573.136-.282.427-.386.292-.104.479-.364.188-.261.188-.594 0-.417-.292-.719-.291-.302-.708-.302t-.708.302q-.292.302-.292.719ZM9.25 14.5V5.521q0-.417-.302-.719T8.229 4.5q-.417 0-.708.302-.292.302-.292.719 0 .333.188.594.187.26.479.364.292.104.427.386.135.281.031.573-.104.291-.385.427-.281.135-.573.031-.417-.146-.74-.417t-.552-.625q-.687.021-1.146.479-.458.459-.458 1.105 0 .666.458 1.124.459.459 1.125.459.313 0 .532.219.218.218.218.531 0 .312-.218.531-.219.219-.532.219-.416 0-.791-.104-.375-.105-.709-.292-.041.125-.062.26-.021.136-.021.282 0 .666.458 1.125.459.458 1.125.458.396 0 .729-.167.334-.166.563-.479.187-.271.5-.323.313-.052.563.136.25.187.302.5.052.312-.136.562-.25.354-.594.625-.343.271-.76.438.021.416.292.687.27.271.687.271.417 0 .719-.292.302-.291.302-.708Zm.75-4.479Z"/></svg>