<svg xmlns="http://www.w3.org/2000/svg" height="20" width="20"><path d="M4.5 17q-.625 0-1.062-.438Q3 16.125 3 15.5v-11q0-.625.438-1.062Q3.875 3 4.5 3h4.25q.312 0 .531.219.219.219.219.531 0 .312-.219.531-.219.219-.531.219H4.5v11h11v-4.25q0-.312.219-.531.219-.219.531-.219.312 0 .531.219.219.219.219.531v4.25q0 .625-.438 1.062Q16.125 17 15.5 17Zm8.75-10.25h-1.5q-.312 0-.531-.219Q11 6.312 11 6q0-.312.219-.531.219-.219.531-.219h1.5v-1.5q0-.312.219-.531Q13.688 3 14 3q.312 0 .531.219.219.219.219.531v1.5h1.5q.312 0 .531.219Q17 5.688 17 6q0 .312-.219.531-.219.219-.531.219h-1.5v1.5q0 .312-.219.531Q14.312 9 14 9q-.312 0-.531-.219-.219-.219-.219-.531Z"/></svg>