<svg xmlns="http://www.w3.org/2000/svg" height="20" width="20"><path d="m15.479 17.583-.979-.958q-1.021.667-2.156 1.021Q11.208 18 10 18q-1.646 0-3.104-.625-1.458-.625-2.552-1.719t-1.719-2.552Q2 11.646 2 10q0-1.208.354-2.344.354-1.135 1.021-2.156l-.979-.979q-.229-.229-.219-.531.011-.302.24-.532.229-.229.531-.229.302 0 .531.229l13.063 13.084q.229.229.229.52 0 .292-.229.521-.23.229-.532.229-.302 0-.531-.229ZM5.5 10q0 1.875 1.312 3.188Q8.125 14.5 10 14.5q.292 0 .552-.031.26-.031.531-.094.084-.021.25-.313.021-.104-.031-.208-.052-.104-.156-.187-.417-.25-.844-.771t-.719-1.188L5.938 8.062q-.209.438-.323.928Q5.5 9.479 5.5 10Zm11.125 4.5L9.854 7.729q.292-.5.677-.885.386-.386.615-.511.104-.083.156-.187.052-.104.031-.208-.021-.105-.083-.188t-.167-.125q-.271-.063-.531-.094T10 5.5q-.521 0-1.01.104-.49.104-.928.334L5.5 3.375q1-.667 2.146-1.021Q8.792 2 10 2q1.667 0 3.115.625 1.447.625 2.541 1.719 1.094 1.094 1.719 2.541Q18 8.333 18 10q0 1.208-.354 2.354-.354 1.146-1.021 2.146Z"/></svg>