<svg xmlns="http://www.w3.org/2000/svg" height="20" width="20"><path d="M8.062 5.938q.438-.23.928-.334Q9.479 5.5 10 5.5q.292 0 .552.031.26.031.531.094.084.021.25.313 0 .062-.187.395-.229.125-.615.511-.385.385-.677.885ZM10 14.562q-1.875-.041-3.188-1.364Q5.5 11.875 5.5 10q0-.938.354-1.76.354-.823.958-1.428l2.5 2.5q-.041.167-.052.344-.01.177-.01.344 0 1.188.531 2.156.531.969 1.365 1.573.104.083.156.188.052.104.031.229-.021.104-.083.177t-.167.115q-.271.062-.531.093t-.552.031Zm5.479 3.021-.979-.958q-1.021.667-2.156 1.021Q11.208 18 10 18q-1.646 0-3.104-.625-1.458-.625-2.552-1.719t-1.719-2.552Q2 11.646 2 10q0-1.208.354-2.344.354-1.135 1.021-2.156l-.979-.979q-.229-.229-.229-.531 0-.302.229-.532.229-.229.531-.229.302 0 .531.229l13.084 13.084q.229.229.229.52 0 .292-.229.521-.23.229-.532.229-.302 0-.531-.229ZM10 16.5q.917 0 1.771-.271.854-.271 1.646-.708L4.479 6.583q-.437.792-.708 1.646Q3.5 9.083 3.5 10q0 2.708 1.896 4.604T10 16.5Zm6.625-2-1.104-1.083q.458-.792.719-1.646.26-.854.26-1.771 0-2.708-1.896-4.604T10 3.5q-.917 0-1.771.26-.854.261-1.646.719L5.5 3.375q1-.667 2.146-1.021Q8.792 2 10 2q1.667 0 3.115.625 1.447.625 2.541 1.719 1.094 1.094 1.719 2.541Q18 8.333 18 10q0 1.208-.354 2.354-.354 1.146-1.021 2.146Zm-5.646-5.646ZM8.75 11.25Z"/></svg>