<svg xmlns="http://www.w3.org/2000/svg" height="20" width="20"><path d="M14.25 6.75h-1.5q-.312 0-.531-.219Q12 6.312 12 6q0-.312.219-.531.219-.219.531-.219h1.5v-1.5q0-.312.219-.531Q14.688 3 15 3q.312 0 .531.219.219.219.219.531v1.5h1.5q.312 0 .531.219Q18 5.688 18 6q0 .312-.219.531-.219.219-.531.219h-1.5v1.5q0 .312-.219.531Q15.312 9 15 9q-.312 0-.531-.219-.219-.219-.219-.531Zm.688 6.958q-.834 1.563-2.365 2.427Q11.042 17 9.25 17q-2.604 0-4.427-1.823Q3 13.354 3 10.75q0-2.208 1.281-3.927 1.281-1.719 3.365-2.219.312-.083.594-.021.281.063.448.229.166.167.229.428.062.26-.063.572-.166.438-.26.886t-.094.927q0 2.021 1.375 3.448T13.25 12.5q.208 0 .417-.01.208-.011.416-.052.271-.042.49.062.219.104.344.292.125.187.145.427.021.239-.124.489Z"/></svg>