<svg xmlns="http://www.w3.org/2000/svg" height="20" viewBox="0 -960 960 960" width="20"><path d="M480-96q-79.376 0-149.188-30Q261-156 208.5-208.5T126-330.812Q96-400.624 96-480q0-57.927 17-112.909Q130-647.891 162-696l-47-48q-11-11-11-25t11-25q11-11 25.667-11 14.666 0 25.333 11l627.903 627.919Q805-155 805-140.818q0 14.182-11 24.818-10.667 11-25.333 11Q754-105 743-116l-47-46q-48.109 32-103.091 49Q537.927-96 480-96ZM372-288h198l-72-72H372q-15.3 0-25.65 10.289-10.35 10.29-10.35 25.5Q336-309 346.35-298.5 356.7-288 372-288Zm426 23L549-513l83-83q11-11 11-25.5T632-647q-11-11-25.5-11T581-647l-83 83-234-234q48.109-32 103.091-49Q422.073-864 480-864q80 0 149.5 30t122 82.5Q804-699 834-629.5T864-480q0 57.659-17 112.386Q830-312.886 798-265Z"/></svg>