<svg xmlns="http://www.w3.org/2000/svg" height="20" viewBox="0 -960 960 960" width="20"><path d="M372-288q-15.3 0-25.65-10.289-10.35-10.29-10.35-25.5Q336-339 346.35-349.5 356.7-360 372-360h228l72 72H372ZM480-96q-79.376 0-149.188-30Q261-156 208.5-208.5T126-330.812Q96-400.624 96-480q0-57.927 17-112.909Q130-647.891 162-696l-47-48q-11-11-11-25t11-25q11-11 25.667-11 14.666 0 25.333 11l627.919 627.919Q805-155 805-140.818q0 14.182-11 24.818-10.667 11-25.333 11Q754-105 743-116l-47-46q-48.109 32-103.091 49Q537.927-96 480-96Zm163-119L215-643q-23.5 37-35.25 78T168-480q0 130 91 221t221 91q44 0 85-11.75T643-215Zm-88-340ZM406-406Zm225-241q11 11 11 25.5T631-596l-56 57q-11 11-25.5 11T524-539q-11-11-11-25.5t11-25.5l57-57q11-11 25.182-11 14.182 0 24.818 11ZM312-826q39-19 81.5-28.5T480-864q79.68 0 149.76 30.208 70.08 30.208 121.92 81.994 51.84 51.785 82.08 121.792Q864-560 864-480q0 44-10 86.5T825-312q-7 14-21.609 18-14.608 4-27.391-4-13-8-17-22.333-4-14.334 3-28.667 14-31 22-64t8-67q0-130-91-221t-221-91q-34 0-67 7.5T349-763q-14 6-28 2.5T299-777q-8-13-4.5-27.5T312-826Z"/></svg>