<svg xmlns="http://www.w3.org/2000/svg" height="20" width="20"><path d="M5.542 7.938q-.438-.584-.698-1.25-.261-.667-.261-1.396 0-.146.011-.271.01-.125.031-.271.042-.312.25-.531.208-.219.5-.219.333 0 .563.219.229.219.187.531-.021.125-.031.24-.011.114-.011.239 0 .625.292 1.167t.667 1.042q.416.541.698 1.166.281.625.281 1.292v.166q0 .084-.021.167-.042.313-.25.542-.208.229-.5.229-.354 0-.583-.219-.229-.219-.188-.531.021-.104.031-.198.011-.094.011-.198 0-.562-.323-1.021-.323-.458-.656-.895Zm2.979 0q-.438-.584-.698-1.25-.261-.667-.261-1.396 0-.146.011-.271.01-.125.031-.271.042-.312.25-.531.208-.219.5-.219.334 0 .563.219.229.219.187.531-.021.125-.031.24-.011.114-.011.239 0 .625.292 1.167t.667 1.042q.417.541.698 1.166.281.625.281 1.292v.166q0 .084-.021.167-.041.313-.25.542-.208.229-.5.229-.354 0-.583-.219-.229-.219-.188-.531.021-.104.032-.198.01-.094.01-.198 0-.562-.323-1.021-.323-.458-.656-.895Zm2.979 0q-.438-.584-.698-1.25-.26-.667-.26-1.396 0-.146.01-.271.01-.125.031-.271.042-.312.25-.531.209-.219.5-.219.334 0 .563.219.229.219.187.531-.021.125-.031.24-.01.114-.01.239 0 .625.291 1.167.292.542.667 1.042.417.541.698 1.166.281.625.281 1.292v.166q0 .084-.021.167-.041.313-.25.542-.208.229-.5.229-.354 0-.583-.219-.229-.219-.187-.531.02-.104.031-.198.01-.094.01-.198 0-.562-.323-1.021-.323-.458-.656-.895ZM10 16q-2.917 0-4.958-1.094Q3 13.812 3 12.25q0-.729.51-1.406.511-.677 1.49-1.219v1.813q-.25.229-.375.427-.125.197-.125.385 0 .833 1.708 1.542Q7.917 14.5 10 14.5q2.083 0 3.792-.708 1.708-.709 1.708-1.542 0-.188-.125-.385-.125-.198-.375-.427V9.625q.979.521 1.49 1.208.51.688.51 1.417 0 1.562-2.042 2.656Q12.917 16 10 16Z"/></svg>