<svg xmlns="http://www.w3.org/2000/svg" height="20" width="20"><path d="M4.5 17q-.625 0-1.062-.438Q3 16.125 3 15.5v-11q0-.625.438-1.062Q3.875 3 4.5 3h11q.625 0 1.062.438Q17 3.875 17 4.5v4.75q0 .312-.219.531-.219.219-.531.219-.312 0-.531-.219-.219-.219-.219-.531V4.5h-11v11h4.75q.312 0 .531.219.219.219.219.531 0 .312-.219.531Q9.562 17 9.25 17Zm9.938-1.5L7.521 8.583q-.229-.229-.219-.531.01-.302.24-.531.229-.229.531-.229.302 0 .531.229l6.896 6.917V12.75q0-.312.219-.531.219-.219.531-.219.312 0 .531.219.219.219.219.531v3.5q0 .312-.219.531-.219.219-.531.219h-3.5q-.312 0-.531-.219Q12 16.562 12 16.25q0-.312.219-.531.219-.219.531-.219Z"/></svg>