<svg xmlns="http://www.w3.org/2000/svg" height="20" viewBox="0 -960 960 960" width="20"><path d="m480-198 60-59q10.636-11 24.818-11Q579-268 590-257q11 11 11 25.667 0 14.666-11 25.333l-85 85q-5.4 5-11.7 7.5-6.3 2.5-13.5 2.5t-13.5-2.5Q460-116 455-121l-85-85q-11-10.667-11-25.333Q359-246 370-257q11-11 25.182-11 14.182 0 24.818 11l60 59ZM198-480l59 60q11 10.636 11 24.818Q268-381 257-370q-11 11-25.667 11-14.666 0-25.333-11l-85-85q-5-5.4-7.5-11.7-2.5-6.3-2.5-13.5t2.5-13.5Q116-500 121-505l85-85q10.667-11 25.333-11Q246-601 257-590q11 11 11 25.182 0 14.182-11 24.818l-59 60Zm564 0-59-60q-11-10.636-11-24.818Q692-579 703-590q11-11 25.667-11 14.666 0 25.333 11l85 85q5 5.4 7.5 11.7 2.5 6.3 2.5 13.5t-2.5 13.5Q844-460 839-455l-85 85q-10.667 11-25.333 11Q714-359 703-370q-11-11-11-25.182 0-14.182 11-24.818l59-60ZM480-762l-60 59q-10.636 11-24.818 11Q381-692 370-703q-11-11-11-25.667 0-14.666 11-25.333l85-85q5.4-5 11.7-7.5 6.3-2.5 13.5-2.5t13.5 2.5Q500-844 505-839l85 85q11 10.667 11 25.333Q601-714 590-703q-11 11-25.182 11-14.182 0-24.818-11l-60-59Z"/></svg>