<svg xmlns="http://www.w3.org/2000/svg" height="20" width="20"><path d="M8.125 2.875q.229-.229.531-.229.302 0 .532.229l.604.604q.229.25.323.573.093.323-.011.656-.104.354-.364.584-.261.229-.615.291-1.292.25-2.24 1.157-.947.906-1.26 2.198-.063.25-.26.406-.198.156-.469.156H3.75q-.312 0-.531-.219Q3 9.062 3 8.75q0-.312.219-.531Q3.438 8 3.75 8h.583q.479-1.396 1.552-2.396t2.511-1.396l-.271-.27q-.229-.23-.229-.532 0-.302.229-.531ZM12.5 10q0-.75.271-1.458.271-.709.875-1.146-.313-.438-.708-.792-.396-.354-.876-.604-.291-.146-.427-.427-.135-.281-.031-.573.104-.292.375-.437.271-.146.563-.001.854.396 1.541 1.032.688.635 1.146 1.468.917.25 1.344 1.094Q17 9 17 10q0 .979-.427 1.833-.427.855-1.344 1.105-.458.833-1.146 1.458-.687.625-1.541 1.042-.292.124-.563-.011-.271-.135-.375-.427-.104-.292.031-.573.136-.281.427-.427.48-.25.876-.594.395-.344.708-.781-.604-.458-.875-1.156T12.5 10Zm2.25 1.5q.292 0 .521-.469.229-.469.229-1.031 0-.562-.229-1.031-.229-.469-.521-.469-.292 0-.521.469Q14 9.438 14 10q0 .562.229 1.031.229.469.521.469Zm-6.625 5.625q-.229-.229-.229-.531 0-.302.229-.532l.271-.27q-1.438-.396-2.511-1.396-1.073-1-1.552-2.396H3.75q-.312 0-.531-.219Q3 11.562 3 11.25q0-.312.219-.531.219-.219.531-.219h1.146q.271 0 .469.156.197.156.26.406.313 1.271 1.26 2.188.948.917 2.24 1.167.354.083.604.302.25.219.354.573.105.333.021.656-.083.323-.333.573l-.583.604q-.23.229-.532.229-.302 0-.531-.229ZM14.75 10Z"/></svg>