<svg xmlns="http://www.w3.org/2000/svg" height="20" width="20"><path d="M2.5 16q-.625 0-1.062-.438Q1 15.125 1 14.5v-9q0-.625.438-1.062Q1.875 4 2.5 4h9q.625 0 1.062.438Q13 4.875 13 5.5v9q0 .625-.438 1.062Q12.125 16 11.5 16Zm0-1.5h9v-9h-9v9ZM15.25 16q-.312 0-.531-.219-.219-.219-.219-.531V4.75q0-.312.219-.531Q14.938 4 15.25 4q.312 0 .531.219.219.219.219.531v10.5q0 .312-.219.531-.219.219-.531.219Zm3 0q-.312 0-.531-.219-.219-.219-.219-.531V4.75q0-.312.219-.531Q17.938 4 18.25 4q.312 0 .531.219.219.219.219.531v10.5q0 .312-.219.531-.219.219-.531.219ZM2.5 14.5v-9 9Z"/></svg>