<svg xmlns="http://www.w3.org/2000/svg" height="20" viewBox="0 96 960 960" width="20"><path d="M267 840h33q15.3 0 25.65 10.289 10.35 10.29 10.35 25.5Q336 891 325.65 901.5 315.3 912 300 912H180q-15.3 0-25.65-10.35Q144 891.3 144 876V756q0-15.3 10.289-25.65 10.29-10.35 25.5-10.35Q195 720 205.5 730.35 216 740.7 216 756v33l92-92q11-11 25.5-11t25.5 11q11 11 11 25.5T359 748l-92 92Zm477-477-92 92q-11 11-25 10.5T602 454q-11-11-11-25.5t11-25.5l91-91h-33q-15.3 0-25.65-10.289-10.35-10.29-10.35-25.5Q624 261 634.35 250.5 644.7 240 660 240h120q15.3 0 25.65 10.35Q816 260.7 816 276v120q0 15.3-10.289 25.65-10.29 10.35-25.5 10.35Q765 432 754.5 421.65 744 411.3 744 396v-33Z"/></svg>