<svg xmlns="http://www.w3.org/2000/svg" height="20" width="20"><path d="m10.375 9.625-1-.458Q9.271 9.125 9.271 9t.104-.167l1-.458.458-1q.042-.104.167-.104t.167.104l.458 1 1 .458q.104.042.104.167t-.104.167l-1 .458-.458 1q-.042.104-.167.104t-.167-.104ZM7.729 5.271l-1.354-.604q-.104-.042-.104-.167t.104-.167l1.354-.604.604-1.354q.042-.104.167-.104t.167.104l.604 1.354 1.354.604q.104.042.104.167t-.104.167l-1.354.604-.604 1.354q-.042.104-.167.104t-.167-.104ZM1 15.25V12.5q0-.625.438-1.062Q1.875 11 2.5 11h2.771q.375 0 .687.177.313.177.542.469.604.875 1.521 1.364.917.49 1.979.49t1.979-.49q.917-.489 1.521-1.364.229-.292.542-.469.312-.177.687-.177H17.5q.625 0 1.062.438.438.437.438 1.062v2.75q0 .312-.219.531-.219.219-.531.219h-4.5q-.312 0-.531-.219Q13 15.562 13 15.25v-1.125q-.646.479-1.427.677Q10.792 15 10 15q-.792 0-1.562-.198-.771-.198-1.438-.677v1.125q0 .312-.219.531Q6.562 16 6.25 16h-4.5q-.312 0-.531-.219Q1 15.562 1 15.25ZM3.5 10q-1.042 0-1.771-.729Q1 8.542 1 7.5q0-1.042.729-1.771Q2.458 5 3.5 5q1.042 0 1.771.729Q6 6.458 6 7.5q0 1.042-.729 1.771Q4.542 10 3.5 10Zm13 0q-1.042 0-1.771-.729Q14 8.542 14 7.5q0-1.042.729-1.771Q15.458 5 16.5 5q1.042 0 1.771.729Q19 6.458 19 7.5q0 1.042-.729 1.771Q17.542 10 16.5 10Z"/></svg>