<svg xmlns="http://www.w3.org/2000/svg" height="20" viewBox="0 -960 960 960" width="20"><path d="M168-432q-50 0-85-35t-35-85q0-50 35-85t85-35q50 0 85 35t35 85q0 50-35 85t-85 35Zm-36 240q-15.3 0-25.65-10.289Q96-212.579 96-227.789 96-243 106.35-253.5 116.7-264 132-264h696q15.3 0 25.65 10.289 10.35 10.29 10.35 25.5Q864-213 853.65-202.5 843.3-192 828-192H132Zm348-240q-50 0-85-35t-35-85q0-50 35-85t85-35q50 0 85 35t35 85q0 50-35 85t-85 35Zm312 0q-50 0-85-35t-35-85q0-50 35-85t85-35q50 0 85 35t35 85q0 50-35 85t-85 35Z"/></svg>