<svg xmlns="http://www.w3.org/2000/svg" height="20" viewBox="0 -960 960 960" width="20"><path d="M168-432q-50 0-85-35t-35-85q0-50 35-85t85-35q50 0 85 35t35 85q0 50-35 85t-85 35Zm624 0q-50 0-85-35t-35-85q0-50 35-85t85-35q50 0 85 35t35 85q0 50-35 85t-85 35ZM600-552q0 11-2 21t-6 21q-4 11-15.5 12.5T557-504L433-630q-8-8-6.5-18.5T438-664q10-4 20.667-6 10.666-2 21.333-2 50 0 85 35t35 85ZM132-192q-15.3 0-25.65-10.289Q96-212.579 96-227.789 96-243 106.35-253.5 116.7-264 132-264h462L114.889-743.111Q104-754 104-768.5t11-25.5q11-11 25.5-11t25.5 11l628 628q11 11 11 25t-11 25q-11 11-25.5 11T743-116l-77-76H132Z"/></svg>