<svg xmlns="http://www.w3.org/2000/svg" height="20" width="20"><path d="M13 12q-1.042 0-1.771-.729-.729-.729-.729-1.771 0-1.042.729-1.771Q11.958 7 13 7q1.042 0 1.771.729.729.729.729 1.771 0 1.042-.729 1.771Q14.042 12 13 12Zm-4.25 5q-.312 0-.531-.219Q8 16.562 8 16.25v-.562q0-.584.302-1.063t.802-.729q.896-.438 1.875-.667Q11.958 13 13 13q1.042 0 2.021.229.979.229 1.875.667.5.25.802.729.302.479.302 1.063v.562q0 .312-.219.531-.219.219-.531.219Zm-.5-5.25h-4.5q-.312 0-.531-.219Q3 11.312 3 11q0-.312.219-.531.219-.219.531-.219h4.5q.312 0 .531.219Q9 10.688 9 11q0 .312-.219.531-.219.219-.531.219Zm3-6.25h-7.5q-.312 0-.531-.219Q3 5.062 3 4.75q0-.312.219-.531Q3.438 4 3.75 4h7.5q.312 0 .531.219.219.219.219.531 0 .312-.219.531-.219.219-.531.219ZM9.104 8.625H3.75q-.312 0-.531-.219Q3 8.188 3 7.875q0-.313.219-.531.219-.219.531-.219h6.042q-.25.333-.417.708-.167.375-.271.792Z"/></svg>