<svg xmlns="http://www.w3.org/2000/svg" height="20" width="20"><path d="M8.25 10Q7.458 10 6.938 9.406Q6.417 8.812 6.521 8.021L6.771 6.083Q6.938 4.896 7.854 4.115Q8.771 3.333 10 3.333Q11.229 3.333 12.146 4.115Q13.062 4.896 13.229 6.083L13.479 8.021Q13.583 8.812 13.062 9.406Q12.542 10 11.75 10ZM5.021 16.667Q4.292 16.667 3.781 16.156Q3.271 15.646 3.271 14.917V14.271Q3.271 13.542 3.646 12.958Q4.021 12.375 4.625 12.083Q5.896 11.479 7.26 11.156Q8.625 10.833 10 10.833Q11.375 10.833 12.75 11.156Q14.125 11.479 15.375 12.083Q15.979 12.375 16.354 12.958Q16.729 13.542 16.729 14.271V14.917Q16.729 15.646 16.219 16.156Q15.708 16.667 14.979 16.667Z"/></svg>