<svg xmlns="http://www.w3.org/2000/svg" height="20" viewBox="0 96 960 960" width="20"><path d="M480 744q-57 0-112 14t-104 43v87h432v-87q-49-29-104-43t-112-14ZM263.717 960Q234 960 213 938.85T192 888V264q0-29.7 21.162-50.85Q234.324 192 264.04 192h432.243Q726 192 747 213.15T768 264v624q0 29.7-21.162 50.85Q725.676 960 695.96 960H263.717Zm216.525-264Q540 696 582 653.758q42-42.243 42-102Q624 492 581.758 450q-42.243-42-102-42Q420 408 378 450.242q-42 42.243-42 102Q336 612 378.242 654q42.243 42 102 42Z"/></svg>