<svg xmlns="http://www.w3.org/2000/svg" height="20" width="20"><path d="M3.979 9.792 1.958 7.771q-.229-.229-.229-.521 0-.292.229-.521l2.021-2.021q.229-.229.521-.229.292 0 .521.229l2.021 2.021q.229.229.229.521 0 .292-.229.521L5.021 9.792q-.229.229-.521.229-.292 0-.521-.229ZM8.25 18q-.312 0-.531-.219-.219-.219-.219-.531v-3.354q-1-.063-1.969-.24-.969-.177-1.948-.406-.312-.083-.489-.365-.177-.281-.073-.593.104-.292.385-.427.282-.136.615-.053 1.479.355 2.979.5 1.5.146 3 .146 1.521 0 3.021-.146 1.5-.145 2.979-.5.333-.083.615.053.281.135.385.427.104.312-.073.593-.177.282-.489.365-.98.229-1.959.406-.979.177-1.979.24v3.354q0 .312-.219.531-.219.219-.531.219ZM4.5 8.188l.938-.938-.938-.938-.938.938ZM10 6q-1.042 0-1.771-.729Q7.5 4.542 7.5 3.5q0-1.042.729-1.771Q8.958 1 10 1q1.042 0 1.771.729.729.729.729 1.771 0 1.042-.729 1.771Q11.042 6 10 6Zm0 5.5q-.625 0-1.062-.438Q8.5 10.625 8.5 10t.438-1.062Q9.375 8.5 10 8.5t1.062.438q.438.437.438 1.062t-.438 1.062q-.437.438-1.062.438Zm0-7q.417 0 .708-.292Q11 3.917 11 3.5t-.292-.708Q10.417 2.5 10 2.5t-.708.292Q9 3.083 9 3.5t.292.708q.291.292.708.292Zm4 4.625-.875-1.5q-.104-.167-.104-.375t.104-.375l.875-1.5q.104-.167.271-.271.167-.104.375-.104h1.729q.208 0 .375.104t.271.271l.875 1.5q.104.167.104.375t-.104.375l-.875 1.5q-.104.167-.271.271-.167.104-.375.104h-1.729q-.208 0-.375-.104T14 9.125ZM15.042 8h.896l.458-.75-.438-.75h-.896l-.458.75ZM4.5 7.25ZM10 3.5Zm5.5 3.75Z"/></svg>