<svg xmlns="http://www.w3.org/2000/svg" height="20" width="20"><path d="M7.5 16.25v-3.354q-.958-.063-1.875-.208-.917-.146-1.833-.376-.313-.083-.49-.354-.177-.27-.073-.562.104-.313.396-.458.292-.146.646-.063 1.417.333 2.844.469 1.427.135 2.885.135 1.438 0 2.875-.135 1.437-.136 2.854-.469.354-.083.656.063.303.145.407.458.104.292-.084.562-.187.271-.5.354-.937.23-1.854.376-.916.145-1.854.208v3.354q0 .312-.219.531-.219.219-.531.219h-3.5q-.312 0-.531-.219-.219-.219-.219-.531ZM10 10.5q-.625 0-1.062-.438Q8.5 9.625 8.5 9q0-.604.438-1.052Q9.375 7.5 10 7.5q.604 0 1.052.448.448.448.448 1.052 0 .625-.448 1.062-.448.438-1.052.438Zm-5.75-2q-.542 0-.896-.354T3 7.25q0-.521.354-.885Q3.708 6 4.25 6q.521 0 .885.365.365.364.365.885 0 .542-.365.896-.364.354-.885.354Zm11.5 0q-.542 0-.896-.354T14.5 7.25q0-.521.354-.885Q15.208 6 15.75 6q.521 0 .885.365.365.364.365.885 0 .542-.365.896-.364.354-.885.354Zm-9.25-3q-.542 0-.896-.354T5.25 4.25q0-.521.354-.885Q5.958 3 6.5 3q.521 0 .885.365.365.364.365.885 0 .542-.365.896-.364.354-.885.354Zm7 0q-.542 0-.896-.354t-.354-.896q0-.521.354-.885Q12.958 3 13.5 3q.521 0 .885.365.365.364.365.885 0 .542-.365.896-.364.354-.885.354Zm-3.5-1q-.542 0-.896-.354T8.75 3.25q0-.521.354-.885Q9.458 2 10 2q.521 0 .885.365.365.364.365.885 0 .542-.365.896-.364.354-.885.354Z"/></svg>