<svg xmlns="http://www.w3.org/2000/svg" height="20" width="20"><path d="M12.229 17.208q.188.063.375.042.188-.021.334-.125.145-.104.229-.271.083-.166.083-.354V14q0-.312-.219-.531-.219-.219-.531-.219H7.812q-.437 0-.708.25-.271.25-.333.604-.063.354.073.688.135.333.552.5ZM15.771 9q.5 0 .864.354.365.354.365.854 0 .396-.208.688-.209.292-.834.479l-1.208.375H7.812q-1.062 0-1.812.75t-.75 1.812q0 .48.167.907.166.427.479.781H3.75q-.312 0-.531-.219Q3 15.562 3 15.25V13q0-1.667 1.167-2.833Q5.333 9 7 9ZM10 2q1.25 0 2.125.875T13 5q0 1.25-.875 2.125T10 8q-1.25 0-2.125-.875T7 5q0-1.25.875-2.125T10 2Z"/></svg>