<svg xmlns="http://www.w3.org/2000/svg" height="20" width="20"><path d="M14.167 12.042 7.958 5.833l1.563-1.562q.604-.625 1.417-.948Q11.75 3 12.625 3q1.833 0 3.104 1.271Q17 5.542 17 7.375q0 .875-.333 1.687-.334.813-.938 1.417Zm-2.125 2.125-1.563 1.562q-.604.604-1.417.938Q8.25 17 7.375 17q-1.833 0-3.104-1.271Q3 14.458 3 12.625q0-.875.333-1.687.334-.813.938-1.417l1.583-1.563L2.396 4.5q-.229-.229-.229-.521 0-.291.229-.521.229-.229.531-.229.302 0 .531.229l13.084 13.084q.229.229.229.52 0 .292-.229.521-.23.229-.532.229-.302 0-.531-.229Z"/></svg>