<svg xmlns="http://www.w3.org/2000/svg" height="20" viewBox="0 96 960 960" width="20"><path d="M132 576q-15.3 0-25.65-10.289Q96 555.421 96 540.211 96 525 106.35 514.5 116.7 504 132 504h129L96 339q-11-10.667-11-25.333Q85 299 96 288q11-11 25.667-11 14.666 0 25.333 11l165 165V324q0-15.3 10.289-25.65 10.29-10.35 25.5-10.35Q363 288 373.5 298.35 384 308.7 384 324v216q0 15.3-10.35 25.65Q363.3 576 348 576H132Zm36 288q-29.7 0-50.85-21.15Q96 821.7 96 792V684q0-15.3 10.289-25.65 10.29-10.35 25.5-10.35Q147 648 157.5 658.35 168 668.7 168 684v108h300q15.3 0 25.65 10.289 10.35 10.29 10.35 25.5Q504 843 493.65 853.5 483.3 864 468 864H168Zm660.211-264Q813 600 802.5 589.65 792 579.3 792 564V360H492q-15.3 0-25.65-10.289-10.35-10.29-10.35-25.5Q456 309 466.35 298.5 476.7 288 492 288h300q29.7 0 50.85 21.15Q864 330.3 864 360v204q0 15.3-10.289 25.65-10.29 10.35-25.5 10.35ZM612.283 864Q597 864 586.5 853.65 576 843.3 576 828V708q0-15.3 10.338-25.65Q596.677 672 611.96 672h215.757Q843 672 853.5 682.35 864 692.7 864 708v120q0 15.3-10.338 25.65Q843.323 864 828.04 864H612.283Z"/></svg>