<svg xmlns="http://www.w3.org/2000/svg" height="20" width="20"><path d="M3.5 16q-.625 0-1.062-.438Q2 15.125 2 14.5v-4.25q0-.312.219-.531.219-.219.531-.219H8q.625 0 1.062-.438Q9.5 8.625 9.5 8V4.75q0-.312.219-.531Q9.938 4 10.25 4h6.25q.625 0 1.062.438Q18 4.875 18 5.5v9q0 .625-.438 1.062Q17.125 16 16.5 16Zm8.25-7q-.312 0-.531.219Q11 9.438 11 9.75v2.5q0 .312.219.531.219.219.531.219.312 0 .531-.219.219-.219.219-.531v-.688l1.417 1.417q.229.229.531.219.302-.01.531-.24.229-.229.229-.531 0-.302-.229-.531L13.562 10.5h.688q.312 0 .531-.219.219-.219.219-.531 0-.312-.219-.531Q14.562 9 14.25 9Zm-9-1q-.312 0-.531-.219Q2 7.562 2 7.25v-2.5q0-.312.219-.531Q2.438 4 2.75 4h4.5q.312 0 .531.219Q8 4.438 8 4.75v2.5q0 .312-.219.531Q7.562 8 7.25 8Z"/></svg>