<svg xmlns="http://www.w3.org/2000/svg" height="20" viewBox="0 -960 960 960" width="20"><path d="M480-168q-24 0-42 13.5t-26 35.443Q410-109 402.411-102.5 394.821-96 385-96h-97q-29.7 0-50.85-21.15Q216-138.3 216-168v-624q0-29.7 21.15-50.85Q258.3-864 288-864h97q9.9 0 17.55 6.44T412-841q8 22 26 35.5t42 13.5q24 0 42-13.5t26-35.443q2-10.057 9.589-16.557 7.59-6.5 17.411-6.5h97q29.7 0 50.85 21.15Q744-821.7 744-792v624q0 29.7-21.15 50.85Q701.7-96 672-96h-97q-9.9 0-17.55-6.44T548-119q-8-22-26-35.5T480-168Zm0-72q38 0 71.426 19.35Q584.853-201.3 605-168h67v-624h-67q-20.147 33.3-53.574 52.65Q518-720 480-720t-71.426-19.35Q375.147-758.7 355-792h-67v624h67q20.147-33.3 53.574-52.65Q442-240 480-240Zm0-240Z"/></svg>