<svg xmlns="http://www.w3.org/2000/svg" height="20" width="20"><path d="M3.292 9q-.438 0-.657-.375-.218-.375.011-.75l2.708-4.729q.229-.375.646-.375.417 0 .646.375l2.708 4.729q.229.375.011.75Q9.146 9 8.708 9ZM6 17q-1.25 0-2.125-.875T3 14q0-1.25.875-2.125T6 11q1.25 0 2.125.875T9 14q0 1.25-.875 2.125T6 17Zm0-1.5q.625 0 1.062-.438Q7.5 14.625 7.5 14t-.438-1.062Q6.625 12.5 6 12.5t-1.062.438Q4.5 13.375 4.5 14t.438 1.062Q5.375 15.5 6 15.5Zm-1.396-8h2.792L6 5.021ZM11.75 17q-.312 0-.531-.219Q11 16.562 11 16.25v-4.5q0-.312.219-.531.219-.219.531-.219h4.5q.312 0 .531.219.219.219.219.531v4.5q0 .312-.219.531-.219.219-.531.219Zm.75-1.5h3v-3h-3ZM6.021 6.25Zm0 7.688Zm7.958 0ZM12.938 5.5l-1.417-1.417q-.229-.229-.219-.531.01-.302.24-.531.229-.229.531-.229.302 0 .531.229L14 4.438l1.417-1.417q.229-.229.531-.229.302 0 .531.229.229.229.229.531 0 .302-.229.531L15.062 5.5l1.417 1.417q.229.229.229.521 0 .291-.229.52-.229.23-.531.23-.302 0-.531-.23L14 6.562l-1.417 1.417q-.229.229-.521.219-.291-.01-.52-.24-.23-.229-.23-.531 0-.302.23-.531Z"/></svg>