<svg xmlns="http://www.w3.org/2000/svg" height="20" width="20"><path d="M10.5 4q0 .625-.438 1.062Q9.625 5.5 9 5.5q-.208 0-.417-.062-.208-.063-.375-.167-.479.104-.854.427t-.521.802h9.271q.354 0 .573.26.219.261.156.615l-.729 4q-.042.271-.25.448t-.479.177h-2.833v-1.5h2.208q.104-.625.229-1.25T15.208 8H4.792q.104.625.229 1.25t.229 1.25h2.208V12H4.625q-.271 0-.479-.177-.208-.177-.25-.448l-.729-4q-.063-.354.156-.615.219-.26.573-.26h1.396q.146-.917.739-1.604.594-.688 1.469-.979.042-.605.469-1.011Q8.396 2.5 9 2.5q.625 0 1.062.438.438.437.438 1.062ZM8.312 15.5h3.376l.604-5H7.708l.604 5Zm4.021 1.5H7.667q-.292 0-.5-.188-.209-.187-.25-.479l-.688-5.645q-.083-.667.375-1.178Q7.062 9 7.729 9h4.542q.667 0 1.125.51.458.511.375 1.178l-.688 5.645q-.041.292-.25.479-.208.188-.5.188Z"/></svg>