<svg xmlns="http://www.w3.org/2000/svg" height="20" width="20"><path d="M10.5 4q0 .625-.438 1.062Q9.625 5.5 9 5.5q-.208 0-.417-.062-.208-.063-.375-.167-.479.104-.854.427t-.521.802h9.271q.354 0 .573.26.219.261.156.615l-.729 4q-.042.271-.25.448t-.479.177h-1.271l.167-1.25q.104-.896-.49-1.573-.593-.677-1.51-.677H7.729q-.917 0-1.51.677-.594.677-.49 1.573L5.896 12H4.625q-.271 0-.479-.177-.208-.177-.25-.448l-.729-4q-.063-.354.156-.615.219-.26.573-.26h1.396q.146-.917.739-1.604.594-.688 1.469-.979.042-.605.469-1.011Q8.396 2.5 9 2.5q.625 0 1.062.438.438.437.438 1.062ZM8.104 16.5h3.792q.292 0 .5-.188.208-.187.25-.479l.625-5.208q.041-.458-.24-.792-.281-.333-.76-.333H7.729q-.479 0-.76.333-.281.334-.24.792l.625 5.208q.042.292.25.479.208.188.5.188Z"/></svg>