<svg xmlns="http://www.w3.org/2000/svg" height="20" width="20"><path d="m13.812 11.708 3.376-3.354.52.521q.23.229.23.531 0 .302-.23.532l-2.312 2.312q-.229.229-.521.229-.292 0-.521-.229ZM1.75 14q0-.438.24-.823.239-.385.656-.552.396-.167.75-.385.354-.219.729-.448l1.125 1.104q.104.125.26.125.157 0 .261-.125.104-.104.104-.25 0-.146-.104-.271l-1.042-1.042q.167-.125.313-.271.146-.145.291-.312l1.021 1.042q.104.125.261.125.156 0 .281-.125.104-.104.104-.25 0-.146-.104-.292l-1.084-1.062q.105-.167.24-.334.136-.166.24-.354l1.146 1.125q.104.125.25.125.145 0 .27-.125.104-.104.104-.25 0-.146-.104-.271l-1.27-1.292 1.187-2.708q.063-.125.135-.239.073-.115.178-.219l2.083-2.084q.437-.437 1.062-.437t1.063.437l4.25 4.25-7.354 7.73q-.23.229-.5.343-.271.115-.584.115H3.25q-.625 0-1.062-.438-.438-.437-.438-1.062Zm6.479.5 6.333-6.646L8.229 14.5Zm-4.979 0h4.979l6.333-6.646-3.229-3.229-2.104 2.104-.958 2.25.417.479q.374.48.395 1.094.021.615-.395 1.031l-2.126 2.125q-.458.459-1.083.459t-1.041-.459q-.292.146-.594.167-.302.021-.573.125Z"/></svg>