<svg xmlns="http://www.w3.org/2000/svg" height="20" width="20"><path d="M10 11.5q-.625 0-1.062-.438Q8.5 10.625 8.5 10t.438-1.062Q9.375 8.5 10 8.5t1.062.438q.438.437.438 1.062t-.438 1.062q-.437.438-1.062.438ZM10 7q-.312 0-.531-.219-.219-.219-.219-.531v-3.5q0-.312.219-.531Q9.688 2 10 2q.312 0 .531.219.219.219.219.531v3.5q0 .312-.219.531Q10.312 7 10 7Zm0 11q-.312 0-.531-.219-.219-.219-.219-.531v-3.5q0-.312.219-.531Q9.688 13 10 13q.312 0 .531.219.219.219.219.531v3.5q0 .312-.219.531Q10.312 18 10 18Zm3.75-7.25q-.312 0-.531-.219Q13 10.312 13 10q0-.312.219-.531.219-.219.531-.219h3.5q.312 0 .531.219Q18 9.688 18 10q0 .312-.219.531-.219.219-.531.219Zm-11 0q-.312 0-.531-.219Q2 10.312 2 10q0-.312.219-.531.219-.219.531-.219h3.5q.312 0 .531.219Q7 9.688 7 10q0 .312-.219.531-.219.219-.531.219Z"/></svg>