<svg xmlns="http://www.w3.org/2000/svg" height="20" width="20"><path d="M10 10q-1.25 0-2.125-.875T7 7q0-1.25.875-2.125T10 4q1.25 0 2.125.875T13 7q0 1.25-.875 2.125T10 10Zm-6 5.25V14q0-.479.26-.906.261-.427.719-.719 1.146-.667 2.427-1.021Q8.688 11 10 11q1.312 0 2.594.354 1.281.354 2.427 1.021.458.271.719.708.26.438.26.917v1.25q0 .312-.219.531-.219.219-.531.219H4.75q-.312 0-.531-.219Q4 15.562 4 15.25Zm6-.75h4.5V14q0-.104-.062-.198-.063-.094-.167-.135-.959-.584-2.042-.875Q11.146 12.5 10 12.5Zm0-6q.625 0 1.062-.438Q11.5 7.625 11.5 7t-.438-1.062Q10.625 5.5 10 5.5Z"/></svg>