<svg xmlns="http://www.w3.org/2000/svg" height="20" width="20"><path d="M15.479 17.583 13.875 16H4.75q-.312 0-.531-.219Q4 15.562 4 15.25v-1.167q0-.541.26-.989.261-.448.719-.719.896-.542 1.896-.875 1-.333 2.063-.438L2.396 4.521q-.229-.229-.219-.531.011-.302.24-.532.229-.229.531-.229.302 0 .531.229l13.063 13.084q.229.229.229.52 0 .292-.229.521-.23.229-.532.229-.302 0-.531-.229ZM10 14.5h2.375l-1.979-2H10Zm5.042-2.125q.416.229.666.625.25.396.292.875l-2.062-2.063q.291.126.562.261.271.135.542.302ZM11.646 9.5l-1.125-1.104q.437-.167.708-.552.271-.386.271-.844 0-.625-.438-1.062Q10.625 5.5 10 5.5v2.354l-2.5-2.5q.417-.646 1.083-1Q9.25 4 10 4q1.25 0 2.125.875T13 7q0 .75-.354 1.417-.354.666-1 1.083Z"/></svg>