<svg xmlns="http://www.w3.org/2000/svg" height="20" width="20"><path d="M15 7.521V10.812Q15 11.167 14.875 11.469Q14.75 11.771 14.521 12.021V12L6.604 4.083V3.375Q6.604 3.021 6.865 2.76Q7.125 2.5 7.479 2.5Q7.833 2.5 8.094 2.76Q8.354 3.021 8.354 3.375V5.771H11.646V3.375Q11.646 3.021 11.906 2.76Q12.167 2.5 12.521 2.5Q12.875 2.5 13.135 2.76Q13.396 3.021 13.396 3.375V6.646L12.521 5.771H13.25Q13.979 5.771 14.49 6.281Q15 6.792 15 7.521ZM8.75 17.5Q8.396 17.5 8.135 17.24Q7.875 16.979 7.875 16.625V15L5.5 12.625Q5.25 12.375 5.125 12.052Q5 11.729 5 11.375V7.417Q5 6.938 5.26 6.531Q5.521 6.125 5.938 5.896V8.354L1.75 4.167Q1.625 4.042 1.562 3.885Q1.5 3.729 1.5 3.552Q1.5 3.375 1.562 3.219Q1.625 3.062 1.75 2.938Q2 2.688 2.365 2.688Q2.729 2.688 2.979 2.938L17.062 17.021Q17.312 17.271 17.312 17.625Q17.312 17.979 17.062 18.229Q16.812 18.479 16.448 18.479Q16.083 18.479 15.833 18.229L12.354 14.771L12.125 15V16.625Q12.125 16.979 11.865 17.24Q11.604 17.5 11.25 17.5Z"/></svg>