<svg xmlns="http://www.w3.org/2000/svg" height="20" viewBox="0 96 960 960" width="20"><path d="M672 912q-10.2 0-17.1-6.9-6.9-6.9-6.9-17.1V744q0-10 7-17.5t17-6.5h24v-48q0-29.7 21.212-50.85 21.213-21.15 51-21.15Q798 600 819 621.15q21 21.15 21 50.85v48h24q10.2 0 17.1 6.9 6.9 6.9 6.9 17.1v144q0 10.2-6.9 17.1-6.9 6.9-17.1 6.9H672Zm60-192h72v-48q0-15.3-10.289-25.65-10.29-10.35-25.5-10.35Q753 636 742.5 646.35 732 656.7 732 672v48ZM168 504h623-623Zm72 372V768H132q-15.3 0-25.65-10.35Q96 747.3 96 732V528q0-40 28-68t68-28h576q40 0 68 28t28 68v21q-17-8-35.065-12.529Q810.871 531.941 791 530q-5-11-15-18.5t-23-7.5H206q-16.15 0-27.075 11.04T168 542.4V696h72v-36q0-15.3 10.35-25.65Q260.7 624 276 624h299q-12 16-21.559 33.778Q543.882 675.556 538 696H312v144h227q6.482 19.871 15.741 37.935Q564 896 576 912H276q-15.3 0-25.65-10.35Q240 891.3 240 876Zm0-444V312q0-30 21.15-51T312 240h336q29.7 0 50.85 21.15Q720 282.3 720 312v120h-72V312H312v120h-72Z"/></svg>