<svg xmlns="http://www.w3.org/2000/svg" height="20" width="20"><path d="M15.646 9q-.729 0-1.479-.375-.75-.375-1.625-1.167-.813-.75-1.24-1.708Q10.875 4.792 11 4q.042-.229.135-.427.094-.198.24-.344.542-.541 2.073-.906t2.885-.302q.479.041.802.114.323.073.49.24.146.146.219.427.073.281.114.698.104 1.333-.26 2.938-.365 1.604-.906 2.145-.209.209-.5.313Q16 9 15.646 9Zm.75-3.833q.042-.355.062-.771.021-.417.042-.896-.396-.021-.823.01-.427.032-.865.094.271.188.48.354.208.167.396.354.187.188.354.386.166.198.354.469ZM15.729 7.5q.042-.354-.281-.99-.323-.635-.823-1.135-.521-.521-1.083-.812-.563-.292-1.042-.292-.042.417.281 1.031.323.615.823 1.094.521.479 1.188.823.666.343.937.281Zm-2.041 4H6.312q-.291 0-.562-.104-.271-.104-.479-.313l-3.25-3.041q-.229-.209-.229-.511 0-.302.208-.531.208-.229.51-.24.302-.01.532.198L6.292 10h7.375q.312 0 .583.125.271.125.5.354l3.292 3.479q.208.23.198.532-.011.302-.24.51-.229.208-.531.208-.302 0-.511-.229ZM7.75 18q-.312 0-.531-.219Q7 17.562 7 17.25V14.5q0-.625.438-1.062Q7.875 13 8.5 13h3q.625 0 1.062.438.438.437.438 1.062v2.75q0 .312-.219.531-.219.219-.531.219Zm.75-1.5h3v-2h-3Zm0 0v-2 2Z"/></svg>