<svg xmlns="http://www.w3.org/2000/svg" height="20" viewBox="0 96 960 960" width="20"><path d="M216 648v-72h72v72h-72Zm-72-72v-72h72v72h-72Zm336-264v-72h72v72h-72Zm-288 96h120V288H192v120Zm-48 12.055V276.276Q144 261 154.334 250.5t25.611-10.5h143.779Q339 240 349.5 250.334t10.5 25.611v143.779Q360 435 349.666 445.5T324.055 456H180.276Q165 456 154.5 445.666T144 420.055ZM192 864h120V744H192v120Zm-48 12.055V732.276Q144 717 154.334 706.5t25.611-10.5h143.779Q339 696 349.5 706.334t10.5 25.611v143.779Q360 891 349.666 901.5T324.055 912H180.276Q165 912 154.5 901.666T144 876.055ZM648 408h120V288H648v120Zm-48 12.055V276.276Q600 261 610.334 250.5t25.611-10.5h143.779Q795 240 805.5 250.334t10.5 25.611v143.779Q816 435 805.666 445.5T780.055 456H636.276Q621 456 610.5 445.666T600 420.055ZM360 648v-72h-72v-72h144v144h-72Zm48-192V312h72v72h72v72H408Zm-180-84v-48h48v48h-48Zm0 456v-48h48v48h-48Zm456-456v-48h48v48h-48Zm-72 408h-96q-15.3 0-25.65-10.289-10.35-10.29-10.35-25.5Q480 729 490.35 718.5 500.7 708 516 708h96v-96q0-15.3 10.289-25.65 10.29-10.35 25.5-10.35Q663 576 673.5 586.35 684 596.7 684 612v96h96q15.3 0 25.65 10.289 10.35 10.29 10.35 25.5Q816 759 805.65 769.5 795.3 780 780 780h-96v96q0 15.3-10.289 25.65-10.29 10.35-25.5 10.35Q633 912 622.5 901.65 612 891.3 612 876v-96Z"/></svg>