<svg xmlns="http://www.w3.org/2000/svg" height="20" width="20"><path d="M10 19q-2.354 0-4.323-1.094-1.969-1.094-3.177-2.927v1.771q0 .312-.219.531-.219.219-.531.219-.312 0-.531-.219Q1 17.062 1 16.75v-3.5q0-.312.219-.531.219-.219.531-.219h3.5q.312 0 .531.219.219.219.219.531 0 .312-.219.531Q5.562 14 5.25 14H3.646q1 1.583 2.666 2.542Q7.979 17.5 10 17.5q2.938 0 5.052-1.958 2.115-1.959 2.406-4.813.042-.312.261-.521.219-.208.531-.208.312 0 .542.219.229.219.187.51-.146 1.729-.896 3.24-.75 1.51-1.958 2.625-1.208 1.114-2.781 1.76Q11.771 19 10 19Zm0-16.5q-2.938 0-5.052 1.958-2.115 1.959-2.406 4.813-.042.312-.261.521Q2.062 10 1.75 10q-.312 0-.542-.219-.229-.219-.187-.51.146-1.729.896-3.24.75-1.51 1.958-2.625 1.208-1.114 2.781-1.76Q8.229 1 10 1q2.354 0 4.323 1.094 1.969 1.094 3.177 2.927V3.25q0-.312.219-.531.219-.219.531-.219.312 0 .531.219.219.219.219.531v3.5q0 .312-.219.531-.219.219-.531.219h-3.5q-.312 0-.531-.219Q14 7.062 14 6.75q0-.312.219-.531Q14.438 6 14.75 6h1.604q-1-1.583-2.666-2.542Q12.021 2.5 10 2.5ZM10 15q.438 0 .74-.302t.302-.74q0-.437-.302-.75-.302-.312-.74-.312t-.74.302q-.302.302-.302.74 0 .437.302.75.302.312.74.312Zm1.625-5.146q.5-.479.854-.989.354-.511.354-1.261 0-1.187-.812-1.896Q11.208 5 10 5q-.833 0-1.479.344-.646.344-1.063 1.01-.166.271-.052.584.115.312.406.437.292.125.573-.01.282-.136.49-.386.229-.25.51-.396.282-.145.615-.145.583 0 .969.322.385.323.385.865 0 .479-.344.875-.343.396-.739.792-.542.52-.75.875-.209.354-.25.895-.042.334.187.563.23.229.563.229.312 0 .521-.239.208-.24.27-.553.063-.354.24-.593.177-.24.573-.615Z"/></svg>