<svg xmlns="http://www.w3.org/2000/svg" height="20" width="20"><path d="M14 16q.208 0 .354-.146t.146-.354v-1q0-.208-.146-.354T14 14q-.208 0-.354.146t-.146.354v1q0 .208.146.354T14 16Zm0-3q.208 0 .354-.135.146-.136.146-.365 0-.208-.146-.354T14 12q-.229 0-.365.146-.135.146-.135.354 0 .229.135.365.136.135.365.135ZM4.5 3.5v13-13V7ZM6.75 12h2.125q.167-.417.375-.792.208-.375.5-.708h-3q-.312 0-.531.219Q6 10.938 6 11.25q0 .312.219.531.219.219.531.219Zm0 3h1.833q-.062-.375-.083-.75-.021-.375.021-.75H6.75q-.312 0-.531.219Q6 13.938 6 14.25q0 .312.219.531.219.219.531.219ZM4.5 18q-.625 0-1.062-.438Q3 17.125 3 16.5v-13q0-.625.438-1.062Q3.875 2 4.5 2h5.875q.292 0 .563.104.27.104.5.334l3.124 3.124q.23.23.334.501.104.27.104.562v1.958q-.375-.062-.75-.083-.375-.021-.75.021V7h-2.75q-.312 0-.531-.219Q10 6.562 10 6.25V3.5H4.5v13h4.604q.229.417.5.792.271.375.625.708Zm9.5-8q1.667 0 2.833 1.167Q18 12.333 18 14q0 1.667-1.167 2.833Q15.667 18 14 18q-1.667 0-2.833-1.167Q10 15.667 10 14q0-1.667 1.167-2.833Q12.333 10 14 10Z"/></svg>