<svg xmlns="http://www.w3.org/2000/svg" height="20" width="20"><path d="M14 16q.208 0 .354-.146t.146-.354v-1q0-.208-.146-.354T14 14q-.208 0-.354.146t-.146.354v1q0 .208.146.354T14 16Zm0-3q.208 0 .354-.135.146-.136.146-.365 0-.208-.146-.354T14 12q-.229 0-.365.146-.135.146-.135.354 0 .229.135.365.136.135.365.135Zm0 5q-1.667 0-2.833-1.167Q10 15.667 10 14q0-1.667 1.167-2.833Q12.333 10 14 10q1.667 0 2.833 1.167Q18 12.333 18 14q0 1.667-1.167 2.833Q15.667 18 14 18ZM10.75 7h2.75L10 3.5 13.5 7 10 3.5v2.75q0 .312.219.531.219.219.531.219ZM4.5 18q-.625 0-1.062-.438Q3 17.125 3 16.5v-13q0-.625.438-1.062Q3.875 2 4.5 2h5.875q.292 0 .563.104.27.104.5.334l3.124 3.124q.23.23.334.501.104.27.104.562v1.958q-.25-.041-.49-.062-.239-.021-.489-.021-1.292 0-2.396.531-1.104.531-1.875 1.469h-3q-.312 0-.531.219Q6 10.938 6 11.25q0 .312.219.531.219.219.531.219h2.125q-.146.354-.229.729-.084.375-.125.771H6.75q-.312 0-.531.219Q6 13.938 6 14.25q0 .312.219.531.219.219.531.219h1.833q.167.875.584 1.635.416.761 1.062 1.365Z"/></svg>