<svg xmlns="http://www.w3.org/2000/svg" height="20" width="20"><path d="M14 16q.833 0 1.417-.583Q16 14.833 16 14q0-.833-.583-1.417Q14.833 12 14 12q-.667 0-1.333.5Q12 13 12 14q0 .833.583 1.417Q13.167 16 14 16Zm4.479 2.479q-.229.229-.531.229-.302 0-.531-.229l-1.521-1.541q-.417.27-.896.416-.479.146-.979.146-1.479 0-2.5-1.021T10.5 14q0-1.458 1.021-2.479Q12.542 10.5 14 10.5q1.458 0 2.479 1.021Q17.5 12.542 17.5 14q0 .521-.146 1t-.416.896l1.541 1.521q.229.229.229.531 0 .302-.229.531ZM4.5 18q-.625 0-1.062-.438Q3 17.125 3 16.5v-13q0-.625.438-1.062Q3.875 2 4.5 2h5.875q.292 0 .563.104.27.104.5.334l3.124 3.124q.23.23.334.501.104.27.104.562v2.479q-.25-.042-.5-.073Q14.25 9 14 9q-1.062 0-1.979.406t-1.604 1.115L6.75 10.5q-.104 0-.229.302t-.24.573q-.114.271-.198.323Q6 11.75 6 11.25q0 .312.219.531.219.219.531.219h2.667q-.167.354-.261.729t-.135.771H6.75q-.312 0-.531.219Q6 13.938 6 14.25q0 .312.219.531.219.219.531.219h2.354q.167.896.656 1.677.49.781 1.219 1.323ZM10 3.5v2.75q0 .312.219.531.219.219.531.219h2.75L10 3.5 13.5 7Z"/></svg>