<svg xmlns="http://www.w3.org/2000/svg" height="20" viewBox="0 96 960 960" width="20"><path d="M891 813q-14 7-27.5 2T843 796L639 388q-7-14-2-27.5t19-20.5q14-7 27.5-2.5T704 356l204 408q7 14 2 28t-19 21Zm-587-1q-14 7-27.5 2.5T256 796L52 388q-7-14-2.5-27.5T68 340q14-7 27.5-2.5T116 356l204 408q7 14 2.5 27.5T304 812Zm196 0q-14 7-27.5 2.5T452 796L248 388q-7-14-2.5-27.5T264 340q14-7 27.5-2.5T312 356l204 408q7 14 2.5 27.5T500 812Zm196 0q-14 7-27.5 2.5T648 796L444 388q-7-14-2.5-27.5T460 340q14-7 27.5-2.5T508 356l204 408q7 14 2.5 27.5T696 812Z"/></svg>