<svg xmlns="http://www.w3.org/2000/svg" height="20" viewBox="0 96 960 960" width="20"><path d="M185 574q-14 7-27.5 2.5T137 558L52 388q-7-14-2.5-27.5T68 340q14-7 28-2.5t20 18.5l85 170q7 14 2.5 27.5T185 574Zm119 238q-14 7-28 2.5T255 796l-68-136q-7-14-2-27.5t19-20.5q14-7 27.5-2.5T252 628l68 136q7 14 2.5 27.5T304 812Zm108-175q-14 7-27.5 2.5T364 621L248 388q-7-14-2.5-27.5T264 340q14-7 28-2.5t20 18.5l117 233q7 14 2 27.5T412 637Zm88 175q-14 7-27.5 2.5T452 796l-37-73q-7-14-2-27.5t19-20.5q14-7 27.5-2.5T480 691l36 73q7 14 2.5 27.5T500 812Zm28-335q-14 7-27.5 2.5T480 461l-36-73q-7-14-2.5-27.5T460 340q14-7 28-2.5t20 18.5l36 73q7 14 2.5 27.5T528 477Zm168 335q-14 7-27.5 2.5T648 796L531 563q-7-14-2.5-28t18.5-21q14-7 28-2.5t21 18.5l116 234q7 14 2.5 27.5T696 812Zm94-203q-14 7-27.5 2T742 592L640 388q-7-14-2.5-27.5T656 340q14-7 28-2.5t21 18.5l101 204q7 14 2.5 28T790 609Zm101 204q-14 7-27.5 2T843 796l-51-101q-7-14-2-28t19-21q14-7 27.5-2.5T857 662l51 102q7 14 2 28t-19 21Z"/></svg>