<svg xmlns="http://www.w3.org/2000/svg" height="20" width="20"><path d="M13.625 7q.313 0 .531-.219.219-.219.219-.531 0-.312-.219-.531-.218-.219-.531-.219-.313 0-.531.219-.219.219-.219.531 0 .312.219.531.218.219.531.219Zm-2.875 8.5h5.75v-11h-5.75ZM3.5 17q-.625 0-1.062-.438Q2 16.125 2 15.5v-4.75h3.125l-.667.667q-.229.229-.218.521.01.291.239.52.229.23.531.23.302 0 .532-.23l1.937-1.937q.229-.229.229-.521 0-.292-.229-.521L5.521 7.521Q5.292 7.292 5 7.292q-.292 0-.521.229-.229.229-.229.531 0 .302.229.531l.646.667H2V4.5q0-.625.438-1.062Q2.875 3 3.5 3h13q.625 0 1.062.438Q18 3.875 18 4.5v11q0 .625-.438 1.062Q17.125 17 16.5 17Z"/></svg>