<svg xmlns="http://www.w3.org/2000/svg" height="20" width="20"><path d="M11.5 16h-6q-.625 0-1.062-.438Q4 15.125 4 14.5v-.417q0-.479.26-.948.261-.468.719-.76 1.146-.667 2.427-1.021Q8.688 11 10 11q.396 0 .75.031t.75.094v1.521q-.396-.084-.74-.115-.343-.031-.76-.031-1.146 0-2.229.292-1.083.291-2.042.875-.104.083-.167.198-.062.114-.062.218v.417h6Zm-6-1.5h6ZM10 10q-1.25 0-2.125-.875T7 7q0-1.25.875-2.125T10 4q1.25 0 2.125.875T13 7q0 1.25-.875 2.125T10 10Zm0-1.5q.625 0 1.062-.438Q11.5 7.625 11.5 7t-.438-1.062Q10.625 5.5 10 5.5t-1.062.438Q8.5 6.375 8.5 7t.438 1.062Q9.375 8.5 10 8.5ZM10 7Zm4.5 8h-.75q-.312 0-.531-.219Q13 14.562 13 14.25v-3.5q0-.312.219-.531.219-.219.531-.219h3.396q.292 0 .469.25t.052.542L16.5 13.5h.479q.333 0 .49.281.156.281-.011.573l-2.604 4.104q-.083.125-.219.084-.135-.042-.135-.188Z"/></svg>