<svg xmlns="http://www.w3.org/2000/svg" height="20" width="20"><path d="M2 10q0-1.396.458-2.677.459-1.281 1.334-2.365.208-.25.531-.291.323-.042.552.187.229.229.229.552 0 .323-.208.573-.667.875-1.031 1.886Q3.5 8.875 3.5 10q0 1.104.365 2.115.364 1.01 1.031 1.885.208.25.208.562 0 .313-.229.542-.229.229-.542.219-.312-.011-.521-.24-.895-1.062-1.354-2.364Q2 11.417 2 10Zm5.75 5q-.521 0-.885-.365-.365-.364-.365-.885t.365-.885q.364-.365.885-.365t.885.365q.365.364.365.885t-.365.885Q8.271 15 7.75 15Zm3.5-4q-.312 0-.531-.219-.219-.219-.219-.531v-.958l-.833.479q-.271.167-.563.083-.292-.083-.458-.354-.167-.271-.084-.562.084-.292.355-.459L9.75 8l-.833-.479q-.271-.167-.355-.458-.083-.292.084-.563.166-.271.458-.354.292-.084.563.083l.833.479V5.75q0-.312.219-.531Q10.938 5 11.25 5q.312 0 .531.219.219.219.219.531v.958l.833-.479q.271-.167.563-.083.292.083.458.354.167.271.084.563-.084.291-.355.458L12.75 8l.833.479q.271.167.355.459.083.291-.084.562-.166.271-.458.354-.292.084-.563-.083L12 9.292v.958q0 .312-.219.531-.219.219-.531.219ZM18 10q0 1.396-.458 2.688-.459 1.291-1.334 2.354-.208.25-.52.27-.313.021-.542-.208-.229-.229-.24-.531-.01-.302.198-.552.667-.854 1.031-1.875.365-1.021.365-2.146t-.354-2.135q-.354-1.011-1.021-1.886-.208-.25-.208-.573 0-.323.229-.552.229-.229.531-.208.302.021.511.25.895 1.083 1.354 2.385Q18 8.583 18 10Z"/></svg>