<svg xmlns="http://www.w3.org/2000/svg" height="20" width="20"><path d="M10 17q-.354 0-.677-.135-.323-.136-.552-.386l-5.333-4.958h2.187l4.125 3.833q.042.042.115.073.073.031.135.031.062 0 .135-.031.073-.031.115-.073l5.333-4.958q.479-.458.719-1.094.24-.635.219-1.302 0-1.396-.906-2.448Q14.708 4.5 13.333 4.5q-.625 0-1.208.271t-1.021.729l-.542.583q-.104.105-.25.167-.145.062-.312.062t-.302-.062q-.136-.062-.24-.167L8.896 5.5q-.438-.479-1.011-.74-.573-.26-1.218-.26-1.125 0-1.948.719T3.604 7.021H2.083q.334-1.688 1.584-2.854Q4.917 3 6.667 3q.958 0 1.812.396.854.396 1.521 1.083.646-.708 1.51-1.094Q12.375 3 13.333 3q2 0 3.344 1.49 1.344 1.489 1.344 3.531 0 .979-.333 1.875-.334.896-1.042 1.562L11.229 16.5q-.25.25-.562.375Q10.354 17 10 17Zm.062-6.979H2.417v-1.5h10.771q.312 0 .531-.219.219-.219.219-.531 0-.313-.219-.531-.219-.219-.531-.219-.25 0-.459.146-.208.145-.271.395L11 7.167q.188-.729.802-1.188.615-.458 1.386-.458.937 0 1.593.656.657.656.657 1.594 0 .937-.626 1.594-.624.656-1.562.656h-1.062q.062.167.093.354.031.187.031.396 0 .937-.656 1.594-.656.656-1.594.656-.77 0-1.385-.459-.615-.458-.802-1.187l1.458-.396q.063.25.271.396.208.146.458.146.313 0 .532-.219.218-.219.218-.531 0-.313-.218-.531-.219-.219-.532-.219Zm.021-.042Z"/></svg>