<svg xmlns="http://www.w3.org/2000/svg" height="20" viewBox="0 96 960 960" width="20"><path d="m331 957-59-97-110-25q-14-3-22-13.5t-6-24.5l10-113-75-84q-9-11-9-24t9-24l75-84-10-113q-2-14 6-24.5t22-13.5l110-25 59-97q7-11 19.5-15.5t25.5.5l104 45 104-45q13-5 25.5-.5T629 195l59 97 110 25q14 3 22 13.5t6 24.5l-10 113 75 84q9 11 9 24t-9 24l-75 84 10 113q2 14-6 24.5T798 835l-110 25-59 97q-7 11-19.5 15.5T584 972l-104-45-104 45q-13 5-25.5.5T331 957Zm149-189q15 0 25.5-10.5T516 732q0-15-10.5-25.5T480 696q-15 0-25.5 10.5T444 732q0 15 10.5 25.5T480 768Zm0-144q15 0 25.5-10.5T516 588V420q0-15-10.5-25.5T480 384q-15 0-25.5 10.5T444 420v168q0 15 10.5 25.5T480 624Z"/></svg>