<svg xmlns="http://www.w3.org/2000/svg" height="20" width="20"><path d="M3.5 16q-.625 0-1.062-.438Q2 15.125 2 14.5v-9q0-.625.438-1.062Q2.875 4 3.5 4h13q.625 0 1.062.438Q18 4.875 18 5.5v4.25q0 .312-.219.531-.219.219-.531.219-.312 0-.531-.219-.219-.219-.219-.531V7h-13v7.5h6.25q.312 0 .531.219.219.219.219.531 0 .312-.219.531-.219.219-.531.219ZM16 20q-1.312 0-2.344-.75-1.031-.75-1.448-1.938-.083-.208.032-.406.114-.198.322-.26.188-.063.365.031t.261.281q.354.896 1.093 1.469Q15.021 19 16 19q1.25 0 2.125-.875T19 16q0-1.25-.875-2.125T16 13q-.646 0-1.219.271-.573.271-1.031.729h.75q.208 0 .354.146T15 14.5q0 .208-.146.354T14.5 15h-1.75q-.312 0-.531-.219Q12 14.562 12 14.25V12.5q0-.208.146-.354T12.5 12q.208 0 .354.146T13 12.5v.854q.583-.646 1.354-1Q15.125 12 16 12q1.667 0 2.833 1.167Q20 14.333 20 16q0 1.667-1.167 2.833Q17.667 20 16 20Z"/></svg>