<svg xmlns="http://www.w3.org/2000/svg" height="20" width="20"><path d="M3 10.667v-1.5h1.5v1.5ZM3 7.5V6h1.5v1.5Zm3-3V3h1.5v1.5ZM9.167 17v-1.5h1.5V17Zm0-12.5V3h1.5v1.5ZM12.333 17v-1.5h1.5V17Zm3.167-3.167v-1.5H17v1.5Zm0-3.166v-1.5H17v1.5Zm.75-3.167q-.312 0-.531-.219-.219-.219-.219-.531V4.5h-2.417q-.312 0-.531-.219-.219-.219-.219-.531 0-.312.219-.531.219-.219.531-.219H15.5q.625 0 1.062.438Q17 3.875 17 4.5v2.25q0 .312-.219.531-.219.219-.531.219ZM4.5 17q-.625 0-1.062-.438Q3 16.125 3 15.5v-2.417q0-.312.219-.531.219-.219.531-.219.312 0 .531.219.219.219.219.531V15.5h2.25q.312 0 .531.219.219.219.219.531 0 .312-.219.531Q7.062 17 6.75 17Zm11 0v-1.5H17q0 .625-.438 1.062Q16.125 17 15.5 17ZM3 4.5q0-.625.438-1.062Q3.875 3 4.5 3v1.5Z"/></svg>