<svg xmlns="http://www.w3.org/2000/svg" height="20" width="20"><path d="M10.479 19q-.625 0-1.062-.438-.438-.437-.438-1.062l.042-2.5q0-.104.01-.198.011-.094.052-.198l1.021-3.521q.146-.479.552-.781.406-.302.906-.302h.688v2.271l-1.104 1.104q-.146.146-.156.354-.011.209.156.375.166.167.354.167.188 0 .354-.167l1.396-1.396V9.25q0-.312.219-.531.219-.219.531-.219.312 0 .531.219.219.219.219.531v3.438l1.396 1.395q.146.146.354.146t.354-.146q.146-.145.146-.354 0-.208-.146-.354l-1.104-1.104V10h.688q.5 0 .895.312.396.313.542.792l1.063 3.688q.041.104.052.208.01.104.01.208V17.5q0 .625-.448 1.062Q18.104 19 17.5 19H16q-.625 0-1.062-.438-.438-.437-.438-1.062v-2.938l-.5-.5-.5.5V17.5q0 .625-.448 1.062Q12.604 19 12 19ZM6.25 11.188l-.854-1.542q-.104-.188-.271-.292-.167-.104-.375-.104H2V5.5q0-.625.438-1.062Q2.875 4 3.5 4h13q.625 0 1.062.438Q18 4.875 18 5.5V9h-2.25v-.25q0-.729-.51-1.24Q14.729 7 14 7t-1.24.51q-.51.511-.51 1.24V9l-1.167.042-1.187-2.146q-.104-.188-.271-.281-.167-.094-.375-.094t-.385.094q-.177.093-.282.281ZM3.5 16q-.625 0-1.062-.438Q2 15.125 2 14.5v-3.75h2.292l1.291 2.354q.105.167.271.271.167.104.396.104.208 0 .375-.104t.271-.271L9.25 8.812l.521.938q-.229.229-.375.5t-.25.562l-1.063 3.48q-.041.104-.052.218-.01.115-.01.219V16Z"/></svg>