<svg xmlns="http://www.w3.org/2000/svg" height="20" width="20"><path d="M10 10ZM2 8V5.5q0-.625.438-1.062Q2.875 4 3.5 4h13q.625 0 1.062.438Q18 4.875 18 5.5v2.75q0 .312-.219.531Q17.562 9 17.25 9q-.312 0-.531-.219-.219-.219-.219-.531V5.5h-13V8Zm1.5 8q-.625 0-1.062-.438Q2 15.125 2 14.5V12h1.5v2.5h3.771q.312 0 .531.219.219.219.219.531 0 .312-.219.531-.219.219-.531.219Zm2.75-2.521q-.229 0-.396-.104-.166-.104-.271-.271L4.292 10.75H2.75q-.312 0-.531-.219Q2 10.312 2 10q0-.312.219-.531.219-.219.531-.219h2q.208 0 .375.104t.271.292l.854 1.542 2.333-4.292q.105-.188.282-.281.177-.094.385-.094.208 0 .375.094.167.093.271.281l1.187 2.166q-.375.063-.708.24-.333.177-.604.469l-.521-.959-2.354 4.292q-.104.167-.271.271-.167.104-.375.104ZM10.479 19q-.625 0-1.062-.438-.438-.437-.438-1.062l.042-2.5q0-.104.01-.198.011-.094.052-.198l1.021-3.521q.146-.479.552-.781.406-.302.906-.302h1.688v-.75q0-.312.219-.531.219-.219.531-.219.312 0 .531.219.219.219.219.531V10h1.688q.5 0 .895.312.396.313.542.792l1.063 3.688q.041.104.052.208.01.104.01.208V17.5q0 .625-.448 1.062Q18.104 19 17.5 19H16q-.625 0-1.062-.438-.438-.437-.438-1.062v-.25q0-.312.219-.531.219-.219.531-.219.312 0 .531.219.219.219.219.531v.25h1.5v-2.375L16.417 11.5H14.75v1.208l1.208 1.209q.23.229.23.531 0 .302-.23.531-.229.229-.52.229-.292 0-.521-.229L14 14.062l-.938.917q-.229.229-.52.229-.292 0-.521-.229-.229-.229-.229-.521 0-.291.229-.52l1.229-1.23V11.5h-1.688L10.5 15.125V17.5H12v-.25q0-.312.219-.531.219-.219.531-.219.312 0 .531.219.219.219.219.531v.25q0 .625-.448 1.062Q12.604 19 12 19ZM14 14.5Zm-1.979-.562 1.229-1.23V11.5v1.208l-1.229 1.23Zm3.937-.021-1.208-1.209V11.5v1.208Z"/></svg>