<svg xmlns="http://www.w3.org/2000/svg" height="20" width="20"><path d="m10 15 .5-1.521q1.292-.187 2.146-1.177.854-.99.854-2.302 0-1.458-1.021-2.479Q11.458 6.5 10 6.5q-1.312 0-2.302.854T6.521 9.5L5 10q0-2.083 1.458-3.542Q7.917 5 10 5q2.083 0 3.542 1.458Q15 7.917 15 10q0 2.083-1.458 3.542Q12.083 15 10 15Zm-3.625.021-2.75 2.771q-.292.291-.708.291-.417 0-.709-.291-.291-.292-.291-.709 0-.416.291-.708l2.771-2.771-1.958-.729q-.25-.104-.24-.365.011-.26.261-.343l6.27-1.959q.23-.062.386.094t.094.386l-1.959 6.27q-.083.25-.343.261-.261.01-.365-.24Z"/></svg>