<svg xmlns="http://www.w3.org/2000/svg" height="20" width="20"><path d="M3.5 18q-.625 0-1.062-.438Q2 17.125 2 16.5v-13q0-.625.438-1.062Q2.875 2 3.5 2h13q.625 0 1.062.438Q18 2.875 18 3.5v13q0 .625-.438 1.062Q17.125 18 16.5 18Zm0-4.5v3H5V15h-.375q-.167 0-.271-.104-.104-.104-.104-.271V13.5Zm0-1.5h.75q0-.354.208-.615.209-.26.542-.364V8.5q0-.417.292-.708Q5.583 7.5 6 7.5h2q.417 0 .708.292Q9 8.083 9 8.5v2.521q.333.104.542.364.208.261.208.615h6.75V3.5h-13Zm1.75 2h3.5v-2h-3.5ZM7 7q-.521 0-.885-.365-.365-.364-.365-.885t.365-.885Q6.479 4.5 7 4.5t.885.365q.365.364.365.885t-.365.885Q7.521 7 7 7Zm-.5 9.5h1V15h-1Zm2.5 0h7.5v-3H9.75v1.125q0 .167-.104.271-.104.104-.271.104H9Zm1.188-9.562q-.355-.417-.521-.844-.167-.427-.167-.886v-.187q.021-.229.188-.375.166-.146.395-.146.209 0 .344.156.135.156.094.365 0 .041-.011.094-.01.052-.01.093 0 .292.115.552.114.261.364.552.313.376.459.792.145.417.145.958-.041.271-.198.48-.156.208-.427.208-.229 0-.333-.219-.104-.219-.063-.469.23 0-.041-.52-.271-.521-.333-.604Zm1.895 0q-.354-.417-.521-.844-.166-.427-.166-.886v-.187q.021-.229.187-.375.167-.146.396-.146.209 0 .344.156.135.156.094.365 0 .041-.011.094-.01.052-.01.093 0 .292.114.552.115.261.365.552.313.376.469.792.156.417.156.958-.042.292-.208.49-.167.198-.438.198-.229 0-.333-.219-.104-.219-.063-.469.23 0-.041-.52-.271-.521-.334-.604Zm1.959 0q-.354-.417-.521-.844-.167-.427-.167-.886v-.187q.021-.229.188-.375.166-.146.396-.146.208 0 .343.156.136.156.094.365 0 .041-.01.094-.011.052-.011.093 0 .292.115.552.114.261.364.552.313.376.459.792.146.417.146.958-.042.271-.198.48-.157.208-.428.208-.229 0-.333-.219-.104-.219-.062-.469.229 0-.042-.52-.271-.521-.333-.604ZM5.25 14v-2 2Z"/></svg>