<svg xmlns="http://www.w3.org/2000/svg" height="20" width="20"><path d="M5.5 18q-.604 0-1.052-.438Q4 17.125 4 16.5V14h1.5v2.5h9V14H16v2.5q0 .625-.448 1.062Q15.104 18 14.5 18ZM4 3.5q0-.625.448-1.062Q4.896 2 5.5 2h5.875q.292 0 .563.104.27.104.5.334l3.124 3.124q.23.23.334.501.104.27.104.562V9.5h-1.5V7h-2.75q-.312 0-.531-.219Q11 6.562 11 6.25V3.5H5.5v6H4Zm13.25 9H2.75q-.312 0-.531-.219Q2 12.062 2 11.75q0-.312.219-.531Q2.438 11 2.75 11h14.5q.312 0 .531.219.219.219.219.531 0 .312-.219.531-.219.219-.531.219ZM10 9.5Zm0 4.5Z"/></svg>