<svg xmlns="http://www.w3.org/2000/svg" height="20" width="20"><path d="M3.5 16.5q-.625 0-1.062-.438Q2 15.625 2 15V5q0-.625.438-1.062Q2.875 3.5 3.5 3.5h13q.625 0 1.062.438Q18 4.375 18 5v10q0 .625-.438 1.062-.437.438-1.062.438Zm10.75-3h-1.5q-.312 0-.531-.219Q12 13.062 12 12.75q0-.312.219-.531.219-.219.531-.219h1.5q.312 0 .531.219.219.219.219.531 0 .312-.219.531-.219.219-.531.219Zm0-2.75h-1.5q-.312 0-.531-.219Q12 10.312 12 10q0-.312.219-.531.219-.219.531-.219h1.5q.312 0 .531.219Q15 9.688 15 10q0 .312-.219.531-.219.219-.531.219ZM3.5 9v6h13V8h-3.75q-.312 0-.531-.219Q12 7.562 12 7.25q0-.312.219-.531.219-.219.531-.219h3.75V5H10v3.25q0 .312-.219.531Q9.562 9 9.25 9Z"/></svg>