<svg xmlns="http://www.w3.org/2000/svg" height="20" viewBox="0 -960 960 960" width="20"><path d="M408-312q100 0 170-70t70-170q0-100-70-170t-170-70q-100 0-170 70t-70 170q0 100 70 170t170 70Zm.211-120Q393-432 382.5-442.35 372-452.7 372-468v-216q0-15.3 10.289-25.65 10.29-10.35 25.5-10.35Q423-720 433.5-709.65 444-699.3 444-684v216q0 15.3-10.289 25.65-10.29 10.35-25.5 10.35Zm-132 0Q261-432 250.5-442.35 240-452.7 240-468v-120q0-15.3 10.289-25.65 10.29-10.35 25.5-10.35Q291-624 301.5-613.65 312-603.3 312-588v120q0 15.3-10.289 25.65-10.29 10.35-25.5 10.35Zm264 0Q525-432 514.5-442.325 504-452.65 504-467.912v-71.825Q504-555 514.289-565.5q10.29-10.5 25.5-10.5Q555-576 565.5-565.675 576-555.35 576-540.088v71.825Q576-453 565.711-442.5q-10.29 10.5-25.5 10.5ZM408.34-240q-130.792 0-221.566-91T96-552q0-130 91-221t221-91q130 0 221 90.774t91 221.566q0 54.66-17.5 103.951T653-358l186 186q11 11 11 25t-11 25q-11 11-25.5 11T788-122L602-307q-40.418 32-89.709 49.5Q463-240 408.34-240Z"/></svg>