<svg xmlns="http://www.w3.org/2000/svg" height="20" width="20"><path d="M9 15h2q1.042 0 1.771-.729.729-.729.729-1.771 0-1.042-.729-1.771Q12.042 10 11 10H9q-1.042 0-1.771.729-.729.729-.729 1.771 0 1.042.729 1.771Q7.958 15 9 15Zm0-1.5q-.417 0-.708-.292Q8 12.917 8 12.5t.292-.708Q8.583 11.5 9 11.5h2q.417 0 .708.292.292.291.292.708t-.292.708q-.291.292-.708.292Zm-2-5q.771 0 1.385-.469.615-.469.782-1.219.062-.312-.136-.562Q8.833 6 8.5 6q-.292 0-.521.167-.229.166-.333.437-.084.188-.261.292Q7.208 7 7 7h-.75q-.312 0-.531.219-.219.219-.219.531 0 .312.219.531.219.219.531.219Zm6.021 0h.75q.312 0 .531-.219.219-.219.219-.531 0-.312-.219-.531Q14.083 7 13.771 7h-.75q-.229 0-.406-.115-.177-.114-.261-.323-.104-.27-.323-.416Q11.812 6 11.521 6q-.313 0-.511.24-.198.239-.135.552.146.75.75 1.229.604.479 1.396.479ZM10 18q-1.646 0-3.104-.625-1.458-.625-2.552-1.719t-1.719-2.552Q2 11.646 2 10q0-1.667.625-3.115.625-1.447 1.719-2.541Q5.438 3.25 6.896 2.625T10 2q1.667 0 3.115.625 1.447.625 2.541 1.719 1.094 1.094 1.719 2.541Q18 8.333 18 10q0 1.646-.625 3.104-.625 1.458-1.719 2.552t-2.541 1.719Q11.667 18 10 18Zm0-8Zm0 6.5q2.708 0 4.604-1.896T16.5 10q0-2.708-1.896-4.604T10 3.5q-2.708 0-4.604 1.896T3.5 10q0 2.708 1.896 4.604T10 16.5Z"/></svg>