<svg xmlns="http://www.w3.org/2000/svg" height="20" width="20"><path d="M10 14.5q.688 0 1.323-.26.635-.261 1.177-.698.229-.209.229-.511 0-.302-.229-.531-.229-.208-.521-.208-.291 0-.541.187-.313.229-.678.365-.364.135-.76.135t-.76-.135q-.365-.136-.678-.365-.25-.187-.541-.187-.292 0-.521.208-.229.208-.24.51-.01.302.219.49.542.458 1.177.729.636.271 1.344.271Zm0 3.5q-1.646 0-3.104-.625-1.458-.625-2.552-1.719t-1.719-2.552Q2 11.646 2 10q0-1.667.625-3.115.625-1.447 1.719-2.541Q5.438 3.25 6.896 2.625T10 2q1.667 0 3.115.625 1.447.625 2.541 1.719 1.094 1.094 1.719 2.541Q18 8.333 18 10q0 1.646-.625 3.104-.625 1.458-1.719 2.552t-2.541 1.719Q11.667 18 10 18Zm0-8Zm0 6.5q2.708 0 4.604-1.896T16.5 10q0-2.708-1.896-4.604T10 3.5q-2.708 0-4.604 1.896T3.5 10q0 2.708 1.896 4.604T10 16.5ZM7 10q.604 0 1.094-.312.489-.313.781-.834.167-.354.063-.687-.105-.334-.438-.417-.292-.083-.552.063-.26.145-.448.395-.104.125-.219.209Q7.167 8.5 7 8.5q-.167 0-.292-.094-.125-.094-.229-.239-.167-.25-.427-.365-.26-.114-.552-.052-.333.083-.417.417-.083.333.084.687.229.542.729.844Q6.396 10 7 10Zm6 0q.604 0 1.094-.312.489-.313.781-.834.167-.354.063-.687-.105-.334-.438-.417-.292-.083-.552.063-.26.145-.448.395-.104.125-.219.209-.114.083-.281.083-.167 0-.292-.094-.125-.094-.229-.239-.167-.25-.427-.365-.26-.114-.552-.052-.333.083-.417.417-.083.333.084.687.229.542.729.844.5.302 1.104.302Z"/></svg>