<svg xmlns="http://www.w3.org/2000/svg" height="20" width="20"><path d="M7 10v2q0 1.25.875 2.125T10 15q1.25 0 2.125-.875T13 12v-1.25q0-.312-.219-.531Q12.562 10 12.25 10Zm3 3.5q-.625 0-1.062-.438Q8.5 12.625 8.5 12v-.5h3v.5q0 .625-.438 1.062-.437.438-1.062.438ZM7 6q-.646 0-1.167.385-.521.386-.812.99-.125.271.021.531.146.261.458.344.292.083.562-.062.271-.146.459-.396.104-.125.208-.209Q6.833 7.5 7 7.5q.167 0 .292.094.125.094.229.239.167.25.427.375t.552.042q.292-.083.458-.333.167-.25.042-.521-.292-.604-.812-1Q7.667 6 7 6Zm6 0q-.646 0-1.167.385-.521.386-.812.99-.125.271.021.531.146.261.458.344.292.083.562-.062.271-.146.459-.396.104-.125.208-.209.104-.083.271-.083.167 0 .292.094.125.094.229.239.167.25.427.375t.552.042q.292-.083.458-.333.167-.25.042-.521-.292-.604-.812-1Q13.667 6 13 6Zm-3 12q-1.646 0-3.104-.625-1.458-.625-2.552-1.719t-1.719-2.552Q2 11.646 2 10q0-1.667.625-3.115.625-1.447 1.719-2.541Q5.438 3.25 6.896 2.625T10 2q1.667 0 3.115.625 1.447.625 2.541 1.719 1.094 1.094 1.719 2.541Q18 8.333 18 10q0 1.646-.625 3.104-.625 1.458-1.719 2.552t-2.541 1.719Q11.667 18 10 18Z"/></svg>