<svg xmlns="http://www.w3.org/2000/svg" height="20" width="20"><path d="m10 13.083.938.979q.104.105.27.105.167 0 .271-.105l.938-.979.145.146q.23.229.532.24.302.01.531-.219.229-.229.24-.531.01-.302-.219-.531l-.958-1q-.105-.105-.271-.105-.167 0-.271.105l-.938.979-.937-.979q-.104-.105-.271-.105-.167 0-.271.105l-.937.979-.938-.979q-.104-.105-.271-.105-.166 0-.271.105l-.958 1q-.229.229-.219.531.011.302.24.531.229.229.531.219.302-.011.532-.24l.145-.146.938.979q.104.105.271.105.166 0 .27-.105ZM6.75 8.5l-.604.438q-.25.187-.292.5Q5.812 9.75 6 10q.188.25.5.292.312.041.562-.146l1.792-1.354q.167-.104.167-.292t-.167-.292L7.062 6.854q-.25-.187-.562-.146Q6.188 6.75 6 7q-.188.25-.135.562.052.313.302.5Zm6.5 0 .604-.438q.25-.187.292-.5Q14.188 7.25 14 7q-.188-.25-.5-.292-.312-.041-.562.146l-1.792 1.354q-.167.104-.167.292t.167.292l1.792 1.354q.25.187.562.146.312-.042.5-.292.188-.25.135-.562-.052-.313-.302-.5ZM10 18q-1.646 0-3.104-.625-1.458-.625-2.552-1.719t-1.719-2.552Q2 11.646 2 10q0-1.667.625-3.115.625-1.447 1.719-2.541Q5.438 3.25 6.896 2.625T10 2q1.667 0 3.115.625 1.447.625 2.541 1.719 1.094 1.094 1.719 2.541Q18 8.333 18 10q0 1.646-.625 3.104-.625 1.458-1.719 2.552t-2.541 1.719Q11.667 18 10 18Z"/></svg>