<svg xmlns="http://www.w3.org/2000/svg" height="20" width="20"><path d="M7.75 13h4.5q.312 0 .531-.219.219-.219.219-.531 0-.312-.219-.531-.219-.219-.531-.219h-4.5q-.312 0-.531.219Q7 11.938 7 12.25q0 .312.219.531.219.219.531.219ZM10 18q-1.646 0-3.104-.625-1.458-.625-2.552-1.719t-1.719-2.552Q2 11.646 2 10q0-1.667.625-3.115.625-1.447 1.719-2.541Q5.438 3.25 6.896 2.625T10 2q1.667 0 3.115.625 1.447.625 2.541 1.719 1.094 1.094 1.719 2.541Q18 8.333 18 10q0 1.646-.625 3.104-.625 1.458-1.719 2.552t-2.541 1.719Q11.667 18 10 18ZM7.188 7q-.5 0-.948.208-.448.209-.802.563-.23.208-.167.51.062.302.333.469.25.167.552.125.302-.042.573-.208.104-.063.219-.105.114-.041.24-.041.124 0 .26.041.135.042.24.105.27.166.562.208.292.042.542-.125.27-.167.323-.469.052-.302-.157-.51-.354-.354-.812-.563Q7.688 7 7.188 7Zm5.624 0q-.5 0-.958.208-.458.209-.812.563-.23.208-.167.51.063.302.333.469.25.167.552.125.302-.042.573-.208.105-.063.229-.105.126-.041.25-.041.126 0 .25.041.126.042.23.105.27.166.562.208.292.042.542-.125.271-.167.333-.458.063-.292-.146-.5-.354-.354-.812-.573Q13.312 7 12.812 7Z"/></svg>