<svg xmlns="http://www.w3.org/2000/svg" height="20" width="20"><path d="M10 9.521q1.146 0 1.969.823.823.823.989 1.989.042.292.271.479.229.188.521.188.312 0 .531-.198.219-.198.177-.49-.208-1.791-1.448-3.041-1.239-1.25-3.01-1.25-1.771 0-3.01 1.25-1.24 1.25-1.448 3.041-.042.292.177.49T6.25 13q.292 0 .521-.188.229-.187.271-.479.166-1.166.989-1.989.823-.823 1.969-.823ZM8.75 6.542q.25-.188.24-.5-.011-.313-.24-.542-.229-.208-.552-.198-.323.01-.594.198-.229.167-.469.302-.239.136-.51.24-.292.125-.479.385Q5.958 6.688 6 7q.042.312.302.5t.552.083q.521-.166 1-.427.479-.26.896-.614Zm2.5 0q.417.354.896.614.479.261 1 .427.292.105.552-.083.26-.188.302-.5.042-.312-.146-.573-.187-.26-.479-.385-.271-.104-.51-.24-.24-.135-.469-.302-.271-.188-.594-.198-.323-.01-.552.198-.229.229-.24.542-.01.312.24.5ZM10 18q-1.646 0-3.104-.625-1.458-.625-2.552-1.719t-1.719-2.552Q2 11.646 2 10q0-1.667.625-3.115.625-1.447 1.719-2.541Q5.438 3.25 6.896 2.625T10 2q1.667 0 3.115.625 1.447.625 2.541 1.719 1.094 1.094 1.719 2.541Q18 8.333 18 10q0 1.646-.625 3.104-.625 1.458-1.719 2.552t-2.541 1.719Q11.667 18 10 18Z"/></svg>