<svg xmlns="http://www.w3.org/2000/svg" height="20" width="20"><path d="M10 14.5q.688 0 1.323-.26.635-.261 1.177-.698.229-.209.229-.511 0-.302-.229-.531-.229-.208-.521-.208-.291 0-.541.187-.313.229-.678.365-.364.135-.76.135t-.76-.135q-.365-.136-.678-.365-.25-.187-.541-.187-.292 0-.521.208-.229.208-.24.51-.01.302.219.49.542.458 1.177.729.636.271 1.344.271Zm0 3.5q-1.646 0-3.104-.625-1.458-.625-2.552-1.719t-1.719-2.552Q2 11.646 2 10q0-1.667.625-3.115.625-1.447 1.719-2.541Q5.438 3.25 6.896 2.625T10 2q1.667 0 3.115.625 1.447.625 2.541 1.719 1.094 1.094 1.719 2.541Q18 8.333 18 10q0 1.646-.625 3.104-.625 1.458-1.719 2.552t-2.541 1.719Q11.667 18 10 18Zm-3-8q.667 0 1.177-.396.511-.396.802-1 .125-.271-.031-.521T8.5 7.75q-.292-.083-.552.063-.26.145-.448.395-.104.125-.219.209Q7.167 8.5 7 8.5q-.167 0-.292-.094-.125-.094-.229-.239-.167-.25-.427-.365-.26-.114-.552-.052-.292.083-.458.333-.167.25-.042.5.292.605.812 1.011Q6.333 10 7 10Zm6 0q.667 0 1.177-.396.511-.396.802-1 .125-.271-.031-.521T14.5 7.75q-.292-.083-.552.063-.26.145-.448.395-.104.125-.219.209-.114.083-.281.083-.167 0-.292-.094-.125-.094-.229-.239-.167-.25-.427-.365-.26-.114-.552-.052-.292.083-.458.333-.167.25-.042.5.292.605.812 1.011Q12.333 10 13 10Z"/></svg>