<svg xmlns="http://www.w3.org/2000/svg" height="20" width="20"><path d="M8.167 15q.354 0 .708-.115.354-.114.667-.302.104-.062.218-.125.115-.062.24-.062.208 0 .458.187.313.188.667.302.354.115.708.115 1.105 0 1.761-.76.656-.761.656-2.032 0-1.5-1.083-2.354-1.084-.854-3-.854h-.334q-1.916 0-3 .854-1.083.854-1.083 2.354 0 1.25.656 2.021.656.771 1.761.771Zm0-1.5q-.417 0-.667-.344-.25-.344-.25-.948 0-.854.646-1.281.646-.427 1.937-.427h.313q1.292 0 1.948.427.656.427.656 1.281 0 .584-.25.938t-.667.354q-.166 0-.625-.229-.291-.167-.583-.271-.292-.104-.625-.104t-.625.114q-.292.115-.583.261-.146.104-.302.167-.157.062-.323.062Zm.271-6.792q.187-.25.135-.562-.052-.313-.323-.479Q8 5.5 7.698 5.562q-.302.063-.51.292-.292.354-.657.625-.364.271-.781.5-.292.146-.417.438-.125.291 0 .583t.417.406q.292.115.583-.031.605-.292 1.146-.708.542-.417.959-.959Zm3.145.021q.417.521.938.938.521.416 1.125.708.292.146.594.031.302-.114.427-.406.125-.292 0-.583-.125-.292-.417-.438-.417-.229-.781-.5-.365-.271-.657-.625-.208-.229-.51-.292-.302-.062-.552.105-.271.166-.323.489-.052.323.156.573ZM10 18q-1.646 0-3.104-.625-1.458-.625-2.552-1.719t-1.719-2.552Q2 11.646 2 10q0-1.667.625-3.115.625-1.447 1.719-2.541Q5.438 3.25 6.896 2.625T10 2q1.667 0 3.115.625 1.447.625 2.541 1.719 1.094 1.094 1.719 2.541Q18 8.333 18 10q0 1.646-.625 3.104-.625 1.458-1.719 2.552t-2.541 1.719Q11.667 18 10 18Z"/></svg>