<svg xmlns="http://www.w3.org/2000/svg" height="20" viewBox="0 96 960 960" width="20"><path d="M324.211 648Q309 648 298.5 637.65 288 627.3 288 612V444q0-29.7 21.15-50.85Q330.3 372 360 372h318l-56-56q-11-11-10.5-25.5T623 265q11-11 25.667-11 14.666 0 25.333 11l117 118q11 10.636 11 24.818Q802 422 791 433L673 551q-11 11-25 11t-25-11q-11-11-11.5-25.667Q611 510.667 622 500l56-56H360v168q0 15.3-10.289 25.65-10.29 10.35-25.5 10.35ZM216 912q-29.7 0-50.85-21.15Q144 869.7 144 840V324q0-15.3 10.289-25.65 10.29-10.35 25.5-10.35Q195 288 205.5 298.35 216 308.7 216 324v516h480V708q0-15.3 10.289-25.65 10.29-10.35 25.5-10.35Q747 672 757.5 682.35 768 692.7 768 708v132q0 29.7-21.15 50.85Q725.7 912 696 912H216Z"/></svg>