<svg xmlns="http://www.w3.org/2000/svg" height="20" width="20"><path d="M14.5 5.5q.417 0 .708-.292.292-.291.292-.708t-.292-.708Q14.917 3.5 14.5 3.5t-.708.292q-.292.291-.292.708t.292.708q.291.292.708.292Zm0 11q.417 0 .708-.292.292-.291.292-.708t-.292-.708q-.291-.292-.708-.292t-.708.292q-.292.291-.292.708t.292.708q.291.292.708.292Zm0-12Zm0 11ZM5 19q-1.667 0-2.833-1.167Q1 16.667 1 15q0-1.667 1.167-2.833Q3.333 11 5 11q1.667 0 2.833 1.167Q9 13.333 9 15q0 1.667-1.167 2.833Q6.667 19 5 19ZM3 9.875q.042-1 .771-1.687Q4.5 7.5 5.5 7.5q.458 0 .885.156t.74.469l4.958-3.021q-.041-.166-.062-.302Q12 4.667 12 4.5q0-1.042.729-1.771Q13.458 2 14.5 2q1.042 0 1.771.729Q17 3.458 17 4.5q0 1.042-.729 1.771Q15.542 7 14.5 7q-.458 0-.885-.146t-.74-.479L7.917 9.396q.062.354.073.531.01.177-.032.448-.646-.417-1.396-.646Q5.812 9.5 5 9.5q-.542 0-1.031.094-.49.094-.969.281ZM14.5 18q-1.042 0-1.771-.729Q12 16.542 12 15.5q0-.167.021-.302.021-.136.062-.302l-1.708-1.042q-.167-.729-.49-1.364-.323-.636-.802-1.178l3.792 2.313q.313-.354.74-.49.427-.135.885-.135 1.042 0 1.771.729.729.729.729 1.771 0 1.042-.729 1.771Q15.542 18 14.5 18Zm-9.521-2.417.875.875q.125.125.302.125t.302-.125q.125-.125.125-.312 0-.188-.125-.313l-.875-.854.875-.875q.125-.125.125-.302t-.125-.302q-.125-.125-.302-.125t-.302.125l-.875.875-.875-.875q-.125-.125-.292-.125-.166 0-.291.125-.125.125-.125.302t.125.302l.854.875-.875.875q-.125.125-.125.292 0 .166.125.292.125.124.312.124.188 0 .313-.124Z"/></svg>