<svg xmlns="http://www.w3.org/2000/svg" height="20" viewBox="0 -960 960 960" width="20"><path d="M839-121q-11 11-25.67 11-14.66 0-25.33-11l-97-97q-6 2-19 2-29.7 0-50.85-21.21-21.15-21.21-21.15-51T621.21-339q21.21-21 51-21T723-338.85q21 21.15 21 50.85 0-1-2 19l97 97q11 10.91 11 25.45Q850-132 839-121ZM168-515v-180q0-22.69 12.5-40.85Q193-754 214-762l240-92q13-5 26-5t26 5l240 92q21 8 33.5 26.15Q792-717.69 792-695v63q0 20-16.14 32T740-593q-17-4-33.82-5.5T672-600q-130 0-221 91t-91 220.96q0 31.04 6.5 60.54T384-169q5 10.96-3.92 18.98Q371.17-142 362-148q-90.73-60.2-142.36-159.1Q168-406 168-515Zm264 227q0-100 70-170t170-70q100 0 170 70t70 170q0 15-10.29 25.5t-25.5 10.5q-15.21 0-25.71-10.35T840-288q0-70-49-119t-119-49q-70 0-119 49t-49 119q0 70 49 119t119 49q15.3 0 25.65 10.29Q708-99.42 708-84.21T697.65-58.5Q687.3-48 672-48q-100 0-170-70t-70-170Z"/></svg>