<svg xmlns="http://www.w3.org/2000/svg" height="20" viewBox="0 -960 960 960" width="20"><path d="M504-96q-33 0-52.5-19.5T432-168v-216q0-33 19.5-52.5T504-456h336q33 0 52.5 19.5T912-384v216q0 33-19.5 52.5T840-96H504Zm0-72h336v-96H504v96Zm0-168h336v-48H504v48Zm-24-178ZM311-188q-68-63-105.5-148.9Q168-422.79 168-515v-180q0-22.69 12.5-40.85Q193-754 214-762l250-95.94q8-3.06 16-3.06t16 3.06L746-762q21 8 33.5 26.06T792-695.3v130.95q0 15.35-10.29 25.85-10.29 10.5-25.5 10.5t-25.71-10.38Q720-548.76 720-564.11V-695l-240-92-240 92v180q0 80 32.5 151.65Q305-291.69 360-241q11.08 9.53 11.54 24.27Q372-202 362-191t-25 12q-15 1-26-9Z"/></svg>