<svg xmlns="http://www.w3.org/2000/svg" height="20" viewBox="0 96 960 960" width="20"><path d="M168 541V361q0-22.692 12.5-40.846Q193 302 214 294l240-92q13-5 26-5t26 5l240 92q21 8 33.5 26.154T792 361v180q0 137-79 253T503 953q-5 2-11 2.5t-12 .5q-6 0-12-.5t-11-2.5q-131-43-210-159t-79-253Zm216 155h192q10.2 0 17.1-6.9 6.9-6.9 6.9-17.1V528q0-10.2-6.9-17.1-6.9-6.9-17.1-6.9h-24v-24q0-29.7-21.212-50.85-21.213-21.15-51-21.15Q450 408 429 429.15 408 450.3 408 480v24h-24q-10.2 0-17.1 6.9-6.9 6.9-6.9 17.1v144q0 10.2 6.9 17.1 6.9 6.9 17.1 6.9Zm60-192v-24q0-15.3 10.289-25.65 10.29-10.35 25.5-10.35Q495 444 505.5 454.35 516 464.7 516 480v24h-72Z"/></svg>