<svg xmlns="http://www.w3.org/2000/svg" height="20" viewBox="0 -960 960 960" width="20"><path d="M504-96q-33 0-52.5-19.5T432-168v-216q0-33 19.5-52.5T504-456h336q33 0 52.5 19.5T912-384v216q0 33-19.5 52.5T840-96H504Zm0-72h336v-96H504v96Zm0-168h336v-48H504v48ZM168-515v-180q0-22.69 12.5-40.85Q193-754 214-762l250-95.94q8-3.06 16-3.06t16 3.06L746-762q21 8 33.5 26.06T792-695.3v130.95q0 15.35-10.35 25.85Q771.3-528 756-528H504q-66 0-105 39t-39 105v161q0 23-20 32.5t-37-5.5q-62.54-61.09-98.77-144.47Q168-423.86 168-515Z"/></svg>