<svg xmlns="http://www.w3.org/2000/svg" height="20" width="20"><path d="M7 14.25v-3.042H4.521q-.479 0-.688-.416-.208-.417.084-.792l5.479-7.208Q9.625 2.5 10 2.5t.604.292L16.083 10q.292.375.084.792-.209.416-.688.416H13v3.042q0 .312-.219.531-.219.219-.531.219h-4.5q-.312 0-.531-.219Q7 14.562 7 14.25Zm1.5-.75h3V9.708h2.438L10 4.438l-3.938 5.27H8.5ZM10 8.958ZM4.75 18q-.312 0-.531-.219Q4 17.562 4 17.25q0-.312.219-.531.219-.219.531-.219h10.5q.312 0 .531.219.219.219.219.531 0 .312-.219.531-.219.219-.531.219Z"/></svg>