<svg xmlns="http://www.w3.org/2000/svg" height="20" width="20"><path d="M17.25 8q-.312 0-.542-.208-.229-.209-.27-.521-.105-.667-.407-1.271-.302-.604-.76-1.083l-.833 1.604q-.146.291-.323.625-.177.333-.407.562Q13.417 8 13 8t-.708-.292Q12 7.417 12 7t.292-.708q.229-.23.562-.417.334-.187.625-.333l1.604-.834q-.5-.479-1.125-.77-.625-.292-1.333-.396-.292-.042-.458-.271Q12 3.042 12 2.75q0-.312.208-.531.209-.219.5-.177 2.021.229 3.48 1.646 1.458 1.416 1.75 3.437.041.354-.157.615-.198.26-.531.26Zm-7.188 10q-1.666 0-3.135-.635-1.469-.636-2.562-1.73-1.094-1.093-1.73-2.562Q2 11.604 2 9.938q0-2.521 1.406-4.563t3.74-2.958q.271-.105.531-.084.261.021.448.188.167.146.25.385.083.24.083.594 0 1.625.604 3.073.605 1.448 1.792 2.635 1.125 1.125 2.584 1.73 1.458.604 3.062.604.354 0 .594.083.239.083.385.25.167.187.198.448.031.26-.073.531-.896 2.334-2.958 3.74Q12.583 18 10.062 18Z"/></svg>