<svg xmlns="http://www.w3.org/2000/svg" height="20" width="20"><path d="M10.062 18q-1.666 0-3.135-.635-1.469-.636-2.562-1.73-1.094-1.093-1.73-2.562Q2 11.604 2 9.938q0-2.521 1.406-4.563t3.74-2.958q.271-.105.531-.084.261.021.448.188.167.146.25.385.083.24.083.594 0 1.625.604 3.073.605 1.448 1.792 2.635 1.125 1.125 2.584 1.73 1.458.604 3.062.604.354 0 .594.083.239.083.385.25.167.187.198.448.031.26-.073.531-.896 2.334-2.958 3.74Q12.583 18 10.062 18Zm0-1.5q1.834 0 3.417-.938 1.583-.937 2.396-2.541-1.729-.104-3.302-.823T9.771 10.25Q8.521 9 7.812 7.438q-.708-1.563-.833-3.313-1.604.854-2.541 2.417Q3.5 8.104 3.5 9.938q0 2.729 1.917 4.645Q7.333 16.5 10.062 16.5Zm-.291-6.25Zm4.291-4.312-1.312-.605q-.229-.104-.229-.333 0-.229.229-.333l1.312-.605.605-1.312q.104-.229.333-.229.229 0 .333.229l.605 1.312 1.312.605q.229.104.229.333 0 .229-.229.333l-1.312.605-.605 1.312q-.104.229-.333.229-.229 0-.333-.229Z"/></svg>