<svg xmlns="http://www.w3.org/2000/svg" height="20" viewBox="0 -960 960 960" width="20"><path d="M96-132v-84q0-29.7 21.15-50.85Q138.3-288 168-288h624q29.7 0 50.85 21.15Q864-245.7 864-216v84q0 15.3-10.35 25.65Q843.3-96 828-96H132q-15.3 0-25.65-10.35Q96-116.7 96-132Zm72-36h624v-48H168v48Zm48-204v-420q0-33 19.5-52.5T288-864h384q33 0 52.5 19.5T744-792v420q0 15.3-10.289 25.65-10.29 10.35-25.5 10.35Q693-336 682.5-346.35 672-356.7 672-372v-420H288v420q0 15.3-10.289 25.65-10.29 10.35-25.5 10.35Q237-336 226.5-346.35 216-356.7 216-372Zm228-180.082q0-26.918-4.921-53.745-4.921-26.827-19.237-50.077Q410-672 395.25-683.5 380.5-695 361.727-695 351-695 343.5-687.161 336-679.323 336-668v231q0 11 8 19.5t19.424 8.5q17.576 0 32.088-11.337Q410.023-431.674 420-448q14.222-23.329 19.111-50.247Q444-525.164 444-552.082ZM552.212-480Q582-480 603-501.212q21-21.213 21-51Q624-582 602.788-603q-21.213-21-51-21Q522-624 501-602.788q-21 21.213-21 51Q480-522 501.212-501q21.213 21 51 21ZM480-168Zm0-396Z"/></svg>