<svg xmlns="http://www.w3.org/2000/svg" height="20" viewBox="0 -960 960 960" width="20"><path d="M672.165-904Q705-904 724.5-884.5t19.5 52.189V-444q0 15.3-10.289 25.65-10.29 10.35-25.5 10.35Q693-408 682.5-418.537 672-429.073 672-444v-388H307q-15.3 0-25.65-10.289-10.35-10.29-10.35-25.5Q271-883 281.35-893.5 291.7-904 307-904h365.165ZM577-524l-92-93q8.083-20.396 26.046-33.698T552.361-664Q582-664 603-642.939q21 21.062 21 50.637Q624-569 610.5-550.5T577-524ZM336-664l106 106.366Q440-536 433.5-515.5T413-478q-10 13-22.5 22t-28.5 9q-11.267 0-18.633-8Q336-463 336-474v-190ZM168-208h522l-48-48H168v48Zm-36 72q-15.3 0-25.65-10.35Q96-156.7 96-172v-84q0-29.7 21.15-50.85Q138.3-328 168-328h402L288-610v198q0 15.3-10.289 25.65-10.29 10.35-25.5 10.35Q237-376 226.5-386.35 216-396.7 216-412v-270L80-818q-11-11-11-25.5T80-869q11-11 25.5-11t25.5 11l698 698q11 10.636 10.5 24.818Q839-132 828-121q-11 11-25.667 11-14.666 0-25.333-11l-15-15H132Zm297-72Zm43-423Zm-67 138Z"/></svg>