<svg xmlns="http://www.w3.org/2000/svg" height="20" viewBox="0 -960 960 960" width="20"><path d="M361.8-447q17.2 0 30.7-10.5T416-482l-80-80v87.711Q336-463 343.31-455q7.31 8 18.49 8ZM132-136q-15.3 0-25.65-10.35Q96-156.7 96-172v-84q0-29.7 21.15-50.85Q138.3-328 168-328h402l-48-48H252q-15.3 0-25.65-10.35Q216-396.7 216-412v-270L80-818q-11-11-10.5-25.5T81-869q11-11 25.5-11t25.5 11l698 698q11 10.636 10.5 24.818Q840-132 829-121q-11 11-25.667 11-14.666 0-25.333-11l-15-15H132Zm550-283L577-524q20-8 33.5-26.45T624-592.3q0-29.7-21.061-50.7-21.062-21-50.637-21Q529-664 511-650.5T485-617L261-843q-17-17-8.064-39T286-904h386.389Q705-904 724.5-884.5t19.5 52.266V-444q0 24.128-22.5 33.064T682-419Z"/></svg>