<svg xmlns="http://www.w3.org/2000/svg" height="20" viewBox="0 96 960 960" width="20"><path d="M300.211 396Q285 396 274.5 385.711q-10.5-10.29-10.5-25.5Q264 345 274.289 334.5q10.29-10.5 25.5-10.5Q315 324 325.5 334.289q10.5 10.29 10.5 25.5Q336 375 325.711 385.5q-10.29 10.5-25.5 10.5Zm-180 0Q105 396 94.5 385.711q-10.5-10.29-10.5-25.5Q84 345 94.29 334.5q10.289-10.5 25.499-10.5Q135 324 145.5 334.289q10.5 10.29 10.5 25.5Q156 375 145.711 385.5q-10.29 10.5-25.5 10.5Zm540 0Q645 396 634.5 385.711q-10.5-10.29-10.5-25.5Q624 345 634.289 334.5q10.29-10.5 25.5-10.5Q675 324 685.5 334.289q10.5 10.29 10.5 25.5Q696 375 685.711 385.5q-10.29 10.5-25.5 10.5Zm180 0Q825 396 814.5 385.711q-10.5-10.29-10.5-25.5Q804 345 814.289 334.5q10.29-10.5 25.5-10.5Q855 324 865.5 334.289q10.5 10.29 10.5 25.5Q876 375 865.711 385.5q-10.29 10.5-25.5 10.5Zm-360 0Q465 396 454.5 385.711q-10.5-10.29-10.5-25.5Q444 345 454.289 334.5q10.29-10.5 25.5-10.5Q495 324 505.5 334.289q10.5 10.29 10.5 25.5Q516 375 505.711 385.5q-10.29 10.5-25.5 10.5Zm-90 144Q375 540 364.5 529.711q-10.5-10.29-10.5-25.5Q354 489 364.289 478.5q10.29-10.5 25.5-10.5Q405 468 415.5 478.289q10.5 10.29 10.5 25.5Q426 519 415.711 529.5q-10.29 10.5-25.5 10.5Zm-180 0Q195 540 184.5 529.711q-10.5-10.29-10.5-25.5Q174 489 184.289 478.5q10.29-10.5 25.5-10.5Q225 468 235.5 478.289q10.5 10.29 10.5 25.5Q246 519 235.711 529.5q-10.29 10.5-25.5 10.5Zm540 0Q735 540 724.5 529.711q-10.5-10.29-10.5-25.5Q714 489 724.289 478.5q10.29-10.5 25.5-10.5Q765 468 775.5 478.289q10.5 10.29 10.5 25.5Q786 519 775.711 529.5q-10.29 10.5-25.5 10.5Zm-180 0Q555 540 544.5 529.711q-10.5-10.29-10.5-25.5Q534 489 544.289 478.5q10.29-10.5 25.5-10.5Q585 468 595.5 478.289q10.5 10.29 10.5 25.5Q606 519 595.711 529.5q-10.29 10.5-25.5 10.5Zm-270 144Q285 684 274.5 673.711q-10.5-10.29-10.5-25.5Q264 633 274.289 622.5q10.29-10.5 25.5-10.5Q315 612 325.5 622.289q10.5 10.29 10.5 25.5Q336 663 325.711 673.5q-10.29 10.5-25.5 10.5Zm-180 0Q105 684 94.5 673.711q-10.5-10.29-10.5-25.5Q84 633 94.29 622.5q10.289-10.5 25.499-10.5Q135 612 145.5 622.289q10.5 10.29 10.5 25.5Q156 663 145.711 673.5q-10.29 10.5-25.5 10.5Zm540 0Q645 684 634.5 673.711q-10.5-10.29-10.5-25.5Q624 633 634.289 622.5q10.29-10.5 25.5-10.5Q675 612 685.5 622.289q10.5 10.29 10.5 25.5Q696 663 685.711 673.5q-10.29 10.5-25.5 10.5Zm180 0Q825 684 814.5 673.711q-10.5-10.29-10.5-25.5Q804 633 814.289 622.5q10.29-10.5 25.5-10.5Q855 612 865.5 622.289q10.5 10.29 10.5 25.5Q876 663 865.711 673.5q-10.29 10.5-25.5 10.5Zm-360 0Q465 684 454.5 673.711q-10.5-10.29-10.5-25.5Q444 633 454.289 622.5q10.29-10.5 25.5-10.5Q495 612 505.5 622.289q10.5 10.29 10.5 25.5Q516 663 505.711 673.5q-10.29 10.5-25.5 10.5Zm-90 144Q375 828 364.5 817.711q-10.5-10.29-10.5-25.5Q354 777 364.289 766.5q10.29-10.5 25.5-10.5Q405 756 415.5 766.289q10.5 10.29 10.5 25.5Q426 807 415.711 817.5q-10.29 10.5-25.5 10.5Zm-180 0Q195 828 184.5 817.711q-10.5-10.29-10.5-25.5Q174 777 184.289 766.5q10.29-10.5 25.5-10.5Q225 756 235.5 766.289q10.5 10.29 10.5 25.5Q246 807 235.711 817.5q-10.29 10.5-25.5 10.5Zm540 0Q735 828 724.5 817.711q-10.5-10.29-10.5-25.5Q714 777 724.289 766.5q10.29-10.5 25.5-10.5Q765 756 775.5 766.289q10.5 10.29 10.5 25.5Q786 807 775.711 817.5q-10.29 10.5-25.5 10.5Zm-180 0Q555 828 544.5 817.711q-10.5-10.29-10.5-25.5Q534 777 544.289 766.5q10.29-10.5 25.5-10.5Q585 756 595.5 766.289q10.5 10.29 10.5 25.5Q606 807 595.711 817.5q-10.29 10.5-25.5 10.5Z"/></svg>