<svg xmlns="http://www.w3.org/2000/svg" height="20" width="20"><path d="M10 16.5q1.458 0 2.479-1.021Q13.5 14.458 13.5 13q0-1.458-1.021-2.479Q11.458 9.5 10 9.5q-1.458 0-2.479 1.021Q6.5 11.542 6.5 13q0 1.458 1.021 2.479Q8.542 16.5 10 16.5ZM7.646 8.583q.437-.229.916-.375.48-.146 1.021-.187L7.521 3.5H5.333Zm4.708 0L14.667 3.5h-2.209l-2.062 4.521q.542.041 1.031.187.49.146.927.375Zm-6.708 6.875q-.313-.541-.479-1.166Q5 13.667 5 13t.167-1.292q.166-.625.479-1.166-.917.125-1.531.823Q3.5 12.062 3.5 13q0 .938.615 1.635.614.698 1.531.823Zm8.708 0q.917-.125 1.531-.823.615-.697.615-1.635 0-.938-.615-1.635-.614-.698-1.531-.823.313.541.479 1.166Q15 12.333 15 13t-.167 1.292q-.166.625-.479 1.166ZM10 18q-.896 0-1.688-.292-.791-.291-1.437-.812-.229.042-.448.073-.219.031-.448.031-1.646 0-2.812-1.167Q2 14.667 2 13.021t1.167-2.802q1.166-1.157 2.812-1.157h.229l-2.729-6q-.167-.374.052-.718T4.167 2h3.375q.437 0 .802.229.364.229.552.646L10 5.292l1.104-2.417q.188-.417.552-.646.365-.229.802-.229h3.375q.438 0 .646.344.209.344.042.718l-2.729 5.959H14q1.667 0 2.833 1.156Q18 11.333 18 13t-1.167 2.833Q15.667 17 14 17q-.229 0-.438-.031-.208-.031-.437-.073-.646.521-1.437.812Q10.896 18 10 18Zm0-5ZM7.646 8.583 5.333 3.5l2.313 5.083Zm4.708 0L14.667 3.5Zm-2.979 5.042-1-.458q-.104-.042-.104-.167t.104-.167l1-.458.458-1q.042-.104.167-.104t.167.104l.458 1 1 .458q.104.042.104.167t-.104.167l-1 .458-.458 1q-.042.104-.167.104t-.167-.104Z"/></svg>