<svg xmlns="http://www.w3.org/2000/svg" height="20" width="20"><path d="M5.979 17q-1.646 0-2.812-1.167Q2 14.667 2 13.021q0-1.688 1.25-2.823Q4.5 9.062 6.208 9.062l-2.729-6q-.167-.374.052-.718T4.167 2h3.375q.437 0 .802.229.364.229.552.646L10 5.292l1.104-2.417q.188-.417.552-.646.365-.229.802-.229h3.375q.438 0 .646.344.209.344.042.718l-2.729 5.959q1.729 0 2.968 1.146Q18 11.312 18 13q0 1.667-1.167 2.833Q15.667 17 14 17q-.229 0-.438-.031-.208-.031-.416-.073.896-.708 1.375-1.729Q15 14.146 15 13q0-2.083-1.458-3.542Q12.083 8 10 8 7.917 8 6.458 9.458 5 10.917 5 13q0 1.146.479 2.167t1.375 1.729q-.229.042-.437.073-.209.031-.438.031ZM10 16.5q-1.458 0-2.479-1.021Q6.5 14.458 6.5 13q0-1.458 1.021-2.479Q8.542 9.5 10 9.5q1.458 0 2.479 1.021Q13.5 11.542 13.5 13q0 1.458-1.021 2.479Q11.458 16.5 10 16.5Zm-.625-2.875.458 1q.042.104.167.104t.167-.104l.458-1 1-.458q.104-.042.104-.167t-.104-.167l-1-.458-.458-1q-.042-.104-.167-.104t-.167.104l-.458 1-1 .458q-.104.042-.104.167t.104.167Z"/></svg>