<svg xmlns="http://www.w3.org/2000/svg" height="20" width="20"><path d="M2 10q0-2.896 1.781-5.052 1.781-2.156 4.49-2.76.396-.105.677.072.281.178.281.532 0 .375-.239.593-.24.219-.615.323-2.125.542-3.5 2.282Q3.5 7.729 3.5 10q0 .938.24 1.781.239.844.698 1.573.187.334.197.625.011.292-.26.563-.25.25-.542.218-.291-.031-.479-.322-.646-.959-1-2.073Q2 11.25 2 10Zm8 8q-1.25 0-2.375-.365-1.125-.364-2.083-1.01-.292-.187-.313-.49-.021-.302.209-.531.25-.25.562-.25.312 0 .625.188.729.458 1.583.708.854.25 1.792.25.938 0 1.792-.25.854-.25 1.583-.708.313-.188.635-.188.323 0 .573.25.229.229.198.531-.031.303-.323.49-.958.646-2.083 1.01Q11.25 18 10 18Zm8-8q0 1.25-.354 2.365-.354 1.114-1 2.073-.188.291-.469.333-.281.041-.531-.209-.271-.27-.271-.572 0-.302.187-.636.459-.729.698-1.573.24-.843.24-1.781 0-2.271-1.375-4.01-1.375-1.74-3.5-2.282-.375-.104-.615-.323-.239-.218-.239-.593 0-.354.281-.532.281-.177.677-.072 2.709.604 4.49 2.76Q18 7.104 18 10ZM8 12.812V7.188q0-.23.198-.334.198-.104.385.021L13 9.688q.167.104.167.312 0 .208-.167.312l-4.417 2.813q-.187.125-.385.021T8 12.812Z"/></svg>