<svg xmlns="http://www.w3.org/2000/svg" height="20" viewBox="0 -960 960 960" width="20"><path d="M454.5-565.68Q444-555.35 444-540.09v71.83q0 15.26 10.29 25.76 10.29 10.5 25.5 10.5t25.71-10.32q10.5-10.33 10.5-25.59v-71.83q0-15.26-10.29-25.76-10.29-10.5-25.5-10.5t-25.71 10.32ZM373.68-202.5Q363.35-192 348.09-192h-71.83q-15.26 0-25.76-10.29-10.5-10.29-10.5-25.5t10.32-25.71q10.33-10.5 25.59-10.5h71.83q15.26 0 25.76 10.29 10.5 10.29 10.5 25.5t-10.32 25.71Zm336 0Q699.35-192 684.09-192h-71.83q-15.26 0-25.76-10.29-10.5-10.29-10.5-25.5t10.32-25.71q10.33-10.5 25.59-10.5h71.83q15.26 0 25.76 10.29 10.5 10.29 10.5 25.5t-10.32 25.71ZM300.21-432Q330-432 351-453.21t21-51Q372-534 350.79-555t-51-21Q270-576 249-554.79t-21 51Q228-474 249.21-453t51 21Zm360 0Q690-432 711-453.21t21-51Q732-534 710.79-555t-51-21Q630-576 609-554.79t-21 51Q588-474 609.21-453t51 21ZM168-312q-33 0-52.5-19.5T96-384v-240q0-33 19.5-52.5T168-696h624q33 0 52.5 19.5T864-624v240q0 33-19.5 52.5T792-312H168Z"/></svg>