<svg xmlns="http://www.w3.org/2000/svg" height="20" width="20"><path d="M15 19q-1.312 0-2.344-.76-1.031-.761-1.448-1.948-.062-.209.021-.396.083-.188.292-.25.208-.063.396.042.187.104.271.312.354.958 1.104 1.479Q14.042 18 15 18q1.25 0 2.125-.875T18 15q0-1.25-.875-2.125T15 12q-.646 0-1.219.271-.573.271-1.031.729h.75q.208 0 .354.146T14 13.5q0 .208-.146.354T13.5 14h-1.75q-.312 0-.531-.219Q11 13.562 11 13.25V11.5q0-.208.146-.354T11.5 11q.208 0 .354.146T12 11.5v.854q.583-.646 1.354-1Q14.125 11 15 11q1.667 0 2.833 1.167Q19 13.333 19 15q0 1.667-1.167 2.833Q16.667 19 15 19ZM4.5 15.5v-11 11Zm8.75-8q.312 0 .531-.219Q14 7.062 14 6.75q0-.312-.219-.531Q13.562 6 13.25 6h-6.5q-.312 0-.531.219Q6 6.438 6 6.75q0 .312.219.531.219.219.531.219Zm-1.792 1.75H6.75q-.312 0-.531.219Q6 9.688 6 10q0 .312.219.531.219.219.531.219h3q.354-.438.792-.823.437-.385.916-.677ZM8.729 12.5H6.75q-.312 0-.531.219Q6 12.938 6 13.25q0 .312.219.531.219.219.531.219h1.583q.063-.396.157-.771.093-.375.239-.729ZM4.5 17q-.625 0-1.062-.438Q3 16.125 3 15.5v-11q0-.625.438-1.062Q3.875 3 4.5 3h11q.625 0 1.062.438Q17 3.875 17 4.5v4.042q-.354-.104-.729-.167-.375-.063-.771-.104V4.5h-11v11h3.771q.041.396.104.771t.167.729Z"/></svg>