<svg xmlns="http://www.w3.org/2000/svg" height="20" viewBox="0 -960 960 960" width="20"><path d="M299-96q-105 0-178-73T48-346.662Q48-362 58.29-373q10.289-11 25.5-11 15.21 0 25.573 10.363t10.363 25.683q0 74.794 52.717 127.511t127.511 52.717q15.32 0 25.683 10.363T336-131.789q0 15.21-10.829 25.5Q314.341-96 299-96Zm362.338 0Q646-96 635-106.289q-11-10.29-11-25.5 0-15.211 10.363-25.574 10.363-10.363 25.683-10.363 74.794 0 127.511-52.717t52.717-127.511q0-15.32 10.363-25.683T876.211-384q15.21 0 25.5 10.35Q912-363.3 912-348q0 105-73 178.5T661.338-96ZM300-216q-55 0-93.5-38.5T168-348q0-14.927 10.289-25.463Q188.579-384 203.789-384 219-384 229.5-373.65 240-363.3 240-348q0 12 4.5 23t13 19.5q8.5 8.5 19.5 13t23 4.5q15.3 0 25.65 10.289 10.35 10.29 10.35 25.5Q336-237 325.463-226.5 314.927-216 300-216Zm360 0q-14.927 0-25.463-10.289Q624-236.579 624-251.789 624-267 634.35-277.5 644.7-288 660-288q12 0 23-4.5t19.5-13q8.5-8.5 13-19.5t4.5-23q0-15.3 10.289-25.65 10.29-10.35 25.5-10.35Q771-384 781.5-373.65 792-363.3 792-348q0 55-38.5 93.5T660-216ZM384-336q-29.7 0-50.85-21.15Q312-378.3 312-408v-336q0-29.7 21.15-50.85Q354.3-816 384-816h192q29.7 0 50.85 21.15Q648-773.7 648-744v336q0 29.7-21.15 50.85Q605.7-336 576-336H384Zm0-72h192v-336H384v336Zm0 0h192-192Z"/></svg>