<svg xmlns="http://www.w3.org/2000/svg" height="20" viewBox="0 -960 960 960" width="20"><path d="M384-336q-33 0-52.5-19.5T312-408v-336q0-33 19.5-52.5T384-816h192q33 0 52.5 19.5T648-744v336q0 33-19.5 52.5T576-336H384ZM299-96q-104-1-177-74T48-346.662Q48-362 58.29-373q10.289-11 25.5-11 15.21 0 25.573 10.363t10.363 25.683q0 74.794 52.717 127.511t127.511 52.717q15.32 0 25.683 10.363T336-131.789q0 15.21-10.829 25.5Q314.341-96 299-96Zm362.338 0Q646-96 635-106.289q-11-10.29-11-25.5 0-15.211 10.363-25.574 10.363-10.363 25.683-10.363 69.794 0 125.011-39.217t55.217-105.011q0-15.32 10.363-25.683T876.211-348q15.21 0 25.5 10.35Q912-327.3 912-312q0 95-75.5 155.5T661.338-96ZM300-216q-55 0-93.5-38.5T168-348q0-14.927 10.289-25.463Q188.579-384 203.789-384 219-384 229.5-373.65 240-363.3 240-348q0 12 4.5 23t13 19.5q8.5 8.5 19.5 13t23 4.5q15.3 0 25.65 10.289 10.35 10.29 10.35 25.5Q336-237 325.463-226.5 314.927-216 300-216Zm360 0q-14.927 0-25.463-10.289Q624-236.579 624-251.789 624-267 634.35-277.5 644.7-288 660-288q7 0 17.5-11t20-20.5q9.5-9.5 16-11T720-312q0-15.3 10.289-25.65 10.29-10.35 25.5-10.35Q771-348 781.5-337.65 792-327.3 792-312q0 46-40.5 71T660-216Z"/></svg>