<svg xmlns="http://www.w3.org/2000/svg" height="20" viewBox="0 -960 960 960" width="20"><path d="M684-288q-15.3 0-25.65-10.289-10.35-10.29-10.35-25.5Q648-339 658.35-349.5 668.7-360 684-360h132v-84H684q-15.3 0-25.65-10.35Q648-464.7 648-480v-156q0-15.3 10.35-25.65Q668.7-672 684-672h168q15.3 0 25.65 10.289 10.35 10.29 10.35 25.5Q888-621 877.65-610.5 867.3-600 852-600H720v84h96q29.7 0 50.85 21.15Q888-473.7 888-444v84q0 29.7-21.15 50.85Q845.7-288 816-288H684ZM528-600H396q-15.3 0-25.65-10.289-10.35-10.29-10.35-25.5Q360-651 370.35-661.5 380.7-672 396-672h142q25.686 0 43.843 18Q600-636 600-610q0 2-3 19l-86 279q-2.739 10.759-11.87 17.379Q490-288 479-288q-16.5 0-27.25-13.75T446-332l82-268ZM324.211-288Q309-288 298.5-298.289q-10.5-10.29-10.5-25.5Q288-339 298.289-349.5q10.29-10.5 25.5-10.5Q339-360 349.5-349.711q10.5 10.29 10.5 25.5Q360-309 349.711-298.5q-10.29 10.5-25.5 10.5ZM168-600h-60q-15.3 0-25.65-10.289Q72-620.579 72-635.789 72-651 82.35-661.5 92.7-672 108-672h96q15.3 0 25.65 10.35Q240-651.3 240-636v312q0 15.3-10.289 25.65-10.29 10.35-25.5 10.35Q189-288 178.5-298.35 168-308.7 168-324v-276Z"/></svg>