<svg xmlns="http://www.w3.org/2000/svg" height="20" viewBox="0 -960 960 960" width="20"><path d="M684-288q-15.3 0-25.65-10.289-10.35-10.29-10.35-25.5Q648-339 658.35-349.5 668.7-360 684-360h132v-84H684q-15.3 0-25.65-10.35Q648-464.7 648-480v-156q0-15.3 10.35-25.65Q668.7-672 684-672h168q15.3 0 25.65 10.289 10.35 10.29 10.35 25.5Q888-621 877.65-610.5 867.3-600 852-600H720v84h96q29.7 0 50.85 21.15Q888-473.7 888-444v84q0 29.7-21.15 50.85Q845.7-288 816-288H684Zm-120 0H396q-15.3 0-25.65-10.35Q360-308.7 360-324v-120q0-29.7 21.15-50.85Q402.3-516 432-516h96v-84H396q-15.3 0-25.65-10.289-10.35-10.29-10.35-25.5Q360-651 370.35-661.5 380.7-672 396-672h132q29.7 0 50.85 21.15Q600-629.7 600-600v84q0 29.7-21.15 50.85Q557.7-444 528-444h-96v84h132q15.3 0 25.65 10.289 10.35 10.29 10.35 25.5Q600-309 589.65-298.5 579.3-288 564-288Zm-287.789 0Q261-288 250.5-298.289q-10.5-10.29-10.5-25.5Q240-339 250.289-349.5q10.29-10.5 25.5-10.5Q291-360 301.5-349.711q10.5 10.29 10.5 25.5Q312-309 301.711-298.5q-10.29 10.5-25.5 10.5ZM120-600H60q-15.3 0-25.65-10.289Q24-620.579 24-635.789 24-651 34.35-661.5 44.7-672 60-672h96q15.3 0 25.65 10.35Q192-651.3 192-636v312q0 15.3-10.289 25.65-10.29 10.35-25.5 10.35Q141-288 130.5-298.35 120-308.7 120-324v-276Z"/></svg>