<svg xmlns="http://www.w3.org/2000/svg" height="20" viewBox="0 -960 960 960" width="20"><path d="M156.211-288Q141-288 130.5-298.35 120-308.7 120-324v-276H84.21Q69-600 58.5-610.289q-10.5-10.29-10.5-25.5Q48-651 58.325-661.5 68.65-672 83.912-672h71.825Q171-672 181.5-661.65 192-651.3 192-636v312q0 15.3-10.289 25.65-10.29 10.35-25.5 10.35ZM759-408l-59 102q-5 8-13.011 13-8.012 5-17.625 5Q648-288 637.5-306.173T638-342l80-138-80-138q-11-17.654-.333-35.827Q648.333-672 669-672q9.75 0 17.875 5T700-654l59 102 59-102q5-8 13.011-13 8.012-5 17.625-5Q870-672 880.5-653.49 891-634.981 880-617l-79 137 80 138q11 17.654.115 35.827Q870.231-288 848.692-288 839-288 831-293t-13-13l-59-102ZM431-288q-16.5 0-27.25-14.062Q393-316.125 398-333l82-267H348q-15.3 0-25.65-10.289-10.35-10.29-10.35-25.5Q312-651 322.35-661.5 332.7-672 348-672h142q25.686 0 43.843 18Q552-636 552-610q0 2-3 19l-86 279q-2.739 10.759-11.87 17.379Q442-288 431-288Zm-154.789 0Q261-288 250.5-298.289q-10.5-10.29-10.5-25.5Q240-339 250.289-349.5q10.29-10.5 25.5-10.5Q291-360 301.5-349.711q10.5 10.29 10.5 25.5Q312-309 301.711-298.5q-10.29 10.5-25.5 10.5Z"/></svg>