<svg xmlns="http://www.w3.org/2000/svg" height="20" viewBox="0 -960 960 960" width="20"><path d="m681-408-60 102q-5 8-13.011 13-8.012 5-17.625 5Q569-288 558.5-306.173T559-342l80-138-80-138q-11-17.654-.333-35.827Q569.333-672 590-672q9.75 0 17.875 5T621-654l60 102 59-102q5-8 13.011-13 8.012-5 17.625-5Q792-672 802.5-653.827T802-618l-80 138 80 138q11 17.654.333 35.827Q791.667-288 771-288q-9.75 0-17.875-5T740-306l-59-102ZM359-288q-16.5 0-27.25-14.062Q321-316.125 326-333l82-267H276q-15.3 0-25.65-10.289-10.35-10.29-10.35-25.5Q240-651 250.35-661.5 260.7-672 276-672h142q25.686 0 43.843 18Q480-636 480-610q0 2-3 19l-86 279q-2.739 10.759-11.87 17.379Q370-288 359-288Zm-154.789 0Q189-288 178.5-298.289q-10.5-10.29-10.5-25.5Q168-339 178.289-349.5q10.29-10.5 25.5-10.5Q219-360 229.5-349.711q10.5 10.29 10.5 25.5Q240-309 229.711-298.5q-10.29 10.5-25.5 10.5Z"/></svg>