<svg xmlns="http://www.w3.org/2000/svg" height="20" viewBox="0 -960 960 960" width="20"><path d="M540-288H396q-15.3 0-25.65-10.35Q360-308.7 360-324v-120q0-29.7 21.15-50.85Q402.3-516 432-516h72v-84H396q-15.3 0-25.65-10.289-10.35-10.29-10.35-25.5Q360-651 370.35-661.5 380.7-672 396-672h108q29.7 0 50.85 21.15Q576-629.7 576-600v84q0 29.7-21.15 50.85Q533.7-444 504-444h-72v84h108q15.3 0 25.65 10.289 10.35 10.29 10.35 25.5Q576-309 565.65-298.5 555.3-288 540-288ZM120-600H84.21Q69-600 58.5-610.289q-10.5-10.29-10.5-25.5Q48-651 58.325-661.5 68.65-672 83.912-672h71.825Q171-672 181.5-661.65 192-651.3 192-636v312q0 15.3-10.289 25.65-10.29 10.35-25.5 10.35Q141-288 130.5-298.35 120-308.7 120-324v-276Zm656 192-59 102q-5 8-13.011 13-8.012 5-17.625 5Q665-288 654.5-306.173T655-342l80-138-80-138q-11-17.654-.333-35.827Q665.333-672 686-672q9.75 0 17.875 5T717-654l59 102 59-102q5-8 13.011-13 8.012-5 17.625-5Q887-672 897.5-653.49 908-634.981 897-617l-79 137 80 138q11 17.654.115 35.827Q887.231-288 865.692-288 856-288 848-293t-13-13l-59-102ZM276.211-288Q261-288 250.5-298.289q-10.5-10.29-10.5-25.5Q240-339 250.289-349.5q10.29-10.5 25.5-10.5Q291-360 301.5-349.711q10.5 10.29 10.5 25.5Q312-309 301.711-298.5q-10.29 10.5-25.5 10.5Z"/></svg>