<svg xmlns="http://www.w3.org/2000/svg" height="20" viewBox="0 -960 960 960" width="20"><path d="M564-288q-15.3 0-25.65-10.289-10.35-10.29-10.35-25.5Q528-339 538.35-349.5 548.7-360 564-360h132v-84H564q-15.3 0-25.65-10.35Q528-464.7 528-480v-156q0-15.3 10.35-25.65Q548.7-672 564-672h168q15.3 0 25.65 10.289 10.35 10.29 10.35 25.5Q768-621 757.65-610.5 747.3-600 732-600H600v84h96q29.7 0 50.85 21.15Q768-473.7 768-444v84q0 29.7-21.15 50.85Q725.7-288 696-288H564ZM408-600H276q-15.3 0-25.65-10.289-10.35-10.29-10.35-25.5Q240-651 250.35-661.5 260.7-672 276-672h142q25.686 0 43.843 18Q480-636 480-610q0 2-3 19l-86 279q-2.739 10.759-11.87 17.379Q370-288 359-288q-16.5 0-27.25-13.75T326-332l82-268ZM204.211-288Q189-288 178.5-298.289q-10.5-10.29-10.5-25.5Q168-339 178.289-349.5q10.29-10.5 25.5-10.5Q219-360 229.5-349.711q10.5 10.29 10.5 25.5Q240-309 229.711-298.5q-10.29 10.5-25.5 10.5Z"/></svg>