<svg xmlns="http://www.w3.org/2000/svg" height="20" viewBox="0 -960 960 960" width="20"><path d="m681-408-60 102q-5 8-13.011 13-8.012 5-17.625 5Q569-288 558.5-306.173T559-342l80-138-80-138q-11-17.654-.333-35.827Q569.333-672 590-672q9.75 0 17.875 5T621-654l60 102 59-102q5-8 13.011-13 8.012-5 17.625-5Q792-672 802.5-653.827T802-618l-80 138 80 138q11 17.654.333 35.827Q791.667-288 771-288q-9.75 0-17.875-5T740-306l-59-102ZM408-288H276q-15.3 0-25.65-10.289-10.35-10.29-10.35-25.5Q240-339 250.35-349.5 260.7-360 276-360h132v-84H276q-15.3 0-25.65-10.35Q240-464.7 240-480v-156q0-15.3 10.35-25.65Q260.7-672 276-672h168q15.3 0 25.65 10.289 10.35 10.29 10.35 25.5Q480-621 469.65-610.5 459.3-600 444-600H312v84h96q29.7 0 50.85 21.15Q480-473.7 480-444v84q0 29.7-21.15 50.85Q437.7-288 408-288Zm-251.789 0Q141-288 130.5-298.289q-10.5-10.29-10.5-25.5Q120-339 130.289-349.5q10.29-10.5 25.5-10.5Q171-360 181.5-349.711q10.5 10.29 10.5 25.5Q192-309 181.711-298.5q-10.29 10.5-25.5 10.5Z"/></svg>