<svg xmlns="http://www.w3.org/2000/svg" height="20" viewBox="0 -960 960 960" width="20"><path d="M444-288H276q-15.3 0-25.65-10.35Q240-308.7 240-324v-120q0-29.7 21.15-50.85Q282.3-516 312-516h96v-84H276q-15.3 0-25.65-10.289-10.35-10.29-10.35-25.5Q240-651 250.35-661.5 260.7-672 276-672h132q29.7 0 50.85 21.15Q480-629.7 480-600v84q0 29.7-21.15 50.85Q437.7-444 408-444h-96v84h132q15.3 0 25.65 10.289 10.35 10.29 10.35 25.5Q480-309 469.65-298.5 459.3-288 444-288Zm237-120-60 102q-5 8-13.011 13-8.012 5-17.625 5Q569-288 558.5-306.173T559-342l80-138-80-138q-11-17.654-.333-35.827Q569.333-672 590-672q9.75 0 17.875 5T621-654l60 102 59-102q5-8 13.011-13 8.012-5 17.625-5Q792-672 802.5-653.827T802-618l-80 138 80 138q11 17.654.333 35.827Q791.667-288 771-288q-9.75 0-17.875-5T740-306l-59-102ZM156.211-288Q141-288 130.5-298.289q-10.5-10.29-10.5-25.5Q120-339 130.289-349.5q10.29-10.5 25.5-10.5Q171-360 181.5-349.711q10.5 10.29 10.5 25.5Q192-309 181.711-298.5q-10.29 10.5-25.5 10.5Z"/></svg>