<svg xmlns="http://www.w3.org/2000/svg" height="20" width="20"><path d="M11.5 17q-.208 0-.354-.146T11 16.5v-3q0-.208.146-.354T11.5 13h2q.208 0 .354.146T14 13.5v3q0 .208-.146.354T13.5 17Zm.5-1h1v-2h-1Zm3.5 2q-.208 0-.354-.146T15 17.5V16q0-.208.146-.354t.354-.146H17V15h-1.5q-.208 0-.354-.146T15 14.5q0-.208.146-.354T15.5 14h2q.208 0 .354.146T18 14.5V16q0 .208-.146.354t-.354.146H16v.5h1.5q.208 0 .354.146T18 17.5q0 .208-.146.354T17.5 18Zm-6 0q-2.708 0-4.604-1.896T3 11.5q0-1.312.604-2.583.604-1.271 1.511-2.438.906-1.167 1.947-2.187Q8.104 3.271 9 2.458q.104-.104.229-.145.125-.042.271-.042.146 0 .271.042.125.041.229.145.854.771 1.896 1.813 1.042 1.041 1.958 2.229.917 1.188 1.531 2.469Q16 10.25 16 11.5h-5q-.625 0-1.062.438Q9.5 12.375 9.5 13Z"/></svg>