<svg xmlns="http://www.w3.org/2000/svg" height="20" viewBox="0 96 960 960" width="20"><path d="M168 720q-29.7 0-50.85-21.15Q96 677.7 96 648V264q0-29.7 21.15-50.85Q138.3 192 168 192h384q29.7 0 50.85 21.15Q624 234.3 624 264v60q0 15.3-10.289 25.65-10.29 10.35-25.5 10.35Q573 360 562.5 349.65 552 339.3 552 324v-60H168v384h60q15.3 0 25.65 10.289 10.35 10.29 10.35 25.5Q264 699 253.65 709.5 243.3 720 228 720h-60Zm240 240q-29.7 0-50.85-21.15Q336 917.7 336 888V504q0-29.7 21.15-50.85Q378.3 432 408 432h384q29.7 0 50.85 21.15Q864 474.3 864 504v384q0 29.7-21.15 50.85Q821.7 960 792 960H408Zm0-72h384V504H408v384Zm192-192Z"/></svg>