<svg xmlns="http://www.w3.org/2000/svg" height="20" viewBox="0 96 960 960" width="20"><path d="m864 858-72-72V504H510l-72-72h354q29 0 50.5 21.5T864 504v354ZM270 264l-72-72h354q29 0 50.5 21.5T624 264v60q0 15.3-10.289 25.65-10.29 10.35-25.5 10.35Q573 360 562.5 349.65 552 339.3 552 324v-60H270Zm381 381ZM408 888h282L408 606v282Zm0 72q-30 0-51-21t-21-51V534L168 366v282h60q15.3 0 25.65 10.289 10.35 10.29 10.35 25.5Q264 699 253.65 709.5 243.3 720 228 720h-60q-30 0-51-21t-21-51V294l-26.1-25.865Q59 257.432 59.5 242.716 60 228 71 217q11-11 25.667-11 14.666 0 25.333 11l717 718q11 10.636 11 24.818Q850 974 839 985q-11 11-25.716 11-14.716 0-25.419-10.8L762 960H408Zm141-213Z"/></svg>