<svg xmlns="http://www.w3.org/2000/svg" height="20" width="20"><path d="M4.812 8.104q.73 0 1.376.261.645.26 1.187.739l7.917 7.396h.458q.312 0 .531-.219.219-.219.219-.531 0-.188-.042-.333-.041-.146-.208-.313l-3.938-3.729-.874-4.417-1.813.563q-.604.187-1.115-.188-.51-.375-.51-1V4.062l-.75-.208-3.292 4-.083.125-.083.125Zm0 1.5h-.979q.042.084.115.156l.156.157 6.834 6.271q.166.166.385.239.219.073.448.073h1.333l-6.75-6.292q-.312-.291-.719-.448-.406-.156-.823-.156ZM11.771 18q-.521 0-1-.188-.479-.187-.854-.541l-7.021-6.438Q2.083 10.104 2.01 9q-.072-1.104.636-1.958l3.583-4.271q.229-.292.583-.396.355-.104.709 0l1.062.313q.417.104.667.437.25.333.25.75v2.104l1.75-.521q.542-.166 1.01.115.469.281.573.823l.855 4.229L17.292 14q.354.333.531.76.177.428.177.99 0 .938-.656 1.594-.656.656-1.594.656Z"/></svg>