<svg xmlns="http://www.w3.org/2000/svg" height="20" width="20"><path d="M9.917 16q-1.042 0-1.771-.729-.729-.729-.729-1.771 0-1.042.729-1.771Q8.875 11 9.917 11q1.041 0 1.771.729.729.729.729 1.771 0 1.042-.729 1.771-.73.729-1.771.729Zm3.708-7.5q-.604-.917-1.573-1.458-.969-.542-2.156-.542-1.375 0-2.469.74-1.094.739-1.635 1.948-.146.333-.407.572-.26.24-.614.24-.333 0-.49-.292-.156-.291-.052-.646.604-1.812 2.156-2.937Q7.938 5 9.896 5q1.375 0 2.531.562 1.156.563 1.99 1.5V5.75q0-.312.218-.531.219-.219.532-.219.312 0 .531.219.219.219.219.531v3.5q0 .312-.219.531-.219.219-.531.219h-3.5q-.313 0-.532-.219-.218-.219-.218-.531 0-.312.218-.531.219-.219.532-.219Z"/></svg>