<svg xmlns="http://www.w3.org/2000/svg" height="20" width="20"><path d="M10 18q-1.042 0-1.771-.729Q7.5 16.542 7.5 15.5q0-1.042.729-1.771Q8.958 13 10 13q1.042 0 1.771.729.729.729.729 1.771 0 1.042-.729 1.771Q11.042 18 10 18Zm-.75-9.375V2.75q0-.312.219-.531Q9.688 2 10 2q.312 0 .531.219.219.219.219.531v5.875l1.667-1.667q.229-.229.531-.229.302 0 .531.229.229.23.229.532 0 .302-.229.531l-2.958 2.958q-.229.229-.521.229-.292 0-.521-.229L6.521 8.021q-.229-.229-.219-.531.01-.302.24-.532.229-.229.531-.229.302 0 .531.229Z"/></svg>