<svg xmlns="http://www.w3.org/2000/svg" height="20" width="20"><path d="M15.5 12.5q-1.062 0-1.781-.719Q13 11.062 13 10q0-1.062.719-1.781.719-.719 1.781-.719 1.062 0 1.781.719Q18 8.938 18 10q0 1.062-.719 1.781-.719.719-1.781.719Zm-6.875-1.75H2.75q-.312 0-.531-.219Q2 10.312 2 10q0-.312.219-.531.219-.219.531-.219h5.875L6.958 7.583q-.229-.229-.218-.531.01-.302.239-.531.229-.229.531-.229.302 0 .532.229l2.937 2.958q.229.229.229.521 0 .292-.229.521l-2.958 2.958q-.229.229-.521.219-.292-.01-.521-.24-.229-.229-.229-.531 0-.302.229-.531Z"/></svg>