<svg xmlns="http://www.w3.org/2000/svg" height="20" width="20"><path d="M4.812 8.104H2.104q.084-.292.208-.562.126-.271.334-.5l3.583-4.271q.229-.292.583-.396.355-.104.709 0l1.062.313q.417.104.667.437.25.333.25.75v2.104l1.75-.521q.542-.166 1.01.115.469.281.573.823l.855 4.229L17.292 14q.354.333.531.76.177.428.177.99 0 .688-.365 1.229-.364.542-.947.813L7.375 9.104q-.542-.479-1.187-.739-.646-.261-1.376-.261ZM11.771 18q-.521 0-1-.188-.479-.187-.854-.541l-7.021-6.438q-.292-.271-.479-.573-.188-.302-.292-.656h2.687q.417 0 .823.156.407.157.719.448L14.688 18Z"/></svg>