<svg xmlns="http://www.w3.org/2000/svg" height="20" width="20"><path d="M10 18q-1.042 0-1.771-.729Q7.5 16.542 7.5 15.5q0-1.042.729-1.771Q8.958 13 10 13q1.042 0 1.771.729.729.729.729 1.771 0 1.042-.729 1.771Q11.042 18 10 18ZM9.25 4.875 7.583 6.542q-.229.229-.521.218-.291-.01-.52-.239-.23-.229-.23-.531 0-.302.23-.532l2.937-2.937q.229-.229.521-.229.292 0 .521.229l2.958 2.958q.229.229.229.521 0 .292-.229.521-.229.229-.531.229-.302 0-.531-.229L10.75 4.875v5.875q0 .312-.219.531-.219.219-.531.219-.312 0-.531-.219-.219-.219-.219-.531Z"/></svg>