<svg xmlns="http://www.w3.org/2000/svg" height="20" width="20"><path d="M15.5 12.5q-1.042 0-1.771-.729Q13 11.042 13 10q0-1.042.729-1.771.729-.729 1.771-.729 1.042 0 1.771.729Q18 8.958 18 10q0 1.042-.729 1.771-.729.729-1.771.729Zm-6.875-1.75H2.75q-.312 0-.531-.219Q2 10.312 2 10q0-.312.219-.531.219-.219.531-.219h5.875L6.958 7.583q-.229-.229-.218-.531.01-.302.239-.531.229-.229.531-.229.302 0 .532.229l2.937 2.958q.229.229.229.521 0 .292-.229.521l-2.958 2.958q-.229.229-.521.219-.292-.01-.521-.24-.229-.229-.229-.531 0-.302.229-.531Z"/></svg>