<svg xmlns="http://www.w3.org/2000/svg" height="20" width="20"><path d="M10 17.5Q9.646 17.5 9.385 17.24Q9.125 16.979 9.125 16.625V5.833L8.479 6.458Q8.229 6.708 7.875 6.708Q7.521 6.708 7.271 6.458Q7.021 6.208 7.021 5.854Q7.021 5.5 7.271 5.25L9.375 3.125Q9.5 3 9.667 2.938Q9.833 2.875 10 2.875Q10.167 2.875 10.333 2.938Q10.5 3 10.625 3.125L12.729 5.25Q12.979 5.5 12.979 5.854Q12.979 6.208 12.729 6.458Q12.479 6.708 12.125 6.708Q11.771 6.708 11.521 6.458L10.875 5.833V16.625Q10.875 16.979 10.615 17.24Q10.354 17.5 10 17.5Z"/></svg>