<svg xmlns="http://www.w3.org/2000/svg" height="20" width="20"><path d="M10 13.292q1.354 0 3.208-.604 1.854-.605 4.792-2V10.5q-.021-1-.812-1.604-.792-.604-1.75-.313-.334.105-.709.24-.375.135-.937.365-1.292.52-2.115.718-.823.198-1.677.198-.917 0-1.76-.198-.844-.198-2.157-.739-.604-.25-.906-.355-.302-.104-.594-.208-.958-.312-1.771.281Q2 9.479 2 10.5v.146q2.604 1.354 4.583 2 1.979.646 3.417.646ZM10 18q2.854 0 4.958-1.552t2.771-3.99Q15 13.729 13.26 14.26q-1.739.532-3.26.532-1.521 0-3.385-.563-1.865-.562-4.386-1.771.625 2.5 2.709 4.021Q7.021 18 10 18Zm0-10q-1.25 0-2.125-.875T7 5q0-1.25.875-2.125T10 2q1.25 0 2.125.875T13 5q0 1.25-.875 2.125T10 8Z"/></svg>