<svg xmlns="http://www.w3.org/2000/svg" height="20" viewBox="0 -960 960 960" width="20"><path d="M396-96H276q-15.3 0-25.65-10.29Q240-116.58 240-131.79t10.35-25.71Q260.7-168 276-168h120q15.3 0 25.65 10.29Q432-147.42 432-132.21t-10.35 25.71Q411.3-96 396-96Zm288 0H564q-15.3 0-25.65-10.29Q528-116.58 528-131.79t10.35-25.71Q548.7-168 564-168h120q15.3 0 25.65 10.29Q720-147.42 720-132.21t-10.35 25.71Q699.3-96 684-96ZM216-216q-34.47 0-56.23-25.5Q138-267 144-300l96-504q5-26 25.07-43T311-864h338q25.86 0 45.93 17T720-804l95 504q5 33-16.21 58.5T744-216H216Zm264-120q60 0 102-42t42-102q0-60-42-102t-102-42q-60 0-102 42t-42 102q0 60 42 102t102 42Zm-.21-72Q450-408 429-429.21t-21-51Q408-510 429.21-531t51-21Q510-552 531-530.79t21 51Q552-450 530.79-429t-51 21Zm0-264q15.21 0 25.71-10.29t10.5-25.5q0-15.21-10.29-25.71t-25.5-10.5q-15.21 0-25.71 10.29t-10.5 25.5q0 15.21 10.29 25.71t25.5 10.5Z"/></svg>