<svg xmlns="http://www.w3.org/2000/svg" height="20" viewBox="0 96 960 960" width="20"><path d="M480 960q-79.376 0-149.188-30Q261 900 208.5 847.5T126 725.188Q96 655.376 96 576q0-60.291 17-115.145Q130 406 162 360l-47-47q-11-10.667-10.5-25.333Q105 273 116 262q11-11 25.667-11 14.666 0 25.333 11l626.92 627.919Q805 901 805 915.182q0 14.182-11 24.818-10.667 11-25.333 11Q754 951 743 940l-47-46q-46 32-100.855 49Q540.291 960 480 960Zm-41-75q11-47 39.5-83t68.5-57L214 412q-22 36-34 77.5T168 576q0 35 7 68.5t23 64.5q42-19 85.733-28 43.734-9 88.461-9 31.806 0 63.317 5.225Q467.023 682.45 498 691q-20 11-36.5 26.5T430 749q-14-2-29-3.5t-29-1.5q-34.695 0-68.847 7Q269 758 237 771q37 48 89.5 77.5T439 885Zm359-93-53-53q23-37 35-78t12-84.743Q792 446 701 355t-221-91q-45 0-86.5 12T316 310l-52-52q46-32 100.855-49Q419.709 192 480 192q80 0 149.5 30t122 82.5Q804 357 834 426.5T864 576q0 60.291-17 115.145Q830 746 798 792ZM503 497 355 349q65-8 110.5 38T503 497ZM372 612q-54.686 0-93.343-38.657Q240 534.686 240 480q0-30.25 12.548-55.458Q265.096 399.333 285 381l186 186q-18.333 19.904-43.542 32.452Q402.25 612 372 612Zm282 36L552 546q2-38 30-64t66-26q40.32 0 68.16 27.84Q744 511.68 744 552q0 38-26 66t-64 30ZM531 524ZM429 627Z"/></svg>