<svg xmlns="http://www.w3.org/2000/svg" height="20" viewBox="0 -960 960 960" width="20"><path d="M696-864q33 0 52.5 19.5T768-792v624q0 33-19.5 52.5T696-96H264q-33 0-52.5-19.5T192-168v-624q0-33 19.5-52.5T264-864h432ZM588.04-672H372.28q-15.28 0-25.78 10.35Q336-651.3 336-636v312q0 15.3 10.34 25.65Q356.68-288 371.96-288h215.76q15.28 0 25.78-10.35Q624-308.7 624-324v-312q0-15.3-10.34-25.65Q603.32-672 588.04-672ZM552-600v168H408v-168h144Zm-72 384q-10.4 0-17.2 6.8-6.8 6.8-6.8 17.2 0 10.4 6.8 17.2 6.8 6.8 17.2 6.8 10.4 0 17.2-6.8 6.8-6.8 6.8-17.2 0-10.4-6.8-17.2-6.8-6.8-17.2-6.8Zm0-576q-10.4 0-17.2 6.8-6.8 6.8-6.8 17.2 0 10.4 6.8 17.2 6.8 6.8 17.2 6.8 10.4 0 17.2-6.8 6.8-6.8 6.8-17.2 0-10.4-6.8-17.2-6.8-6.8-17.2-6.8Z"/></svg>