<svg xmlns="http://www.w3.org/2000/svg" height="20" width="20"><path d="M9.958 10ZM10 16q-2.979 0-5.417-1.635Q2.146 12.729 1 10q1.146-2.729 3.583-4.365Q7.021 4 10 4q2.979 0 5.417 1.635Q17.854 7.271 19 10q-.104.25-.219.469-.114.219-.239.448L17.25 9.812q-1.083-2-3.031-3.156Q12.271 5.5 10 5.5q-2.333 0-4.312 1.208Q3.708 7.917 2.646 10q1.062 2.083 3.042 3.292Q7.667 14.5 10 14.5h.5q.25 0 .5-.042-.042.375 0 .75t.146.73q-.292.041-.573.052-.281.01-.573.01Zm0-2.5q-1.458 0-2.479-1.021Q6.5 11.458 6.5 10q0-1.458 1.021-2.479Q8.542 6.5 10 6.5q1.438 0 2.469 1.031T13.5 10q0 .125-.01.24-.011.114-.032.239l-.687.583q-.542.438-.927 1-.386.563-.615 1.23-.291.104-.604.156-.313.052-.625.052Zm0-1.5q.833 0 1.417-.583Q12 10.833 12 10q0-.833-.583-1.417Q10.833 8 10 8q-.833 0-1.417.583Q8 9.167 8 10q0 .833.583 1.417Q9.167 12 10 12Zm5.75 6q-1.375 0-2.312-.969-.938-.969-.938-2.343 0-.73.344-1.365t.906-1.115l2-1.708 1.979 1.708q.563.48.917 1.115.354.635.354 1.365 0 1.374-.948 2.343-.948.969-2.302.969Zm0-1.5q.729 0 1.24-.531.51-.531.51-1.281 0-.417-.24-.75-.239-.334-.552-.626l-.958-.833-1 .833q-.312.292-.531.626-.219.333-.219.75 0 .75.51 1.281.511.531 1.24.531Zm0-2.021Z"/></svg>