<svg xmlns="http://www.w3.org/2000/svg" height="20" width="20"><path d="M3.708 9.312q-.229-.229-.218-.52.01-.292.239-.521l2.209-2.209-.813-.812-.354.354q-.229.229-.531.229-.302 0-.532-.229-.229-.229-.229-.531 0-.302.229-.531l1.771-1.771q.229-.229.531-.229.302 0 .532.229.229.229.229.531 0 .302-.229.531l-.354.355L7 5l2.208-2.229q.23-.229.532-.229.302 0 .531.208.229.229.229.531 0 .302-.229.531l-.5.5L11 5.542 8.792 7.729q-.23.229-.23.542 0 .312.23.521.229.229.531.229.302 0 .531-.229l2.208-2.188 1.23 1.229-2.209 2.188q-.229.229-.229.531 0 .302.229.531.229.229.521.229.292 0 .521-.229l2.229-2.187 1.208 1.208q.438.438.438 1.063t-.438 1.062l-.666.667 3 2.979q.166.167.073.406-.094.24-.344.24h-.771q-.229 0-.427-.083-.198-.084-.365-.25l-2.229-2.23-.645.646q-.438.438-1.063.438t-1.063-.438L5.271 8.812l-.5.5q-.229.23-.531.23-.302 0-.532-.23Z"/></svg>