<svg xmlns="http://www.w3.org/2000/svg" height="20" width="20"><path d="m10 11.062 1.917 1.917q.229.229.531.219.302-.01.531-.24.229-.229.229-.531 0-.302-.229-.531L11.062 10l1.917-1.917q.229-.229.229-.531 0-.302-.229-.531-.229-.229-.531-.229-.302 0-.531.229L10 8.938 8.083 7.021q-.229-.229-.521-.229-.291 0-.52.229-.23.229-.23.531 0 .302.23.531L8.938 10l-1.896 1.896q-.23.229-.23.531 0 .302.23.531.229.23.52.23.292 0 .521-.23ZM4.5 15.5v-11 11Zm0 1.5q-.625 0-1.062-.438Q3 16.125 3 15.5v-11q0-.625.438-1.062Q3.875 3 4.5 3h11q.625 0 1.062.438Q17 3.875 17 4.5v6.604q-.375-.083-.75-.094-.375-.01-.75.032V4.5h-11v11h6.542q-.042.375-.032.75.011.375.094.75Zm11.667-.25H13.75q-.312 0-.531-.219Q13 16.312 13 16q0-.312.219-.531.219-.219.531-.219h2.417l-.646-.667q-.229-.229-.229-.521 0-.291.229-.52.229-.23.531-.23.302 0 .531.23l1.896 1.937q.229.229.229.521 0 .292-.229.521l-1.896 1.937q-.229.23-.531.23-.302 0-.531-.23-.229-.229-.229-.52 0-.292.229-.521Z"/></svg>