<svg xmlns="http://www.w3.org/2000/svg" height="20" width="20"><path d="M15.5 14.792V13.5q0-.208-.146-.354T15 13q-.208 0-.354.146t-.146.354v1.396q0 .166.062.302.063.135.167.24l1.063 1.062q.146.146.354.146t.354-.146q.146-.146.146-.354t-.146-.354ZM11 5.5v1.75q0 .312.219.531.219.219.531.219h4.75V5.5ZM15 19q-1.667 0-2.833-1.167Q11 16.667 11 15q0-1.667 1.167-2.833Q13.333 11 15 11q1.667 0 2.833 1.167Q19 13.333 19 15q0 1.667-1.167 2.833Q16.667 19 15 19ZM3.5 16q-.625 0-1.062-.438Q2 15.125 2 14.5v-9q0-.625.438-1.062Q2.875 4 3.5 4h13q.625 0 1.062.438Q18 4.875 18 5.5v4.875q-.667-.417-1.427-.646-.761-.229-1.552-.229-2.146 0-3.719 1.427T9.521 14.5q-.042.375-.021.75t.083.75Z"/></svg>