<svg xmlns="http://www.w3.org/2000/svg" height="20" width="20"><path d="M6.5 15q-.625 0-1.062-.438Q5 14.125 5 13.5v-10q0-.625.438-1.062Q5.875 2 6.5 2h10q.625 0 1.062.438Q18 2.875 18 3.5v10q0 .625-.438 1.062Q17.125 15 16.5 15Zm0-1.5h10V6h-4.75q-.312 0-.531-.219Q11 5.562 11 5.25V3.5H6.5v10Zm-3 4.5q-.625 0-1.062-.438Q2 17.125 2 16.5V5.75q0-.312.219-.531Q2.438 5 2.75 5q.312 0 .531.219.219.219.219.531V16.5h10.75q.312 0 .531.219.219.219.219.531 0 .312-.219.531-.219.219-.531.219Zm3-14.5v10-10Z"/></svg>