<svg xmlns="http://www.w3.org/2000/svg" height="20" width="20"><path d="M4.5 15.5v-11 11Zm0 1.5q-.625 0-1.062-.438Q3 16.125 3 15.5v-11q0-.625.438-1.062Q3.875 3 4.5 3h11q.625 0 1.062.438Q17 3.875 17 4.5v6.604q-.375-.083-.75-.094-.375-.01-.75.032V4.5h-11v11h6.542q-.042.375-.032.75.011.375.094.75Zm11.667-.25H13.75q-.312 0-.531-.219Q13 16.312 13 16q0-.312.219-.531.219-.219.531-.219h2.417l-.646-.667q-.229-.229-.229-.521 0-.291.229-.52.229-.23.531-.23.302 0 .531.23l1.896 1.937q.229.229.229.521 0 .292-.229.521l-1.896 1.937q-.229.23-.531.23-.302 0-.531-.23-.229-.229-.229-.52 0-.292.229-.521Zm-6.917-6v2.5q0 .312.219.531Q9.688 14 10 14q.312 0 .531-.219.219-.219.219-.531v-2.5h2.5q.312 0 .531-.219Q14 10.312 14 10q0-.312-.219-.531-.219-.219-.531-.219h-2.5v-2.5q0-.312-.219-.531Q10.312 6 10 6q-.312 0-.531.219-.219.219-.219.531v2.5h-2.5q-.312 0-.531.219Q6 9.688 6 10q0 .312.219.531.219.219.531.219Z"/></svg>