<svg xmlns="http://www.w3.org/2000/svg" height="20" width="20"><path d="M4.5 17q-.625 0-1.062-.448Q3 16.104 3 15.5v-1.75q0-.312.219-.531Q3.438 13 3.75 13q.312 0 .531.219.219.219.219.531v1.75h11V6h-11v2.25q0 .312-.219.531Q4.062 9 3.75 9q-.312 0-.531-.219Q3 8.562 3 8.25V4.5q0-.604.438-1.052Q3.875 3 4.5 3h11q.625 0 1.062.448Q17 3.896 17 4.5v11q0 .604-.438 1.052Q16.125 17 15.5 17Zm5.625-5.25H3.75q-.312 0-.531-.219Q3 11.312 3 11q0-.312.219-.531.219-.219.531-.219h6.375L8.958 9.083q-.229-.229-.218-.531.01-.302.239-.531.229-.229.531-.229.302 0 .532.229l2.437 2.458q.229.229.229.521 0 .292-.229.521l-2.458 2.458q-.229.229-.521.219-.292-.01-.521-.24-.229-.229-.229-.531 0-.302.229-.531Z"/></svg>