<svg xmlns="http://www.w3.org/2000/svg" height="20" width="20"><path d="M15 19q-1.667 0-2.833-1.167Q11 16.667 11 15q0-1.667 1.167-2.833Q13.333 11 15 11q1.667 0 2.833 1.167Q19 13.333 19 15q0 1.667-1.167 2.833Q16.667 19 15 19Zm.5-4.208V13.5q0-.208-.146-.354T15 13q-.208 0-.354.146t-.146.354v1.396q0 .166.062.302.063.135.167.24l1.063 1.062q.146.146.354.146t.354-.146q.146-.146.146-.354t-.146-.354ZM3.5 16h6.083q-.062-.375-.083-.75-.021-.375.021-.75H3.5v-9H11v1.75q0 .312.219.531.219.219.531.219h4.75v1.708q.417.104.781.271.365.167.719.396V5.5q0-.625-.438-1.062Q17.125 4 16.5 4h-13q-.625 0-1.062.438Q2 4.875 2 5.5v9q0 .625.438 1.062Q2.875 16 3.5 16Zm0-1.5v-9 9Z"/></svg>