<svg xmlns="http://www.w3.org/2000/svg" height="20" width="20"><path d="M5.521 17.479q-.229-.229-.229-.521 0-.291.229-.52l3.917-3.917q.437-.438 1.062-.438t1.062.438l1.938 1.937 3.917-3.916q.229-.23.531-.24.302-.01.531.219.229.229.229.531 0 .302-.229.531L14.562 15.5q-.437.438-1.062.438t-1.062-.438L10.5 13.562l-3.938 3.917q-.229.229-.52.229-.292 0-.521-.229ZM3.5 17q-.625 0-1.062-.438Q2 16.125 2 15.5v-11q0-.604.448-1.052Q2.896 3 3.5 3h11q.604 0 1.052.448Q16 3.896 16 4.5v3.25q0 .312-.219.531-.219.219-.531.219H3.5v7Z"/></svg>