<svg xmlns="http://www.w3.org/2000/svg" height="20" width="20"><path d="M3.75 12.667q-.354 0-.552-.198Q3 12.271 3 11.917v-.5q0-.355.198-.552.198-.198.552-.198h12.5q.354 0 .552.198.198.197.198.552v.5q0 .354-.198.552-.198.198-.552.198Zm0-3.334q-.354 0-.552-.198Q3 8.938 3 8.583v-.5q0-.354.198-.552.198-.198.552-.198h12.5q.354 0 .552.198.198.198.198.552v.5q0 .355-.198.552-.198.198-.552.198ZM3.75 6q-.354 0-.552-.198Q3 5.604 3 5.25v-.5q0-.354.198-.552Q3.396 4 3.75 4h12.5q.354 0 .552.198.198.198.198.552v.5q0 .354-.198.552Q16.604 6 16.25 6Zm0 10q-.354 0-.552-.198Q3 15.604 3 15.25v-.5q0-.354.198-.552Q3.396 14 3.75 14h12.5q.354 0 .552.198.198.198.198.552v.5q0 .354-.198.552-.198.198-.552.198Z"/></svg>