<svg xmlns="http://www.w3.org/2000/svg" height="20" width="20"><path d="M4.979 11.938q-.479.25-.979.114-.5-.135-.792-.594-.354-.541-.135-1.156.219-.614.844-.844l5.937-1.979q.271-.104.542.021t.437.479q.146.271.042.563-.104.291-.375.437ZM7 17q-.625 0-1.062-.438Q5.5 16.125 5.5 15.5v-2.708l6.208-3.334q.334-.166.438-.52.104-.355-.063-.688l3.605-1.771q.27-.146.562-.021.292.125.479.48.125.229.063.5-.063.27-.292.437l-5 3.625v4q0 .625-.438 1.062Q10.625 17 10 17Zm-.25-8.5q-1.146 0-1.948-.802T4 5.75q0-1.146.802-1.948T6.75 3q1.146 0 1.948.802T9.5 5.75q0 1.146-.802 1.948T6.75 8.5Z"/></svg>