<svg xmlns="http://www.w3.org/2000/svg" height="20" width="20"><path d="M9.25 17v-1.5h1.5V17Zm0-12.5V3h1.5v1.5ZM12.375 17v-1.5h1.5V17Zm0-12.5V3h1.5v1.5Zm1.75 6.25H9.812q-.312 0-.531-.219-.219-.219-.219-.531 0-.312.219-.531.219-.219.531-.219h4.313l-.667-.667q-.229-.229-.218-.531.01-.302.239-.531.229-.229.531-.229.302 0 .532.229l1.937 1.958q.229.229.229.521 0 .292-.229.521l-1.958 1.958q-.229.229-.521.219-.292-.01-.521-.24-.229-.229-.229-.531 0-.302.229-.531ZM4.75 15.5v-11h-1q-.312 0-.531-.219Q3 4.062 3 3.75q0-.312.219-.531Q3.438 3 3.75 3h3.5q.312 0 .531.219Q8 3.438 8 3.75q0 .312-.219.531-.219.219-.531.219h-1v11h1q.312 0 .531.219.219.219.219.531 0 .312-.219.531Q7.562 17 7.25 17h-3.5q-.312 0-.531-.219Q3 16.562 3 16.25q0-.312.219-.531.219-.219.531-.219Zm10.75-11V3q.625 0 1.062.438Q17 3.875 17 4.5Zm0 12.5v-1.5H17q0 .625-.438 1.062Q16.125 17 15.5 17Z"/></svg>