<svg xmlns="http://www.w3.org/2000/svg" height="20" width="20"><path d="M3.75 4.5q-.312 0-.531-.219Q3 4.062 3 3.75q0-.312.219-.531Q3.438 3 3.75 3h12.5q.312 0 .531.219.219.219.219.531 0 .312-.219.531-.219.219-.531.219Zm5.729 8.958L7.521 11.5q-.229-.229-.219-.531.01-.302.24-.531.229-.23.531-.23.302 0 .531.23l.646.666V6.771q0-.313.219-.531.219-.219.531-.219.312 0 .531.219.219.218.219.531v4.333l.667-.666q.229-.23.531-.23.302 0 .531.23.229.229.229.531 0 .302-.229.531l-1.958 1.958q-.229.23-.521.23-.292 0-.521-.23ZM3.75 17q-.312 0-.531-.219Q3 16.562 3 16.25q0-.312.219-.531.219-.219.531-.219h12.5q.312 0 .531.219.219.219.219.531 0 .312-.219.531-.219.219-.531.219Z"/></svg>