<svg xmlns="http://www.w3.org/2000/svg" height="20" width="20"><path d="M16.25 17H3.75q-.312 0-.531-.219Q3 16.562 3 16.25q0-.312.219-.531.219-.219.531-.219h12.5q.312 0 .531.219.219.219.219.531 0 .312-.219.531-.219.219-.531.219Zm-7-8.104-.667.666q-.229.23-.521.219-.291-.01-.52-.239-.23-.23-.23-.532 0-.302.23-.531l1.937-1.937q.229-.23.521-.23.292 0 .521.23L12.479 8.5q.229.229.229.521 0 .291-.229.521-.229.229-.531.229-.302 0-.531-.229l-.667-.646v4.333q0 .313-.219.531-.219.219-.531.219-.312 0-.531-.219-.219-.218-.219-.531Zm7-4.396H3.75q-.312 0-.531-.219Q3 4.062 3 3.75q0-.312.219-.531Q3.438 3 3.75 3h12.5q.312 0 .531.219.219.219.219.531 0 .312-.219.531-.219.219-.531.219Z"/></svg>