<svg xmlns="http://www.w3.org/2000/svg" height="20" width="20"><path d="M9.25 4.5V3h1.5v1.5Zm0 12.5v-1.5h1.5V17ZM6.125 4.5V3h1.5v1.5Zm0 12.5v-1.5h1.5V17Zm-.667-4.521-1.937-1.958q-.229-.229-.229-.521 0-.292.229-.521l1.958-1.958q.229-.229.521-.219.292.01.521.24.229.229.229.531 0 .302-.229.531l-.646.646h4.313q.312 0 .531.219.219.219.219.531 0 .312-.219.531-.219.219-.531.219H5.875l.667.667q.229.229.218.531-.01.302-.239.531-.229.229-.531.229-.302 0-.532-.229ZM12.75 17q-.312 0-.531-.219Q12 16.562 12 16.25q0-.312.219-.531.219-.219.531-.219h1v-11h-1q-.312 0-.531-.219Q12 4.062 12 3.75q0-.312.219-.531Q12.438 3 12.75 3h3.5q.312 0 .531.219.219.219.219.531 0 .312-.219.531-.219.219-.531.219h-1v11h1q.312 0 .531.219.219.219.219.531 0 .312-.219.531-.219.219-.531.219ZM3 4.5q0-.625.438-1.062Q3.875 3 4.5 3v1.5ZM4.5 17q-.625 0-1.062-.438Q3 16.125 3 15.5h1.5Z"/></svg>