<svg xmlns="http://www.w3.org/2000/svg" height="20" width="20"><path d="M9.25 4.5V3h1.5v1.5Zm0 12.5v-1.5h1.5V17ZM6.125 4.5V3h1.5v1.5Zm0 12.5v-1.5h1.5V17Zm-.646-4.542-1.958-1.937q-.229-.229-.229-.521 0-.292.229-.521l1.958-1.958q.229-.229.531-.229.302 0 .532.229.229.229.229.531 0 .302-.229.531l-.667.667h4.375q.312 0 .531.219Q11 9.688 11 10q0 .312-.219.531-.219.219-.531.219H5.875l.667.667q.229.229.229.521 0 .291-.229.52-.23.23-.532.23-.302 0-.531-.23Zm8.396 3.042H15.5v-11h-1.625Zm0 1.5q-.625 0-1.063-.438-.437-.437-.437-1.062v-11q0-.625.437-1.062Q13.25 3 13.875 3H15.5q.625 0 1.062.438Q17 3.875 17 4.5v11q0 .625-.438 1.062Q16.125 17 15.5 17Zm0-1.5H15.5ZM4.5 17q-.625 0-1.062-.438Q3 16.125 3 15.5h1.5ZM3 4.5q0-.625.438-1.062Q3.875 3 4.5 3v1.5Z"/></svg>