<svg xmlns="http://www.w3.org/2000/svg" height="20" width="20"><path d="M8.062 10.75H3.75q-.312 0-.531-.219Q3 10.312 3 10q0-.312.219-.531.219-.219.531-.219h4.312l-.666-.667q-.229-.229-.219-.531.011-.302.24-.531.229-.229.531-.229.302 0 .531.229l1.938 1.958q.229.229.229.521 0 .292-.229.521l-1.959 1.958q-.229.229-.52.219-.292-.01-.521-.24-.229-.229-.229-.531 0-.302.229-.531Zm7.438 5.5V3.75q0-.312.219-.531Q15.938 3 16.25 3q.312 0 .531.219.219.219.219.531v12.5q0 .312-.219.531-.219.219-.531.219-.312 0-.531-.219-.219-.219-.219-.531ZM12.375 4.5V3h1.5v1.5Zm0 12.5v-1.5h1.5V17ZM9.25 4.5V3h1.5v1.5Zm0 12.5v-1.5h1.5V17ZM6.125 4.5V3h1.5v1.5Zm0 12.5v-1.5h1.5V17ZM4.5 17q-.625 0-1.062-.438Q3 16.125 3 15.5h1.5ZM3 4.5q0-.625.438-1.062Q3.875 3 4.5 3v1.5Z"/></svg>