<svg xmlns="http://www.w3.org/2000/svg" height="20" width="20"><path d="M9.25 17v-1.5h1.5V17Zm0-12.5V3h1.5v1.5ZM12.375 17v-1.5h1.5V17Zm0-12.5V3h1.5v1.5Zm1.75 6.25H9.75q-.312 0-.531-.219Q9 10.312 9 10q0-.312.219-.531.219-.219.531-.219h4.375l-.667-.667q-.229-.229-.218-.531.01-.302.239-.531.229-.229.531-.229.302 0 .532.229l1.937 1.958q.229.229.229.521 0 .292-.229.521l-1.958 1.958q-.229.229-.521.219-.292-.01-.521-.24-.229-.229-.229-.531 0-.302.229-.531ZM4.5 17q-.625 0-1.062-.438Q3 16.125 3 15.5v-11q0-.625.438-1.062Q3.875 3 4.5 3h1.625q.625 0 1.063.438.437.437.437 1.062v11q0 .625-.437 1.062Q6.75 17 6.125 17Zm11-12.5V3q.625 0 1.062.438Q17 3.875 17 4.5Zm0 12.5v-1.5H17q0 .625-.438 1.062Q16.125 17 15.5 17Z"/></svg>