<svg xmlns="http://www.w3.org/2000/svg" height="20" width="20"><path d="m11.542 12.458-1.959-1.937q-.229-.229-.229-.521 0-.292.229-.521l1.959-1.958q.229-.229.531-.229.302 0 .531.229.229.229.229.531 0 .302-.229.531l-.666.667h4.312q.312 0 .531.219Q17 9.688 17 10q0 .312-.219.531-.219.219-.531.219h-4.312l.666.667q.229.229.229.521 0 .291-.229.52-.229.23-.531.23-.302 0-.531-.23ZM3.75 17q-.312 0-.531-.219Q3 16.562 3 16.25V3.75q0-.312.219-.531Q3.438 3 3.75 3q.312 0 .531.219.219.219.219.531v12.5q0 .312-.219.531Q4.062 17 3.75 17Zm2.375 0v-1.5h1.5V17Zm0-12.5V3h1.5v1.5ZM9.25 17v-1.5h1.5V17Zm0-12.5V3h1.5v1.5ZM12.375 17v-1.5h1.5V17Zm0-12.5V3h1.5v1.5Zm3.125 0V3q.625 0 1.062.438Q17 3.875 17 4.5Zm0 12.5v-1.5H17q0 .625-.438 1.062Q16.125 17 15.5 17Z"/></svg>