<svg xmlns="http://www.w3.org/2000/svg" height="20" width="20"><path d="M14.25 6.75h-1.5q-.312 0-.531-.219Q12 6.312 12 6q0-.312.219-.531.219-.219.531-.219h1.5v-1.5q0-.312.219-.531Q14.688 3 15 3q.312 0 .531.219.219.219.219.531v1.5h1.5q.312 0 .531.219Q18 5.688 18 6q0 .312-.219.531-.219.219-.531.219h-1.5v1.5q0 .312-.219.531Q15.312 9 15 9q-.312 0-.531-.219-.219-.219-.219-.531ZM7 17q-1.667 0-2.833-1.167Q3 14.667 3 13q0-1 .458-1.875.459-.875 1.292-1.417V5.25q0-.938.656-1.594Q6.062 3 7 3q.938 0 1.594.656.656.656.656 1.594v4.458q.812.563 1.281 1.427Q11 12 11 13q0 1.667-1.167 2.833Q8.667 17 7 17Zm0-1.5q1.042 0 1.771-.729Q9.5 14.042 9.5 13q0-.604-.292-1.146-.291-.542-.812-.896L7.75 10.5V5.25q0-.312-.219-.531Q7.312 4.5 7 4.5q-.312 0-.531.219-.219.219-.219.531v5.25l-.667.438q-.5.354-.791.895Q4.5 12.375 4.5 13q0 1.042.729 1.771.729.729 1.771.729ZM7 13Z"/></svg>