<svg xmlns="http://www.w3.org/2000/svg" height="20" viewBox="0 -960 960 960" width="20"><path d="M264-144q-33 0-52.5-19.5T192-216v-528q0-33 19.5-52.5T264-816h432q33 0 52.5 19.5T768-744v528q0 33-19.5 52.5T696-144H264Zm0-72h432v-528H264v528Zm180-258-32-32q-11-11-25.67-11-14.66 0-25.33 11-11 11-11 25.5t11 25.5l94.14 94.14Q466-350 480.18-350T505-361l94-94q11-11 11-25.67 0-14.66-11-25.33-10.67-11-25.33-11-14.67 0-25.65 10.98L516-474v-114.07q0-15.27-10.29-25.6Q495.42-624 480.21-624t-25.71 10.33q-10.5 10.33-10.5 25.6V-474Zm252 258H264h432Z"/></svg>