<svg xmlns="http://www.w3.org/2000/svg" height="20" viewBox="0 -960 960 960" width="20"><path d="M187-144q-35 0-56-27.5T118-233l132-528q6-24 25.25-39.5T319-816h320.51Q665-816 684-800.5q19 15.5 25 39.5l132 528q8 34-13 61.5T772-144H187Zm1-72h584L640-744H320L188-216Zm256-270v114.07q0 15.27 10.29 25.6Q464.58-336 479.79-336t25.71-10.33q10.5-10.33 10.5-25.6V-486l32 32q11 11 25.67 11 14.66 0 25.33-11 11-11 11-25.5T599-505l-94.14-94.14Q494-610 479.82-610T455-599l-94 94q-11 11-10.5 25t11.02 25q11.48 11 26.12 11 14.65 0 25.3-10.72L444-486Zm328 270H188h584Z"/></svg>