<svg xmlns="http://www.w3.org/2000/svg" height="20" viewBox="0 -960 960 960" width="20"><path d="M407.789-288Q423-288 433.5-298.338 444-308.677 444-323.96v-215.757Q444-555 433.711-565.5q-10.29-10.5-25.5-10.5Q393-576 382.5-565.662 372-555.323 372-540.04v215.757Q372-309 382.289-298.5q10.29 10.5 25.5 10.5Zm144 0Q567-288 577.5-298.338 588-308.677 588-323.96v-215.757Q588-555 577.711-565.5q-10.29-10.5-25.5-10.5Q537-576 526.5-565.662 516-555.323 516-540.04v215.757Q516-309 526.289-298.5q10.29 10.5 25.5 10.5ZM396-816q-15.3 0-25.65-10.289-10.35-10.29-10.35-25.5Q360-867 370.35-877.5 380.7-888 396-888h168q15.3 0 25.65 10.289 10.35 10.29 10.35 25.5Q600-837 589.65-826.5 579.3-816 564-816H396Zm84 720q-70 0-130.92-26.507-60.919-26.507-106.493-72.08-45.573-45.574-72.08-106.493Q144-362 144-432q0-70 26.507-130.92 26.507-60.919 72.08-106.493 45.574-45.573 106.493-72.08Q410-768 479.56-768q58.28 0 111.86 19.5T691-694l27.282-27.282Q729-732 743-731.5t25 11.5q11 11 11 25t-11 25l-26 27q35 45 54.5 98.808Q816-490.384 816-431.856 816-362 789.493-301.08q-26.507 60.919-72.08 106.493-45.574 45.573-106.493 72.08Q550-96 480-96Zm0-72q110 0 187-77t77-187q0-110-77-187t-187-77q-110 0-187 77t-77 187q0 110 77 187t187 77Zm0-264Z"/></svg>