<svg xmlns="http://www.w3.org/2000/svg" height="20" viewBox="0 -960 960 960" width="20"><path d="M516.249-276Q546-276 567-297.15q21-21.15 21-50.85v-48q0-29.7-21.15-50.85Q545.7-468 516-468h-72v-48h107.737Q567-516 577.5-526.289q10.5-10.29 10.5-25.5Q588-567 577.666-577.5 567.332-588 552.055-588H408.276Q393-588 382.5-577.65T372-552v120q0 15.3 10.35 25.65Q392.7-396 408-396h108v48H408.263Q393-348 382.5-337.711q-10.5 10.29-10.5 25.5Q372-297 382.368-286.5q10.368 10.5 25.694 10.5h108.187ZM480-168q110 0 187-77t77-187q0-110-77-187t-187-77q-110 0-187 77t-77 187q0 110 77 187t187 77Zm0-264Zm-84-384q-15.3 0-25.65-10.289-10.35-10.29-10.35-25.5Q360-867 370.35-877.5 380.7-888 396-888h168q15.3 0 25.65 10.289 10.35 10.29 10.35 25.5Q600-837 589.65-826.5 579.3-816 564-816H396Zm84 720q-70 0-130.92-26.507-60.919-26.507-106.493-72.08-45.573-45.574-72.08-106.493Q144-362 144-432q0-70 26.507-130.92 26.507-60.919 72.08-106.493 45.574-45.573 106.493-72.08Q410-768 479.56-768q58.28 0 111.86 19.5T691-694l27.282-27.282Q729-732 743-731.5t25 11.5q11 11 11 25t-11 25l-26 27q35 45 54.5 98.808Q816-490.384 816-431.856 816-362 789.493-301.08q-26.507 60.919-72.08 106.493-45.574 45.573-106.493 72.08Q550-96 480-96Z"/></svg>