<svg xmlns="http://www.w3.org/2000/svg" height="20" viewBox="0 -960 960 960" width="20"><path d="M347-281.758V-609h-85.55q-13.767 0-23.108-8.609-9.342-8.608-9.342-22 0-13.391 9.293-22.891 9.294-9.5 22.99-9.5H499q13 0 22.5 9t9.5 22.696q0 13.695-9.5 22.5Q512-609 499-609h-85.744v327.242q0 13.758-9.743 23.258-9.744 9.5-23.385 9.5-13.641 0-23.384-9.5Q347-268 347-281.758ZM592-493h-24.324Q556-493 548-501.5q-8-8.5-8-20.5t8.185-20.5q8.185-8.5 19.741-8.5H592v-52.412q0-13.588 9.212-23.088Q610.424-636 624-636q14 0 23.5 9.5T657-603v52h44.211q11.789 0 20.289 8.5Q730-534 730-522t-8.5 20.5q-8.5 8.5-20.289 8.5H657v144.538Q657-326 667.5-313q10.5 13 27.5 13h12q10 0 17 8t7 21q0 11-8.5 19.5T701-241q-4 1-8 1h-8.899q-43.111 0-67.606-25.234Q592-290.469 592-335v-158Z"/></svg>