<svg xmlns="http://www.w3.org/2000/svg" height="20" viewBox="0 -960 960 960" width="20"><path d="M582-72q-21 0-41.5-8.5T505-104L329-280.059Q318-291 318-305q0-14 11-25l13-13q11-11 24.5-14.5t27.5.5l86 22v-301q0-15.3 10.289-25.65 10.29-10.35 25.5-10.35Q531-672 541.5-661.65 552-651.3 552-636v348q0 18-14 29t-31 6l-67-18 116 116q5 5 11.682 8T582-144h174.437q34.47 0 59.016-24.675Q840-193.35 840-228v-192q0-15.3 10.289-25.65 10.29-10.35 25.5-10.35Q891-456 901.5-445.65 912-435.3 912-420v192q0 65-45.5 110.5T756-72H582Zm54.211-288Q621-360 610.5-370.35 600-380.7 600-396v-120q0-15.3 10.289-25.65 10.29-10.35 25.5-10.35Q651-552 661.5-541.65 672-531.3 672-516v120q0 15.3-10.289 25.65-10.29 10.35-25.5 10.35Zm120 0Q741-360 730.5-370.325 720-380.65 720-395.912v-71.825Q720-483 730.289-493.5q10.29-10.5 25.5-10.5Q771-504 781.5-493.675 792-483.35 792-468.088v71.825Q792-381 781.711-370.5q-10.29 10.5-25.5 10.5ZM756-144H556h200Zm-588-48q-29.7 0-50.85-21.15Q96-234.3 96-264v-480q0-29.7 21.15-50.85Q138.3-816 168-816h576q29.7 0 50.85 21.15Q816-773.7 816-744v132q0 15.3-10.289 25.65-10.29 10.35-25.5 10.35Q765-576 754.5-586.35 744-596.7 744-612v-132H168v480h75q15.3 0 25.65 10.289 10.35 10.29 10.35 25.5Q279-213 268.65-202.5 258.3-192 243-192h-75Z"/></svg>