<svg xmlns="http://www.w3.org/2000/svg" height="20" width="20"><path d="M7.75 5q-.312 0-.531.219Q7 5.438 7 5.75v2.5q0 .312.219.531Q7.438 9 7.75 9q.312 0 .531-.219.219-.219.219-.531v-.688l1.417 1.417q.229.229.531.219.302-.01.531-.24.229-.229.229-.531 0-.302-.229-.531L9.562 6.5h.688q.312 0 .531-.219Q11 6.062 11 5.75q0-.312-.219-.531Q10.562 5 10.25 5Zm5 13q-.312 0-.531-.219Q12 17.562 12 17.25v-4.5q0-.312.219-.531.219-.219.531-.219h2.5q.312 0 .531.219.219.219.219.531v4.5q0 .312-.219.531-.219.219-.531.219ZM5.5 18q-.625 0-1.062-.438Q4 17.125 4 16.5v-13q0-.625.438-1.062Q4.875 2 5.5 2h9q.625 0 1.062.438Q16 2.875 16 3.5v6.25q0 .312-.219.531-.219.219-.531.219H12q-.625 0-1.062.438-.438.437-.438 1.062v5.25q0 .312-.219.531-.219.219-.531.219Z"/></svg>