<svg xmlns="http://www.w3.org/2000/svg" height="20" width="20"><path d="M3.5 16q-.625 0-1.062-.438Q2 15.125 2 14.5v-9q0-.625.438-1.062Q2.875 4 3.5 4h13q.625 0 1.062.438Q18 4.875 18 5.5v2.25q0 .312-.219.531-.219.219-.531.219H14q-.625 0-1.062.438Q12.5 9.375 12.5 10v5.25q0 .312-.219.531-.219.219-.531.219Zm11.25 0q-.312 0-.531-.219Q14 15.562 14 15.25v-4.5q0-.312.219-.531.219-.219.531-.219h2.5q.312 0 .531.219.219.219.219.531v4.5q0 .312-.219.531-.219.219-.531.219Zm-9-5q.312 0 .531-.219.219-.219.219-.531v-.688l1.417 1.417q.229.229.531.219.302-.01.531-.24.229-.229.229-.531 0-.302-.229-.531L7.562 8.5h.688q.312 0 .531-.219Q9 8.062 9 7.75q0-.312-.219-.531Q8.562 7 8.25 7h-2.5q-.312 0-.531.219Q5 7.438 5 7.75v2.5q0 .312.219.531.219.219.531.219Z"/></svg>