<svg xmlns="http://www.w3.org/2000/svg" height="20" width="20"><path d="m11.021 10.021-3.438 3.458q-.229.229-.521.229-.291 0-.52-.229-.23-.229-.23-.531 0-.302.23-.531l3.437-3.438H7.271q-.313 0-.531-.219-.219-.218-.219-.531 0-.312.219-.531.218-.219.531-.219h4.5q.312 0 .531.219.219.219.219.531v4.5q0 .313-.219.531-.219.219-.531.219-.313 0-.531-.219-.219-.218-.219-.531ZM10.75 4.5q-.312 0-.531-.219Q10 4.062 10 3.75q0-.312.219-.531Q10.438 3 10.75 3h4.75q.625 0 1.062.438Q17 3.875 17 4.5v4.75q0 .312-.219.531-.219.219-.531.219-.312 0-.531-.219-.219-.219-.219-.531V4.5ZM4.5 17q-.625 0-1.062-.438Q3 16.125 3 15.5V3.75q0-.312.219-.531Q3.438 3 3.75 3q.312 0 .531.219.219.219.219.531V15.5h11.75q.312 0 .531.219.219.219.219.531 0 .312-.219.531-.219.219-.531.219Z"/></svg>