<svg xmlns="http://www.w3.org/2000/svg" height="20" width="20"><path d="M4.5 3.5v13-13V7ZM6.75 12h2.125q.167-.417.375-.792.208-.375.5-.708h-3q-.312 0-.531.219Q6 10.938 6 11.25q0 .312.219.531.219.219.531.219Zm0 3h1.833q-.062-.375-.083-.75-.021-.375.021-.75H6.75q-.312 0-.531.219Q6 13.938 6 14.25q0 .312.219.531.219.219.531.219ZM4.5 18q-.625 0-1.062-.438Q3 17.125 3 16.5v-13q0-.625.438-1.062Q3.875 2 4.5 2h5.875q.292 0 .563.104.27.104.5.334l3.124 3.124q.23.23.334.501.104.27.104.562v1.958q-.375-.062-.75-.083-.375-.021-.75.021V7h-2.75q-.312 0-.531-.219Q10 6.562 10 6.25V3.5H4.5v13h4.604q.229.417.5.792.271.375.625.708Zm9.5-8q1.667 0 2.833 1.167Q18 12.333 18 14q0 1.667-1.167 2.833Q15.667 18 14 18q-1.667 0-2.833-1.167Q10 15.667 10 14q0-1.667 1.167-2.833Q12.333 10 14 10Zm0 6q.167 0 .292-.125.125-.125.125-.292 0-.166-.125-.291-.125-.125-.292-.125-.167 0-.292.125-.125.125-.125.291 0 .167.125.292.125.125.292.125Zm0-4q-.312 0-.594.146-.281.146-.448.416-.062.105-.01.219.052.115.177.157.104.041.208.01.105-.031.188-.136.104-.104.219-.177.114-.073.26-.073.229 0 .385.146.157.146.157.375 0 .167-.104.292-.105.125-.23.229-.125.104-.229.208-.104.105-.187.25-.063.126-.073.271-.011.146-.011.292 0 .125.094.219t.219.094q.125 0 .208-.094.083-.094.083-.24 0-.187.084-.344.083-.156.229-.281.208-.187.365-.406.156-.219.156-.511 0-.458-.334-.76Q14.479 12 14 12Z"/></svg>