<svg xmlns="http://www.w3.org/2000/svg" height="20" viewBox="0 -960 960 960" width="20"><path d="M468-192q-15.3 0-25.65-10.289-10.35-10.29-10.35-25.5Q432-243 442.35-253.5 452.7-264 468-264h312q15.3 0 25.65 10.289 10.35 10.29 10.35 25.5Q816-213 805.65-202.5 795.3-192 780-192H468Zm156.211-168Q609-360 598.5-370.35 588-380.7 588-396v-210l-32 32q-11 11-25.5 11T505-574q-11-11-11-25.5t11-25.5l94.138-94.138Q610-730 624.182-730T649-719l94 94q11 11 11 25t-11 25q-11 11-25.5 11T692-575l-32-31v210q0 15.3-10.289 25.65-10.29 10.35-25.5 10.35Zm-441.162 0Q169-360 161-371.732q-8-11.731-3-25.268l105.231-280.583Q266-686 273-691t16-5h22q9 0 16 5t9.803 13.365l106.525 281.623Q448-383 440.2-371.5T417.775-360Q409-360 402-365.5t-9.793-13.833L368.931-446H233l-25 67.659Q205-370 197.976-365q-7.025 5-14.927 5ZM250-495h100l-48-139h-3l-49 139Z"/></svg>