<svg xmlns="http://www.w3.org/2000/svg" height="20" viewBox="0 -960 960 960" width="20"><path d="M696.211-263Q681-263 670.5-273.35 660-283.7 660-299v-210l-32 32q-11 11-25.5 11T577-477q-11-11-11-25.5t11-25.5l94.138-94.138Q682-633 696.182-633T721-622l94 94q11 11 11 25t-11 25q-11 11-25.5 11T764-478l-32-31v210q0 15.3-10.289 25.65-10.29 10.35-25.5 10.35ZM258-373l-31.111 87.327Q223-275 214.31-269q-8.689 6-19.31 6-19 0-29.5-15.218t-3.5-31.909l135-361.309q3.886-10.8 13.6-17.182Q320.314-695 331-695h27.711q11.289 0 20.872 6.5Q389.167-682 393-671l136 362q6 17-4.5 31.5T496-263q-11 0-20.087-6.5T463-287l-30.407-86H258Zm22-62h130l-63.116-179H343l-63 179Z"/></svg>