<svg xmlns="http://www.w3.org/2000/svg" height="20" width="20"><path d="M10 17q-1.312 0-2.49-.354-1.177-.354-2.218-1-.292.166-.615.26T4 16q-1.042 0-1.771-.729Q1.5 14.542 1.5 13.5q0-.438.146-.833.146-.396.396-.709-.23-.479-.396-1.01-.167-.531-.271-1.073-.063-.313.135-.573.198-.26.511-.302.312-.042.562.177.25.219.313.531.083.354.187.698.105.344.25.677.167-.041.334-.062Q3.833 11 4 11q1.042 0 1.771.729.729.729.729 1.771 0 .271-.052.51-.052.24-.156.469.666.396 1.416.646.75.25 1.542.333V11q0-.208-.146-.354T8.75 10.5q-1.354 0-2.302-.948T5.5 7.25q0-1.354.948-2.302T8.75 4H9q0-.625.438-1.062Q9.875 2.5 10.5 2.5H14q.625 0 1.062.438.438.437.438 1.062h.75q.312 0 .531.219.219.219.219.531 0 .312-.219.531-.219.219-.531.219h-.75q0 .625-.438 1.062Q14.625 7 14 7h-3.5q-.625 0-1.062-.438Q9 6.125 9 5.5h-.25q-.729 0-1.24.51Q7 6.521 7 7.25t.51 1.24Q8.021 9 8.75 9q.833 0 1.417.583.583.584.583 1.417v4.458q1.708-.166 3.125-1.073 1.417-.906 2.292-2.323l-.084-.041q-.145-.063-.239-.177-.094-.115-.136-.25-.041-.136-.031-.282.011-.145.073-.291t.177-.24q.115-.093.261-.146.145-.052.291-.041.146.01.292.073l.041.041q.105-.25.178-.489.072-.24.114-.511.063-.312.302-.531.24-.219.552-.177.313.042.511.292.198.25.156.562-.063.417-.167.792-.104.375-.25.75l.209.104q.125.062.218.177.094.115.146.25.052.135.042.281-.011.146-.073.292t-.177.24q-.115.093-.261.145-.145.053-.291.042-.146-.01-.292-.073l-.167-.104q-1.145 1.938-3.156 3.094Q12.396 17 10 17Z"/></svg>