<svg xmlns="http://www.w3.org/2000/svg" height="20" viewBox="0 -960 960 960" width="20"><path d="M120-144q-29 0-50.5-21.5T48-216v-420q0-15.3 10.29-25.65Q68.58-672 83.79-672t25.71 10.35Q120-651.3 120-636v420h564q15.3 0 25.65 10.29Q720-195.42 720-180.21t-10.35 25.71Q699.3-144 684-144H120Zm730.5-490.35Q840-644.7 840-660v-84h-84q-15.3 0-25.65-10.29Q720-764.58 720-779.79t10.35-25.71Q740.7-816 756-816h84q29.7 0 50.85 21.15Q912-773.7 912-744v84q0 15.3-10.29 25.65Q891.42-624 876.21-624t-25.71-10.35Zm-648 0Q192-644.7 192-660v-84q0-29.7 21.15-50.85Q234.3-816 264-816h84q15.3 0 25.65 10.29Q384-795.42 384-780.21t-10.35 25.71Q363.3-744 348-744h-84v84q0 15.3-10.29 25.65Q243.42-624 228.21-624t-25.71-10.35ZM756-288q-15.3 0-25.65-10.29Q720-308.58 720-323.79t10.35-25.71Q740.7-360 756-360h84v-84q0-15.3 10.29-25.65Q860.58-480 875.79-480t25.71 10.35Q912-459.3 912-444v84q0 29.7-21.15 50.85Q869.7-288 840-288h-84Zm-492 0q-29.7 0-50.85-21.15Q192-330.3 192-360v-84q0-15.3 10.29-25.65Q212.58-480 227.79-480t25.71 10.35Q264-459.3 264-444v84h84q15.3 0 25.65 10.29Q384-339.42 384-324.21t-10.35 25.71Q363.3-288 348-288h-84Zm244-138.29 172.9-110.55q8.1-5.39 8.1-15.27 0-9.89-8.1-15.27L508-677.72q-9-6.28-18.5-1.03T480-663v222.16q0 10.84 9.5 15.84t18.5-1.29Z"/></svg>