<svg xmlns="http://www.w3.org/2000/svg" height="20" viewBox="0 -960 960 960" width="20"><path d="M324.211-288Q309-288 298.5-298.35 288-308.7 288-324v-276h-60q-15.3 0-25.65-10.289-10.35-10.29-10.35-25.5Q192-651 202.35-661.5 212.7-672 228-672h78q22.5 0 38.25 15.75T360-618v294q0 15.3-10.289 25.65-10.29 10.35-25.5 10.35Zm360 0Q669-288 658.5-298.35 648-308.7 648-324v-276h-60q-15.3 0-25.65-10.289-10.35-10.29-10.35-25.5Q552-651 562.35-661.5 572.7-672 588-672h78q22.5 0 38.25 15.75T720-618v294q0 15.3-10.289 25.65-10.29 10.35-25.5 10.35Zm-204-168Q465-456 454.5-466.289q-10.5-10.29-10.5-25.5Q444-507 454.289-517.5q10.29-10.5 25.5-10.5Q495-528 505.5-517.711q10.5 10.29 10.5 25.5Q516-477 505.711-466.5q-10.29 10.5-25.5 10.5Zm0 168Q465-288 454.5-298.289q-10.5-10.29-10.5-25.5Q444-339 454.289-349.5q10.29-10.5 25.5-10.5Q495-360 505.5-349.711q10.5 10.29 10.5 25.5Q516-309 505.711-298.5q-10.29 10.5-25.5 10.5Z"/></svg>