<svg xmlns="http://www.w3.org/2000/svg" height="20" viewBox="0 96 960 960" width="20"><path d="M763 960h-91q-15.3 0-25.65-10.289-10.35-10.29-10.35-25.5Q636 909 646.35 898.5 656.7 888 672 888h27v8L154 351h14v33q0 15.3-10.289 25.65-10.29 10.35-25.5 10.35Q117 420 106.5 409.65 96 399.3 96 384v-91l-15-15q-11-11-10.5-25T82 228q11-11 25-11t25.337 11.337l695.326 695.326Q839 935 839 949.182q0 14.182-11 24.818-10.667 11-25.333 11Q788 985 777 974l-14-14Zm101-192v90l-72-72v-18q0-15.3 10.289-25.65 10.29-10.35 25.5-10.35Q843 732 853.5 742.35 864 752.7 864 768ZM198 192h90q15.3 0 25.65 10.289 10.35 10.29 10.35 25.5Q324 243 313.65 253.5 303.3 264 288 264h-18l-72-72Zm630.211 228Q813 420 802.5 409.65 792 399.3 792 384V264H672q-15.3 0-25.65-10.289-10.35-10.29-10.35-25.5Q636 213 646.35 202.5 656.7 192 672 192h120q29.7 0 50.85 21.15Q864 234.3 864 264v120q0 15.3-10.289 25.65-10.29 10.35-25.5 10.35ZM168 960q-29.7 0-50.85-21.15Q96 917.7 96 888V768q0-15.3 10.289-25.65 10.29-10.35 25.5-10.35Q147 732 157.5 742.35 168 752.7 168 768v120h120q15.3 0 25.65 10.289 10.35 10.29 10.35 25.5Q324 939 313.65 949.5 303.3 960 288 960H168Zm376-422Zm-64 38Zm271 169L335 329l109-62q17.131-10 36.066-10Q499 257 516 267l216 124q17.1 9.884 26.55 26.507T768 453v246q0 12.65-4.636 24.15Q758.727 734.65 751 745ZM444 884 228 761q-17-11-26.5-27t-9.5-36V453q0-18.87 9.45-35.493T228 391l43-24 209 209 209 209-173 99q-17.131 10-36.066 10Q461 894 444 884Zm74-372Zm-74 84Zm126-32Zm-54 48ZM389 383l129 129 136-82-174-100-91 53Zm55 419V596L264 488v211l180 103Zm252-112V489l-126 75 126 126ZM516 802l121-69-121-121v190Z"/></svg>