<svg xmlns="http://www.w3.org/2000/svg" height="20" viewBox="0 96 960 960" width="20"><path d="M672 912q-10.2 0-17.1-6.9-6.9-6.9-6.9-17.1V744q0-10 7-17.5t17-6.5h24v-48q0-29.7 21.212-50.85 21.213-21.15 51-21.15Q798 600 819 621.15q21 21.15 21 50.85v48h24q10.2 0 17.1 6.9 6.9 6.9 6.9 17.1v144q0 10.2-6.9 17.1-6.9 6.9-17.1 6.9H672Zm60-192h72v-48q0-15.3-10.289-25.65-10.29-10.35-25.5-10.35Q753 636 742.5 646.35 732 656.7 732 672v48Zm-252-48q-40 0-68-28t-28-68q0-40 28-68t68-28q40 0 68 28t28 68q0 40-28 68t-68 28Zm0 192q-130.714 0-244.357-69T64 608q-4-7.529-6-15.529T56 576q0-8.471 2-16.471T64 544q58-118 171.643-187T480 288q135.345 0 247.172 70.5Q839 429 899 548H768q-35 0-65 8.5T648 582v-6q0-70-49-119t-119-49q-70 0-119 49t-49 119q0 70 49 119t119 49q26.54 0 51.27-8Q556 728 576 714v140q-23 5-47 7.5t-49 2.5Z"/></svg>