<svg xmlns="http://www.w3.org/2000/svg" height="20" viewBox="0 -960 960 960" width="20"><path d="M552-144q-10.2 0-17.1-6.9-6.9-6.9-6.9-17.1v-144q0-10.2 6.9-17.1 6.9-6.9 17.1-6.9h96q10.2 0 17.1 6.9 6.9 6.9 6.9 17.1v144q0 10.2-6.9 17.1-6.9 6.9-17.1 6.9h-96Zm24-48h48v-96h-48v96Zm168-48q-10.4 0-17.2-6.8-6.8-6.8-6.8-17.2 0-10.4 6.8-17.2 6.8-6.8 17.2-6.8h96q10.2 0 17.1 6.9 6.9 6.9 6.9 17.1v72q0 10.2-6.9 17.1-6.9 6.9-17.1 6.9h-72v24h72q10.4 0 17.2 6.8 6.8 6.8 6.8 17.2 0 10.4-6.8 17.2Q850.4-96 840-96h-96q-10.2 0-17.1-6.9-6.9-6.9-6.9-17.1v-72q0-10.2 6.9-17.1 6.9-6.9 17.1-6.9h72v-24h-72Zm-539.835 48Q149-192 110.5-231.375 72-270.75 72-327v-195q0-45 20-85.5t56-67.5l160-121q14-11 21-26.206T336-854v-22q0-15.3 10.289-25.65 10.29-10.35 25.5-10.35Q387-912 397.5-901.65 408-891.3 408-876v22q0 16.941 7 32.471 7 15.529 20.883 25.332L596-675q63 48 70.5 114t7.5 138q0 17-12 28t-29 11h-81q-29.7 0-50.85 21.15Q480-341.7 480-312v73q0 11-9.5 15.5T453-226q-21-20-33-46t-12-55v-401l-36-28-36 28v401q0 56-38.335 95.5t-93.5 39.5Z"/></svg>