<svg xmlns="http://www.w3.org/2000/svg" height="20" viewBox="0 -960 960 960" width="20"><path d="M204.165-192Q149-192 110.5-231.375 72-270.75 72-327v-195q0-45 20-85.5t56-67.5l160-121q14-11 21-26.206T336-854v-58h72v58q0 16.941 7 32.471 7 15.529 20.883 25.332L596-675q36 27 56 67.5t20 85.5v102q0 15.3-10.289 25.65-10.29 10.35-25.5 10.35Q621-384 610.5-394.35 600-404.7 600-420v-91q0-34.182-15-64.091Q570-605 543-625l-63-48v397q0 15.3-10.289 25.65-10.29 10.35-25.5 10.35Q429-240 418.5-250.35 408-260.7 408-276v-452l-36-28-36 28v401q0 56-38.335 95.5t-93.5 39.5ZM204-264q26 0 43-18.5t17-44.5v-346l-63 48q-27 20-42 49.909T144-511v184q0 25.594 17.213 44.297Q178.426-264 204-264Zm348 120q-10.2 0-17.1-6.9-6.9-6.9-6.9-17.1v-144q0-10.2 6.9-17.1 6.9-6.9 17.1-6.9h96q10.2 0 17.1 6.9 6.9 6.9 6.9 17.1v144q0 10.2-6.9 17.1-6.9 6.9-17.1 6.9h-96Zm24-48h48v-96h-48v96Zm168-48q-10.4 0-17.2-6.8-6.8-6.8-6.8-17.2 0-10.4 6.8-17.2 6.8-6.8 17.2-6.8h96q10.2 0 17.1 6.9 6.9 6.9 6.9 17.1v72q0 10.2-6.9 17.1-6.9 6.9-17.1 6.9h-72v24h72q10.4 0 17.2 6.8 6.8 6.8 6.8 17.2 0 10.4-6.8 17.2Q850.4-96 840-96h-96q-10.2 0-17.1-6.9-6.9-6.9-6.9-17.1v-72q0-10.2 6.9-17.1 6.9-6.9 17.1-6.9h72v-24h-72ZM204-469Zm336 0Z"/></svg>