<svg xmlns="http://www.w3.org/2000/svg" height="20" width="20"><path d="M6 12q.833 0 1.417-.583Q8 10.833 8 10q0-.833-.583-1.417Q6.833 8 6 8q-.833 0-1.417.583Q4 9.167 4 10q0 .833.583 1.417Q5.167 12 6 12Zm0 3q-2.083 0-3.542-1.458Q1 12.083 1 10q0-2.083 1.458-3.542Q3.917 5 6 5q1.5 0 2.74.812Q9.979 6.625 10.583 8H15v7h-1.25q-.312 0-.531-.219Q13 14.562 13 14.25V12h-2.417q-.604 1.375-1.843 2.188Q7.5 15 6 15Zm11.75 0q-.312 0-.531-.219Q17 14.562 17 14.25q0-.312.219-.531.219-.219.531-.219.312 0 .531.219.219.219.219.531 0 .312-.219.531-.219.219-.531.219Zm0-3q-.312 0-.531-.219Q17 11.562 17 11.25v-2.5q0-.312.219-.531Q17.438 8 17.75 8q.312 0 .531.219.219.219.219.531v2.5q0 .312-.219.531-.219.219-.531.219Z"/></svg>