<svg xmlns="http://www.w3.org/2000/svg" height="20" width="20"><path d="M15.5 15h-1.75q-.312 0-.531-.219Q13 14.562 13 14.25V12h-2.417q-.562 1.396-1.823 2.198Q7.5 15 6 15q-2.083 0-3.542-1.458Q1 12.083 1 10q0-2.083 1.458-3.542Q3.917 5 6 5q1.5 0 2.771.802T10.583 8H15.5v1.5h-6q-.292-1.292-1.25-2.146Q7.292 6.5 6 6.5q-1.458 0-2.479 1.021Q2.5 8.542 2.5 10q0 1.458 1.021 2.479Q4.542 13.5 6 13.5q1.292 0 2.25-.854T9.5 10.5h5v3h1ZM6 12q.833 0 1.417-.583Q8 10.833 8 10q0-.833-.583-1.417Q6.833 8 6 8q-.833 0-1.417.583Q4 9.167 4 10q0 .833.583 1.417Q5.167 12 6 12Zm0-2Zm11.75 5q-.312 0-.531-.219Q17 14.562 17 14.25q0-.312.219-.531.219-.219.531-.219.312 0 .531.219.219.219.219.531 0 .312-.219.531-.219.219-.531.219Zm0-3q-.312 0-.531-.219Q17 11.562 17 11.25v-2.5q0-.312.219-.531Q17.438 8 17.75 8q.312 0 .531.219.219.219.219.531v2.5q0 .312-.219.531-.219.219-.531.219Z"/></svg>