<svg xmlns="http://www.w3.org/2000/svg" height="20" viewBox="0 96 960 960" width="20"><path d="M672.211 420Q657 420 646.5 409.711q-10.5-10.29-10.5-25.5Q636 369 646.289 358.5q10.29-10.5 25.5-10.5Q687 348 697.5 358.289q10.5 10.29 10.5 25.5Q708 399 697.711 409.5q-10.29 10.5-25.5 10.5ZM708 672H396q-11.375 0-16.188-10Q375 652 382 643l66-88q5.25-8 14-8t14 8l52 69 76-101q5.25-8 14-8t14 8l90 120q7 9 2.188 19-4.813 10-16.188 10ZM168 960q-29.7 0-50.85-21.15Q96 917.7 96 888V372q0-15.3 10.289-25.65 10.29-10.35 25.5-10.35Q147 336 157.5 346.35 168 356.7 168 372v516h516q15.3 0 25.65 10.289 10.35 10.29 10.35 25.5Q720 939 709.65 949.5 699.3 960 684 960H168Zm72-696q0-29.7 21.15-50.85Q282.3 192 312 192h168q15.3 0 25.65 10.289 10.35 10.29 10.35 25.5Q516 243 505.65 253.5 495.3 264 480 264H312v183q0 15.3-10.289 25.65-10.29 10.35-25.5 10.35Q261 483 250.5 472.65 240 462.3 240 447V264Zm72 552q-29.7 0-50.85-21.15Q240 773.7 240 744V591q0-15.3 10.289-25.65 10.29-10.35 25.5-10.35Q291 555 301.5 565.35 312 575.7 312 591v153h168q15.3 0 25.65 10.289 10.35 10.29 10.35 25.5Q516 795 505.65 805.5 495.3 816 480 816H312Zm480 0H624q-15.3 0-25.65-10.289-10.35-10.29-10.35-25.5Q588 765 598.35 754.5 608.7 744 624 744h168V591q0-15.3 10.289-25.65 10.29-10.35 25.5-10.35Q843 555 853.5 565.35 864 575.7 864 591v153q0 29.7-21.15 50.85Q821.7 816 792 816Zm72-552v183q0 15.3-10.289 25.65-10.29 10.35-25.5 10.35Q813 483 802.5 472.65 792 462.3 792 447V264H624q-15.3 0-25.65-10.289-10.35-10.29-10.35-25.5Q588 213 598.35 202.5 608.7 192 624 192h168q29.7 0 50.85 21.15Q864 234.3 864 264Z"/></svg>