<svg xmlns="http://www.w3.org/2000/svg" height="20" viewBox="0 -960 960 960" width="20"><path d="M250-192q-6 20-12.5 38.5T223-116q-5 14-18.5 18t-27.5-2q-14-6-18.5-19.5t.5-27.5q32-79 44.5-163T216-480q0-85-12-169t-44-162q-6-14-1.5-28t18.5-20q14-6 27.5-1.5T223-842q8 18 15 36.5t12 37.5h86q60 0 102 42t42 102v288q0 60-42 102t-102 42h-86Zm463-252 33 33q11 11 10.5 25T745-361q-11 11-25 11t-25-11l-94-94q-11-11-11-25t11-25l94-94q11-11 25-10.5t25 11.5q11 11 11 25t-11 25l-32 32h115q15 0 25.5 10.5T864-480q0 15-10.5 25.5T828-444H713Z"/></svg>