<svg xmlns="http://www.w3.org/2000/svg" height="20" width="20"><path d="M15.25 14q-.312 0-.531-.219-.219-.219-.219-.531 0-.312.219-.531.219-.219.531-.219.312 0 .531.219.219.219.219.531 0 .312-.219.531-.219.219-.531.219Zm1-3h-1q-.312 0-.531-.219-.219-.219-.219-.531 0-.312.219-.531.219-.219.531-.219h1q.312 0 .531.219.219.219.219.531 0 .312-.219.531-.219.219-.531.219Zm1-3h-2q-.312 0-.531-.219-.219-.219-.219-.531 0-.312.219-.531.219-.219.531-.219h2q.312 0 .531.219.219.219.219.531 0 .312-.219.531Q17.562 8 17.25 8ZM6.583 18q-.271 0-.468-.156-.198-.156-.261-.406L5 14q-.917-.688-1.458-1.719Q3 11.25 3 10q0-1.25.552-2.281Q4.104 6.688 5.042 6l.812-3.417q.063-.25.261-.416Q6.312 2 6.583 2h2.834q.271 0 .468.167.198.166.261.416L10.958 6q.938.688 1.49 1.719Q13 8.75 13 10q0 1.25-.542 2.281Q11.917 13.312 11 14l-.854 3.438q-.063.25-.261.406-.197.156-.468.156ZM8 13.5q1.458 0 2.479-1.021Q11.5 11.458 11.5 10q0-1.458-1.021-2.479Q9.458 6.5 8 6.5q-1.458 0-2.479 1.021Q4.5 8.542 4.5 10q0 1.458 1.021 2.479Q6.542 13.5 8 13.5ZM6.771 5.167q.291-.084.604-.125Q7.688 5 8 5t.615.042q.302.041.593.125L8.812 3.5H7.188ZM7.188 16.5h1.624l.438-1.667q-.292.084-.604.125Q8.333 15 8 15t-.635-.042q-.303-.041-.594-.125Zm-.417-13h2.437-2.437Zm.417 13h-.417H9.25h-.438Z"/></svg>