<svg xmlns="http://www.w3.org/2000/svg" height="20" width="20"><path d="M16.25 10q-.312 0-.531-.219-.219-.219-.219-.531V3.5q0-.312.219-.531.219-.219.531-.219.312 0 .531.219.219.219.219.531v5.75q0 .312-.219.531-.219.219-.531.219Zm-9.083 8q-.521 0-.927-.323-.407-.323-.532-.823L5 14q-.917-.688-1.458-1.719Q3 11.25 3 10q0-1.25.552-2.281Q4.104 6.688 5.042 6l.687-2.854q.125-.5.531-.823Q6.667 2 7.188 2h1.624q.521 0 .928.323.406.323.531.823L10.958 6q.938.688 1.49 1.719Q13 8.75 13 10q0 1.25-.542 2.281Q11.917 13.312 11 14l-.708 2.854q-.125.5-.532.823-.406.323-.927.323ZM8 13.5q1.458 0 2.479-1.021Q11.5 11.458 11.5 10q0-1.458-1.021-2.479Q9.458 6.5 8 6.5q-1.458 0-2.479 1.021Q4.5 8.542 4.5 10q0 1.458 1.021 2.479Q6.542 13.5 8 13.5ZM6.771 5.167q.291-.084.604-.125Q7.688 5 8 5t.615.042q.302.041.593.125L8.812 3.5H7.188ZM7.188 16.5h1.624l.438-1.667q-.292.084-.604.125Q8.333 15 8 15t-.635-.042q-.303-.041-.594-.125Zm-.417-13h2.437-2.437Zm.417 13h-.417H9.25h-.438Z"/></svg>