<svg xmlns="http://www.w3.org/2000/svg" height="20" width="20"><path d="M9.5 7.25q-1.125 0-2.188.365-1.062.364-1.958 1.073l.958 7.812h7.376L14.729 8h-.646q-.666 0-1.25-.115-.583-.114-1.458-.364-.458-.146-.927-.209-.469-.062-.948-.062ZM4.708 3.5 5.146 7q.979-.604 2.083-.927 1.104-.323 2.25-.323.604 0 1.188.094.583.094 1.145.26.646.188 1.219.292.573.104 1.052.104h.834l.375-3Zm4.792 13h4.188-7.376H9.5ZM6.333 18q-.562 0-.989-.375-.427-.375-.511-.937L3.104 2.833q-.042-.333.177-.583Q3.5 2 3.854 2h12.292q.354 0 .573.25.219.25.177.583l-1.729 13.855q-.084.562-.511.937t-.989.375Z"/></svg>