<svg xmlns="http://www.w3.org/2000/svg" height="20" width="20"><path d="M6 18q-.625 0-1.062-.438Q4.5 17.125 4.5 16.5V15q0-.625.438-1.062Q5.375 13.5 6 13.5V9q-.625 0-1.062-.438Q4.5 8.125 4.5 7.5V6q0-.625.438-1.062Q5.375 4.5 6 4.5h2.5v-1h-.25q-.312 0-.531-.219Q7.5 3.062 7.5 2.75q0-.312.219-.531Q7.938 2 8.25 2h3.5q.312 0 .531.219.219.219.219.531 0 .312-.219.531-.219.219-.531.219h-.25v1H14q.625 0 1.062.438.438.437.438 1.062v1.5q0 .625-.438 1.062Q14.625 9 14 9v4.5q.625 0 1.062.438.438.437.438 1.062v1.5q0 .625-.438 1.062Q14.625 18 14 18Zm0-1.5h8V15h-1.5V9h-.75q-.312 0-.531-.219Q11 8.562 11 8.25q0-.312.219-.531.219-.219.531-.219H14V6H6v1.5h1.5v6h.75q.312 0 .531.219.219.219.219.531 0 .312-.219.531Q8.562 15 8.25 15H6v1.5Zm4-5.25Z"/></svg>