<svg xmlns="http://www.w3.org/2000/svg" height="20" width="20"><path d="m5.792 12.354.52 4.146h7.376l.562-4.5h-.167q-.666 0-1.25-.115-.583-.114-1.458-.364-.458-.146-.927-.209-.469-.062-.948-.062-1 0-1.938.281-.937.281-1.77.823Zm-.188-1.625Q6.5 10.25 7.479 10t2-.25q.604 0 1.188.094.583.094 1.145.26.646.188 1.219.292.573.104 1.052.104h.355l.854-7H4.708ZM6.333 18q-.562 0-.989-.375-.427-.375-.511-.937L3.104 2.833q-.042-.333.177-.583Q3.5 2 3.854 2h12.292q.354 0 .573.25.219.25.177.583l-1.729 13.855q-.084.562-.511.937t-.989.375Zm-.021-1.5H13.688 6.312Z"/></svg>