<svg xmlns="http://www.w3.org/2000/svg" height="20" viewBox="0 96 960 960" width="20"><path d="m480 995-35-34q-5-5-5-13t5-13l35-34q5-5 12.5-5t12.5 5l35 34q5 5 5 13t-5 13l-35 34q-5 5-12.5 5t-12.5-5Zm-138-60-17-17q-5-5-5-12.5t5-12.5l88-88q5-5 12.5-5t12.5 5l17 17q5 5 5 12.5t-5 12.5l-88 88q-5 5-12.5 5t-12.5-5Zm258-60-35-34q-5-5-5-13t5-13l35-34q5-5 12.5-5t12.5 5l35 34q5 5 5 13t-5 13l-35 34q-5 5-12.5 5t-12.5-5Zm-348 0-35-34q-5-5-5-13t5-13l35-34q5-5 12.5-5t12.5 5l35 34q5 5 5 13t-5 13l-35 34q-5 5-12.5 5t-12.5-5Zm43-155q-85 0-142-61.5T96 511q0-77 52.5-132.5T278 313q30-56 84.5-88.5T480 192q85 0 148 54.5T705 384q67 2 113 52t46 116q0 70-49 119t-119 49H295Z"/></svg>