<svg xmlns="http://www.w3.org/2000/svg" height="20" viewBox="0 96 960 960" width="20"><path d="M479.788 960Q450 960 429 938.85 408 917.7 408 888h144q0 30-21.212 51-21.213 21-51 21ZM240 768V528q0-85.741 53.5-152.37Q347 309 432 293v-53q0-20 14-34t34-14q20 0 34 14t14 34v53q39 8 72.5 27t58.5 47q-20 5-39.461 11.234Q600.079 384.469 581 393q-21-16-46.5-24.5T480 360q-70 0-119 49t-49 119v240h420q15.3 0 25.65 10.289 10.35 10.29 10.35 25.5Q768 819 757.656 829.5 747.311 840 732.019 840H228.292Q213 840 202.5 829.711q-10.5-10.29-10.5-25.5Q192 789 202.35 778.5 212.7 768 228 768h12Zm240-204Zm240.111-84q-42.889 0-81.116 14.464Q600.768 508.929 570 534q-8 7-18 7.5t-18-7.5q-8-8-7-18t9-17q38.069-31.639 84.749-49.319Q667.429 432 720 432q52.832 0 99.287 17.417Q865.743 466.833 904 498q8 7 9 17t-7 18q-8 8-18 7.5t-18-7.5q-31-25-69-39t-80.889-14ZM720 576q-22.636 0-43.656 7.043Q655.325 590.087 637 603q-8 6-18.5 6t-17.5-7q-7-7-7-17t8-16q25-20 54.736-30.5 29.736-10.5 63-10.5Q753 528 783 538t54 29q8 6 9 16t-7 18q-7 7-17.5 7t-18.5-6q-17-13-38.254-19.5Q743.492 576 720 576Zm0 144q-20.4 0-34.2-13.8Q672 692.4 672 672q0-20.4 13.8-34.2Q699.6 624 720 624q20.4 0 34.2 13.8Q768 651.6 768 672q0 20.4-13.8 34.2Q740.4 720 720 720Z"/></svg>