<svg xmlns="http://www.w3.org/2000/svg" height="20" viewBox="0 96 960 960" width="20"><path d="M576 818q0 31 13 58.5t35 49.5v-36q0-10.4 6.8-17.2 6.8-6.8 17.2-6.8 10.4 0 17.2 6.8 6.8 6.8 6.8 17.2v84q0 15.3-10.35 25.65Q651.3 1010 636 1010h-84q-10.4 0-17.2-6.8-6.8-6.8-6.8-17.2 0-10.4 6.8-17.2 6.8-6.8 17.2-6.8h41q-31-28-48-64.956-17-36.955-17-79.044 0-62.506 35.5-111.753T655 637q7-2 12 4.4t5 16q0 9.6-4 18.1-4 8.5-12 13.5-35 18-57.5 52.115Q576 775.229 576 818Zm288-2q0-31-13-58.5T816 708v36q0 10.4-6.8 17.2-6.8 6.8-17.2 6.8-10.4 0-17.2-6.8-6.8-6.8-6.8-17.2v-84q0-15.3 10.35-25.65Q788.7 624 804 624h84q10.4 0 17.2 6.8 6.8 6.8 6.8 17.2 0 10.4-6.8 17.2-6.8 6.8-17.2 6.8h-41q31 28 48 64.956 17 36.955 17 79.044 0 63.453-35.5 112.226Q841 977 785 997q-7 2-12-4.4t-5-16q0-9.6 3.375-18.563T783 945q37-18 59-52.624T864 816Zm-599.559 48Q234 864 213 842.881q-21-21.118-21-50.774V527l-34.815 27.219Q145 563 130 561q-15-2-24-14t-7-27q2-15 13.713-23.974l323.465-246.771Q456 234 480.234 234q24.234 0 43.98 15.255l323.118 246.771Q859 505 861 520t-7 27.444Q845 559 830.067 561q-14.934 2-27.067-7l-35-27v31q-11-2-23.5-3t-24.5-1q-103 0-178 68.5T457 792q-2 18-1 36t4 36H264.441Z"/></svg>