<svg xmlns="http://www.w3.org/2000/svg" height="20" viewBox="0 96 960 960" width="20"><path d="M168 840V408v432Zm240-504h144v-72H408v72ZM168 912q-29.7 0-50.85-21.15Q96 869.7 96 840V408q0-29.7 21.15-50.85Q138.3 336 168 336h168v-72.212Q336 234 357.176 213q21.176-21 50.912-21h144.176Q582 192 603 213.15q21 21.15 21 50.85v72h168q29.7 0 50.85 21.15Q864 378.3 864 408v187q-17-11-34.5-19.5T792 562V408H168v432h289q2 18.934 6 36.967Q467 895 474 912H168Zm528-92-33-33q-7.364-7-17.182-7Q636 780 629 787q-7 7-7 16.818 0 9.818 7 17.182l77.918 77.918Q712 904 720 904t13.082-5.082L811 821q7-7.364 7-17.182Q818 794 811 787q-7-7-16.818-7-9.818 0-17.182 7l-33 33v-76q0-9.6-7.2-16.8-7.2-7.2-16.8-7.2-9.6 0-16.8 7.2-7.2 7.2-7.2 16.8v76Zm23.774 188Q640 1008 584 951.774t-56-136Q528 736 584.226 680t136-56Q800 624 856 680.226t56 136Q912 896 855.774 952t-136 56Z"/></svg>