<svg xmlns="http://www.w3.org/2000/svg" height="20" width="20"><path d="M5.646 14H1.75q-.312 0-.531-.219Q1 13.562 1 13.25q0-.312.219-.531.219-.219.531-.219h3.875q.354 0 .656.146.302.146.531.416l2.084 2.605-1.084-2.063q-.187-.375.032-.739.218-.365.635-.365h7.771q.312 0 .531.219.219.219.219.531 0 .312-.219.531-.219.219-.531.219h-6.5l.375.646q.354.666.25 1.396-.104.729-.646 1.27l-.208.209q-.229.25-.552.229-.323-.021-.552-.292ZM1 7.75q0-.312.219-.531Q1.438 7 1.75 7h3l.958-1.188q.334-.395.782-.604Q6.938 5 7.438 5h7.791q.313 0 .531.219.219.219.219.531 0 .312-.219.531-.218.219-.531.219H7.438q-.167 0-.323.062-.157.063-.261.209l-.937 1.167q-.229.27-.521.416-.292.146-.646.146h-3q-.312 0-.531-.219Q1 8.062 1 7.75Zm0 3.333Zm17.25.417h-5.5q-.312 0-.531-.219Q12 11.062 12 10.75q0-.312.219-.531.219-.219.531-.219h5.5q.312 0 .531.219.219.219.219.531 0 .312-.219.531-.219.219-.531.219Zm-1-2.5h-4.5q-.312 0-.531-.219Q12 8.562 12 8.25q0-.312.219-.531.219-.219.531-.219h4.5q.312 0 .531.219.219.219.219.531 0 .312-.219.531Q17.562 9 17.25 9Z"/></svg>