<svg xmlns="http://www.w3.org/2000/svg" height="20" width="20"><path d="M5.646 14H1.75q-.312 0-.531-.219Q1 13.562 1 13.25v-5.5q0-.312.219-.531Q1.438 7 1.75 7h3l.958-1.188q.334-.395.782-.604Q6.938 5 7.438 5h7.791q.313 0 .531.219.219.219.219.531 0 .312-.219.531-.218.219-.531.219H12v1h5.25q.312 0 .531.219.219.219.219.531 0 .312-.219.531Q17.562 9 17.25 9H12v1h6.25q.312 0 .531.219.219.219.219.531 0 .312-.219.531-.219.219-.531.219H12v1h4.25q.312 0 .531.219.219.219.219.531 0 .312-.219.531-.219.219-.531.219h-6.5l.375.646q.354.666.25 1.396-.104.729-.646 1.27l-.208.209q-.229.25-.552.229-.323-.021-.552-.292Z"/></svg>