<svg xmlns="http://www.w3.org/2000/svg" height="20" viewBox="0 -960 960 960" width="20"><path d="M489-300v-360h120.28Q697-660 743-614t46 134q0 88-46.5 134t-133.28 46H489Zm67-64h50.45Q667-364 694-391.5t27-88.5q0-61-27-88.5T606.45-596H556v232Zm-259 73q-53.68 0-87.34-27Q176-345 171-397l65-13q4.61 25.73 19.8 40.36Q271-355 296.81-355q24.93 0 40.06-13.5Q352-382 352-407.47q0-24.53-16.17-39.03Q319.65-461 290-461h-28v-58h25.5q25.5 0 40.5-12t15-33.5q0-21.5-13.36-33.5-13.35-12-35.46-12-21.18 0-34.68 11.5T241-567l-63-7.08Q186-621 216.38-645q30.37-24 78.62-24 49.68 0 80.84 24.71Q407-619.58 407-571.96 407-545 395-528t-32 31.78v4.22q27 11 41.5 34.5T419-403q0 54.16-33.64 83.08T297-291Z"/></svg>