<svg xmlns="http://www.w3.org/2000/svg" height="20" width="20"><path d="M9.25 3.708V1h1.5v2.708ZM5.958 4.75 3.604 2.396l1.042-1.042L7 3.708ZM5.5 14h2.25q.312 0 .531-.219.219-.219.219-.531 0-.312-.219-.531-.219-.219-.531-.219H5.5Zm6.75 0h2.25v-1.5h-2.25q-.312 0-.531.219-.219.219-.219.531 0 .312.219.531.219.219.531.219Zm2.188-5.25 2.687-2.812-.729-.688-1.979 2.062-.834-.812-.708.708ZM15 11q-1.667 0-2.833-1.167Q11 8.667 11 7q0-1.667 1.167-2.833Q13.333 3 15 3q1.667 0 2.833 1.167Q19 5.333 19 7q0 1.667-1.167 2.833Q16.667 11 15 11ZM3.5 18q-.208 0-.354-.146T3 17.5V11l1.625-4.062q.167-.417.542-.678.375-.26.854-.26H8V4.5h2.104q-.292.562-.448 1.198Q9.5 6.333 9.5 7v.25q0 .125.021.25h-3.5L5.062 10h5.334q.771 1.188 1.979 1.844 1.208.656 2.625.656.521 0 1.021-.094.5-.094.979-.281V17.5q0 .208-.146.354T16.5 18h-1q-.208 0-.354-.146T15 17.5v-1H5v1q0 .208-.146.354T4.5 18Z"/></svg>