<svg xmlns="http://www.w3.org/2000/svg" height="20" width="20"><path d="M9.25 3.708V1h1.5v2.708ZM5.958 4.75 3.604 2.396l1.042-1.042L7 3.708ZM3.5 18q-.208 0-.354-.146T3 17.5V11l1.625-4.062q.167-.417.542-.678.375-.26.854-.26H8V4.5h2.104q-.292.562-.448 1.198Q9.5 6.333 9.5 7v.25q0 .125.021.25h-3.5L5.062 10h5.334q.292.438.656.823.365.385.781.677H4.5V15h11v-2.521q.396-.041.771-.125.375-.083.729-.229V17.5q0 .208-.146.354T16.5 18h-1q-.208 0-.354-.146T15 17.5v-1H5v1q0 .208-.146.354T4.5 18Zm2-4h2.25q.312 0 .531-.219.219-.219.219-.531 0-.312-.219-.531-.219-.219-.531-.219H5.5Zm9 0v-1.5h-2.25q-.312 0-.531.219-.219.219-.219.531 0 .312.219.531.219.219.531.219Zm-10-2.5V15v-3.5Zm9.938-2.75 2.687-2.812-.729-.688-1.979 2.062-.834-.812-.708.708ZM15 3q1.667 0 2.833 1.167Q19 5.333 19 7q0 1.667-1.167 2.833Q16.667 11 15 11q-1.667 0-2.833-1.167Q11 8.667 11 7q0-1.667 1.167-2.833Q13.333 3 15 3Z"/></svg>