<svg xmlns="http://www.w3.org/2000/svg" height="20" viewBox="0 -960 960 960" width="20"><path d="M216-312v96-528 432Zm432 168H312q-70 0-119-49t-49-119v-336q0-70 49-119t119-49h192v72H312q-39.6 0-67.8 28.2Q216-687.6 216-648v336q0 39.6 28.2 67.8Q272.4-216 312-216h336q39.6 0 67.8-28.2Q744-272.4 744-312v-192h72v192q0 70-49 119t-119 49Zm96-432q-6 0-8-6-14-57-55.5-98.5t-98.86-55.72Q576-738 576-744q0-7 6-8 57-14 98.5-55.5t55.72-98.86Q738-912 744.5-912q6.5 0 7.5 6 14.84 56.59 56.13 97.87Q849.41-766.84 906-752q6 1 6 8 0 6-6 8-57 14-98.5 55.5t-55.62 98.86Q751-576 744-576Z"/></svg>