<svg xmlns="http://www.w3.org/2000/svg" height="20" width="20"><path d="M8.958 16.042Q9.833 16.042 10.438 15.438Q11.042 14.833 11.042 13.958V10.479H13.5V8.729H10.125V12.167Q9.833 12.021 9.573 11.948Q9.312 11.875 8.958 11.875Q8.083 11.875 7.479 12.479Q6.875 13.083 6.875 13.958Q6.875 14.833 7.479 15.438Q8.083 16.042 8.958 16.042ZM5.083 18.333Q4.354 18.333 3.844 17.823Q3.333 17.312 3.333 16.583V3.417Q3.333 2.688 3.844 2.177Q4.354 1.667 5.083 1.667H11.583L16.667 6.75V16.583Q16.667 17.312 16.156 17.823Q15.646 18.333 14.917 18.333ZM10.708 7.625H14.917L10.708 3.417Z"/></svg>