<svg xmlns="http://www.w3.org/2000/svg" height="20" width="20"><path d="M7.75 12.5v-5h1.5v5Zm3 0v-5h1.5v5ZM10 18.958q-2.271 0-4.24-1.083-1.968-1.083-3.26-2.958v2.291H1v-4.75h4.75v1.5H3.688q1.062 1.625 2.718 2.563 1.656.937 3.594.937 2.417 0 4.354-1.406 1.938-1.406 2.75-3.677l1.458.333q-.895 2.813-3.25 4.532-2.354 1.718-5.312 1.718Zm-8.958-9.75q.125-1.396.645-2.687.521-1.292 1.459-2.354l1.062 1.062q-.687.875-1.125 1.875-.437 1-.541 2.104ZM5.25 4.167 4.208 3.104q1.063-.937 2.354-1.469Q7.854 1.104 9.25 1v1.5q-1.104.125-2.115.562-1.01.438-1.885 1.105Zm9.5 0q-.875-.688-1.885-1.115-1.011-.427-2.115-.552V1q1.417.104 2.708.625 1.292.521 2.354 1.458Zm2.708 5.041q-.125-1.104-.552-2.104-.427-1-1.114-1.875l1.083-1.083q.917 1.062 1.458 2.354.542 1.292.646 2.708Z"/></svg>