<svg xmlns="http://www.w3.org/2000/svg" height="20" width="20"><path d="M3.5 18q-.625 0-1.062-.438Q2 17.125 2 16.5v-9q0-.625.438-1.062Q2.875 6 3.5 6H6v1.5H3.5v9h13v-9H14V6h2.5q.625 0 1.062.438Q18 6.875 18 7.5v9q0 .625-.438 1.062Q17.125 18 16.5 18ZM6 13q-.417 0-.708-.292Q5 12.417 5 12t.292-.708Q5.583 11 6 11t.708.292Q7 11.583 7 12t-.292.708Q6.417 13 6 13Zm-1.5 2.5V15q0-.625.448-1.062Q5.396 13.5 6 13.5q.292 0 .583.135.292.136.479.365l.917 1.021q.104.125.229.25t.292.229ZM7.75 13v-.542q0-.666.625-1.062T10 11q1 0 1.625.396t.625 1.062V13Zm7.75 2.5h-4q.167-.104.302-.24.136-.135.24-.26l.916-1.021q.188-.229.49-.354.302-.125.594-.125.604 0 1.031.438.427.437.427 1.062Zm-5.5-5q-.417 0-.708-.292Q9 9.917 9 9.5t.292-.708Q9.583 8.5 10 8.5t.708.292Q11 9.083 11 9.5t-.292.708q-.291.292-.708.292Zm4 2.5q-.417 0-.708-.292Q13 12.417 13 12t.292-.708Q13.583 11 14 11t.708.292Q15 11.583 15 12t-.292.708Q14.417 13 14 13ZM6.854 7q.084-.292.115-.51Q7 6.271 7 6.083q0-.333-.146-.666-.146-.334-.479-.709-.479-.541-.677-1.052-.198-.51-.198-1.114 0-.23.031-.49t.073-.552h1.021q-.083.417-.104.635-.021.219-.021.407 0 .416.146.76.146.344.5.76.479.563.666 1.053Q8 5.604 8 6.146q0 .229-.021.427-.021.198-.083.427Zm2.5 0q.084-.292.115-.51.031-.219.031-.407 0-.333-.146-.666-.146-.334-.479-.709-.479-.541-.677-1.052Q8 3.146 8 2.542q0-.23.031-.49t.073-.552h1.021q-.083.417-.104.635Q9 2.354 9 2.542q0 .416.146.76.146.344.5.76.479.563.677 1.053.198.489.198 1.031 0 .229-.031.427-.032.198-.094.427Zm2.479 0q.084-.292.115-.51.031-.219.031-.407 0-.333-.146-.666-.145-.334-.479-.709-.479-.541-.677-1.052-.198-.51-.198-1.114 0-.23.031-.49.032-.26.073-.552h1.021q-.083.417-.104.635-.021.219-.021.407 0 .416.146.76.146.344.5.76.479.563.677 1.053.198.489.198 1.031 0 .229-.031.427-.031.198-.094.427Z"/></svg>