<svg xmlns="http://www.w3.org/2000/svg" height="20" width="20"><path d="M3.5 14.5h1.729v-2.479h1.5V14.5h1.709v-2.479h1.5V14.5h1.729v-2.479h1.5V14.5H16.5V9.271q-.667.354-1.521.541-.854.188-1.729.188-.729 0-1.458-.125-.73-.125-1.334-.375H3.5ZM6 8h2.708q-.104-.229-.156-.469Q8.5 7.292 8.5 7v-.25q0-.125.042-.25H6Zm7.25.5q1.167 0 2.208-.25Q16.5 8 16.5 7t-1.042-1.25q-1.041-.25-2.208-.25-1.167 0-2.208.25Q10 6 10 7t1.042 1.25q1.041.25 2.208.25ZM2 16V8h2.5V5h5.062q.688-.521 1.667-.76Q12.208 4 13.25 4q1.771 0 3.26.719Q18 5.438 18 7v9Zm1.5-1.5H16.5h-13Z"/></svg>