<svg xmlns="http://www.w3.org/2000/svg" height="20" width="20"><path d="m6.479 15 1.667-6.917-1.646.709V10.5H5V7.792l3.854-1.625q.208-.084.406-.125Q9.458 6 9.646 6q.542 0 .937.188.396.187.667.624l.542.876q.52.874 1.177 1.302.656.427 1.531.489v1.479q-1.188-.166-2.031-.666-.844-.5-1.448-1.292l-.479 1.5L12 11.958V15h-1.5v-2.438L8.917 11 8 15ZM11 5.5q-.729 0-1.24-.51-.51-.511-.51-1.24t.51-1.24Q10.271 2 11 2t1.24.51q.51.511.51 1.24t-.51 1.24q-.511.51-1.24.51ZM10 18q-1.646 0-3.104-.625-1.458-.625-2.552-1.719t-1.719-2.552Q2 11.646 2 10q0-2.375 1.271-4.333 1.271-1.959 3.417-2.938l.624 1.354q-1.75.792-2.781 2.396Q3.5 8.083 3.5 10q0 2.708 1.896 4.604T10 16.5q2.708 0 4.604-1.896T16.5 10H18q0 1.646-.625 3.104-.625 1.458-1.719 2.552t-2.541 1.719Q11.667 18 10 18Z"/></svg>