<svg xmlns="http://www.w3.org/2000/svg" height="20" width="20"><path d="M8.104 16.229q-.292-.604-.51-1.417Q7.375 14 7.229 13H4.25q.604 1.188 1.615 2.031 1.01.844 2.239 1.198ZM3.688 11.5h3.354q-.042-.354-.052-.719-.011-.364-.011-.739t.011-.761q.01-.385.052-.781H3.688q-.105.417-.146.781Q3.5 9.646 3.5 10q0 .375.042.729.041.354.146.771ZM4.25 7h2.979q.146-1 .365-1.812.218-.813.51-1.417-1.229.354-2.239 1.198Q4.854 5.812 4.25 7Zm4.5 0h2.5q-.188-1.146-.542-2.115-.354-.968-.708-1.323-.354.355-.708 1.323Q8.938 5.854 8.75 7Zm4.021 0h2.979q-.604-1.188-1.615-2.031-1.01-.844-2.239-1.198.292.604.51 1.417.219.812.365 1.812ZM9.833 18q-1.583 0-3.01-.625-1.427-.625-2.5-1.719t-1.698-2.552Q2 11.646 2 10q0-1.667.625-3.115.625-1.447 1.719-2.541Q5.438 3.25 6.896 2.625T10 2q1.667 0 3.115.625 1.447.625 2.541 1.698 1.094 1.073 1.719 2.51Q18 8.271 18 9.875q0 .271-.01.552-.011.281-.052.573h-1.521q.041-.25.062-.5.021-.25.021-.5 0-.354-.042-.719-.041-.364-.146-.781h-3.354q.042.354.052.719.011.364.011.739V11H11.5V9.938q0-.292-.01-.657-.011-.364-.052-.781H8.562q-.041.396-.052.771-.01.375-.01.729t.01.719q.011.364.052.781H11V13H8.75q.167.938.604 1.958.438 1.021.896 1.48.188-.23.385-.605.198-.375.365-.854v2.959q-.271.041-.573.052-.302.01-.594.01Zm6.375-.729L14 15.062v1.688h-1.5V12.5h4.25V14h-1.688l2.209 2.208Z"/></svg>