<svg xmlns="http://www.w3.org/2000/svg" height="20" viewBox="0 -960 960 960" width="20"><path d="m384-384 34-34-38-38h76q40.07 0 68.03-27.95 27.97-27.95 27.97-68T524.03-620q-27.96-28-68.03-28H312v48h144q20.07 0 34.04 13.95 13.96 13.95 13.96 34T490.04-518q-13.97 14-34.04 14h-76l38-38-34-34-96 96 96 96ZM282-216q-36 0-67.2-19.35Q183.6-254.7 168-288H48v-216q0-33 19.5-52.5T120-576h36l56-142q8.01-22.64 26.27-36.32Q256.52-768 279.67-768H545q19.55 0 36.78 10.5Q599-747 609-730l87 136 150 13q33 3 49 21t16 51v221H791q-15.6 33.3-46.8 52.65Q713-216 677-216t-66.64-19.35Q579.73-254.7 564.41-288H395q-16 33-46.26 52.5Q318.49-216 282-216Z"/></svg>