<svg xmlns="http://www.w3.org/2000/svg" height="20" width="20"><path d="m8.854 10.729-.75-1.146q-.104-.166-.271-.25-.166-.083-.354-.083H2.333q-.187-.479-.26-.927Q2 7.875 2 7.396q0-1.854 1.271-3.125T6.396 3q1.021 0 1.979.438.958.437 1.625 1.229.667-.792 1.625-1.229Q12.583 3 13.604 3q1.854 0 3.125 1.271T18 7.396q0 .479-.083.937-.084.459-.271.938h-4.792l-1.25-1.938q-.104-.166-.281-.25Q11.146 7 10.958 7q-.229 0-.385.125t-.261.333ZM10 17.5l-1.042-.938q-2.25-2-3.625-3.374-1.375-1.376-2.145-2.438h3.937l1.25 1.938q.104.166.281.239.177.073.365.073.229 0 .396-.115.166-.114.25-.323l1.458-3.25.729 1.126q.104.166.271.25.167.083.354.083h4.313q-.771 1.062-2.157 2.437Q13.25 14.583 11 16.604Z"/></svg>