<svg xmlns="http://www.w3.org/2000/svg" height="20" viewBox="0 96 960 960" width="20"><path d="M96 768q40 0 68 28t28 68H96v-96Zm0-144q100 0 170 69.857T336 864h-72q0-70-49.14-119T96 696v-72Zm0-144q80 0 149.685 30.052 69.685 30.051 121.948 82.315 52.264 52.263 82.315 121.948Q480 784 480 864h-72q0-64.806-24.5-121.403Q359 686 316.5 643.5q-42.5-42.5-99.097-67Q160.806 552 96 552v-72Zm456 384q0-95-36.036-177.759-36.036-82.759-98-144.5T273 444q-83-36-177-36v-48q0-29.7 21.15-50.85Q138.3 288 168 288h274q-5 17.1-7.5 35.1T432 360q0 110 77 187t187 77q45.752 0 89.376-15.5T864 564v228.021Q864 822 842.85 843T792 864H552Zm143.774-312Q616 552 560 495.774t-56-136Q504 280 560.226 224t136-56Q776 168 832 224.226t56 136Q888 440 831.774 496t-136 56Zm.226-96q9.6 0 16.8-7.2 7.2-7.2 7.2-16.8 0-9.6-7.2-16.8-7.2-7.2-16.8-7.2-9.6 0-16.8 7.2-7.2 7.2-7.2 16.8 0 9.6 7.2 16.8 7.2 7.2 16.8 7.2Zm-24-96h48v-96h-48v96Z"/></svg>