<svg xmlns="http://www.w3.org/2000/svg" height="20" viewBox="0 96 960 960" width="20"><path d="M720 444h48V276h-48v168Zm-96 0h48V276h-48v168ZM480 576ZM96 768q40 0 68 28t28 68H96v-96Zm0-144q100 0 170 69.857T336 864h-72q0-70-49.14-119T96 696v-72Zm0-144q80 0 149.685 30.052 69.685 30.051 121.948 82.315 52.264 52.263 82.315 121.948Q480 784 480 864h-72q0-64.806-24.5-121.403Q359 686 316.5 643.5q-42.5-42.5-99.097-67Q160.806 552 96 552v-72Zm696 384H552q0-18-1.5-36t-4.5-36h246V606q19.871-7.538 37.935-17.769Q848 578 864 564v228.021Q864 822 842.85 843T792 864ZM96 408v-48q0-29.7 21.15-50.85Q138.3 288 168 288h274q-5 17.1-7.5 35.1T432 360H168v54q-18-3-36-4.5T96 408Zm599.774 144Q616 552 560 495.774t-56-136Q504 280 560.226 224t136-56Q776 168 832 224.226t56 136Q888 440 831.774 496t-136 56Z"/></svg>