<svg xmlns="http://www.w3.org/2000/svg" height="20" width="20"><path d="m6.375 4.438-.771-2.376 1.417-.479.791 2.375ZM9.25 3.5V1h1.5v2.5Zm4.354.917-1.416-.459.791-2.375 1.417.459Zm4.292 14.562-4.084-.604q-.645-.104-1.135-.521-.489-.416-.677-1.021l-.771-2.437q-.187-.563-.052-1.125.135-.563.594-1l1.041 3.271.938-.313-1.896-6.021q-.208-.666-.01-1.333.198-.667.739-1.104l1.188-.938 3.5 7.25q.104.188.271.302.166.115.396.115h.729Zm-15.792 0L1.333 13.5h.729q.23 0 .396-.115.167-.114.271-.302l3.5-7.25 1.188.938q.541.437.739 1.104.198.667-.01 1.333L6.25 15.229l.958.313 1.021-3.271q.459.417.594.989.135.573-.052 1.136L8 16.833q-.188.605-.677 1.021-.49.417-1.135.521Z"/></svg>