<svg xmlns="http://www.w3.org/2000/svg" height="20" width="20"><path d="m6.375 4.438-.771-2.376 1.417-.479.791 2.375ZM9.25 3.5V1h1.5v2.5Zm4.354.917-1.416-.459.791-2.375 1.417.459Zm-11.5 14.562L1.896 17.5l4.083-.604q.209-.042.365-.177.156-.136.218-.344l.792-2.437q.084-.271-.042-.521-.124-.25-.374-.396l-.688 2.208-1.438-.458L6.729 8.75q.042-.125.042-.24 0-.114-.042-.239l-2.646 5.458q-.291.583-.833.927Q2.708 15 2.062 15H1v-1.5h1.062q.23 0 .396-.115.167-.114.271-.302l3.5-7.25 1.188.938q.541.437.739 1.104.198.667-.01 1.333l-.75 2.375q.937.479 1.281 1.25.344.771.094 1.563L8 16.833q-.188.605-.677 1.021-.49.417-1.135.521Zm15.792 0-4.084-.604q-.645-.104-1.135-.521-.489-.416-.677-1.021l-.771-2.437q-.25-.792.094-1.563.344-.771 1.281-1.25l-.75-2.375q-.208-.666-.01-1.333.198-.667.739-1.104l1.188-.938 3.5 7.25q.104.188.271.302.166.115.396.115H19V15h-1.062q-.646 0-1.188-.344-.542-.344-.833-.927l-2.646-5.458q-.042.125-.042.239 0 .115.042.24l1.917 6.021-1.438.458-.688-2.208q-.25.146-.374.396-.126.25-.042.521l.792 2.437q.062.208.218.344.156.135.365.177l4.083.604ZM4.812 14.771Zm10.376 0Zm-1.438.458-1.146-3.646Zm-6.354-3.646L6.25 15.229Z"/></svg>