<svg xmlns="http://www.w3.org/2000/svg" height="20" width="20"><path d="m12 11 3-3-1.062-1.062-1.188 1.187V5h-1.5v3.125l-1.188-1.187L9 8Zm.188 4.5H15q0 .5-.344.865-.344.364-.844.427L4.896 18q-.604.083-1.104-.302-.5-.386-.584-.99L2 7.771q-.083-.625.302-1.115.386-.489 1.01-.573L4.5 5.938v1.52l-1 .125L4.688 16.5ZM7.479 14q-.625 0-1.062-.438-.438-.437-.438-1.062v-9q0-.625.438-1.062Q6.854 2 7.479 2h9.063q.625 0 1.062.438.438.437.438 1.062v9q0 .625-.438 1.062-.437.438-1.062.438Zm.021-1.5h9v-9h-9Zm-2.812 4Zm2.812-4v-9 9Z"/></svg>