<svg xmlns="http://www.w3.org/2000/svg" height="20" width="20"><path d="m11.083 11.833 1.063-1.062L9.75 8.375V5h-1.5v4Zm-3.271 2.542q.396-.833 1.178-1.354.781-.521 1.76-.521h2.5q.604-.729.927-1.625Q14.5 9.979 14.5 9q0-2.292-1.604-3.896T9 3.5q-2.292 0-3.896 1.604T3.5 9q0 1.979 1.229 3.469 1.229 1.489 3.083 1.906ZM10.75 19q-1.333 0-2.271-.927-.937-.927-.979-2.24-2.375-.521-3.938-2.416Q2 11.521 2 9q0-2.917 2.042-4.958Q6.083 2 9 2q2.917 0 4.958 2.042Q16 6.083 16 9q0 .958-.24 1.844-.239.885-.698 1.656h.688q1.354 0 2.302.948T19 15.75q0 1.354-.948 2.302T15.75 19ZM9 8.938Zm4.25 6.812Zm-2.5 1.75h5q.729 0 1.24-.51.51-.511.51-1.24t-.51-1.24q-.511-.51-1.24-.51h-5q-.729 0-1.24.51-.51.511-.51 1.24t.51 1.24q.511.51 1.24.51Zm0-1q-.312 0-.531-.219Q10 16.062 10 15.75q0-.312.219-.531.219-.219.531-.219.312 0 .531.219.219.219.219.531 0 .312-.219.531-.219.219-.531.219Zm2.5 0q-.312 0-.531-.219-.219-.219-.219-.531 0-.312.219-.531.219-.219.531-.219.312 0 .531.219.219.219.219.531 0 .312-.219.531-.219.219-.531.219Zm2.5 0q-.312 0-.531-.219Q15 16.062 15 15.75q0-.312.219-.531.219-.219.531-.219.312 0 .531.219.219.219.219.531 0 .312-.219.531-.219.219-.531.219Z"/></svg>