<svg xmlns="http://www.w3.org/2000/svg" height="20" viewBox="0 -960 960 960" width="20"><path d="M216-192q-29.7 0-50.85-21.162Q144-234.324 144-264.04v-432.243Q144-726 165.15-747T216-768h528q29.7 0 50.85 21.173Q816-725.653 816-695.921V-404q-18-4-36-4t-35.959 4.091Q718-399 695-386q-23 13-42 31t-31.429 41.416Q609.143-290.168 604-264.05q-4 18.013-4 36.025 0 18.013 4 36.025H216Zm528 72v-72h-72v-72h72v-72h72v72h72v72h-72v72h-72ZM293.288-368h111.865Q421-368 432-378.781q11-10.781 11-26.719V-443h-56.143v19H312v-112h75v19h56v-37.895Q443-571 432.362-581.5 421.725-592 406-592H293.007Q277-592 266.5-581.295t-10.5 26.53v148.94Q256-390 266.72-379q10.721 11 26.568 11ZM555-368h112.357q4.643-5 9.143-8 4.5-3 9.5-5t8.059-4.143q3.059-2.143 6.117-3.857 1.53-4.286 2.677-8.143Q704-401 704-405.667V-443h-56v19h-75v-112h75v19h56v-37.895Q704-571 693.28-581.5 682.559-592 666.712-592H554.847Q539-592 528-581.295q-11 10.705-11 26.53v148.94Q517-390 527.925-379T555-368Z"/></svg>