<svg xmlns="http://www.w3.org/2000/svg" height="20" viewBox="0 -960 960 960" width="20"><path d="M480-480Zm120 288H216q-29.7 0-50.85-21.162Q144-234.324 144-264.04v-432.243Q144-726 165.15-747T216-768h528q29.7 0 50.85 21.15Q816-725.7 816-696v288h-72v-288H216v432h384v72Zm144 72v-72h-72v-72h72v-72h72v72h72v72h-72v72h-72ZM293.288-368h111.865Q421-368 432-378.781q11-10.781 11-26.719V-443h-56.143v19H312v-112h75v19h56v-37.895Q443-571 432.362-581.5 421.725-592 406-592H293.007Q277-592 266.5-581.295t-10.5 26.53v148.94Q256-390 266.72-379q10.721 11 26.568 11Zm261.226 0h112.543Q683-368 693.5-378.781 704-389.562 704-405.5V-443h-56.143v19H573v-112h75v19h56v-37.895Q704-571 693.28-581.5 682.559-592 666.712-592H554.847Q539-592 528-581.295q-11 10.705-11 26.53v148.94Q517-390 527.785-379q10.786 11 26.729 11Z"/></svg>