<svg xmlns="http://www.w3.org/2000/svg" height="20" width="20"><path d="M16.625 14.5 5.458 3.333q1.334-.958 2.948-1.302 1.615-.343 3.261.136-.167.916.104 1.687t.854 1.281q.583.511 1.417.709.833.198 1.77-.032-.52 1.188.157 2.261.677 1.073 1.989 1.115.167 1.479-.198 2.833-.364 1.354-1.135 2.479Zm-9.875-2q.521 0 .885-.365Q8 11.771 8 11.25t-.365-.885Q7.271 10 6.75 10t-.885.365q-.365.364-.365.885t.365.885q.364.365.885.365ZM16 18.125l-1.5-1.5q-1.021.667-2.156 1.021Q11.208 18 10 18q-1.646 0-3.104-.625-1.458-.625-2.552-1.719t-1.719-2.552Q2 11.646 2 10q0-1.208.354-2.344.354-1.135 1.021-2.156L1.875 4l1.063-1.062 14.124 14.124Z"/></svg>