<svg xmlns="http://www.w3.org/2000/svg" height="20" width="20"><path d="M4.25 17.5Q3.521 17.5 3.01 16.99Q2.5 16.479 2.5 15.75V4.25Q2.5 3.521 3.01 3.01Q3.521 2.5 4.25 2.5H15.75Q16.479 2.5 16.99 3.01Q17.5 3.521 17.5 4.25V15.75Q17.5 16.479 16.99 16.99Q16.479 17.5 15.75 17.5ZM12.542 15.75H14.396L15.75 14.396V13.25H15.042ZM6.375 11.729 8.896 9.229 10.562 10.896 14.854 6.583 13.625 5.354 10.562 8.417 8.896 6.75 5.146 10.5ZM4.25 15.75H4.958L7.458 13.25H5.604L4.25 14.604Q4.25 14.896 4.25 15.177Q4.25 15.458 4.25 15.75ZM11.25 15.75 13.75 13.25H11.896L9.396 15.75ZM8.104 15.75 10.604 13.25H8.75L6.25 15.75Z"/></svg>