<svg xmlns="http://www.w3.org/2000/svg" height="20" viewBox="0 96 960 960" width="20"><path d="M444 203q17.131-10 36.066-10Q499 193 516 203l264 153q17.1 9.884 26.55 26.058T816 418v177q-31-20-67.321-31.5Q712.357 552 672 552q-18 0-35.5 2t-34.5 7l118-68v-61l-43-25-197 113-197-113-43 25v61l192 111v102q-11 26-17.5 53.5T408 816q0 36 9.409 69.468T444 948L180 796q-17.1-10.043-26.55-26.478Q144 753.087 144 733V418q0-19.768 9.45-35.942T180 356l264-153Zm228 709 108-108-34-34-50 50V720h-48v100l-50-50-34 34 108 108Zm-.226 96Q592 1008 536 951.774t-56-136Q480 736 536.226 680t136-56Q752 624 808 680.226t56 136Q864 896 807.774 952t-136 56Z"/></svg>