<svg xmlns="http://www.w3.org/2000/svg" height="20" width="20"><path d="M2 17V9.5q0-.625.438-1.062Q2.875 8 3.5 8H8v2q0 .833.583 1.417Q9.167 12 10 12q.833 0 1.417-.583Q12 10.833 12 10V8h4.5q.625 0 1.062.438Q18 8.875 18 9.5V17Zm1.5-1.5h13v-6h-3v.5q0 1.458-1.021 2.479Q11.458 13.5 10 13.5q-1.458 0-2.479-1.021Q6.5 11.458 6.5 10v-.5h-3Zm6.5-4.938q-.312 0-.531-.208-.219-.208-.219-.521-.104-2.145.385-4.208.49-2.063 2.115-3.437.229-.209.542-.178.312.032.52.261.209.229.178.541-.032.313-.261.521-1.375 1.125-1.677 2.896Q10.75 8 10.75 9.792q0 .312-.219.531-.219.219-.531.239ZM5 12.5q.208 0 .354-.146T5.5 12q0-.208-.146-.354T5 11.5q-.208 0-.354.146T4.5 12q0 .208.146.354T5 12.5Zm1.5 2q.208 0 .354-.146T7 14q0-.208-.146-.354T6.5 13.5q-.208 0-.354.146T6 14q0 .208.146.354t.354.146Zm8.5-2q.208 0 .354-.146T15.5 12q0-.208-.146-.354T15 11.5q-.208 0-.354.146T14.5 12q0 .208.146.354T15 12.5Zm-11.5 3h13Z"/></svg>