<svg xmlns="http://www.w3.org/2000/svg" height="20" width="20"><path d="M14 15.5h1.5v-11H14v11Zm-7.75-3.979q.312 0 .531-.219.219-.219.219-.531 0-.313-.219-.531-.219-.219-.531-.219-.312 0-.531.219-.219.218-.219.531 0 .312.219.531.219.219.531.219Zm0 1.979q.312 0 .531-.219Q7 13.062 7 12.75q0-.312-.219-.531Q6.562 12 6.25 12q-.312 0-.531.219-.219.219-.219.531 0 .312.219.531.219.219.531.219ZM5.5 9h6V6.5h-6Zm3 2.521q.312 0 .531-.219.219-.219.219-.531 0-.313-.219-.531-.219-.219-.531-.219-.312 0-.531.219-.219.218-.219.531 0 .312.219.531.219.219.531.219Zm0 1.979q.312 0 .531-.219.219-.219.219-.531 0-.312-.219-.531Q8.812 12 8.5 12q-.312 0-.531.219-.219.219-.219.531 0 .312.219.531.219.219.531.219Zm2.25-1.979q.312 0 .531-.219.219-.219.219-.531 0-.313-.219-.531-.219-.219-.531-.219-.312 0-.531.219-.219.218-.219.531 0 .312.219.531.219.219.531.219Zm0 1.979q.312 0 .531-.219.219-.219.219-.531 0-.312-.219-.531Q11.062 12 10.75 12q-.312 0-.531.219-.219.219-.219.531 0 .312.219.531.219.219.531.219Zm1.75 1v-9h-8v9ZM14 17q-.479 0-.865-.281-.385-.281-.552-.719H4.5q-.625 0-1.062-.438Q3 15.125 3 14.5v-9q0-.625.438-1.062Q3.875 4 4.5 4h8.083q.167-.438.552-.719Q13.521 3 14 3h1.5q.625 0 1.062.438Q17 3.875 17 4.5v11q0 .625-.438 1.062Q16.125 17 15.5 17Zm-9.5-2.5v-9Z"/></svg>