<svg xmlns="http://www.w3.org/2000/svg" height="20" width="20"><path d="M14.5 15q1.25 0 2.125-.875T17.5 12q0-1.25-.875-2.125T14.5 9q-1.25 0-2.125.875T11.5 12q0 1.25.875 2.125T14.5 15Zm-11 3q-.625 0-1.062-.438Q2 17.125 2 16.5v-13q0-.625.438-1.062Q2.875 2 3.5 2H10q.625 0 1.062.438.438.437.438 1.062v3.312q-.417.25-.792.553-.375.302-.708.677V6H3.5v8h5.354q.354.979.99 1.771.635.791 1.531 1.333-.187.417-.552.656-.365.24-.823.24Zm9 0v-1.958q-1.146-.584-1.823-1.667Q10 13.292 10 12t.677-2.375q.677-1.083 1.823-1.646V6h4v1.979q1.146.563 1.823 1.646T19 12q0 1.292-.677 2.375T16.5 16.042V18Z"/></svg>