<svg xmlns="http://www.w3.org/2000/svg" height="20" width="20"><path d="M3.5 4.5H10v-1H3.5Zm0 13.5q-.625 0-1.062-.438Q2 17.125 2 16.5v-13q0-.625.438-1.062Q2.875 2 3.5 2H10q.625 0 1.062.438.438.437.438 1.062v3.312q-.417.25-.792.553-.375.302-.708.677V6H3.5v8h5.354q.146.417.344.781.198.365.448.719H3.5v1h6.479v-.542q.292.354.646.636.354.281.75.51-.167.396-.542.646T10 18Zm11-3q1.25 0 2.125-.875T17.5 12q0-1.25-.875-2.125T14.5 9q-1.25 0-2.125.875T11.5 12q0 1.25.875 2.125T14.5 15Zm-2 3v-1.958q-1.125-.563-1.812-1.636Q10 13.333 10 12q0-1.333.688-2.406.687-1.073 1.812-1.615V6h4v1.979q1.125.542 1.812 1.615Q19 10.667 19 12q0 1.333-.688 2.406-.687 1.073-1.812 1.636V18Zm-9-2.5v1Zm0-11v-1 1Z"/></svg>