<svg xmlns="http://www.w3.org/2000/svg" height="20" width="20"><path d="M11.146 18v-2.604l-1.313-.167q-1.021-.125-1.666-.708-.646-.583-.646-1.375 0-.938.708-1.604.709-.667 1.75-.667.167 0 .323.01.156.011.323.053-.104-.105-.229-.219-.125-.115-.229-.219-.375-.375-.667-.792-.292-.416-.292-.958 0-.708.407-1.208.406-.5 1.281-.5.208 0 .396.031.187.031.396.052l-.042-.885q-.021-.448-.021-.886 0-1.083.656-1.719Q12.938 3 14.062 3q1.146 0 1.917.604.771.604.771 1.479 0 .479-.198.896-.198.417-.323.854.125-.041.25-.052.125-.01.25-.01.938 0 1.604.698.667.698.667 1.698 0 .937-.635 1.573-.636.635-1.511.822.146.042.271.084l.25.083q.625.292 1 .813.375.52.375 1.146 0 .708-.604 1.25-.604.541-1.708.812l-1.063.25v2Zm-7.771-1L2 16.375l4-8.792 1.375.605Zm-.208-8.25q-.563-.562-.865-1.281Q2 6.75 2 5.958q0-1.646 1.156-2.791 1.156-1.146 2.802-1.146.792 0 1.521.302.729.302 1.271.844L7.708 4.229q-.354-.354-.812-.531-.458-.177-.938-.177-1.02 0-1.739.708-.719.709-.719 1.729 0 .5.188.948.187.448.541.802Z"/></svg>