<svg xmlns="http://www.w3.org/2000/svg" height="20" width="20"><path d="M10 10ZM2 8V5.5q0-.625.438-1.062Q2.875 4 3.5 4h13q.625 0 1.062.438Q18 4.875 18 5.5V10h-1.5V5.5h-13V8Zm1.5 8q-.625 0-1.062-.438Q2 15.125 2 14.5V12h1.5v2.5h5.75V16Zm11.667 2.5-1.146-.979q-1.688-1.459-2.177-2.094-.49-.635-.49-1.323 0-.875.615-1.489.614-.615 1.489-.615.5 0 .948.24.448.239.761.656.312-.417.76-.656.448-.24.969-.24.875 0 1.489.615.615.614.615 1.489 0 .688-.51 1.344-.511.656-2.157 2.073Zm0-2 .541-.458q1.104-.938 1.448-1.302.344-.365.344-.657 0-.229-.167-.406-.166-.177-.416-.177-.146 0-.271.062-.125.063-.292.23l-1.187 1.125L14 13.792q-.167-.167-.302-.23-.136-.062-.281-.062-.229 0-.407.177-.177.177-.177.406 0 .271.334.646.333.375 1.458 1.313Zm-8.917-3q-.229 0-.396-.115-.166-.114-.271-.281L4.292 10.75H2v-1.5h2.75q.208 0 .375.104t.271.292l.854 1.542 2.333-4.292q.105-.188.282-.281.177-.094.385-.094.208 0 .375.094.167.093.271.281l1.292 2.354H14v1.5h-3.25q-.229 0-.396-.115-.166-.114-.271-.281L9.25 8.812l-2.354 4.292q-.104.167-.271.281-.167.115-.375.115Zm8.917 1.5Z"/></svg>