<svg xmlns="http://www.w3.org/2000/svg" height="20" width="20"><path d="M13.333 3q2 0 3.344 1.49 1.344 1.489 1.344 3.531 0 .312-.042.625-.041.312-.104.604h-4.979l-1.271-1.917q-.104-.166-.271-.25Q11.188 7 11 7q-.229 0-.406.115-.177.114-.282.323l-1.437 3.27-.75-1.125q-.104-.166-.271-.25-.166-.083-.354-.083H2.125q-.083-.292-.115-.604-.031-.313-.031-.625 0-2.042 1.344-3.531Q4.667 3 6.667 3q.958 0 1.812.396.854.396 1.521 1.083.646-.708 1.51-1.094Q12.375 3 13.333 3ZM10 17q-.354 0-.677-.135-.323-.136-.552-.386l-5.375-5q-.188-.167-.334-.344-.145-.177-.291-.385h4.333l1.271 1.917q.104.166.271.25Q8.812 13 9 13q.229 0 .406-.115.177-.114.282-.323l1.437-3.25.75 1.126q.104.166.271.239.166.073.354.073h4.729q-.125.188-.271.365-.146.177-.312.343L11.229 16.5q-.25.25-.562.375Q10.354 17 10 17Z"/></svg>