<svg xmlns="http://www.w3.org/2000/svg" height="20" width="20"><path d="M6 19q-1.25 0-2.125-.875T3 16v-3h4.625l2.792 3.542 4.687-4.23 1.104-.562q.375-.188.792-.146.417.042.771.292l1.417 1.062-6.334 5.542q-.292.229-.635.365-.344.135-.698.135Zm-3-7.5V4.75q0-.312.219-.531Q3.438 4 3.75 4q.312 0 .531.219.219.219.219.531V10h1.667V2.75q0-.312.218-.531Q6.604 2 6.917 2q.312 0 .531.219.219.219.219.531V10h1.666V1.75q0-.312.219-.531Q9.771 1 10.083 1q.313 0 .532.219.218.219.218.531V10H12.5V3.75q0-.312.219-.531Q12.938 3 13.25 3q.312 0 .531.219.219.219.219.531v7.542l-3.396 3.062-2.25-2.854Z"/></svg>