<svg xmlns="http://www.w3.org/2000/svg" height="20" width="20"><path d="M6.167 10V2.75q0-.312.218-.531Q6.604 2 6.917 2q.312 0 .531.219.219.219.219.531V10Zm3.166 0V1.75q0-.312.219-.531Q9.771 1 10.083 1q.313 0 .532.219.218.219.218.531V10Zm3.167 3.604V3.75q0-.312.219-.531Q12.938 3 13.25 3q.312 0 .531.219.219.219.219.531v9.104ZM6 17.5h5.521q.104 0 .187-.031.084-.031.146-.094l4.646-4.083-6.208 3.125L7.625 13H4.5v3q0 .625.438 1.062.437.438 1.062.438ZM6 19q-1.25 0-2.125-.875T3 16v-4.5h5.354l2.354 3L14 12.854l2.208-1.104q.375-.188.792-.146.417.042.771.292l1.417 1.062-6.334 5.542q-.292.229-.635.365-.344.135-.698.135Zm-1.5-7.5H3V4.75q0-.312.219-.531Q3.438 4 3.75 4q.312 0 .531.219.219.219.219.531Zm0-1.5h8-8ZM6 17.5H4.5h7.354H11.521Z"/></svg>