<svg xmlns="http://www.w3.org/2000/svg" height="20" width="20"><path d="M15.75 18.208 10.625 13.104 6.229 17.5H2.5V13.771L6.896 9.375L1.792 4.271L3.021 3.042L16.979 17ZM8.771 11.229 8.146 10.625 8.771 11.229 9.375 11.854ZM13.104 10.625 11.854 9.375 12.479 8.75 11.25 7.521 10.625 8.146 9.375 6.896 11.229 5.042 14.958 8.771ZM16.188 7.542 12.458 3.812 13.479 2.792Q14 2.271 14.729 2.281Q15.458 2.292 15.958 2.792L17.208 4.042Q17.708 4.542 17.708 5.281Q17.708 6.021 17.208 6.521ZM11.25 8.75ZM4.25 15.75H5.479L9.375 11.854L8.146 10.625L4.25 14.521Z"/></svg>