<svg xmlns="http://www.w3.org/2000/svg" height="20" width="20"><path d="m2.417 17.625-.834-1.25q.896-.604 1.407-1.552.51-.948.51-2.031V4.417q-.438-.542-.802-1.125-.365-.584-.636-1.25l1.376-.584q.854 2.021 2.614 3.282Q7.812 6 10 6q2.188 0 3.948-1.26 1.76-1.261 2.614-3.282l1.376.563q-.271.667-.636 1.25-.364.583-.802 1.125v8.396q0 1.083.51 2.031.511.948 1.407 1.552l-.834 1.25q-1.208-.813-1.895-2.094Q15 14.25 15 12.792v-6.98q-1.062.792-2.344 1.24Q11.375 7.5 10 7.5q-1.375 0-2.656-.438Q6.062 6.625 5 5.833v6.959q0 1.458-.677 2.75-.677 1.291-1.906 2.083ZM8.375 16q-1 0-1.687-.688Q6 14.625 6 13.625V7.917l.979.333Q8 8.583 8.76 9.198q.761.614 1.24 1.469.479-.855 1.24-1.469.76-.615 1.781-.948L14 7.917v5.708q0 1-.688 1.687-.687.688-1.687.688-.479 0-.896-.177-.417-.177-.729-.469-.312.292-.729.469T8.375 16Z"/></svg>