<svg xmlns="http://www.w3.org/2000/svg" height="20" width="20"><path d="M5.5 18v-3.646q-1.188-1-1.844-2.406Q3 10.542 3 8.979q0-2.917 2.052-4.948Q7.104 2 10.021 2q2.271 0 4.083 1.219 1.813 1.219 2.396 3.177l1.375 4.646q.104.354-.115.656-.218.302-.593.302H16v2.5q0 .625-.438 1.062Q15.125 16 14.5 16h-2v2H11v-3.5h3.5v-4h1.667l-1.084-3.604q-.458-1.5-1.864-2.448-1.407-.948-3.198-.948-2.313 0-3.917 1.594Q4.5 6.688 4.5 8.979q0 1.229.521 2.333.521 1.105 1.458 1.896l.521.459V18Zm4.833-7.25ZM7.917 18h1.521l.458-5H12.5v-1.5h-2.479l.083-.812q.042-.292.25-.49t.5-.198H14V8.5h-3.146q-.875 0-1.51.583-.636.584-.719 1.459Z"/></svg>