<svg xmlns="http://www.w3.org/2000/svg" height="20" viewBox="0 96 960 960" width="20"><path d="M647.736 912Q618 912 597 890.824q-21-21.176-21-50.912V695.736Q576 666 597.176 645q21.176-21 50.912-21h144.176Q822 624 843 645.176q21 21.176 21 50.912v144.176Q864 870 842.824 891q-21.176 21-50.912 21H647.736Zm.264-72h144V696H648v144ZM96 804v-72h384v72H96Zm551.736-276Q618 528 597 506.824q-21-21.176-21-50.912V311.736Q576 282 597.176 261q21.176-21 50.912-21h144.176Q822 240 843 261.176q21 21.176 21 50.912v144.176Q864 486 842.824 507q-21.176 21-50.912 21H647.736Zm.264-72h144V312H648v144ZM96 420v-72h384v72H96Zm624 348Zm0-384Z"/></svg>