<svg xmlns="http://www.w3.org/2000/svg" height="20" width="20"><path d="m16.812 7.979-4.77-4.771.666-.687q.438-.438 1.063-.438t1.062.438L17.5 5.188q.438.437.438 1.052 0 .614-.438 1.052Zm-9.624 9.625q-.292.292-.823.375-.532.083-.969-.354l-2.834-2.833q-.437-.438-.437-1.063t.437-1.062l.667-.646L8 16.792Zm2.895-.479q-.145.146-.354.146-.208 0-.354-.146l-6.458-6.458q-.146-.146-.146-.355 0-.208.146-.354L4.5 8.354q.146-.146.354-.146t.354.146l1.5 1.5 3.167-3.187-1.479-1.479q-.167-.146-.167-.344 0-.198.167-.365l1.583-1.604q.146-.146.354-.146.209 0 .355.146l6.458 6.458q.166.146.166.355 0 .208-.166.374l-1.584 1.584q-.145.146-.354.146-.208 0-.354-.146l-1.521-1.521-3.187 3.187 1.542 1.521q.145.146.135.355-.011.208-.156.354Z"/></svg>