<svg xmlns="http://www.w3.org/2000/svg" height="20" viewBox="0 -960 960 960" width="20"><path d="M240-48H120q-33 0-52.5-19.5T48-120v-120h72v120h120v72Zm480 0v-72h120v-120h72v120q0 33-19.5 52.5T840-48H720ZM480-240q-112.381 0-203.69-65.5Q185-371 144-480q41-109 132.31-174.5Q367.619-720 480-720t203.69 65.5Q775-589 816-480q-41 109-132.31 174.5Q592.381-240 480-240Zm-.125-72q83.125 0 152.179-44.8T738-480q-36.839-78.4-105.795-123.2T480.125-648Q397-648 327.946-603.2T222-480q36.839 78.4 105.795 123.2t152.08 44.8Zm.347-36Q535-348 573.5-386.722q38.5-38.722 38.5-93.5T573.278-573.5q-38.722-38.5-93.5-38.5T386.5-573.278q-38.5 38.722-38.5 93.5t38.722 93.278q38.722 38.5 93.5 38.5ZM480-420q-25 0-42.5-17.5T420-480q0-25 17.5-42.5T480-540q25 0 42.5 17.5T540-480q0 25-17.5 42.5T480-420ZM48-720v-120q0-33 19.5-52.5T120-912h120v72H120v120H48Zm792 0v-120H720v-72h120q33 0 52.5 19.5T912-840v120h-72ZM480-480Z"/></svg>