<svg xmlns="http://www.w3.org/2000/svg" height="20" width="20"><path d="M5.958 12.5q.646 0 1.146-.385.5-.386.688-.99L8.125 10q.292-.938-.167-1.719Q7.5 7.5 6.646 7.5H3.521l.521 3.354q.104.708.646 1.177.541.469 1.27.469Zm8.104 0q.73 0 1.271-.469.542-.469.646-1.177L16.5 7.5h-3.146q-.854 0-1.312.781-.459.781-.167 1.719l.333 1.125q.188.604.698.99.511.385 1.156.385ZM5.958 14q-1.291 0-2.26-.823-.969-.823-1.156-2.094L2 7.5H1V6h5.646q.792 0 1.489.406.698.406 1.115 1.094h1.5q.396-.708 1.083-1.104Q12.521 6 13.354 6H19v1.5h-1l-.562 3.583q-.188 1.271-1.146 2.094-.959.823-2.25.823-1.146 0-2.042-.677-.896-.677-1.229-1.781l-.333-1.104q-.021-.084-.032-.178-.01-.093-.052-.26h-.687q-.021.083-.042.177-.021.094-.063.261l-.312 1.104q-.333 1.104-1.24 1.781Q7.104 14 5.958 14Z"/></svg>