<svg xmlns="http://www.w3.org/2000/svg" height="20" width="20"><path d="M10 18q-1.646 0-3.104-.625-1.458-.625-2.552-1.719t-1.719-2.552Q2 11.646 2 10V2.458l4.812 3.604q.605-.916 1.626-2.218Q9.458 2.542 10 2q.542.542 1.562 1.844 1.021 1.302 1.626 2.239L18 2.458V10q0 1.646-.625 3.104-.625 1.458-1.719 2.552t-2.541 1.719Q11.667 18 10 18Zm0-1.5q2.708 0 4.604-1.896T16.5 10V5.479l-3.75 2.792q-.812-1.375-1.417-2.261-.604-.885-1.333-1.76-.708.833-1.281 1.667-.573.833-1.49 2.333L3.5 5.458V10q0 2.708 1.896 4.604T10 16.5Zm0-6.125Z"/></svg>