<svg xmlns="http://www.w3.org/2000/svg" height="20" viewBox="0 96 960 960" width="20"><path d="M804 625q-15-1-25.5-11.5T768 588q0-15 10.5-25.5T804 552h30q-10-54-33-102t-57-88l-47 47q-11 11-25 11t-25-11q-11-11-11-25t11-25l47-47q-54-45-121-70.5T431 216v-72q100 0 187.5 37.5t153 103q65.5 65.5 103 153T912 625H804Zm-597-74q32 0 66 12.5t58 34.5l386 348q23-14 37-37.5t14-50.5q0-22-6.5-41T738 781L596 639l-55-165q-8-25-31-38t-49-6l-66 16v-71q0-19-10-35t-28-25l-20-12q-22-11-45.5-5.5T253 323L123 496q-8 10-15 27t-9 28h108Zm0 72H105q5 14 14 28t21 25l273 249q19 17 42 26t49 9h120L282 652q-14-13-34.5-21t-40.5-8Z"/></svg>