<svg xmlns="http://www.w3.org/2000/svg" height="20" width="20"><path d="M10 14q1.667 0 2.833-1.167Q14 11.667 14 10h-1q0 1.25-.875 2.125T10 13q-1.25 0-2.125-.875T7 10q0-1.25.896-2.125T10.062 7l-.895.917.708.708L12 6.5 9.875 4.375l-.708.708.895.917Q8.375 6 7.188 7.156 6 8.312 6 10q0 1.667 1.167 2.833Q8.333 14 10 14Zm0 4q-1.646 0-3.104-.625-1.458-.625-2.552-1.719t-1.719-2.552Q2 11.646 2 10q0-1.667.625-3.115.625-1.447 1.719-2.541Q5.438 3.25 6.896 2.625T10 2q1.667 0 3.115.625 1.447.625 2.541 1.719 1.094 1.094 1.719 2.541Q18 8.333 18 10q0 1.646-.625 3.104-.625 1.458-1.719 2.552t-2.541 1.719Q11.667 18 10 18Zm0-1.5q2.708 0 4.604-1.896T16.5 10q0-2.708-1.896-4.604T10 3.5q-2.708 0-4.604 1.896T3.5 10q0 2.708 1.896 4.604T10 16.5Zm0-6.5Z"/></svg>