<svg xmlns="http://www.w3.org/2000/svg" height="20" width="20"><path d="M4.5 17q-.625 0-1.062-.438Q3 16.125 3 15.5V12h1.5v3.5H8V17Zm7.5 0v-1.5h3.5V12H17v3.5q0 .625-.438 1.062Q16.125 17 15.5 17ZM3 8V4.5q0-.625.438-1.062Q3.875 3 4.5 3H8v1.5H4.5V8Zm12.5 0V4.5H12V3h3.5q.625 0 1.062.438Q17 3.875 17 4.5V8Zm-6.25 3q.729 0 1.24-.51.51-.511.51-1.24t-.51-1.24q-.511-.51-1.24-.51t-1.24.51q-.51.511-.51 1.24t.51 1.24q.511.51 1.24.51Zm3.688 3-1.98-2q-.396.229-.823.365-.427.135-.885.135-1.354 0-2.302-.948T6 9.25q0-1.354.948-2.302T9.25 6q1.354 0 2.302.948T12.5 9.25q0 .458-.135.885-.136.427-.365.823l2 1.98Z"/></svg>