<svg xmlns="http://www.w3.org/2000/svg" height="20" width="20"><path d="M4.5 17q-.625 0-1.062-.438Q3 16.125 3 15.5V12h1.5v3.5H8V17Zm7.5 0v-1.5h3.5V12H17v3.5q0 .625-.438 1.062Q16.125 17 15.5 17ZM3 8V4.5q0-.625.438-1.062Q3.875 3 4.5 3H8v1.5H4.5V8Zm12.5 0V4.5H12V3h3.5q.625 0 1.062.438Q17 3.875 17 4.5V8ZM10 14q-1.521 0-2.656-1-1.136-1-1.323-2.5h1.021q.27 1.188 1.073 1.844Q8.917 13 10 13q1.25 0 2.125-.875T13 10q0-1.25-.875-2.125T10 7q-.646 0-1.219.271-.573.271-1.031.729H9v1H6V6h1v1.354q.583-.646 1.354-1Q9.125 6 10 6q1.667 0 2.833 1.167Q14 8.333 14 10q0 1.667-1.167 2.833Q11.667 14 10 14Z"/></svg>