<svg xmlns="http://www.w3.org/2000/svg" height="20" viewBox="0 96 960 960" width="20"><path d="M84 552v-72h72v72H84Zm720 0v-72h72v72h-72ZM84 408v-72h72v72H84Zm720 0v-72h72v72h-72ZM84 264v-72h72v72H84Zm144 288v-72h72v72h-72Zm432 0v-72h72v72h-72Zm144-288v-72h72v72h-72Zm-576 0v-72h72v72h-72Zm144 0v-72h72v72h-72Zm144 0v-72h72v72h-72Zm144 0v-72h72v72h-72Zm-222 744q-21 0-41.5-8.5T361 976L160 775l38-38q11-11 24.5-14.5t27.5.5l86 22V420q0-15.3 10.289-25.65 10.29-10.35 25.5-10.35Q387 384 397.5 394.35 408 404.7 408 420v419l-112-30 116 116q5 5 11.682 8T438 936h174.437q34.47 0 59.016-24.675Q696 886.65 696 852V660q0-15.3 10.289-25.65 10.29-10.35 25.5-10.35Q747 624 757.5 634.35 768 644.7 768 660v192q0 65-45.5 110.5T612 1008H438Zm18-288V564q0-15.3 10.289-25.65 10.29-10.35 25.5-10.35Q507 528 517.5 538.35 528 548.7 528 564v156h-72Zm120 0V612.263Q576 597 586.289 586.5q10.29-10.5 25.5-10.5Q627 576 637.5 586.35 648 596.7 648 612v108h-72Zm36 216H412h200Z"/></svg>