<svg xmlns="http://www.w3.org/2000/svg" height="20" viewBox="0 96 960 960" width="20"><path d="M84 552v-72h72v72H84Zm354 456q-21 0-41.5-8.5T361 976L160 775l38-38q11-11 24.5-14.5t27.5.5l86 22V420q0-15.3 10.289-25.65 10.29-10.35 25.5-10.35Q387 384 397.5 394.35 408 404.7 408 420v252h48V564.263Q456 549 466.289 538.5q10.29-10.5 25.5-10.5Q507 528 517.5 538.35 528 548.7 528 564v108h48v-60q0-15.3 10.289-25.65 10.29-10.35 25.5-10.35Q627 576 637.5 586.35 648 596.7 648 612v60h48v-12q0-15.3 10.289-25.65 10.29-10.35 25.5-10.35Q747 624 757.5 634.35 768 644.7 768 660v192q0 65-45.5 110.5T612 1008H438ZM84 408v-72h72v72H84Zm144 144v-72h72v72h-72Zm432 0v-72h72v72h-72Zm144 0v-72h72v72h-72ZM84 264v-72h72v72H84Zm144 0v-72h72v72h-72Zm144 0v-72h72v72h-72Zm144 0v-72h72v72h-72Zm144 0v-72h72v72h-72Zm144 144v-72h72v72h-72Zm0-144v-72h72v72h-72Z"/></svg>