<svg xmlns="http://www.w3.org/2000/svg" height="20" width="20"><path d="M9.625 17q-.292 0-.563-.104-.27-.104-.5-.334L4 12l1.396-1.396q.292-.292.656-.396.365-.104.76 0L8 10.5V5q0-.833.583-1.417Q9.167 3 10 3q.833 0 1.417.583Q12 4.167 12 5v3h1l2.896 1.354q.604.292.896.854.291.563.187 1.209l-.625 4.291q-.083.542-.5.917-.416.375-.979.375Zm0-1.5h5.25l.667-4.625L12.646 9.5H10.5V5q0-.208-.146-.354T10 4.5q-.208 0-.354.146T9.5 5v7.417l-3.042-.75-.333.333Zm0 0h5.25Zm-5.875-7q-1.146 0-1.948-.792Q1 6.917 1 5.792q0-.667.26-1.136.261-.468 1.261-1.635L3.75 1.604l1.208 1.417Q6 4.208 6.25 4.667q.25.458.25 1.125 0 1.125-.802 1.916-.802.792-1.948.792Zm0-1.5q.521 0 .885-.354Q5 6.292 5 5.792q0-.334-.177-.594-.177-.26-.99-1.198l-.083-.083L3.646 4q-.792.875-.969 1.156-.177.282-.177.636 0 .52.354.864T3.75 7Zm0-1.542Z"/></svg>