<svg xmlns="http://www.w3.org/2000/svg" height="20" viewBox="0 -960 960 960" width="20"><path d="M480-48q-182.618 0-307.309-67Q48-182 48-281.812 48-350 112-406t176-86v75q-77 23-122.5 59.832Q120-320.335 120-282.48 120-217 227.5-168.5T480-120q145 0 252.5-48.731T840-282.437Q840-320 794.5-357T672-417v-75q111 29 175.5 85.693T912-281.582Q912-182 787.309-115T480-48ZM360-192v-408H192v-72h576v72H600v408h-72v-192h-96v192h-72Zm119.752-540Q445-732 420.5-756.748t-24.5-59.5Q396-851 420.748-875.5t59.5-24.5Q515-900 539.5-875.252t24.5 59.5Q564-781 539.252-756.5t-59.5 24.5Z"/></svg>