<svg xmlns="http://www.w3.org/2000/svg" height="20" width="20"><path d="M10.021 18.292Q7.208 15.438 5.552 13.708Q3.896 11.979 3.031 10.833Q2.167 9.688 1.917 8.875Q1.667 8.062 1.667 7.083Q1.667 5.167 3 3.833Q4.333 2.5 6.25 2.5Q7.188 2.5 8.062 2.844Q8.938 3.188 9.625 3.833L8.333 8.333H10.833L9.896 16.312L12.562 7.5H10L11.479 3.083Q12 2.792 12.573 2.646Q13.146 2.5 13.75 2.5Q15.667 2.5 17 3.833Q18.333 5.167 18.333 7.083Q18.333 8.042 18.094 8.844Q17.854 9.646 17 10.792Q16.146 11.938 14.5 13.688Q12.854 15.438 10.021 18.292ZM8.396 14.146 8.875 10.083H6L7.583 4.562Q7.271 4.396 6.938 4.323Q6.604 4.25 6.25 4.25Q5.062 4.25 4.24 5.073Q3.417 5.896 3.417 7.083Q3.417 7.708 3.646 8.323Q3.875 8.938 4.438 9.729Q5 10.521 5.958 11.583Q6.917 12.646 8.396 14.146ZM12.667 13Q14.729 10.979 15.656 9.594Q16.583 8.208 16.583 7.083Q16.583 5.896 15.76 5.073Q14.938 4.25 13.75 4.25Q13.521 4.25 13.312 4.271Q13.104 4.292 12.896 4.375L12.438 5.75H14.854ZM14.854 5.75Q14.854 5.75 14.854 5.75Q14.854 5.75 14.854 5.75Q14.854 5.75 14.854 5.75Q14.854 5.75 14.854 5.75Q14.854 5.75 14.854 5.75Q14.854 5.75 14.854 5.75ZM6 10.292Q6 10.292 6 10.292Q6 10.292 6 10.292Q6 10.292 6 10.292Q6 10.292 6 10.292Q6 10.292 6 10.292Q6 10.292 6 10.292Q6 10.292 6 10.292Q6 10.292 6 10.292Z"/></svg>