<svg xmlns="http://www.w3.org/2000/svg" height="20" viewBox="0 -960 960 960" width="20"><path d="M528-432h216v-72H528v72Zm0-120h216v-72H528v72ZM192-336h288v-45q0-29-44-52t-100.5-23q-56.5 0-100 22.5T192-381v45Zm144.212-144Q366-480 387-501.212q21-21.213 21-51Q408-582 386.788-603q-21.213-21-51-21Q306-624 285-602.788q-21 21.213-21 51Q264-522 285.212-501q21.213 21 51 21ZM168-192q-29.7 0-50.85-21.162Q96-234.324 96-264.04v-432.243Q96-726 117.15-747T168-768h624q29.7 0 50.85 21.162Q864-725.676 864-695.96v432.243Q864-234 842.85-213T792-192H168Z"/></svg>