<svg xmlns="http://www.w3.org/2000/svg" height="20" width="20"><path d="M10.833 18q-.604 0-1.416-.083-.813-.084-1.646-.25-.833-.167-1.615-.459-.781-.291-1.344-.687-.604-.438-1.281-1.417-.677-.979-1.239-2.146-.563-1.166-.927-2.333Q1 9.458 1 8.625q0-.896.385-1.615.386-.718.98-1.312.593-.594 1.312-1.083.719-.49 1.406-.907Q6.271 3 7.656 2.5 9.042 2 10.521 2q1.604 0 2.885.604 1.282.604 2.594 1.458.312.188.802.584.49.396.969 1.01.479.615.844 1.427.364.813.385 1.855.042 1.479-.615 3.083-.656 1.604-1.781 2.927t-2.625 2.187q-1.5.865-3.146.865Zm-2.312-3q1.062 0 1.771-.76.708-.761.708-1.719 0-.438-.177-.875-.177-.438-.573-.792-.438-.396-.719-.885-.281-.49-.427-1.052-.208-.875-.885-1.396Q7.542 7 6.729 7q-1 0-1.781.771-.781.771-.698 1.812.042.771.375 1.719.333.948.896 1.771.562.823 1.333 1.375.771.552 1.667.552Zm0-1.479q-.563 0-1.052-.448-.49-.448-.865-1.083-.375-.636-.604-1.323-.229-.688-.25-1.146-.042-.396.271-.709.312-.312.708-.312.271 0 .542.188.271.187.375.562.208.833.583 1.49.375.656 1.021 1.239.125.104.188.24.062.135.062.302 0 .354-.281.677-.281.323-.698.323ZM13.25 11q.292 0 .521-.219.229-.219.229-.531v-.438l.375.23q.292.166.583.083.292-.083.438-.354.166-.271.073-.563-.094-.291-.344-.458l-.375-.25.375-.229q.292-.146.365-.438.072-.291-.073-.583-.167-.271-.448-.333-.281-.063-.573.083L14 7.208V6.75q0-.292-.229-.521Q13.542 6 13.25 6q-.312 0-.531.229-.219.229-.219.521v.458l-.396-.229q-.271-.167-.573-.083-.302.083-.448.354-.166.292-.083.583.083.292.354.438l.396.229-.396.25q-.271.146-.354.438-.083.291.062.562.167.292.459.354.291.063.562-.083l.417-.209v.438q0 .312.219.531.219.219.531.219Z"/></svg>