<svg xmlns="http://www.w3.org/2000/svg" height="20" viewBox="0 -960 960 960" width="20"><path d="M168-276v-408 408Zm48-168h72v-72h-72v72Zm114 0h72v-72h-72v72Zm114 0h72v-72h-72v72Zm114 0h72v-72h-72v72ZM216-564h72v-72h-72v72Zm114 0h72v-72h-72v72Zm114 0h72v-72h-72v72Zm114 0h72v-72h-72v72Zm114 0h72v-72h-72v72Zm0 102q17-5 35.5-5.5T744-466v-50h-72v54ZM336-324h198q5-20.444 14-38.222Q557-380 570-396H336v72ZM167.723-204Q138-204 117-225.15T96-276v-408q0-29.7 21.15-50.85Q138.3-756 168-756h624q29.7 0 50.85 21.15Q864-713.7 864-684v281q-15-17-33-30t-39-21v-230H168v408h360v72H167.723ZM624-84q-9.882 0-16.941-7.059Q600-98.118 600-108v-144q0-9.882 7.059-16.941Q614.118-276 624-276h24v-48q0-29.7 21.212-50.85 21.213-21.15 51-21.15Q750-396 771-374.85q21 21.15 21 50.85v48h24q9.882 0 16.941 7.059Q840-261.882 840-252v144q0 9.882-7.059 16.941Q825.882-84 816-84H624Zm60-192h72v-48q0-15.3-10.289-25.65-10.29-10.35-25.5-10.35Q705-360 694.5-349.65 684-339.3 684-324v48Z"/></svg>