<svg xmlns="http://www.w3.org/2000/svg" height="20" viewBox="0 -960 960 960" width="20"><path d="M167.723-204Q138-204 117-225.15T96-276v-408q0-29.7 21.15-50.85Q138.3-756 168-756h36l360 360H336v72h198q-3 11-4.5 23t-1.5 25v72H167.723ZM803-56 56-803l51-50 746 746-50 51ZM216-516v72h72v-72h-72Zm114 0v72h72v-72h-72ZM216-636v72h72v-72h-72Zm342 72h72v-72h-72v72Zm114 0h72v-72h-72v72ZM306-756h486q29.7 0 50.85 21.15Q864-713.7 864-684v281q-23-26-54-42t-66-21v-50h-72v54q-11 3-21.5 7.5T630-445v-71h-72v12l-60-60h18v-72h-72v18L306-756Zm534 534-84-84v-18q0-15.3-10.35-25.65Q735.3-360 720-360q-3.808 0-7.404.5T705-357l-26-26q9-6 19.333-9.5Q708.667-396 720-396q29.7 0 50.85 21.15Q792-353.7 792-324v48h24q9.882 0 16.941 7.059Q840-261.882 840-252v30ZM624-84q-9.882 0-16.941-7.059Q600-98.118 600-108v-144q0-9.882 7.059-16.941Q614.118-276 624-276h60l108 108v84H624Z"/></svg>