<svg xmlns="http://www.w3.org/2000/svg" height="20" viewBox="0 96 960 960" width="20"><path d="M774 960 96 282l50-51 679 679-51 50ZM336 720h300l-72-72H336v72Zm-96-120h72v-72h-72v72Zm102 0h72v-72h-72v72Zm306 0h72v-72h-72v72Zm-408-96h72v-72h-72v72Zm306 0h72v-72h-72v72Zm102 0h72v-72h-72v72ZM168 816q-29.7 0-50.85-21.15Q96 773.7 96 744V408q0-29.7 21.15-50.85Q138.3 336 168 336h84l480 480H168Zm658-8L618 599v-71h-72l-30-31v-65h-66l-95-96h436.9q30.1 0 51.1 21.15T864 408v336q0 20.778-10.5 37.889Q843 799 826 808Z"/></svg>