<svg xmlns="http://www.w3.org/2000/svg" height="20" width="20"><path d="M4.5 15.5v-11 11Zm0 1.5q-.625 0-1.062-.438Q3 16.125 3 15.5v-11q0-.625.438-1.062Q3.875 3 4.5 3h11q.625 0 1.062.438Q17 3.875 17 4.5v6.938q-.354-.167-.729-.261t-.771-.135V4.5h-11v11h5.542q-.042.375-.021.75t.104.75Zm9.75 2v-2.25H12v-1.5h2.25V13h1.5v2.25H18v1.5h-2.25V19Zm-7.5-5q.312 0 .531-.219.219-.219.219-.531 0-.312-.219-.531-.219-.219-.531-.219-.312 0-.531.219Q6 12.938 6 13.25q0 .312.219.531.219.219.531.219Zm0-3.25q.312 0 .531-.219.219-.219.219-.531 0-.312-.219-.531-.219-.219-.531-.219-.312 0-.531.219Q6 9.688 6 10q0 .312.219.531.219.219.531.219Zm0-3.25q.312 0 .531-.219.219-.219.219-.531 0-.312-.219-.531Q7.062 6 6.75 6q-.312 0-.531.219Q6 6.438 6 6.75q0 .312.219.531.219.219.531.219ZM9 10.75h5v-1.5H9ZM9 7.5h5V6H9ZM9 14h1.417q.187-.417.448-.792.26-.375.573-.708H9Z"/></svg>