<svg xmlns="http://www.w3.org/2000/svg" height="20" width="20"><path d="M1.5 15v-4H3v2.5h14V11h1.5v4Zm6.312-3v-.646H7.75q-.333.438-.74.646-.406.208-.968.208-.98 0-1.532-.51t-.552-1.406q0-.854.636-1.375.635-.521 1.677-.521.437 0 .875.083.437.083.666.209v-.292q0-.5-.395-.833-.396-.334-1-.334-.438 0-.782.177-.343.177-.635.532l-.854-.667q.354-.521.969-.802.614-.281 1.343-.281 1.209 0 1.875.593Q9 7.375 9 8.479V12ZM6.5 9.292q-.604 0-.958.27-.354.271-.354.709 0 .417.291.656.292.24.771.24.667 0 1.104-.448.438-.448.438-1.094-.292-.167-.615-.25-.323-.083-.677-.083Zm4 2.708V3.938h1.229v2.27l-.062.813h.062q.063-.104.49-.521.427-.417 1.343-.417 1.313 0 2.042.927.729.928.729 2.115 0 1.187-.729 2.125t-2.042.938q-.812 0-1.26-.376-.448-.374-.573-.562h-.062V12Zm2.875-4.771q-.792 0-1.25.584-.458.583-.458 1.312 0 .729.458 1.323t1.25.594q.792 0 1.26-.594.469-.594.469-1.323t-.469-1.312q-.468-.584-1.26-.584Z"/></svg>