<svg xmlns="http://www.w3.org/2000/svg" height="20" width="20"><path d="m3.562 14 3-8H8l3 8H9.625l-.708-2.042H5.688L4.958 14Zm2.521-3.208h2.396L7.312 7.479H7.25Zm7.459 3.416q-.98 0-1.532-.51t-.552-1.406q0-.854.636-1.375.635-.521 1.677-.521.437 0 .875.083.437.083.666.209v-.292q0-.5-.395-.834-.396-.333-1-.333-.438 0-.782.177-.343.177-.635.532l-.854-.667q.354-.521.969-.802.614-.281 1.343-.281 1.209 0 1.875.593.667.594.667 1.698V14h-1.188v-.646h-.062q-.333.438-.74.646-.406.208-.968.208Zm.208-1.041q.667 0 1.104-.448.438-.448.438-1.094-.292-.167-.615-.25-.323-.083-.677-.083-.604 0-.958.27-.354.271-.354.709 0 .417.291.656.292.24.771.24Z"/></svg>