<svg xmlns="http://www.w3.org/2000/svg" height="20" width="20"><path d="M5 16V9.5q0-2.708 1.896-4.604T11.5 3q2.708 0 4.604 1.896T18 9.5q0 2.708-1.896 4.604T11.5 16Zm1.5-1.5h5q2.083 0 3.542-1.458Q16.5 11.583 16.5 9.5q0-2.083-1.458-3.542Q13.583 4.5 11.5 4.5q-2.083 0-3.542 1.458Q6.5 7.417 6.5 9.5Zm5-2.25q1.146 0 1.948-.802T14.25 9.5q0-1.146-.802-1.948T11.5 6.75q-1.146 0-1.948.802T8.75 9.5q0 1.146.802 1.948t1.948.802Zm0-1.5q-.521 0-.885-.365-.365-.364-.365-.885t.365-.885q.364-.365.885-.365t.885.365q.365.364.365.885t-.365.885q-.364.365-.885.365ZM2.5 16v-4H4v4Zm9-6.5Z"/></svg>