<svg xmlns="http://www.w3.org/2000/svg" height="20" width="20"><path d="M10 15q-1.188 0-2.375-.094t-2.375-.26q-.542-.104-.896-.521Q4 13.708 4 13.167v-.209q-1.083-.187-1.792-1.02Q1.5 11.104 1.5 10t.708-1.927Q2.917 7.25 4 7.062V6.5q0-.625.438-1.062Q4.875 5 5.5 5q.542 0 1.062.094.521.094 1.063.135.604.042 1.177.073.573.031 1.177.031.604 0 1.177-.031.573-.031 1.177-.073.542-.041 1.084-.135Q13.958 5 14.5 5q.625 0 1.062.438Q16 5.875 16 6.5v.562q1.083.188 1.792 1.011.708.823.708 1.927t-.708 1.938q-.709.833-1.792 1.02v.209q0 .541-.365.958-.364.417-.906.521-1.187.166-2.364.26Q11.188 15 10 15Zm0-2.5q.667 0 1.344-.083.677-.084 1.344-.25.291-.084.447-.355.157-.27.073-.562-.083-.292-.354-.458-.271-.167-.562-.063-.563.146-1.136.209Q10.583 11 10 11q-.604 0-1.177-.052-.573-.052-1.135-.219-.292-.104-.563.052-.271.157-.354.469-.083.292.073.562.156.271.448.355.666.166 1.343.25.677.083 1.365.083Zm-6-1.083V8.604q-.458.167-.729.542Q3 9.521 3 10t.271.865q.271.385.729.552Zm12 0q.438-.167.719-.552Q17 10.479 17 10t-.281-.854q-.281-.375-.719-.542ZM10 9.75q.667 0 1.344-.083.677-.084 1.344-.25.291-.084.447-.355.157-.27.073-.562-.083-.292-.354-.458-.271-.167-.562-.063-.563.146-1.136.209-.573.062-1.156.062-.604 0-1.177-.052-.573-.052-1.135-.219-.292-.104-.563.063-.271.166-.354.458-.083.292.073.562.156.271.448.355.666.166 1.343.25.677.083 1.365.083Z"/></svg>