<svg xmlns="http://www.w3.org/2000/svg" height="20" width="20"><path d="M10 15q-1.208 0-2.385-.094-1.177-.094-2.365-.26-.542-.084-.896-.5Q4 13.729 4 13.167v-.209q-1.104-.166-1.802-1Q1.5 11.125 1.5 10q0-1.083.698-1.917Q2.896 7.25 4 7.062V6.5q0-.604.438-1.052Q4.875 5 5.5 5q.542 0 1.062.094.521.094 1.063.135.583.042 1.167.073.583.031 1.187.031.583 0 1.167-.031.583-.031 1.187-.073.542-.041 1.084-.135Q13.958 5 14.5 5q.604 0 1.052.448Q16 5.896 16 6.5v.562q1.062.188 1.781 1.021.719.834.719 1.917 0 1.125-.708 1.948-.709.823-1.792 1.01v.209q0 .562-.365.979-.364.416-.906.5-1.187.166-2.364.26Q11.188 15 10 15Zm0-1.5q1.125 0 2.25-.083 1.125-.084 2.25-.25l-.01.01.01-.01V6.5q-1.125.167-2.25.25-1.125.083-2.25.083-1.146 0-2.271-.083T5.5 6.5q-.021 0-.01.01.01.011.01-.01v6.667q1.125.166 2.24.25 1.114.083 2.26.083Zm0-1q.667 0 1.344-.083.677-.084 1.344-.25.291-.084.447-.355.157-.27.073-.562-.083-.292-.354-.458-.271-.167-.562-.063-.563.146-1.136.209Q10.583 11 10 11q-.604 0-1.177-.052-.573-.052-1.135-.219-.292-.104-.563.052-.271.157-.354.448-.083.313.073.583.156.271.448.355.666.166 1.343.25.677.083 1.365.083Zm-6-1.083V8.604q-.458.167-.729.542Q3 9.521 3 10t.271.865q.271.385.729.552Zm12 0q.438-.167.719-.552Q17 10.479 17 10t-.281-.854q-.281-.375-.719-.542ZM10 9.75q.667 0 1.344-.083.677-.084 1.344-.25.291-.084.447-.355.157-.27.073-.562-.083-.292-.354-.458-.271-.167-.562-.063-.563.146-1.136.209-.573.062-1.156.062-.604 0-1.177-.052-.573-.052-1.135-.219-.292-.104-.563.063-.271.166-.354.458-.083.292.073.562.156.271.448.355.666.166 1.343.25.677.083 1.365.083Zm-4.5 3.438V6.5v6.688Z"/></svg>