<svg xmlns="http://www.w3.org/2000/svg" height="20" width="20"><path d="M2 2.458V10q0 1.875.781 3.469.781 1.593 2.115 2.698-.584-.792-.906-1.74-.323-.948-.323-2.01 0-1.605.677-3.261.677-1.656 1.927-3.51Zm7.979.667q-2.187 2.646-3.5 5.135-1.312 2.49-1.312 4.157 0 2.021 1.406 3.427Q7.979 17.25 10 17.25t3.427-1.406q1.406-1.406 1.406-3.427 0-1.667-1.323-4.167-1.322-2.5-3.531-5.125ZM18 2.458l-4.271 3.209q1.229 1.833 1.917 3.489.687 1.656.687 3.261 0 1.062-.323 2.01-.322.948-.906 1.74 1.334-1.105 2.115-2.698Q18 11.875 18 10Z"/></svg>