<svg xmlns="http://www.w3.org/2000/svg" height="20" width="20"><path d="M12.479 18q-.312 0-.531-.219-.219-.219-.219-.531l.021-.792q-.521-.083-.99-.27-.468-.188-.885-.48l-.792.813q-.229.229-.531.229-.302 0-.531-.229-.229-.229-.229-.531 0-.302.229-.532l.812-.812q-.083-.104-.135-.229-.052-.125-.115-.229L8 13.042l-1 1q-.229.229-.531.229-.302 0-.531-.229-.23-.23-.23-.532 0-.302.23-.531l1-1-1.126-.541q-.083-.042-.145-.084l-.125-.083-.834.833q-.229.229-.531.229-.302 0-.531-.229-.229-.229-.229-.531 0-.302.229-.531l.771-.771q-.355-.438-.573-.948-.219-.511-.302-1.073H2.75q-.312 0-.531-.219Q2 7.812 2 7.5q0-.312.219-.531.219-.219.531-.219h.854q.104-.396.261-.76.156-.365.385-.698l-.771-.771Q3.25 4.292 3.25 4q0-.292.229-.521.229-.229.521-.229.292 0 .521.229l.791.75Q5.646 4 6 3.854q.354-.146.75-.25V2.75q0-.312.219-.531Q7.188 2 7.5 2q.312 0 .531.219.219.219.219.531v.792q.542.083 1.031.281.49.198.907.51l.687-.687q.229-.229.531-.229.302 0 .532.229.229.229.229.531 0 .302-.229.531l-.73.73.115.187q.052.083.094.187l.541 1.084.938-.938q.229-.229.531-.229.302 0 .531.229.23.23.23.532 0 .302-.23.531L13 7.979l1.188.583q.145.063.27.136.125.073.25.177l.771-.771q.229-.229.521-.229.292 0 .521.229.229.229.229.531 0 .303-.229.532l-.75.771q.291.416.458.874.167.459.25.938h.771q.312 0 .521.219.208.219.208.531 0 .312-.219.531-.218.219-.531.219h-.833q-.104.396-.261.76-.156.365-.385.698l.771.771q.229.229.229.531 0 .302-.229.532-.229.229-.531.229-.302 0-.532-.229l-.77-.771q-.334.229-.688.375-.354.146-.75.25l-.021.854q0 .312-.219.531-.218.219-.531.219ZM7.75 9q.521 0 .885-.365Q9 8.271 9 7.75t-.365-.885Q8.271 6.5 7.75 6.5t-.885.365q-.365.364-.365.885t.365.885Q7.229 9 7.75 9ZM12 13.5q.417 0 .708-.292.292-.291.292-.708t-.292-.708Q12.417 11.5 12 11.5t-.708.292Q11 12.083 11 12.5t.292.708q.291.292.708.292Z"/></svg>