<svg xmlns="http://www.w3.org/2000/svg" height="20" viewBox="0 96 960 960" width="20"><path d="M180 864q-15.3 0-25.65-10.289-10.35-10.29-10.35-25.5Q144 813 154.35 802.5 164.7 792 180 792h384q15.3 0 25.65 10.289 10.35 10.29 10.35 25.5Q600 843 589.65 853.5 579.3 864 564 864H180Zm528.263 0Q693 864 682.5 853.711q-10.5-10.29-10.5-25.5Q672 813 682.325 802.5 692.65 792 707.912 792h71.825Q795 792 805.5 802.289q10.5 10.29 10.5 25.5Q816 843 805.675 853.5 795.35 864 780.088 864h-71.825Zm-528-168Q165 696 154.5 685.711q-10.5-10.29-10.5-25.5Q144 645 154.325 634.5 164.65 624 179.912 624h71.825Q267 624 277.5 634.289q10.5 10.29 10.5 25.5Q288 675 277.675 685.5 267.35 696 252.088 696h-71.825ZM396 696q-15.3 0-25.65-10.289-10.35-10.29-10.35-25.5Q360 645 370.35 634.5 380.7 624 396 624h384q15.3 0 25.65 10.289 10.35 10.29 10.35 25.5Q816 675 805.65 685.5 795.3 696 780 696H396ZM180 528q-15.3 0-25.65-10.289-10.35-10.29-10.35-25.5Q144 477 154.35 466.5 164.7 456 180 456h432q15.3 0 25.65 10.289 10.35 10.29 10.35 25.5Q648 507 637.65 517.5 627.3 528 612 528H180Zm576 0q-15.3 0-25.65-10.289-10.35-10.29-10.35-25.5Q720 477 730.35 466.5 740.7 456 756 456h24q15.3 0 25.65 10.289 10.35 10.29 10.35 25.5Q816 507 805.65 517.5 795.3 528 780 528h-24ZM180 360q-15.3 0-25.65-10.289-10.35-10.29-10.35-25.5Q144 309 154.35 298.5 164.7 288 180 288h168q15.3 0 25.65 10.289 10.35 10.29 10.35 25.5Q384 339 373.65 349.5 363.3 360 348 360H180Zm312 0q-15.3 0-25.65-10.289-10.35-10.29-10.35-25.5Q456 309 466.35 298.5 476.7 288 492 288h288q15.3 0 25.65 10.289 10.35 10.29 10.35 25.5Q816 339 805.65 349.5 795.3 360 780 360H492Z"/></svg>