<svg xmlns="http://www.w3.org/2000/svg" height="20" width="20"><path d="M14.25 12h1.5v2.25H18v1.5h-2.25V18h-1.5v-2.25H12v-1.5h2.25ZM4.5 15.5v-11 11ZM10 5q-1.042 0-1.771.729Q7.5 6.458 7.5 7.5q0 1.042.729 1.771Q8.958 10 10 10q1.042 0 1.771-.729.729-.729.729-1.771 0-1.042-.729-1.771Q11.042 5 10 5ZM8.625 7.125q.167 0 .271.104Q9 7.333 9 7.5q0 .167-.104.271-.104.104-.271.104-.167 0-.271-.104-.104-.104-.104-.271 0-.167.104-.271.104-.104.271-.104Zm1.375 0q.167 0 .271.104.104.104.104.271 0 .167-.104.271-.104.104-.271.104-.167 0-.271-.104-.104-.104-.104-.271 0-.167.104-.271.104-.104.271-.104Zm1.375 0q.167 0 .271.104.104.104.104.271 0 .167-.104.271-.104.104-.271.104-.167 0-.271-.104Q11 7.667 11 7.5q0-.167.104-.271.104-.104.271-.104ZM4.5 17q-.625 0-1.062-.438Q3 16.125 3 15.5v-11q0-.625.438-1.062Q3.875 3 4.5 3h11q.625 0 1.062.438Q17 3.875 17 4.5v6.021h-1.5V4.5h-11v11h6.021V17Z"/></svg>