<svg xmlns="http://www.w3.org/2000/svg" height="20" width="20"><path d="M14.25 18v-2.25H12v-1.5h2.25V12h1.5v2.25H18v1.5h-2.25V18ZM10 10q1.042 0 1.771-.729.729-.729.729-1.771 0-1.042-.729-1.771Q11.042 5 10 5q-1.042 0-1.771.729Q7.5 6.458 7.5 7.5q0 1.042.729 1.771Q8.958 10 10 10ZM8.625 7.875q-.167 0-.271-.104-.104-.104-.104-.271 0-.167.104-.271.104-.104.271-.104.167 0 .271.104Q9 7.333 9 7.5q0 .167-.104.271-.104.104-.271.104Zm1.375 0q-.167 0-.271-.104-.104-.104-.104-.271 0-.167.104-.271.104-.104.271-.104.167 0 .271.104.104.104.104.271 0 .167-.104.271-.104.104-.271.104Zm1.375 0q-.167 0-.271-.104Q11 7.667 11 7.5q0-.167.104-.271.104-.104.271-.104.167 0 .271.104.104.104.104.271 0 .167-.104.271-.104.104-.271.104ZM4.5 17q-.625 0-1.062-.438Q3 16.125 3 15.5v-11q0-.625.438-1.062Q3.875 3 4.5 3h11q.625 0 1.062.438Q17 3.875 17 4.5v6.458q-.479-.229-.979-.343-.5-.115-1.042-.115-1.875 0-3.177 1.302T10.5 14.979q0 .542.115 1.042.114.5.343.979Z"/></svg>