<svg xmlns="http://www.w3.org/2000/svg" height="20" viewBox="0 -960 960 960" width="20"><path d="M444-618Zm90 90Zm-128 76Zm26-76Zm12 0Zm72-72Zm-36-264q120 0 204 84t84 204v110q-17-7-35-10.5t-37-3.5v-48H534l-90-90v-170q-33 5-62.007 19.712Q352.986-753.577 330-732l-51-51q39-38 90.681-59.5T480-864ZM234-726l198 198H264v144q0 89.64 63.18 152.82Q390.36-168 480-168h12q6 0 12-1v72q-6.207.667-12.103.833Q486-96 480-96q-120 0-204-84t-84-204v-192q0-42 11-79.5t31-70.5Zm282 126h178q-8-72-57-124t-121-64v188ZM803-56 56-803l51-50 746 746-50 51ZM600-96q-9.882 0-16.941-7.059Q576-110.118 576-120v-132q0-15.3 10.35-25.65Q596.7-288 612-288h60l144 144v24q0 9.882-7.059 16.941Q801.882-96 792-96H600Zm168-198-36-36v-6q0-15.3-10.405-25.65Q711.19-372 695.81-372H690l-28-28q7.759-3.636 16.379-5.818Q687-408 696-408q29.7 0 50.85 21.15Q768-365.7 768-336v42Z"/></svg>