<svg xmlns="http://www.w3.org/2000/svg" height="20" viewBox="0 -960 960 960" width="20"><path d="M480-528Zm0 432q-120 0-204-84t-84-204v-192q0-120 84-204t204-84q120 0 204 84t84 204v110q-17-7-35-10.5t-37-3.5v-48H264v144q0 89.64 63.18 152.82Q390.36-168 480-168h12q6 0 12-1v72q-6.207.667-12.103.833Q486-96 480-96ZM266-600h178v-188q-72 11-121 63.5T266-600Zm250 0h178q-8-72-57-124t-121-64v188Zm84 504q-9.882 0-16.941-7.059Q576-110.118 576-120v-144q0-9.882 7.059-16.941Q590.118-288 600-288h24v-48q0-29.7 21.212-50.85 21.213-21.15 51-21.15Q726-408 747-386.85q21 21.15 21 50.85v48h24q9.882 0 16.941 7.059Q816-273.882 816-264v144q0 9.882-7.059 16.941Q801.882-96 792-96H600Zm60-192h72v-48q0-15.3-10.289-25.65-10.29-10.35-25.5-10.35Q681-372 670.5-361.65 660-351.3 660-336v48ZM480-528Zm36-72Zm-72 0Z"/></svg>