<svg xmlns="http://www.w3.org/2000/svg" height="20" viewBox="0 -960 960 960" width="20"><path d="M168-192q-29 0-50.5-21.5T96-264v-432q0-30 21-51t51-21h24l396 397-84 84v95H168Zm472-231L295-768h65l65 130 14 14h89l-72-144h96l72 144h96l-72-144h144q30 0 51 21.5t21 50.5v153q-34-14-69-6.5T735-517l-95 94Zm179 82 45-46-45-45-45 46 45 45Zm-15 82L691-372l95-94q7-7 16-10.5t18-3.5q9 0 18 3.5t16 10.5l44 45q7 7 10.5 16t3.5 18q0 9-3.5 18T898-353l-94 94Zm49 152-51 51-101-100-12 12H576v-113l12-12L56-803l51-51 746 747Z"/></svg>