<svg xmlns="http://www.w3.org/2000/svg" height="20" viewBox="0 -960 960 960" width="20"><path d="M449-408Zm126-79ZM168-192q-29 0-50.5-21.5T96-264v-432q0-29.7 21.15-50.85Q138.3-768 168-768h24l216 216H168v288h336v72H168Zm696-504v144H511L295-768h64.51L425-638l14 14h89l-72-144h96l72 144h96l-72-144h144q29.7 0 50.85 21.5Q864-725 864-696Zm0 309-45-45 45 45Zm-60 128L691-371l95-95q7-6 15.87-10 8.86-4 17.73-4 9.67 0 18.53 3.5Q847-473 854-466l44 45q6 8 10 16.75t4 17.5q0 8.75-3.29 17.73-3.3 8.99-10.71 16.02l-94 94Zm49 152-51 51-101-100-12 12H576v-113l12-12L56-803l51-51 746 747Zm-229-85h41l-41-41v41Z"/></svg>