<svg xmlns="http://www.w3.org/2000/svg" height="20" width="20"><path d="M7.5 12.917H12.708Q13.667 12.917 14.333 12.24Q15 11.562 15 10.625Q15 9.688 14.365 9.031Q13.729 8.375 12.792 8.333Q12.521 7.396 11.75 6.823Q10.979 6.25 10 6.25Q9.146 6.25 8.438 6.698Q7.729 7.146 7.375 7.938Q6.375 7.979 5.688 8.698Q5 9.417 5 10.417Q5 11.458 5.729 12.188Q6.458 12.917 7.5 12.917ZM7.5 11.167Q7.208 11.167 6.979 10.938Q6.75 10.708 6.75 10.396Q6.75 10.104 6.958 9.885Q7.167 9.667 7.479 9.667H8.521L8.958 8.667Q9.104 8.354 9.385 8.177Q9.667 8 10 8Q10.396 8 10.708 8.229Q11.021 8.458 11.125 8.833L11.458 10.083H12.729Q12.958 10.083 13.104 10.24Q13.25 10.396 13.25 10.625Q13.25 10.854 13.094 11.01Q12.938 11.167 12.708 11.167ZM10 18.333Q8.271 18.333 6.75 17.677Q5.229 17.021 4.104 15.896Q2.979 14.771 2.323 13.25Q1.667 11.729 1.667 10Q1.667 8.271 2.323 6.75Q2.979 5.229 4.104 4.104Q5.229 2.979 6.75 2.323Q8.271 1.667 10 1.667Q11.729 1.667 13.25 2.323Q14.771 2.979 15.896 4.104Q17.021 5.229 17.677 6.75Q18.333 8.271 18.333 10Q18.333 11.729 17.677 13.25Q17.021 14.771 15.896 15.896Q14.771 17.021 13.25 17.677Q11.729 18.333 10 18.333Z"/></svg>