<svg xmlns="http://www.w3.org/2000/svg" height="20" width="20"><path d="M11.75 17q-.271 0-.521-.042-.25-.041-.479-.146V3.208q.229-.104.479-.156.25-.052.521-.052 1 0 1.729.688.729.687.771 1.687 1.188.146 1.969 1.01Q17 7.25 17 8.438q0 .437-.115.833-.114.396-.323.75.25.417.344.833.094.417.094.813 0 1.208-.802 2.093-.802.886-1.99.99-.104.958-.791 1.604-.688.646-1.667.646Zm-3.521 0q-.979 0-1.667-.646-.687-.646-.791-1.604-1.188-.125-1.979-1Q3 12.875 3 11.667q0-.417.094-.865T3.417 10q-.209-.354-.313-.75Q3 8.854 3 8.438q0-1.188.771-2.042.771-.854 1.958-1.021.042-1 .771-1.687Q7.229 3 8.229 3q.271 0 .531.062.261.063.49.167v13.563q-.229.104-.49.156Q8.5 17 8.229 17Z"/></svg>