<svg xmlns="http://www.w3.org/2000/svg" height="20" width="20"><path d="m16 18.125-1.5-1.5q-1.021.667-2.156 1.021Q11.208 18 10 18q-1.646 0-3.104-.625-1.458-.625-2.552-1.719t-1.719-2.552Q2 11.646 2 10q0-1.208.354-2.344.354-1.135 1.021-2.156L1.875 4l1.063-1.062 14.124 14.124ZM10 14.5q.5 0 .979-.104t.896-.313q-.771-.354-1.365-.968-.593-.615-.927-1.407L5.938 8.062q-.209.438-.323.928Q5.5 9.479 5.5 10q0 1.875 1.312 3.188Q8.125 14.5 10 14.5Zm6.625 0L9.854 7.729q.354-.604.875-1.062.521-.459 1.146-.75-.417-.209-.896-.313Q10.5 5.5 10 5.5q-.521 0-1.01.104-.49.104-.928.334L5.5 3.375q1-.667 2.146-1.021Q8.792 2 10 2q1.667 0 3.115.625 1.447.625 2.541 1.719 1.094 1.094 1.719 2.541Q18 8.333 18 10q0 1.208-.354 2.354-.354 1.146-1.021 2.146Z"/></svg>