<svg xmlns="http://www.w3.org/2000/svg" height="20" width="20"><path d="M4.5 17Q3.875 17 3.438 16.562Q3 16.125 3 15.5V4.5Q3 3.875 3.438 3.438Q3.875 3 4.5 3H15.5Q16.125 3 16.562 3.438Q17 3.875 17 4.5V6H15.5V4.5Q15.5 4.5 15.5 4.5Q15.5 4.5 15.5 4.5H4.5Q4.5 4.5 4.5 4.5Q4.5 4.5 4.5 4.5V15.5Q4.5 15.5 4.5 15.5Q4.5 15.5 4.5 15.5H15.5Q15.5 15.5 15.5 15.5Q15.5 15.5 15.5 15.5V14H17V15.5Q17 16.125 16.562 16.562Q16.125 17 15.5 17ZM14 14 12.938 12.938 15.125 10.75H8V9.25H15.125L12.938 7.062L14 6L18 10Z"/></svg>