<svg xmlns="http://www.w3.org/2000/svg" height="20" width="20"><path d="M1 12h1.5v3q0 .312.208.531.209.219.521.219h1.979q.209-.354.542-.552Q6.083 15 6.5 15h1v-1.25q0-.312.219-.531Q7.938 13 8.25 13q.312 0 .531.219.219.219.219.531V15h2v-1.25q0-.312.219-.531.219-.219.531-.219.312 0 .531.219.219.219.219.531V15h1q.417 0 .75.198t.542.552h1.979q.312 0 .521-.219.208-.219.208-.531v-3H19v3q0 .938-.646 1.594-.646.656-1.583.656h-1.979q-.209.354-.542.552-.333.198-.75.198h-7q-.417 0-.75-.198t-.542-.552H3.229q-.937 0-1.583-.656Q1 15.938 1 15ZM7 1h1.5v3.75q0 .521-.365.885Q7.771 6 7.25 6H6q-.625 0-1.062.438Q4.5 6.875 4.5 7.5t.438 1.062Q5.375 9 6 9v1.5q-1.25 0-2.125-.875T3 7.5q0-1.25.875-2.125T6 4.5h1Zm4.5 0H13v3.5h1q1.25 0 2.125.875T17 7.5q0 1.25-.875 2.125T14 10.5V9q.625 0 1.062-.438.438-.437.438-1.062t-.438-1.062Q14.625 6 14 6h-1.25q-.521 0-.885-.365-.365-.364-.365-.885ZM10 10.5Zm0 1q-.917 0-1.656-.5-.74-.5-1.094-1.354l-.188-.479q-.041-.084-.104-.125Q6.896 9 6.812 9H6V7.5h.833q.542 0 .979.302.438.302.646.802l.188.479q.166.417.531.667.365.25.823.25.458 0 .833-.25.375-.25.542-.667l.187-.479q.188-.5.636-.802.448-.302.99-.302H14V9h-.812q-.084 0-.146.042-.063.041-.104.125l-.188.479q-.354.854-1.094 1.354-.739.5-1.656.5Z"/></svg>