<svg xmlns="http://www.w3.org/2000/svg" height="20" viewBox="0 96 960 960" width="20"><path d="M683.778 888Q629 888 590.5 849.278q-38.5-38.722-38.5-93.5t38.722-93.278q38.722-38.5 93.5-38.5t93.278 38.722q38.5 38.722 38.5 93.5T777.278 849.5q-38.722 38.5-93.5 38.5Zm.163-67Q711 821 730 802.059q19-18.941 19-46T730.059 710q-18.941-19-46-19T638 709.941q-19 18.941-19 46T637.941 802q18.941 19 46 19ZM144 792v-72h336v72H144Zm131.778-264Q221 528 182.5 489.278q-38.5-38.722-38.5-93.5t38.722-93.278q38.722-38.5 93.5-38.5t93.278 38.722q38.5 38.722 38.5 93.5T369.278 489.5q-38.722 38.5-93.5 38.5Zm.163-67Q303 461 322 442.059q19-18.941 19-46T322.059 350q-18.941-19-46-19T230 349.941q-19 18.941-19 46T229.941 442q18.941 19 46 19ZM480 432v-72h336v72H480Z"/></svg>