<svg xmlns="http://www.w3.org/2000/svg" height="20" width="20"><path d="M6.75 6q-.312 0-.531-.219Q6 5.562 6 5.25q0-.312.219-.531.219-.219.531-.219h2.5V2.75q0-.312.219-.531Q9.688 2 10 2q.312 0 .531.219.219.219.219.531V4.5h2.5q.312 0 .531.219.219.219.219.531 0 .312-.219.531Q13.562 6 13.25 6Zm.75 12q-.625 0-1.062-.438Q6 17.125 6 16.5v-1.75h3.25q.312 0 .531-.219Q10 14.312 10 14q0-.312-.219-.531-.219-.219-.531-.219H6v-1.5h3.25q.312 0 .531-.219Q10 11.312 10 11q0-.312-.219-.531-.219-.219-.531-.219H6V9.5q0-1.042.729-1.771Q7.458 7 8.5 7h3q1.042 0 1.771.729Q14 8.458 14 9.5v7q0 .625-.438 1.062Q13.125 18 12.5 18Z"/></svg>