<svg xmlns="http://www.w3.org/2000/svg" height="20" width="20"><path d="M7.5 17v-4.104q-1.167-.084-2.281-.292-1.115-.208-2.219-.5l.438-1.437q1.604.437 3.239.625 1.635.187 3.323.187 1.667 0 3.302-.187 1.636-.188 3.26-.625L17 12.104q-1.125.292-2.24.5-1.114.208-2.26.292V17Zm2.5-6.5q-.625 0-1.062-.438Q8.5 9.625 8.5 9q0-.604.438-1.052Q9.375 7.5 10 7.5q.604 0 1.052.448.448.448.448 1.052 0 .625-.448 1.062-.448.438-1.052.438Zm-5.75-2q-.542 0-.896-.354T3 7.25q0-.521.354-.885Q3.708 6 4.25 6q.521 0 .885.365.365.364.365.885 0 .542-.365.896-.364.354-.885.354Zm11.5 0q-.542 0-.896-.354T14.5 7.25q0-.521.354-.885Q15.208 6 15.75 6q.521 0 .885.365.365.364.365.885 0 .542-.365.896-.364.354-.885.354Zm-9.25-3q-.542 0-.896-.354T5.25 4.25q0-.521.354-.885Q5.958 3 6.5 3q.521 0 .885.365.365.364.365.885 0 .542-.365.896-.364.354-.885.354Zm7 0q-.542 0-.896-.354t-.354-.896q0-.521.354-.885Q12.958 3 13.5 3q.521 0 .885.365.365.364.365.885 0 .542-.365.896-.364.354-.885.354Zm-3.5-1q-.542 0-.896-.354T8.75 3.25q0-.521.354-.885Q9.458 2 10 2q.521 0 .885.365.365.364.365.885 0 .542-.365.896-.364.354-.885.354Z"/></svg>