<svg xmlns="http://www.w3.org/2000/svg" height="20" viewBox="0 96 960 960" width="20"><path d="M480 816q-59 0-113.5 18.5T265 888h430q-46-35-101-53.5T480 816Zm0-72q57 0 112 14t104 43V264H264v537q49-29 104-43t112-14Zm0-120q-30 0-51-21t-21-51q0-30 21-51t51-21q30 0 51 21t21 51q0 30-21 51t-51 21ZM263.717 960Q234 960 213 938.85T192 888V264q0-29.7 21.162-50.85Q234.324 192 264.04 192h432.243Q726 192 747 213.15T768 264v624q0 29.7-21.162 50.85Q725.676 960 695.96 960H263.717Zm216.525-264Q540 696 582 653.758q42-42.243 42-102Q624 492 581.758 450q-42.243-42-102-42Q420 408 378 450.242q-42 42.243-42 102Q336 612 378.242 654q42.243 42 102 42ZM480 552Z"/></svg>