<svg xmlns="http://www.w3.org/2000/svg" height="20" width="20"><path d="M7.917 12.5V7.5H9.208V9.146H10.812V7.5H12.104V12.5H10.812V10.438H9.208V12.5ZM2.5 12.5V7.5H5.375Q5.875 7.5 6.271 7.896Q6.667 8.292 6.667 8.792V9.583Q6.667 10.083 6.271 10.479Q5.875 10.875 5.375 10.875H3.792V12.5ZM3.792 9.583H5.375V8.792H3.792ZM13.75 12.5V7.5H16.625Q17.125 7.5 17.521 7.896Q17.917 8.292 17.917 8.792V9.583Q17.917 10.083 17.521 10.479Q17.125 10.875 16.625 10.875H15.042V12.5ZM15.042 9.583H16.625V8.792H15.042Z"/></svg>