<svg xmlns="http://www.w3.org/2000/svg" height="20" width="20"><path d="m14.167 12.042-1.063-1.063 1.563-1.562q.416-.417.625-.948.208-.531.208-1.094 0-1.187-.844-2.031-.844-.844-2.031-.844-.583 0-1.104.208-.521.209-.938.625L9.021 6.896 7.958 5.833l1.563-1.562q.604-.625 1.417-.948Q11.75 3 12.625 3q1.833 0 3.104 1.271Q17 5.542 17 7.375q0 .875-.333 1.687-.334.813-.938 1.417ZM7.375 15.5q.583 0 1.104-.208.521-.209.938-.625l1.562-1.563-4.062-4.083-1.563 1.562q-.416.417-.625.938-.208.521-.208 1.104 0 1.187.833 2.031.834.844 2.021.844ZM16 18.125l-3.958-3.958-1.563 1.562q-.604.604-1.417.938Q8.25 17 7.375 17q-1.833 0-3.104-1.271Q3 14.458 3 12.625q0-.875.333-1.687.334-.813.938-1.417l1.583-1.563-3.979-3.979 1.063-1.062 14.124 14.145Zm-7.062-7.063Zm2.124-2.124Z"/></svg>