<svg xmlns="http://www.w3.org/2000/svg" height="20" viewBox="0 -960 960 960" width="20"><path d="M479.788-168Q450-168 429-146.85 408-125.7 408-96H288q-29.7 0-50.85-21.15Q216-138.3 216-168v-624q0-29.7 21.15-50.85Q258.3-864 288-864h120q0 30 21.212 51 21.213 21 51 21Q510-792 531-813.15q21-21.15 21-50.85h120q29.7 0 50.85 21.15Q744-821.7 744-792v624q0 29.7-21.15 50.85Q701.7-96 672-96H552q0-30-21.212-51-21.213-21-51-21Zm.212-72q38 0 71.426 19.35Q584.853-201.3 605-168h67v-624h-67q-20.147 33.3-53.574 52.65Q518-720 480-720t-71.426-19.35Q375.147-758.7 355-792h-67v624h67q20.147-33.3 53.574-52.65Q442-240 480-240Zm0-240Z"/></svg>