<svg xmlns="http://www.w3.org/2000/svg" height="20" width="20"><path d="M12.062 8.5 11 7.438 12.938 5.5 11 3.562 12.062 2.5 14 4.438 15.938 2.5 17 3.562 15.062 5.5 17 7.438 15.938 8.5 14 6.562ZM2 9l4-7 4 7Zm4 8q-1.25 0-2.125-.875T3 14q0-1.25.875-2.125T6 11q1.25 0 2.125.875T9 14q0 1.25-.875 2.125T6 17Zm0-1.5q.625 0 1.062-.438Q7.5 14.625 7.5 14t-.438-1.062Q6.625 12.5 6 12.5t-1.062.438Q4.5 13.375 4.5 14t.438 1.062Q5.375 15.5 6 15.5Zm-1.396-8h2.792L6 5.021ZM11 17v-6h6v6Zm1.5-1.5h3v-3h-3ZM6.021 6.25Zm0 7.688Zm7.958 0Z"/></svg>