<svg xmlns="http://www.w3.org/2000/svg" height="20" width="20"><path d="M10.5 4q0 .625-.438 1.062Q9.625 5.5 9 5.5q-.208 0-.417-.062-.208-.063-.375-.167-.479.104-.854.427t-.521.802H17L16 12h-3.458v-1.5h2.208q.104-.625.229-1.25T15.208 8H4.792q.104.625.229 1.25t.229 1.25h2.208V12H4L3 6.5h2.292q.146-.917.739-1.604.594-.688 1.469-.979.042-.605.469-1.011Q8.396 2.5 9 2.5q.625 0 1.062.438.438.437.438 1.062ZM8.312 15.5h3.376l.604-5H7.708ZM7 17l-.771-6.312q-.083-.667.375-1.178Q7.062 9 7.729 9h4.542q.667 0 1.125.51.458.511.375 1.178L13 17Z"/></svg>