<svg xmlns="http://www.w3.org/2000/svg" height="20" width="20"><path d="M4 12 3 6.5h2.292q.146-.917.739-1.604.594-.688 1.469-.979.042-.605.469-1.011Q8.396 2.5 9 2.5q.625 0 1.062.438.438.437.438 1.062t-.438 1.062Q9.625 5.5 9 5.5q-.208 0-.417-.062-.208-.063-.375-.167-.479.104-.854.427t-.521.802H17L16 12h-1.896l.167-1.25q.104-.896-.49-1.573-.593-.677-1.51-.677H7.729q-.917 0-1.51.677-.594.677-.49 1.573L5.896 12Zm3.438 4.5-.709-5.875q-.041-.458.24-.792.281-.333.76-.333h4.542q.479 0 .76.333.281.334.24.792l-.709 5.875Z"/></svg>