<svg xmlns="http://www.w3.org/2000/svg" height="20" width="20"><path d="m13.812 11.708 3.376-3.354 1.062 1.063-3.375 3.354ZM1.75 16v-2q0-.438.24-.823.239-.385.656-.552.396-.167.75-.385.354-.219.729-.448l1.125 1.104q.104.125.26.125.157 0 .261-.125.104-.104.104-.25 0-.146-.104-.271l-1.042-1.042q.167-.125.313-.271.146-.145.291-.312l1.021 1.042q.104.125.261.125.156 0 .281-.125.104-.104.104-.25 0-.146-.104-.292l-1.084-1.062q.105-.167.24-.334.136-.166.24-.354l1.146 1.125q.104.125.25.125.145 0 .27-.125.104-.104.104-.25 0-.146-.104-.271l-1.27-1.292 1.291-2.958L11.333 2.5l5.313 5.312L8.854 16Z"/></svg>