<svg xmlns="http://www.w3.org/2000/svg" height="20" viewBox="0 96 960 960" width="20"><path d="M168 504h624-624Zm72 408V768H96V528q0-40 28-68t68-28h576q40 0 68 28t28 68v20q-17-8-34.5-12t-37.5-6q-5-11-15.5-18.5T753 504H206q-16.15 0-27.075 11.04T168 542.4V696h72v-72h337q-12 16-21.5 34T540 696H312v144h228q6 20 15.5 38t21.5 34H240Zm408-480V312H312v120h-72V240h480v192h-72Zm24 480q-10.2 0-17.1-6.9-6.9-6.9-6.9-17.1V744q0-10 7-17.5t17-6.5h24v-48q0-29.7 21.212-50.85 21.213-21.15 51-21.15Q798 600 819 621.15q21 21.15 21 50.85v48h24q10.2 0 17.1 6.9 6.9 6.9 6.9 17.1v144q0 10.2-6.9 17.1-6.9 6.9-17.1 6.9H672Zm60-192h72v-48q0-15.3-10.289-25.65-10.29-10.35-25.5-10.35Q753 636 742.5 646.35 732 656.7 732 672v48Z"/></svg>