<svg xmlns="http://www.w3.org/2000/svg" height="20" viewBox="0 96 960 960" width="20"><path d="M672 912q-10.2 0-17.1-6.9-6.9-6.9-6.9-17.1V744q0-10 7-17.5t17-6.5h24v-48q0-29.7 21.212-50.85 21.213-21.15 51-21.15Q798 600 819 621.15q21 21.15 21 50.85v48h24q10.2 0 17.1 6.9 6.9 6.9 6.9 17.1v144q0 10.2-6.9 17.1-6.9 6.9-17.1 6.9H672Zm60-192h72v-48q0-15.3-10.289-25.65-10.29-10.35-25.5-10.35Q753 636 742.5 646.35 732 656.7 732 672v48ZM240 912V768H96V528q0-40 28-68t68-28h576q40 0 68 28t28 68v21q-23-11-47.583-16-24.584-5-50.417-5-79 0-142 46.5T538 696H312v144h227q6.482 19.871 15.741 37.935Q564 896 576 912H240Zm0-528V240h480v144H240Z"/></svg>