<svg xmlns="http://www.w3.org/2000/svg" height="20" viewBox="0 96 960 960" width="20"><path d="M216 648v-72h72v72h-72Zm-72-72v-72h72v72h-72Zm336-264v-72h72v72h-72Zm-288 96h120V288H192v120Zm-48 48V240h216v216H144Zm48 408h120V744H192v120Zm-48 48V696h216v216H144Zm504-504h120V288H648v120Zm-48 48V240h216v216H600ZM360 648v-72h-72v-72h144v144h-72Zm48-192V312h72v72h72v72H408Zm-180-84v-48h48v48h-48Zm0 456v-48h48v48h-48Zm456-456v-48h48v48h-48Zm-72 540V780H480v-72h132V576h72v132h132v72H684v132h-72Z"/></svg>