<svg xmlns="http://www.w3.org/2000/svg" height="20" width="20"><path d="M10 19q-2.354 0-4.323-1.094-1.969-1.094-3.177-2.927V17.5H1v-5h5V14H3.646q1 1.583 2.666 2.542Q7.979 17.5 10 17.5q1.562 0 2.927-.594t2.375-1.604q1.01-1.01 1.604-2.375.594-1.365.594-2.927H19q0 1.875-.708 3.51-.709 1.636-1.927 2.855-1.219 1.218-2.855 1.927Q11.875 19 10 19Zm-9-9q0-1.875.708-3.51.709-1.636 1.927-2.855Q4.854 2.417 6.49 1.708 8.125 1 10 1q2.354 0 4.323 1.094 1.969 1.094 3.177 2.927V2.5H19v5h-5V6h2.354q-1-1.583-2.666-2.542Q12.021 2.5 10 2.5q-1.562 0-2.927.594T4.698 4.698q-1.01 1.01-1.604 2.375Q2.5 8.438 2.5 10Zm9 5q.438 0 .74-.302t.302-.74q0-.437-.302-.75-.302-.312-.74-.312t-.74.302q-.302.302-.302.74 0 .437.302.75.302.312.74.312Zm-.75-3.146h1.521q0-.792.146-1.125.145-.333.708-.875.5-.479.854-.989.354-.511.354-1.261 0-1.187-.812-1.896Q11.208 5 10 5q-1.042 0-1.792.542-.75.541-1.083 1.541l1.375.584q.167-.521.562-.875.396-.354.938-.354.583 0 .969.322.385.323.385.865 0 .479-.344.875-.343.396-.739.792-.729.687-.875 1.125-.146.437-.146 1.437Z"/></svg>