<svg xmlns="http://www.w3.org/2000/svg" height="20" width="20"><path d="M13.5 16h1v-2h-1Zm.5-3q.208 0 .354-.135.146-.136.146-.365 0-.208-.146-.354T14 12q-.229 0-.365.146-.135.146-.135.354 0 .229.135.365.136.135.365.135ZM4.5 3.5v13-13V7ZM6 12h2.875q.167-.417.375-.781.208-.365.5-.719H6Zm0 3h2.583q-.083-.354-.093-.74-.011-.385.031-.76H6Zm-1.5 3q-.625 0-1.062-.438Q3 17.125 3 16.5v-13q0-.625.438-1.062Q3.875 2 4.5 2H11l4 4v2.604q-.375-.083-.76-.094-.386-.01-.74.032V7H10V3.5H4.5v13h4.583q.229.438.5.812.271.376.625.688Zm9.5-8q1.667 0 2.833 1.167Q18 12.333 18 14q0 1.667-1.167 2.833Q15.667 18 14 18q-1.667 0-2.833-1.167Q10 15.667 10 14q0-1.667 1.167-2.833Q12.333 10 14 10Z"/></svg>