<svg xmlns="http://www.w3.org/2000/svg" height="20" width="20"><path d="M14 16q.812 0 1.406-.583Q16 14.833 16 14q0-.812-.594-1.406Q14.812 12 14 12q-.667 0-1.333.51Q12 13.021 12 14q0 .833.583 1.417Q13.167 16 14 16Zm3.938 3-2.063-2.042q-.417.271-.885.407-.469.135-.99.135-1.458 0-2.479-1.021Q10.5 15.458 10.5 14q0-1.438 1.021-2.469T14 10.5q1.438 0 2.469 1.031T17.5 14q0 .542-.146 1.01-.146.469-.416.886L19 17.958ZM4.5 18q-.625 0-1.062-.438Q3 17.125 3 16.5v-13q0-.625.438-1.062Q3.875 2 4.5 2H11l4 4v3.104q-.25-.042-.5-.073Q14.25 9 14 9q-1.062 0-1.979.406t-1.604 1.115L6 10.5V12h3.417q-.167.354-.261.729t-.135.771H6V15h3.104q.167.896.656 1.677.49.781 1.219 1.323ZM10 7h3.5L10 3.5 13.5 7 10 3.5Z"/></svg>