<svg xmlns="http://www.w3.org/2000/svg" height="20" viewBox="0 96 960 960" width="20"><path d="M890.902 812.851Q877 820 863.487 814.923T843 796l-15-29q-7-14-1.902-27.851 5.097-13.851 19-21Q859 711 872.5 715.5 886 720 893 734l15 30q7 14 1.902 27.851-5.097 13.851-19 21ZM304 812q-14 7-28 2.5T255 796l-48-96q-7-14-1.902-27.521 5.097-13.522 19-20.5Q238 645 251.5 649.5 265 654 272 668l48 96q7 14 2.5 27.5T304 812Zm180.211 4Q469 816 458.5 805.711q-10.5-10.29-10.5-25.5Q448 765 458.289 754.5q10.29-10.5 25.5-10.5Q499 744 509.5 754.289q10.5 10.29 10.5 25.5Q520 795 509.711 805.5q-10.29 10.5-25.5 10.5ZM696 812q-14 7-27.5 2.5T648 796L492 484q-7-14-2.5-28t18.5-21q14-7 27.513-1.923Q549.026 438.154 556 452l156 312q7 14 2.5 27.5T696 812Zm-244-96q-14 7-27.513 1.923Q410.974 712.846 404 699L248 388q-7-14-2.5-27.5T264 340q14-7 27.5-2.5T312 356l156 312q7 14 2.5 27.5T452 716Zm364.211-20Q801 696 790.5 685.711q-10.5-10.29-10.5-25.5Q780 645 790.289 634.5q10.29-10.5 25.5-10.5Q831 624 841.5 634.289q10.5 10.29 10.5 25.5Q852 675 841.711 685.5q-10.29 10.5-25.5 10.5Zm-630-84Q171 612 160.5 601.711q-10.5-10.29-10.5-25.5Q150 561 160.289 550.5q10.29-10.5 25.5-10.5Q201 540 211.5 550.289q10.5 10.29 10.5 25.5Q222 591 211.711 601.5q-10.29 10.5-25.5 10.5ZM778 585q-14 7-27.5 2t-20.741-18.565l-90.518-180.87Q632 374 637.098 360.479q5.097-13.522 19-20.5Q670 333 683.5 337.5q13.5 4.5 20.672 18.065l89.656 180.87Q801 550 796.5 564q-4.5 14-18.5 21Zm-630-85q-14 7-27.5 2.5T100 484l-48-96q-7-14-2.5-27.5T68 340q14-7 27.5-2.5T116 356l48 96q7 14 2.5 27.5T148 500Zm328.211-92Q461 408 450.5 397.711q-10.5-10.29-10.5-25.5Q440 357 450.289 346.5q10.29-10.5 25.5-10.5Q491 336 501.5 346.289q10.5 10.29 10.5 25.5Q512 387 501.711 397.5q-10.29 10.5-25.5 10.5Z"/></svg>