<svg xmlns="http://www.w3.org/2000/svg" height="20" width="20"><path d="m5 13 3-3-3-3-1.062 1.062L5.125 9.25H2v1.5h3.125l-1.187 1.188Zm8.625-6q.313 0 .531-.219.219-.219.219-.531 0-.312-.219-.531-.218-.219-.531-.219-.313 0-.531.219-.219.219-.219.531 0 .312.219.531.218.219.531.219Zm-2.875 8.5h5.75v-11h-5.75ZM3.5 17q-.625 0-1.062-.438Q2 16.125 2 15.5v-3h1.5v3h5.75v-11H3.5v3H2v-3q0-.625.438-1.062Q2.875 3 3.5 3h13q.625 0 1.062.438Q18 3.875 18 4.5v11q0 .625-.438 1.062Q17.125 17 16.5 17ZM9.25 4.5v11Z"/></svg>