<svg xmlns="http://www.w3.org/2000/svg" height="20" width="20"><path d="m9.167 18.333-1.063-1.062 1.021-1.021h-2.25q-.292.75-.927 1.25-.636.5-1.448.5-1.042 0-1.771-.729Q2 16.542 2 15.5q0-.812.5-1.458.5-.646 1.25-.938v-6.25Q3 6.562 2.5 5.927T2 4.5q0-1.062.729-1.781Q3.458 2 4.5 2q.812 0 1.448.49.635.489.927 1.26h2.25L8.104 2.729l1.063-1.062L12 4.5 9.167 7.333 8.104 6.271 9.125 5.25h-2.25q-.208.562-.625.979-.417.417-1 .625v6.271q.583.208 1 .625.417.417.625 1h2.25l-1.021-1.021 1.063-1.062L12 15.5ZM15.5 18q-1.062 0-1.781-.719Q13 16.562 13 15.5q0-.792.479-1.438.479-.645 1.271-.916V6.854q-.792-.271-1.271-.916Q13 5.292 13 4.5q0-1.062.719-1.781Q14.438 2 15.5 2q1.062 0 1.781.719Q18 3.438 18 4.5q0 .792-.479 1.438-.479.645-1.271.916v6.271q.771.292 1.26.927.49.636.49 1.448 0 1.042-.719 1.771Q16.562 18 15.5 18Zm-11-1.5q.417 0 .708-.292.292-.291.292-.708t-.292-.708Q4.917 14.5 4.5 14.5t-.708.292q-.292.291-.292.708t.292.708q.291.292.708.292Zm11 0q.417 0 .708-.292.292-.291.292-.708t-.292-.708q-.291-.292-.708-.292t-.708.292q-.292.291-.292.708t.292.708q.291.292.708.292Zm-11-11q.417 0 .708-.292.292-.291.292-.708t-.292-.708Q4.917 3.5 4.5 3.5t-.708.292Q3.5 4.083 3.5 4.5t.292.708q.291.292.708.292Zm11 0q.417 0 .708-.292.292-.291.292-.708t-.292-.708Q15.917 3.5 15.5 3.5t-.708.292q-.292.291-.292.708t.292.708q.291.292.708.292Zm-11 10Zm11 0Zm-11-11Zm11 0Z"/></svg>