<svg xmlns="http://www.w3.org/2000/svg" height="20" width="20"><path d="M9.167 7.312 8.104 6.25l1.021-1.021h-2.25q-.208.563-.625.979-.417.417-1 .625v6.271q.75.292 1.25.927.5.636.5 1.469 0 1.042-.729 1.771Q5.542 18 4.5 18q-1.042 0-1.771-.74Q2 16.521 2 15.479q0-.812.5-1.458.5-.646 1.25-.938v-6.25Q3 6.542 2.5 5.906 2 5.271 2 4.479q0-1.062.729-1.781.729-.719 1.771-.719.812 0 1.448.49.635.489.927 1.26h2.25L8.104 2.708l1.063-1.062L12 4.479ZM15.5 1.979q1.062 0 1.781.719.719.719.719 1.781 0 1.063-.719 1.781-.719.719-1.781.719-1.062 0-1.781-.719Q13 5.542 13 4.479q0-1.062.719-1.781.719-.719 1.781-.719Zm-11 14.5q.417 0 .708-.291.292-.292.292-.709t-.292-.708q-.291-.292-.708-.292t-.708.292q-.292.291-.292.708t.292.709q.291.291.708.291Zm0-11q.417 0 .708-.291.292-.292.292-.709t-.292-.708q-.291-.292-.708-.292t-.708.292q-.292.291-.292.708t.292.709q.291.291.708.291Zm11 0q.417 0 .708-.291.292-.292.292-.709t-.292-.708q-.291-.292-.708-.292t-.708.292q-.292.291-.292.708t.292.709q.291.291.708.291Zm-11 11q-.417 0-.708-.291-.292-.292-.292-.709t.292-.708q.291-.292.708-.292t.708.292q.292.291.292.708t-.292.709q-.291.291-.708.291Zm0-11q-.417 0-.708-.291-.292-.292-.292-.709t.292-.708q.291-.292.708-.292t.708.292q.292.291.292.708t-.292.709q-.291.291-.708.291Zm11 0q-.417 0-.708-.291-.292-.292-.292-.709t.292-.708q.291-.292.708-.292t.708.292q.292.291.292.708t-.292.709q-.291.291-.708.291Zm-2.417 5.25 1.584 1.604 1.583 1.605L12.188 18H9v-3.167Zm3.855 2.521-3.188-3.188.625-.624Q14.812 9 15.427 9t1.052.438l1.083 1.083q.438.437.438 1.052t-.438 1.052Z"/></svg>