<svg xmlns="http://www.w3.org/2000/svg" height="20" width="20"><path d="M4.333 15.646q-1.125-1.125-1.729-2.584Q2 11.604 2 10q0-1.604.604-3.062.604-1.459 1.729-2.605l1.084 1.063Q4.479 6.312 3.99 7.5 3.5 8.688 3.5 10q0 1.292.49 2.469.489 1.177 1.406 2.114ZM7.75 15q-.521 0-.885-.365-.365-.364-.365-.885t.365-.885q.364-.365.885-.365t.885.365q.365.364.365.885t-.365.885Q8.271 15 7.75 15Zm2.75-4V9.292l-1.479.854-.75-1.292L9.75 8l-1.479-.854.75-1.292 1.479.854V5H12v1.708l1.479-.854.75 1.292L12.75 8l1.479.854-.75 1.292L12 9.292V11Zm5.167 4.646-1.063-1.063q.917-.916 1.406-2.093.49-1.178.49-2.49 0-1.312-.479-2.5t-1.417-2.104l1.063-1.063q1.125 1.146 1.729 2.605Q18 8.396 18 10q0 1.604-.604 3.062-.604 1.459-1.729 2.584Z"/></svg>