<svg xmlns="http://www.w3.org/2000/svg" height="20" width="20"><path d="M3.5 16q-.625 0-1.062-.438Q2 15.125 2 14.5v-9q0-.625.438-1.062Q2.875 4 3.5 4h13q.625 0 1.062.438Q18 4.875 18 5.5v5h-1.5V7h-13v7.5h7V16ZM16 20q-1.521 0-2.656-1-1.136-1-1.323-2.5h1.021q.27 1.188 1.073 1.844Q14.917 19 16 19q1.25 0 2.125-.875T19 16q0-1.25-.875-2.125T16 13q-.646 0-1.219.271-.573.271-1.031.729H15v1h-3v-3h1v1.354q.583-.646 1.354-1Q15.125 12 16 12q1.667 0 2.833 1.167Q20 14.333 20 16q0 1.667-1.167 2.833Q17.667 20 16 20Z"/></svg>