<svg xmlns="http://www.w3.org/2000/svg" height="20" width="20"><path d="m11.5 14.458 1.75-1.75V11.5v1.208l-1.75 1.75Zm5 0-1.75-1.75V11.5v1.208ZM10 10ZM2 8V5.5q0-.625.438-1.062Q2.875 4 3.5 4h13q.625 0 1.062.438Q18 4.875 18 5.5V9h-1.5V5.5h-13V8Zm1.5 8q-.625 0-1.062-.438Q2 15.125 2 14.5V12h1.5v2.5h4.521V16Zm2.75-2.521q-.229 0-.396-.104-.166-.104-.271-.271L4.292 10.75H2v-1.5h2.75q.208 0 .375.104t.271.292l.854 1.542 2.333-4.292q.105-.188.282-.281.177-.094.385-.094.208 0 .375.094.167.093.271.281l1.187 2.166q-.375.063-.708.24-.333.177-.604.469l-.521-.959-2.354 4.292q-.104.167-.271.271-.167.104-.375.104ZM10.479 19q-.625 0-1.062-.438-.438-.437-.438-1.062l.042-2.708 1.083-3.709q.146-.479.552-.781.406-.302.906-.302h1.688V8.5h1.5V10h1.688q.5 0 .895.312.396.313.542.792L19 15v2.5q0 .625-.448 1.062Q18.104 19 17.5 19H16q-.625 0-1.062-.438-.438-.437-.438-1.062v-1H16v1h1.5v-2.375L16.417 11.5H14.75v1.208l1.75 1.75-1.062 1.042L14 14.062 12.542 15.5 11.5 14.458l1.75-1.75V11.5h-1.688L10.5 15.125V17.5H12v-1h1.5v1q0 .625-.448 1.062Q12.604 19 12 19ZM14 14.5Z"/></svg>