<svg xmlns="http://www.w3.org/2000/svg" height="20" viewBox="0 -960 960 960" width="20"><path d="M311-648q-35 0-59.5-24.5T227-732q0-35 24.5-59.5T311-816q35 0 59.5 24.5T395-732q0 35-24.5 59.5T311-648ZM708-96l-96-168H374q-34 0-60-21t-34-54l-41-184q-7-34 12.5-63t53.5-36q23-5 45 4.5t38 27.5l92 102 97-65-16-8q-7-3-9.5-10t.5-14l49-105q3-7 10-9t14 1l53 25q7 3 9.5 10t-.5 14l-39 85 23 35-214 143-25-44 20 70h173q19 0 35.5 9.5T687-324l105 180-84 48Zm-180-48H251q-26 0-46-16t-25-42L96-624h73l84 408h275v72Z"/></svg>