<svg xmlns="http://www.w3.org/2000/svg" height="20" viewBox="0 -960 960 960" width="20"><path d="M352-96q-21-27-30.5-56.5T312-216q0-60 34-108.5t89-69.5q27-51 77.5-80.5T624-504q24 0 49 6t47 17v-112q0-15-5-28t-16-23L506-843q-11-11-23.5-16t-26.5-5q-14 0-27.5 5.5T405-843L213-644q-11 11-16 23.5t-5 27.5v425q0 30 21 51t51 21h88Zm103-479q-25 0-42.5-17.5T395-635q0-24 17.5-41.5T455-694q25 0 42.5 17.5T515-635q0 25-17.5 42.5T455-575Zm49 479q-51 0-85.5-34.5T384-216q0-45 29.5-78.5T488-334q13-45 50.5-71.5T624-432q54 0 93.5 35t47.5 86q42 4 70.5 34.5T864-204q0 45-32.5 76.5T756-96H504Z"/></svg>