<svg xmlns="http://www.w3.org/2000/svg" height="20" width="20"><path d="M7 10v2q0 1.25.875 2.125T10 15q1.25 0 2.125-.875T13 12v-2Zm3 3.5q-.625 0-1.062-.438Q8.5 12.625 8.5 12v-.5h3v.5q0 .625-.438 1.062-.437.438-1.062.438ZM7 6q-.792 0-1.396.562-.604.563-.833 1.5l1.458.376q.104-.438.313-.688Q6.75 7.5 7 7.5t.458.25q.209.25.313.688l1.458-.376q-.229-.937-.833-1.5Q7.792 6 7 6Zm6 0q-.792 0-1.396.562-.604.563-.833 1.5l1.458.376q.104-.438.313-.688.208-.25.458-.25t.458.25q.209.25.313.688l1.458-.376q-.229-.937-.833-1.5Q13.792 6 13 6Zm-3 12q-1.646 0-3.104-.625-1.458-.625-2.552-1.719t-1.719-2.552Q2 11.646 2 10q0-1.667.625-3.115.625-1.447 1.719-2.541Q5.438 3.25 6.896 2.625T10 2q1.667 0 3.115.625 1.447.625 2.541 1.719 1.094 1.094 1.719 2.541Q18 8.333 18 10q0 1.646-.625 3.104-.625 1.458-1.719 2.552t-2.541 1.719Q11.667 18 10 18Z"/></svg>