<svg xmlns="http://www.w3.org/2000/svg" height="20" width="20"><path d="M5.5 13H7v-.479q0-1.25.875-2.125T10 9.521q1.25 0 2.125.875T13 12.521V13h1.5v-.479q0-1.875-1.312-3.188Q11.875 8.021 10 8.021q-1.875 0-3.188 1.312Q5.5 10.646 5.5 12.521Zm.604-5.25q.834-.104 1.75-.615.917-.51 1.458-1.135L8.188 5q-.376.417-1.053.792-.677.375-1.239.458Zm7.792 0 .208-1.5q-.562-.083-1.239-.458T11.812 5l-1.124 1q.541.625 1.458 1.135.916.511 1.75.615ZM10 18q-1.646 0-3.104-.625-1.458-.625-2.552-1.719t-1.719-2.552Q2 11.646 2 10q0-1.667.625-3.115.625-1.447 1.719-2.541Q5.438 3.25 6.896 2.625T10 2q1.667 0 3.115.625 1.447.625 2.541 1.719 1.094 1.094 1.719 2.541Q18 8.333 18 10q0 1.646-.625 3.104-.625 1.458-1.719 2.552t-2.541 1.719Q11.667 18 10 18Z"/></svg>