<svg xmlns="http://www.w3.org/2000/svg" height="20" width="20"><path d="M9 15h2q1.042 0 1.771-.729.729-.729.729-1.771 0-1.042-.729-1.771Q12.042 10 11 10H9q-1.042 0-1.771.729-.729.729-.729 1.771 0 1.042.729 1.771Q7.958 15 9 15Zm0-1.5q-.417 0-.708-.292Q8 12.917 8 12.5t.292-.708Q8.583 11.5 9 11.5h2q.417 0 .708.292.292.291.292.708t-.292.708q-.291.292-.708.292Zm-3.5-5H7q1.104 0 1.677-.74.573-.739.573-1.76h-1.5q0 .375-.135.688Q7.479 7 7 7H5.5Zm7.521 0h1.5V7h-1.5q-.479 0-.615-.312-.135-.313-.135-.688h-1.5q0 1.021.573 1.76.573.74 1.677.74ZM10 18q-1.646 0-3.104-.625-1.458-.625-2.552-1.719t-1.719-2.552Q2 11.646 2 10q0-1.667.625-3.115.625-1.447 1.719-2.541Q5.438 3.25 6.896 2.625T10 2q1.667 0 3.115.625 1.447.625 2.541 1.719 1.094 1.094 1.719 2.541Q18 8.333 18 10q0 1.646-.625 3.104-.625 1.458-1.719 2.552t-2.541 1.719Q11.667 18 10 18Z"/></svg>