<svg xmlns="http://www.w3.org/2000/svg" height="20" width="20"><path d="M10 14.5q.833 0 1.604-.385.771-.386 1.438-1.115l-1.084-1q-.437.479-.937.729t-1.021.25q-.521 0-1.021-.25-.5-.25-.937-.729l-1.084 1q.667.729 1.438 1.115.771.385 1.604.385Zm0 3.5q-1.646 0-3.104-.625-1.458-.625-2.552-1.719t-1.719-2.552Q2 11.646 2 10q0-1.667.625-3.115.625-1.447 1.719-2.541Q5.438 3.25 6.896 2.625T10 2q1.667 0 3.115.625 1.447.625 2.541 1.719 1.094 1.094 1.719 2.541Q18 8.333 18 10q0 1.646-.625 3.104-.625 1.458-1.719 2.552t-2.541 1.719Q11.667 18 10 18Zm-3-8q.854 0 1.427-.604.573-.604.802-1.458l-1.458-.376q-.083.355-.261.646Q7.333 8.5 7 8.5t-.51-.292q-.178-.291-.261-.646l-1.458.376q.229.854.802 1.458Q6.146 10 7 10Zm6 0q.854 0 1.427-.604.573-.604.802-1.458l-1.458-.376q-.083.355-.261.646-.177.292-.51.292t-.51-.292q-.178-.291-.261-.646l-1.458.376q.229.854.802 1.458Q12.146 10 13 10Z"/></svg>