<svg xmlns="http://www.w3.org/2000/svg" height="20" width="20"><path d="M7 13h6v-1.5H7Zm.188-6q-.688 0-1.261.375t-.948.958l1.25.834q.167-.271.406-.459.24-.187.553-.187.312 0 .562.187.25.188.417.459l1.25-.834q-.396-.583-.969-.958T7.188 7Zm5.624 0q-.687 0-1.27.375-.584.375-.959.958l1.25.834q.167-.271.417-.459.25-.187.562-.187.313 0 .553.187.239.188.406.459l1.25-.834q-.375-.583-.948-.958T12.812 7ZM10 18q-1.646 0-3.104-.625-1.458-.625-2.552-1.719t-1.719-2.552Q2 11.646 2 10q0-1.667.625-3.115.625-1.447 1.719-2.541Q5.438 3.25 6.896 2.625T10 2q1.667 0 3.115.625 1.447.625 2.541 1.719 1.094 1.094 1.719 2.541Q18 8.333 18 10q0 1.646-.625 3.104-.625 1.458-1.719 2.552t-2.541 1.719Q11.667 18 10 18Zm0-8Zm0 6.5q2.708 0 4.604-1.896T16.5 10q0-2.708-1.896-4.604T10 3.5q-2.708 0-4.604 1.896T3.5 10q0 2.708 1.896 4.604T10 16.5Z"/></svg>