<svg xmlns="http://www.w3.org/2000/svg" height="20" viewBox="0 -960 960 960" width="20"><path d="M600-96q-33 0-52.5-19.5T528-168v-144q0-33 19.5-52.5T600-384h240q33 0 52.5 19.5T912-312v144q0 33-19.5 52.5T840-96H600Zm0-72h240v-144H600v144ZM403-96l-22-114q-23-9-44.5-21T296-259l-110 37-77-133 87-76q-2-12-3-24t-1-25q0-13 1-25t3-24l-87-77 77-133 110 38q19-16 40.5-28t44.5-21l22-114h154l22 114q23 9 44.5 21t40.5 28l110-37 77 133-87 76q2 19 3 36.5t-1 36.5H621q1-6 1.5-12.5t.5-12.5q0-60-42-101.5T479-624q-60 0-101.5 41.5T336-481q0 54 34.5 94t85.5 48v243h-53Z"/></svg>