<svg xmlns="http://www.w3.org/2000/svg" height="20" viewBox="0 -960 960 960" width="20"><path d="M600-96q-33 0-52.5-19.5T528-168v-144q0-33 19.5-52.5T600-384h240q33 0 52.5 19.5T912-312v144q0 33-19.5 52.5T840-96H600Zm0-72h240v-144H600v144ZM456-338q-51-8-85.5-48T336-480q0-60 42-102t102-42q60 0 102 42t42 102q0 6-.5 12t-1.5 12h-40q-10 0-19 1.5t-17 3.5q3-7 4.5-14t1.5-15q0-30-21-51t-51-21q-30 0-51 21t-21 51q0 30 21 51t51 21h3q-11 15-18 32.5t-9 37.5Zm24-142ZM403-96l-22-114q-23-9-44.5-21T296-259l-110 37-77-133 87-76q-2-12-3-24t-1-25q0-13 1-25t3-24l-87-77 77-133 110 38q19-16 40.5-28t44.5-21l22-114h154l22 114q23 9 44.5 21t40.5 28l110-37 77 133-87 76q2 12 3 24t1 25q0 6-.5 12t-1.5 12h-72q1-6 1.5-12t.5-12q0-18-3.5-37t-9.5-37l76-67-18-30-96 32q-26-30-58-49t-70-25l-19-99h-36l-19 99q-38 7-70.5 26T315-619l-96-32-18 30 76 67q-6 18-9.5 36.5T264-480q0 20 3 38.5t9 35.5l-75 67 17 30 96-32q27 32 63.5 51t78.5 25v169h-53Zm77-384Z"/></svg>