<svg xmlns="http://www.w3.org/2000/svg" height="20" viewBox="0 96 960 960" width="20"><path d="M480 960q-135-33-223.5-152.843Q168 687.314 168 541V312l312-120 312 120v229q0 146.314-88.5 266.157Q615 927 480 960Zm-96-264h192q10.2 0 17.1-6.9 6.9-6.9 6.9-17.1V528q0-10.2-6.9-17.1-6.9-6.9-17.1-6.9h-24v-24q0-29.7-21.212-50.85-21.213-21.15-51-21.15Q450 408 429 429.15 408 450.3 408 480v24h-24q-10.2 0-17.1 6.9-6.9 6.9-6.9 17.1v144q0 10.2 6.9 17.1 6.9 6.9 17.1 6.9Zm60-192v-24q0-15.3 10.289-25.65 10.29-10.35 25.5-10.35Q495 444 505.5 454.35 516 464.7 516 480v24h-72Z"/></svg>