<svg xmlns="http://www.w3.org/2000/svg" height="20" viewBox="0 -960 960 960" width="20"><path d="M672-48q-100 0-170-70t-70-170q0-100 70-170t170-70q100 0 170 70t70 170q0 28-6 54t-17 50q-3-6-7-11.5t-9-10.5l-39-39q3-11 4.5-21.5T840-288q0-70-49-119t-119-49q-70 0-119 49t-49 119q0 70 49 119t119 49q11 0 21.5-1.5T715-126l39 39q5 5 10.5 8.5T776-72q-23 11-49.5 17.5T672-48Zm167-73q-11 11-25.5 11T788-121l-97-97q-6 2-19 2-30 0-51-21t-21-51q0-30 21-51t51-21q30 0 51 21t21 51q0-1-2 19l97 97q11 11 11 25.5T839-121ZM168-515v-229l312-120 312 120v167q-29-12-59-17.5t-61-5.5q-130 0-221 91t-91 221q0 45 12.5 86.5T408-122q-106-52-173-159.5T168-515Z"/></svg>