<svg xmlns="http://www.w3.org/2000/svg" height="20" viewBox="0 -960 960 960" width="20"><path d="M480-512Zm-72 390q-106-52-173-159.33Q168-388.67 168-515v-229l312-120 312 120v167q-17-7-35.03-12-18.04-5-36.97-8v-98l-240-92-240 92v180q0 81.24 33.27 153.67Q306.54-288.9 364-238q5 32 16 61t28 55Zm264 74q-100 0-170-70t-70-170q0-100 70-170t170-70q100 0 170 70t70 170q0 28.31-6 54.15Q900-208 889-184q-3.14-5.67-7.07-11.33Q878-201 873-206l-39-39q3-11 4.5-21.5T840-288q0-70-49-119t-119-49q-70 0-119 49t-49 119q0 70 49 119t119 49q11 0 21.5-1.5T715-126l39 39q5 5 10.5 8.5T776-72q-23 11-49.5 17.5T672-48Zm167-73q-11 11-25.67 11-14.66 0-25.33-11l-97-97q-6 2-19 2-29.7 0-50.85-21.21-21.15-21.21-21.15-51T621.21-339q21.21-21 51-21T723-338.85q21 21.15 21 50.85 0-1-2 19l97 97q11 10.91 11 25.45Q850-132 839-121Z"/></svg>