<svg xmlns="http://www.w3.org/2000/svg" height="20" width="20"><path d="M10.062 18q-1.666 0-3.135-.635-1.469-.636-2.562-1.73-1.094-1.093-1.73-2.562Q2 11.604 2 9.938q0-2.917 1.833-5.157Q5.667 2.542 8.583 2q-.354 2.062.24 3.917.594 1.854 2.031 3.291 1.396 1.396 3.292 1.98 1.896.583 3.854.229-.5 2.875-2.76 4.729Q12.979 18 10.062 18Zm0-1.5q1.834 0 3.417-.938 1.583-.937 2.396-2.541-1.729-.104-3.302-.823T9.771 10.25Q8.521 9 7.812 7.438q-.708-1.563-.833-3.313-1.604.854-2.541 2.417Q3.5 8.104 3.5 9.938q0 2.729 1.917 4.645Q7.333 16.5 10.062 16.5Zm-.291-6.25ZM15 8l-.938-2.062L12 5l2.062-.938L15 2l.938 2.062L18 5l-2.062.938Z"/></svg>