<svg xmlns="http://www.w3.org/2000/svg" height="20" viewBox="0 -960 960 960" width="20"><path d="M672-904q33 0 52.5 19.5t19.5 52.232V-376h-19l-53-53v-403H271l-43-43q9-14 24.5-21.5T288-904h384Zm-95 380-92-93q8.083-20.396 26.046-33.698T552.361-664Q582-664 603-642.939q21 21.062 21 50.637Q624-569 610.5-550.5T577-524Zm-241 76v-216l106 106q-6 51-28.523 80.5-22.522 29.5-56.756 29.5H336ZM168-208h522l-48-48H168v48ZM803-95l-41-41H96v-120q0-29.7 21.15-50.85Q138.3-328 168-328h402L288-610v234h-72v-306L55-843l51-51 748 748-51 51ZM429-208Zm43-423Zm-67 138Z"/></svg>