<svg xmlns="http://www.w3.org/2000/svg" height="20" viewBox="0 -960 960 960" width="20"><path d="M96-96v-120q0-30 21.15-51T168-288h624q29.7 0 50.85 21.15Q864-245.7 864-216v120H96Zm72-72h624v-48H168v48Zm48-168v-456.268Q216-825 235.5-844.5T288-864h384q33 0 52.5 19.5t19.5 52.232V-336h-72v-456H288v456h-72Zm120-72h20.597Q396-408 420-447.638t24-104.5Q444-617 420.15-656.5T356.7-696H336v288Zm216.212-72Q582-480 603-501.212q21-21.213 21-51Q624-582 602.788-603q-21.213-21-51-21Q522-624 501-602.788q-21 21.213-21 51Q480-522 501.212-501q21.213 21 51 21ZM480-168Zm0-396Z"/></svg>