<svg xmlns="http://www.w3.org/2000/svg" height="20" width="20"><path d="M5.792 10.875H7.542V7.458H5.792ZM9.125 14.208H10.875V13.333Q10.875 12.938 10.635 12.698Q10.396 12.458 10 12.458Q9.604 12.458 9.365 12.698Q9.125 12.938 9.125 13.333ZM12.458 10.875H14.208V7.458H12.458ZM10 18.333Q8.271 18.333 6.75 17.677Q5.229 17.021 4.104 15.896Q2.979 14.771 2.323 13.25Q1.667 11.729 1.667 10Q1.667 8.271 2.323 6.75Q2.979 5.229 4.104 4.104Q5.229 2.979 6.75 2.323Q8.271 1.667 10 1.667Q11.729 1.667 13.25 2.323Q14.771 2.979 15.896 4.104Q17.021 5.229 17.677 6.75Q18.333 8.271 18.333 10Q18.333 11.729 17.677 13.25Q17.021 14.771 15.896 15.896Q14.771 17.021 13.25 17.677Q11.729 18.333 10 18.333Z"/></svg>