<svg xmlns="http://www.w3.org/2000/svg" height="20" viewBox="0 -960 960 960" width="20"><path d="M444-432h72v-144h-72v144ZM240-192v-72h144v72H240Zm336 0v-72h144v72H576ZM300.21-432Q330-432 351-453.21t21-51Q372-534 350.79-555t-51-21Q270-576 249-554.79t-21 51Q228-474 249.21-453t51 21Zm360 0Q690-432 711-453.21t21-51Q732-534 710.79-555t-51-21Q630-576 609-554.79t-21 51Q588-474 609.21-453t51 21ZM168-312q-33 0-52.5-19.5T96-384v-240q0-33 19.5-52.5T168-696h624q33 0 52.5 19.5T864-624v240q0 33-19.5 52.5T792-312H168Zm0-72h624v-240H168v240Zm312-120Z"/></svg>