<svg xmlns="http://www.w3.org/2000/svg" height="20" width="20"><path d="M4.5 15.5v-11 11Zm1.5-8h8V6H6Zm0 3.25h3.75q.354-.438.792-.823.437-.385.916-.677H6ZM6 14h2.333q.063-.396.157-.771.093-.375.239-.729H6Zm-1.5 3q-.625 0-1.062-.438Q3 16.125 3 15.5v-11q0-.625.438-1.062Q3.875 3 4.5 3h11q.625 0 1.062.438Q17 3.875 17 4.5v4.042q-.354-.104-.729-.167-.375-.063-.771-.104V4.5h-11v11h3.771q.041.396.104.771t.167.729ZM15 19q-1.521 0-2.656-1-1.136-1-1.323-2.5h1.021q.27 1.188 1.073 1.844Q13.917 18 15 18q1.25 0 2.125-.875T18 15q0-1.25-.875-2.125T15 12q-.646 0-1.219.271-.573.271-1.031.729H14v1h-3v-3h1v1.354q.583-.646 1.354-1Q14.125 11 15 11q1.667 0 2.833 1.167Q19 13.333 19 15q0 1.667-1.167 2.833Q16.667 19 15 19Z"/></svg>