<svg xmlns="http://www.w3.org/2000/svg" height="20" width="20"><path d="M6 7.5h8V6H6ZM15 19q-1.521 0-2.656-1-1.136-1-1.323-2.5h1.021q.27 1.188 1.073 1.844Q13.917 18 15 18q1.25 0 2.125-.875T18 15q0-1.25-.875-2.125T15 12q-.646 0-1.219.271-.573.271-1.031.729H14v1h-3v-3h1v1.354q.583-.646 1.354-1Q14.125 11 15 11q1.667 0 2.833 1.167Q19 13.333 19 15q0 1.667-1.167 2.833Q16.667 19 15 19Zm-6.458-2H4.5q-.625 0-1.062-.438Q3 16.125 3 15.5v-11q0-.625.438-1.062Q3.875 3 4.5 3h11q.625 0 1.062.438Q17 3.875 17 4.5v4.042q-.479-.167-.99-.23Q15.5 8.25 15 8.25q-.979 0-1.875.26-.896.261-1.667.74H6v1.5h3.75q-.312.396-.573.833-.26.438-.448.917H6V14h2.333q-.041.25-.062.5-.021.25-.021.5 0 .5.062 1.01.063.511.23.99Z"/></svg>