<svg xmlns="http://www.w3.org/2000/svg" height="20" viewBox="0 -960 960 960" width="20"><path d="M531-358q23-23 21.5-54.5T525-464q-77-56-152.5-103.5T221-667q51 77 98.5 153t104.26 150.85Q443-337 474.5-335.5 506-334 531-358ZM192-192q-19.02 0-35.01-9Q141-210 132-227q-21-35-28.5-76T96-386q0-60 18.5-117.5T170-610l43 65q-23 37-34 78.13-11 41.14-11 82.87 0 31.53 6.5 61.26Q181-293 192-264h577q11-29 17-58.72t6-61.28q0-129.67-91.45-220.84Q609.09-696 479-696q-33.23 0-65.12 6.5Q382-683 353-669l-69-45q43.72-26.18 93.36-40.09Q427-768 479-768q80.09 0 150.04 30Q699-708 751-656t82.5 121.32Q864-465.36 864-386q0 42-8 83t-28 76q-10 17-26.1 26t-33.9 9H192Zm288-216Z"/></svg>