<svg xmlns="http://www.w3.org/2000/svg" height="20" viewBox="0 -960 960 960" width="20"><path d="M192-192q-18.64 0-34.32-9.5T132-227q-21-36-28.5-76.5T96-386q0-80 30.41-149.55 30.4-69.54 82.53-120.99 52.13-51.44 122.59-81.45Q402-768 481-768q19.75 0 39.5 2.18T560-760l-48 66q-7.95-1.33-15.5-1.67-7.55-.33-15.5-.33-131.07 0-222.03 91Q168-514 168-384q0 31.07 6 61.04Q180-293 191-264h577q11-29 17.5-59.09Q792-353.18 792-384q0-69-29-130.5T681-621l20-78q77 54 120 136.5T864-386q0 42-7.5 82.5T828-227q-10 16-25.68 25.5T768-192H192Zm258-150q30 14 59.47 2.15Q538.93-351.71 548-383q25.18-88 45.59-176Q614-647 634-737q-57 72-110 145.5T418.95-443.15Q401-417 410.5-386.5T450-342Zm31-65Z"/></svg>