<svg xmlns="http://www.w3.org/2000/svg" height="20" viewBox="0 -960 960 960" width="20"><path d="M192-192q-18.64 0-34.32-9.5T132-227q-21-36-28.5-76.5T96-386q0-94 43-176.5T259-699l20 78q-53 45-82 106.5T168-384q0 30.82 6.5 60.91Q181-293 192-264h577q11-29 17-58.96 6-29.97 6-61.04 0-130-90.97-221-90.96-91-222.03-91-7.95 0-15.5.33-7.55.34-15.5 1.67l-48-66q19.75-3.64 39.5-5.82T479-768q79.89 0 150.15 30.01t122.24 81.45q51.97 51.45 82.29 120.99Q864-466 864-386q0 42-7.5 82.5T828-227q-10 16-25.68 25.5T768-192H192Zm318-150q30-14 39.5-44.5t-8.45-56.65Q489-518 436-591.5T326-737q20 90 40.41 178 20.41 88 45.59 176 9.07 31.29 38.53 43.15Q480-328 510-342Zm-31-65Z"/></svg>