<svg xmlns="http://www.w3.org/2000/svg" height="20" width="20"><path d="M11.5 17q-.208 0-.354-.146T11 16.5v-3q0-.208.146-.354T11.5 13h2q.208 0 .354.146T14 13.5v3q0 .208-.146.354T13.5 17Zm.5-1h1v-2h-1Zm3 2v-2q0-.208.146-.354t.354-.146H17V15h-2v-1h2.5q.208 0 .354.146T18 14.5V16q0 .208-.146.354t-.354.146H16v.5h2v1Zm-5.5 0q-2.708 0-4.604-1.896T3 11.5q0-2 1.542-4.26Q6.083 4.979 9.5 2q3.125 2.667 4.812 5.135Q16 9.604 16 11.5h-1.5q0-1.396-1.135-3.115Q12.229 6.667 9.5 3.979 6.75 6.708 5.625 8.396 4.5 10.083 4.5 11.5q0 2.083 1.458 3.542Q7.417 16.5 9.5 16.5Zm0-6.5Z"/></svg>