<svg xmlns="http://www.w3.org/2000/svg" height="20" viewBox="0 96 960 960" width="20"><path d="m506 840 94-57 94 57-25-107 83-71-109-10-43-100-43 100-109 10 83 71-25 107ZM264 648v72h-96q-29.7 0-50.85-21.15Q96 677.7 96 648V264q0-29.7 21.15-50.85Q138.3 192 168 192h384q29.7 0 50.85 21.15Q624 234.3 624 264v96h-72v-96H168v384h96Zm144 312q-29.7 0-50.85-21.15Q336 917.7 336 888V504q0-29.7 21.15-50.85Q378.3 432 408 432h384q29.7 0 50.85 21.15Q864 474.3 864 504v384q0 29.7-21.15 50.85Q821.7 960 792 960H408Zm0-72h384V504H408v384Zm192-192Z"/></svg>