<svg xmlns="http://www.w3.org/2000/svg" height="20" viewBox="0 96 960 960" width="20"><path d="m768 966-72-72q-46 32-101 49t-115 17q-79 0-149-30t-122.5-82.5Q156 795 126 725T96 576q0-60 17-115t49-101l-72-72 51-51 678 678-51 51Zm-291-79q46 0 87.5-12t77.5-35l-95-95q-40 21-68.5 57T439 885q9 2 18.5 2H477Zm-105-18q8-63 57-115t69-63q-31-9-62.5-14t-63.5-5q-45 0-88.5 9.5T198 710q26 55 71 96.5T372 869Zm426-77L654 648q38-2 64-30t26-66q0-40-28-68t-68-28q-38 0-66 26t-30 64l-49-49q8-64-37.5-110T355 349l-91-91q46-32 101-49t115-17q80 0 149.5 30t122 82.5Q804 357 834 426.5T864 576q0 60-17 115t-49 101ZM372 612q10 0 19-1.5t18-3.5L245 443q-2 9-3.5 18t-1.5 19q0 55 38.5 93.5T372 612Z"/></svg>