<svg xmlns="http://www.w3.org/2000/svg" height="20" width="20"><path d="M10.5 12.417 7.583 9.5l6.396-6.375q.229-.229.531-.229.302 0 .532.229l1.833 1.854q.229.229.229.531 0 .302-.229.532Zm0-2.125L15.292 5.5l-.792-.792L9.708 9.5ZM9.5 17l1.5-1.5h7V17Zm-5 0q-.896 0-1.719-.344-.823-.344-1.448-.968L6.5 10.542l2.333 2.333q.229.208.334.49.104.281.104.573 0 .291-.104.562-.105.271-.334.5l-.521.542q-.708.708-1.624 1.083Q5.771 17 4.771 17Zm0-1.5h.25q.708 0 1.354-.26.646-.261 1.146-.761l.521-.541L6.5 12.646l-2.75 2.75q.188.042.375.073.187.031.375.031Zm10.792-10-.792-.792.792.792ZM6.5 12.646Z"/></svg>