<svg xmlns="http://www.w3.org/2000/svg" height="20" width="20"><path d="M10 18.333 6.667 15 7.896 13.771 9.125 15V11.583Q7.708 11.271 6.771 10.146Q5.833 9.021 5.833 7.5Q5.833 5.75 7.042 4.542Q8.25 3.333 10 3.333Q11.75 3.333 12.958 4.542Q14.167 5.75 14.167 7.5Q14.167 9.021 13.229 10.146Q12.292 11.271 10.875 11.583V15L12.104 13.771L13.333 15ZM10 9.917Q11.021 9.917 11.719 9.219Q12.417 8.521 12.417 7.5Q12.417 6.479 11.719 5.781Q11.021 5.083 10 5.083Q8.979 5.083 8.281 5.781Q7.583 6.479 7.583 7.5Q7.583 8.521 8.281 9.219Q8.979 9.917 10 9.917ZM10 7.5Q10 7.5 10 7.5Q10 7.5 10 7.5Q10 7.5 10 7.5Q10 7.5 10 7.5Q10 7.5 10 7.5Q10 7.5 10 7.5Q10 7.5 10 7.5Q10 7.5 10 7.5Z"/></svg>