<svg xmlns="http://www.w3.org/2000/svg" height="20" width="20"><path d="M12.5 14.167Q10.979 14.167 9.854 13.229Q8.729 12.292 8.417 10.875H5L6.229 12.104L5 13.333L1.667 10L5 6.667L6.229 7.896L5 9.125H8.417Q8.729 7.708 9.854 6.771Q10.979 5.833 12.5 5.833Q14.25 5.833 15.458 7.042Q16.667 8.25 16.667 10Q16.667 11.75 15.458 12.958Q14.25 14.167 12.5 14.167ZM12.5 12.417Q13.521 12.417 14.219 11.719Q14.917 11.021 14.917 10Q14.917 8.979 14.219 8.281Q13.521 7.583 12.5 7.583Q11.479 7.583 10.781 8.281Q10.083 8.979 10.083 10Q10.083 11.021 10.781 11.719Q11.479 12.417 12.5 12.417ZM12.5 10Q12.5 10 12.5 10Q12.5 10 12.5 10Q12.5 10 12.5 10Q12.5 10 12.5 10Q12.5 10 12.5 10Q12.5 10 12.5 10Q12.5 10 12.5 10Q12.5 10 12.5 10Z"/></svg>