<svg xmlns="http://www.w3.org/2000/svg" height="20" viewBox="0 -960 960 960" width="20"><path d="M696-864q33 0 52.5 19.5T768-792v624q0 33-19.5 52.5T696-96H264q-33 0-52.5-19.5T192-168v-624q0-33 19.5-52.5T264-864h432Zm0 72H264v624h432v-624Zm-72 120H336v384h288v-384Zm-72 72v168H408v-168h144Zm-72 348q-10.4 0-17.2 6.8-6.8 6.8-6.8 17.2 0 10.4 6.8 17.2 6.8 6.8 17.2 6.8 10.4 0 17.2-6.8 6.8-6.8 6.8-17.2 0-10.4-6.8-17.2-6.8-6.8-17.2-6.8Zm0-504q-10.4 0-17.2 6.8-6.8 6.8-6.8 17.2 0 10.4 6.8 17.2 6.8 6.8 17.2 6.8 10.4 0 17.2-6.8 6.8-6.8 6.8-17.2 0-10.4-6.8-17.2-6.8-6.8-17.2-6.8Zm0 276Z"/></svg>