<svg xmlns="http://www.w3.org/2000/svg" height="20" width="20"><path d="M3.708 9.312q-.229-.229-.218-.52.01-.292.239-.521l2.209-2.209-.813-.812-.354.354q-.229.229-.531.229-.302 0-.532-.229-.229-.229-.229-.531 0-.302.229-.531l1.771-1.771q.229-.229.531-.229.302 0 .532.229.229.229.229.531 0 .302-.229.531l-.354.355L7 5l2.208-2.229q.23-.229.532-.229.302 0 .531.208.229.229.229.531 0 .302-.229.531l-.5.5 5.791 5.792q.438.438.438 1.063t-.438 1.062l-.666.667 3.646 3.625h-2.146l-2.563-2.563-.645.646q-.438.438-1.063.438t-1.063-.438L5.271 8.812l-.5.5q-.229.23-.531.23-.302 0-.532-.23ZM6.333 7.75l5.792 5.792 2.375-2.375-1.208-1.229-1.167 1.145q-.229.229-.521.229-.292 0-.521-.229-.229-.229-.229-.531 0-.302.229-.531l1.146-1.146L11 7.646 9.854 8.792q-.229.229-.531.229-.302 0-.531-.229-.23-.209-.23-.521 0-.313.23-.542l1.146-1.146-1.23-1.208Zm0 0 2.375-2.375Z"/></svg>