<svg xmlns="http://www.w3.org/2000/svg" height="20" width="20"><path d="M3.5 18q-.625 0-1.062-.438Q2 17.125 2 16.5h1.5ZM2 14.875v-1.5h1.5v1.5Zm0-3.125v-1.5h1.5v1.5Zm0-3.125v-1.5h1.5v1.5ZM2 5.5q0-.625.438-1.062Q2.875 4 3.5 4v1.5ZM5.125 18v-1.5h1.5V18Zm3.125 0v-1.5h1.5V18Zm3.125 0v-1.5h1.5V18Zm3.125 0v-1.5H16q0 .625-.438 1.062Q15.125 18 14.5 18Zm-8-3q-.625 0-1.062-.438Q5 14.125 5 13.5v-10q0-.625.438-1.062Q5.875 2 6.5 2h10q.625 0 1.062.438Q18 2.875 18 3.5v10q0 .625-.438 1.062Q17.125 15 16.5 15Zm0-1.5h10V6H11V3.5H6.5v10Zm0-10v10-10Z"/></svg>