<svg xmlns="http://www.w3.org/2000/svg" height="20" width="20"><path d="M3.417 16.667Q2.688 16.667 2.177 16.156Q1.667 15.646 1.667 14.917V5.083Q1.667 4.354 2.177 3.844Q2.688 3.333 3.417 3.333H16.583Q17.312 3.333 17.823 3.844Q18.333 4.354 18.333 5.083V14.917Q18.333 15.646 17.823 16.156Q17.312 16.667 16.583 16.667ZM3.417 14.917H16.583Q16.583 14.917 16.583 14.917Q16.583 14.917 16.583 14.917V6.729H3.417V14.917Q3.417 14.917 3.417 14.917Q3.417 14.917 3.417 14.917ZM9.958 14.208V12.458H15.042V14.208ZM6.25 14.229 5.021 13 7.167 10.833 5 8.667 6.25 7.438 9.646 10.833Z"/></svg>