<svg xmlns="http://www.w3.org/2000/svg" height="20" viewBox="0 -960 960 960" width="20"><path d="M458.83-96Q438-96 419-104.5T386-129L155-397l34-35q14-14 32.5-16t37.5 5l77 31v-248q0-15.3 10.29-25.65Q356.58-696 371.79-696t25.71 10.33q10.5 10.33 10.5 25.61V-307l-121-48 154 179q4 4 8.58 6 4.57 2 9.42 2h165q29.7 0 50.85-21Q696-210 696-240v-168q0-10.2-6.9-17.1-6.9-6.9-17.1-6.9h-72v-72h72q40 0 68 28t28 68v168q0 60.3-42 102.15Q684-96 624-96H458.83ZM456-432v-276q0-15.3 10.29-25.65Q476.58-744 491.79-744t25.71 10.35Q528-723.3 528-708v276h-72ZM183-621q-2-9-2.5-19t-.5-19.96Q180-765 253.47-838.5 326.95-912 432.42-912 537-912 610.5-838.5 684-765 684-659.96q0 9.96-.5 18.96t-2.5 18l-71-10q1-7 1.5-13.5t.5-13.69q0-74.62-52.53-127.22Q506.95-840 432.42-840 357-840 304.5-787.35T252-660q0 8 .5 14.5T254-632l-71 11Zm308 303Z"/></svg>