<svg xmlns="http://www.w3.org/2000/svg" height="20" viewBox="0 -960 960 960" width="20"><path d="M168-192q-29.7 0-50.85-21.15Q96-234.3 96-264v-480q0-29.7 21.15-50.85Q138.3-816 168-816h576q29.7 0 50.85 21.15Q816-773.7 816-744v168h-72v-168H168v480h75l72 72H168ZM582-72q-21 0-41.5-8.5T505-104L304-305l38-38q11-11 24.5-14.5t27.5.5l86 22v-301q0-15.3 10.289-25.65 10.29-10.35 25.5-10.35Q531-672 541.5-661.65 552-651.3 552-636v228h48v-108q0-15.3 10.289-25.65 10.29-10.35 25.5-10.35Q651-552 661.5-541.65 672-531.3 672-516v108h48v-60q0-15.3 10.289-25.65 10.29-10.35 25.5-10.35Q771-504 781.5-493.65 792-483.3 792-468v60h48v-12q0-15.3 10.289-25.65 10.29-10.35 25.5-10.35Q891-456 901.5-445.65 912-435.3 912-420v192q0 65-45.5 110.5T756-72H582Z"/></svg>