<svg xmlns="http://www.w3.org/2000/svg" height="20" viewBox="0 -960 960 960" width="20"><path d="m134-135-40-41 146-144q-27-30-48.5-63.5T154-452h58.38Q226-426 242-402t36.21 47q30.79-35 54.29-74t37.5-81H48v-57h202.22v-57H308v57.5h201v57.5h-84q-16 51-42.5 98.5T318-321q14 17 34.5 38t37.5 35l-22.42 59Q351-205 325.5-230.5T278-279L134-135Zm226 87 129.6-346H552L682-48h-59.67l-31.77-88H451l-30.65 88H360Zm109-139h104l-52-148-52 148Zm107-389h72v-48h-72v48Zm120 0h48v-48h-48v48Zm-264-96h48v-48h-48v48Zm96 0h216v-48H528v48Zm48 240v-48h240v-336H336v144h-48v-144q0-20 14-34t34-14h480q20 0 34 14t14 34v336q0 20-14 34t-34 14H576Zm240-48v-336 336Z"/></svg>