<svg xmlns="http://www.w3.org/2000/svg" height="20" width="20"><path d="M4.5 3.5v13-13V7ZM6 12h2.875q.167-.417.375-.792.208-.375.5-.708H6Zm0 3h2.583q-.062-.375-.083-.75-.021-.375.021-.75H6Zm-1.5 3q-.625 0-1.062-.438Q3 17.125 3 16.5v-13q0-.625.438-1.062Q3.875 2 4.5 2H11l4 4v2.583q-.375-.062-.75-.083-.375-.021-.75.021V7H10V3.5H4.5v13h4.604q.229.417.5.792.271.375.625.708Zm9.5-8q1.667 0 2.833 1.167Q18 12.333 18 14q0 1.667-1.167 2.833Q15.667 18 14 18q-1.667 0-2.833-1.167Q10 15.667 10 14q0-1.667 1.167-2.833Q12.333 10 14 10Zm0 6q.167 0 .292-.125.125-.125.125-.292 0-.166-.125-.291-.125-.125-.292-.125-.167 0-.292.125-.125.125-.125.291 0 .167.125.292.125.125.292.125Zm-.292-1.271h.604v-.125q0-.229.073-.354.073-.125.24-.271.271-.25.396-.469.125-.218.125-.448 0-.437-.292-.75Q14.562 12 14 12q-.396 0-.708.229-.313.229-.459.604l.563.229q.042-.208.208-.354.167-.146.396-.146t.385.126q.157.124.157.395 0 .125-.084.25-.083.125-.25.271-.146.125-.25.24-.104.114-.166.218-.042.105-.063.198-.021.094-.021.365Z"/></svg>