<svg xmlns="http://www.w3.org/2000/svg" height="20" width="20"><path d="M7.5 15H10.833Q11.188 15 11.427 14.76Q11.667 14.521 11.667 14.167V13.333L13.333 14.208V10.792L11.667 11.667V10.833Q11.667 10.479 11.427 10.24Q11.188 10 10.833 10H7.5Q7.146 10 6.906 10.24Q6.667 10.479 6.667 10.833V14.167Q6.667 14.521 6.906 14.76Q7.146 15 7.5 15ZM5.083 18.333Q4.354 18.333 3.844 17.823Q3.333 17.312 3.333 16.583V3.417Q3.333 2.688 3.844 2.177Q4.354 1.667 5.083 1.667H11.583L16.667 6.75V16.583Q16.667 17.312 16.156 17.823Q15.646 18.333 14.917 18.333ZM10.708 7.625V3.417H5.083Q5.083 3.417 5.083 3.417Q5.083 3.417 5.083 3.417V16.583Q5.083 16.583 5.083 16.583Q5.083 16.583 5.083 16.583H14.917Q14.917 16.583 14.917 16.583Q14.917 16.583 14.917 16.583V7.625ZM5.083 3.417V7.625V3.417V7.625V16.583Q5.083 16.583 5.083 16.583Q5.083 16.583 5.083 16.583Q5.083 16.583 5.083 16.583Q5.083 16.583 5.083 16.583V3.417Q5.083 3.417 5.083 3.417Q5.083 3.417 5.083 3.417Z"/></svg>