<svg xmlns="http://www.w3.org/2000/svg" height="20" viewBox="0 96 960 960" width="20"><path d="m570 564 126-75v-35l-42-24-136 82 26 26 26 26Zm-90 259 36-21V612L376 472l-70-42-42 24v34l180 108v206l36 21Zm271-78L335 329l109-62q17.131-10 36.066-10Q499 257 516 267l216 124q17.1 9.884 26.55 26.507T768 453v246q0 12.65-4.636 24.15Q758.727 734.65 751 745ZM444 884 228 761q-17-11-26.5-27t-9.5-36V453q0-18.87 9.45-35.493T228 391l43-24 209 209 209 209-173 99q-17.131 10-36.066 10Q461 894 444 884Zm359 116-40-40h-91v-72h27v8L154 351h14v33H96v-91l-40-40 51-50 746 746-50 51Zm61-232v90l-72-72v-18h72ZM288 192v72h-18l-72-72h90Zm0 768H168q-29.7 0-50.85-21.15Q96 917.7 96 888V768h72v120h120v72Zm504-576V264H672v-72h120q29.7 0 50.85 21.15Q864 234.3 864 264v120h-72Z"/></svg>