<svg xmlns="http://www.w3.org/2000/svg" height="20" viewBox="0 -960 960 960" width="20"><path d="M552-144q-10.2 0-17.1-6.9-6.9-6.9-6.9-17.1v-144q0-10.2 6.9-17.1 6.9-6.9 17.1-6.9h96q10.2 0 17.1 6.9 6.9 6.9 6.9 17.1v144q0 10.2-6.9 17.1-6.9 6.9-17.1 6.9h-96Zm24-48h48v-96h-48v96Zm144 96v-96q0-10.2 6.9-17.1 6.9-6.9 17.1-6.9h72v-24h-96v-48h120q10.2 0 17.1 6.9 6.9 6.9 6.9 17.1v72q0 10.2-6.9 17.1-6.9 6.9-17.1 6.9h-72v24h96v48H720Zm-515.835-96Q149-192 110.5-231.375 72-270.75 72-327v-195q0-45 20-85.5t56-67.5l160-121q14-11 21-26.206T336-854v-58h72v58q0 16.941 7 32.471 7 15.529 20.883 25.332L596-675q36 27 56 67.5t20 85.5v138H552q-29.7 0-50.85 21.15Q480-341.7 480-312v105q-33-17-52.5-50T408-327v-401l-36-28-36 28v401q0 56-38.335 95.5t-93.5 39.5Z"/></svg>