<svg xmlns="http://www.w3.org/2000/svg" height="20" viewBox="0 96 960 960" width="20"><path d="M672.211 420Q657 420 646.5 409.711q-10.5-10.29-10.5-25.5Q636 369 646.289 358.5q10.29-10.5 25.5-10.5Q687 348 697.5 358.289q10.5 10.29 10.5 25.5Q708 399 697.711 409.5q-10.29 10.5-25.5 10.5ZM360 672l102-136 66 88 90-120 126 168H360ZM168 960q-29.7 0-50.85-21.15Q96 917.7 96 888V336h72v552h552v72H168Zm72-477V264q0-29.7 21.15-50.85Q282.3 192 312 192h204v72H312v219h-72Zm72 333q-29.7 0-50.85-21.15Q240 773.7 240 744V555h72v189h204v72H312Zm276 0v-72h204V555h72v189q0 29.7-21.15 50.85Q821.7 816 792 816H588Zm204-333V264H588v-72h204q29.7 0 50.85 21.15Q864 234.3 864 264v219h-72Z"/></svg>