<svg xmlns="http://www.w3.org/2000/svg" height="20" width="20"><path d="M7.833 18q-.562 0-.989-.385-.427-.386-.49-.948l-.812-6.875q-.021-.146.041-.261.063-.114.167-.198l.625-.416q.104-.063.167-.177.062-.115.062-.24 0-.125-.062-.229-.063-.104-.167-.188l-.563-.375q-.145-.104-.187-.25-.042-.146 0-.312l.771-2.313q.042-.166.166-.25.126-.083.292-.083H9.25v-1H8V2h4v1.5h-1.25v1h2.396q.166 0 .292.094.124.094.166.26l.771 2.292q.042.166 0 .323-.042.156-.187.26l-.563.354q-.104.063-.177.167-.073.104-.073.229 0 .146.073.25.073.104.177.188l.625.416q.125.084.177.209.052.125.031.27l-.812 6.876q-.063.562-.49.937t-.989.375Z"/></svg>