<svg xmlns="http://www.w3.org/2000/svg" height="20" width="20"><path d="M9.5 7.25q-1.125 0-2.188.365-1.062.364-1.958 1.073l.958 7.812h7.376L14.729 8h-.646q-.666 0-1.25-.115-.583-.114-1.458-.364-.458-.146-.927-.209-.469-.062-.948-.062ZM5.146 7q.979-.604 2.083-.927 1.104-.323 2.25-.323.604 0 1.188.094.583.094 1.145.26.646.188 1.219.292.573.104 1.052.104h.834l.375-3H4.708Zm1.187 11q-.562 0-.989-.375-.427-.375-.511-.937L3 2h14l-1.833 14.688q-.084.562-.511.937t-.989.375ZM9.5 16.5h4.188-7.376H9.5Z"/></svg>