<svg xmlns="http://www.w3.org/2000/svg" height="20" width="20"><path d="M9.5 13.25q-.938 0-1.812.24-.876.239-1.667.718l.291 2.292h7.376L14 13.979q-.646 0-1.219-.104-.573-.104-1.406-.354-.458-.146-.927-.209-.469-.062-.948-.062Zm-3.667-.625q.855-.417 1.771-.646.917-.229 1.875-.229.604 0 1.188.094.583.094 1.145.26.646.188 1.219.292.573.104 1.052.104h.105l1.104-9H4.708Zm.5 5.375q-.562 0-.989-.375-.427-.375-.511-.937L3 2h14l-1.833 14.688q-.084.562-.511.937t-.989.375ZM9.5 16.5H13.688 6.312 9.5Z"/></svg>