<svg xmlns="http://www.w3.org/2000/svg" height="20" viewBox="0 96 960 960" width="20"><path d="M492 1008q-25 0-42.5-17T432 949q0-12 5-23t13-19l42-43 42 43q8 8 13 19t5 23q0 25-17.5 42t-42.5 17Zm-138-60-42-42 114-114 42 42-114 114Zm258-60-60-60 60-60 60 60-60 60Zm-348 0-60-60 60-60 60 60-60 60Zm31-168q-85 0-142-61.275T96 511q0-77 52.408-132.57Q200.817 322.859 278 313q30-56 84.5-88.5T479.574 192q85.329 0 148.378 54.5Q691 301 705 384q67 2 113 52t46 116.191q0 69.921-49 118.865Q766 720 696 720H295Zm5-72h396q40.32 0 68.16-27.775 27.84-27.774 27.84-68Q792 512 764.16 484q-27.84-28-68.16-28h-53l-9-60q-8-57-52-94.5T480 264q-46.11 0-84.055 25Q358 314 338 356l-14 28h-24.085Q245 384 206.5 422.64 168 461.281 168 515.663 168 571 206.657 609.5T300 648Zm180-192Z"/></svg>