<svg xmlns="http://www.w3.org/2000/svg" height="20" viewBox="0 -960 960 960" width="20"><path d="M312-216q-40 0-68-28t-28-68v-336q0-39 28-66.5t68-29.5h336q39 2 66.5 29.5T744-648v336q-2 40-29.5 68T648-216H312Zm0 72h336q70 0 119-49t49-119v-336q0-70-49-119t-119-49H312q-70 0-119 49t-49 119v336q0 70 49 119t119 49Zm-1-353-57-46q43-50 101-74.5T480-642q67 0 125 24.5T708-543l-59 46q-32-34-75-53.5T480-570q-51 0-94 19.5T311-497Zm101 102-54-48q24-26 55.5-40.5T480-498q35 0 67 14.5t56 40.5l-55 48q-14-15-31-23t-37-8q-20 0-37 8t-31 23Zm42.5 84.5Q444-321 444-336t10.5-25.5Q465-372 480-372t25.5 10.5Q516-351 516-336t-10.5 25.5Q495-300 480-300t-25.5-10.5ZM480-480Z"/></svg>