<svg xmlns="http://www.w3.org/2000/svg" height="20" viewBox="0 96 960 960" width="20"><path d="M192 840v-72h48V528q0-85.741 53.5-152.37Q347 309 432 293v-53q0-20 14-34t34-14q20 0 34 14t14 34v53q39 8 72.5 27t58.5 47q-72 15-132.335 57.131Q466.33 466.262 415 517l251 251h102v72H192Zm287.788 120Q450 960 429 938.85 408 917.7 408 888h144q0 30-21.212 51-21.213 21-51 21ZM720 480q-49.869 0-93.273 19.151Q583.322 518.303 551 551l-35-34q39-39 91.746-62Q660.492 432 720 432q59.835 0 112.418 22.5Q885 477 924 516l-35 34q-32.147-32.237-75.774-51.118Q769.598 480 720 480Zm-.5 96q-29.5 0-55.729 11.537Q637.543 599.073 618 619l-34-34q26-26 61-41.5t75.174-15.5q40.174 0 75.087 14.966Q830.174 557.931 856 584l-34 34q-20.101-20.488-46.551-31.244Q749 576 719.5 576Zm.262 48q20.238 0 37.738 7.5T788 652l-68 68-68-67q13-14 30.262-21.5t37.5-7.5Z"/></svg>