<svg xmlns="http://www.w3.org/2000/svg" height="20" viewBox="0 96 960 960" width="20"><path d="M168 840V408v432Zm240-504h144v-72H408v72ZM168 912q-29.7 0-50.85-21.15Q96 869.7 96 840V408q0-29.7 21.15-50.85Q138.3 336 168 336h168v-72.212Q336 234 357.176 213q21.176-21 50.912-21h144.176Q582 192 603 213.15q21 21.15 21 50.85v72h168q29.7 0 50.85 21.15Q864 378.3 864 408v187q-17-11-34.5-19.5T792 562V408H168v432h289q2 18.934 6 36.967Q467 895 474 912H168Zm552 0 108-108-34-34-50 50V720h-48v100l-50-50-34 34 108 108Zm-.226 96Q640 1008 584 951.774t-56-136Q528 736 584.226 680t136-56Q800 624 856 680.226t56 136Q912 896 855.774 952t-136 56Z"/></svg>