<svg xmlns="http://www.w3.org/2000/svg" height="20" viewBox="0 96 960 960" width="20"><path d="m720 912 108-108-34-34-50 50V720h-48v100l-50-50-34 34 108 108ZM408 336h144v-72H408v72Zm311.774 672Q640 1008 584 951.774t-56-136Q528 736 584.226 680t136-56Q800 624 856 680.226t56 136Q912 896 855.774 952t-136 56ZM168 912q-29.7 0-50.85-21.15Q96 869.7 96 840V408q0-29.7 21.15-50.85Q138.3 336 168 336h168v-72.212Q336 234 357.176 213q21.176-21 50.912-21h144.176Q582 192 603 213.15q21 21.15 21 50.85v72h168q29.7 0 50.85 21.15Q864 378.3 864 408v187q-31.709-21.078-68.855-32.039Q758 552 720 552q-110 0-187 77t-77 187q0 24.598 4.5 48.799T474 912H168Z"/></svg>