<svg xmlns="http://www.w3.org/2000/svg" height="20" width="20"><path d="M8.938 18.125 5.646 14H1v-1.5h5.354l2.542 3.167L7.25 12.5h9q.312 0 .531.219.219.219.219.531 0 .312-.219.531-.219.219-.531.219h-6.5l.375.646q.354.666.25 1.396-.104.729-.646 1.27ZM1 8.5V7h3.75l.958-1.188q.334-.395.782-.604Q6.938 5 7.438 5h7.791q.313 0 .531.219.219.219.219.531 0 .312-.219.531-.218.219-.531.219H7.438q-.167 0-.323.062-.157.063-.261.209L5.458 8.5Zm0 2Zm11 1V10h6.25q.312 0 .531.219.219.219.219.531 0 .312-.219.531-.219.219-.531.219ZM12 9V7.5h5.25q.312 0 .531.219.219.219.219.531 0 .312-.219.531Q17.562 9 17.25 9Z"/></svg>